<svg width="48" height="48" viewBox="0 0 48 48" fill="none" xmlns="http://www.w3.org/2000/svg">
<g clip-path="url(#clip0_677_6755)">
<path d="M18.6514 23.9777C20.7364 22.8302 22.4539 21.4577 23.7664 19.9127L23.8714 19.7852L23.9764 19.9127C25.2889 21.4577 27.0139 22.8377 29.0914 23.9777L29.2039 20.7827C27.0139 19.2902 25.7314 17.8427 25.3939 17.1977V17.1677V3.79529H22.3489V17.1677V17.1977C22.0114 17.8352 20.7589 19.2827 18.5464 20.7677" fill="#8999B3"/>
<path d="M7.49176 42.6378C5.61677 43.5078 4.32677 44.2653 3.40428 44.5878C2.21928 45.0078 0.981783 44.1753 0.869283 42.9303C-1.17821 19.7478 12.5392 9.70537 16.1092 8.89537C17.7142 8.52787 18.4717 9.41287 18.8242 10.3354C19.0567 10.9504 19.1167 11.9929 18.9517 12.6229C18.0217 16.1478 19.1617 20.7978 18.8017 25.5453L19.0117 28.6203C19.0792 29.6103 19.2367 30.5928 19.3792 31.5828C19.4617 32.1453 19.4767 32.7228 19.4242 33.2853C19.2967 34.5153 18.9217 36.1353 17.8867 37.6203C16.8967 39.0453 15.3817 40.0203 13.7017 40.4778C12.1567 40.9053 9.56926 41.6778 7.49176 42.6378Z" fill="#FB7185"/>
<path d="M40.3751 42.6378C42.2501 43.5078 43.5401 44.2653 44.4626 44.5878C45.6476 45.0078 46.8851 44.1753 46.9976 42.9303C49.0451 19.7478 35.3276 9.70537 31.7576 8.89537C30.1526 8.52787 29.3951 9.41287 29.0427 10.3354C28.8102 10.9504 28.7502 11.9929 28.9151 12.6229C29.8451 16.1478 28.7052 20.7978 29.0651 25.5453L28.8552 28.6203C28.7877 29.6103 28.6301 30.5928 28.4876 31.5828C28.4052 32.1453 28.3902 32.7228 28.4426 33.2853C28.5702 34.5153 28.9452 36.1353 29.9801 37.6203C30.9701 39.0453 32.4851 40.0203 34.1651 40.4778C35.7101 40.9053 38.2976 41.6778 40.3751 42.6378Z" fill="#FB7185"/>
</g>
<defs>
<clipPath id="clip0_677_6755">
<rect width="46.7999" height="41.3999" fill="white" transform="translate(0.599121 3.60034)"/>
</clipPath>
</defs>
</svg>
