<svg width="48" height="48" viewBox="0 0 48 48" fill="none" xmlns="http://www.w3.org/2000/svg">
<g clip-path="url(#clip0_311_8804)">
<path d="M18.3283 20.3153C19.7766 16.0621 19.0868 13.1898 18.5851 11.8374C15.429 3.32826 21.0721 1.12486 21.0721 1.12486C21.0721 1.12486 22.8037 0.0949193 25.4068 0.00638629C27.4073 -0.0616505 29.0133 0.428161 30.3999 1.2988C32.3266 2.50851 33.4772 4.01847 33.6551 6.44722C33.7016 7.08336 33.5843 7.48484 33.4773 7.85056C33.3487 8.29071 33.2351 8.67908 33.4407 9.36242C33.7059 10.2439 34.0786 10.8229 34.3362 11.223L34.3362 11.223C34.4442 11.3907 34.532 11.527 34.583 11.641C34.9734 12.5675 33.1884 12.5716 33.1884 12.5716C33.0048 13.07 33.3522 13.3778 33.3522 13.3778C33.3522 13.3778 33.7278 13.5446 33.5093 14.1001C33.4564 14.2346 32.9667 14.5943 32.8493 15.0001C32.7776 15.2478 32.8458 15.6574 32.8458 15.6574C32.9114 15.9825 32.9869 16.3561 32.4607 16.8943C31.9038 17.4358 31.0818 17.3522 30.3535 17.2782C29.651 17.2068 29.0357 17.1443 28.8298 17.6601C28.5198 18.4367 29.5371 20.0965 29.5371 20.0965C29.5371 20.0965 31.7961 21.4308 33.6955 22.503C33.8378 22.5361 33.98 22.5552 34.1223 22.5552C37.028 23.0823 39.6695 23.2154 41.2544 25.5872C42.5751 27.1685 43.3676 29.8039 43.1034 32.4393C43.0755 32.6906 43.0504 32.9064 43.0287 33.0939L43.0286 33.0944C42.9448 33.8175 42.9097 34.1197 42.9415 34.4148C42.9643 34.6268 43.0216 34.8351 43.1201 35.193L43.1201 35.1931C43.1844 35.4269 43.2663 35.7246 43.3676 36.1289C43.6317 36.6559 43.8959 37.4466 43.8959 37.7101L44.6884 43.508C44.8849 44.6845 45.0814 45.1315 45.3867 45.826L45.3868 45.8261C45.4918 46.065 45.6097 46.3332 45.745 46.6705C45.8904 47.1059 46.0092 47.5502 46.1094 48.0001H37.7274C37.6531 47.5396 37.6047 47.1051 37.5563 46.6705C37.4902 46.0775 37.4242 45.4846 37.2921 44.8257C37.16 44.4304 37.028 43.9034 36.8959 43.3764L36.8959 43.3763C36.7638 42.8492 36.6317 42.3221 36.4997 41.9268C36.3676 42.1903 36.3015 42.5197 36.2355 42.8492C36.1695 43.1786 36.1034 43.508 35.9713 43.7715C35.5535 44.8831 35.356 46.4343 35.3401 48.0001H12.1685C12.1385 46.5035 11.9404 44.9694 11.5402 43.7715C11.5402 43.2445 11.276 42.4538 11.0119 41.9268C10.8798 42.3221 10.7477 42.8491 10.6157 43.3762L10.6156 43.3762L10.6156 43.3765C10.4835 43.9035 10.3515 44.4305 10.2194 44.8257C10.0764 45.5391 10.0108 46.098 9.93883 46.7115C9.8931 47.1011 9.84479 47.5128 9.77242 48.0001H2.05464C2.15592 47.5558 2.27621 47.1131 2.4241 46.6705C2.5799 46.2819 2.71275 46.0079 2.82936 45.7673L2.82965 45.7668C3.10825 45.1922 3.29455 44.8081 3.4807 43.508L4.27315 37.7101C4.27315 37.4466 4.40521 37.1831 4.53727 36.9195L4.5373 36.9195C4.66938 36.656 4.80145 36.3924 4.80145 36.1289C5.16594 34.6743 5.15323 34.4742 5.11031 33.7976C5.09101 33.4935 5.06561 33.0931 5.06561 32.4393C5.06561 30.0674 5.85807 27.1685 6.91467 25.5872C8.49958 22.9518 11.1411 23.0823 14.0468 22.5552C14.5751 22.5552 15.1034 22.2917 15.6317 22.0281L15.6878 22.0167C17.0308 21.1593 18.3283 20.3153 18.3283 20.3153Z" fill="#F26674"/>
<path d="M32.6358 44.1024C32.1511 43.931 32.0733 43.5285 31.0882 43.0662C29.9966 42.5562 29.2371 42.1457 28.4254 41.9185C27.5427 41.6755 26.7467 41.1574 26.2265 40.4002C25.6827 39.6112 25.3687 39.4733 25.4187 38.0969C25.4687 36.7205 26.0142 35.4001 26.2265 33.0001C26.4389 30.6001 26.7556 28.9911 26.267 27.1181C26.1803 26.7834 26.2118 26.2294 26.334 25.9027C26.5192 25.4125 26.9172 24.9423 27.7604 25.1375C29.6362 25.5679 35.0434 30.9039 33.9677 43.2217C33.9086 43.8832 33.2584 44.3255 32.6358 44.1024Z" fill="white"/>
<path d="M13.8768 44.1024C14.3615 43.931 14.4393 43.5285 15.4244 43.0662C16.516 42.5562 17.2754 42.1457 18.0872 41.9185C18.9699 41.6755 19.7659 41.1574 20.286 40.4002C20.8298 39.6112 21.1439 39.4733 21.0939 38.0969C21.0438 36.7205 20.4984 35.4001 20.286 33.0001C20.0737 30.6001 19.757 28.9911 20.2456 27.1181C20.3323 26.7834 20.3008 26.2294 20.1786 25.9027C19.9934 25.4125 19.5954 24.9423 18.7521 25.1375C16.8764 25.5679 11.4691 30.9039 12.5449 43.2217C12.604 43.8832 13.2542 44.3255 13.8768 44.1024Z" fill="white"/>
<path fill-rule="evenodd" clip-rule="evenodd" d="M33.411 9.99136C33.6375 10.5332 33.891 10.927 34.0815 11.223L34.0816 11.223C34.1896 11.3908 34.2773 11.5271 34.3284 11.641C34.7188 12.5675 32.9337 12.5716 32.9337 12.5716C32.7502 13.07 33.0975 13.3778 33.0975 13.3778C33.0975 13.3778 33.4731 13.5446 33.2546 14.1001C33.2363 14.1467 33.1657 14.2202 33.0763 14.3133C32.9074 14.4891 32.6714 14.7348 32.5946 15.0001C32.5732 15.0744 32.5642 15.1632 32.5623 15.2511C32.405 15.1753 32.2369 15.0913 32.0549 15.0003L32.0546 15.0001C31.8196 14.8826 31.642 14.7766 31.4856 14.6831C30.8435 14.2996 30.5565 14.1282 28.1013 14.2432C25.0479 14.3863 24.2547 18.5171 24.2547 18.5171V28.7089L26.7287 31.6678V34.5002L23.3547 30.0002L19.4547 35.4002L19.1547 32.7002L22.4547 28.7089L22.4547 15.3003C22.5435 14.0381 23.9547 9.31169 27.115 8.65413C29.3493 8.18923 31.8609 9.05579 33.411 9.99136Z" fill="white"/>
</g>
<defs>
<clipPath id="clip0_311_8804">
<rect width="48" height="48" fill="white"/>
</clipPath>
</defs>
</svg>
