<svg width="48" height="48" viewBox="0 0 48 48" fill="none" xmlns="http://www.w3.org/2000/svg">
<path d="M7.79932 12.7204C7.79932 10.3345 9.73344 8.40039 12.1193 8.40039C14.5052 8.40039 16.4393 10.3345 16.4393 12.7204C16.4393 15.1062 14.5052 17.0404 12.1193 17.0404C9.73344 17.0404 7.79932 15.1062 7.79932 12.7204Z" fill="#408FF1"/>
<path d="M19.6792 12.7204C19.6792 10.3345 21.6133 8.40039 23.9992 8.40039C26.385 8.40039 28.3192 10.3345 28.3192 12.7204C28.3192 15.1062 26.385 17.0404 23.9992 17.0404C21.6133 17.0404 19.6792 15.1062 19.6792 12.7204Z" fill="#408FF1"/>
<path d="M35.8791 8.40039C33.4932 8.40039 31.5591 10.3345 31.5591 12.7204C31.5591 15.1062 33.4932 17.0404 35.8791 17.0404C38.2649 17.0404 40.1991 15.1062 40.1991 12.7204C40.1991 10.3345 38.2649 8.40039 35.8791 8.40039Z" fill="#408FF1"/>
<path d="M31.5591 24.0603C31.5591 21.6745 33.4932 19.7404 35.8791 19.7404C38.2649 19.7404 40.1991 21.6745 40.1991 24.0603C40.1991 26.4462 38.2649 28.3803 35.8791 28.3803C33.4932 28.3803 31.5591 26.4462 31.5591 24.0603Z" fill="#408FF1"/>
<path d="M23.9992 19.7404C21.6133 19.7404 19.6792 21.6745 19.6792 24.0603C19.6792 26.4462 21.6133 28.3803 23.9992 28.3803C26.385 28.3803 28.3192 26.4462 28.3192 24.0603C28.3192 21.6745 26.385 19.7404 23.9992 19.7404Z" fill="#408FF1"/>
<path d="M7.79932 24.0603C7.79932 21.6745 9.73344 19.7404 12.1193 19.7404C14.5052 19.7404 16.4393 21.6745 16.4393 24.0603C16.4393 26.4462 14.5052 28.3803 12.1193 28.3803C9.73344 28.3803 7.79932 26.4462 7.79932 24.0603Z" fill="#408FF1"/>
<path d="M35.8791 31.0803C33.4932 31.0803 31.5591 33.0144 31.5591 35.4003C31.5591 37.7862 33.4932 39.7203 35.8791 39.7203C38.2649 39.7203 40.1991 37.7862 40.1991 35.4003C40.1991 33.0144 38.2649 31.0803 35.8791 31.0803Z" fill="#408FF1"/>
<path d="M19.6792 35.4003C19.6792 33.0144 21.6133 31.0803 23.9992 31.0803C26.385 31.0803 28.3192 33.0144 28.3192 35.4003C28.3192 37.7862 26.385 39.7203 23.9992 39.7203C21.6133 39.7203 19.6792 37.7862 19.6792 35.4003Z" fill="#408FF1"/>
<path d="M12.1193 31.0803C9.73344 31.0803 7.79932 33.0144 7.79932 35.4003C7.79932 37.7862 9.73344 39.7203 12.1193 39.7203C14.5052 39.7203 16.4393 37.7862 16.4393 35.4003C16.4393 33.0144 14.5052 31.0803 12.1193 31.0803Z" fill="#408FF1"/>
</svg>
