<svg width="48" height="48" viewBox="0 0 48 48" fill="none" xmlns="http://www.w3.org/2000/svg">
<path d="M43.5184 28.3357C43.549 28.1978 43.5797 28.0595 43.6104 27.9061C44.0302 25.038 43.6193 23.3258 43.6106 22.9052C43.0998 19.8407 39.7739 6.94177 37.2129 6.07463C34.7745 5.24416 35.2532 11.6368 35.2337 12.3803C35.2337 12.4722 35.2185 12.5638 35.2032 12.6557L35.203 12.6566C35.203 13.2559 34.983 14.5992 34.4359 15.9552V15.9705C33.2016 19.0532 30.997 20.3154 29.7105 21.6009C28.0576 23.365 28.8953 25.1114 26.4981 24.6319C26.0769 24.4365 24.8541 23.6728 23.6985 23.6731C22.5436 23.6733 20.901 24.632 20.901 24.632C18.5038 25.1114 19.3415 23.365 17.6885 21.601C16.4021 20.3154 14.1974 19.0532 12.9631 15.9705V15.9552C12.416 14.5992 12.196 13.2559 12.196 12.6566L12.1959 12.6558C12.1806 12.5638 12.1653 12.4722 12.1653 12.3803C12.1459 11.6368 12.6245 5.2442 10.1862 6.07467C7.62513 6.94181 4.29925 19.8408 3.78851 22.9052C3.77976 23.3259 3.36889 25.0381 3.78866 27.9061C3.81934 28.0596 3.85003 28.1978 3.88071 28.3357C4.03383 29.3311 4.38148 30.4057 4.46371 30.7751C4.47905 30.7751 4.47906 30.7905 4.47906 30.8058C4.49425 30.8365 4.50974 30.8825 4.50974 30.9134C5.66578 33.7963 7.33915 41.0697 12.7945 41.0697C13.8225 41.0697 14.835 40.6862 15.6482 40.042C18.8549 37.5613 16.2512 33.9113 19.1769 33.1565C20.9254 32.7054 21.8927 34.1238 23.6985 34.124C25.505 34.1242 26.473 32.7047 28.2222 33.1564C31.1477 33.9119 28.5442 37.5612 31.7509 40.0419C32.564 40.6861 33.5766 41.0697 34.6045 41.0697C40.0599 41.0697 41.7333 33.7963 42.8893 30.9133C42.8893 30.8825 42.9048 30.8365 42.92 30.8058C42.92 30.7904 42.92 30.7751 42.9354 30.7751C43.0176 30.4057 43.3652 29.3311 43.5184 28.3357Z" fill="#FB7185"/>
</svg>
