<svg width="48" height="48" viewBox="0 0 48 48" fill="none" xmlns="http://www.w3.org/2000/svg">
<g clip-path="url(#clip0_677_6733)">
<path d="M24.0196 3.36292C23.3603 3.36151 22.7231 3.60092 22.2279 4.03617C21.7327 4.47142 21.4135 5.07255 21.3302 5.72658C21.247 6.38061 21.4055 7.04252 21.7759 7.58793C22.1463 8.13335 22.7032 8.5247 23.3418 8.68847V10.8179C23.3418 10.9976 23.4132 11.17 23.5403 11.2971C23.6674 11.4242 23.8398 11.4956 24.0196 11.4956C24.1993 11.4956 24.3717 11.4242 24.4988 11.2971C24.6259 11.17 24.6973 10.9976 24.6973 10.8179V8.68847C25.3359 8.5247 25.8928 8.13335 26.2632 7.58793C26.6336 7.04252 26.7921 6.38061 26.7089 5.72658C26.6257 5.07255 26.3064 4.47142 25.8112 4.03617C25.316 3.60092 24.6789 3.36151 24.0196 3.36292ZM24.6973 40.0562V37.9268C24.6973 37.747 24.6259 37.5747 24.4988 37.4476C24.3717 37.3205 24.1993 37.2491 24.0196 37.2491C23.8398 37.2491 23.6674 37.3205 23.5403 37.4476C23.4132 37.5747 23.3418 37.747 23.3418 37.9268V40.0562C22.703 40.2211 22.1462 40.6134 21.7759 41.1595C21.4056 41.7056 21.2471 42.368 21.3303 43.0226C21.4134 43.6771 21.7324 44.2789 22.2275 44.7151C22.7226 45.1512 23.3598 45.3919 24.0196 45.3919C24.6794 45.3919 25.3165 45.1512 25.8116 44.7151C26.3067 44.2789 26.6257 43.6771 26.7089 43.0226C26.792 42.368 26.6336 41.7056 26.2632 41.1595C25.8929 40.6134 25.3361 40.2211 24.6973 40.0562ZM42.3181 21.6614C41.7187 21.6632 41.1369 21.8638 40.6637 22.2318C40.1906 22.5997 39.8528 23.1142 39.7034 23.6946H37.574C37.3943 23.6946 37.2219 23.766 37.0948 23.8931C36.9677 24.0202 36.8963 24.1926 36.8963 24.3723C36.8963 24.5521 36.9677 24.7245 37.0948 24.8515C37.2219 24.9786 37.3943 25.05 37.574 25.05H39.7034C39.831 25.5398 40.0934 25.9841 40.4607 26.3322C40.8281 26.6804 41.2857 26.9186 41.7816 27.0197C42.2776 27.1209 42.7919 27.0809 43.2663 26.9044C43.7407 26.7279 44.156 26.4219 44.4652 26.0212C44.7744 25.6205 44.9651 25.1411 45.0155 24.6375C45.0659 24.1339 44.9741 23.6262 44.7505 23.1721C44.5268 22.7181 44.1804 22.3358 43.7504 22.0688C43.3205 21.8017 42.8242 21.6606 42.3181 21.6614ZM10.4651 25.05C10.6448 25.05 10.8172 24.9786 10.9443 24.8515C11.0714 24.7245 11.1428 24.5521 11.1428 24.3723C11.1428 24.1926 11.0714 24.0202 10.9443 23.8931C10.8172 23.766 10.6448 23.6946 10.4651 23.6946H8.3357C8.17075 23.0557 7.77846 22.499 7.23236 22.1287C6.68627 21.7583 6.02386 21.5999 5.36931 21.683C4.71475 21.7662 4.11299 22.0852 3.67682 22.5803C3.24064 23.0754 3 23.7125 3 24.3723C3 25.0321 3.24064 25.6693 3.67682 26.1644C4.11299 26.6595 4.71475 26.9785 5.36931 27.0616C6.02386 27.1448 6.68627 26.9863 7.23236 26.616C7.77846 26.2457 8.17075 25.6889 8.3357 25.05H10.4651ZM35.5945 34.989L34.0832 33.4776C34.0202 33.4146 33.9455 33.3647 33.8633 33.3307C33.7811 33.2966 33.693 33.2791 33.604 33.2791C33.515 33.2791 33.4269 33.2966 33.3447 33.3307C33.2624 33.3647 33.1877 33.4146 33.1248 33.4776C33.0619 33.5405 33.012 33.6152 32.9779 33.6974C32.9439 33.7796 32.9263 33.8678 32.9263 33.9567C32.9263 34.0457 32.9439 34.1339 32.9779 34.2161C33.012 34.2983 33.0619 34.373 33.1248 34.4359L34.6303 35.9414C34.3848 36.3516 34.2527 36.8197 34.2477 37.2977C34.2427 37.7757 34.365 38.2465 34.602 38.6617C34.8389 39.0769 35.182 39.4216 35.5962 39.6604C36.0103 39.8993 36.4805 40.0237 36.9585 40.0208C37.4939 40.0194 38.0169 39.8597 38.4616 39.5617C38.9064 39.2637 39.2531 38.8408 39.458 38.3463C39.663 37.8517 39.717 37.3075 39.6134 36.7823C39.5097 36.2571 39.253 35.7742 38.8755 35.3946C38.444 34.9848 37.8924 34.7243 37.3018 34.6513C36.7113 34.5783 36.1129 34.6966 35.5945 34.989ZM13.4088 12.8032C13.7179 12.2883 13.8453 11.6846 13.7707 11.0887C13.6961 10.4928 13.4238 9.93917 12.9973 9.51637C12.682 9.20118 12.2939 8.96861 11.8673 8.83925C11.4407 8.70989 10.9888 8.68772 10.5516 8.77473C10.1144 8.86173 9.70538 9.05521 9.3608 9.33804C9.01622 9.62086 8.74671 9.9843 8.57613 10.3962C8.40556 10.808 8.33918 11.2556 8.38289 11.6992C8.4266 12.1429 8.57904 12.5689 8.82671 12.9395C9.07438 13.3102 9.40963 13.614 9.80278 13.8242C10.1959 14.0343 10.6348 14.1443 11.0806 14.1443C11.5633 14.1422 12.0365 14.01 12.4505 13.7616L13.956 15.2671C14.0831 15.3942 14.2554 15.4656 14.4351 15.4656C14.6149 15.4656 14.7872 15.3942 14.9143 15.2671C15.0414 15.14 15.1128 14.9676 15.1128 14.7879C15.1128 14.6082 15.0414 14.4358 14.9143 14.3087L13.4088 12.8032ZM34.0832 15.2671L35.5887 13.7616C36.1036 14.0707 36.7073 14.1981 37.3032 14.1235C37.8991 14.0489 38.4527 13.7766 38.8755 13.3501C39.1275 13.0984 39.3274 12.7995 39.4639 12.4706C39.6003 12.1416 39.6706 11.789 39.6707 11.4329C39.6708 11.0767 39.6008 10.7241 39.4645 10.395C39.3283 10.066 39.1286 9.76699 38.8767 9.51516C38.6249 9.26334 38.3259 9.0636 37.9969 8.92737C37.6678 8.79113 37.3152 8.72107 36.959 8.72118C36.6029 8.72129 36.2503 8.79157 35.9213 8.92802C35.5923 9.06446 35.2935 9.26438 35.0418 9.51637C34.6153 9.93916 34.3429 10.4928 34.2683 11.0887C34.1937 11.6846 34.3212 12.2883 34.6303 12.8032L33.1248 14.3087C33.0619 14.3717 33.012 14.4464 32.9779 14.5286C32.9439 14.6108 32.9263 14.6989 32.9263 14.7879C32.9263 14.8769 32.9439 14.965 32.9779 15.0472C33.012 15.1295 33.0619 15.2042 33.1248 15.2671C33.1877 15.33 33.2624 15.3799 33.3447 15.414C33.4269 15.448 33.515 15.4656 33.604 15.4656C33.693 15.4656 33.7811 15.448 33.8633 15.414C33.9455 15.3799 34.0202 15.33 34.0832 15.2671ZM13.956 33.4776L12.4446 34.989C11.9263 34.6966 11.3278 34.5783 10.7373 34.6513C10.1467 34.7243 9.59513 34.9848 9.1636 35.3946C8.65575 35.9031 8.37059 36.5924 8.37082 37.3111C8.37104 38.0297 8.65663 38.7189 9.1648 39.2271C9.67297 39.7353 10.3621 40.0208 11.0808 40.0211C11.7995 40.0213 12.4888 39.7361 12.9973 39.2283C13.4238 38.8055 13.6962 38.2518 13.7708 37.6559C13.8454 37.06 13.7179 36.4563 13.4088 35.9414L14.9143 34.4359C14.9772 34.373 15.0272 34.2983 15.0612 34.2161C15.0953 34.1339 15.1128 34.0457 15.1128 33.9567C15.1128 33.8678 15.0953 33.7796 15.0612 33.6974C15.0272 33.6152 14.9772 33.5405 14.9143 33.4776C14.8514 33.4146 14.7767 33.3647 14.6945 33.3307C14.6123 33.2966 14.5241 33.2791 14.4351 33.2791C14.3462 33.2791 14.258 33.2966 14.1758 33.3307C14.0936 33.3647 14.0189 33.4146 13.956 33.4776Z" fill="#384C6C"/>
<path d="M24.1473 37.6186C31.4982 37.6186 37.4572 31.6595 37.4572 24.3087C37.4572 16.9578 31.4982 10.9988 24.1473 10.9988C16.7965 10.9988 10.8374 16.9578 10.8374 24.3087C10.8374 31.6595 16.7965 37.6186 24.1473 37.6186Z" fill="#408FF1"/>
<path d="M31.2276 26.7813C29.8884 26.7813 29.3596 25.4607 28.9347 24.3994C28.7928 23.9465 28.5722 23.5221 28.2832 23.1456C28.0585 23.5467 27.868 23.9659 27.7136 24.399C27.2888 25.4602 26.7599 26.7813 25.4203 26.7813C24.082 26.7813 23.5535 25.4602 23.1291 24.3985C22.9876 23.9459 22.7677 23.5217 22.4794 23.1452C22.2576 23.5471 22.0686 23.9662 21.9143 24.3985C21.4898 25.4602 20.9619 26.7813 19.6236 26.7813C18.2852 26.7813 17.7573 25.4602 17.3328 24.3985C17.1913 23.9459 16.9714 23.5217 16.6832 23.1452C16.5655 23.1453 16.449 23.122 16.3405 23.0766C16.232 23.0312 16.1337 22.9646 16.0512 22.8807C15.9688 22.7967 15.9039 22.6972 15.8604 22.5879C15.817 22.4786 15.7957 22.3617 15.798 22.2441C15.8031 22.0021 15.9033 21.7718 16.0769 21.6032C16.2505 21.4345 16.4836 21.3411 16.7256 21.343C18.0639 21.343 18.5919 22.6641 19.0163 23.7258C19.1579 24.1784 19.3778 24.6026 19.666 24.9792C19.8875 24.5772 20.0763 24.158 20.2307 23.7258C20.6552 22.6641 21.1832 21.343 22.5215 21.343C23.8598 21.343 24.3882 22.6641 24.8126 23.7258C24.9541 24.1784 25.174 24.6026 25.4623 24.9792C25.6863 24.5775 25.8765 24.158 26.031 23.7249C26.4559 22.6636 26.9847 21.343 28.3239 21.343C29.6636 21.343 30.1924 22.6641 30.6173 23.7254C30.7593 24.1781 30.9798 24.6024 31.2688 24.9787C31.3864 24.9785 31.5029 25.0018 31.6115 25.0472C31.72 25.0927 31.8184 25.1593 31.9009 25.2432C31.9833 25.3271 32.0482 25.4266 32.0918 25.5359C32.1353 25.6452 32.1566 25.7621 32.1543 25.8798C32.1496 26.1218 32.0496 26.3521 31.8761 26.5209C31.7027 26.6896 31.4696 26.7832 31.2276 26.7813Z" fill="white"/>
</g>
<defs>
<clipPath id="clip0_677_6733">
<rect width="42.6" height="42.6" fill="white" transform="translate(3 3.00037)"/>
</clipPath>
</defs>
</svg>
