<svg width="48" height="48" viewBox="0 0 48 48" fill="none" xmlns="http://www.w3.org/2000/svg">
<path d="M40.4985 30.0003C43.8122 30.0003 46.4985 27.314 46.4985 24.0003C46.4985 20.6866 43.8122 18.0004 40.4985 18.0004C37.1848 18.0004 34.4985 20.6866 34.4985 24.0003C34.4985 27.314 37.1848 30.0003 40.4985 30.0003Z" fill="#384C6C"/>
<path d="M42.7485 22.5002C42.7485 23.7429 41.7412 24.7502 40.4985 24.7502C39.2559 24.7502 38.2485 23.7429 38.2485 22.5002C38.2485 21.2576 39.2559 20.2502 40.4985 20.2502C41.7412 20.2502 42.7485 21.2576 42.7485 22.5002Z" fill="#8999B3"/>
<path d="M39.7485 24.7502H41.2485C42.9053 24.7502 44.2485 26.0935 44.2485 27.7502V28.6802C43.221 29.5045 41.9183 30.0002 40.4985 30.0002C39.0788 30.0002 37.776 29.5045 36.7485 28.6802V27.7502C36.7485 26.0935 38.0918 24.7502 39.7485 24.7502Z" fill="#8999B3"/>
<path d="M23.9985 13.5003C27.3122 13.5003 29.9985 10.814 29.9985 7.50035C29.9985 4.18665 27.3122 1.50037 23.9985 1.50037C20.6848 1.50037 17.9985 4.18665 17.9985 7.50035C17.9985 10.814 20.6848 13.5003 23.9985 13.5003Z" fill="#384C6C"/>
<path d="M26.2485 6.00036C26.2485 7.243 25.2412 8.25035 23.9985 8.25035C22.7559 8.25035 21.7485 7.243 21.7485 6.00036C21.7485 4.75772 22.7559 3.75037 23.9985 3.75037C25.2412 3.75037 26.2485 4.75772 26.2485 6.00036Z" fill="#8999B3"/>
<path d="M23.2485 8.25037H24.7485C26.4053 8.25037 27.7485 9.59361 27.7485 11.2504V12.1804C26.721 13.0046 25.4183 13.5003 23.9985 13.5003C22.5788 13.5003 21.276 13.0046 20.2485 12.1804V11.2504C20.2485 9.59361 21.5918 8.25037 23.2485 8.25037Z" fill="#8999B3"/>
<path d="M7.49852 30.0003C10.8122 30.0003 13.4985 27.314 13.4985 24.0003C13.4985 20.6866 10.8122 18.0004 7.49852 18.0004C4.18482 18.0004 1.49854 20.6866 1.49854 24.0003C1.49854 27.314 4.18482 30.0003 7.49852 30.0003Z" fill="#384C6C"/>
<path d="M9.74852 22.5002C9.74852 23.7429 8.74117 24.7502 7.49853 24.7502C6.25589 24.7502 5.24854 23.7429 5.24854 22.5002C5.24854 21.2576 6.25589 20.2502 7.49853 20.2502C8.74117 20.2502 9.74852 21.2576 9.74852 22.5002Z" fill="#8999B3"/>
<path d="M6.74853 24.7502H8.24852C9.90527 24.7502 11.2485 26.0935 11.2485 27.7502V28.6802C10.221 29.5045 8.91827 30.0002 7.49852 30.0002C6.07878 30.0002 4.77603 29.5045 3.74854 28.6802V27.7502C3.74854 26.0935 5.09178 24.7502 6.74853 24.7502Z" fill="#8999B3"/>
<path d="M27.7485 33.7502C27.7485 35.8213 26.0696 37.5002 23.9985 37.5002C21.9275 37.5002 20.2485 35.8213 20.2485 33.7502C20.2485 31.6792 21.9275 30.0002 23.9985 30.0002C26.0696 30.0002 27.7485 31.6792 27.7485 33.7502Z" fill="#408FF1"/>
<path d="M22.5734 38.1002H25.1609C28.0188 38.1002 30.3359 40.4029 30.3359 43.2431V44.8373C28.5635 46.2503 26.3162 47.1002 23.8672 47.1002C21.4181 47.1002 19.1709 46.2503 17.3984 44.8373V43.2431C17.3984 40.4029 19.7155 38.1002 22.5734 38.1002Z" fill="#408FF1"/>
<path d="M28.7178 15.5305L29.7784 14.4698L34.2783 18.9696L33.2177 20.0303L28.7178 15.5305Z" fill="#8999B3"/>
<path d="M13.7178 18.9702L18.2175 14.4703L19.2782 15.5309L14.7784 20.0309L13.7178 18.9702Z" fill="#8999B3"/>
<path d="M14.7784 27.2198L13.7178 28.2805L18.2177 32.7803L19.2783 31.7196L14.7784 27.2198Z" fill="#8999B3"/>
<path d="M28.7183 31.7203L33.218 27.2204L34.2787 28.2811L29.7789 32.781L28.7183 31.7203Z" fill="#8999B3"/>
</svg>
