<svg width="48" height="48" viewBox="0 0 48 48" fill="none" xmlns="http://www.w3.org/2000/svg">
<g clip-path="url(#clip0_677_6751)">
<circle cx="18.9035" cy="14.5132" r="10.1438" fill="#384C6C"/>
<path d="M46.0884 2.99976C43.4654 3.23059 42.3927 4.40637 40.782 6.17181C40.6897 6.27308 40.5955 6.37629 40.4992 6.48137C38.4957 8.66696 36.024 15.6049 33.7209 22.0694C32.6371 25.1114 31.5906 28.0487 30.6479 30.3365C30.6479 30.3365 24.5665 25.7156 22.2201 24.1097C20.5564 22.9711 18.7945 20.4602 17.0736 18.0078C16.3674 17.0013 15.6681 16.0047 14.9853 15.1169C12.2647 11.3272 5.99065 16.5428 10.1095 20.0312C12.3435 21.9233 12.8925 23.2711 13.6768 25.1963C14.3385 26.8207 15.1676 28.8561 17.3176 31.9764C21.7613 38.4254 27.0625 42.1347 28.5007 43.141C28.5831 43.1986 28.6528 43.2474 28.7089 43.2873C28.7901 43.345 28.8716 43.4034 28.9535 43.462C30.5572 44.6107 32.3064 45.8635 34.5388 44.1829C34.8213 43.9703 35.1547 43.7507 35.5391 43.4975C37.5959 42.1429 41.1123 39.8269 46.0884 32.4751V2.99976Z" fill="#FB7185"/>
<circle cx="11.6378" cy="14.0388" r="11.5226" fill="#8999B3" stroke="white" stroke-width="3.36716"/>
<ellipse cx="11.6377" cy="14.0387" rx="4.5" ry="4.5" fill="white"/>
</g>
<defs>
<clipPath id="clip0_677_6751">
<rect width="48" height="48" fill="white" transform="translate(-0.000976562 0.000366211)"/>
</clipPath>
</defs>
</svg>
