<svg width="48" height="48" viewBox="0 0 48 48" fill="none" xmlns="http://www.w3.org/2000/svg">
<g clip-path="url(#clip0_677_6759)">
<path d="M15.3808 15.9577C15.2296 15.165 14.8476 14.4345 14.2826 13.8582C14.5719 13.5627 14.8129 13.2272 14.9995 12.8639C16.0064 12.681 17.2217 12.6136 18.1198 13.0145C18.9017 13.364 19.377 14.0182 19.6095 15.0219C19.9364 16.48 19.3895 19.0186 18.8096 21.7106L18.8066 21.725C17.7061 26.8137 16.3811 32.961 19.4083 37.2183C19.909 36.9395 20.6818 36.7136 21.0416 36.6282C21.1662 36.5979 21.2927 36.5695 21.4207 36.543C18.552 32.8551 19.8285 26.9199 20.8773 22.0476L20.8835 22.0188C21.5253 19.0469 22.0803 16.4768 21.6802 14.6903C21.3315 13.131 20.4652 12.0288 19.0918 11.4283C17.9336 10.9197 16.6094 10.8715 15.4518 10.989C15.4511 10.3216 15.2873 9.66132 14.9706 9.06712C15.3793 8.68389 15.705 8.22086 15.9276 7.70668C16.1502 7.1925 16.2649 6.63812 16.2646 6.07784C16.2646 1.87646 11.2115 0.918252 8.01743 3.08855C6.33851 4.22694 4.79883 6.49552 4.79883 10.9917C4.79883 21.6385 11.3507 20.8195 11.3507 20.8195C12.1577 20.821 12.9472 20.584 13.62 20.1382C14.2928 19.6925 14.8189 19.0578 15.1321 18.3141C15.4454 17.5703 15.5319 16.7505 15.3808 15.9577Z" fill="#FB7185"/>
<path d="M33.024 15.9598C33.1751 15.1669 33.5572 14.4364 34.1222 13.8599C33.842 13.5738 33.6072 13.2501 33.4231 12.8999C32.3828 12.6915 31.0693 12.5883 30.1144 13.0146C29.3326 13.3641 28.8572 14.0182 28.6248 15.0219C28.2978 16.48 28.8447 19.0187 29.4246 21.7107L29.4277 21.725C30.5083 26.7217 31.8052 32.7389 28.986 36.9854C28.6699 36.8502 28.2728 36.7135 27.8329 36.6283C27.5286 36.5543 27.2134 36.4919 26.8919 36.4405C29.6588 32.7458 28.3961 26.875 27.357 22.0477L27.3508 22.0189C26.709 19.0469 26.1539 16.4768 26.5541 14.6903C26.9027 13.1311 27.769 12.0288 29.1424 11.4284C30.3579 10.8946 31.7562 10.868 32.9529 11.0077C32.9508 10.3344 33.1148 9.66774 33.4342 9.06837C32.8344 8.50681 32.4174 7.7778 32.2373 6.9761C32.0573 6.1744 32.1226 5.33708 32.4247 4.57297C32.7268 3.80886 33.2518 3.15329 33.9314 2.69147C34.611 2.22965 35.4138 1.98294 36.2354 1.98339C36.2354 1.98339 43.6071 1.16432 43.6071 10.9932C43.6071 21.6411 37.0545 20.8221 37.0545 20.8221C36.2474 20.8236 35.4578 20.5865 34.7849 20.1407C34.1121 19.6949 33.5859 19.0602 33.2726 18.3163C32.9593 17.5725 32.8728 16.7526 33.024 15.9598Z" fill="#FB7185"/>
<path d="M31.0973 39.502C31.0973 38.5443 30.5276 37.8283 29.6414 37.3271C29.3995 37.1643 28.699 36.7967 27.8329 36.629C26.7658 36.3694 25.5631 36.2531 24.4328 36.2531C23.3115 36.2531 22.1088 36.3694 21.0418 36.629C20.6365 36.7253 19.7075 36.9996 19.2332 37.3271C18.347 37.8283 17.7773 38.5443 17.7773 39.502C17.7773 43.1357 20.7614 46.0982 24.4328 46.0982C28.1132 46.0982 31.0973 43.1357 31.0973 39.502Z" fill="#BE133C"/>
</g>
<defs>
<clipPath id="clip0_677_6759">
<rect width="38.8499" height="44.3999" fill="white" transform="translate(4.79883 1.80042)"/>
</clipPath>
</defs>
</svg>
