<svg width="48" height="48" viewBox="0 0 48 48" fill="none" xmlns="http://www.w3.org/2000/svg">
<path d="M41.4381 24.7127C41.5029 24.7347 41.566 24.7561 41.6273 24.7769C44.6681 25.8065 46.8515 27.0946 46.5424 30.3764C46.2454 33.5319 44.0023 35.635 42.3143 35.2328C41.8625 35.1251 40.9881 34.7284 39.9748 34.2688C38.4028 33.5557 36.4964 32.6909 35.3152 32.5181L31.4444 23.545C33.8082 22.1239 38.9283 23.8611 41.4381 24.7127Z" fill="#384C6C"/>
<path d="M6.33048 24.912C6.26504 24.9342 6.20139 24.9559 6.1396 24.9769C3.09982 26.0096 0.917724 27.2999 1.22992 30.5813C1.53009 33.7363 3.77526 35.8374 5.46279 35.4336C5.91444 35.3254 6.78849 34.928 7.80138 34.4673C9.37272 33.7527 11.2782 32.8862 12.4592 32.7122L16.3213 23.7355C13.9567 22.3169 8.8401 24.058 6.33048 24.912Z" fill="#384C6C"/>
<path d="M41.6268 24.7983L41.4361 24.7334C38.9384 23.8835 33.8582 22.1548 31.4789 23.5369C31.4751 23.5337 31.4713 23.5306 31.4676 23.5275C29.4055 25.2842 26.7164 26.3469 23.7752 26.3469C20.9374 26.3469 18.3344 25.3576 16.3028 23.7102C16.2996 23.7131 16.2964 23.7159 16.2931 23.7187C13.9162 22.3306 8.83021 24.0613 6.33053 24.9119L6.13965 24.9769L10.071 33.4702C10.9135 33.1257 11.7168 32.8425 12.3414 32.7314L12.2018 35.1641C11.8244 41.7404 17.0555 47.2803 23.6424 47.2803H24.2694C30.7624 47.2803 35.9584 41.8911 35.7214 35.4026L35.6188 32.5915C36.2116 32.7215 36.9378 32.9818 37.6955 33.2914L41.6268 24.7983Z" fill="#408FF1"/>
<path d="M11.7267 11.9017C14.729 11.9017 17.1628 9.50633 17.1628 6.5515C17.1628 3.59666 14.729 1.20129 11.7267 1.20129C8.72438 1.20129 6.29053 3.59666 6.29053 6.5515C6.29053 9.50633 8.72438 11.9017 11.7267 11.9017Z" fill="#384C6C"/>
<path d="M35.8228 11.9017C38.8252 11.9017 41.259 9.50633 41.259 6.5515C41.259 3.59666 38.8252 1.20129 35.8228 1.20129C32.8205 1.20129 30.3867 3.59666 30.3867 6.5515C30.3867 9.50633 32.8205 11.9017 35.8228 11.9017Z" fill="#384C6C"/>
<path d="M23.7759 25.0068C30.2703 25.0068 35.535 19.8253 35.535 13.4336C35.535 7.04185 30.2703 1.86034 23.7759 1.86034C17.2815 1.86034 12.0167 7.04185 12.0167 13.4336C12.0167 19.8253 17.2815 25.0068 23.7759 25.0068Z" fill="#384C6C"/>
<path d="M22.6771 29.8333H24.8721C25.1815 29.8333 25.4323 30.0841 25.4323 30.3935V33.7821H28.884C29.1934 33.7821 29.4442 34.0329 29.4442 34.3423V36.4849C29.4442 36.7943 29.1934 37.0451 28.884 37.0451H25.4323V40.4325C25.4323 40.7419 25.1815 40.9927 24.8721 40.9927H22.6771C22.3677 40.9927 22.1169 40.7419 22.1169 40.4325V37.0451H18.6657C18.3563 37.0451 18.1055 36.7943 18.1055 36.4849V34.3423C18.1055 34.0329 18.3563 33.7821 18.6657 33.7821H22.1169V30.3935C22.1169 30.0841 22.3677 29.8333 22.6771 29.8333Z" fill="white"/>
<path d="M30.5197 17.4326C30.5197 20.4875 27.5002 22.9639 23.7755 22.9639C20.0508 22.9639 17.0312 20.4875 17.0312 17.4326C17.0312 14.3777 20.0508 11.9012 23.7755 11.9012C27.5002 11.9012 30.5197 14.3777 30.5197 17.4326Z" fill="white"/>
<path d="M27.1474 15.8697C27.1474 17.3971 25.6377 18.6353 23.7753 18.6353C21.913 18.6353 20.4033 17.3971 20.4033 15.8697C20.4033 14.3422 21.913 13.104 23.7753 13.104C25.6377 13.104 27.1474 14.3422 27.1474 15.8697Z" fill="#384C6C"/>
</svg>
