<svg width="48" height="48" viewBox="0 0 48 48" fill="none" xmlns="http://www.w3.org/2000/svg">
<path d="M18.7812 20.6088C18.7617 20.2586 18.7407 19.911 18.72 19.5667C18.5659 17.013 18.4224 14.6347 18.9532 12.6229C19.1182 11.9929 19.0582 10.9504 18.8257 10.3354C18.4732 9.41293 17.7157 8.52793 16.1107 8.89543C12.5407 9.70543 -1.17675 19.7479 0.870748 42.9303C0.983248 44.1753 2.22074 45.0078 3.40574 44.5878C3.93754 44.4019 4.59146 44.0714 5.40918 43.6582C6.00995 43.3546 6.69912 43.0063 7.49323 42.6378C9.57072 41.6778 12.1582 40.9053 13.7032 40.4778C15.3832 40.0203 16.8982 39.0453 17.8882 37.6203C18.9232 36.1353 19.2982 34.5154 19.4257 33.2854C19.4782 32.7229 19.4632 32.1454 19.3807 31.5829C19.3593 31.4342 19.3376 31.2857 19.3158 31.1373C19.1929 30.2976 19.0706 29.4617 19.0132 28.6204L18.8032 25.5454C18.8461 24.9797 18.8677 24.4155 18.874 23.8544C20.8596 22.7323 22.502 21.4028 23.7678 19.9127L23.8728 19.7852L23.9778 19.9127C25.27 21.4338 26.9621 22.795 28.9967 23.9246C29.004 24.4626 29.0255 25.0033 29.0666 25.5454L28.8566 28.6204C28.7993 29.4617 28.6769 30.2976 28.554 31.1373C28.5323 31.2857 28.5105 31.4342 28.4891 31.5829C28.4066 32.1454 28.3916 32.7229 28.4441 33.2854C28.5716 34.5154 28.9466 36.1353 29.9816 37.6203C30.9716 39.0453 32.4866 40.0203 34.1666 40.4778C35.7116 40.9053 38.2991 41.6778 40.3766 42.6378C41.1706 43.0063 41.8598 43.3545 42.4605 43.6581C43.2782 44.0714 43.9323 44.4019 44.4641 44.5878C45.6491 45.0078 46.8866 44.1753 46.9991 42.9303C49.0466 19.7479 35.3291 9.70543 31.7591 8.89543C30.1541 8.52793 29.3966 9.41293 29.0441 10.3354C28.8116 10.9504 28.7516 11.9929 28.9166 12.6229C29.4474 14.6347 29.3039 17.013 29.1498 19.5667C29.1273 19.9406 29.1045 20.3183 29.0836 20.6992C26.9677 19.2364 25.7265 17.8307 25.3953 17.1977V3.79529H22.3503V17.1977C22.0249 17.8125 20.8486 19.1804 18.7812 20.6088Z" fill="#384C6C"/>
</svg>
