<svg width="48" height="50" viewBox="0 0 48 50" fill="none" xmlns="http://www.w3.org/2000/svg">
<path d="M18.2998 35.8C17.5798 31.96 15.7998 25.9 14.9998 23.2C16.4398 22.72 17.6998 21 18.2998 19.9C19.4998 21.82 23.6998 24.7 26.3998 25C26.3998 25.3 26.0998 26.2 26.3998 27.4C26.7539 28.8163 27.8998 30 28.4998 30.4L29.9998 47.5C29.5998 47.9 28.1398 48.76 25.4998 49C22.8598 49.24 20.5998 48.5 19.7998 48.1C19.5998 45.6 19.0198 39.64 18.2998 35.8Z" fill="#384C6C"/>
<path d="M28.5826 24.4428C27.8626 26.8428 28.1021 28.2474 29.7826 28.9428C32.6828 30.1428 35.7826 28.0428 35.7826 23.8428C35.7826 20.117 34.5826 19.7428 33.3826 19.9428C29.9828 20.5094 29.3026 22.0428 28.5826 24.4428Z" fill="#384C6C"/>
<path d="M20.0998 13.9C20.1267 11.3956 19.4998 7.89999 18.8998 6.99999L20.6998 6.39999C20.8998 7.09999 21.8398 9.15999 22.7998 10.6C23.9998 12.4 24.5323 12.2163 25.4998 12.7C26.0998 13 26.6998 13.3 26.3998 14.5C26.1998 15.3 25.8598 17.14 27.2998 18.1C28.7398 19.06 29.4998 19.5 29.6998 19.6C27.5398 20.56 26.7998 22.6 26.6998 23.5C23.8198 22.54 20.3998 20.5 19.1998 18.1C19.2998 17.5 20.082 15.5568 20.0998 13.9Z" fill="#384C6C"/>
<path d="M11.4525 11.6225C12.399 8.78299 12.8998 7.60003 15.5998 7.30002C17.5473 7.08363 18.229 9.72954 18.3642 11.4873C18.4994 13.245 18.8121 14.6974 17.6998 17.2C16.4998 19.9 15.1868 21.2043 14.0998 21.7C13.1998 20.8 12.1174 18.978 11.4684 17.5718C10.6571 15.814 10.506 14.4619 11.4525 11.6225Z" fill="#384C6C"/>
<path d="M36.9533 12.9229C35.8117 16.4605 33.6871 17.4846 31.9256 17.5657C30.1642 17.6467 28.4998 16.9243 28.4998 15.0999C28.4998 12.3999 29.6998 11.1999 26.6998 10.2999C23.6997 9.39992 22.7135 7.14595 22.7998 4.59992C22.8932 1.84 26.0019 0.261214 30.4525 1.14586C33.3544 1.72268 36.156 4.508 36.7859 5.88222C37.4158 7.25644 37.8603 10.1126 36.9533 12.9229Z" fill="#384C6C"/>
</svg>
