<svg width="48" height="48" viewBox="0 0 48 48" fill="none" xmlns="http://www.w3.org/2000/svg">
<path d="M16.5 26.8943C14.2293 26.5799 12.0962 25.5741 10.4009 23.9955C8.33642 22.0732 7.07297 19.4428 6.86287 16.6297L6.00382 4.60707C5.98913 4.40159 6.01692 4.1953 6.08546 4.00103C6.154 3.80677 6.26182 3.62871 6.4022 3.47795C6.54258 3.32718 6.7125 3.20695 6.90139 3.12474C7.09027 3.04253 7.29407 3.00011 7.50006 3.00012H12.0001C12.3979 3.00012 12.7794 3.15816 13.0607 3.43946C13.342 3.72076 13.5 4.10229 13.5 4.50012C13.5 4.89794 13.342 5.27947 13.0607 5.56078C12.7794 5.84208 12.3979 6.00011 12.0001 6.00011H9.11136L9.85506 16.4158C10.002 18.4755 10.9239 20.4031 12.4351 21.8103C13.9463 23.2176 15.9346 24 17.9996 24C20.0646 24 22.0528 23.2176 23.5641 21.8103C25.0753 20.4031 25.9972 18.4755 26.1441 16.4158L26.8887 6.00011H24C23.6022 6.00011 23.2207 5.84208 22.9394 5.56078C22.6581 5.27947 22.5 4.89794 22.5 4.50012C22.5 4.10229 22.6581 3.72076 22.9394 3.43946C23.2207 3.15816 23.6022 3.00012 24 3.00012H28.5C28.706 3.00009 28.9098 3.0425 29.0987 3.1247C29.2876 3.2069 29.4576 3.32713 29.598 3.47789C29.7384 3.62866 29.8462 3.80673 29.9147 4.001C29.9833 4.19527 30.0111 4.40158 29.9964 4.60707L29.1372 16.6297C28.9271 19.4428 27.6637 22.0732 25.5991 23.9955C23.9038 25.5741 21.7707 26.5799 19.5 26.8943V33.75C19.5 35.9381 20.3692 38.0365 21.9164 39.5837C23.4635 41.1308 25.5619 42 27.75 42C29.938 42 32.0364 41.1308 33.5836 39.5837C35.1308 38.0365 36 35.9381 36 33.75V32.744C34.2522 32.1262 33 30.4594 33 28.5C33 26.0148 35.0147 24.0001 37.5 24.0001C39.9853 24.0001 42 26.0148 42 28.5C42 30.4594 40.7477 32.1263 38.9999 32.744V33.75C38.9967 36.7327 37.8104 39.5923 35.7013 41.7014C33.5922 43.8104 30.7327 44.9968 27.75 45C24.7673 44.9967 21.9077 43.8104 19.7987 41.7013C17.6896 39.5923 16.5033 36.7327 16.5 33.75V26.8943Z" fill="#384C6C"/>
</svg>
