<svg width="48" height="48" viewBox="0 0 48 48" fill="none" xmlns="http://www.w3.org/2000/svg">
<g clip-path="url(#clip0_677_6663)">
<path fill-rule="evenodd" clip-rule="evenodd" d="M13.4753 38.6157C17.0894 41.3699 21.6021 43.0053 26.4968 43.0053C38.3724 43.0053 47.9994 33.3783 47.9994 21.5027C47.9994 9.62707 38.3724 0 26.4968 0C14.6212 0 4.99411 9.62707 4.99411 21.5027C4.99411 26.3975 6.62962 30.9103 9.38398 34.5244L1.04717 42.8611C0.778496 43.1298 0.565369 43.4487 0.41996 43.7997C0.274551 44.1507 0.199707 44.5269 0.199707 44.9068C0.199707 45.2867 0.274551 45.663 0.41996 46.014C0.565369 46.365 0.778496 46.6839 1.04717 46.9525C1.3158 47.2212 1.63472 47.4343 1.98572 47.5797C2.33672 47.7251 2.71293 47.8 3.09286 47.8C3.47279 47.8 3.849 47.7251 4.2 47.5797C4.551 47.4343 4.86992 47.2212 5.13855 46.9525L13.4753 38.6157ZM8.42831 21.5521C8.42831 31.5037 16.4957 39.5711 26.4473 39.5711C36.3989 39.5711 44.4663 31.5037 44.4663 21.5521C44.4663 11.6005 36.3989 3.53314 26.4473 3.53314C16.4957 3.53314 8.42831 11.6005 8.42831 21.5521Z" fill="#384C6C"/>
<path d="M26.3997 37.7999C35.3466 37.7999 42.5996 30.5469 42.5996 21.5999C42.5996 12.6529 35.3466 5.39996 26.3997 5.39996C17.4527 5.39996 10.1997 12.6529 10.1997 21.5999C10.1997 30.5469 17.4527 37.7999 26.3997 37.7999Z" fill="white"/>
<path fill-rule="evenodd" clip-rule="evenodd" d="M42.5009 19.8017C42.451 19.8005 42.4009 19.7999 42.3506 19.7999C38.9093 19.7999 36.1196 22.5896 36.1196 26.0309C36.1196 28.3497 37.3862 30.3727 39.2654 31.4457C41.3567 28.7169 42.5996 25.3036 42.5996 21.5999C42.5996 20.9921 42.5661 20.3921 42.5009 19.8017Z" fill="#384C6C"/>
<path fill-rule="evenodd" clip-rule="evenodd" d="M26.3996 37.7998C27.9404 37.7998 29.4309 37.5847 30.8427 37.1829C32.2585 36.0407 33.1641 34.2916 33.1641 32.3308C33.1641 28.8896 30.3744 26.0999 26.9331 26.0999C23.4919 26.0999 20.7021 28.8896 20.7021 32.3308C20.7021 34.512 21.8229 36.4314 23.5199 37.5446C24.4544 37.7123 25.4168 37.7998 26.3996 37.7998ZM26.56 36.2332C26.6644 36.7458 27.1153 37.0995 27.6188 37.0995C27.6904 37.0995 27.7628 37.0923 27.8354 37.0774C29.0181 36.8368 30.0372 36.1487 30.7047 35.1402C31.3723 34.1316 31.6073 32.9248 31.3667 31.7421C31.1645 30.7482 30.6259 29.8409 29.8497 29.1871C29.3928 28.8024 28.7104 28.8608 28.3257 29.3177C27.9408 29.7746 27.9992 30.4569 28.4563 30.8418C28.8665 31.1875 29.1399 31.6479 29.2469 32.1735C29.3722 32.79 29.2495 33.4195 28.9007 33.9463C28.5523 34.4731 28.0207 34.8323 27.4043 34.9575C26.819 35.0768 26.441 35.6478 26.56 36.2332Z" fill="#384C6C"/>
<path fill-rule="evenodd" clip-rule="evenodd" d="M36.1641 15.8443C36.1641 19.2855 33.3744 22.0752 29.9331 22.0752C26.4919 22.0752 23.7021 19.2855 23.7021 15.8443C23.7021 12.403 26.4919 9.61328 29.9331 9.61328C33.3744 9.61328 36.1641 12.403 36.1641 15.8443ZM29.56 19.4333C29.6644 19.9459 30.1153 20.2996 30.6188 20.2996C30.6904 20.2996 30.7628 20.2924 30.8354 20.2775C32.0181 20.0369 33.0372 19.3488 33.7047 18.3403C34.3723 17.3317 34.6073 16.1249 34.3667 14.9422C34.1645 13.9483 33.6259 13.041 32.8497 12.3872C32.3928 12.0025 31.7104 12.0609 31.3257 12.5178C30.9408 12.9747 30.9992 13.657 31.4563 14.0419C31.8665 14.3876 32.1399 14.848 32.2469 15.3736C32.3722 15.9901 32.2495 16.6196 31.9007 17.1464C31.5523 17.6732 31.0207 18.0324 30.4043 18.1576C29.819 18.2769 29.441 18.8479 29.56 19.4333Z" fill="#384C6C"/>
<path fill-rule="evenodd" clip-rule="evenodd" d="M13.5507 30.102C13.2133 30.102 12.8821 30.0752 12.5592 30.0235C11.0622 27.5691 10.1997 24.6853 10.1997 21.6C10.1997 20.5156 10.3063 19.4561 10.5095 18.4313C11.409 17.9274 12.4463 17.64 13.5507 17.64C16.992 17.64 19.7817 20.4297 19.7817 23.871C19.7817 27.3123 16.992 30.102 13.5507 30.102ZM13.1771 27.4599C13.2816 27.9726 13.7325 28.3263 14.236 28.3263C14.3076 28.3263 14.3799 28.319 14.4526 28.3041C15.6353 28.0635 16.6544 27.3754 17.3219 26.3669C17.9894 25.3583 18.2245 24.1515 17.9839 22.9688C17.7817 21.975 17.2431 21.0676 16.4669 20.4139C16.01 20.0292 15.3276 20.0876 14.9429 20.5445C14.558 21.0014 14.6164 21.6837 15.0735 22.0685C15.4837 22.4142 15.7571 22.8747 15.8641 23.4003C15.9894 24.0168 15.8667 24.6462 15.5179 25.173C15.1695 25.6999 14.6379 26.0591 14.0215 26.1843C13.4362 26.3035 13.0582 26.8746 13.1771 27.4599Z" fill="#384C6C"/>
<path d="M22.6619 8.75108C22.6619 12.1924 19.8722 14.9821 16.4309 14.9821C14.8828 14.9821 13.4667 14.4175 12.377 13.4831C13.8243 10.9881 15.9184 8.91488 18.4298 7.49293C18.5802 7.73113 18.6866 7.99617 18.7444 8.28026C18.8698 8.89679 18.747 9.52623 18.3983 10.053C18.0498 10.5799 17.5183 10.9391 16.9019 11.0643C16.3165 11.1835 15.9386 11.7546 16.0575 12.3399C16.162 12.8526 16.6129 13.2063 17.1164 13.2063C17.188 13.2063 17.2603 13.199 17.333 13.1841C18.5157 12.9435 19.5347 12.2554 20.2023 11.247C20.8698 10.2383 21.1049 9.03152 20.8643 7.84885C20.7717 7.39364 20.6085 6.95655 20.3842 6.55369C20.9169 6.34053 21.4635 6.15483 22.0224 5.99835C22.4318 6.82845 22.6619 7.7629 22.6619 8.75108Z" fill="#384C6C"/>
</g>
<defs>
<clipPath id="clip0_677_6663">
<rect width="47.9997" height="47.9999" fill="white" transform="matrix(-1 0 0 1 47.9995 0)"/>
</clipPath>
</defs>
</svg>
