<svg width="48" height="48" viewBox="0 0 48 48" fill="none" xmlns="http://www.w3.org/2000/svg">
<path d="M33.9736 8.24981L35.725 9.41076C36.9819 10.6061 39.2505 13.6498 38.2693 16.2624C38.1015 17.1175 37.4101 17.9395 36.4919 18.3803C35.7034 18.7588 35.1096 18.7835 34.2062 18.8211C34.0576 18.8273 33.9006 18.8338 33.7329 18.8423C31.905 18.7152 30.0994 18.9932 28.4319 19.6208C25.0642 20.8883 22.2601 23.5814 20.9741 27.2419C19.88 30.3562 20.0814 33.6116 21.296 36.4198C21.2991 36.4289 21.3024 36.4385 21.3058 36.4486C21.4398 36.8416 21.8428 38.024 21.296 39.3C20.9527 40.1013 19.8002 40.9255 18.9002 41.1C14.2146 42.0086 11.429 39.6785 10.063 38.5358C10.0063 38.4884 9.95208 38.443 9.90024 38.4C7.26641 36.2144 6.33859 33.0863 5.83678 31.3945C5.78757 31.2286 5.74246 31.0765 5.70024 30.9405C5.23741 29.5546 5.08056 27.5034 5.03613 26.0389L5.10169 24.1213C5.24579 22.6418 5.59155 21.1625 6.15762 19.7608L6.93739 18.0964C7.95062 16.1925 9.35786 14.4169 11.1518 12.8023L12.5265 11.6395C12.8954 11.3505 13.2708 11.0692 13.6662 10.7975C14.764 10.0311 15.8936 9.35721 17.0344 8.79343L18.7031 8.0573C20.147 7.46016 21.6212 7.03672 23.0986 6.78328L24.9586 6.56161C26.2784 6.4563 27.602 6.49401 28.8893 6.66921L30.8511 7.0651C31.3596 7.18854 31.8472 7.34309 32.3411 7.51888C32.8885 7.71546 33.4415 7.96036 33.9736 8.24981Z" fill="#384C6C"/>
<path d="M42.3713 31.2175C42.3713 36.4381 38.1391 40.6703 32.9185 40.6703C27.6979 40.6703 23.4657 36.4381 23.4657 31.2175C23.4657 25.9969 27.6979 21.7647 32.9185 21.7647C38.1391 21.7647 42.3713 25.9969 42.3713 31.2175Z" fill="#384C6C"/>
<path d="M38.2628 33.5048C37.3216 33.5048 36.9499 32.5196 36.6513 31.7278C36.5516 31.3899 36.3966 31.0733 36.1935 30.7924C36.0356 31.0916 35.9017 31.4044 35.7932 31.7275C35.4946 32.5192 35.1229 33.5048 34.1815 33.5048C33.2409 33.5048 32.8695 32.5192 32.5713 31.7271C32.4718 31.3895 32.3173 31.073 32.1147 30.7921C31.9588 31.0919 31.826 31.4046 31.7175 31.7271C31.4192 32.5192 31.0482 33.5048 30.1076 33.5048C29.167 33.5048 28.796 32.5192 28.4977 31.7271C28.3983 31.3895 28.2437 31.073 28.0411 30.7921C27.9585 30.7922 27.8766 30.7748 27.8003 30.741C27.7241 30.7071 27.6549 30.6574 27.597 30.5948C27.5391 30.5322 27.4935 30.4579 27.4629 30.3764C27.4324 30.2948 27.4175 30.2076 27.4191 30.1199C27.4226 29.9393 27.493 29.7675 27.615 29.6417C27.7371 29.5159 27.9009 29.4462 28.071 29.4477C29.0115 29.4477 29.3826 30.4332 29.6809 31.2253C29.7803 31.5629 29.9349 31.8794 30.1375 32.1603C30.2931 31.8604 30.4258 31.5477 30.5343 31.2253C30.8326 30.4332 31.2037 29.4477 32.1442 29.4477C33.0847 29.4477 33.4561 30.4332 33.7544 31.2253C33.8539 31.5629 34.0084 31.8794 34.211 32.1603C34.3684 31.8607 34.5021 31.5477 34.6107 31.2246C34.9093 30.4329 35.2809 29.4477 36.2221 29.4477C37.1636 29.4477 37.5353 30.4332 37.8339 31.2249C37.9337 31.5627 38.0886 31.8792 38.2917 32.16C38.3744 32.1598 38.4563 32.1772 38.5326 32.2111C38.6088 32.245 38.678 32.2947 38.7359 32.3573C38.7939 32.4199 38.8395 32.4941 38.8701 32.5757C38.9007 32.6572 38.9156 32.7444 38.9141 32.8322C38.9107 33.0127 38.8405 33.1846 38.7186 33.3105C38.5966 33.4364 38.4329 33.5062 38.2628 33.5048Z" fill="white"/>
</svg>
