<svg width="48" height="48" viewBox="0 0 48 48" fill="none" xmlns="http://www.w3.org/2000/svg">
<g clip-path="url(#clip0_677_6669)">
<path d="M43.6537 16.2365C44.1925 16.3897 44.7053 16.6228 45.175 16.928C47.0569 18.1302 48.0625 20.3214 47.7469 22.5321C47.4313 24.7428 45.8527 26.565 43.7096 27.1926C43.5073 27.2518 43.3035 27.2994 43.099 27.3355C43.3539 27.9508 43.4852 28.611 43.4844 29.2783C43.4844 32.7176 40.0378 35.5116 35.7845 35.5116C35.4012 35.5134 35.0184 35.4903 34.6385 35.4425L35.1562 42.7745C35.1569 43.2192 34.9805 43.6459 34.6661 43.9603C34.3516 44.2747 33.925 44.4511 33.4803 44.4505H33.4722C32.9903 44.4469 32.5324 44.2401 32.2112 43.881L26.3088 36.0953C25.9974 35.7435 25.5502 35.5421 25.0804 35.542H25.0071C23.2099 35.542 21.7529 34.0851 21.7529 32.2878V32.0415C20.4201 33.2428 18.6828 33.916 16.8716 33.915H16.8634C14.3066 33.9116 11.936 32.5768 10.6072 30.3923C10.5096 30.2296 10.4201 30.0669 10.3388 29.9042C10.1509 29.5362 9.99568 29.1523 9.87503 28.7571C9.86826 28.73 9.86008 28.7015 9.85166 28.6722C9.83985 28.6311 9.82758 28.5883 9.81808 28.5456C9.80181 28.4805 9.78554 28.4134 9.76927 28.3462C9.753 28.2791 9.73672 28.212 9.72045 28.1469C9.39417 28.1918 9.0654 28.2163 8.73606 28.2201C8.51867 28.2217 8.30137 28.2108 8.08522 28.1876C5.1346 27.9277 2.63218 25.9135 1.74765 23.0866V23.0785C1.52494 22.3732 1.41243 21.6378 1.41409 20.8982C1.41409 20.7995 1.42117 20.7079 1.42873 20.6102L1.43036 20.589C1.42223 20.5809 1.42223 20.5809 1.42223 20.5728C-0.133735 18.0061 0.579535 14.6716 3.04933 12.966V12.9498C3.04933 12.9213 3.0473 12.8888 3.04526 12.8562C3.04323 12.8237 3.04119 12.7911 3.04119 12.7627C3.04389 9.61859 5.59199 7.07049 8.73606 7.0678C8.92317 7.0678 9.10215 7.07593 9.28114 7.0922C9.53023 6.54898 9.86845 6.05127 10.2818 5.61967C12.0625 3.70168 14.9271 3.25734 17.2051 4.54579C17.2784 4.58646 17.3516 4.62714 17.4167 4.66782L17.4248 4.65968C17.8679 4.26302 18.3634 3.92906 18.8973 3.66715C19.7842 3.22531 20.7621 2.99686 21.7529 3.00004C22.5642 2.99547 23.3686 3.15026 24.1203 3.45563C24.7336 3.6871 25.3051 4.01683 25.8125 4.43189H25.8206C26.8578 4.0264 27.9612 3.81675 29.0749 3.81359C31.2248 3.81359 33.3023 4.59084 34.9243 6.00204C35.03 6.09153 35.1358 6.18103 35.2334 6.27865C39.9626 6.5239 43.6821 10.411 43.7188 15.1464C43.7188 15.4066 43.7025 15.6669 43.6863 15.9272C43.6781 16.033 43.67 16.1308 43.6537 16.2365Z" fill="#384C6C"/>
<path d="M25.8749 4.41094C25.525 4.9955 25.189 5.89315 25.189 6.52395C25.189 6.9194 25.2338 7.26022 25.2708 7.54202L25.2854 7.65472L25.2864 7.66133C25.3947 8.4131 25.3994 8.44578 24.81 8.70199C24.4502 8.85623 24.0518 8.89476 23.6278 8.9333C22.6448 9.01683 21.3084 9.13894 21.0899 11.227C21.0514 11.5804 21.3084 11.8952 21.6618 11.9338C21.6714 11.9338 21.6826 11.9354 21.6938 11.937C21.7051 11.9386 21.7163 11.9402 21.726 11.9402C22.0537 11.9402 22.3299 11.6897 22.3685 11.3619C22.471 10.3238 22.7908 10.2956 23.7296 10.2125L23.737 10.2119C24.2253 10.1669 24.7714 10.1155 25.3176 9.87776C26.8146 9.23526 26.6796 8.29721 26.5576 7.47482L26.5461 7.38791C26.5107 7.11976 26.474 6.84275 26.474 6.52395C26.474 6.2027 26.7534 5.06249 27.171 4.88902C27.56 4.72823 28.108 4.4963 28.5313 3.8316C27.6226 3.88914 26.7268 4.0842 25.8749 4.41094Z" fill="white"/>
<path d="M9.2814 7.09201C9.95481 7.49088 12.0126 9.03109 12.1888 9.85999C12.269 10.2662 12.2541 10.6855 12.1454 11.085C12.0367 11.4845 11.837 11.8535 11.562 12.1631C11.4447 12.2982 11.3174 12.4243 11.1813 12.5405C11.0599 12.6508 10.9861 12.8039 10.9756 12.9676C10.965 13.1314 11.0185 13.2927 11.1248 13.4177C11.2311 13.5427 11.3818 13.6214 11.5451 13.6372C11.7084 13.6531 11.8714 13.6048 11.9998 13.5026C12.1839 13.3456 12.3561 13.1751 12.5148 12.9925C12.8876 12.5685 13.1656 12.0699 13.3304 11.53C13.4953 10.99 13.5431 10.4211 13.4707 9.86124C13.8857 9.83202 14.2884 9.70804 14.648 9.49882C15.0075 9.2896 15.3143 9.00071 15.5448 8.65438C15.5943 8.58621 15.6297 8.50882 15.6488 8.42677C15.668 8.34473 15.6705 8.25967 15.6563 8.17662C15.6421 8.09357 15.6115 8.0142 15.5661 7.94318C15.5208 7.87216 15.4617 7.81092 15.3924 7.76308C15.323 7.71523 15.2448 7.68174 15.1623 7.66458C15.0798 7.64743 14.9947 7.64694 14.912 7.66316C14.8294 7.67938 14.7508 7.71197 14.6809 7.75902C14.611 7.80607 14.5512 7.86663 14.505 7.93712C14.3452 8.16784 14.1265 8.35155 13.8717 8.46917C13.6169 8.58678 13.3352 8.63402 13.0559 8.60596C12.8355 8.21925 10.8148 6.41648 10.0514 5.88007L10.0231 5.91048C9.72578 6.26989 9.47631 6.66702 9.2814 7.09201Z" fill="white"/>
<path d="M45.175 16.9281C45.0109 16.8215 44.8416 16.7237 44.6677 16.635C44.6999 17.0454 44.7068 17.5855 44.697 17.9442C44.6735 18.9975 43.4401 19.8792 43.3037 19.9608C43.0664 20.1065 42.8058 20.2101 42.5333 20.2673C41.4361 20.4881 41.1454 19.7143 41.0991 19.5626C41.0932 19.541 41.0858 19.5197 41.0771 19.499C40.5056 18.1401 39.7007 18.0832 39.5455 18.0861C39.4105 18.0878 39.2813 18.1417 39.1852 18.2366C39.0891 18.3315 39.0335 18.46 39.0301 18.5951C39.0267 18.7301 39.0758 18.8612 39.1671 18.9608C39.2584 19.0604 39.3847 19.1207 39.5195 19.1291C39.5598 19.1411 39.8308 19.2439 40.1034 19.8771C40.3014 20.5321 41.0871 21.6234 42.7396 21.2908C43.1098 21.214 43.4648 21.0772 43.7908 20.8857C43.8073 20.8762 43.8239 20.8664 43.8405 20.8565C44.7672 20.3009 45.7823 19.3024 45.7888 18.0016L45.7896 17.8894L45.7896 17.8882C45.7907 17.7408 45.7922 17.5327 45.7909 17.3824C45.5978 17.2188 45.3922 17.0669 45.175 16.9281Z" fill="white"/>
<path d="M44.806 23.3822C44.8726 23.3967 46.163 23.693 46.8765 24.8428C46.688 25.1311 46.4739 25.4015 46.2371 25.6507C45.8063 24.5847 44.657 24.3102 44.6039 24.298C44.4824 24.2712 44.3766 24.1973 44.3097 24.0925C44.2428 23.9876 44.2202 23.8605 44.247 23.7391C44.2738 23.6176 44.3477 23.5118 44.4526 23.4448C44.5574 23.3779 44.6845 23.3554 44.806 23.3822Z" fill="white"/>
<path d="M40.5056 10.8379C41.2592 11.4622 42.4304 12.173 43.2239 12.2746C43.3552 12.652 43.4619 13.0407 43.5422 13.4388C42.5785 13.3909 40.7736 12.6581 39.5727 11.6633C38.5599 10.8243 37.1012 11.9579 36.7893 12.2004C36.755 12.227 36.7346 12.2429 36.7301 12.2442C36.5663 12.2985 36.3856 12.2935 36.2257 12.2304C36.0657 12.1672 35.9389 12.0507 35.8714 11.9051C35.8418 11.833 35.8288 11.7561 35.8329 11.6793C35.8371 11.6024 35.8585 11.5272 35.8958 11.458C35.933 11.3888 35.9854 11.3272 36.0497 11.2769C37.7694 9.7383 39.7368 10.3432 40.5056 10.8379Z" fill="white"/>
<path d="M28.1127 25.9661C26.9669 26.4566 25.6918 26.5579 24.4828 26.2544C22.3754 25.7571 20.2365 25.8752 19.149 25.9906C18.9727 26.0115 18.8117 26.1011 18.7009 26.2399C18.5901 26.3787 18.5384 26.5556 18.5571 26.7322C18.5758 26.9088 18.6633 27.0709 18.8006 27.1835C18.938 27.2961 19.1142 27.35 19.291 27.3336C20.293 27.2278 22.2598 27.1175 24.1725 27.569C24.7401 27.7042 25.3214 27.7731 25.9049 27.7741C26.852 27.777 27.7893 27.5823 28.6569 27.2023C30.0951 26.585 31.408 25.7095 32.5307 24.6191C32.5513 24.6008 32.5707 24.5813 32.5888 24.5607C32.6914 24.4582 32.807 24.3456 32.9318 24.2239L32.9327 24.223C33.905 23.2752 35.4373 21.7814 35.7746 20.2973C35.8071 20.2147 35.8231 20.1266 35.8215 20.0379C35.82 19.9493 35.801 19.8617 35.7657 19.7804C35.7303 19.699 35.6793 19.6254 35.6155 19.5638C35.5517 19.5022 35.4764 19.4537 35.3939 19.4212C35.3114 19.3887 35.2232 19.3727 35.1346 19.3742C35.0459 19.3758 34.9583 19.3948 34.877 19.4301C34.7956 19.4655 34.722 19.5165 34.6604 19.5803C34.5988 19.6441 34.5503 19.7194 34.5178 19.8019C34.1064 20.8457 33.5483 21.4115 33.0787 21.8875C32.9441 22.0239 32.8168 22.153 32.7023 22.2838C32.5523 21.0296 31.5566 20.1302 31.1124 19.7291C31.0485 19.6713 30.9959 19.6239 30.959 19.5872C30.8251 19.4672 30.6492 19.405 30.4696 19.4142C30.29 19.4235 30.1214 19.5034 30.0006 19.6365C29.9411 19.7019 29.8953 19.7783 29.8655 19.8615C29.8358 19.9447 29.8228 20.0329 29.8274 20.1211C29.8319 20.2093 29.8539 20.2957 29.892 20.3754C29.9301 20.4551 29.9835 20.5264 30.0493 20.5854L30.0588 20.5936C30.2107 20.7239 32.0903 22.3357 31.4668 23.7719C30.4851 24.6931 29.35 25.4357 28.1127 25.9661Z" fill="white"/>
<path d="M5.09214 14.7651C5.36753 14.6079 5.72134 14.6939 5.89215 14.9648C6.06808 15.2436 5.98529 15.6124 5.70649 15.7884C4.53634 16.5275 4.42225 17.8617 4.73873 18.8476C4.83931 19.1613 4.67129 19.4949 4.35246 19.5983C4.03871 19.6989 3.70258 19.5263 3.60171 19.2121C3.13698 17.7631 3.378 15.847 5.06864 14.7792C5.07642 14.7741 5.08408 14.7697 5.09214 14.7651Z" fill="white"/>
<path d="M18.7216 31.3015C18.7135 31.3064 18.7059 31.311 18.6975 31.3154C16.9086 32.2918 14.386 31.7553 13.3259 30.6233C13.096 30.3777 13.1089 29.9928 13.354 29.7632C13.6042 29.5306 13.9845 29.5462 14.214 29.7913C14.9352 30.5618 16.8766 30.9229 18.1149 30.2472C18.4097 30.0861 18.7792 30.1951 18.9403 30.49C19.097 30.7764 18.9981 31.1342 18.7216 31.3015Z" fill="white"/>
<path d="M9.27825 28.1658L9.27818 28.1952C9.09791 28.2098 8.91714 28.2181 8.73621 28.2202C8.51882 28.2218 8.30152 28.2109 8.08537 28.1877L8.02098 28.1817C8.0068 27.3184 8.09973 26.0162 8.29753 25.2245C7.29747 25.0952 6.34662 24.7141 5.53416 24.1168C5.46663 24.0681 5.40944 24.0065 5.36591 23.9356C5.32238 23.8646 5.29338 23.7857 5.28058 23.7035C5.26778 23.6212 5.27144 23.5373 5.29135 23.4564C5.31126 23.3756 5.34703 23.2995 5.39657 23.2326C5.44611 23.1658 5.50844 23.1094 5.57995 23.0668C5.65146 23.0241 5.73072 22.9962 5.81312 22.9844C5.89553 22.9727 5.97945 22.9774 6.06001 22.9984C6.14058 23.0193 6.21618 23.0561 6.28242 23.1065C6.99138 23.6242 7.82931 23.9365 8.70416 24.0091C9.05169 23.1622 9.58008 22.4016 10.2524 21.7804C10.9246 21.1591 11.7246 20.6923 12.5962 20.4127C12.9785 18.1471 14.3474 17.5002 14.4089 17.4724C14.56 17.4033 14.7322 17.3968 14.888 17.4543C15.0439 17.5119 15.1706 17.6288 15.2405 17.7796C15.3104 17.9303 15.3178 18.1026 15.2611 18.2587C15.2044 18.4149 15.0882 18.5422 14.9378 18.613C14.8805 18.6427 13.9807 19.1373 13.7892 20.9589C13.7888 20.9597 13.7886 20.9605 13.7884 20.9612C13.7882 20.9624 13.7881 20.9636 13.7881 20.9649C13.7844 20.9903 13.7792 21.0155 13.7724 21.0403C13.7709 21.0461 13.7699 21.0517 13.7688 21.0573C13.767 21.0667 13.7652 21.0761 13.7616 21.0871C13.7578 21.0986 13.7527 21.1096 13.7477 21.1205L13.7431 21.1304L13.7399 21.1378C13.7319 21.1589 13.7227 21.1796 13.7125 21.1997C13.7094 21.2055 13.7055 21.2108 13.7016 21.2161C13.6989 21.2198 13.6961 21.2235 13.6937 21.2274C13.6787 21.2522 13.6621 21.276 13.644 21.2986C13.6375 21.3063 13.6301 21.3131 13.6226 21.32L13.6143 21.3278L13.6085 21.3335C13.5925 21.3508 13.5756 21.3672 13.5578 21.3827C13.5501 21.389 13.5415 21.3943 13.5329 21.3996C13.5277 21.4028 13.5225 21.406 13.5174 21.4094C13.4975 21.4241 13.4767 21.4376 13.4552 21.4497C13.4487 21.4533 13.4416 21.456 13.4346 21.4587L13.4278 21.4613L13.4208 21.4642C13.3942 21.477 13.3667 21.4878 13.3386 21.4966L13.3369 21.4973C13.336 21.4978 13.3348 21.4985 13.3339 21.4985C11.2426 22.087 10.2185 23.4687 9.72216 24.79C9.71086 24.8447 9.69224 24.8975 9.6668 24.9472C9.3758 25.8111 9.30025 27.3 9.27825 28.1658Z" fill="white"/>
<path d="M23.8174 16.4467C24.567 15.9431 25.5423 15.6092 26.717 15.4557C27.6484 15.3423 28.5529 15.0677 29.3901 14.6442C30.3947 14.1432 31.286 13.4417 32.0092 12.583C32.4257 12.0884 32.6287 11.7521 32.4257 11.4652C32.0092 10.8764 31.2685 11.5176 31.0913 11.8313C30.6087 12.4071 30.0327 12.8977 29.3874 13.2825C29.4679 12.8541 29.4349 12.4122 29.2919 12.0004C29.2365 11.8532 29.125 11.734 28.9817 11.669C28.8384 11.604 28.6752 11.5986 28.528 11.654C28.3807 11.7094 28.2615 11.8209 28.1966 11.9642C28.1316 12.1075 28.1262 12.2707 28.1816 12.4179C28.1972 12.4595 28.5457 13.4374 27.4183 14.1176C27.1366 14.1872 26.8512 14.241 26.5634 14.2787C25.2047 14.4569 24.0587 14.8542 23.1558 15.4618C22.5393 15.8749 22.0444 16.4451 21.722 17.1136C21.5393 17.0718 21.3671 16.9932 21.2158 16.8825C21.0646 16.7718 20.9375 16.6314 20.8425 16.4698C20.7687 16.3309 20.6427 16.227 20.4923 16.181C20.3419 16.1349 20.1793 16.1505 20.0404 16.2243C19.9015 16.2981 19.7976 16.4241 19.7515 16.5745C19.7055 16.7249 19.7211 16.8875 19.7949 17.0264C19.8201 17.0744 20.3195 18.0003 21.3678 18.2568C21.314 18.5996 21.3043 18.9479 21.339 19.2932C21.547 21.3248 23.2703 22.1255 24.1525 22.265C24.3071 22.2895 24.4652 22.2517 24.592 22.1598C24.7187 22.0679 24.8039 21.9295 24.8288 21.775C24.8538 21.6201 24.8166 21.4616 24.7253 21.334C24.6339 21.2064 24.4959 21.1201 24.3412 21.0938C24.2736 21.0823 22.685 20.7934 22.5193 19.1724C22.472 18.6435 22.5675 18.1116 22.7958 17.6322C23.0242 17.1527 23.377 16.7434 23.8174 16.4467Z" fill="white"/>
</g>
<defs>
<clipPath id="clip0_677_6669">
<rect width="47.4" height="42" fill="white" transform="translate(0.600098 2.99994)"/>
</clipPath>
</defs>
</svg>
