<svg width="48" height="48" viewBox="0 0 48 48" fill="none" xmlns="http://www.w3.org/2000/svg">
<path d="M21.6957 4.39818C28.9917 8.14218 33.0237 9.58218 35.5197 10.0622C43.2957 11.5982 48.2877 20.5262 38.9757 34.3502C38.9757 34.3502 34.9437 41.4542 33.8877 47.8862H19.0077H11.9037C13.7277 43.3742 19.1037 30.3182 22.0797 26.3822C22.0797 26.3822 10.4637 26.8622 4.9917 22.9262V10.7342V0.300171C7.79966 0.300066 13.4997 1.20017 21.6957 4.39818Z" fill="#384C6C"/>
<path d="M23.1356 32.1414C23.1356 36.3001 20.2796 46.5414 19.7996 47.8854H28.2716C34.2236 31.9494 34.4396 33.4201 35.3996 31.5001C35.7836 30.7321 35.88 30.1973 35.6876 29.5494C35.3186 28.3067 29.3996 26.4001 28.1996 26.4001C26.9996 26.4001 25.7791 26.3067 24.5996 27.3001C23.0888 28.5724 23.1356 32.1414 23.1356 32.1414Z" fill="white"/>
<path d="M4.9917 3.91809C8.2557 4.68609 23.6397 11.0221 29.2077 14.3821C29.6841 14.6753 30.2165 14.6747 30.8154 14.674C31.4144 14.6733 33.4814 14.8099 35.0996 15.3001C35.0996 15.3001 41.0996 17.1661 41.1459 20.2423C41.1459 20.2423 41.2959 22.2666 40.7996 23.4061C40.4276 24.2602 40.0618 24.6872 39.3837 25.3261C35.9533 28.5581 28.2986 24.0961 28.1517 21.6001C28.0557 19.9681 27.7677 19.1341 26.4237 18.3661C24.9054 17.5226 21.1506 14.6862 16.1996 12.6001L4.9917 8.10007V3.91809Z" fill="white"/>
</svg>
