<svg width="48" height="48" viewBox="0 0 48 48" fill="none" xmlns="http://www.w3.org/2000/svg">
<path d="M34.6998 5.92751C33.6601 4.14233 32.1738 2.65847 30.3869 1.62184C28.6 0.585213 26.574 0.0315078 24.5082 0.0151763C15.4616 -0.412646 9.61204 8.28017 7.15076 16.5569C4.54271 25.3624 6.2357 36.9364 13.5866 41.1234C17.8478 43.5328 23.9707 43.8223 27.8112 40.5379C29.5965 39.0218 31.6045 36.1163 31.7126 32.9677L31.7064 32.8707C31.6677 32.2931 31.6055 31.8225 31.533 31.4481C31.294 30.7515 31.039 30.2725 30.7929 30.0043C30.3261 29.4955 29.7628 29.1761 28.9684 29.0333C27.4411 28.7586 26.1521 30.1456 25.3966 30.9587C25.3336 31.0265 25.2743 31.0903 25.2189 31.1488C24.8497 31.5387 24.6117 31.9671 24.3614 32.4175C24.1238 32.8454 23.875 33.2932 23.4923 33.7467C22.7316 34.6481 21.782 35.6531 21.3013 35.8256C20.8205 35.998 20.3092 36.0696 19.7989 36.0354C18.743 36.0354 17.6092 35.1507 17.1743 34.7083C16.7394 34.2659 16.3006 32.8242 16.2789 32.599C16.2572 32.3739 16.2557 32.1473 16.2741 31.9219C16.2841 31.6353 16.5561 30.8021 16.8775 30.1424C17.5757 28.7087 18.6289 27.9664 19.7249 27.1939C20.0019 26.9987 20.2816 26.8016 20.5589 26.5909L20.9546 26.2899C20.7757 26.299 20.6007 26.3142 20.4299 26.336C18.9531 26.5243 17.9405 26.8311 16.7151 27.2962C16.119 27.5311 15.4653 27.5784 14.8414 27.4316C14.2139 27.284 13.7254 27.0026 13.2179 26.4676C12.4845 25.6946 12.3887 24.9678 12.2708 23.9088C12.169 22.9945 12.4259 21.7528 12.5034 21.5647C12.581 21.3766 13.2438 20.3414 13.9401 19.8971C14.543 19.5124 15.0038 19.4773 15.6914 19.4249C15.7978 19.4168 15.9099 19.4082 16.0286 19.3979C16.914 19.3211 18.3 19.6799 18.3 19.6799C18.3 19.6799 17.9757 19.3838 17.7 19.1999C17.2244 18.8829 16.6513 18.6831 16.1353 18.5032C15.6748 18.3427 15.2597 18.198 15 17.9999C14.2814 17.452 14.0051 16.9547 13.7427 16.0899C13.1865 14.2567 14.8899 11.9909 15.6359 11.5644L15.6428 11.5594C16.2495 11.1217 16.9747 10.8784 17.7223 10.8615C18.4699 10.8446 19.9232 11.5073 20.2222 11.6699C20.3058 11.7153 20.4013 11.7632 20.505 11.8152C20.7725 11.9492 21.0948 12.1107 21.4081 12.3287C22.0886 12.8021 22.9383 13.8 22.9383 13.8C22.9383 13.8 22.9264 12.8988 22.9383 12.7414C23.0096 11.7929 23.0893 10.7333 23.6696 9.67012C24.0212 9.02614 24.4105 8.48621 24.8013 8.17056C25.1922 7.85492 25.6416 7.61959 26.1238 7.47827C26.6061 7.33691 27.0315 7.28361 27.611 7.3472C28.1887 7.41058 29.3119 7.55423 29.9869 8.17056C30.662 8.78689 30.8844 9.05796 31.0815 9.67012C31.3189 10.407 30.9285 11.6465 30.9285 11.6465L30.4029 13.0471C30.1922 13.4527 29.4239 14.9475 29.1935 16.001C29.054 16.6397 29.0502 17.4721 29.1277 18.3442L29.2015 18.4197C30.0813 17.8647 31.0354 17.5635 31.7361 17.3424C31.9366 17.2791 32.1163 17.2224 32.2676 17.1681C33.6663 16.6667 34.8454 15.8722 35.4809 14.6417C36.7015 12.3454 36.3722 8.83948 34.6998 5.92751Z" fill="#384C6C"/>
<path d="M32.8372 21.6251C33.3673 21.9635 33.8677 22.3323 34.3173 22.7351H40.4007C40.7399 22.7351 41.0652 22.8718 41.3051 23.1151C41.5449 23.3584 41.6797 23.6883 41.6797 24.0324C41.6797 24.3765 41.5449 24.7064 41.3051 24.9497C41.0652 25.193 40.7399 25.3297 40.4007 25.3297H36.4233C40.0366 31.3931 39.0558 41.0395 38.6628 44.904C38.621 45.3147 38.5858 45.6608 38.5635 45.9295C38.5481 46.1156 38.539 46.2651 38.538 46.3741C38.5348 46.572 38.4593 46.7619 38.3257 46.908C38.1922 47.0541 38.0097 47.1464 37.8129 47.1673L34.7679 47.5165C34.7038 47.5247 34.639 47.5252 34.5752 47.5181C34.5221 47.512 34.4697 47.5009 34.4186 47.4846C34.3921 47.4762 34.3661 47.4664 34.3408 47.4553C34.3346 47.4526 34.3285 47.4499 34.3223 47.447C34.3126 47.4424 34.3029 47.4376 34.2933 47.4327C34.2773 47.4245 34.2616 47.4158 34.2463 47.4066C34.1997 47.3784 34.1558 47.3454 34.1155 47.3082C34.0284 47.2279 33.9601 47.1297 33.9151 47.0202C33.8702 46.9107 33.8497 46.7928 33.8553 46.6745C34.0471 42.727 34.0157 31.925 31.6373 29.3333C30.8776 28.5054 30.06 28.0195 28.8359 27.8857C26.9595 27.6807 25.4306 29.3153 24.5333 30.2747C24.4708 30.3414 24.4114 30.4049 24.3552 30.4643C23.4876 31.3805 22.613 33.0033 22.4132 33.3741C22.3915 33.4144 22.3777 33.4399 22.3728 33.4482C22.2354 33.7704 22.0327 34.0609 21.7777 34.3011C21.5228 34.5415 21.2209 34.7266 20.8912 34.8449C20.5613 34.9632 20.2107 35.0123 19.8611 34.9888C19.5116 34.9654 19.1705 34.8701 18.8594 34.7087C18.5487 34.551 18.2722 34.3332 18.0459 34.0681C17.8645 33.8558 17.7183 33.6163 17.6122 33.3588C17.5859 33.295 17.5621 33.2299 17.5408 33.1641C17.482 32.9823 17.4434 32.7951 17.4252 32.6057C17.4101 32.4497 17.409 32.2923 17.4218 32.1353C17.4453 31.8489 17.5156 31.5684 17.629 31.3052C17.653 31.2493 17.6792 31.1942 17.7072 31.1399C17.7286 31.0784 17.7572 31.0197 17.7927 30.9651C19.0378 29.3189 19.9002 28.6638 21.2518 27.6371L21.528 27.4271C21.6344 27.3462 21.7438 27.2626 21.8566 27.1758C22.4455 26.7229 23.3905 26.1666 24.3924 25.6242C22.9706 25.2888 21.5506 25.1325 20.2663 25.2962C18.6704 25.4997 17.5648 25.8368 16.2772 26.3259C15.9006 26.4757 15.4873 26.5062 15.0928 26.4134C14.6983 26.3206 14.342 26.1089 14.0717 25.8071C13.6612 25.3003 13.3968 24.6914 13.3068 24.0456C13.2167 23.3998 13.3046 22.7417 13.561 22.1421C13.7654 21.6731 14.1075 21.277 14.5417 21.0064C14.976 20.7357 16.2181 20.4444 17.4001 20.3999C18.5821 20.3554 20.7001 20.6999 20.7001 20.6999C20.7001 20.6999 20.2111 19.7759 19.5001 19.1999C19.4607 19.168 19.4218 19.1364 19.3835 19.1053C18.4608 18.3564 17.8179 17.8347 16.5149 17.6086C16.1146 17.5455 15.7434 17.3612 15.4514 17.0803C15.2729 16.9086 15.1291 16.7059 15.0263 16.4834C14.9611 16.342 14.9124 16.1927 14.8819 16.0381C14.7869 15.3931 14.8697 14.7343 15.1213 14.1329C15.373 13.5312 15.7841 13.0099 16.31 12.6246C16.725 12.3252 17.2212 12.1587 17.7327 12.1472C18.2444 12.1356 18.7475 12.2794 19.1757 12.5597C19.1757 12.5597 22.0333 14.069 23.7241 15.2539C23.7914 15.3011 23.8591 15.3492 23.927 15.3983C23.9367 15.2235 23.9455 15.0558 23.9539 14.8936C24.0426 13.1994 24.0992 12.1172 24.7598 10.1623C24.785 10.1023 24.8175 10.0454 24.8563 9.99315C25.0225 9.68688 25.2476 9.4164 25.5188 9.19738C25.79 8.97837 26.1018 8.8151 26.4362 8.71708C26.7707 8.61905 27.1213 8.58817 27.4678 8.62618C27.8143 8.66418 28.1498 8.77044 28.4552 8.93862C28.7633 9.10506 29.034 9.33326 29.25 9.60928C29.4661 9.88515 29.6228 10.2025 29.7105 10.5419C29.7982 10.8811 29.8149 11.2347 29.7596 11.5807C29.7043 11.9267 29.5781 12.2576 29.389 12.5526C29.3856 12.56 29.3754 12.5798 29.3594 12.6106L29.3509 12.6272C29.1564 13.0015 28.3065 14.6375 28.0369 15.8699C27.835 16.794 27.8716 17.9375 27.992 18.9904C28.1855 19.1851 28.375 19.3783 28.5597 19.5689C28.6699 19.611 28.781 19.654 28.8929 19.6978C29.0362 19.6463 29.1893 19.6191 29.3453 19.6191C33.2983 19.5292 38.5982 16.9602 39.5758 16.4862C39.671 16.4401 39.7252 16.4138 39.7332 16.4116C40.0337 16.248 40.3896 16.2055 40.7227 16.2934C41.0559 16.3813 41.3389 16.5925 41.5096 16.8804C41.6803 17.1683 41.7247 17.5095 41.6329 17.8287C41.5412 18.148 41.3209 18.4193 41.0205 18.5829L40.9936 18.5964C40.5878 18.802 36.7967 20.7227 32.8372 21.6251Z" fill="#384C6C"/>
</svg>
