<svg width="48" height="48" viewBox="0 0 48 48" fill="none" xmlns="http://www.w3.org/2000/svg">
<path d="M34.1698 9.29993C33.7948 9.20243 25.5373 10.1474 23.6698 10.9949C21.6148 11.9399 20.3773 16.4999 20.1523 17.3999C20.1083 17.5644 20.1215 17.739 20.1898 17.8949C21.3448 20.4374 23.4748 21.8849 26.6998 22.3199C26.8121 22.3352 26.9264 22.3249 27.0341 22.2896C27.1418 22.2544 27.2401 22.1953 27.3217 22.1166C27.4033 22.0379 27.4659 21.9418 27.505 21.8354C27.5441 21.729 27.5585 21.6152 27.5473 21.5024C27.3921 19.8111 27.6494 18.1074 28.2973 16.5374C29.0473 14.9699 32.2948 14.3849 33.5473 14.2874C34.0711 14.152 34.5443 13.8672 34.9091 13.4678C35.274 13.0683 35.5148 12.5713 35.6023 12.0374C35.6936 11.7638 35.7287 11.4746 35.7057 11.1871C35.6826 10.8996 35.6018 10.6197 35.4681 10.3641C35.3343 10.1086 35.1504 9.8826 34.9274 9.69975C34.7043 9.5169 34.4466 9.38091 34.1698 9.29993Z" fill="#4B94E2"/>
<path d="M35.9023 22.8825C35.8713 22.828 35.8335 22.7776 35.7898 22.7325C34.8961 21.865 33.7694 21.2762 32.5469 21.0378C31.3244 20.7994 30.059 20.9218 28.9048 21.39C26.8073 20.9027 24.8101 20.0552 23.0023 18.885C20.1523 17.055 15.9448 14.9175 12.2848 17.4525C8.78983 19.8675 8.23483 28.7025 9.92983 32.04C11.5048 35.19 16.2673 40.7925 20.7298 42.69C23.4073 43.8225 30.3448 46.1775 33.0298 45.9225C35.7148 45.6675 38.8948 40.6725 39.0298 34.7175C39.1348 28.6725 36.0373 23.115 35.9023 22.8825Z" fill="#F26674"/>
<path fill-rule="evenodd" clip-rule="evenodd" d="M27.5138 21.0095C27.9718 21.1541 28.4358 21.281 28.9048 21.39C30.059 20.9218 31.3244 20.7994 32.5469 21.0378C33.2248 21.17 33.8733 21.41 34.4689 21.7455C34.4386 21.4296 34.3793 20.9842 34.2648 20.4789C34.9237 20.0271 36.428 18.9885 36.8098 18.6375C37.2748 18.2099 37.2898 17.0774 36.5473 15.4874C36.4735 15.3259 36.3449 15.1959 36.1842 15.1203C36.0235 15.0448 35.8412 15.0287 35.6698 15.0749L31.3551 16.2377C30.7348 15.8652 30.0849 15.5844 29.5043 15.3904C28.9607 15.6951 28.5195 16.0732 28.2974 16.5374C27.7124 17.955 27.4458 19.4815 27.5138 21.0095Z" fill="#C4455E"/>
<path fill-rule="evenodd" clip-rule="evenodd" d="M12.3399 35.6572C13.8117 37.4981 15.7003 39.4323 17.6883 40.8994C17.51 41.5082 17.2394 42.4356 16.8299 43.8676C16.5749 44.7676 14.7824 44.5951 13.8749 44.3926C13.3211 44.2679 12.8102 43.9989 12.3939 43.613C11.9777 43.2271 11.671 42.7379 11.5049 42.1951C11.4994 42.1753 11.4945 42.1583 11.4905 42.1411C11.4409 41.927 11.5312 41.6806 12.3399 35.6572Z" fill="#4B94E2"/>
<path d="M33.3157 32.7014C32.368 33.0018 31.3528 33.0171 30.3965 32.7454C30.5316 34.1251 30.197 35.51 29.4468 36.6759C29.3188 36.8519 29.13 36.9742 28.917 37.0191C28.704 37.064 28.4819 37.0283 28.2937 36.9188C28.1056 36.8094 27.9647 36.6341 27.8983 36.4268C27.8319 36.2195 27.8448 35.9949 27.9344 35.7966C29.3765 33.3873 28.4972 31.532 27.1431 28.9029C26.3077 29.6591 25.1647 30.9692 25.745 32.1211C25.8404 32.3288 25.8512 32.5654 25.7751 32.7809C25.699 32.9963 25.542 33.1737 25.3374 33.2755C25.1328 33.3772 24.8966 33.3953 24.6789 33.3259C24.4612 33.2565 24.279 33.1051 24.1711 32.9037C22.9225 30.3977 25.279 28.1027 26.4396 27.1971C25.9384 25.0955 27.5098 21 27.5098 21C27.5098 21 28.1851 21.0123 28.5147 21.1071C28.8444 21.2018 29.0398 21.33 29.0398 21.33C29.0398 21.33 27.7586 26.1771 28.1982 27.1355C28.8466 28.2999 29.4336 29.4973 29.9568 30.723C30.8387 31.1635 31.8486 31.2758 32.8057 31.0396C33.0137 31.009 33.2256 31.0539 33.4033 31.1662C33.581 31.2785 33.7125 31.4507 33.7742 31.6516C33.8358 31.8525 33.8235 32.0688 33.7394 32.2614C33.6553 32.454 33.505 32.6101 33.3157 32.7014Z" fill="#C4455E"/>
<path d="M17.765 32.4306C17.9373 31.6121 17.9831 30.7797 17.9001 29.9711C21.6731 28.9165 20.0551 26.4833 18.9739 27.4659C18.5272 27.8688 18.0052 28.1417 17.4603 28.2573C17.13 27.4751 16.6977 26.6986 16.1654 26.0856C15.5919 26.4173 15.1434 26.5856 14.5723 27.007C14.6299 27.2048 14.8464 27.3598 15.3674 28.046C17.357 30.9155 15.3648 32.7332 16.6536 33.1854C16.763 33.2257 16.8813 33.2375 17 33.22C17.1188 33.2025 17.2352 33.1562 17.3412 33.0843C17.4471 33.0123 17.5399 32.9165 17.6131 32.8036C17.6863 32.6907 17.7382 32.5633 17.765 32.4306Z" fill="#C4455E"/>
<path fill-rule="evenodd" clip-rule="evenodd" d="M21.6223 18.9226C21.1348 23.5126 16.5673 26.3851 13.7923 27.5551C12.9646 27.9383 12.2414 28.5153 11.6839 29.2373C11.1265 29.9592 10.7512 30.8049 10.5898 31.7026L10.4173 32.9251C10.2298 32.6176 10.0573 32.3176 9.92229 32.0401C9.06864 30.3592 8.78568 27.284 9.16156 24.3367C8.39478 24.5311 7.61361 24.6669 6.82483 24.7425C6.63149 24.764 6.43736 24.7095 6.28344 24.5906C6.28344 24.5906 5.76362 24 5.6998 23.2985C5.63598 22.597 5.74521 22.0183 5.82364 21.8763C5.90207 21.7343 6.02441 21.6216 6.17233 21.555C7.02317 21.1951 7.7196 20.8892 8.29314 20.6314C7.725 20.1718 7.23977 19.6512 7.03475 19.4175C6.93505 19.3058 6.87105 19.1668 6.851 19.0184C6.851 19.0184 6.7199 18.4164 7.03469 17.8031C7.41278 17.0665 7.98412 16.8106 7.98412 16.8106C8.11809 16.7382 8.2709 16.7084 8.42225 16.725L12.3447 17.325C12.3758 17.3299 12.4063 17.3367 12.4363 17.3454C15.554 15.3059 19.0434 16.579 21.7498 18.1276C21.6915 18.3898 21.6489 18.6553 21.6223 18.9226Z" fill="#C4455E"/>
<path fill-rule="evenodd" clip-rule="evenodd" d="M23.7973 2.71506L24.5473 4.62006C24.614 4.63295 24.6869 4.6479 24.7654 4.66513L25.3647 2.76754C25.4155 2.6109 25.5165 2.37358 25.6521 2.28005C26.1924 1.9072 26.6997 1.80013 27.5997 1.80005C28.5383 1.79996 29.3997 2.10001 29.9486 2.83982C29.9929 2.97859 29.9776 3.04069 29.9569 3.12438C29.9537 3.1373 29.9504 3.15073 29.9472 3.16504L28.9821 6.8498C29.6682 7.5583 30.2129 8.47705 30.4247 9.66493C27.8556 10.0003 24.731 10.5134 23.6698 10.995C21.6727 11.9133 20.4477 16.2456 20.1737 17.3152C19.8854 17.1843 19.5916 17.0614 19.2935 16.9492L18.0822 11.385C18.0073 9.89241 17.99 8.95554 17.9787 8.34815L17.9755 8.17506C18.7887 6.76414 19.4566 6.01329 19.9723 5.62506L19.1173 3.25506C19.0764 3.14183 19.0633 3.0204 19.0792 2.90105C19.0951 2.7817 19.1395 2.66792 19.2086 2.56935C19.2778 2.47078 19.3696 2.3903 19.4765 2.33473C19.4765 2.33473 20.3997 1.80005 21.4498 1.80005C22.8747 1.80005 23.5103 2.36958 23.5103 2.36958C23.639 2.45271 23.7392 2.57328 23.7973 2.71506Z" fill="#C4455E"/>
<path fill-rule="evenodd" clip-rule="evenodd" d="M20.3465 17.4L18.0824 11.3304C18.0074 9.82301 17.9901 8.87684 17.9788 8.26341C17.9608 7.2802 17.9585 7.15181 17.7599 6.93725C16.8149 5.83138 14.4224 5.48296 12.2624 7.12661C11.9237 7.38188 11.9359 7.71629 11.9592 8.3525C11.9705 8.6602 11.9844 9.03849 11.9624 9.51257C10.749 10.2507 9.93801 10.6971 9.39078 10.9984C8.48351 11.4978 8.30124 11.5982 8.21235 11.9667C8.12249 12.5337 8.12249 13.1115 8.21235 13.6785C8.38485 14.8677 9.39735 15.4358 9.94485 15.2767L12.3749 14.595C12.2972 15.4853 12.1622 16.5246 12.0547 17.2845L12.3448 17.3294C12.3758 17.3343 12.4064 17.3412 12.4364 17.35C15.0379 15.6313 17.8983 16.242 20.3465 17.4Z" fill="#4B94E2"/>
</svg>
