<svg width="48" height="48" viewBox="0 0 48 48" fill="none" xmlns="http://www.w3.org/2000/svg">
<g clip-path="url(#clip0_383_294)">
<path d="M18.8075 21.7254C17.6137 27.2456 16.1558 34.0115 20.276 38.2592L22.3889 37.5602C18.3004 34.0294 19.7266 27.3979 20.8782 22.048L20.8844 22.0192C21.5262 19.0473 22.0812 16.4772 21.6811 14.6907C21.3325 13.1314 20.4662 12.0292 19.0928 11.4287C17.6031 10.7745 15.8388 10.8821 14.5077 11.1241L14.064 13.0776C15.1416 12.7819 16.9164 12.4772 18.1208 13.0149C18.9026 13.3644 19.378 14.0186 19.6104 15.0222C19.9373 16.4804 19.3905 19.019 18.8106 21.711L18.8075 21.7254Z" fill="#374A68"/>
<path d="M29.4285 21.7252C30.6223 27.2455 32.0802 34.0113 27.96 38.259L25.847 37.5601C29.9355 34.0293 28.5093 27.3978 27.3578 22.0479L27.3515 22.0191C26.7097 19.0471 26.1547 16.4771 26.5548 14.6906C26.9035 13.1313 27.7698 12.029 29.1432 11.4286C30.6329 10.7744 32.3971 10.882 33.7283 11.1239L34.172 13.0775C33.0944 12.7818 31.3195 12.4771 30.1152 13.0148C29.3334 13.3643 28.858 14.0185 28.6255 15.0221C28.2986 16.4802 28.8455 19.0189 29.4254 21.7109L29.4285 21.7252Z" fill="#374A68"/>
<path d="M14.2836 13.8585C14.8485 14.4349 15.2305 15.1653 15.3817 15.9581C15.5328 16.7509 15.4463 17.5706 15.1331 18.3144C14.8198 19.0582 14.2937 19.6928 13.6209 20.1386C12.9482 20.5844 12.1587 20.8214 11.3516 20.8199C11.3516 20.8199 4.79974 21.6389 4.79974 10.9921C4.79974 6.49588 6.33943 4.2273 8.01834 3.08892C11.2124 0.918618 16.2655 1.87683 16.2655 6.0782C16.2658 6.63848 16.1511 7.19287 15.9285 7.70704C15.7059 8.22122 15.3802 8.68425 14.9715 9.06748C15.3809 9.83553 15.5349 10.714 15.4111 11.5755C15.2874 12.437 14.8925 13.2367 14.2836 13.8585Z" fill="#374A68"/>
<path d="M34.123 13.8602C33.558 14.4366 33.1759 15.1671 33.0247 15.96C32.8736 16.7529 32.9601 17.5727 33.2734 18.3166C33.5867 19.0604 34.1128 19.6951 34.7857 20.141C35.4585 20.5868 36.2481 20.8238 37.0553 20.8223C37.0553 20.8223 43.6078 21.6414 43.6078 10.9934C43.6078 1.16456 36.2362 1.98363 36.2362 1.98363C35.4145 1.98318 34.6117 2.2299 33.9321 2.69172C33.2525 3.15354 32.7275 3.8091 32.4254 4.57321C32.1233 5.33732 32.058 6.17464 32.2381 6.97634C32.4181 7.77804 32.8351 8.50705 33.435 9.06862C33.0256 9.83675 32.8715 10.7153 32.9952 11.5769C33.119 12.4385 33.514 13.2383 34.123 13.8602V13.8602Z" fill="#374A68"/>
<path d="M31.0981 39.5015C31.0981 38.5438 30.5284 37.8278 29.6422 37.3266C29.4003 37.1638 28.6998 36.7962 27.8337 36.6285C26.7666 36.3689 25.5639 36.2526 24.4336 36.2526C23.3123 36.2526 22.1096 36.3689 21.0426 36.6285C20.6373 36.7248 19.7083 36.9991 19.234 37.3266C18.3478 37.8278 17.7781 38.5438 17.7781 39.5015C17.7781 43.1352 20.7622 46.0978 24.4336 46.0978C28.114 46.0978 31.0981 43.1352 31.0981 39.5015Z" fill="#374A68"/>
</g>
<defs>
<clipPath id="clip0_383_294">
<rect width="38.8499" height="44.3999" fill="white" transform="translate(4.79974 1.79999)"/>
</clipPath>
</defs>
</svg>
