<svg width="48" height="48" viewBox="0 0 48 48" fill="none" xmlns="http://www.w3.org/2000/svg">
<g clip-path="url(#clip0_383_310)">
<path d="M33.9559 25.7794L35.1559 42.7745C35.1565 43.2192 34.9802 43.6459 34.6657 43.9603C34.3513 44.2747 33.9246 44.4511 33.48 44.4505H33.4718C32.99 44.447 32.532 44.2401 32.2108 43.881L26.3085 36.0953C25.9971 35.7435 25.5498 35.5421 25.08 35.542H25.0068C23.2096 35.542 21.7526 34.0851 21.7526 32.2878V26.593L33.9559 25.7794Z" fill="#374A68"/>
<path d="M43.4843 29.2783C43.4843 32.7176 40.0377 35.5116 35.7844 35.5116C35.1685 35.5146 34.5541 35.4531 33.951 35.3283C33.1874 35.179 32.4474 34.9274 31.7511 34.5803C30.242 33.8803 29.0529 32.6362 28.4218 31.097L34.6844 22.3117L43.015 27.137V27.1443C43.325 27.813 43.4851 28.5413 43.4843 29.2783Z" fill="#374A68"/>
<path d="M45.1748 16.928C44.7051 16.6228 44.1922 16.3897 43.6534 16.2365C43.6697 16.1308 43.6778 16.0331 43.686 15.9274C43.7022 15.667 43.7185 15.4067 43.7185 15.1464C43.6818 10.411 39.9624 6.5239 35.2332 6.27865C35.1355 6.18103 35.0298 6.09153 34.924 6.00204C33.302 4.59084 31.2245 3.81359 29.0746 3.81359C27.9609 3.81675 26.8576 4.0264 25.8204 4.43189H25.8122C25.3049 4.01683 24.7333 3.6871 24.12 3.45563C23.3683 3.15026 22.564 2.99547 21.7526 3.00004C20.7618 2.99686 19.7839 3.22531 18.897 3.66715C18.3631 3.92906 17.8676 4.26302 17.4245 4.65968L17.4164 4.66782C17.3513 4.62714 17.2781 4.58646 17.2049 4.54579C14.9268 3.25734 12.0622 3.70168 10.2815 5.61967C9.86818 6.05127 9.52995 6.54898 9.28086 7.0922C9.10188 7.07593 8.9229 7.0678 8.73578 7.0678C5.59171 7.07049 3.04361 9.61859 3.04092 12.7627C3.04092 12.8196 3.04906 12.8928 3.04906 12.9498V12.966C0.579261 14.6716 -0.13401 18.0061 1.42195 20.5728C1.42195 20.5809 1.42195 20.5809 1.43009 20.589C1.42195 20.6948 1.41382 20.7924 1.41382 20.8982C1.41215 21.6378 1.52466 22.3732 1.74737 23.0785V23.0866C2.63191 25.9135 5.13432 27.9277 8.08494 28.1876C8.30109 28.2108 8.51839 28.2217 8.73578 28.2201C9.06512 28.2163 9.3939 28.1918 9.72018 28.1469C9.75272 28.2771 9.78526 28.4154 9.81781 28.5456C9.83408 28.6188 9.85848 28.692 9.87475 28.7571C9.99541 29.1523 10.1506 29.5362 10.3385 29.9042C10.4198 30.0669 10.5093 30.2296 10.607 30.3923C11.9357 32.5768 14.3063 33.9116 16.8632 33.915H16.8713C18.9248 33.9161 20.8835 33.0506 22.2651 31.5313C22.6353 31.1289 22.96 30.6869 23.2333 30.2133V30.2052C23.4123 30.3028 23.5912 30.3923 23.7702 30.4737C23.793 30.4879 23.8176 30.4988 23.8434 30.5062C28.4929 32.6491 34.0098 31.1429 36.9254 26.9347C37.2562 26.4706 37.5448 25.9778 37.7877 25.4622C37.7877 25.4541 37.7959 25.4541 37.7959 25.4459C39.2541 27.1372 41.5662 27.8201 43.7093 27.1926C45.8524 26.565 47.431 24.7428 47.7466 22.5321C48.0622 20.3214 47.0567 18.1302 45.1748 16.928Z" fill="#374A68"/>
<path fill-rule="evenodd" clip-rule="evenodd" d="M46.8761 24.8428C46.1626 23.693 44.8721 23.3967 44.8056 23.3822C44.6841 23.3554 44.557 23.3779 44.4521 23.4448C44.3473 23.5118 44.2734 23.6176 44.2466 23.7391C44.2198 23.8605 44.2423 23.9876 44.3093 24.0925C44.3762 24.1973 44.482 24.2712 44.6035 24.298C44.6566 24.3102 45.8059 24.5847 46.2366 25.6507C46.4735 25.4015 46.6876 25.1311 46.8761 24.8428Z" fill="white"/>
<path fill-rule="evenodd" clip-rule="evenodd" d="M44.6674 16.635C44.8413 16.7237 45.0107 16.8215 45.1747 16.9281C45.3919 17.0669 45.5975 17.2188 45.7907 17.3824C45.7919 17.5334 45.7904 17.7419 45.7893 17.8894C45.789 17.9332 45.7887 17.9717 45.7886 18.0016C45.782 19.3024 44.7669 20.3009 43.8402 20.8565C43.8237 20.8664 43.807 20.8762 43.7905 20.8857C43.4646 21.0772 43.1095 21.214 42.7393 21.2908C41.0868 21.6234 40.3012 20.5321 40.1032 19.8771C39.8305 19.2439 39.5595 19.1411 39.5192 19.1291C39.3844 19.1207 39.2581 19.0604 39.1668 18.9608C39.0756 18.8612 39.0265 18.7301 39.0298 18.5951C39.0332 18.46 39.0888 18.3315 39.1849 18.2366C39.281 18.1417 39.4102 18.0878 39.5453 18.0861C39.7004 18.0832 40.5053 18.1401 41.0768 19.499C41.0856 19.5197 41.0929 19.541 41.0988 19.5626C41.1451 19.7143 41.4358 20.4881 42.5331 20.2673C42.8056 20.2101 43.0662 20.1065 43.3035 19.9608C43.4398 19.8792 44.6733 18.9975 44.6967 17.9442C44.7065 17.5855 44.6996 17.0454 44.6674 16.635Z" fill="white"/>
<path opacity="0.9" fill-rule="evenodd" clip-rule="evenodd" d="M9.28094 7.09201C9.95435 7.49088 12.0121 9.03109 12.1883 9.85999C12.2685 10.2662 12.2537 10.6855 12.145 11.085C12.0362 11.4845 11.8365 11.8535 11.5615 12.1631C11.4442 12.2982 11.317 12.4243 11.1809 12.5405C11.0594 12.6508 10.9856 12.8039 10.9751 12.9676C10.9646 13.1314 11.0181 13.2927 11.1244 13.4177C11.2307 13.5427 11.3814 13.6214 11.5447 13.6372C11.7079 13.6531 11.871 13.6048 11.9993 13.5026C12.1834 13.3456 12.3556 13.1751 12.5144 12.9925C12.8871 12.5685 13.1652 12.0699 13.33 11.53C13.4948 10.99 13.5427 10.4211 13.4703 9.86124C13.8853 9.83202 14.288 9.70804 14.6475 9.49882C15.0071 9.2896 15.3139 9.00071 15.5443 8.65438C15.5938 8.58621 15.6292 8.50882 15.6484 8.42677C15.6675 8.34473 15.6701 8.25967 15.6559 8.17662C15.6417 8.09357 15.611 8.0142 15.5657 7.94318C15.5203 7.87216 15.4613 7.81092 15.3919 7.76308C15.3226 7.71523 15.2443 7.68174 15.1618 7.66458C15.0793 7.64743 14.9943 7.64694 14.9116 7.66316C14.8289 7.67938 14.7503 7.71197 14.6804 7.75902C14.6105 7.80607 14.5507 7.86663 14.5046 7.93712C14.3448 8.16784 14.1261 8.35155 13.8712 8.46917C13.6164 8.58678 13.3347 8.63402 13.0555 8.60596C12.8351 8.21925 10.8143 6.41648 10.0509 5.88007C10.0415 5.89018 10.032 5.90031 10.0226 5.91048C9.72532 6.26989 9.47585 6.66702 9.28094 7.09201Z" fill="white"/>
<path fill-rule="evenodd" clip-rule="evenodd" d="M43.2236 12.2746C42.4301 12.173 41.259 11.4622 40.5053 10.8379C39.7365 10.3432 37.7691 9.7383 36.0494 11.2769C35.9851 11.3272 35.9327 11.3888 35.8955 11.458C35.8582 11.5272 35.8369 11.6024 35.8327 11.6793C35.8285 11.7561 35.8416 11.833 35.8711 11.9051C35.9386 12.0507 36.0655 12.1672 36.2254 12.2304C36.3853 12.2935 36.566 12.2985 36.7298 12.2442C36.7343 12.2429 36.7548 12.227 36.789 12.2004C37.101 11.9579 38.5596 10.8243 39.5725 11.6633C40.7733 12.6581 42.5782 13.3909 43.542 13.4388C43.4617 13.0407 43.3549 12.652 43.2236 12.2746Z" fill="white"/>
<path d="M28.1124 25.9661C26.9666 26.4566 25.6915 26.5579 24.4825 26.2544C22.3752 25.7571 20.2362 25.8752 19.1488 25.9906C18.9724 26.0115 18.8114 26.1011 18.7006 26.2399C18.5898 26.3787 18.5382 26.5556 18.5568 26.7322C18.5755 26.9088 18.663 27.0709 18.8004 27.1835C18.9377 27.2961 19.1139 27.35 19.2907 27.3336C20.2928 27.2278 22.2595 27.1175 24.1722 27.569C24.7398 27.7042 25.3212 27.7731 25.9046 27.7741C26.8517 27.777 27.789 27.5823 28.6566 27.2023C30.0948 26.585 31.4078 25.7095 32.5305 24.6191C32.551 24.6008 32.5704 24.5813 32.5886 24.5607C33.4904 23.6599 35.3936 21.9725 35.7743 20.2973C35.8069 20.2147 35.8228 20.1266 35.8213 20.0379C35.8197 19.9493 35.8008 19.8617 35.7654 19.7804C35.7301 19.699 35.679 19.6254 35.6152 19.5638C35.5514 19.5022 35.4761 19.4537 35.3936 19.4212C35.3111 19.3887 35.223 19.3727 35.1343 19.3742C35.0456 19.3758 34.9581 19.3948 34.8767 19.4301C34.7954 19.4655 34.7218 19.5165 34.6601 19.5803C34.5985 19.6441 34.5501 19.7194 34.5175 19.8019C33.9882 21.1449 33.2159 21.6966 32.702 22.2838C32.5305 20.849 31.2519 19.8785 30.9587 19.5872C30.8249 19.4672 30.6489 19.405 30.4694 19.4142C30.2898 19.4235 30.1211 19.5034 30.0003 19.6365C29.9409 19.7019 29.895 19.7783 29.8653 19.8615C29.8355 19.9447 29.8226 20.0329 29.8271 20.1211C29.8316 20.2093 29.8536 20.2957 29.8917 20.3754C29.9298 20.4551 29.9833 20.5264 30.0491 20.5854C30.0714 20.6071 32.1125 22.2838 31.4665 23.7719C30.4849 24.6931 29.3498 25.4357 28.1124 25.9661Z" fill="white"/>
<path d="M5.09153 14.7651C5.08343 14.7697 5.07584 14.7741 5.06803 14.7792C3.37739 15.847 3.13637 17.7631 3.6011 19.2121C3.70197 19.5263 4.0381 19.6989 4.35186 19.5983C4.67068 19.4949 4.8387 19.1613 4.73812 18.8476C4.42164 17.8617 4.53573 16.5275 5.70588 15.7884C5.98468 15.6124 6.06747 15.2436 5.89154 14.9648C5.72073 14.6939 5.36693 14.6079 5.09153 14.7651Z" fill="white"/>
<path d="M18.7211 31.3015C18.713 31.3064 18.7054 31.311 18.6969 31.3154C16.908 32.2918 14.3854 31.7553 13.3253 30.6233C13.0955 30.3777 13.1084 29.9928 13.3534 29.7632C13.6036 29.5306 13.9839 29.5462 14.2135 29.7913C14.9347 30.5618 16.8761 30.9229 18.1143 30.2472C18.4092 30.0861 18.7787 30.1951 18.9397 30.49C19.0964 30.7764 18.9976 31.1341 18.7211 31.3015Z" fill="white"/>
<path fill-rule="evenodd" clip-rule="evenodd" d="M9.2777 28.1952C9.27772 28.1856 9.27774 28.1758 9.27776 28.1658C9.29976 27.3 9.37532 25.8111 9.66632 24.9472C9.69175 24.8975 9.71037 24.8447 9.72167 24.79C10.218 23.4687 11.2421 22.087 13.3334 21.4985C13.3344 21.4985 13.3352 21.498 13.3361 21.4975C13.3368 21.4971 13.3374 21.4968 13.3381 21.4966C13.3662 21.4878 13.3937 21.477 13.4203 21.4642C13.4248 21.4622 13.4294 21.4605 13.434 21.4587C13.4411 21.456 13.4482 21.4533 13.4547 21.4497C13.4762 21.4376 13.497 21.4241 13.5169 21.4094C13.522 21.406 13.5272 21.4028 13.5324 21.3996C13.541 21.3943 13.5496 21.389 13.5574 21.3827C13.5751 21.3672 13.592 21.3508 13.608 21.3335C13.6099 21.3316 13.6118 21.3297 13.6138 21.3278C13.6165 21.3252 13.6193 21.3226 13.6221 21.32L13.6221 21.32C13.6296 21.3131 13.637 21.3063 13.6435 21.2986C13.6616 21.276 13.6782 21.2522 13.6932 21.2274C13.6956 21.2235 13.6983 21.2198 13.7011 21.2161L13.7011 21.2161C13.705 21.2108 13.7089 21.2055 13.7121 21.1997C13.7223 21.1796 13.7314 21.1589 13.7394 21.1378C13.7404 21.1353 13.7415 21.1329 13.7426 21.1304C13.7441 21.1271 13.7456 21.1238 13.7472 21.1205C13.7522 21.1096 13.7573 21.0986 13.7611 21.0871C13.7648 21.0761 13.7666 21.0667 13.7683 21.0573L13.7683 21.0573C13.7694 21.0517 13.7705 21.0461 13.7719 21.0403C13.7787 21.0155 13.7839 20.9903 13.7876 20.9649C13.7877 20.9628 13.7877 20.9609 13.7887 20.9589C13.9802 19.1373 14.88 18.6427 14.9373 18.613C15.0877 18.5422 15.2039 18.4149 15.2606 18.2587C15.3174 18.1026 15.31 17.9303 15.2401 17.7796C15.1701 17.6288 15.0434 17.5119 14.8875 17.4543C14.7317 17.3968 14.5595 17.4033 14.4084 17.4724C14.3469 17.5002 12.9781 18.1471 12.5957 20.4127C11.7241 20.6923 10.9242 21.1591 10.2519 21.7804C9.57959 22.4016 9.0512 23.1622 8.70368 24.0091C7.82882 23.9365 6.99089 23.6242 6.28194 23.1065C6.21569 23.0561 6.14009 23.0193 6.05953 22.9984C5.97897 22.9774 5.89505 22.9727 5.81264 22.9844C5.73023 22.9962 5.65097 23.0241 5.57946 23.0668C5.50796 23.1094 5.44562 23.1658 5.39608 23.2326C5.34654 23.2995 5.31078 23.3756 5.29086 23.4564C5.27095 23.5373 5.26729 23.6212 5.28009 23.7035C5.29289 23.7857 5.3219 23.8646 5.36543 23.9356C5.40896 24.0065 5.46614 24.0681 5.53367 24.1168C6.34614 24.7141 7.29698 25.0952 8.29704 25.2245C8.09924 26.0162 8.00631 27.3184 8.02049 28.1817C8.04193 28.1838 8.06339 28.1858 8.08488 28.1877C8.30103 28.2109 8.51833 28.2218 8.73572 28.2202C8.91666 28.2181 9.09742 28.2098 9.2777 28.1952Z" fill="white"/>
<path fill-rule="evenodd" clip-rule="evenodd" d="M25.8746 4.41094C25.5247 4.9955 25.1887 5.89315 25.1887 6.52395C25.1887 6.91941 25.2335 7.26024 25.2705 7.54205L25.2705 7.54208C25.2755 7.58074 25.2805 7.61829 25.2851 7.65472L25.2861 7.66133C25.3943 8.4131 25.399 8.44578 24.8096 8.702C24.4498 8.85623 24.0515 8.89476 23.6275 8.9333C22.6444 9.01683 21.3081 9.13894 21.0896 11.227C21.051 11.5804 21.3081 11.8952 21.6614 11.9338C21.671 11.9338 21.6823 11.9354 21.6935 11.937L21.6935 11.937C21.7048 11.9386 21.716 11.9402 21.7256 11.9402C22.0533 11.9402 22.3296 11.6897 22.3681 11.3619C22.4707 10.3238 22.7905 10.2956 23.7292 10.2125L23.7366 10.2119C24.225 10.1669 24.7711 10.1155 25.3172 9.87776C26.8142 9.23526 26.6793 8.29721 26.5572 7.47482L26.5458 7.38791V7.3879C26.5103 7.11973 26.4737 6.84276 26.4737 6.52395C26.4737 6.2027 26.753 5.06249 27.1707 4.88902C27.5597 4.72823 28.1077 4.4963 28.531 3.8316C27.6222 3.88914 26.7265 4.0842 25.8746 4.41094Z" fill="white"/>
<path d="M26.7168 15.4557C25.5421 15.6092 24.5668 15.9431 23.8172 16.4467C23.3767 16.7434 23.024 17.1527 22.7956 17.6322C22.5673 18.1116 22.4718 18.6435 22.519 19.1724C22.6848 20.7934 24.2733 21.0823 24.341 21.0938C24.4957 21.1201 24.6337 21.2064 24.7251 21.334C24.8164 21.4616 24.8536 21.6201 24.8286 21.775C24.8037 21.9295 24.7185 22.0679 24.5917 22.1598C24.465 22.2517 24.3069 22.2895 24.1523 22.265C23.2701 22.1255 21.5468 21.3248 21.3388 19.2932C21.3041 18.9479 21.3138 18.5996 21.3676 18.2568C20.3193 18.0003 19.8199 17.0744 19.7947 17.0264C19.7209 16.8875 19.7053 16.7249 19.7513 16.5745C19.7974 16.4241 19.9013 16.2981 20.0402 16.2243C20.1791 16.1505 20.3417 16.1349 20.4921 16.181C20.6425 16.227 20.7685 16.3309 20.8423 16.4698C20.9373 16.6314 21.0644 16.7718 21.2156 16.8825C21.3668 16.9932 21.5391 17.0718 21.7218 17.1136C22.0441 16.4451 22.5391 15.8749 23.1555 15.4618C24.0585 14.8542 25.2045 14.4569 26.5632 14.2787C26.851 14.241 27.1364 14.1872 27.4181 14.1176C28.5455 13.4374 28.197 12.4595 28.1813 12.4179C28.126 12.2707 28.1314 12.1075 28.1963 11.9642C28.2613 11.8209 28.3805 11.7094 28.5278 11.654C28.675 11.5986 28.8382 11.604 28.9815 11.669C29.1247 11.734 29.2363 11.8532 29.2917 12.0004C29.4347 12.4122 29.4677 12.8541 29.3872 13.2825C30.0325 12.8977 30.6085 12.4071 31.0911 11.8313C31.2682 11.5176 32.009 10.8764 32.4255 11.4652C32.6285 11.7521 32.4255 12.0884 32.009 12.583C31.2858 13.4417 30.3945 14.1432 29.3899 14.6442C28.5527 15.0677 27.6482 15.3423 26.7168 15.4557Z" fill="white"/>
</g>
<defs>
<clipPath id="clip0_383_310">
<rect width="47.4" height="42" fill="white" transform="translate(0.599823 2.99994)"/>
</clipPath>
</defs>
</svg>
