<svg width="48" height="48" viewBox="0 0 48 48" fill="none" xmlns="http://www.w3.org/2000/svg">
<path fill-rule="evenodd" clip-rule="evenodd" d="M44.5749 16.9281C44.1052 16.6229 43.5924 16.3898 43.0536 16.2366C43.0699 16.1308 43.078 16.033 43.0862 15.9273C43.1024 15.667 43.1187 15.4067 43.1187 15.1464C43.082 10.411 39.3625 6.52396 34.6333 6.27871C34.5357 6.18109 34.43 6.0916 34.3242 6.0021C32.7022 4.5909 30.6247 3.81365 28.4748 3.81365C27.3611 3.81682 26.2577 4.02646 25.2205 4.43195H25.2124C24.705 4.01689 24.1335 3.68716 23.5202 3.45569C22.7685 3.15032 21.9641 2.99553 21.1528 3.0001C20.162 2.99692 19.1841 3.22537 18.2972 3.66721C17.7633 3.92912 17.2678 4.26308 16.8247 4.65974L16.8166 4.66788C16.7515 4.6272 16.6783 4.58652 16.605 4.54585C14.327 3.2574 11.4624 3.70175 9.68171 5.61974C9.59186 5.71355 9.50556 5.81048 9.42296 5.91033L9.45109 5.8801C10.2145 6.41651 12.2352 8.21929 12.4556 8.606C12.7349 8.63406 13.0166 8.58682 13.2714 8.4692C13.5262 8.35159 13.7449 8.16788 13.9047 7.93716C13.9509 7.86666 14.0106 7.80611 14.0805 7.75906C14.1504 7.71201 14.229 7.67941 14.3117 7.66319C14.3944 7.64698 14.4795 7.64746 14.562 7.66462C14.6445 7.68178 14.7227 7.71527 14.7921 7.76311C14.8614 7.81096 14.9205 7.87219 14.9658 7.94321C15.0112 8.01424 15.0418 8.09361 15.056 8.17666C15.0702 8.25971 15.0677 8.34476 15.0485 8.42681C15.0294 8.50886 14.994 8.58625 14.9445 8.65442C14.714 9.00075 14.4072 9.28963 14.0477 9.49885C13.6881 9.70807 13.2854 9.83206 12.8704 9.86127C12.9428 10.4212 12.895 10.99 12.7301 11.53C12.5653 12.0699 12.2872 12.5685 11.9145 12.9926C11.7557 13.1751 11.5836 13.3456 11.3995 13.5026C11.2711 13.6048 11.1081 13.6531 10.9448 13.6373C10.7815 13.6214 10.6308 13.5427 10.5245 13.4177C10.4182 13.2928 10.3647 13.1314 10.3752 12.9677C10.3858 12.804 10.4596 12.6508 10.581 12.5405C10.7171 12.4244 10.8444 12.2982 10.9617 12.1631C11.2367 11.8535 11.4364 11.4846 11.5451 11.0851C11.6538 10.6855 11.6687 10.2663 11.5885 9.86003C11.4123 9.03114 9.35457 7.49097 8.68113 7.09207C8.6811 7.09213 8.68116 7.092 8.68113 7.09207C8.50215 7.0758 8.32308 7.06786 8.13596 7.06786C4.99189 7.07055 2.44379 9.61865 2.4411 12.7627C2.4411 12.7912 2.44313 12.8237 2.44517 12.8563C2.4472 12.8888 2.44923 12.9214 2.44923 12.9498V12.9661C-0.0205622 14.6716 -0.733833 18.0062 0.822129 20.5728C0.822129 20.581 0.822129 20.581 0.830265 20.5891L0.828633 20.6102C0.821076 20.708 0.813994 20.7996 0.813994 20.8982C0.812328 21.6378 0.924838 22.3733 1.14755 23.0786V23.0867C2.02564 25.893 4.49809 27.8983 7.42065 28.1817C7.40648 27.3184 7.49941 26.0162 7.6972 25.2245C6.69714 25.0953 5.74629 24.7141 4.93383 24.1169C4.8663 24.0682 4.80911 24.0066 4.76558 23.9356C4.72205 23.8647 4.69305 23.7858 4.68025 23.7035C4.66745 23.6213 4.67111 23.5373 4.69102 23.4565C4.71093 23.3757 4.7467 23.2996 4.79624 23.2327C4.84578 23.1658 4.90812 23.1094 4.97962 23.0668C5.05113 23.0242 5.13039 22.9962 5.2128 22.9845C5.29521 22.9727 5.37913 22.9775 5.45969 22.9984C5.54025 23.0194 5.61585 23.0561 5.6821 23.1065C6.39105 23.6242 7.22898 23.9365 8.10383 24.0091C8.45136 23.1623 8.97975 22.4016 9.65204 21.7804C10.3243 21.1592 11.1242 20.6924 11.9958 20.4127C12.3782 18.1472 13.7471 17.5003 13.8086 17.4724C13.9597 17.4033 14.1318 17.3968 14.2877 17.4544C14.4436 17.512 14.5703 17.6289 14.6402 17.7796C14.7101 17.9303 14.7175 18.1026 14.6608 18.2588C14.6041 18.4149 14.4878 18.5423 14.3375 18.613C14.2801 18.6428 13.3804 19.1373 13.1889 20.959C13.1879 20.961 13.1878 20.9629 13.1878 20.9649C13.1841 20.9904 13.1788 21.0155 13.1721 21.0403C13.1706 21.0462 13.1696 21.0518 13.1685 21.0574C13.1667 21.0667 13.1649 21.0762 13.1613 21.0871C13.1575 21.0987 13.1524 21.1096 13.1473 21.1206L13.1428 21.1305L13.1395 21.1378C13.1315 21.1589 13.1224 21.1796 13.1122 21.1998C13.1091 21.2056 13.1051 21.2109 13.1012 21.2162C13.0985 21.2199 13.0958 21.2236 13.0933 21.2274C13.0784 21.2522 13.0618 21.276 13.0436 21.2986C13.0372 21.3063 13.0297 21.3132 13.0223 21.3201L13.014 21.3278L13.0081 21.3336C12.9922 21.3509 12.9753 21.3673 12.9575 21.3827C12.9497 21.389 12.9412 21.3943 12.9326 21.3996C12.9274 21.4028 12.9221 21.406 12.9171 21.4095C12.8972 21.4242 12.8764 21.4376 12.8548 21.4498C12.8483 21.4533 12.8413 21.456 12.8342 21.4587C12.8296 21.4605 12.825 21.4623 12.8205 21.4643C12.7939 21.477 12.7664 21.4878 12.7382 21.4966C12.7376 21.4968 12.7369 21.4972 12.7363 21.4975C12.7354 21.498 12.7345 21.4985 12.7336 21.4985C10.6423 22.087 9.6182 23.4688 9.12183 24.79C9.11053 24.8447 9.09191 24.8976 9.06647 24.9473C8.77548 25.8112 8.69992 27.3001 8.67792 28.1658L8.67785 28.1952C8.82574 28.1833 8.9733 28.1672 9.12036 28.147C9.13663 28.2121 9.1529 28.2792 9.16917 28.3463C9.18544 28.4134 9.20171 28.4805 9.21798 28.5456C9.22748 28.5884 9.23976 28.6311 9.25156 28.6723C9.25998 28.7016 9.26816 28.7301 9.27493 28.7572C9.39558 29.1524 9.55076 29.5362 9.73866 29.9043C9.82001 30.067 9.9095 30.2297 10.0071 30.3924C11.3359 32.5769 13.7065 33.9117 16.2633 33.9151H16.2715C18.0827 33.9161 19.82 33.2429 21.1528 32.0416V32.288C21.1528 34.0852 22.6098 35.5422 24.407 35.5422H24.4803C24.9501 35.5422 25.3973 35.7436 25.7087 36.0954L31.6111 43.8811C31.9323 44.2403 32.3902 44.4471 32.8721 44.4506H32.8802C33.3249 44.4512 33.7515 44.2749 34.066 43.9604C34.3804 43.646 34.5568 43.2193 34.5561 42.7747L34.0384 35.4426C34.4183 35.4904 34.8011 35.5135 35.1845 35.5117C39.4378 35.5117 42.8845 32.7177 42.8845 29.2784C42.8852 28.611 42.754 27.9508 42.499 27.3356C42.7034 27.2994 42.9072 27.2519 43.1095 27.1927C44.0935 26.9045 44.9584 26.3645 45.6368 25.6508C45.206 24.5848 44.0567 24.3102 44.0036 24.2981C43.8822 24.2713 43.7763 24.1974 43.7094 24.0925C43.6425 23.9877 43.6199 23.8606 43.6467 23.7391C43.6735 23.6177 43.7475 23.5118 43.8523 23.4449C43.9571 23.378 44.0842 23.3554 44.2057 23.3822C44.2723 23.3968 45.5627 23.6931 46.2762 24.8428C46.7237 24.1585 47.0267 23.3735 47.1468 22.5322C47.4624 20.3215 46.4568 18.1303 44.5749 16.9281ZM25.2747 4.411C24.9248 4.99556 24.5889 5.89321 24.5889 6.52401C24.5889 6.91947 24.6336 7.26031 24.6706 7.54211L24.6853 7.65478L24.6862 7.66139C24.7945 8.41316 24.7992 8.44584 24.2098 8.70206C23.85 8.85629 23.4516 8.89482 23.0276 8.93336C22.0446 9.01689 20.7082 9.139 20.4897 11.2271C20.4512 11.5805 20.7082 11.8953 21.0616 11.9338C21.0712 11.9338 21.0824 11.9354 21.0937 11.937C21.1049 11.9387 21.1162 11.9403 21.1258 11.9403C21.4535 11.9403 21.7297 11.6897 21.7683 11.362C21.8708 10.3239 22.1907 10.2956 23.1294 10.2126L23.1368 10.2119C23.6251 10.1669 24.1712 10.1155 24.7174 9.87782C26.2144 9.23532 26.0795 8.29728 25.9574 7.47488L25.9459 7.38797C25.9105 7.11981 25.8739 6.84283 25.8739 6.52401C25.8739 6.20276 26.1532 5.06256 26.5709 4.88908C26.9598 4.7283 27.5079 4.49637 27.9312 3.83167C27.0224 3.8892 26.1266 4.08426 25.2747 4.411ZM44.5749 16.9281C44.4109 16.8215 44.2415 16.7237 44.0676 16.6351C44.0998 17.0455 44.1067 17.5856 44.0968 17.9443C44.0734 18.9976 42.84 19.8792 42.7036 19.9609C42.4663 20.1065 42.2057 20.2102 41.9332 20.2673C40.836 20.4882 40.5452 19.7144 40.499 19.5627C40.4931 19.541 40.4857 19.5197 40.477 19.499C39.9054 18.1401 39.1006 18.0832 38.9454 18.0861C38.8103 18.0878 38.6812 18.1418 38.585 18.2367C38.4889 18.3316 38.4333 18.4601 38.43 18.5951C38.4266 18.7301 38.4757 18.8612 38.567 18.9608C38.6582 19.0604 38.7846 19.1207 38.9194 19.1291C38.9597 19.1411 39.2307 19.2439 39.5033 19.8771C39.7013 20.5322 40.487 21.6234 42.1395 21.2908C42.5096 21.2141 42.8647 21.0773 43.1907 20.8858C43.2072 20.8763 43.2238 20.8665 43.2403 20.8566C44.167 20.301 45.1822 19.3025 45.1887 18.0016L45.1894 17.8895L45.1895 17.8883C45.1905 17.7408 45.192 17.5328 45.1908 17.3825C44.9976 17.2189 44.7922 17.0669 44.5749 16.9281ZM39.9054 10.8379C40.6591 11.4622 41.8303 12.173 42.6238 12.2746C42.7551 12.652 42.8618 13.0407 42.9421 13.4389C41.9784 13.3909 40.1734 12.6582 38.9726 11.6633C37.9597 10.8243 36.5011 11.958 36.1892 12.2004C36.1549 12.227 36.1345 12.2429 36.13 12.2442C35.9661 12.2985 35.7855 12.2936 35.6255 12.2304C35.4656 12.1673 35.3387 12.0508 35.2712 11.9051C35.2417 11.833 35.2286 11.7562 35.2328 11.6793C35.237 11.6025 35.2584 11.5272 35.2956 11.458C35.3329 11.3889 35.3852 11.3272 35.4495 11.2769C37.1692 9.73833 39.1367 10.3432 39.9054 10.8379ZM27.5126 25.9661C26.3667 26.4567 25.0916 26.558 23.8827 26.2545C21.7753 25.7571 19.6364 25.8753 18.5489 25.9906C18.3726 26.0116 18.2115 26.1011 18.1008 26.2399C17.99 26.3787 17.9383 26.5556 17.957 26.7322C17.9757 26.9088 18.0632 27.071 18.2005 27.1836C18.3379 27.2961 18.5141 27.3501 18.6909 27.3337C19.6929 27.2278 21.6597 27.1176 23.5724 27.569C24.1399 27.7043 24.7213 27.7731 25.3048 27.7742C26.2519 27.7771 27.1892 27.5823 28.0568 27.2023C29.495 26.5851 30.8079 25.7096 31.9306 24.6192C31.9512 24.6009 31.9706 24.5814 31.9887 24.5608C32.0916 24.458 32.2074 24.3451 32.3326 24.223C33.3048 23.2752 34.8372 21.7814 35.1745 20.2973C35.207 20.2148 35.223 20.1267 35.2214 20.038C35.2199 19.9493 35.2009 19.8618 35.1656 19.7804C35.1302 19.6991 35.0792 19.6255 35.0154 19.5639C34.9516 19.5022 34.8763 19.4538 34.7938 19.4212C34.7112 19.3887 34.6231 19.3728 34.5344 19.3743C34.4457 19.3758 34.3582 19.3948 34.2769 19.4302C34.1955 19.4655 34.1219 19.5165 34.0603 19.5803C33.9987 19.6441 33.9502 19.7194 33.9177 19.802C33.5063 20.8457 32.9481 21.4115 32.4786 21.8875C32.3441 22.0239 32.2166 22.1531 32.1022 22.2839C31.9522 21.0297 30.9564 20.1303 30.5123 19.7292C30.4483 19.6714 30.3958 19.6239 30.3589 19.5873C30.225 19.4672 30.0491 19.405 29.8695 19.4143C29.6899 19.4235 29.5213 19.5034 29.4004 19.6366C29.341 19.7019 29.2951 19.7784 29.2654 19.8615C29.2357 19.9447 29.2227 20.0329 29.2273 20.1211C29.2318 20.2093 29.2537 20.2958 29.2918 20.3755C29.3299 20.4551 29.3834 20.5265 29.4492 20.5854L29.4587 20.5936C29.6107 20.7239 31.4901 22.3358 30.8666 23.772C29.885 24.6932 28.7499 25.4357 27.5126 25.9661ZM4.49168 14.7652C4.76707 14.608 5.12087 14.6939 5.29168 14.9649C5.46762 15.2437 5.38483 15.6125 5.10603 15.7884C3.93588 16.5276 3.82178 17.8618 4.13826 18.8477C4.23885 19.1614 4.07082 19.4949 3.752 19.5984C3.43824 19.699 3.10212 19.5264 3.00124 19.2122C2.53652 17.7632 2.77753 15.8471 4.46817 14.7793C4.47596 14.7742 4.48362 14.7698 4.49168 14.7652ZM18.1212 31.3016C18.1131 31.3065 18.1055 31.3111 18.0971 31.3155C16.3081 32.2919 13.7856 31.7553 12.7255 30.6233C12.4956 30.3777 12.5085 29.9928 12.7536 29.7633C13.0037 29.5306 13.3841 29.5463 13.6136 29.7914C14.3348 30.5619 16.2762 30.923 17.5145 30.2472C17.8093 30.0861 18.1788 30.1952 18.3399 30.4901C18.4966 30.7765 18.3977 31.1342 18.1212 31.3016ZM23.2173 16.4468C23.9669 15.9432 24.9422 15.6093 26.1169 15.4558C27.0483 15.3424 27.9528 15.0678 28.79 14.6443C29.7946 14.1432 30.6859 13.4418 31.4091 12.5831C31.8256 12.0885 32.0286 11.7522 31.8256 11.4653C31.4091 10.8764 30.6684 11.5176 30.4912 11.8314C30.0086 12.4072 29.4327 12.8978 28.7874 13.2826C28.8678 12.8542 28.8349 12.4122 28.6918 12.0005C28.6365 11.8533 28.5249 11.734 28.3816 11.6691C28.2384 11.6041 28.0752 11.5987 27.9279 11.6541C27.7807 11.7094 27.6615 11.821 27.5965 11.9643C27.5315 12.1075 27.5261 12.2707 27.5815 12.418C27.5971 12.4596 27.9456 13.4375 26.8183 14.1177C26.5365 14.1873 26.2511 14.2411 25.9634 14.2788C24.6046 14.457 23.4587 14.8543 22.5557 15.4618C21.9392 15.875 21.4443 16.4452 21.1219 17.1136C20.9392 17.0719 20.767 16.9932 20.6157 16.8825C20.4645 16.7719 20.3375 16.6314 20.2424 16.4699C20.1686 16.331 20.0427 16.2271 19.8922 16.181C19.7418 16.135 19.5793 16.1506 19.4403 16.2244C19.3014 16.2982 19.1975 16.4242 19.1515 16.5746C19.1054 16.725 19.121 16.8876 19.1948 17.0265C19.22 17.0745 19.7194 18.0004 20.7678 18.2568C20.7139 18.5997 20.7042 18.948 20.7389 19.2933C20.9469 21.3249 22.6702 22.1256 23.5524 22.265C23.7071 22.2895 23.8651 22.2517 23.9919 22.1599C24.1187 22.068 24.2038 21.9296 24.2287 21.775C24.2537 21.6201 24.2165 21.4616 24.1252 21.3341C24.0339 21.2065 23.8958 21.1202 23.7412 21.0939C23.6735 21.0824 22.0849 20.7935 21.9192 19.1725C21.8719 18.6436 21.9674 18.1117 22.1958 17.6322C22.4241 17.1528 22.7769 16.7434 23.2173 16.4468Z" fill="#374A68"/>
</svg>
