<svg width="48" height="48" viewBox="0 0 48 48" fill="none" xmlns="http://www.w3.org/2000/svg">
<g clip-path="url(#clip0_311_8786)">
<g clip-path="url(#clip1_311_8786)">
<path d="M47.9058 15.7555C47.9058 17.0464 47.6094 18.2513 47.0357 19.3127C46.9879 19.131 46.9401 18.9494 46.8731 18.7677C46.1177 16.6831 44.1765 15.2105 41.9102 14.9236C41.3748 13.7953 39.9978 13.145 38.1139 13.145C34.203 13.145 32.2235 15.44 31.4776 20.795C31.0856 23.7115 29.4504 26.5037 28.1595 28.3301C27.5857 29.1333 27.2893 30.0896 27.2893 31.1032V40.1506C27.2893 40.6861 26.735 41.2298 26.2091 41.2298H21.7783C21.2523 41.2298 20.7008 40.6861 20.7008 40.1506V31.1032C20.7008 30.0896 20.4044 29.1333 19.8402 28.3301C18.5397 26.5037 16.9141 23.7115 16.5125 20.795C15.7762 15.44 13.7872 13.145 9.88576 13.145C8.00194 13.145 6.62495 13.7953 6.07989 14.9236C3.80403 15.2201 1.87246 16.6926 1.12657 18.7582C1.05962 18.9303 1.00225 19.112 0.964022 19.2936C0.38073 18.2322 0.093811 17.0464 0.093811 15.7555C0.093811 13.1067 1.05962 10.7257 2.81913 9.06187C4.62644 7.35022 7.12221 6.48 9.85705 6.63304C14.7817 6.90075 17.4018 9.32958 19.5151 11.2804C21.0546 12.7147 22.2786 13.8431 23.9998 13.8431C25.7115 13.8431 26.9355 12.7147 28.4846 11.2804C30.5883 9.32958 33.218 6.90075 38.1427 6.63304C38.3434 6.62346 38.5538 6.61389 38.7547 6.61389C41.2409 6.61389 43.4976 7.47447 45.171 9.06187C46.9305 10.7257 47.9058 13.1067 47.9058 15.7555Z" fill="#F26674"/>
<path d="M11.234 18.6625C11.999 19.5327 12.1902 20.575 11.7886 21.6842C11.1384 23.4724 9.05381 25.0885 7.00744 25.0885C6.59626 25.0885 6.18509 25.0215 5.78343 24.8781C4.65507 24.4669 3.73712 23.6923 3.19205 22.6787C2.62785 21.6364 2.53224 20.4794 2.92428 19.418C3.69883 17.2664 6.26155 16.2145 8.61392 17.0656C9.80922 17.4959 10.6699 18.0218 11.234 18.6625ZM44.798 22.6787C44.253 23.6923 43.335 24.4669 42.2162 24.8781C41.8146 25.0215 41.4034 25.0885 40.9826 25.0885C38.9363 25.0885 36.8612 23.4724 36.211 21.6842C35.8094 20.575 36.0007 19.5327 36.7656 18.6625C37.3298 18.0218 38.1809 17.4959 39.3762 17.0656C41.7381 16.2049 44.2912 17.2664 45.0754 19.418C45.4578 20.4794 45.3622 21.6364 44.798 22.6787Z" fill="#C4455E"/>
</g>
</g>
<defs>
<clipPath id="clip0_311_8786">
<rect width="47.9999" height="48" fill="white"/>
</clipPath>
<clipPath id="clip1_311_8786">
<rect width="47.9999" height="35.0768" fill="white" transform="translate(-0.00012207 6.59998)"/>
</clipPath>
</defs>
</svg>
