<svg width="48" height="48" viewBox="0 0 48 48" fill="none" xmlns="http://www.w3.org/2000/svg">
<g clip-path="url(#clip0_383_267)">
<path d="M23.9999 13.5002C27.3136 13.5002 29.9999 10.8139 29.9999 7.50023C29.9999 4.18653 27.3136 1.50024 23.9999 1.50024C20.6862 1.50024 17.9999 4.18653 17.9999 7.50023C17.9999 10.8139 20.6862 13.5002 23.9999 13.5002Z" fill="#374A68"/>
<path d="M24.7499 8.25024H23.2499C21.5932 8.25024 20.2499 9.59349 20.2499 11.2502V12.1802C21.2774 13.0045 22.5802 13.5002 23.9999 13.5002C25.4197 13.5002 26.7224 13.0045 27.7499 12.1802V11.2502C27.7499 9.59349 26.4067 8.25024 24.7499 8.25024Z" fill="#374A68"/>
<path d="M23.9999 8.25023C25.2426 8.25023 26.2499 7.24287 26.2499 6.00024C26.2499 4.7576 25.2426 3.75024 23.9999 3.75024C22.7573 3.75024 21.7499 4.7576 21.7499 6.00024C21.7499 7.24287 22.7573 8.25023 23.9999 8.25023Z" fill="#374A68"/>
<path d="M40.4999 30.0001C43.8136 30.0001 46.4999 27.3139 46.4999 24.0002C46.4999 20.6865 43.8136 18.0002 40.4999 18.0002C37.1862 18.0002 34.4999 20.6865 34.4999 24.0002C34.4999 27.3139 37.1862 30.0001 40.4999 30.0001Z" fill="#374A68"/>
<path d="M41.2499 24.7502H39.7499C38.0931 24.7502 36.7499 26.0934 36.7499 27.7502V28.6802C37.7774 29.5044 39.0801 30.0002 40.4999 30.0002C41.9196 30.0002 43.2224 29.5044 44.2499 28.6802V27.7502C44.2499 26.0934 42.9066 24.7502 41.2499 24.7502Z" fill="#374A68"/>
<path d="M40.4999 24.7502C41.7425 24.7502 42.7499 23.7428 42.7499 22.5002C42.7499 21.2575 41.7425 20.2502 40.4999 20.2502C39.2572 20.2502 38.2499 21.2575 38.2499 22.5002C38.2499 23.7428 39.2572 24.7502 40.4999 24.7502Z" fill="#374A68"/>
<path d="M7.49997 30.0001C10.8137 30.0001 13.5 27.3139 13.5 24.0002C13.5 20.6865 10.8137 18.0002 7.49997 18.0002C4.18628 18.0002 1.49999 20.6865 1.49999 24.0002C1.49999 27.3139 4.18628 30.0001 7.49997 30.0001Z" fill="#374A68"/>
<path d="M8.24997 24.7502H6.74998C5.09323 24.7502 3.74998 26.0934 3.74998 27.7502V28.6802C4.77748 29.5044 6.08023 30.0002 7.49997 30.0002C8.91972 30.0002 10.2225 29.5044 11.25 28.6802V27.7502C11.25 26.0934 9.90672 24.7502 8.24997 24.7502Z" fill="#374A68"/>
<path d="M7.49998 24.7502C8.74261 24.7502 9.74997 23.7428 9.74997 22.5002C9.74997 21.2575 8.74261 20.2502 7.49998 20.2502C6.25734 20.2502 5.24998 21.2575 5.24998 22.5002C5.24998 23.7428 6.25734 24.7502 7.49998 24.7502Z" fill="#374A68"/>
<path d="M23.9999 37.5001C26.071 37.5001 27.7499 35.8212 27.7499 33.7501C27.7499 31.679 26.071 30.0001 23.9999 30.0001C21.9289 30.0001 20.2499 31.679 20.2499 33.7501C20.2499 35.8212 21.9289 37.5001 23.9999 37.5001Z" fill="#374A68"/>
<path d="M25.1624 38.1001H22.5749C19.717 38.1001 17.3999 40.4028 17.3999 43.2429V44.8372C19.1724 46.2502 21.4196 47.1001 23.8687 47.1001C26.3177 47.1001 28.565 46.2502 30.3374 44.8372V43.2429C30.3374 40.4028 28.0203 38.1001 25.1624 38.1001Z" fill="#374A68"/>
<path d="M29.78 14.4697L28.7193 15.5304L33.2193 20.0302L34.2799 18.9695L29.78 14.4697Z" fill="#374A68"/>
<path d="M18.2192 14.4702L13.7195 18.9701L14.7802 20.0307L19.2799 15.5308L18.2192 14.4702Z" fill="#374A68"/>
<path d="M14.78 27.2197L13.7194 28.2803L18.2193 32.7801L19.2799 31.7194L14.78 27.2197Z" fill="#374A68"/>
<path d="M33.2193 27.2202L28.7195 31.7202L29.7802 32.7808L34.2799 28.2809L33.2193 27.2202Z" fill="#374A68"/>
</g>
<defs>
<clipPath id="clip0_383_267">
<rect width="47.9999" height="48" fill="white" transform="translate(0 0.000244141)"/>
</clipPath>
</defs>
</svg>
