<svg width="48" height="48" viewBox="0 0 48 48" fill="none" xmlns="http://www.w3.org/2000/svg">
<path d="M35.8193 8.34421C38.4304 6.47957 43.0023 6.67821 45 7.06267V25.645C45 26.1576 44.2604 28.1311 41.3022 31.9245C37.6044 36.6662 31.7389 38.8449 30.3363 39.3575C28.9337 39.8701 27.6586 39.7419 25.1084 42.0487C22.5582 44.3555 18.9879 44.8681 18.0953 44.2273C17.2028 43.5865 16.3102 42.4332 15.5451 41.2798C14.7801 40.1264 11.4648 36.9225 8.91459 33.5905C6.36439 30.2585 4.96177 22.9537 4.57924 21.544C3.94169 18.9467 2.7431 13.2419 3.04912 11.2017C3.43165 8.65153 4.83426 6.73887 5.3443 6.10132C5.85434 5.46377 9.14969 3.29528 9.91475 3.04026C10.6798 2.78524 12.3374 3.80532 12.975 4.31536C13.6126 4.8254 15.6349 7.27183 15.6349 8.34421C15.6349 9.41659 15.6349 10.0541 14.9973 10.8192C14.3598 11.5843 13.7222 11.8393 13.0847 12.3493C12.4471 12.8594 11.7033 12.8296 10.6832 14.1111C10.7682 14.1539 10.662 15.3927 10.662 15.3927C11.7246 17.016 11.0058 20.647 12.2299 22.1848C13.454 23.7227 17.2453 26.9265 18.9879 28.3362C19.5404 27.1828 20.4288 24.4254 23.3233 21.544C27.2251 17.6599 30.4638 17.4431 30.9739 17.0587C31.4839 16.6742 30.9739 11.8044 35.8193 8.34421Z" fill="#374A68"/>
</svg>
