<svg width="48" height="48" viewBox="0 0 48 48" fill="none" xmlns="http://www.w3.org/2000/svg">
<g clip-path="url(#clip0_311_8783)">
<path d="M24.0192 3.36256C23.3599 3.36114 22.7228 3.60056 22.2275 4.03581C21.7323 4.47106 21.4131 5.07218 21.3299 5.72621C21.2466 6.38024 21.4051 7.04216 21.7756 7.58757C22.146 8.13298 22.7028 8.52434 23.3415 8.6881V10.8175C23.3415 10.9972 23.4129 11.1696 23.54 11.2967C23.6671 11.4238 23.8395 11.4952 24.0192 11.4952C24.1989 11.4952 24.3713 11.4238 24.4984 11.2967C24.6255 11.1696 24.6969 10.9972 24.6969 10.8175V8.6881C25.3356 8.52434 25.8924 8.13298 26.2628 7.58757C26.6333 7.04216 26.7917 6.38024 26.7085 5.72621C26.6253 5.07218 26.3061 4.47106 25.8108 4.03581C25.3156 3.60056 24.6785 3.36114 24.0192 3.36256V3.36256ZM24.6969 40.0558V37.9264C24.6969 37.7467 24.6255 37.5743 24.4984 37.4472C24.3713 37.3201 24.1989 37.2487 24.0192 37.2487C23.8395 37.2487 23.6671 37.3201 23.54 37.4472C23.4129 37.5743 23.3415 37.7467 23.3415 37.9264V40.0558C22.7026 40.2208 22.1458 40.6131 21.7755 41.1592C21.4052 41.7053 21.2468 42.3677 21.3299 43.0222C21.4131 43.6768 21.7321 44.2785 22.2271 44.7147C22.7222 45.1509 23.3594 45.3915 24.0192 45.3915C24.679 45.3915 25.3162 45.1509 25.8113 44.7147C26.3063 44.2785 26.6253 43.6768 26.7085 43.0222C26.7916 42.3677 26.6332 41.7053 26.2629 41.1592C25.8926 40.6131 25.3358 40.2208 24.6969 40.0558V40.0558ZM42.3177 21.6611C41.7184 21.6629 41.1365 21.8635 40.6634 22.2314C40.1902 22.5993 39.8525 23.1138 39.7031 23.6942H37.5737C37.3939 23.6942 37.2215 23.7656 37.0944 23.8927C36.9673 24.0198 36.8959 24.1922 36.8959 24.372C36.8959 24.5517 36.9673 24.7241 37.0944 24.8512C37.2215 24.9783 37.3939 25.0497 37.5737 25.0497H39.7031C39.8306 25.5395 40.093 25.9837 40.4604 26.3319C40.8277 26.68 41.2853 26.9182 41.7813 27.0194C42.2772 27.1205 42.7916 27.0806 43.2659 26.9041C43.7403 26.7276 44.1557 26.4216 44.4649 26.0209C44.7741 25.6201 44.9647 25.1407 45.0151 24.6371C45.0655 24.1335 44.9737 23.6258 44.7501 23.1718C44.5265 22.7177 44.18 22.3354 43.7501 22.0684C43.3201 21.8014 42.8239 21.6602 42.3177 21.6611V21.6611ZM10.4647 25.0497C10.6445 25.0497 10.8169 24.9783 10.944 24.8512C11.0711 24.7241 11.1425 24.5517 11.1425 24.372C11.1425 24.1922 11.0711 24.0198 10.944 23.8927C10.8169 23.7656 10.6445 23.6942 10.4647 23.6942H8.33533C8.17038 23.0554 7.77809 22.4986 7.232 22.1283C6.6859 21.758 6.0235 21.5995 5.36894 21.6827C4.71439 21.7658 4.11262 22.0848 3.67645 22.5799C3.24027 23.075 2.99963 23.7121 2.99963 24.372C2.99963 25.0318 3.24027 25.6689 3.67645 26.164C4.11262 26.6591 4.71439 26.9781 5.36894 27.0612C6.0235 27.1444 6.6859 26.9859 7.232 26.6156C7.77809 26.2453 8.17038 25.6885 8.33533 25.0497H10.4647ZM35.5942 34.9886L34.0828 33.4772C34.0199 33.4143 33.9452 33.3644 33.8629 33.3303C33.7807 33.2963 33.6926 33.2787 33.6036 33.2787C33.5146 33.2787 33.4265 33.2963 33.3443 33.3303C33.2621 33.3644 33.1874 33.4143 33.1244 33.4772C33.0615 33.5401 33.0116 33.6148 32.9775 33.6971C32.9435 33.7793 32.926 33.8674 32.926 33.9564C32.926 34.0454 32.9435 34.1335 32.9775 34.2157C33.0116 34.2979 33.0615 34.3726 33.1244 34.4355L34.63 35.9411C34.3844 36.3512 34.2523 36.8193 34.2474 37.2974C34.2424 37.7754 34.3646 38.2461 34.6016 38.6613C34.8386 39.0765 35.1817 39.4212 35.5958 39.6601C36.0099 39.8989 36.4801 40.0233 36.9581 40.0205C37.4935 40.0191 38.0165 39.8593 38.4613 39.5614C38.906 39.2634 39.2527 38.8405 39.4576 38.3459C39.6626 37.8513 39.7166 37.3072 39.613 36.7819C39.5093 36.2567 39.2526 35.7739 38.8752 35.3942C38.4436 34.9845 37.8921 34.724 37.3015 34.6509C36.7109 34.5779 36.1125 34.6963 35.5942 34.9886V34.9886ZM13.4084 12.8029C13.7175 12.288 13.845 11.6843 13.7704 11.0884C13.6958 10.4925 13.4234 9.9388 12.9969 9.516C12.6817 9.20082 12.2936 8.96825 11.867 8.83888C11.4404 8.70952 10.9884 8.68736 10.5512 8.77436C10.114 8.86136 9.70501 9.05485 9.36043 9.33767C9.01585 9.6205 8.74634 9.98393 8.57577 10.3958C8.40519 10.8077 8.33882 11.2552 8.38253 11.6989C8.42623 12.1425 8.57867 12.5685 8.82634 12.9392C9.07401 13.3098 9.40927 13.6137 9.80241 13.8238C10.1956 14.034 10.6345 14.1439 11.0802 14.1439C11.563 14.1418 12.0362 14.0096 12.4501 13.7612L13.9556 15.2667C14.0827 15.3938 14.2551 15.4652 14.4348 15.4652C14.6145 15.4652 14.7869 15.3938 14.914 15.2667C15.041 15.1396 15.1124 14.9673 15.1124 14.7875C15.1124 14.6078 15.041 14.4355 14.914 14.3084L13.4084 12.8029ZM34.0828 15.2667L35.5883 13.7612C36.1032 14.0703 36.7069 14.1978 37.3028 14.1231C37.8987 14.0485 38.4524 13.7762 38.8752 13.3497C39.1271 13.098 39.3271 12.7992 39.4635 12.4702C39.6 12.1413 39.6702 11.7886 39.6704 11.4325C39.6705 11.0764 39.6004 10.7237 39.4642 10.3946C39.3279 10.0656 39.1282 9.76662 38.8764 9.5148C38.6245 9.26297 38.3256 9.06323 37.9965 8.927C37.6675 8.79076 37.3148 8.7207 36.9587 8.72081C36.6025 8.72092 36.2499 8.79121 35.9209 8.92765C35.592 9.06409 35.2931 9.26402 35.0415 9.516C34.6149 9.93879 34.3426 10.4924 34.268 11.0883C34.1934 11.6843 34.3208 12.288 34.63 12.8029L33.1244 14.3084C33.0615 14.3713 33.0116 14.446 32.9775 14.5282C32.9435 14.6104 32.926 14.6986 32.926 14.7875C32.926 14.8765 32.9435 14.9647 32.9775 15.0469C33.0116 15.1291 33.0615 15.2038 33.1244 15.2667C33.1874 15.3296 33.2621 15.3796 33.3443 15.4136C33.4265 15.4477 33.5146 15.4652 33.6036 15.4652C33.6926 15.4652 33.7807 15.4477 33.8629 15.4136C33.9452 15.3796 34.0199 15.3296 34.0828 15.2667V15.2667ZM13.9556 33.4772L12.4442 34.9886C11.9259 34.6963 11.3275 34.5779 10.7369 34.6509C10.1463 34.724 9.59476 34.9845 9.16323 35.3942C8.65538 35.9027 8.37022 36.5921 8.37045 37.3107C8.37068 38.0294 8.65626 38.7185 9.16444 39.2267C9.67261 39.7349 10.3618 40.0205 11.0804 40.0207C11.7991 40.0209 12.4884 39.7358 12.9969 39.2279C13.4235 38.8051 13.6958 38.2515 13.7704 37.6556C13.845 37.0597 13.7176 36.456 13.4084 35.9411L14.914 34.4355C14.9769 34.3726 15.0268 34.2979 15.0608 34.2157C15.0949 34.1335 15.1124 34.0454 15.1124 33.9564C15.1124 33.8674 15.0949 33.7793 15.0608 33.6971C15.0268 33.6148 14.9769 33.5401 14.914 33.4772C14.851 33.4143 14.7763 33.3644 14.6941 33.3303C14.6119 33.2963 14.5238 33.2787 14.4348 33.2787C14.3458 33.2787 14.2577 33.2963 14.1755 33.3303C14.0932 33.3644 14.0185 33.4143 13.9556 33.4772V33.4772Z" fill="#425B72"/>
<path d="M24.1468 37.6182C31.4977 37.6182 37.4567 31.6592 37.4567 24.3083C37.4567 16.9575 31.4977 10.9984 24.1468 10.9984C16.796 10.9984 10.8369 16.9575 10.8369 24.3083C10.8369 31.6592 16.796 37.6182 24.1468 37.6182Z" fill="#4B94E2"/>
<path d="M31.2275 26.7809C29.8883 26.7809 29.3595 25.4603 28.9346 24.399C28.7926 23.9461 28.5721 23.5217 28.2831 23.1452C28.0584 23.5463 27.8679 23.9656 27.7135 24.3986C27.2887 25.4599 26.7598 26.7809 25.4201 26.7809C24.0818 26.7809 23.5534 25.4599 23.129 24.3981C22.9875 23.9456 22.7676 23.5213 22.4793 23.1448C22.2575 23.5467 22.0685 23.9658 21.9141 24.3981C21.4897 25.4599 20.9617 26.7809 19.6234 26.7809C18.2851 26.7809 17.7571 25.4599 17.3327 24.3981C17.1912 23.9456 16.9713 23.5213 16.683 23.1448C16.5654 23.145 16.4489 23.1217 16.3404 23.0763C16.2319 23.0308 16.1335 22.9642 16.0511 22.8803C15.9687 22.7964 15.9038 22.6968 15.8603 22.5875C15.8168 22.4782 15.7956 22.3614 15.7979 22.2437C15.8029 22.0017 15.9031 21.7715 16.0768 21.6028C16.2504 21.4342 16.4835 21.3407 16.7255 21.3427C18.0638 21.3427 18.5918 22.6637 19.0162 23.7255C19.1577 24.178 19.3776 24.6023 19.6659 24.9788C19.8874 24.5768 20.0762 24.1577 20.2306 23.7255C20.655 22.6637 21.1831 21.3427 22.5213 21.3427C23.8596 21.3427 24.3881 22.6637 24.8125 23.7255C24.954 24.1781 25.1739 24.6023 25.4622 24.9788C25.6861 24.5772 25.8764 24.1577 26.0309 23.7246C26.4557 22.6633 26.9846 21.3427 28.3238 21.3427C29.6634 21.3427 30.1923 22.6637 30.6172 23.725C30.7592 24.1778 30.9797 24.602 31.2686 24.9784C31.3863 24.9782 31.5028 25.0015 31.6113 25.0469C31.7199 25.0923 31.8183 25.1589 31.9007 25.2428C31.9832 25.3267 32.0481 25.4263 32.0916 25.5356C32.1352 25.6449 32.1564 25.7618 32.1542 25.8794C32.1495 26.1214 32.0495 26.3518 31.876 26.5205C31.7025 26.6893 31.4695 26.7828 31.2275 26.7809Z" fill="white"/>
</g>
<defs>
<clipPath id="clip0_311_8783">
<rect width="42.6" height="42.6" fill="white" transform="translate(2.99963 3)"/>
</clipPath>
</defs>
</svg>
