<svg width="48" height="50" viewBox="0 0 48 50" fill="none" xmlns="http://www.w3.org/2000/svg">
<path d="M11.4527 11.6224C12.3992 8.78297 12.9 7.60001 15.6 7.3C17.5475 7.08361 18.2292 9.72951 18.3644 11.4873C18.4997 13.245 18.8123 14.6974 17.7 17.2C16.5 19.9 15.1871 21.2042 14.1 21.7C13.2 20.8 12.1177 18.978 11.4686 17.5718C10.6574 15.814 10.5062 14.4619 11.4527 11.6224Z" fill="#374A68"/>
<path d="M36.9536 12.923C35.8119 16.4606 33.6873 17.4847 31.9259 17.5657C30.1644 17.6468 28.5001 16.9243 28.5001 15.1C28.5001 12.4 29.7001 11.2 26.7 10.3C23.6999 9.39999 22.7138 7.14601 22.8 4.59999C22.8935 1.84007 26.0021 0.261278 30.4527 1.14592C33.3546 1.72274 36.1562 4.50806 36.7861 5.88228C37.416 7.25651 37.8605 10.1126 36.9536 12.923Z" fill="#374A68"/>
<path d="M18.3 35.8C17.58 31.96 15.8 25.9 15 23.2C16.44 22.72 17.7 21 18.3 19.9C19.5 21.82 23.7 24.7 26.4 25C26.4 25.3 26.1 26.2 26.4 27.4C26.7541 28.8163 27.9 30 28.5 30.4L30 47.5C29.6 47.9 28.14 48.76 25.5 49C22.86 49.24 20.6 48.5 19.8 48.1C19.6 45.6 19.02 39.64 18.3 35.8Z" fill="#374A68"/>
<path d="M20.1 13.9C20.127 11.3956 19.5 7.89999 18.9 6.99999L20.7 6.39999C20.9 7.09999 21.84 9.15999 22.8 10.6C24 12.4 24.5325 12.2163 25.5 12.7C26.1 13 26.7 13.3 26.4 14.5C26.2 15.3 25.86 17.14 27.3 18.1C28.74 19.06 29.5 19.5 29.7 19.6C27.54 20.56 26.8 22.6 26.7 23.5C23.82 22.54 20.4 20.5 19.2 18.1C19.3 17.5 20.0822 15.5568 20.1 13.9Z" fill="#374A68"/>
<path d="M28.5828 24.4428C27.8628 26.8428 28.1023 28.2474 29.7828 28.9428C32.683 30.1428 35.7828 28.0428 35.7828 23.8428C35.7828 20.117 34.5828 19.7428 33.3828 19.9428C29.983 20.5094 29.3028 22.0428 28.5828 24.4428Z" fill="#374A68"/>
</svg>
