<svg width="48" height="48" viewBox="0 0 48 48" fill="none" xmlns="http://www.w3.org/2000/svg">
<path d="M21.6958 4.39806C28.9918 8.14206 33.0238 9.58206 35.5198 10.0621C43.2958 11.5981 48.2878 20.5261 38.9758 34.3501C38.9758 34.3501 34.9438 41.4541 33.8878 47.8861H19.0078H11.9038C13.7278 43.3741 19.1038 30.3181 22.0798 26.3821C22.0798 26.3821 10.4638 26.8621 4.99176 22.9261V10.7341V0.300049C7.79972 0.299944 13.4997 1.20005 21.6958 4.39806Z" fill="#F26674"/>
<path d="M23.1357 32.1413C23.1357 36.3 20.2797 46.5413 19.7997 47.8853H28.2717C34.2237 31.9493 34.4397 33.4201 35.3997 31.5001C35.7837 30.7321 35.8801 30.1973 35.6877 29.5493C35.3188 28.3067 29.3997 26.4 28.1997 26.4C26.9997 26.4 25.7792 26.3067 24.5997 27.3C23.089 28.5724 23.1357 32.1413 23.1357 32.1413Z" fill="white"/>
<path d="M4.9918 3.91797C8.2558 4.68597 23.6398 11.022 29.2078 14.382C29.6842 14.6751 30.2166 14.6745 30.8155 14.6739C31.4145 14.6732 33.4815 14.8098 35.0997 15.3C35.0997 15.3 41.0997 17.166 41.146 20.2422C41.146 20.2422 41.296 22.2665 40.7997 23.406C40.4277 24.2601 40.0619 24.6871 39.3838 25.326C35.9534 28.558 28.2987 24.0959 28.1518 21.6C28.0558 19.968 27.7678 19.134 26.4238 18.366C24.9055 17.5225 21.1507 14.6861 16.1997 12.6L4.9918 8.09995V3.91797Z" fill="white"/>
</svg>
