<svg width="80" height="80" viewBox="0 0 80 80" fill="none" xmlns="http://www.w3.org/2000/svg">
<g clip-path="url(#clip0)">
<path d="M40.0326 5.60426C38.9338 5.6019 37.8719 6.00093 37.0465 6.72634C36.2212 7.45176 35.6891 8.45363 35.5504 9.54369C35.4117 10.6337 35.6758 11.7369 36.2932 12.6459C36.9106 13.555 37.8387 14.2072 38.9031 14.4802V18.0292C38.9031 18.3287 39.0221 18.6161 39.2339 18.8279C39.4457 19.0397 39.733 19.1587 40.0326 19.1587C40.3322 19.1587 40.6195 19.0397 40.8313 18.8279C41.0431 18.6161 41.1621 18.3287 41.1621 18.0292V14.4802C42.2266 14.2072 43.1546 13.555 43.772 12.6459C44.3894 11.7369 44.6535 10.6337 44.5148 9.54369C44.3761 8.45363 43.8441 7.45176 43.0187 6.72634C42.1933 6.00093 41.1314 5.6019 40.0326 5.60426ZM41.1621 66.7597V63.2107C41.1621 62.9111 41.0431 62.6238 40.8313 62.412C40.6195 62.2002 40.3322 62.0812 40.0326 62.0812C39.733 62.0812 39.4457 62.2002 39.2339 62.412C39.0221 62.6238 38.9031 62.9111 38.9031 63.2107V66.7597C37.8383 67.0346 36.9103 67.6884 36.2932 68.5986C35.676 69.5088 35.4119 70.6128 35.5505 71.7037C35.689 72.7946 36.2207 73.7976 37.0458 74.5245C37.871 75.2515 38.9329 75.6525 40.0326 75.6525C41.1323 75.6525 42.1942 75.2515 43.0194 74.5245C43.8445 73.7976 44.3762 72.7946 44.5147 71.7037C44.6533 70.6128 44.3892 69.5088 43.7721 68.5986C43.1549 67.6884 42.2269 67.0346 41.1621 66.7597ZM70.5301 36.1018C69.5312 36.1048 68.5615 36.4391 67.7729 37.0523C66.9843 37.6655 66.4214 38.523 66.1724 39.4904H62.6234C62.3238 39.4904 62.0365 39.6094 61.8247 39.8212C61.6128 40.0331 61.4938 40.3204 61.4938 40.6199C61.4938 40.9195 61.6128 41.2068 61.8247 41.4186C62.0365 41.6305 62.3238 41.7495 62.6234 41.7495H66.1724C66.385 42.5658 66.8223 43.3062 67.4345 43.8865C68.0468 44.4667 68.8095 44.8637 69.6361 45.0323C70.4626 45.2009 71.3199 45.1343 72.1105 44.8401C72.9011 44.5459 73.5934 44.036 74.1087 43.3681C74.6241 42.7002 74.9418 41.9012 75.0258 41.0619C75.1098 40.2225 74.9568 39.3764 74.5841 38.6196C74.2114 37.8628 73.634 37.2257 72.9174 36.7807C72.2008 36.3356 71.3737 36.1004 70.5301 36.1018ZM17.4418 41.7495C17.7414 41.7495 18.0287 41.6305 18.2405 41.4186C18.4524 41.2068 18.5714 40.9195 18.5714 40.6199C18.5714 40.3204 18.4524 40.0331 18.2405 39.8212C18.0287 39.6094 17.7414 39.4904 17.4418 39.4904H13.8928C13.6179 38.4256 12.9641 37.4977 12.0539 36.8805C11.1438 36.2633 10.0398 35.9992 8.94885 36.1378C7.85792 36.2764 6.85498 36.808 6.12803 37.6332C5.40107 38.4583 5 39.5202 5 40.6199C5 41.7196 5.40107 42.7816 6.12803 43.6067C6.85498 44.4318 7.85792 44.9635 8.94885 45.1021C10.0398 45.2406 11.1438 44.9766 12.0539 44.3594C12.9641 43.7422 13.6179 42.8142 13.8928 41.7495H17.4418ZM59.3242 58.3143L56.8053 55.7953C56.7004 55.6905 56.5759 55.6073 56.4388 55.5505C56.3018 55.4938 56.1549 55.4645 56.0066 55.4645C55.8583 55.4645 55.7115 55.4938 55.5744 55.5505C55.4374 55.6073 55.3129 55.6905 55.208 55.7953C55.1031 55.9002 55.02 56.0247 54.9632 56.1618C54.9064 56.2988 54.8772 56.4456 54.8772 56.594C54.8772 56.7423 54.9064 56.8891 54.9632 57.0262C55.02 57.1632 55.1031 57.2877 55.208 57.3926L57.7172 59.9018C57.3079 60.5854 57.0879 61.3656 57.0795 62.1623C57.0712 62.959 57.275 63.7436 57.6699 64.4356C58.0649 65.1275 58.6367 65.702 59.3269 66.1001C60.0171 66.4982 60.8008 66.7055 61.5975 66.7008C62.4898 66.6985 63.3614 66.4322 64.1027 65.9356C64.844 65.439 65.4218 64.7341 65.7633 63.9098C66.1049 63.0855 66.195 62.1786 66.0223 61.3032C65.8495 60.4278 65.4216 59.6231 64.7925 58.9904C64.0733 58.3075 63.154 57.8733 62.1697 57.7516C61.1855 57.6299 60.1881 57.8271 59.3242 58.3143ZM22.348 21.3381C22.8632 20.4799 23.0756 19.4738 22.9512 18.4806C22.8269 17.4874 22.373 16.5647 21.6622 15.86C21.1367 15.3347 20.4899 14.9471 19.7789 14.7315C19.0679 14.5159 18.3147 14.4789 17.586 14.6239C16.8573 14.7689 16.1756 15.0914 15.6013 15.5628C15.027 16.0342 14.5778 16.6399 14.2936 17.3263C14.0093 18.0128 13.8986 18.7587 13.9715 19.4981C14.0443 20.2375 14.2984 20.9475 14.7112 21.5653C15.124 22.183 15.6827 22.6894 16.338 23.0397C16.9932 23.3899 17.7247 23.5732 18.4677 23.5732C19.2722 23.5697 20.0609 23.3493 20.7508 22.9353L23.26 25.4445C23.4718 25.6563 23.759 25.7753 24.0586 25.7753C24.3581 25.7753 24.6454 25.6563 24.8572 25.4445C25.069 25.2327 25.188 24.9454 25.188 24.6459C25.188 24.3464 25.069 24.0591 24.8572 23.8473L22.348 21.3381ZM56.8053 25.4445L59.3145 22.9353C60.1726 23.4505 61.1788 23.6629 62.172 23.5386C63.1651 23.4142 64.0879 22.9603 64.7925 22.2495C65.2125 21.8301 65.5457 21.332 65.7731 20.7837C66.0005 20.2354 66.1177 19.6477 66.1179 19.0542C66.118 18.4606 66.0013 17.8728 65.7742 17.3244C65.5471 16.776 65.2143 16.2777 64.7945 15.858C64.3748 15.4383 63.8765 15.1054 63.3281 14.8783C62.7797 14.6513 62.1919 14.5345 61.5984 14.5347C61.0048 14.5349 60.4171 14.652 59.8688 14.8794C59.3206 15.1068 58.8225 15.44 58.403 15.86C57.6922 16.5647 57.2382 17.4874 57.1139 18.4806C56.9896 19.4738 57.202 20.4799 57.7172 21.3381L55.208 23.8473C55.1031 23.9522 55.02 24.0767 54.9632 24.2137C54.9064 24.3507 54.8772 24.4976 54.8772 24.6459C54.8772 24.7942 54.9064 24.9411 54.9632 25.0781C55.02 25.2151 55.1031 25.3397 55.208 25.4445C55.3129 25.5494 55.4374 25.6326 55.5744 25.6894C55.7115 25.7461 55.8583 25.7753 56.0066 25.7753C56.1549 25.7753 56.3018 25.7461 56.4388 25.6894C56.5759 25.6326 56.7004 25.5494 56.8053 25.4445ZM23.26 55.7953L20.741 58.3143C19.8771 57.8271 18.8797 57.6299 17.8955 57.7516C16.9112 57.8733 15.9919 58.3075 15.2727 58.9904C14.4262 59.8379 13.951 60.9868 13.9514 62.1845C13.9517 63.3823 14.4277 64.5309 15.2747 65.3779C16.1216 66.2248 17.2702 66.7008 18.468 66.7012C19.6658 66.7016 20.8147 66.2263 21.6622 65.3799C22.373 64.6752 22.827 63.7525 22.9513 62.7593C23.0756 61.7661 22.8632 60.7599 22.348 59.9018L24.8572 57.3926C24.9621 57.2877 25.0453 57.1632 25.102 57.0262C25.1588 56.8891 25.188 56.7423 25.188 56.594C25.188 56.4456 25.1588 56.2988 25.102 56.1618C25.0453 56.0247 24.9621 55.9002 24.8572 55.7953C24.7523 55.6905 24.6278 55.6073 24.4908 55.5505C24.3538 55.4938 24.2069 55.4645 24.0586 55.4645C23.9103 55.4645 23.7634 55.4938 23.6264 55.5505C23.4893 55.6073 23.3648 55.6905 23.26 55.7953Z" fill="#425B72"/>
<path d="M40.2454 62.6969C52.4969 62.6969 62.4286 52.7652 62.4286 40.5137C62.4286 28.2623 52.4969 18.3306 40.2454 18.3306C27.994 18.3306 18.0623 28.2623 18.0623 40.5137C18.0623 52.7652 27.994 62.6969 40.2454 62.6969Z" fill="#4B94E2"/>
<path d="M52.0463 44.6348C49.8143 44.6348 48.9329 42.4339 48.2248 40.665C47.9883 39.9102 47.6207 39.2028 47.139 38.5754C46.7645 39.2438 46.447 39.9426 46.1897 40.6643C45.4816 42.4331 44.6002 44.6348 42.3674 44.6348C40.1369 44.6348 39.2562 42.4331 38.5488 40.6635C38.313 39.9092 37.9465 39.2022 37.466 38.5746C37.0963 39.2445 36.7813 39.943 36.5241 40.6635C35.8167 42.4331 34.9368 44.6348 32.7062 44.6348C30.4757 44.6348 29.5957 42.4331 28.8884 40.6635C28.6525 39.9092 28.286 39.2022 27.8056 38.5746C27.6095 38.5749 27.4154 38.5361 27.2345 38.4604C27.0537 38.3847 26.8897 38.2736 26.7524 38.1338C26.615 37.9939 26.5069 37.828 26.4344 37.6459C26.3619 37.4637 26.3266 37.2689 26.3304 37.0729C26.3388 36.6695 26.5057 36.2857 26.7951 36.0047C27.0845 35.7236 27.473 35.5678 27.8764 35.5711C30.1069 35.5711 30.9869 37.7729 31.6942 39.5424C31.9301 40.2967 32.2966 41.0037 32.7771 41.6313C33.1461 40.9613 33.4608 40.2627 33.7182 39.5424C34.4256 37.7729 35.3056 35.5711 37.5361 35.5711C39.7666 35.5711 40.6473 37.7729 41.3547 39.5424C41.5906 40.2967 41.9571 41.0037 42.4375 41.6313C42.8108 40.9619 43.1278 40.2627 43.3853 39.5409C44.0934 37.7721 44.9749 35.5711 47.2069 35.5711C49.4396 35.5711 50.3211 37.7729 51.0292 39.5416C51.2658 40.2962 51.6334 41.0033 52.1149 41.6305C52.311 41.6302 52.5052 41.6691 52.6861 41.7448C52.867 41.8204 53.031 41.9315 53.1684 42.0713C53.3059 42.2112 53.4141 42.3771 53.4866 42.5592C53.5591 42.7414 53.5946 42.9363 53.5909 43.1323C53.583 43.5356 53.4164 43.9195 53.1272 44.2008C52.8381 44.4821 52.4497 44.638 52.0463 44.6348Z" fill="white"/>
</g>
<defs>
<clipPath id="clip0">
<rect width="79.9998" height="80" fill="white"/>
</clipPath>
</defs>
</svg>
