<svg width="48" height="48" viewBox="0 0 48 48" fill="none" xmlns="http://www.w3.org/2000/svg">
<g clip-path="url(#clip0_3466_28756)">
<g clip-path="url(#clip1_3466_28756)">
<path d="M47.906 15.7556C47.906 17.0465 47.6095 18.2514 47.0358 19.3128C46.988 19.1311 46.9402 18.9494 46.8733 18.7677C46.1178 16.6831 44.1767 15.2105 41.9104 14.9237C41.3749 13.7953 39.9979 13.1451 38.1141 13.1451C34.2031 13.1451 32.2236 15.44 31.4778 20.795C31.0857 23.7115 29.4505 26.5037 28.1596 28.3301C27.5858 29.1334 27.2894 30.0896 27.2894 31.1033V40.1506C27.2894 40.6861 26.7352 41.2299 26.2092 41.2299H21.7784C21.2524 41.2299 20.701 40.6861 20.701 40.1506V31.1033C20.701 30.0896 20.4045 29.1334 19.8403 28.3301C18.5398 26.5037 16.9142 23.7115 16.5126 20.795C15.7763 15.44 13.7873 13.1451 9.88589 13.1451C8.00206 13.1451 6.62507 13.7953 6.08001 14.9237C3.80415 15.2201 1.87258 16.6927 1.12669 18.7582C1.05975 18.9303 1.00237 19.112 0.964145 19.2937C0.380852 18.2322 0.0939331 17.0465 0.0939331 15.7556C0.0939331 13.1068 1.05975 10.7258 2.81925 9.06193C4.62656 7.35028 7.12234 6.48007 9.85717 6.6331C14.7818 6.90081 17.4019 9.32964 19.5152 11.2804C21.0548 12.7148 22.2787 13.8431 23.9999 13.8431C25.7117 13.8431 26.9356 12.7148 28.4847 11.2804C30.5885 9.32964 33.2181 6.90081 38.1428 6.6331C38.3436 6.62352 38.554 6.61395 38.7548 6.61395C41.241 6.61395 43.4977 7.47454 45.1711 9.06193C46.9306 10.7258 47.906 13.1068 47.906 15.7556Z" fill="#374A68"/>
<path d="M11.2341 18.6625C11.9991 19.5327 12.1904 20.575 11.7888 21.6842C11.1385 23.4724 9.05393 25.0885 7.00756 25.0885C6.59639 25.0885 6.18521 25.0215 5.78355 24.8781C4.65519 24.4669 3.73724 23.6923 3.19217 22.6787C2.62797 21.6364 2.53237 20.4794 2.9244 19.418C3.69895 17.2664 6.26167 16.2145 8.61404 17.0656C9.80934 17.4959 10.67 18.0218 11.2341 18.6625ZM44.7981 22.6787C44.2531 23.6923 43.3351 24.4669 42.2163 24.8781C41.8147 25.0215 41.4035 25.0885 40.9828 25.0885C38.9364 25.0885 36.8614 23.4724 36.2111 21.6842C35.8095 20.575 36.0008 19.5327 36.7658 18.6625C37.3299 18.0218 38.181 17.4959 39.3763 17.0656C41.7382 16.2049 44.2914 17.2664 45.0755 19.418C45.458 20.4794 45.3623 21.6364 44.7981 22.6787Z" fill="#374A68"/>
</g>
</g>
<defs>
<clipPath id="clip0_3466_28756">
<rect width="47.9999" height="48" fill="white"/>
</clipPath>
<clipPath id="clip1_3466_28756">
<rect width="47.9999" height="35.0768" fill="white" transform="translate(0 6.59998)"/>
</clipPath>
</defs>
</svg>
