<svg width="48" height="48" viewBox="0 0 48 48" fill="none" xmlns="http://www.w3.org/2000/svg">
<path d="M18.3284 20.3151C19.7767 16.0619 19.0869 13.1897 18.5852 11.8373C15.4291 3.32813 21.0722 1.12474 21.0722 1.12474C21.0722 1.12474 22.8038 0.0947972 25.4069 0.00626422C27.4074 -0.0617726 29.0134 0.428039 30.4 1.29867C32.3267 2.50839 33.4773 4.01835 33.6552 6.44709C33.7018 7.08324 33.5844 7.48471 33.4775 7.85044C33.3488 8.29058 33.2352 8.67896 33.4408 9.3623C33.7061 10.2438 34.0788 10.8228 34.3363 11.2228L34.3364 11.2229C34.4443 11.3906 34.5321 11.5269 34.5832 11.6409C34.9735 12.5673 33.1885 12.5715 33.1885 12.5715C33.0049 13.0699 33.3523 13.3777 33.3523 13.3777C33.3523 13.3777 33.7279 13.5445 33.5094 14.1C33.4565 14.2345 32.9668 14.5942 32.8494 15C32.7778 15.2477 32.8459 15.6573 32.8459 15.6573C32.9116 15.9824 32.987 16.356 32.4608 16.8942C31.9039 17.4356 31.0819 17.3521 30.3536 17.2781C29.6511 17.2067 29.0359 17.1441 28.83 17.66C28.5199 18.4366 29.5372 20.0964 29.5372 20.0964C29.5372 20.0964 31.7962 21.4306 33.6956 22.5029C33.8379 22.536 33.9801 22.5551 34.1224 22.5551C37.0281 23.0822 39.6696 23.2152 41.2545 25.5871C42.5753 27.1684 43.3677 29.8038 43.1036 32.4392C43.0756 32.6905 43.0506 32.9063 43.0288 33.0938L43.0288 33.0943C42.9449 33.8173 42.9099 34.1196 42.9416 34.4147C42.9645 34.6267 43.0218 34.835 43.1202 35.1929L43.1202 35.1929C43.1845 35.4268 43.2664 35.7245 43.3677 36.1287C43.6319 36.6558 43.896 37.4464 43.896 37.71L44.6885 43.5079C44.885 44.6844 45.0815 45.1314 45.3869 45.8259L45.3869 45.8259C45.4919 46.0649 45.6099 46.3331 45.7451 46.6704C45.8906 47.1058 46.0093 47.5501 46.1096 48H37.7276C37.6532 47.5395 37.6048 47.1049 37.5564 46.6704C37.4903 46.0774 37.4243 45.4844 37.2922 44.8256C37.1602 44.4303 37.0281 43.9033 36.896 43.3763L36.896 43.3762C36.7639 42.8491 36.6318 42.322 36.4998 41.9266C36.3677 42.1902 36.3017 42.5196 36.2356 42.849C36.1696 43.1785 36.1035 43.5079 35.9715 43.7714C35.5537 44.883 35.3561 46.4342 35.3402 48H12.1686C12.1386 46.5033 11.9405 44.9693 11.5403 43.7714C11.5403 43.2444 11.2761 42.4537 11.012 41.9266C10.8799 42.3219 10.7478 42.849 10.6158 43.3761L10.6158 43.3761L10.6157 43.3764C10.4836 43.9034 10.3516 44.4304 10.2195 44.8256C10.0765 45.539 10.0109 46.0979 9.93895 46.7114C9.89323 47.101 9.84491 47.5127 9.77254 48H2.05476C2.15604 47.5556 2.27633 47.113 2.42422 46.6704C2.58002 46.2818 2.71287 46.0078 2.82949 45.7672L2.82977 45.7666C3.10838 45.1921 3.29467 44.8079 3.48082 43.5079L4.27327 37.71C4.27327 37.4465 4.40533 37.1829 4.53739 36.9194L4.53743 36.9194C4.6695 36.6558 4.80157 36.3923 4.80157 36.1287C5.16606 34.6742 5.15335 34.474 5.11043 33.7974C5.09113 33.4933 5.06573 33.093 5.06573 32.4392C5.06573 30.0673 5.85819 27.1684 6.91479 25.5871C8.49971 22.9517 11.1412 23.0822 14.0469 22.5551C14.5752 22.5551 15.1035 22.2915 15.6318 22.028L15.6879 22.0166C17.0309 21.1592 18.3284 20.3151 18.3284 20.3151Z" fill="#374A68"/>
<path d="M32.6359 44.1023C32.1512 43.9309 32.0734 43.5284 31.0883 43.0661C29.9967 42.5561 29.2372 42.1456 28.4255 41.9185C27.5428 41.6754 26.7468 41.1573 26.2267 40.4002C25.6829 39.6111 25.3688 39.4732 25.4188 38.0968C25.4689 36.7204 26.0143 35.4 26.2267 33C26.439 30.6 26.7557 28.991 26.2671 27.118C26.1804 26.7833 26.2119 26.2294 26.3341 25.9026C26.5193 25.4124 26.9173 24.9422 27.7606 25.1375C29.6363 25.5678 35.0436 30.9038 33.9678 43.2216C33.9087 43.8831 33.2585 44.3254 32.6359 44.1023Z" fill="white"/>
<path d="M13.8769 44.1023C14.3616 43.9309 14.4394 43.5284 15.4245 43.0661C16.5161 42.5561 17.2756 42.1456 18.0873 41.9185C18.97 41.6754 19.766 41.1573 20.2862 40.4002C20.83 39.6111 21.144 39.4732 21.094 38.0968C21.044 36.7204 20.4985 35.4 20.2862 33C20.0738 30.6 19.7571 28.991 20.2457 27.118C20.3324 26.7833 20.3009 26.2294 20.1787 25.9026C19.9935 25.4124 19.5955 24.9422 18.7522 25.1375C16.8765 25.5678 11.4692 30.9038 12.545 43.2216C12.6041 43.8831 13.2543 44.3254 13.8769 44.1023Z" fill="white"/>
<path fill-rule="evenodd" clip-rule="evenodd" d="M33.4112 9.99121C33.6376 10.533 33.8911 10.9269 34.0817 11.2228L34.0817 11.2229C34.1897 11.3906 34.2774 11.5269 34.3285 11.6409C34.7189 12.5673 32.9338 12.5715 32.9338 12.5715C32.7503 13.0699 33.0977 13.3777 33.0977 13.3777C33.0977 13.3777 33.4732 13.5445 33.2548 14.1C33.2365 14.1465 33.1658 14.22 33.0764 14.3131C32.9075 14.489 32.6715 14.7346 32.5948 15C32.5733 15.0742 32.5644 15.163 32.5624 15.2509C32.4052 15.1752 32.237 15.0911 32.055 15.0001L32.0548 15C31.8197 14.8825 31.6422 14.7764 31.4857 14.683C30.8436 14.2995 30.5566 14.128 28.1014 14.2431C25.048 14.3861 24.2548 18.517 24.2548 18.517V28.7088L26.7288 31.6677V34.5001L23.3548 30.0001L19.4548 35.4001L19.1548 32.7001L22.4548 28.7088L22.4548 15.3001C22.5436 14.0379 23.9548 9.31154 27.1151 8.65397C29.3494 8.18908 31.861 9.05564 33.4112 9.99121Z" fill="white"/>
<path d="M23.3973 42.7397C27.3448 42.7397 31.6511 45.9667 31.6511 45.9667C31.6511 45.9667 32.1894 46.2894 32.0099 46.6928C31.8305 47.0962 31.2922 46.7735 31.2922 46.7735C31.2922 46.7735 26.531 45.16 23.3973 45.16C19.8087 45.16 15.5023 46.7735 15.5023 46.7735C15.5023 46.7735 14.9828 46.9156 14.7846 46.6928C14.5864 46.47 15.1435 45.9667 15.1435 45.9667C15.1435 45.9667 19.4498 42.7398 23.3973 42.7397Z" fill="white"/>
</svg>
