<svg width="48" height="48" viewBox="0 0 48 48" fill="none" xmlns="http://www.w3.org/2000/svg">
<path d="M32.9185 40.6702C38.1391 40.6702 42.3713 36.4381 42.3713 31.2175C42.3713 25.9968 38.1391 21.7647 32.9185 21.7647C27.6979 21.7647 23.4657 25.9968 23.4657 31.2175C23.4657 36.4381 27.6979 40.6702 32.9185 40.6702Z" fill="#374A68"/>
<path d="M38.2627 33.5047C37.3215 33.5047 36.9498 32.5195 36.6512 31.7278C36.5515 31.3899 36.3965 31.0733 36.1934 30.7924C36.0355 31.0916 35.9016 31.4044 35.7931 31.7274C35.4945 32.5192 35.1228 33.5047 34.1813 33.5047C33.2408 33.5047 32.8694 32.5192 32.5711 31.7271C32.4717 31.3894 32.3171 31.073 32.1145 30.7921C31.9587 31.0919 31.8258 31.4046 31.7174 31.7271C31.4191 32.5192 31.048 33.5047 30.1075 33.5047C29.1669 33.5047 28.7959 32.5192 28.4976 31.7271C28.3981 31.3894 28.2436 31.073 28.041 30.7921C27.9583 30.7922 27.8765 30.7748 27.8002 30.7409C27.7239 30.707 27.6548 30.6573 27.5969 30.5947C27.539 30.5321 27.4934 30.4579 27.4628 30.3763C27.4323 30.2948 27.4173 30.2076 27.4189 30.1198C27.4225 29.9393 27.4929 29.7675 27.6149 29.6417C27.7369 29.5159 27.9007 29.4461 28.0709 29.4476C29.0114 29.4476 29.3825 30.4332 29.6807 31.2252C29.7802 31.5629 29.9347 31.8794 30.1373 32.1603C30.293 31.8604 30.4257 31.5477 30.5342 31.2252C30.8325 30.4332 31.2036 29.4476 32.1441 29.4476C33.0846 29.4476 33.456 30.4332 33.7543 31.2252C33.8537 31.5629 34.0083 31.8794 34.2109 32.1603C34.3683 31.8607 34.502 31.5477 34.6106 31.2246C34.9091 30.4328 35.2808 29.4476 36.222 29.4476C37.1635 29.4476 37.5352 30.4332 37.8337 31.2249C37.9335 31.5627 38.0885 31.8792 38.2916 32.1599C38.3743 32.1598 38.4562 32.1772 38.5324 32.2111C38.6087 32.245 38.6779 32.2946 38.7358 32.3573C38.7938 32.4199 38.8394 32.4941 38.87 32.5757C38.9006 32.6572 38.9155 32.7444 38.914 32.8322C38.9106 33.0127 38.8404 33.1845 38.7184 33.3105C38.5965 33.4364 38.4327 33.5062 38.2627 33.5047Z" fill="white"/>
<path d="M35.7245 9.41073L33.9731 8.24978C33.4411 7.96034 32.888 7.71544 32.3407 7.51885C31.8468 7.34307 31.3591 7.18851 30.8507 7.06508L28.8889 6.66919C27.6016 6.49399 26.2779 6.45627 24.9582 6.56159L23.0982 6.78325C21.6207 7.0367 20.1466 7.46014 18.7026 8.05727L17.034 8.79341C15.8932 9.35719 14.7636 10.0311 13.6658 10.7974C13.2704 11.0692 12.8949 11.3505 12.5261 11.6395L11.1513 12.8023C9.35742 14.4168 7.95019 16.1925 6.93695 18.0964L6.15718 19.7608C5.59112 21.1625 5.24535 22.6417 5.10126 24.1213L5.0357 26.0389C5.08013 27.5034 5.23698 29.5546 5.6998 30.9404C6.17259 32.4637 7.0077 36 9.89981 38.4C11.2007 39.4795 14.0197 42.0463 18.8998 41.1C19.7998 40.9255 20.9522 40.1013 21.2956 39.3C21.8564 37.9912 21.418 36.7809 21.2956 36.4198C20.081 33.6115 19.8796 30.3562 20.9737 27.2419C22.2596 23.5814 25.0638 20.8882 28.4315 19.6208C30.099 18.9932 31.9046 18.7152 33.7325 18.8423C34.919 18.782 35.5732 18.821 36.4915 18.3802C37.4097 17.9394 38.1011 17.1175 38.2689 16.2623C39.25 13.6498 36.9815 10.606 35.7245 9.41073Z" fill="#374A68"/>
</svg>
