<svg width="48" height="48" viewBox="0 0 48 48" fill="none" xmlns="http://www.w3.org/2000/svg">
<g clip-path="url(#clip0_311_8803)">
<path d="M28.5295 48.0001H18.3791V43.5302C18.3791 42.5524 17.5875 41.7608 16.6097 41.7608H13.1176C11.2085 41.7608 9.67201 40.2243 9.67201 38.3153V33.6125C9.67201 32.9606 7.75858 32.726 7.19984 32.4001L5.57987 31.7913C4.83488 31.4188 4.60208 30.4876 4.97457 29.7426L9.15983 24.4864C9.4392 24.0208 9.53232 23.462 9.4392 22.9033C9.0667 20.4355 8.41484 12.5666 15.4922 7.11886C21.4056 2.5558 29.6936 2.46268 35.8863 6.65324C35.9794 6.6998 36.0725 6.79292 36.1657 6.83949C41.9393 10.9835 44.1277 18.5265 41.66 25.2314C40.9615 27.1404 39.9837 29.3754 38.7266 31.4707C37.19 34.0781 36.4916 37.1512 36.771 40.1777L37.4694 48.0001H28.5295Z" fill="#F26674"/>
</g>
<defs>
<clipPath id="clip0_311_8803">
<rect width="48" height="48" fill="white"/>
</clipPath>
</defs>
</svg>
