<svg width="111" height="28" viewBox="0 0 111 28" fill="none" xmlns="http://www.w3.org/2000/svg">
<path d="M30.506 0.408813H1.04163V4.93683H29.0352V4.94092C29.8455 4.94092 30.4925 5.59077 30.4925 6.39756V21.6028L30.4888 21.6156C30.4839 22.4189 29.8303 23.0644 29.0286 23.0644H7.02953C6.22414 23.0644 5.565 22.4137 5.565 21.6026V15.46C5.565 14.6532 6.22414 13.9983 7.02953 13.9983H25.9562V9.47629H5.55634C3.06286 9.47629 1.0415 11.494 1.0415 13.9857V23.0771C1.0415 25.5706 3.06286 27.5912 5.55634 27.5912H30.5059C33.0016 27.5912 35.02 25.5706 35.02 23.0771V4.92438C35.02 2.43122 33.0016 0.408913 30.5059 0.408913" fill="#9CA8B3"/>
<path d="M47.2833 14.5183H50.3477L48.8297 9.97046H48.7877L47.2833 14.5183ZM51.747 6.828L55.2769 17.3868C55.6958 18.675 55.9924 18.9731 56.728 18.9731H57.4457V20.8319H49.7381V18.9731H50.3702C51.0038 18.9731 51.5308 18.8889 51.5308 18.6593C51.5308 18.4423 51.5097 18.2103 51.4249 17.8927L50.9842 16.3756H46.6752L46.4177 17.2208C46.1872 17.9581 46.1017 18.2711 46.1017 18.5677C46.1017 18.9085 46.8433 18.9731 47.4177 18.9731H48.025V20.8319H41.8159V18.9731H42.5351C43.2745 18.9731 43.5651 18.675 43.9938 17.3868L47.5206 6.828H51.747Z" fill="#9CA8B3"/>
<path d="M62.1804 15.8854C62.1804 18.0436 62.6646 19.3297 63.8462 19.3297C65.0353 19.3297 65.5158 18.0436 65.5158 15.8854C65.5158 13.733 65.0353 12.4455 63.8462 12.4455C62.6646 12.4455 62.1804 13.733 62.1804 15.8854ZM58.6708 9.42695C58.6708 8.83021 58.5236 8.51709 57.9111 8.51709H56.9404V6.828H62.1804V12.0845C62.9603 11.1971 63.9551 10.6273 64.9009 10.6273C68.0705 10.6273 69.2513 13.1032 69.2513 15.8854C69.2513 18.675 68.0705 21.1449 64.9009 21.1449C63.5707 21.1449 62.3867 20.681 61.6503 19.5189L61.04 20.8334H58.6708V9.42695Z" fill="#9CA8B3"/>
<path d="M74.029 15.8854C74.029 18.0436 74.5192 19.3297 75.6993 19.3297C76.8832 19.3297 77.3666 18.0436 77.3666 15.8854C77.3666 13.733 76.8831 12.4455 75.6993 12.4455C74.5192 12.4455 74.029 13.733 74.029 15.8854ZM70.5209 9.42695C70.5209 8.83021 70.3721 8.51709 69.7657 8.51709H68.792V6.828H74.029V12.0845C74.8128 11.1971 75.8037 10.6273 76.7541 10.6273C79.9236 10.6273 81.1075 13.1032 81.1075 15.8854C81.1075 18.675 79.9236 21.1449 76.7541 21.1449C75.4238 21.1449 74.2399 20.681 73.5019 19.5189L72.8871 20.8334H70.5209V9.42695Z" fill="#9CA8B3"/>
<path d="M85.8596 15.8861C85.8596 18.3777 86.3025 19.4557 87.5705 19.4557C88.8362 19.4557 89.2784 18.3777 89.2784 15.8861C89.2784 13.3944 88.8362 12.3179 87.5705 12.3179C86.3025 12.3179 85.8596 13.3944 85.8596 15.8861ZM93.0199 15.8861C93.0199 19.2673 90.716 21.1449 87.5705 21.1449C84.4182 21.1449 82.1196 19.2673 82.1196 15.8861C82.1196 12.5071 84.4183 10.6273 87.5705 10.6273C90.716 10.6273 93.0199 12.5071 93.0199 15.8861Z" fill="#9CA8B3"/>
<path d="M108.08 16.0571V17.7042C108.08 18.6749 107.87 19.2492 107.067 19.2492C106.582 19.2492 106.352 18.8874 106.352 18.4422V12.6347H108.945V10.9441H106.352V7.02075H104.257C104.085 8.77072 103.538 10.944 101.426 10.944H98.1323V7.02075H96.0431C95.8726 8.77072 95.3224 10.944 93.2129 10.944V12.6346H94.6272V17.9354C94.6272 20.0906 95.8306 21.1447 98.0024 21.1447C100.543 21.1447 101.55 20.0073 101.55 17.9354V16.057H99.8663V17.7041C99.8663 18.6748 99.6531 19.2491 98.8529 19.2491C98.3627 19.2491 98.1322 18.8873 98.1322 18.4421V12.6346H102.848V17.9354C102.848 20.0906 104.046 21.1447 106.223 21.1447C108.756 21.1447 109.773 20.0073 109.773 17.9354V16.057H108.08V16.0571Z" fill="#9CA8B3"/>
</svg>
