<svg width="152" height="26" viewBox="0 0 152 26" fill="none" xmlns="http://www.w3.org/2000/svg">
<g clip-path="url(#clip0)">
<path d="M33.5704 22.1429C33.6051 23.4837 33.8304 23.93 34.1676 24.0496C34.4579 24.1407 34.7613 24.1829 35.0654 24.1744C35.25 24.1744 35.3575 24.2108 35.3575 24.3131C35.3575 24.4482 35.2024 24.4864 34.9623 24.4864C33.8408 24.4864 33.1544 24.4327 32.832 24.4327C32.6778 24.4327 31.87 24.4864 30.9808 24.4864C30.7529 24.4864 30.5986 24.4699 30.5986 24.3131C30.5986 24.2099 30.7061 24.1744 30.8734 24.1744C31.1336 24.1775 31.3933 24.1484 31.6464 24.0877C32.0971 23.9499 32.1621 23.4568 32.1794 21.9609L32.3346 11.7949C32.3346 11.4586 32.3857 11.2134 32.5625 11.2134C32.7393 11.2134 32.8979 11.437 33.1934 11.7438C33.3954 11.9717 36.0066 14.7667 38.5148 17.2532C39.683 18.4258 41.9936 20.8932 42.29 21.1705H42.3714L42.2042 13.4658C42.1868 12.412 42.0308 12.0896 41.62 11.9154C41.3233 11.8362 41.016 11.8034 40.7092 11.8183C40.5072 11.8183 40.4344 11.762 40.4344 11.6614C40.4344 11.5193 40.6234 11.5072 40.8808 11.5072C41.7786 11.5072 42.5985 11.5583 42.9608 11.5583C43.1497 11.5583 43.8023 11.5072 44.6447 11.5072C44.8631 11.5072 45.0399 11.5202 45.0399 11.6614C45.0399 11.762 44.9324 11.8183 44.7305 11.8183C44.5573 11.8118 44.3839 11.8278 44.2148 11.866C43.7295 12.0029 43.5917 12.3617 43.5787 13.3246L43.3854 24.1579C43.3854 24.5366 43.3161 24.6909 43.167 24.6909C42.9781 24.6909 42.7762 24.5037 42.5829 24.3165C41.5004 23.2861 39.3017 21.037 37.5233 19.2664C35.6461 17.4144 33.7394 15.2694 33.4387 14.9409H33.3832L33.5722 22.1507L33.5704 22.1429Z" fill="#9CA8B3"/>
<path d="M62.0376 18.3114C62.0376 14.4694 59.8259 12.0861 57.0109 12.0861C55.0349 12.0861 52.7894 13.185 52.7894 17.4595C52.7894 21.0275 54.7602 23.8581 58.0501 23.8581C59.2565 23.8581 62.0367 23.2826 62.0367 18.3114H62.0376ZM50.4199 17.989C50.4199 15.0597 52.3578 11.2654 57.511 11.2654C61.7802 11.2654 64.4391 13.7536 64.4391 17.6839C64.5128 19.5842 63.7854 21.4281 62.4341 22.7661C61.0828 24.1042 59.2319 24.8136 57.3325 24.7213C55.4999 24.8285 53.7066 24.1602 52.3912 22.8798C51.0758 21.5993 50.3594 19.8247 50.4173 17.9899L50.4199 17.989Z" fill="#9CA8B3"/>
<path d="M70.0473 13.1859C69.6573 12.2456 69.3644 12.0592 68.7473 11.8781C68.5276 11.8282 68.3026 11.8057 68.0774 11.8114C67.9188 11.8114 67.8711 11.7602 67.8711 11.6554C67.8711 11.5219 68.06 11.5054 68.3218 11.5054C69.2283 11.5054 70.2076 11.5566 70.8004 11.5566C71.2338 11.5566 72.0545 11.5054 72.9177 11.5054C73.124 11.5054 73.3129 11.5375 73.3129 11.6554C73.3129 11.7732 73.2098 11.8114 73.0529 11.8114C72.8226 11.7885 72.5906 11.8305 72.383 11.9327C72.268 12.0161 72.2046 12.1533 72.2157 12.295C72.2864 12.75 72.4191 13.1932 72.61 13.6123L75.5645 21.4123H75.6286C76.367 19.5247 78.6013 13.9928 79.0129 12.8618C79.0961 12.659 79.1464 12.4442 79.162 12.2256C79.1699 12.0803 79.0809 11.9472 78.9436 11.8989C78.7201 11.8361 78.4885 11.8069 78.2564 11.8122C78.103 11.8122 77.9643 11.7932 77.9643 11.6753C77.9643 11.5384 78.1151 11.502 78.4461 11.502C79.3007 11.502 80.0269 11.5531 80.2453 11.5531C80.5374 11.5531 81.3486 11.502 81.8643 11.502C82.0827 11.502 82.2205 11.534 82.2205 11.6519C82.2205 11.7698 82.1173 11.8079 81.9457 11.8079C81.6523 11.7909 81.3605 11.8628 81.1085 12.0142C80.8763 12.1641 80.6267 12.4605 80.1552 13.5577C79.4879 15.1723 79.0233 16.0996 78.1012 18.2126C76.9971 20.719 76.1937 22.5901 75.8167 23.4481C75.3695 24.4404 75.2664 24.7212 75.0263 24.7212C74.8079 24.7212 74.6996 24.4786 74.378 23.6708L70.0447 13.1842L70.0473 13.1859Z" fill="#9CA8B3"/>
<path d="M91.6735 19.1355C91.755 19.1355 91.7766 19.0879 91.755 19.0367L90.2132 14.797C90.201 14.7268 90.175 14.6427 90.1265 14.6427C90.078 14.6427 90.0494 14.7294 90.0277 14.797L88.4478 19.0194C88.4313 19.0887 88.4478 19.1355 88.5206 19.1355H91.6735ZM88.1696 20.0022C88.0872 20.0022 88.0534 20.036 88.024 20.1391L87.0914 22.5979C86.9497 22.928 86.8642 23.2795 86.8384 23.6379C86.8384 23.9473 86.9935 24.1709 87.5213 24.1709H87.7813C87.9919 24.1709 88.0413 24.2073 88.0413 24.3095C88.0413 24.4413 87.9382 24.4829 87.7484 24.4829C87.1998 24.4829 86.4605 24.4291 85.9284 24.4291C85.7438 24.4291 84.8017 24.4829 83.9021 24.4829C83.6828 24.4829 83.5806 24.4447 83.5806 24.3095C83.5806 24.2064 83.6482 24.1709 83.786 24.1709C83.9402 24.1709 84.1768 24.1509 84.319 24.1362C85.1094 24.0331 85.4309 23.4489 85.7793 22.597L90.0771 11.8105C90.2877 11.3156 90.3908 11.1284 90.559 11.1284C90.7271 11.1284 90.819 11.2801 90.9845 11.6736C91.4014 12.6165 94.1496 19.6165 95.2494 22.2269C95.8976 23.7791 96.396 24.0175 96.7574 24.0989C96.9952 24.1455 97.2369 24.1693 97.4793 24.17C97.6162 24.17 97.6977 24.1865 97.6977 24.3087C97.6977 24.4309 97.5426 24.482 96.9116 24.482C96.2928 24.482 95.0388 24.482 93.6642 24.4439C93.3548 24.4283 93.1529 24.4283 93.1529 24.3121C93.1529 24.209 93.2222 24.1735 93.3982 24.1535C93.4728 24.1245 93.5317 24.0653 93.5602 23.9905C93.5888 23.9157 93.5844 23.8323 93.5481 23.7609L92.1736 20.1209C92.1512 20.0454 92.0787 19.9961 92.0002 20.0031H88.1704L88.1696 20.0022Z" fill="#9CA8B3"/>
<path d="M104.961 17.8391C104.961 18.0263 104.995 18.0991 105.111 18.1485C105.537 18.2633 105.976 18.3181 106.416 18.3114C106.844 18.3728 107.28 18.2711 107.636 18.0263C108.368 17.3808 108.744 16.4217 108.646 15.4505C108.646 13.0117 107.034 12.3106 106.026 12.3106C105.719 12.2975 105.413 12.3193 105.111 12.3756C104.995 12.412 104.961 12.4822 104.961 12.6157V17.8382V17.8391ZM102.933 16.4801C102.933 13.8706 102.933 13.3922 102.904 12.8401C102.865 12.2603 102.731 11.9735 102.165 11.8634C101.945 11.826 101.722 11.8086 101.499 11.8114C101.301 11.8114 101.198 11.775 101.198 11.6554C101.198 11.5358 101.319 11.5055 101.58 11.5055C102.491 11.5055 103.574 11.5566 103.934 11.5566C104.514 11.5566 105.816 11.5055 106.352 11.5055C107.454 11.4273 108.554 11.6831 109.509 12.2395C110.242 12.8017 110.674 13.672 110.677 14.596C110.677 15.8613 110.145 17.0296 108.405 18.4379C109.939 20.3619 111.124 21.889 112.132 22.9515C112.623 23.5486 113.304 23.9589 114.061 24.1137C114.218 24.1478 114.378 24.1667 114.538 24.1701C114.679 24.1701 114.74 24.2281 114.74 24.3087C114.74 24.4405 114.619 24.4821 114.422 24.4821H112.784C112.151 24.5419 111.514 24.4271 110.941 24.1501C109.992 23.4843 109.195 22.6251 108.601 21.629C107.908 20.6826 107.12 19.5204 106.901 19.2587C106.822 19.1728 106.708 19.1276 106.592 19.1356L105.093 19.1079C105.012 19.1079 104.96 19.1356 104.96 19.2448V19.4805C104.96 21.0735 104.96 22.435 105.04 23.1552C105.092 23.6492 105.195 24.0314 105.71 24.0981C105.989 24.1374 106.27 24.1611 106.552 24.1692C106.694 24.1692 106.762 24.2273 106.762 24.3079C106.762 24.4266 106.642 24.4812 106.416 24.4812C105.423 24.4812 104.152 24.4301 103.894 24.4301C103.573 24.4301 102.49 24.4812 101.803 24.4812C101.58 24.4812 101.457 24.4301 101.457 24.3079C101.457 24.2273 101.521 24.1692 101.728 24.1692C101.938 24.1703 102.147 24.1464 102.351 24.0981C102.698 24.0314 102.776 23.6501 102.845 23.1552C102.932 22.4359 102.932 21.0752 102.932 19.5005V16.4801H102.933Z" fill="#9CA8B3"/>
<path d="M120.855 12.4649L118.299 12.5316C117.307 12.5654 116.894 12.6547 116.637 13.0291C116.506 13.2125 116.406 13.4155 116.34 13.6305C116.31 13.7701 116.259 13.8394 116.156 13.8394C116.031 13.8394 116 13.7527 116 13.5621C116 13.2917 116.322 11.7282 116.361 11.5861C116.409 11.3659 116.464 11.2645 116.563 11.2645C116.804 11.3553 117.052 11.4243 117.306 11.4708C117.8 11.5219 118.452 11.5575 119.02 11.5575H125.815C126.368 11.5622 126.921 11.504 127.461 11.3841C127.577 11.3841 127.599 11.4786 127.599 11.7412C127.599 12.1017 127.548 13.2917 127.548 13.7345C127.531 13.9079 127.496 14.0119 127.394 14.0119C127.256 14.0119 127.226 13.9252 127.205 13.6652L127.187 13.4763C127.154 13.0265 126.689 12.5507 125.16 12.5117L123 12.4623V19.4996C123 21.0735 123 22.435 123.086 23.1717C123.134 23.6483 123.236 24.0305 123.748 24.0973C124.04 24.1394 124.334 24.1631 124.629 24.1683C124.818 24.1683 124.899 24.2264 124.899 24.307C124.899 24.4231 124.766 24.4803 124.578 24.4803C123.451 24.4803 122.362 24.4266 121.885 24.4266C121.485 24.4266 120.407 24.4803 119.718 24.4803C119.495 24.4803 119.372 24.4266 119.372 24.307C119.372 24.2264 119.441 24.1683 119.647 24.1683C119.856 24.1689 120.063 24.1451 120.266 24.0973C120.605 24.0305 120.708 23.6492 120.765 23.1543C120.846 22.435 120.846 21.0743 120.846 19.4996V12.4623L120.855 12.4649Z" fill="#9CA8B3"/>
<path d="M134.189 16.4801C134.189 13.8706 134.189 13.3922 134.151 12.8401C134.121 12.256 133.949 11.9682 133.571 11.8781C133.37 11.8316 133.164 11.8092 132.958 11.8114C132.784 11.8114 132.679 11.775 132.679 11.638C132.679 11.5262 132.821 11.5002 133.09 11.5002C133.744 11.5002 134.824 11.5514 135.325 11.5514C135.758 11.5514 136.768 11.5002 137.42 11.5002C137.644 11.5002 137.781 11.5262 137.781 11.638C137.781 11.7706 137.673 11.8114 137.51 11.8114C137.336 11.8141 137.162 11.8315 136.99 11.8634C136.522 11.95 136.384 12.2456 136.355 12.8401C136.325 13.3913 136.325 13.8706 136.325 16.4801V19.5056C136.325 21.1714 136.325 22.5216 136.385 23.2635C136.441 23.7289 136.558 24.0366 137.078 24.1024C137.368 24.1449 137.661 24.1687 137.954 24.1735C138.143 24.1735 138.233 24.2316 138.233 24.3122C138.233 24.4283 138.091 24.4855 137.898 24.4855C136.771 24.4855 135.69 24.4318 135.222 24.4318C134.826 24.4318 133.748 24.4855 133.055 24.4855C132.831 24.4855 132.715 24.4318 132.715 24.3122C132.715 24.2316 132.784 24.1735 132.986 24.1735C133.196 24.1743 133.405 24.1504 133.61 24.1024C133.948 24.0357 134.056 23.7462 134.103 23.2462C134.189 22.5216 134.189 21.1714 134.189 19.5056V16.4801Z" fill="#9CA8B3"/>
<path d="M144.433 24.2732C144.166 24.1501 144.111 24.0678 144.111 23.6899C144.111 22.7435 144.175 21.7165 144.193 21.4366C144.214 21.1766 144.265 20.9903 144.403 20.9903C144.541 20.9903 144.57 21.1428 144.57 21.2797C144.587 21.5774 144.639 21.872 144.724 22.1577C145.026 23.2492 146.057 23.9753 147.186 23.891C147.752 23.9502 148.317 23.775 148.75 23.4063C149.184 23.0375 149.447 22.5073 149.479 21.9393C149.479 21.0951 149.225 20.2839 147.795 19.1902L147.009 18.574C145.123 17.0937 144.471 15.8917 144.471 14.5007C144.471 12.6096 146.051 11.2585 148.435 11.2585C149.206 11.2479 149.975 11.3453 150.72 11.5479C150.874 11.5783 150.96 11.6346 150.96 11.7516C150.96 11.9769 150.886 12.4753 150.886 13.8108C150.886 14.1869 150.84 14.3265 150.697 14.3265C150.581 14.3265 150.524 14.2233 150.524 14.0171C150.494 13.6046 150.339 13.2113 150.078 12.8904C149.638 12.3113 148.935 11.9945 148.209 12.0489C147.698 11.9807 147.182 12.1345 146.791 12.4713C146.401 12.8081 146.173 13.2959 146.165 13.8117C146.165 14.6021 146.565 15.2035 147.985 16.2834L148.467 16.6457C150.523 18.2386 151.28 19.3947 151.28 21.0223C151.301 22.2319 150.689 23.3645 149.665 24.0097C148.843 24.503 147.896 24.7477 146.938 24.7143C146.079 24.7467 145.223 24.5939 144.429 24.2663L144.433 24.2732Z" fill="#9CA8B3"/>
<path d="M11.5544 25.6139C2.03233 24.8902 -0.86667 19.4137 2.32873 13.2431C4.04646 9.92893 6.67073 6.35566 3.54206 3.05279C3.4554 2.94099 3.52473 2.87253 3.66253 2.93493C10.7831 5.77673 7.07633 11.5149 5.86126 13.8844C3.46406 18.5705 4.99459 24.248 11.5561 25.4761C11.6983 25.5021 11.6853 25.6303 11.5561 25.6139H11.5544Z" fill="#9CA8B3"/>
<path d="M12.8301 20.3922L14.4412 0.481445H10.666L12.6931 20.3922C12.7096 20.5231 12.8266 20.5153 12.8344 20.3922H12.8301Z" fill="#9CA8B3"/>
<path d="M17.1385 10.3727C19.488 12.2239 23.323 22.506 13.9648 25.4752C13.8105 25.5125 13.8278 25.6295 13.9648 25.6104C28.8602 23.7514 23.7399 13.0611 17.2676 10.2427C17.0865 10.1647 17.0076 10.2704 17.1385 10.3727Z" fill="#9CA8B3"/>
</g>
<defs>
<clipPath id="clip0">
<rect width="151.185" height="26" fill="white" transform="translate(0.407227)"/>
</clipPath>
</defs>
</svg>
