<svg width="127" height="38" viewBox="0 0 127 38" fill="none" xmlns="http://www.w3.org/2000/svg">
<g clip-path="url(#clip0)">
<g clip-path="url(#clip1)">
<path d="M78.8149 26.5687C78.7681 26.4477 78.6392 26.3779 78.5128 26.4066L78.4736 26.4178C78.0996 26.4976 77.8114 26.4752 77.6092 26.3405C77.3223 26.1498 77.1833 25.7184 77.1833 25.0228V18.7359C77.1833 16.28 75.6996 15.0346 72.7701 15.0346C70.1477 15.0346 68.0927 16.2588 68.0927 17.8221C68.0927 18.6262 68.5894 19.2071 69.3224 19.2944C69.8014 19.3518 70.2589 19.1373 70.59 18.792C71.2346 18.1213 71.1524 17.3222 70.3701 16.4657C70.8327 15.9883 71.6516 15.7065 72.5856 15.7065C74.1072 15.7065 74.7568 16.5966 74.7568 18.6836V20.273C74.4004 20.3815 74.0668 20.4837 73.4551 20.6258C72.2229 20.9113 70.5319 21.2916 69.2567 21.9859C68.204 22.5557 67.6694 23.4545 67.6694 24.6575C67.6694 25.9678 68.5414 27.4974 70.9982 27.4974C72.3745 27.4974 73.6067 26.8541 74.8718 25.4728C74.9818 26.9078 75.5328 27.4463 76.8699 27.4463C77.5132 27.4463 78.0275 27.298 78.6392 27.0062C78.8048 26.9265 78.8831 26.737 78.8149 26.5687ZM74.7568 24.6476C74.4585 25.0577 73.4829 26.2782 72.2671 26.2782C70.6254 26.2782 70.2804 25.1412 70.2804 24.1875C70.2804 22.6193 71.4987 21.8937 74.7568 21.0996V24.6476ZM106.241 27.551C102.76 27.551 100.135 24.8607 100.135 21.2928C100.135 17.7997 102.874 14.9573 106.241 14.9573C109.649 14.9573 112.321 17.6937 112.321 21.1893C112.321 25.1188 109.165 27.551 106.241 27.551ZM106.109 15.628C104.605 15.628 102.878 16.2663 102.878 21.2404C102.878 25.0353 104.013 26.8791 106.347 26.8791C108.58 26.8791 109.577 25.1412 109.577 21.2404C109.577 17.4643 108.442 15.628 106.109 15.628ZM52.4316 15.1817C52.4316 18.0764 51.7088 19.6697 48.0109 19.6697H46.0507V10.9256H48.0905C51.916 10.9256 52.4316 13.0773 52.4316 15.1817ZM46.0507 25.0228V20.4738H47.8263C50.4753 20.4738 52.4898 19.9215 53.8155 18.8307C55.2019 17.69 55.4926 16.2451 55.4926 15.2341C55.4926 11.0752 51.4244 10.2025 48.0109 10.2025L48.0248 10.2013H41.1029C40.9462 10.2013 40.8185 10.3285 40.8185 10.4818V10.5005V10.4955C40.8185 10.6376 40.9057 10.7648 41.0422 10.8134C41.659 11.0378 43.3335 10.7236 43.3335 12.4951V25.0203C43.3335 25.9316 42.924 26.5749 41.0523 26.7494C40.9032 26.7631 40.792 26.8828 40.792 27.0274V27.0711C40.792 27.2257 40.9184 27.3503 41.0751 27.3503H48.4709C48.6276 27.3503 48.7552 27.2257 48.7552 27.0711V27.0324C48.7552 26.8878 48.639 26.7656 48.4898 26.7532C46.4564 26.5924 46.0482 25.9715 46.0482 25.0203V20.4825L46.0507 25.0228ZM61.09 14.9511C57.8711 14.9511 55.2512 17.8259 55.2512 21.3601C55.2512 24.938 57.7068 27.5348 61.09 27.5348C63.9323 27.5348 65.3162 25.8593 66.1086 24.6002C66.1869 24.4755 66.1528 24.311 66.0315 24.2249L65.9936 24.1988C65.871 24.1127 65.7004 24.1377 65.6056 24.2549C64.5604 25.5477 63.6454 26.2956 62.0656 26.2956C60.0676 26.2956 57.933 24.938 57.933 21.1258V21.0983C57.9292 20.93 57.933 20.6994 57.9393 20.4837H66.1149C66.1376 20.4837 66.1553 20.4663 66.1566 20.4438L66.1616 20.379C66.2779 18.8169 65.8293 17.412 64.8991 16.4259C63.9904 15.4609 62.6735 14.9511 61.09 14.9511ZM57.9848 19.6809C58.254 17.0729 59.2853 15.643 60.9055 15.643C61.7156 15.643 62.3171 15.8649 62.7418 16.3211C63.3257 16.9457 63.5734 18.0764 63.4761 19.6809H57.9848ZM94.9764 19.8205H94.9739C92.7382 19.2009 91.8675 18.5751 91.8675 17.5865C91.8675 16.4608 92.7736 15.643 94.0223 15.643C95.4908 15.643 96.1202 16.3361 97.6709 18.893L97.6911 18.9267C97.6987 18.9404 97.7126 18.9478 97.7126 18.9478H97.9401C98.0968 18.9478 98.2244 18.8219 98.2244 18.6673V14.9922C98.2244 14.9698 98.2055 14.9511 98.2055 14.9511H97.9009C97.8162 14.9511 97.7353 14.9885 97.6822 15.0533L97.1868 15.6467C96.5625 15.3076 95.5451 14.9511 94.524 14.9511C91.9559 14.9511 90.1626 16.5156 90.1626 18.7571C90.1626 20.8615 91.5768 21.6494 94.0185 22.3001C96.3906 22.9409 97.2323 23.6079 97.2323 24.8458C97.2323 26.2233 95.8801 26.8417 94.9196 26.8417C93.1325 26.8417 92.378 26.1872 90.6656 23.1528L90.6454 23.1167C90.6378 23.103 90.6239 23.0942 90.6239 23.0942H90.3939C90.2372 23.0942 90.1095 23.2214 90.1095 23.3747V27.4924C90.1095 27.5161 90.1285 27.5348 90.1525 27.5348H90.4432C90.5177 27.5348 90.591 27.5049 90.6441 27.4525L91.4264 26.6809C92.3427 27.2419 93.7126 27.5348 94.6023 27.5348C95.9382 27.5348 97.0364 27.1172 97.7783 26.3281C98.4405 25.6237 98.8045 24.6264 98.8045 23.5193C98.8045 21.602 97.7669 20.5997 94.9764 19.8205ZM81.4474 25.873C81.4474 26.5076 81.2844 26.7158 80.2594 26.7793C80.1103 26.7893 79.994 26.9115 79.994 27.0586C79.994 27.2132 80.1217 27.3379 80.2784 27.3379H85.3374C85.4916 27.3379 85.6167 27.2144 85.6167 27.0636C85.6167 26.914 85.4991 26.7906 85.3475 26.7843C84.1772 26.7282 83.8739 26.5412 83.8739 25.873V18.5551C84.7067 17.1888 85.3045 16.4732 86.3156 16.2576C86.2663 16.4308 86.2347 16.6365 86.2347 16.8048C86.2347 17.6937 86.8641 18.3145 87.7651 18.3145C88.6498 18.3145 89.2691 17.6937 89.2691 16.8048C89.2691 15.9646 88.737 14.9822 87.2356 14.9822C86.0059 14.9822 84.8306 15.6779 83.8208 17.3422V15.4597C83.8208 15.2677 83.6603 15.1131 83.4657 15.1181L80.2784 15.2029C80.1229 15.2079 80.0029 15.33 80.0029 15.4821V15.522C80.0029 15.6604 80.104 15.7788 80.2392 15.7975C81.302 15.9459 81.4486 16.4446 81.4474 16.9619V25.873ZM116.438 15.1106C116.512 15.1106 116.582 15.1393 116.634 15.1904C116.691 15.2428 116.721 15.3126 116.723 15.3899L116.733 17.4768C116.733 17.4768 117.772 15.0284 121.141 15.0284H121.171C123.272 15.0284 124.476 16.3498 124.476 18.6536V25.8618C124.476 26.4964 124.64 26.7045 125.664 26.7681C125.813 26.7769 125.93 26.899 125.93 27.0474C125.93 27.2007 125.802 27.3266 125.646 27.3266H121.101C120.944 27.3266 120.816 27.2007 120.816 27.0461C120.816 26.8965 120.931 26.7744 121.075 26.7619C121.902 26.6921 122.033 26.4864 122.033 25.8618V19.3567C122.033 17.2075 121.414 16.3723 119.825 16.3723C118.751 16.3723 117.873 17.296 117.324 18.0714C117.324 18.0714 117.044 18.418 116.74 19.0713L116.773 25.8606C116.773 26.4851 116.902 26.6908 117.705 26.7606C117.849 26.7731 117.963 26.8965 117.963 27.0399C117.963 27.2007 117.835 27.3266 117.679 27.3266H113.161C113.006 27.3266 112.878 27.2007 112.878 27.0461C112.878 26.899 112.996 26.7769 113.144 26.7669C114.167 26.7033 114.33 26.4964 114.33 25.8618V16.9632C114.33 16.4446 114.184 15.9434 113.116 15.7938C112.981 15.7751 112.878 15.6554 112.878 15.517V15.4759C112.878 15.3226 113 15.2004 113.155 15.1954L116.438 15.1106Z" fill="#9CA8B3"/>
<path d="M27.6358 2.43833C35.6471 6.94125 37.5124 17.0367 31.9378 27.2518C27.0393 36.2302 16.3424 40.0649 8.3716 35.4947C0.399514 30.922 -1.15623 18.1674 2.26995 10.8283C7.24429 0.169409 18.7841 -2.53833 27.6358 2.43833Z" fill="#9CA8B3"/>
<path d="M27.4501 10.1838C29.0185 11.8356 29.5063 14.3414 29.2346 16.3971C28.9225 18.7408 27.4817 20.91 25.0868 22.3474C23.1873 23.4893 20.6913 23.9431 18.2357 23.9656C18.2155 24.3495 18.1384 25.6722 18.0992 25.8817C18.0424 26.1896 17.9324 26.3567 17.7984 26.5287C17.5343 26.869 17.0768 27.0872 16.6218 27.2156C16.2617 27.3153 15.904 27.3602 15.65 27.3602C15.6083 27.3602 15.5666 27.3565 15.5249 27.3527C15.2582 27.3228 14.9612 27.1982 14.7779 26.9974C14.5947 26.7942 14.4911 26.5399 14.467 26.2507L14.4468 25.9889C14.395 25.7645 14.1107 14.375 14.165 14.5782C14.2067 13.2131 16.4398 12.9763 17.6518 13.2169C18.8664 13.4575 18.5593 14.9136 18.5264 16.7025C18.5264 16.7025 18.4683 19.055 18.3558 21.5408C19.9027 21.4822 21.1311 21.0471 22.2799 20.4849C24.6015 19.3479 25.8299 17.6064 25.8299 15.042C25.8299 12.4776 23.2998 9.60532 18.63 9.60532C13.9603 9.60532 11.9559 10.7672 9.69492 12.6123C9.1856 13.0286 8.79256 13.4475 8.42226 13.723C8.0507 13.9985 7.06367 14.0409 6.8008 13.3952C6.48106 12.6172 7.07631 11.7496 7.42638 11.3294C7.97614 10.67 9.32968 9.34227 10.8311 8.57059C12.5511 7.68547 14.6541 6.73177 17.5823 6.65822C20.2313 6.59339 24.4145 6.80408 27.4274 10.1613L27.4501 10.1838ZM17.322 29.0407C17.0781 28.8537 16.8051 28.7253 16.5283 28.6717C16.4348 28.653 16.3375 28.643 16.2427 28.643C15.722 28.643 15.2102 28.926 14.8765 29.401C14.5985 29.7949 14.4835 30.2674 14.5568 30.7237C14.6048 31.0167 14.7148 31.2697 14.879 31.458C15.0623 31.6699 15.3429 31.8332 15.6917 31.9317C15.8926 31.9866 16.0986 32.0165 16.3046 32.0165H16.3059C16.7558 32.0165 17.1602 31.8818 17.4749 31.6325C17.8401 31.3371 18.0386 30.9194 18.0348 30.4519C18.0297 29.9096 17.7643 29.3798 17.322 29.0407Z" fill="white"/>
</g>
</g>
<defs>
<clipPath id="clip0">
<rect width="126" height="38" fill="white" transform="translate(0.407227)"/>
</clipPath>
<clipPath id="clip1">
<rect width="125.593" height="38" fill="white" transform="translate(0.407227)"/>
</clipPath>
</defs>
</svg>
