<svg width="48" height="48" viewBox="0 0 48 48" fill="none" xmlns="http://www.w3.org/2000/svg">
<g clip-path="url(#clip0_4780_14814)">
<path d="M47.812 16.1417C47.812 17.4326 47.5156 18.6374 46.9419 19.6988C46.8941 19.5172 46.8463 19.3355 46.7793 19.1538C46.0239 17.0692 44.0827 15.5966 41.8164 15.3097C41.2809 14.1814 39.904 13.5311 38.0201 13.5311C34.1091 13.5311 32.1297 15.8261 31.3838 21.1811C30.9918 24.0976 29.3566 26.8898 28.0657 28.7162C27.4919 29.5195 27.1955 30.4757 27.1955 31.4893V40.5367C27.1955 41.0722 26.6412 41.6159 26.1153 41.6159H21.6845C21.1585 41.6159 20.607 41.0722 20.607 40.5367V31.4893C20.607 30.4757 20.3106 29.5195 19.7464 28.7162C18.4459 26.8898 16.8203 24.0976 16.4187 21.1811C15.6824 15.8261 13.6934 13.5311 9.79195 13.5311C7.90813 13.5311 6.53114 14.1814 5.98607 15.3097C3.71022 15.6062 1.77865 17.0788 1.03276 19.1443C0.965812 19.3164 0.90844 19.4981 0.870211 19.6798C0.286919 18.6183 0 17.4326 0 16.1417C0 13.4929 0.965812 11.1118 2.72532 9.44797C4.53263 7.73632 7.0284 6.86611 9.76324 7.01914C14.6879 7.28686 17.308 9.71569 19.4213 11.6665C20.9608 13.1008 22.1848 14.2292 23.906 14.2292C25.6177 14.2292 26.8417 13.1008 28.3908 11.6665C30.4945 9.71569 33.1242 7.28686 38.0488 7.01914C38.2496 7.00957 38.46 7 38.6609 7C41.1471 7 43.4038 7.86058 45.0772 9.44797C46.8367 11.1118 47.812 13.4929 47.812 16.1417Z" fill="#374A68"/>
<path d="M11.1402 19.0485C11.9052 19.9187 12.0965 20.961 11.6948 22.0703C11.0446 23.8585 8.96001 25.4745 6.91364 25.4745C6.50247 25.4745 6.09129 25.4076 5.68963 25.2641C4.56127 24.8529 3.64332 24.0784 3.09826 23.0648C2.53405 22.0224 2.43845 20.8654 2.83048 19.804C3.60503 17.6525 6.16775 16.6006 8.52012 17.4516C9.71542 17.882 10.5761 18.4079 11.1402 19.0485ZM44.7042 23.0648C44.1592 24.0784 43.2412 24.8529 42.1224 25.2641C41.7208 25.4076 41.3096 25.4745 40.8888 25.4745C38.8425 25.4745 36.7674 23.8585 36.1172 22.0703C35.7156 20.961 35.9069 19.9187 36.6718 19.0485C37.236 18.4079 38.0871 17.882 39.2824 17.4516C41.6443 16.591 44.1974 17.6525 44.9816 19.804C45.364 20.8654 45.2684 22.0224 44.7042 23.0648Z" fill="#374A68"/>
</g>
<defs>
<clipPath id="clip0_4780_14814">
<rect width="47.9999" height="48" fill="white"/>
</clipPath>
</defs>
</svg>
