<svg width="48" height="50" viewBox="0 0 48 50" fill="none" xmlns="http://www.w3.org/2000/svg">
<path d="M11.4526 11.6225C12.3991 8.78305 12.8999 7.60009 15.5999 7.30008C17.5474 7.08369 18.2291 9.72959 18.3643 11.4873C18.4995 13.2451 18.8122 14.6975 17.6999 17.2001C16.4999 19.9001 15.1869 21.2043 14.0999 21.7001C13.1999 20.8001 12.1175 18.978 11.4685 17.5718C10.6573 15.8141 10.5061 14.462 11.4526 11.6225Z" fill="#425B72"/>
<path d="M36.9534 12.9231C35.8118 16.4607 33.6872 17.4848 31.9257 17.5659C30.1643 17.6469 28.4999 16.9245 28.4999 15.1001C28.4999 12.4001 29.6999 11.2001 26.6999 10.3001C23.6998 9.40012 22.7137 7.14614 22.7999 4.60012C22.8934 1.8402 26.002 0.261416 30.4526 1.14606C33.3545 1.72288 36.1561 4.50819 36.786 5.88242C37.4159 7.25664 37.8604 10.1128 36.9534 12.9231Z" fill="#4B94E2"/>
<path d="M18.2999 35.8001C17.5799 31.9601 15.7999 25.9001 14.9999 23.2001C16.4399 22.7201 17.6999 21.0001 18.2999 19.9001C19.4999 21.8201 23.6999 24.7001 26.3999 25.0001C26.3999 25.3001 26.0999 26.2001 26.3999 27.4001C26.7539 28.8164 27.8999 30.0001 28.4999 30.4001L29.9999 47.5001C29.5999 47.9001 28.1399 48.7601 25.4999 49.0001C22.8599 49.2401 20.5999 48.5001 19.7999 48.1001C19.5999 45.6001 19.0199 39.6401 18.2999 35.8001Z" fill="#889DAF"/>
<path d="M20.0999 13.9001C20.1269 11.3958 19.4999 7.90015 18.8999 7.00015L20.6999 6.40015C20.8999 7.10015 21.8399 9.16014 22.7999 10.6001C23.9999 12.4001 24.5324 12.2164 25.4999 12.7001C26.0999 13.0001 26.6999 13.3002 26.3999 14.5001C26.1999 15.3001 25.8599 17.1401 27.2999 18.1001C28.7399 19.0601 29.4999 19.5001 29.6999 19.6001C27.5399 20.5601 26.7999 22.6001 26.6999 23.5001C23.8199 22.5401 20.3999 20.5001 19.1999 18.1001C19.2999 17.5001 20.0821 15.5569 20.0999 13.9001Z" fill="#889DAF"/>
<path d="M28.5827 24.4429C27.8627 26.8429 28.1021 28.2476 29.7827 28.9429C32.6829 30.143 35.7827 28.043 35.7827 23.8429C35.7827 20.1171 34.5827 19.7429 33.3827 19.9429C29.9829 20.5096 29.3027 22.0429 28.5827 24.4429Z" fill="#425B72"/>
</svg>
