<svg width="48" height="48" viewBox="0 0 48 48" fill="none" xmlns="http://www.w3.org/2000/svg">
<path d="M34.6524 21.6825C34.6524 21.6825 34.5739 21.6039 34.6524 21.6825C34.2596 20.9755 33.5526 19.3257 33.3169 18.1473C33.0812 17.0475 32.6884 16.0262 31.9028 15.2406C31.9028 15.2406 31.9028 15.2406 31.8243 15.2406C31.5886 15.0049 31.4315 14.7692 31.4315 14.455C31.1958 13.6694 30.8816 12.0196 30.7244 10.7627C30.6459 9.19149 29.4675 8.01309 27.8177 7.77741C27.8177 7.77741 26.5608 6.8347 25.6181 6.75614L25.3824 5.10638C25.3824 5.10638 25.9323 4.24223 26.0109 3.69231C26.0109 3.69231 26.7179 3.22095 26.0109 2.43535C26.0109 2.43535 26.4822 0.235679 24.0469 0C21.6115 0.235679 22.0829 2.43535 22.0829 2.43535C21.3758 3.29951 22.0829 3.69231 22.0829 3.69231C22.1614 4.24223 22.7113 5.10638 22.7113 5.10638L22.3186 6.75614C21.4544 6.8347 20.1189 7.77741 20.1189 7.77741C18.4691 8.01309 17.2907 9.19149 17.2122 10.7627C17.1336 12.0196 16.7408 13.6694 16.5051 14.455C16.4266 14.7692 16.2695 15.0049 16.1123 15.2406C16.1123 15.2406 16.1123 15.2406 16.0338 15.2406C15.2482 16.0262 14.8554 17.126 14.6197 18.1473C14.384 19.2471 13.5984 20.8969 13.2842 21.6039C13.2842 21.6039 13.2842 21.6039 13.2842 21.6825C13.0485 21.9967 11.8701 23.725 13.2842 24.0393C13.8341 24.1964 14.1483 24.0393 14.384 23.8822C14.5411 23.725 14.6197 23.5679 14.6197 23.4108C14.6983 23.0966 14.6983 22.7823 14.6983 22.7823C14.6983 22.4681 14.7768 22.2324 14.8554 21.9967C14.9339 21.6825 15.0911 21.4468 15.3267 21.2111C17.055 19.0115 17.6835 17.5188 17.9192 16.5761C18.1549 15.7119 18.5477 14.8478 18.8619 14.0622C19.2547 13.198 19.4118 12.6481 19.4118 12.1768C19.4118 12.0196 19.6475 12.0196 19.6475 12.1768C20.4331 14.455 20.1189 17.8331 19.8046 19.5614C19.6475 20.1113 19.4904 20.7398 19.4118 21.2897C18.2334 24.5892 18.4691 29.4599 18.7834 32.2881C18.8619 33.3879 18.7834 34.4877 18.5477 35.509C17.9978 37.6301 18.1549 42.5008 18.312 44.4648C18.312 45.0933 18.2334 45.6432 17.9192 46.1931L17.5264 46.9002C16.8194 48 17.6835 48 17.6835 48H19.4904C19.8832 48 20.1974 47.6858 20.1974 47.293C20.1189 44.3862 20.4331 42.2651 20.5902 41.4795C20.6688 41.2439 20.7474 41.0082 20.8259 40.7725C21.3758 39.3584 21.533 36.6088 21.533 35.509C21.533 35.2733 21.6115 35.0376 21.6901 34.802C24.0469 28.1244 23.8897 24.7463 23.8897 24.7463H23.9683H24.1254C24.1254 24.7463 24.0469 28.1244 26.3251 34.802C26.4037 35.0376 26.4822 35.2733 26.4822 35.509C26.4822 36.5303 26.5608 39.3584 27.1893 40.7725C27.2678 41.0082 27.3464 41.2439 27.4249 41.4795C27.5821 42.2651 27.9749 44.4648 27.8177 47.293C27.8177 47.6858 28.132 48 28.5248 48H30.2531C30.2531 48 31.0387 48 30.4102 46.9002L30.0174 46.1931C29.7032 45.6432 29.6246 45.0933 29.6246 44.4648C29.7032 42.4223 29.9388 37.6301 29.3889 35.509C29.1533 34.4092 29.0747 33.3093 29.1532 32.2881C29.3889 29.4599 29.6246 24.5892 28.5248 21.2897C28.3677 20.7398 28.2105 20.1113 28.132 19.5614C27.8963 17.8331 27.5821 14.5336 28.2891 12.1768C28.3677 12.0196 28.5248 12.0982 28.5248 12.1768C28.6033 12.5696 28.7605 13.198 29.0747 14.0622C29.4675 14.8478 29.7817 15.7119 30.0174 16.5761C30.2531 17.4403 30.8816 19.0115 32.6099 21.2111C32.767 21.4468 32.9241 21.6825 33.0812 21.9967C33.1598 22.2324 33.2384 22.4681 33.2384 22.7823C33.2384 22.9394 33.3169 23.1751 33.3169 23.4108C33.3169 23.5679 33.474 23.725 33.5526 23.8822C33.7883 24.0393 34.1025 24.1964 34.6524 24.0393C36.0665 23.725 34.8881 21.9182 34.6524 21.6825Z" fill="#374A68"/>
</svg>
