<svg width="48" height="48" viewBox="0 0 48 48" fill="none" xmlns="http://www.w3.org/2000/svg">
<g clip-path="url(#clip0_383_299)">
<path d="M35.2629 15.1305C35.2629 15.1305 35.7271 4.337 24.3092 2.01082C21.6171 1.45254 18.8323 2.01082 16.6972 3.59262C12.8913 6.38403 8.06417 12.8043 11.2203 26.4822C11.963 29.7389 13.4482 32.7164 15.5833 35.2286C16.9757 36.8104 18.6466 39.2297 19.5749 42.1141C19.5749 42.1141 22.9167 50.5814 31.0857 43.1376C31.0857 43.1376 32.4781 41.1836 32.5709 38.7644C32.5709 38.7644 37.0267 35.3217 34.2418 29.5528C34.2418 29.5528 32.6637 26.017 36.284 22.5742C36.1912 22.6673 38.9761 18.7593 35.2629 15.1305Z" fill="#374A68"/>
<path d="M31.1112 32.4187C28.6332 27.7047 30.1934 25.1592 30.1934 25.1592C31.7537 21.7652 29.0921 23.3679 29.0921 23.3679C22.2088 26.9505 21.3828 25.2535 21.2911 24.3107C21.2911 24.0279 21.4746 23.745 21.8417 23.745C24.595 23.3679 27.3484 21.1995 27.3484 21.1995C35.2412 10.2631 26.9812 8.94318 26.9812 8.94318C15.6927 4.41778 14.4078 14.7885 14.4078 14.7885C11.3791 25.5363 20.6486 33.0787 20.6486 33.0787C21.7499 33.3615 21.1993 32.4187 21.1993 32.4187C12.8476 22.5194 16.794 15.1656 16.794 15.1656C20.1897 8.75463 21.4746 13.6571 21.4746 13.6571C18.9049 16.4855 19.3637 22.3308 19.3637 22.3308C20.0062 30.5331 27.3484 30.7217 27.3484 30.7217C26.0635 32.7958 28.5415 34.0214 28.5415 34.0214C31.9372 34.87 31.1112 32.4187 31.1112 32.4187Z" fill="white"/>
</g>
<defs>
<clipPath id="clip0_383_299">
<rect width="27.4235" height="44.4" fill="white" transform="translate(10.1998 1.79999)"/>
</clipPath>
</defs>
</svg>
