<svg width="48" height="48" viewBox="0 0 48 48" fill="none" xmlns="http://www.w3.org/2000/svg">
<g clip-path="url(#clip0_383_312)">
<path d="M24.0194 3.36252C23.3601 3.36111 22.723 3.60053 22.2278 4.03578C21.7326 4.47103 21.4134 5.07215 21.3301 5.72618C21.2469 6.38021 21.4054 7.04213 21.7758 7.58754C22.1462 8.13295 22.7031 8.52431 23.3417 8.68807V10.8175C23.3417 10.9972 23.4131 11.1696 23.5402 11.2967C23.6673 11.4238 23.8397 11.4952 24.0194 11.4952C24.1992 11.4952 24.3716 11.4238 24.4987 11.2967C24.6258 11.1696 24.6972 10.9972 24.6972 10.8175V8.68807C25.3358 8.52431 25.8927 8.13295 26.2631 7.58754C26.6335 7.04213 26.792 6.38021 26.7088 5.72618C26.6255 5.07215 26.3063 4.47103 25.8111 4.03578C25.3159 3.60053 24.6787 3.36111 24.0194 3.36252V3.36252ZM24.6972 40.0558V37.9264C24.6972 37.7466 24.6258 37.5743 24.4987 37.4472C24.3716 37.3201 24.1992 37.2487 24.0194 37.2487C23.8397 37.2487 23.6673 37.3201 23.5402 37.4472C23.4131 37.5743 23.3417 37.7466 23.3417 37.9264V40.0558C22.7029 40.2207 22.1461 40.613 21.7758 41.1591C21.4055 41.7052 21.247 42.3676 21.3302 43.0222C21.4133 43.6767 21.7323 44.2785 22.2274 44.7147C22.7225 45.1508 23.3596 45.3915 24.0194 45.3915C24.6793 45.3915 25.3164 45.1508 25.8115 44.7147C26.3066 44.2785 26.6256 43.6767 26.7087 43.0222C26.7919 42.3676 26.6334 41.7052 26.2631 41.1591C25.8928 40.613 25.336 40.2207 24.6972 40.0558V40.0558ZM42.318 21.661C41.7186 21.6629 41.1368 21.8634 40.6636 22.2314C40.1905 22.5993 39.8527 23.1138 39.7033 23.6942H37.5739C37.3942 23.6942 37.2218 23.7656 37.0947 23.8927C36.9676 24.0198 36.8962 24.1922 36.8962 24.3719C36.8962 24.5517 36.9676 24.7241 37.0947 24.8512C37.2218 24.9783 37.3942 25.0497 37.5739 25.0497H39.7033C39.8309 25.5395 40.0932 25.9837 40.4606 26.3318C40.828 26.68 41.2856 26.9182 41.7815 27.0193C42.2775 27.1205 42.7918 27.0805 43.2662 26.904C43.7406 26.7275 44.1559 26.4215 44.4651 26.0208C44.7743 25.6201 44.9649 25.1407 45.0154 24.6371C45.0658 24.1335 44.974 23.6258 44.7503 23.1717C44.5267 22.7177 44.1803 22.3354 43.7503 22.0684C43.3203 21.8013 42.8241 21.6602 42.318 21.661V21.661ZM10.465 25.0497C10.6447 25.0497 10.8171 24.9783 10.9442 24.8512C11.0713 24.7241 11.1427 24.5517 11.1427 24.3719C11.1427 24.1922 11.0713 24.0198 10.9442 23.8927C10.8171 23.7656 10.6447 23.6942 10.465 23.6942H8.33558C8.17063 23.0553 7.77834 22.4986 7.23224 22.1283C6.68615 21.7579 6.02374 21.5995 5.36919 21.6826C4.71463 21.7658 4.11287 22.0848 3.67669 22.5799C3.24052 23.075 2.99988 23.7121 2.99988 24.3719C2.99988 25.0317 3.24052 25.6689 3.67669 26.164C4.11287 26.6591 4.71463 26.9781 5.36919 27.0612C6.02374 27.1444 6.68615 26.9859 7.23224 26.6156C7.77834 26.2453 8.17063 25.6885 8.33558 25.0497H10.465ZM35.5944 34.9886L34.083 33.4772C34.0201 33.4142 33.9454 33.3643 33.8632 33.3303C33.781 33.2962 33.6928 33.2787 33.6039 33.2787C33.5149 33.2787 33.4268 33.2962 33.3445 33.3303C33.2623 33.3643 33.1876 33.4142 33.1247 33.4772C33.0618 33.5401 33.0118 33.6148 32.9778 33.697C32.9437 33.7792 32.9262 33.8674 32.9262 33.9563C32.9262 34.0453 32.9437 34.1335 32.9778 34.2157C33.0118 34.2979 33.0618 34.3726 33.1247 34.4355L34.6302 35.941C34.3846 36.3512 34.2526 36.8193 34.2476 37.2973C34.2426 37.7754 34.3649 38.2461 34.6018 38.6613C34.8388 39.0765 35.1819 39.4212 35.596 39.66C36.0102 39.8989 36.4803 40.0233 36.9584 40.0204C37.4938 40.019 38.0167 39.8593 38.4615 39.5613C38.9063 39.2633 39.2529 38.8404 39.4579 38.3459C39.6628 37.8513 39.7169 37.3071 39.6132 36.7819C39.5096 36.2567 39.2529 35.7738 38.8754 35.3942C38.4439 34.9844 37.8923 34.7239 37.3017 34.6509C36.7112 34.5779 36.1127 34.6963 35.5944 34.9886V34.9886ZM13.4087 12.8028C13.7178 12.2879 13.8452 11.6842 13.7706 11.0883C13.696 10.4924 13.4237 9.93877 12.9972 9.51597C12.6819 9.20079 12.2938 8.96822 11.8672 8.83885C11.4406 8.70949 10.9887 8.68733 10.5515 8.77433C10.1143 8.86133 9.70525 9.05482 9.36068 9.33764C9.0161 9.62047 8.74659 9.9839 8.57601 10.3958C8.40544 10.8076 8.33906 11.2552 8.38277 11.6988C8.42648 12.1425 8.57892 12.5685 8.82659 12.9391C9.07426 13.3098 9.40951 13.6136 9.80266 13.8238C10.1958 14.0339 10.6347 14.1439 11.0805 14.1439C11.5632 14.1418 12.0364 14.0096 12.4503 13.7612L13.9559 15.2667C14.0829 15.3938 14.2553 15.4652 14.435 15.4652C14.6147 15.4652 14.7871 15.3938 14.9142 15.2667C15.0413 15.1396 15.1127 14.9672 15.1127 14.7875C15.1127 14.6078 15.0413 14.4354 14.9142 14.3083L13.4087 12.8028ZM34.083 15.2667L35.5886 13.7612C36.1034 14.0703 36.7072 14.1977 37.3031 14.1231C37.899 14.0485 38.4526 13.7762 38.8754 13.3497C39.1274 13.098 39.3273 12.7992 39.4638 12.4702C39.6002 12.1412 39.6705 11.7886 39.6706 11.4325C39.6707 11.0763 39.6006 10.7237 39.4644 10.3946C39.3282 10.0656 39.1284 9.76659 38.8766 9.51477C38.6248 9.26294 38.3258 9.0632 37.9968 8.92697C37.6677 8.79073 37.315 8.72067 36.9589 8.72078C36.6028 8.72089 36.2501 8.79118 35.9212 8.92762C35.5922 9.06406 35.2934 9.26399 35.0417 9.51597C34.6152 9.93876 34.3428 10.4924 34.2682 11.0883C34.1936 11.6842 34.3211 12.2879 34.6302 12.8028L33.1247 14.3083C33.0618 14.3713 33.0118 14.446 32.9778 14.5282C32.9437 14.6104 32.9262 14.6985 32.9262 14.7875C32.9262 14.8765 32.9437 14.9646 32.9778 15.0468C33.0118 15.1291 33.0618 15.2038 33.1247 15.2667C33.1876 15.3296 33.2623 15.3795 33.3445 15.4136C33.4268 15.4476 33.5149 15.4652 33.6039 15.4652C33.6928 15.4652 33.781 15.4476 33.8632 15.4136C33.9454 15.3795 34.0201 15.3296 34.083 15.2667V15.2667ZM13.9559 33.4772L12.4445 34.9886C11.9261 34.6963 11.3277 34.5779 10.7372 34.6509C10.1466 34.7239 9.595 34.9844 9.16348 35.3942C8.65562 35.9027 8.37047 36.592 8.37069 37.3107C8.37092 38.0294 8.65651 38.7185 9.16468 39.2267C9.67285 39.7349 10.362 40.0204 11.0807 40.0207C11.7993 40.0209 12.4887 39.7357 12.9972 39.2279C13.4237 38.8051 13.6961 38.2514 13.7707 37.6555C13.8453 37.0596 13.7178 36.4559 13.4087 35.941L14.9142 34.4355C14.9771 34.3726 15.027 34.2979 15.0611 34.2157C15.0951 34.1335 15.1127 34.0453 15.1127 33.9563C15.1127 33.8674 15.0951 33.7792 15.0611 33.697C15.027 33.6148 14.9771 33.5401 14.9142 33.4772C14.8513 33.4142 14.7766 33.3643 14.6943 33.3303C14.6121 33.2962 14.524 33.2787 14.435 33.2787C14.346 33.2787 14.2579 33.2962 14.1757 33.3303C14.0935 33.3643 14.0188 33.4142 13.9559 33.4772V33.4772Z" fill="#374A68"/>
<path d="M24.1471 37.6182C31.4979 37.6182 37.457 31.6591 37.457 24.3083C37.457 16.9574 31.4979 10.9984 24.1471 10.9984C16.7962 10.9984 10.8372 16.9574 10.8372 24.3083C10.8372 31.6591 16.7962 37.6182 24.1471 37.6182Z" fill="#374A68"/>
<path d="M31.2277 26.7809C29.8885 26.7809 29.3597 25.4603 28.9348 24.399C28.7929 23.9461 28.5724 23.5217 28.2833 23.1452C28.0586 23.5462 27.8681 23.9655 27.7138 24.3985C27.2889 25.4598 26.76 26.7809 25.4204 26.7809C24.0821 26.7809 23.5536 25.4598 23.1292 24.3981C22.9877 23.9455 22.7678 23.5213 22.4795 23.1447C22.2577 23.5466 22.0687 23.9658 21.9144 24.3981C21.49 25.4598 20.962 26.7809 19.6237 26.7809C18.2854 26.7809 17.7574 25.4598 17.333 24.3981C17.1914 23.9455 16.9715 23.5213 16.6833 23.1447C16.5656 23.1449 16.4492 23.1216 16.3406 23.0762C16.2321 23.0308 16.1338 22.9642 16.0513 22.8802C15.9689 22.7963 15.904 22.6968 15.8606 22.5875C15.8171 22.4782 15.7959 22.3613 15.7981 22.2437C15.8032 22.0017 15.9034 21.7714 16.077 21.6028C16.2506 21.4341 16.4837 21.3406 16.7258 21.3426C18.0641 21.3426 18.5921 22.6637 19.0165 23.7254C19.158 24.178 19.3779 24.6022 19.6662 24.9787C19.8876 24.5767 20.0764 24.1576 20.2308 23.7254C20.6553 22.6637 21.1833 21.3426 22.5216 21.3426C23.8599 21.3426 24.3883 22.6637 24.8127 23.7254C24.9543 24.178 25.1742 24.6022 25.4624 24.9787C25.6864 24.5771 25.8766 24.1576 26.0311 23.7245C26.456 22.6632 26.9849 21.3426 28.3241 21.3426C29.6637 21.3426 30.1926 22.6637 30.6174 23.725C30.7594 24.1777 30.9799 24.6019 31.2689 24.9783C31.3865 24.9781 31.5031 25.0014 31.6116 25.0468C31.7201 25.0922 31.8185 25.1588 31.901 25.2428C31.9835 25.3267 32.0484 25.4262 32.0919 25.5355C32.1354 25.6448 32.1567 25.7617 32.1545 25.8794C32.1497 26.1213 32.0497 26.3517 31.8763 26.5205C31.7028 26.6892 31.4698 26.7828 31.2277 26.7809Z" fill="white"/>
</g>
<defs>
<clipPath id="clip0_383_312">
<rect width="42.6" height="42.6" fill="white" transform="translate(2.99988 3)"/>
</clipPath>
</defs>
</svg>
