<svg width="647" height="52" viewBox="0 0 647 52" fill="none" xmlns="http://www.w3.org/2000/svg">
<g clip-path="url(#clip0_91_2373)">
<path d="M289.64 43.1799H288.59C288.32 43.1799 288.15 43.1099 288.05 42.9799C287.95 42.8499 287.92 42.6799 287.94 42.4899L288.15 40.1199C287.86 40.6099 287.55 41.0499 287.22 41.4399C286.89 41.8399 286.54 42.1699 286.17 42.4599C285.8 42.7499 285.41 42.9599 285 43.1099C284.58 43.2599 284.16 43.3399 283.72 43.3399C283.23 43.3399 282.79 43.2499 282.4 43.0799C282.01 42.9099 281.67 42.6499 281.4 42.3099C281.12 41.9699 280.91 41.5499 280.76 41.0599C280.61 40.5599 280.54 39.9899 280.54 39.3399C280.54 38.6899 280.63 38.0499 280.81 37.4199C280.99 36.7999 281.24 36.2099 281.56 35.6599C281.88 35.1099 282.27 34.5999 282.73 34.1399C283.19 33.6799 283.69 33.2799 284.25 32.9399C284.81 32.5999 285.41 32.3499 286.05 32.1599C286.7 31.9699 287.37 31.8799 288.07 31.8799C288.57 31.8799 289.07 31.9199 289.55 31.9899C290.03 32.0599 290.51 32.1999 290.96 32.3899L289.65 43.1799H289.64ZM284.45 41.6799C284.85 41.6799 285.23 41.5699 285.61 41.3399C285.99 41.1099 286.35 40.7999 286.69 40.3999C287.03 39.9999 287.34 39.5199 287.64 38.9699C287.93 38.4199 288.19 37.8199 288.41 37.1699L288.87 33.4199C288.7 33.3799 288.52 33.3599 288.33 33.3499C288.15 33.3399 287.97 33.3299 287.79 33.3299C287.07 33.3299 286.39 33.4799 285.75 33.7899C285.11 34.0999 284.55 34.5099 284.07 35.0299C283.59 35.5499 283.21 36.1499 282.94 36.8399C282.66 37.5199 282.52 38.2399 282.52 38.9999C282.52 40.7899 283.16 41.6799 284.45 41.6799Z" fill="white"/>
<path d="M305.9 43.1797C305.63 43.1797 305.46 43.1097 305.36 42.9797C305.26 42.8497 305.23 42.6797 305.25 42.4897L305.46 40.1197C305.17 40.6097 304.86 41.0497 304.51 41.4397C304.16 41.8297 303.81 42.1697 303.43 42.4597C303.05 42.7397 302.66 42.9597 302.25 43.1097C301.84 43.2597 301.42 43.3397 301 43.3397C300.02 43.3397 299.25 42.9897 298.7 42.2897C298.15 41.5897 297.87 40.5697 297.87 39.2297C297.87 38.6297 297.93 38.0297 298.06 37.4297C298.19 36.8297 298.37 36.2597 298.61 35.7097C298.85 35.1597 299.13 34.6597 299.47 34.1897C299.81 33.7197 300.18 33.3197 300.6 32.9797C301.02 32.6397 301.46 32.3697 301.95 32.1697C302.44 31.9697 302.94 31.8697 303.47 31.8697C304.04 31.8697 304.56 31.9797 305.03 32.1997C305.5 32.4197 305.9 32.7197 306.23 33.1197L306.99 26.9697H308.95L306.95 43.1897H305.9V43.1797ZM301.74 41.7497C302.1 41.7497 302.48 41.6397 302.85 41.4197C303.23 41.1997 303.59 40.8897 303.94 40.4997C304.29 40.1097 304.61 39.6397 304.91 39.0997C305.21 38.5597 305.47 37.9697 305.69 37.3297L306.03 34.4997C305.74 34.0997 305.39 33.8297 304.98 33.6597C304.57 33.4897 304.16 33.4097 303.74 33.4097C303.32 33.4097 302.96 33.4897 302.61 33.6497C302.26 33.8097 301.94 34.0197 301.65 34.2897C301.36 34.5597 301.1 34.8797 300.88 35.2497C300.65 35.6197 300.46 36.0097 300.31 36.4197C300.15 36.8397 300.03 37.2697 299.95 37.7097C299.87 38.1497 299.82 38.5997 299.82 39.0297C299.82 39.8997 299.99 40.5697 300.32 41.0397C300.65 41.4997 301.12 41.7397 301.73 41.7397L301.74 41.7497Z" fill="white"/>
<path d="M313.62 32.0294L312.27 43.1794H310.3L311.65 32.0294H313.62ZM314.36 28.5394C314.36 28.7294 314.32 28.9094 314.24 29.0794C314.16 29.2494 314.06 29.3994 313.93 29.5194C313.8 29.6394 313.65 29.7494 313.49 29.8294C313.33 29.9094 313.15 29.9394 312.98 29.9394C312.81 29.9394 312.64 29.8994 312.48 29.8294C312.32 29.7594 312.18 29.6494 312.05 29.5194C311.92 29.3894 311.82 29.2394 311.75 29.0794C311.68 28.9194 311.64 28.7294 311.64 28.5394C311.64 28.3494 311.68 28.1694 311.75 27.9894C311.82 27.8094 311.93 27.6594 312.05 27.5294C312.17 27.3994 312.32 27.2994 312.48 27.2194C312.64 27.1394 312.81 27.1094 312.99 27.1094C313.17 27.1094 313.34 27.1494 313.5 27.2194C313.66 27.2894 313.82 27.3994 313.94 27.5294C314.06 27.6594 314.17 27.8094 314.25 27.9794C314.33 28.1494 314.36 28.3394 314.36 28.5294V28.5394Z" fill="white"/>
<path d="M315.45 32.0293H317.07C317.22 32.0293 317.34 32.0693 317.43 32.1593C317.52 32.2493 317.57 32.3393 317.6 32.4493L319.16 39.5793C319.22 39.8593 319.27 40.1393 319.3 40.4093C319.33 40.6793 319.36 40.9493 319.37 41.2093C319.45 40.9393 319.55 40.6793 319.65 40.4093C319.75 40.1393 319.87 39.8693 320 39.5993L323.33 32.4493C323.39 32.3393 323.47 32.2393 323.58 32.1593C323.69 32.0793 323.8 32.0393 323.93 32.0393H325.49L319.95 43.1893H318.27L315.44 32.0393L315.45 32.0293Z" fill="white"/>
<path d="M329.39 32.0294L328.04 43.1794H326.07L327.42 32.0294H329.39ZM330.13 28.5394C330.13 28.7294 330.09 28.9094 330.01 29.0794C329.93 29.2494 329.83 29.3994 329.7 29.5194C329.57 29.6394 329.42 29.7494 329.26 29.8294C329.1 29.9094 328.92 29.9394 328.75 29.9394C328.58 29.9394 328.41 29.8994 328.25 29.8294C328.09 29.7594 327.95 29.6494 327.82 29.5194C327.69 29.3894 327.59 29.2394 327.52 29.0794C327.45 28.9194 327.41 28.7294 327.41 28.5394C327.41 28.3494 327.45 28.1694 327.52 27.9894C327.59 27.8094 327.7 27.6594 327.82 27.5294C327.94 27.3994 328.09 27.2994 328.25 27.2194C328.41 27.1394 328.58 27.1094 328.76 27.1094C328.94 27.1094 329.11 27.1494 329.27 27.2194C329.43 27.2894 329.59 27.3994 329.71 27.5294C329.83 27.6594 329.94 27.8094 330.02 27.9794C330.1 28.1494 330.13 28.3394 330.13 28.5294V28.5394Z" fill="white"/>
<path d="M338.78 33.8299C338.72 33.9099 338.66 33.9799 338.6 34.0199C338.54 34.0599 338.46 34.0799 338.36 34.0799C338.25 34.0799 338.14 34.0399 338.01 33.9499C337.88 33.8699 337.73 33.7799 337.54 33.6799C337.35 33.5899 337.13 33.4999 336.87 33.4099C336.61 33.3299 336.29 33.2799 335.91 33.2799C335.55 33.2799 335.23 33.3299 334.94 33.4199C334.65 33.5099 334.4 33.6399 334.19 33.7999C333.98 33.9599 333.82 34.1499 333.7 34.3599C333.58 34.5699 333.52 34.7999 333.52 35.0299C333.52 35.2899 333.59 35.5199 333.73 35.7099C333.87 35.8999 334.06 36.0799 334.29 36.2399C334.52 36.3999 334.79 36.5499 335.09 36.6799C335.39 36.8099 335.69 36.9499 336 37.0799C336.31 37.2099 336.62 37.3499 336.91 37.4999C337.21 37.6499 337.47 37.8199 337.71 37.9999C337.95 38.1799 338.13 38.3999 338.27 38.6399C338.41 38.8799 338.48 39.1599 338.48 39.4799C338.48 39.9899 338.37 40.4799 338.16 40.9499C337.95 41.4199 337.64 41.8299 337.25 42.1799C336.86 42.5299 336.38 42.8199 335.82 43.0299C335.26 43.2399 334.63 43.3499 333.94 43.3499C333.19 43.3499 332.52 43.2199 331.95 42.9699C331.38 42.7199 330.91 42.3899 330.54 41.9899L331.02 41.2399C331.15 41.0299 331.32 40.9299 331.54 40.9299C331.66 40.9299 331.78 40.9799 331.91 41.0899C332.03 41.1999 332.19 41.3099 332.38 41.4399C332.57 41.5699 332.81 41.6799 333.09 41.7799C333.37 41.8799 333.74 41.9299 334.18 41.9299C334.57 41.9299 334.92 41.8799 335.23 41.7699C335.54 41.6599 335.81 41.5199 336.02 41.3399C336.24 41.1599 336.4 40.9499 336.52 40.7099C336.63 40.4699 336.69 40.2099 336.69 39.9399C336.69 39.5599 336.57 39.2499 336.33 39.0199C336.09 38.7899 335.78 38.5799 335.41 38.4099C335.04 38.2399 334.64 38.0799 334.21 37.9299C333.78 37.7799 333.38 37.5999 333.01 37.3999C332.64 37.1999 332.34 36.9499 332.09 36.6499C331.84 36.3499 331.73 35.9599 331.73 35.4899C331.73 35.0199 331.83 34.5799 332.03 34.1399C332.23 33.6999 332.51 33.3199 332.88 32.9799C333.25 32.6399 333.7 32.3799 334.23 32.1799C334.76 31.9799 335.35 31.8799 336 31.8799C336.71 31.8799 337.34 31.9899 337.88 32.2099C338.42 32.4299 338.88 32.7299 339.27 33.1199L338.78 33.8399V33.8299Z" fill="white"/>
<path d="M343.84 32.0294L342.49 43.1794H340.52L341.87 32.0294H343.84ZM344.58 28.5394C344.58 28.7294 344.54 28.9094 344.46 29.0794C344.38 29.2494 344.28 29.3994 344.15 29.5194C344.02 29.6394 343.87 29.7494 343.71 29.8294C343.55 29.9094 343.37 29.9394 343.2 29.9394C343.03 29.9394 342.86 29.8994 342.7 29.8294C342.54 29.7594 342.4 29.6494 342.27 29.5194C342.14 29.3894 342.04 29.2394 341.97 29.0794C341.9 28.9194 341.86 28.7294 341.86 28.5394C341.86 28.3494 341.9 28.1694 341.97 27.9894C342.04 27.8094 342.15 27.6594 342.27 27.5294C342.39 27.3994 342.54 27.2994 342.7 27.2194C342.86 27.1394 343.03 27.1094 343.21 27.1094C343.39 27.1094 343.56 27.1494 343.72 27.2194C343.88 27.2894 344.04 27.3994 344.16 27.5294C344.28 27.6594 344.39 27.8094 344.47 27.9794C344.55 28.1494 344.58 28.3394 344.58 28.5294V28.5394Z" fill="white"/>
<path d="M350.01 43.3394C349.35 43.3394 348.74 43.2294 348.19 43.0194C347.64 42.8094 347.16 42.4994 346.76 42.0994C346.36 41.6994 346.05 41.2094 345.83 40.6194C345.61 40.0394 345.5 39.3794 345.5 38.6294C345.5 37.6894 345.65 36.8194 345.96 35.9994C346.27 35.1794 346.69 34.4594 347.24 33.8494C347.78 33.2394 348.43 32.7494 349.17 32.3994C349.91 32.0394 350.71 31.8594 351.57 31.8594C352.23 31.8594 352.84 31.9694 353.39 32.1794C353.94 32.3894 354.42 32.6994 354.82 33.0994C355.22 33.4994 355.53 33.9894 355.76 34.5794C355.99 35.1694 356.1 35.8294 356.1 36.5594C356.1 37.4894 355.94 38.3594 355.63 39.1794C355.32 39.9994 354.89 40.7194 354.35 41.3394C353.81 41.9594 353.16 42.4394 352.42 42.8094C351.68 43.1694 350.88 43.3494 350.02 43.3494L350.01 43.3394ZM350.18 41.7794C350.77 41.7794 351.31 41.6394 351.79 41.3494C352.27 41.0594 352.68 40.6794 353.02 40.1994C353.36 39.7194 353.62 39.1694 353.81 38.5294C354 37.8994 354.09 37.2394 354.09 36.5594C354.09 35.5194 353.86 34.7394 353.39 34.2094C352.92 33.6794 352.26 33.4194 351.41 33.4194C350.82 33.4194 350.28 33.5594 349.8 33.8494C349.32 34.1394 348.91 34.5194 348.57 34.9994C348.23 35.4794 347.97 36.0294 347.78 36.6594C347.59 37.2894 347.5 37.9394 347.5 38.6294C347.5 39.6694 347.73 40.4594 348.19 40.9894C348.65 41.5194 349.31 41.7894 350.18 41.7894V41.7794Z" fill="white"/>
<path d="M357.67 43.1794L359 32.0094H359.99C360.21 32.0094 360.38 32.0694 360.5 32.1694C360.62 32.2794 360.67 32.4494 360.65 32.6794L360.5 34.8694C361.11 33.8694 361.8 33.1194 362.58 32.6194C363.36 32.1194 364.16 31.8594 364.98 31.8594C365.47 31.8594 365.9 31.9494 366.27 32.1394C366.64 32.3294 366.94 32.5994 367.18 32.9594C367.41 33.3194 367.57 33.7594 367.66 34.2794C367.75 34.7994 367.75 35.3994 367.66 36.0694L366.83 43.1794H364.83L365.66 36.0694C365.77 35.1994 365.72 34.5494 365.49 34.1394C365.27 33.7294 364.85 33.5194 364.24 33.5194C363.88 33.5194 363.5 33.6194 363.12 33.8094C362.74 33.9994 362.37 34.2694 362.02 34.6294C361.67 34.9794 361.34 35.4094 361.03 35.8994C360.72 36.3894 360.47 36.9494 360.27 37.5694L359.64 43.1894H357.64L357.67 43.1794Z" fill="white"/>
<path d="M379.29 43.3394C378.63 43.3394 378.02 43.2294 377.47 43.0194C376.92 42.8094 376.44 42.4994 376.04 42.0994C375.64 41.6994 375.33 41.2094 375.11 40.6194C374.89 40.0394 374.78 39.3794 374.78 38.6294C374.78 37.6894 374.93 36.8194 375.24 35.9994C375.55 35.1794 375.97 34.4594 376.52 33.8494C377.06 33.2394 377.71 32.7494 378.45 32.3994C379.19 32.0394 379.99 31.8594 380.85 31.8594C381.51 31.8594 382.12 31.9694 382.67 32.1794C383.22 32.3894 383.7 32.6994 384.1 33.0994C384.5 33.4994 384.81 33.9894 385.04 34.5794C385.27 35.1694 385.38 35.8294 385.38 36.5594C385.38 37.4894 385.22 38.3594 384.91 39.1794C384.6 39.9994 384.17 40.7194 383.63 41.3394C383.09 41.9594 382.44 42.4394 381.7 42.8094C380.96 43.1694 380.16 43.3494 379.3 43.3494L379.29 43.3394ZM379.46 41.7794C380.05 41.7794 380.59 41.6394 381.07 41.3494C381.55 41.0594 381.96 40.6794 382.3 40.1994C382.64 39.7194 382.9 39.1694 383.09 38.5294C383.28 37.8994 383.37 37.2394 383.37 36.5594C383.37 35.5194 383.14 34.7394 382.67 34.2094C382.2 33.6794 381.54 33.4194 380.69 33.4194C380.1 33.4194 379.56 33.5594 379.08 33.8494C378.6 34.1394 378.19 34.5194 377.85 34.9994C377.51 35.4794 377.25 36.0294 377.06 36.6594C376.87 37.2894 376.78 37.9394 376.78 38.6294C376.78 39.6694 377.01 40.4594 377.47 40.9894C377.93 41.5194 378.59 41.7894 379.46 41.7894V41.7794Z" fill="white"/>
<path d="M390.38 33.6799L389.27 42.8199L388.71 45.0799C388.65 45.3499 388.54 45.5599 388.39 45.7099C388.23 45.8499 388.01 45.9299 387.72 45.9299H386.92L388.41 33.7099L387.21 33.5499C387.07 33.5299 386.95 33.4899 386.87 33.3999C386.79 33.3199 386.76 33.1999 386.77 33.0499L386.85 32.2399H388.57L388.71 31.1799C388.79 30.5399 388.95 29.9699 389.2 29.4699C389.45 28.9699 389.77 28.5499 390.15 28.2199C390.53 27.8799 390.97 27.6199 391.47 27.4399C391.97 27.2599 392.51 27.1699 393.08 27.1699C393.54 27.1699 393.98 27.2399 394.4 27.3899L394.22 28.4299C394.2 28.5099 394.17 28.5599 394.11 28.5899C394.05 28.6199 393.98 28.6399 393.89 28.6499C393.8 28.6499 393.7 28.6499 393.59 28.6499C393.48 28.6499 393.35 28.6499 393.21 28.6499C392.87 28.6499 392.55 28.6999 392.26 28.7899C391.97 28.8799 391.71 29.0299 391.48 29.2299C391.25 29.4299 391.07 29.6999 390.92 30.0299C390.77 30.3599 390.67 30.7599 390.61 31.2299L390.47 32.2299H393.5L393.32 33.6799H390.35H390.38Z" fill="white"/>
<path d="M255.8 14.8701H261.02V38.9301H272.37V43.1801H255.81V14.8701H255.8Z" fill="white"/>
<path d="M232.38 35.1601L229.94 43.1801H224.38L233.69 14.8701H240.29L249.5 43.1801H243.96L241.39 35.1601H232.39H232.38ZM240.47 31.2601L238.24 24.3001C237.7 22.5801 237.23 20.6401 236.81 19.0101H236.73C236.32 20.6401 235.88 22.6301 235.39 24.3001L233.2 31.2601H240.49H240.47Z" fill="white"/>
<path d="M209.87 19.1901H201.8V14.8701H223.21V19.1901H215.05V43.1801H209.87V19.1901Z" fill="white"/>
<path d="M150.58 14.8701H145.34V43.1801H150.58V14.8701Z" fill="white"/>
<path d="M181.15 41.6203C178.28 42.6303 175.26 43.1604 172.21 43.1804C167.51 43.1804 163.98 41.9904 161.35 39.4704C158.88 37.1204 157.44 33.4603 157.48 29.2603C157.48 20.4903 163.74 14.8604 172.93 14.8604C176.36 14.8604 179.03 15.5704 180.31 16.1804L179.17 20.2704C177.65 19.6004 175.78 19.0804 172.87 19.0804C166.93 19.0804 162.77 22.5804 162.77 29.0404C162.77 35.5004 166.64 39.0804 172.42 39.0804C174.23 39.0804 175.58 38.8403 176.25 38.5103V31.6104H171.34V27.6104H181.15V41.6003V41.6203Z" fill="white"/>
<path d="M195.07 14.8701H189.83V43.1801H195.07V14.8701Z" fill="white"/>
<path d="M114.6 15.4406C117.27 15.0406 119.96 14.8506 122.65 14.8706C127.83 14.8706 131.41 15.9406 133.96 18.0806C136.63 20.2606 138.27 23.6606 138.27 28.3806C138.27 33.1006 136.6 37.0106 133.96 39.3906C131.21 41.9006 126.8 43.1706 121.42 43.1706C118.47 43.1706 116.24 43.1106 114.6 42.9106V15.4306V15.4406ZM119.66 38.9806C120.59 39.0906 121.52 39.1306 122.45 39.1006C129.02 39.1406 132.93 35.5306 132.93 28.5106C132.97 22.3906 129.43 18.7906 123.1 18.7906C121.94 18.7606 120.78 18.8606 119.64 19.0706V38.9706H119.66V38.9806Z" fill="white"/>
<path d="M107.57 28.7401C107.57 37.9401 102 43.1801 94.42 43.1801C86.84 43.1801 81.8 37.2701 81.8 29.2201C81.8 21.1701 87.09 14.8701 94.83 14.8701C102.57 14.8701 107.58 20.9401 107.58 28.7401H107.57ZM87.09 29.1601C87.09 34.7301 89.9 39.1701 94.71 39.1701C99.52 39.1701 102.29 34.6901 102.29 28.9601C102.29 23.7901 99.73 18.9101 94.71 18.9101C89.69 18.9101 87.09 23.4901 87.09 29.1601Z" fill="white"/>
<path d="M75.03 14.8701H69.79V43.1801H75.03V14.8701Z" fill="white"/>
<path d="M42.14 14.8701H50.55C54.47 14.8701 57.27 15.4401 59.01 16.5701C60.75 17.7001 61.61 19.5001 61.61 21.9501C61.61 23.6201 61.18 24.9801 60.34 26.0801C59.5 27.1801 58.25 27.8601 56.65 28.1501V28.3401C58.64 28.7101 60.11 29.4401 61.04 30.5501C61.96 31.6601 62.45 33.1501 62.45 35.0301C62.45 37.5701 61.57 39.5801 59.79 41.0101C58.01 42.4401 55.55 43.1801 52.38 43.1801H42.14V14.8701ZM46.77 26.5601H51.24C53.19 26.5601 54.6 26.2501 55.48 25.6401C56.38 25.0301 56.81 23.9701 56.81 22.5101C56.81 21.1801 56.32 20.2201 55.38 19.6201C54.44 19.0301 52.88 18.7201 50.79 18.7201H46.77V26.5601ZM46.77 30.3201V39.2901H51.69C53.64 39.2901 55.09 38.9201 56.08 38.1901C57.06 37.4501 57.55 36.2701 57.55 34.6701C57.55 33.2001 57.04 32.1101 56.04 31.3901C55.04 30.6701 53.5 30.3301 51.45 30.3301H46.78L46.77 30.3201Z" fill="white"/>
<path d="M26.9 40.5802C26.9 40.9202 26.83 41.2502 26.71 41.5602C26.58 41.8702 26.39 42.1602 26.15 42.3902C25.91 42.6302 25.63 42.8202 25.32 42.9502C25.01 43.0802 24.67 43.1502 24.34 43.1502H14.19V30.4502H24.34C25.02 30.4502 25.67 30.7202 26.15 31.2002C26.63 31.6802 26.9 32.3302 26.9 33.0102V40.5802Z" fill="white"/>
<path d="M26.9 24.9205C26.9 25.2505 26.83 25.5905 26.7 25.8905C26.57 26.2005 26.38 26.4805 26.14 26.7105C25.9 26.9405 25.62 27.1305 25.31 27.2505C25 27.3705 24.67 27.4405 24.33 27.4305H14.18V14.7305H24.33C24.67 14.7305 25 14.7905 25.31 14.9205C25.62 15.0505 25.9 15.2305 26.14 15.4705C26.38 15.7105 26.57 15.9905 26.7 16.3005C26.83 16.6105 26.9 16.9405 26.9 17.2805V24.9205Z" fill="white"/>
<path d="M11.17 14.75H3.71C1.88 14.75 0.470001 16.57 0.470001 18.83V43.16H7.86C9.69 43.16 11.17 41.32 11.17 39.07V14.76V14.75Z" fill="white"/>
<mask id="mask0_91_2373" style="mask-type:luminance" maskUnits="userSpaceOnUse" x="401" y="0" width="246" height="52">
<path d="M401.93 51.1399H646.98V0.629883H401.93" fill="white"/>
</mask>
<g mask="url(#mask0_91_2373)">
<path d="M627.12 33.9795C632.5 33.9795 634.63 31.0595 634.63 28.6495C634.63 26.8195 634.29 25.8295 632.88 25.8295C629.2 25.8295 627.12 33.9795 627.12 33.9795ZM626.8 35.4795C626.8 35.4795 625.17 40.9995 629.69 40.9995C634.59 40.9995 637.15 37.5595 637.15 37.5595L638.24 38.5595C638.24 38.5595 633.36 43.6995 628.43 43.6995C624.03 43.6995 620.42 41.8295 620.42 37.9195C620.42 30.1395 626.05 24.3995 634.92 24.3995C634.92 24.3995 640.61 24.2595 640.61 27.7595C640.61 34.8595 626.79 35.4795 626.79 35.4795M528.46 28.6095C528.46 26.1995 527.29 25.7395 526.24 25.7395C521.3 25.7395 517.96 35.5495 517.96 39.2595C517.96 41.2095 518.87 42.3395 520 42.3395C525.69 42.3395 528.46 31.0195 528.46 28.6095ZM534.53 30.0695C534.53 39.6295 525.07 43.6695 519.59 43.6695C514.11 43.6695 512.01 40.7195 512.01 36.9795C512.01 29.6595 520.3 24.2495 526.37 24.2495C530.6 24.2495 534.53 25.9995 534.53 30.0795M558.42 29.0595C559.53 28.2895 561.11 27.4495 563.13 27.4495C564.96 27.4495 564.43 29.9295 564.43 29.9295L561.64 36.6595C561.64 36.6595 560.66 38.4495 560.66 40.4495C560.66 42.4495 562.22 43.3895 564.4 43.3895C566.58 43.3895 569.98 41.8695 569.98 41.8695L570.59 40.4495C570.59 40.4495 568.54 40.8695 567.47 40.9095C564.8 40.9995 566.11 39.1195 566.98 37.3595C567.92 35.4595 570.01 30.3395 570.01 30.3395C570.01 30.3395 572.5 24.4095 567.17 24.4095C563.22 24.4095 560.06 26.5595 558.87 27.5095C558.85 25.9995 558.17 24.4495 555.45 24.4495C550.39 24.4495 546.63 27.9795 546.63 27.9795C546.63 27.9795 546.58 24.5995 543.05 24.5995C539.91 24.5995 536.76 26.1595 536.76 26.1595L536.13 27.6295C536.13 27.6295 538.03 27.1995 538.96 27.1995C540.93 27.1995 540.29 29.9095 540.29 29.9095L534.81 43.2195H540.5L545.95 30.0895C545.95 30.0895 547.92 27.4695 551.43 27.4695C553.26 27.4695 552.28 30.1695 552.28 30.1695L546.9 43.1495H552.62L558.44 29.0395L558.42 29.0595ZM503.69 25.1995H500.21L499.56 27.1095H503.15L498.9 37.5795C498.9 37.5795 498.3 39.0495 498.3 40.6095C498.3 41.8195 498.65 43.5295 501.75 43.5295C504.85 43.5295 508.57 42.0195 508.57 42.0195L509.23 40.5395C509.23 40.5395 506.94 41.1295 506.21 41.1295C503.08 41.1295 504.65 37.2995 504.65 37.2995L508.83 27.1395H513.85L514.72 25.2695H509.69L512.06 19.6195H506.03L503.68 25.1995H503.69ZM610.9 26.2095C605.5 26.2095 603.27 35.4695 603.27 35.4695C603.27 35.4695 601.73 40.8695 604.66 40.8695C607.59 40.8695 608.89 38.8895 608.89 38.8895L612.87 29.1295C612.87 29.1295 613.49 26.2195 610.9 26.2195M620.31 24.6795L613.88 40.8195C613.88 40.8195 610.64 51.2195 600.51 51.2195C594.9 51.2195 593.32 49.8995 593.32 48.3995C593.32 46.6095 594.89 44.9695 596.6 44.9695C599.45 44.9695 600.63 49.2795 600.63 49.8195C605.55 49.8195 608.5 40.7395 608.5 40.7395C608.5 40.7395 605.13 43.6095 601.36 43.6095C598.64 43.6095 596.27 42.0395 596.27 38.4695C596.27 30.3195 604.29 24.4095 610.32 24.4095C613.04 24.4095 614.55 25.8795 614.55 25.8795L620.3 24.6795H620.31ZM487.35 26.2095C481.95 26.2095 479.72 35.4695 479.72 35.4695C479.72 35.4695 478.18 40.8695 481.11 40.8695C484.04 40.8695 485.69 38.7295 485.69 38.7295L489.79 28.7295C489.79 28.7295 489.95 26.2195 487.36 26.2195M493 40.9095C494 40.9095 495.6 40.3795 495.6 40.3795L494.83 42.0095C494.83 42.0095 492.49 43.4495 488.96 43.4495C485.43 43.4495 484.95 40.7495 484.95 40.7495C484.95 40.7495 481.58 43.6195 477.81 43.6195C475.09 43.6195 472.72 42.0495 472.72 38.4795C472.72 30.3295 480.74 24.4195 486.77 24.4195C489.49 24.4195 491 25.8895 491 25.8895L497.37 24.5895C497.37 24.5895 491.23 38.0995 491.23 39.3195C491.23 40.5395 492 40.9195 493.01 40.9195M438.58 26.1695L443.31 9.86945L426.05 26.1695H438.58ZM444.05 41.4295L443.26 43.2395H426.75C426.75 43.2395 427.53 41.3295 427.57 41.3295C433.28 41.3295 434.39 39.0695 434.39 39.0695L437.78 28.6695H423.4L415.26 37.2195C415.26 37.2195 413.79 38.5895 413.79 39.4595C413.79 41.2095 418.09 41.3595 418.09 41.3595L417.24 43.2295H401.85L402.78 41.2195C407.83 41.2195 411.75 37.0595 411.75 37.0595L449.4 0.689453H451.37L441.24 36.0295C441.24 36.0295 440.71 37.8695 440.71 38.9495C440.71 41.1595 444.07 41.4195 444.07 41.4195M448.61 27.6395L449.24 26.1695C449.24 26.1695 452.39 24.6095 455.53 24.6095C459.06 24.6095 459.11 27.9895 459.11 27.9895C459.11 27.9895 462.87 24.4595 467.93 24.4595C473.26 24.4595 470.6 30.2695 470.6 30.2695C470.6 30.2695 468.12 35.8095 467.56 37.1495C467 38.4895 465.22 41.0295 468.18 40.8795C469.25 40.8195 471.31 40.4195 471.31 40.4195L470.7 41.8395C470.7 41.8395 467.29 43.3595 465.12 43.3595C462.95 43.3595 461.25 42.4795 461.29 40.4895C461.33 38.0495 465.14 29.7395 465.14 29.7395C465.14 29.7395 465.73 27.4895 463.91 27.4895C460.39 27.4895 458.43 30.1095 458.43 30.1095L453.11 43.2395H447.4L452.84 30.0995C452.84 30.0995 453.42 27.2095 451.45 27.2095C450.51 27.2095 448.62 27.6395 448.62 27.6395" fill="white"/>
<path d="M642.87 17.8696H643.56C643.89 17.8696 644.11 17.8196 644.23 17.7296C644.35 17.6296 644.41 17.4996 644.41 17.3396C644.41 17.2396 644.38 17.1496 644.32 17.0596C644.26 16.9796 644.18 16.9196 644.08 16.8796C643.98 16.8396 643.79 16.8196 643.51 16.8196H642.87V17.8696ZM642.31 19.8296V16.3596H643.51C643.92 16.3596 644.22 16.3896 644.4 16.4596C644.58 16.5196 644.73 16.6396 644.84 16.7896C644.95 16.9496 645 17.1196 645 17.2996C645 17.5496 644.91 17.7696 644.73 17.9596C644.55 18.1496 644.3 18.2496 644 18.2796C644.12 18.3296 644.22 18.3896 644.3 18.4596C644.44 18.5996 644.61 18.8296 644.82 19.1496L645.25 19.8296H644.56L644.25 19.2796C644.01 18.8496 643.81 18.5796 643.66 18.4696C643.56 18.3896 643.41 18.3496 643.21 18.3496H642.88V19.8296H642.32H642.31ZM643.73 15.3496C643.27 15.3496 642.83 15.4596 642.4 15.6996C641.97 15.9296 641.63 16.2596 641.39 16.6996C641.14 17.1296 641.02 17.5796 641.02 18.0496C641.02 18.5196 641.14 18.9596 641.38 19.3896C641.62 19.8196 641.96 20.1496 642.39 20.3896C642.82 20.6296 643.27 20.7496 643.74 20.7496C644.21 20.7496 644.66 20.6296 645.09 20.3896C645.52 20.1496 645.86 19.8196 646.09 19.3896C646.33 18.9596 646.45 18.5196 646.45 18.0496C646.45 17.5796 646.33 17.1296 646.09 16.6996C645.85 16.2696 645.51 15.9396 645.08 15.6996C644.65 15.4696 644.2 15.3496 643.75 15.3496M643.73 14.8096C644.27 14.8096 644.81 14.9496 645.33 15.2296C645.85 15.5096 646.26 15.9096 646.54 16.4196C646.83 16.9396 646.97 17.4796 646.97 18.0396C646.97 18.5996 646.83 19.1296 646.54 19.6396C646.25 20.1496 645.85 20.5496 645.34 20.8296C644.82 21.1196 644.29 21.2596 643.72 21.2596C643.15 21.2596 642.62 21.1196 642.1 20.8296C641.58 20.5496 641.18 20.1496 640.9 19.6396C640.61 19.1296 640.47 18.5896 640.47 18.0396C640.47 17.4896 640.61 16.9396 640.91 16.4196C641.2 15.8996 641.61 15.4996 642.13 15.2296C642.65 14.9596 643.18 14.8096 643.73 14.8096Z" fill="white"/>
</g>
<path d="M586.92 26.3C581.52 26.3 579.29 35.56 579.29 35.56C579.29 35.56 577.75 40.96 580.68 40.96C583.61 40.96 585.26 38.82 585.26 38.82L589.36 28.82C589.36 28.82 589.52 26.31 586.93 26.31M592.57 40.99C593.57 40.99 595.17 40.46 595.17 40.46L594.4 42.09C594.4 42.09 592.06 43.53 588.53 43.53C585 43.53 584.52 40.83 584.52 40.83C584.52 40.83 581.15 43.7 577.38 43.7C574.66 43.7 572.29 42.13 572.29 38.56C572.29 30.41 580.31 24.5 586.34 24.5C589.06 24.5 590.57 25.97 590.57 25.97L596.94 24.67C596.94 24.67 590.8 38.18 590.8 39.4C590.8 40.62 591.57 41 592.58 41" fill="white"/>
</g>
<defs>
<clipPath id="clip0_91_2373">
<rect width="647" height="52" fill="white"/>
</clipPath>
</defs>
</svg>
