<svg width="24" height="24" viewBox="0 0 24 24" fill="none" xmlns="http://www.w3.org/2000/svg">
<g clip-path="url(#clip0_5531_32018)">
<path d="M0 5H24V19H0V5Z" fill="white"/>
<path d="M0 6H24V8H0V6Z" fill="#0038B8"/>
<path d="M0 16H24V18H0V16Z" fill="#0038B8"/>
<path fill-rule="evenodd" clip-rule="evenodd" d="M12.0311 8.5L13.0415 10.25H15.0622L14.0519 12L15.0622 13.75H13.0415L12.0311 15.5L11.0207 13.75H9L10.0104 12L9 10.25H11.0207L12.0311 8.5ZM10.6999 10.8057H9.9625L10.3312 11.4443L10.6999 10.8057ZM10.652 12L11.3416 10.8057H12.7207L13.4102 12L12.7207 13.1943H11.3416L10.652 12ZM10.3312 12.5557L9.9625 13.1943H10.6999L10.3312 12.5557ZM11.6624 13.75L12.0311 14.3886L12.3998 13.75H11.6624ZM13.3623 13.1943H14.0997L13.731 12.5557L13.3623 13.1943ZM13.731 11.4443L14.0997 10.8057H13.3623L13.731 11.4443ZM12.3998 10.25H11.6624L12.0311 9.61138L12.3998 10.25Z" fill="#0038B8"/>
</g>
<defs>
<clipPath id="clip0_5531_32018">
<rect width="24" height="14" fill="white" transform="translate(0 5)"/>
</clipPath>
</defs>
</svg>
