<svg width="24" height="32" viewBox="0 0 24 32" fill="none" xmlns="http://www.w3.org/2000/svg">
<path d="M20 30H4C2.89375 30 2 29.1063 2 28V4C2 2.89375 2.89375 2 4 2H12V9C12 10.6562 13.3438 12 15 12H22V28C22 29.1063 21.1063 30 20 30ZM15 10C14.45 10 14 9.55 14 9V2.03125C14.175 2.075 14.3375 2.1625 14.4625 2.29375L21.7062 9.5375C21.8375 9.66875 21.925 9.825 21.9688 10H15ZM4 0C1.79375 0 0 1.79375 0 4V28C0 30.2062 1.79375 32 4 32H20C22.2062 32 24 30.2062 24 28V10.2437C24 9.45 23.6812 8.6875 23.1187 8.125L15.8813 0.88125C15.3188 0.31875 14.5562 0 13.7625 0H4ZM7 16C6.45 16 6 16.45 6 17C6 17.55 6.45 18 7 18H17C17.55 18 18 17.55 18 17C18 16.45 17.55 16 17 16H7ZM7 20C6.45 20 6 20.45 6 21C6 21.55 6.45 22 7 22H17C17.55 22 18 21.55 18 21C18 20.45 17.55 20 17 20H7ZM7 24C6.45 24 6 24.45 6 25C6 25.55 6.45 26 7 26H17C17.55 26 18 25.55 18 25C18 24.45 17.55 24 17 24H7Z" fill="white"/>
</svg>
