<svg width="1024" height="768" viewBox="0 0 1024 768" fill="none" xmlns="http://www.w3.org/2000/svg">
<g opacity="0.2">
<path d="M284.475 643.618H283.975V644.118V663.718V664.218H284.475H295.943H296.443V663.718V660.773V660.273H295.943H288.586V644.118V643.618H288.086H284.475Z" fill="#1C2A3F" stroke="white"/>
<path d="M266.566 664.218H266.936L267.044 663.863L268.627 658.667H274.124L275.789 663.87L275.9 664.218H276.265H280.1H280.789L280.576 663.563L274.203 643.963L274.09 643.618H273.727H269.158H268.796L268.683 643.962L262.239 663.562L262.024 664.218H262.714H266.566ZM273.177 654.963H269.5L270.814 650.792L270.814 650.792L270.816 650.784C270.99 650.201 271.153 649.56 271.308 648.926C271.474 649.555 271.651 650.193 271.839 650.791L271.839 650.791L271.84 650.795L273.177 654.963Z" fill="#1C2A3F" stroke="white"/>
<path d="M246.583 647.11V647.61H247.083H252.172V663.718V664.218H252.672H256.257H256.757V663.718V647.61H261.903H262.403V647.11V644.118V643.618H261.903H247.083H246.583V644.118V647.11Z" fill="#1C2A3F" stroke="white"/>
<path d="M212.126 644.118V643.618H211.626H207.999H207.499V644.118V663.718V664.218H207.999H211.626H212.126V663.718V644.118Z" fill="#1C2A3F" stroke="white"/>
<path d="M232.955 663.11L233.288 662.993L233.288 662.639L233.29 652.951L233.29 652.451H232.79H225.997H225.497V652.951V655.72V656.22H225.997H228.893V660.153C228.455 660.285 227.721 660.39 226.74 660.39C224.85 660.39 223.317 659.779 222.257 658.698C221.197 657.616 220.56 656.012 220.56 653.936C220.56 651.81 221.241 650.227 222.357 649.173C223.477 648.115 225.09 647.538 227.05 647.538C229.001 647.538 230.225 647.885 231.213 648.319L231.742 648.552L231.897 647.995L232.683 645.162L232.796 644.756L232.414 644.576C231.448 644.122 229.521 643.618 227.09 643.618C223.809 643.618 221.007 644.624 219.019 646.458C217.028 648.294 215.896 650.924 215.895 654.083C215.866 657.096 216.9 659.776 218.731 661.514C220.674 663.37 223.256 664.218 226.598 664.218L226.601 664.218C228.766 664.206 230.914 663.832 232.955 663.11Z" fill="#1C2A3F" stroke="white"/>
<path d="M242.926 644.118V643.618H242.426H238.799H238.299V644.118V663.718V664.218H238.799H242.426H242.926V663.718V644.118Z" fill="#1C2A3F" stroke="white"/>
<path d="M186.641 644.015L186.215 644.079V644.51V663.537V663.979L186.654 664.033C187.822 664.177 189.39 664.218 191.434 664.218C195.222 664.218 198.42 663.325 200.455 661.473C202.405 659.711 203.602 657.007 203.602 653.476C203.602 650.08 202.419 647.578 200.438 645.958C198.548 644.371 195.938 643.618 192.292 643.618C190.401 643.603 188.511 643.736 186.641 644.015ZM190.704 660.354V647.451C191.327 647.357 191.957 647.317 192.587 647.332L192.587 647.332H192.598C194.697 647.332 196.264 647.927 197.303 648.961C198.342 649.995 198.918 651.534 198.905 653.557H198.905V653.56C198.905 655.9 198.256 657.595 197.133 658.703C196.009 659.812 194.339 660.405 192.153 660.391L192.144 660.391L192.135 660.392C191.657 660.406 191.18 660.393 190.704 660.354Z" fill="#1C2A3F" stroke="white"/>
<mask id="path-8-outside-1_124_25105" maskUnits="userSpaceOnUse" x="163.006" y="643.118" width="20" height="22" fill="black">
<rect fill="white" x="163.006" y="643.118" width="20" height="22"/>
<path d="M181.849 653.723C181.849 660.094 177.991 663.718 172.745 663.718C167.39 663.718 164.006 659.628 164.006 654.056C164.006 648.221 167.67 644.118 173.027 644.118C178.578 644.118 181.852 648.318 181.852 653.723H181.849ZM167.672 654.015C167.672 657.869 169.614 660.946 172.948 660.946C176.307 660.946 178.193 657.841 178.193 653.877C178.193 650.299 176.417 646.918 172.948 646.918C169.507 646.918 167.672 650.092 167.672 654.015Z"/>
</mask>
<path d="M181.849 653.723C181.849 660.094 177.991 663.718 172.745 663.718C167.39 663.718 164.006 659.628 164.006 654.056C164.006 648.221 167.67 644.118 173.027 644.118C178.578 644.118 181.852 648.318 181.852 653.723H181.849ZM167.672 654.015C167.672 657.869 169.614 660.946 172.948 660.946C176.307 660.946 178.193 657.841 178.193 653.877C178.193 650.299 176.417 646.918 172.948 646.918C169.507 646.918 167.672 650.092 167.672 654.015Z" fill="#1C2A3F"/>
<path d="M181.849 653.723V652.723H180.849V653.723H181.849ZM181.852 653.723V654.723H182.852V653.723H181.852ZM180.849 653.723C180.849 656.706 179.949 658.939 178.54 660.42C177.132 661.899 175.131 662.718 172.745 662.718V664.718C175.605 664.718 178.155 663.725 179.988 661.799C181.819 659.876 182.849 657.112 182.849 653.723H180.849ZM172.745 662.718C170.34 662.718 168.434 661.808 167.118 660.315C165.791 658.81 165.006 656.644 165.006 654.056H163.006C163.006 657.041 163.913 659.705 165.617 661.638C167.332 663.583 169.795 664.718 172.745 664.718V662.718ZM165.006 654.056C165.006 651.347 165.855 649.113 167.25 647.569C168.637 646.033 170.619 645.118 173.027 645.118V643.118C170.079 643.118 167.549 644.254 165.766 646.228C163.989 648.195 163.006 650.93 163.006 654.056H165.006ZM173.027 645.118C175.531 645.118 177.457 646.056 178.769 647.553C180.094 649.064 180.852 651.217 180.852 653.723H182.852C182.852 650.824 181.973 648.174 180.273 646.234C178.56 644.28 176.074 643.118 173.027 643.118V645.118ZM181.852 652.723H181.849V654.723H181.852V652.723ZM166.672 654.015C166.672 656.096 167.194 658.049 168.249 659.511C169.322 660.999 170.932 661.946 172.948 661.946V659.946C171.63 659.946 170.602 659.354 169.871 658.341C169.12 657.3 168.672 655.788 168.672 654.015H166.672ZM172.948 661.946C174.981 661.946 176.587 660.988 177.649 659.472C178.69 657.987 179.193 656.002 179.193 653.877H177.193C177.193 655.716 176.754 657.265 176.011 658.324C175.291 659.352 174.274 659.946 172.948 659.946V661.946ZM179.193 653.877C179.193 651.94 178.715 649.991 177.699 648.494C176.662 646.967 175.059 645.918 172.948 645.918V647.918C174.306 647.918 175.326 648.559 176.044 649.617C176.783 650.706 177.193 652.236 177.193 653.877H179.193ZM172.948 645.918C170.873 645.918 169.257 646.895 168.197 648.426C167.161 649.923 166.672 651.914 166.672 654.015H168.672C168.672 652.193 169.1 650.635 169.842 649.564C170.559 648.528 171.582 647.918 172.948 647.918V645.918Z" fill="white" mask="url(#path-8-outside-1_124_25105)"/>
<path d="M159.82 644.118V643.618H159.32H155.693H155.193V644.118V663.718V664.218H155.693H159.32H159.82V663.718V644.118Z" fill="#1C2A3F" stroke="white"/>
<path d="M136.549 643.618H136.049L136.049 644.118L136.052 663.718L136.052 664.218H136.552H143.642C145.911 664.218 147.74 663.69 149.089 662.605C150.456 661.506 151.119 659.963 151.119 658.077C151.119 656.686 150.755 655.529 150.023 654.653C149.548 654.084 148.906 653.655 148.126 653.35C148.69 653.072 149.172 652.688 149.554 652.187C150.213 651.322 150.537 650.265 150.537 649.021C150.537 647.191 149.886 645.764 148.506 644.874C147.174 644.014 145.111 643.618 142.374 643.618H136.549ZM145.503 651.159L145.503 651.159L145.499 651.162C145.016 651.498 144.164 651.71 142.848 651.71H140.254V647.283H142.539C143.962 647.283 144.924 647.495 145.449 647.828C145.929 648.132 146.206 648.622 146.206 649.403C146.206 650.326 145.941 650.861 145.503 651.159ZM140.254 660.525V655.318L142.988 655.324H142.989C144.373 655.324 145.311 655.557 145.878 655.962C146.417 656.347 146.717 656.932 146.717 657.823C146.717 658.826 146.413 659.474 145.897 659.86C145.34 660.277 144.458 660.525 143.159 660.525H140.254Z" fill="#1C2A3F" stroke="white"/>
<path d="M123.467 668.5H123.467L125.996 665.465H126.496V665.465C126.496 665.465 126.496 665.464 126.496 665.464L126.496 658.002L126.496 658.001C126.494 657.2 126.174 656.432 125.606 655.866C125.038 655.3 124.268 654.982 123.467 654.982H113.464H112.964V655.482V668V668.5H113.464H123.467Z" fill="#1C2A3F" stroke="white"/>
<path d="M112.964 652.518V653.018H113.464H123.463C123.858 653.023 124.25 652.951 124.617 652.804C124.985 652.657 125.321 652.438 125.603 652.16C125.886 651.882 126.111 651.551 126.264 651.185C126.417 650.819 126.496 650.427 126.496 650.031C126.496 650.031 126.496 650.031 126.496 650.031L126.496 642.5L126.496 642.499C126.495 642.103 126.416 641.711 126.262 641.345C126.109 640.98 125.885 640.648 125.603 640.369C125.321 640.091 124.987 639.87 124.62 639.721L124.432 640.185L124.62 639.721C124.253 639.572 123.86 639.497 123.465 639.5H113.464H112.964V640V652.518Z" fill="#1C2A3F" stroke="white"/>
<path d="M110.996 640V639.5H110.496H103.139C100.955 639.5 99.4434 641.633 99.4434 644.017V668V668.5H99.9434H107.23C109.402 668.5 110.996 666.361 110.996 663.968V640Z" fill="#1C2A3F" stroke="white"/>
</g>
<g opacity="0.2">
<path d="M598.475 373.618H597.975V374.118V393.718V394.218H598.475H609.943H610.443V393.718V390.773V390.273H609.943H602.586V374.118V373.618H602.086H598.475Z" fill="#1C2A3F" stroke="white"/>
<path d="M580.566 394.218H580.936L581.044 393.863L582.627 388.667H588.124L589.789 393.87L589.9 394.218H590.265H594.1H594.789L594.576 393.563L588.203 373.963L588.09 373.618H587.727H583.158H582.796L582.683 373.962L576.239 393.562L576.024 394.218H576.714H580.566ZM587.177 384.963H583.5L584.814 380.792L584.814 380.792L584.816 380.784C584.99 380.201 585.153 379.56 585.308 378.926C585.474 379.555 585.651 380.193 585.839 380.791L585.839 380.791L585.84 380.795L587.177 384.963Z" fill="#1C2A3F" stroke="white"/>
<path d="M560.583 377.11V377.61H561.083H566.172V393.718V394.218H566.672H570.257H570.757V393.718V377.61H575.903H576.403V377.11V374.118V373.618H575.903H561.083H560.583V374.118V377.11Z" fill="#1C2A3F" stroke="white"/>
<path d="M526.126 374.118V373.618H525.626H521.999H521.499V374.118V393.718V394.218H521.999H525.626H526.126V393.718V374.118Z" fill="#1C2A3F" stroke="white"/>
<path d="M546.955 393.11L547.288 392.993L547.288 392.639L547.29 382.951L547.29 382.451H546.79H539.997H539.497V382.951V385.72V386.22H539.997H542.893V390.153C542.455 390.285 541.721 390.39 540.74 390.39C538.85 390.39 537.317 389.779 536.257 388.698C535.197 387.616 534.56 386.012 534.56 383.936C534.56 381.81 535.241 380.227 536.357 379.173C537.477 378.115 539.09 377.538 541.05 377.538C543.001 377.538 544.225 377.885 545.213 378.319L545.742 378.552L545.897 377.995L546.683 375.162L546.796 374.756L546.414 374.576C545.448 374.122 543.521 373.618 541.09 373.618C537.809 373.618 535.007 374.624 533.019 376.458C531.028 378.294 529.896 380.924 529.895 384.083C529.866 387.096 530.9 389.776 532.731 391.514C534.674 393.37 537.256 394.218 540.598 394.218L540.601 394.218C542.766 394.206 544.914 393.832 546.955 393.11Z" fill="#1C2A3F" stroke="white"/>
<path d="M556.926 374.118V373.618H556.426H552.799H552.299V374.118V393.718V394.218H552.799H556.426H556.926V393.718V374.118Z" fill="#1C2A3F" stroke="white"/>
<path d="M500.641 374.015L500.215 374.079V374.51V393.537V393.979L500.654 394.033C501.822 394.177 503.39 394.218 505.434 394.218C509.222 394.218 512.42 393.325 514.455 391.473C516.405 389.711 517.602 387.007 517.602 383.476C517.602 380.08 516.419 377.578 514.438 375.958C512.548 374.371 509.938 373.618 506.292 373.618C504.401 373.603 502.511 373.736 500.641 374.015ZM504.704 390.354V377.451C505.327 377.357 505.957 377.317 506.587 377.332L506.587 377.332H506.598C508.697 377.332 510.264 377.927 511.303 378.961C512.342 379.995 512.918 381.534 512.905 383.557H512.905V383.56C512.905 385.9 512.256 387.595 511.133 388.703C510.009 389.812 508.339 390.405 506.153 390.391L506.144 390.391L506.135 390.392C505.657 390.406 505.18 390.393 504.704 390.354Z" fill="#1C2A3F" stroke="white"/>
<mask id="path-22-outside-2_124_25105" maskUnits="userSpaceOnUse" x="477.006" y="373.118" width="20" height="22" fill="black">
<rect fill="white" x="477.006" y="373.118" width="20" height="22"/>
<path d="M495.849 383.723C495.849 390.094 491.991 393.718 486.745 393.718C481.39 393.718 478.006 389.628 478.006 384.056C478.006 378.221 481.67 374.118 487.027 374.118C492.578 374.118 495.852 378.318 495.852 383.723H495.849ZM481.672 384.015C481.672 387.869 483.614 390.946 486.948 390.946C490.307 390.946 492.193 387.841 492.193 383.877C492.193 380.299 490.417 376.918 486.948 376.918C483.507 376.918 481.672 380.092 481.672 384.015Z"/>
</mask>
<path d="M495.849 383.723C495.849 390.094 491.991 393.718 486.745 393.718C481.39 393.718 478.006 389.628 478.006 384.056C478.006 378.221 481.67 374.118 487.027 374.118C492.578 374.118 495.852 378.318 495.852 383.723H495.849ZM481.672 384.015C481.672 387.869 483.614 390.946 486.948 390.946C490.307 390.946 492.193 387.841 492.193 383.877C492.193 380.299 490.417 376.918 486.948 376.918C483.507 376.918 481.672 380.092 481.672 384.015Z" fill="#1C2A3F"/>
<path d="M495.849 383.723V382.723H494.849V383.723H495.849ZM495.852 383.723V384.723H496.852V383.723H495.852ZM494.849 383.723C494.849 386.706 493.949 388.939 492.54 390.42C491.132 391.899 489.131 392.718 486.745 392.718V394.718C489.605 394.718 492.155 393.725 493.988 391.799C495.819 389.876 496.849 387.112 496.849 383.723H494.849ZM486.745 392.718C484.34 392.718 482.434 391.808 481.118 390.315C479.791 388.81 479.006 386.644 479.006 384.056H477.006C477.006 387.041 477.913 389.705 479.617 391.638C481.332 393.583 483.795 394.718 486.745 394.718V392.718ZM479.006 384.056C479.006 381.347 479.855 379.113 481.25 377.569C482.637 376.033 484.619 375.118 487.027 375.118V373.118C484.079 373.118 481.549 374.254 479.766 376.228C477.989 378.195 477.006 380.93 477.006 384.056H479.006ZM487.027 375.118C489.531 375.118 491.457 376.056 492.769 377.553C494.094 379.064 494.852 381.217 494.852 383.723H496.852C496.852 380.824 495.973 378.174 494.273 376.234C492.56 374.28 490.074 373.118 487.027 373.118V375.118ZM495.852 382.723H495.849V384.723H495.852V382.723ZM480.672 384.015C480.672 386.096 481.194 388.049 482.249 389.511C483.322 390.999 484.932 391.946 486.948 391.946V389.946C485.63 389.946 484.602 389.354 483.871 388.341C483.12 387.3 482.672 385.788 482.672 384.015H480.672ZM486.948 391.946C488.981 391.946 490.587 390.988 491.649 389.472C492.69 387.987 493.193 386.002 493.193 383.877H491.193C491.193 385.716 490.754 387.265 490.011 388.324C489.291 389.352 488.274 389.946 486.948 389.946V391.946ZM493.193 383.877C493.193 381.94 492.715 379.991 491.699 378.494C490.662 376.967 489.059 375.918 486.948 375.918V377.918C488.306 377.918 489.326 378.559 490.044 379.617C490.783 380.706 491.193 382.236 491.193 383.877H493.193ZM486.948 375.918C484.873 375.918 483.257 376.895 482.197 378.426C481.161 379.923 480.672 381.914 480.672 384.015H482.672C482.672 382.193 483.1 380.635 483.842 379.564C484.559 378.528 485.582 377.918 486.948 377.918V375.918Z" fill="white" mask="url(#path-22-outside-2_124_25105)"/>
<path d="M473.82 374.118V373.618H473.32H469.693H469.193V374.118V393.718V394.218H469.693H473.32H473.82V393.718V374.118Z" fill="#1C2A3F" stroke="white"/>
<path d="M450.549 373.618H450.049L450.049 374.118L450.052 393.718L450.052 394.218H450.552H457.642C459.911 394.218 461.74 393.69 463.089 392.605C464.456 391.506 465.119 389.963 465.119 388.077C465.119 386.686 464.755 385.529 464.023 384.653C463.548 384.084 462.906 383.655 462.126 383.35C462.69 383.072 463.172 382.688 463.554 382.187C464.213 381.322 464.537 380.265 464.537 379.021C464.537 377.191 463.886 375.764 462.506 374.874C461.174 374.014 459.111 373.618 456.374 373.618H450.549ZM459.503 381.159L459.503 381.159L459.499 381.162C459.016 381.498 458.164 381.71 456.848 381.71H454.254V377.283H456.539C457.962 377.283 458.924 377.495 459.449 377.828C459.929 378.132 460.206 378.622 460.206 379.403C460.206 380.326 459.941 380.861 459.503 381.159ZM454.254 390.525V385.318L456.988 385.324H456.989C458.373 385.324 459.311 385.557 459.878 385.962C460.417 386.347 460.717 386.932 460.717 387.823C460.717 388.826 460.413 389.474 459.897 389.86C459.34 390.277 458.458 390.525 457.159 390.525H454.254Z" fill="#1C2A3F" stroke="white"/>
<path d="M437.467 398.5H437.467L439.996 395.465H440.496V395.465C440.496 395.465 440.496 395.464 440.496 395.464L440.496 388.002L440.496 388.001C440.494 387.2 440.174 386.432 439.606 385.866C439.038 385.3 438.268 384.982 437.467 384.982H427.464H426.964V385.482V398V398.5H427.464H437.467Z" fill="#1C2A3F" stroke="white"/>
<path d="M426.964 382.518V383.018H427.464H437.463C437.858 383.023 438.25 382.951 438.617 382.804C438.985 382.657 439.321 382.438 439.603 382.16C439.886 381.882 440.111 381.551 440.264 381.185C440.417 380.819 440.496 380.427 440.496 380.031C440.496 380.031 440.496 380.031 440.496 380.031L440.496 372.5L440.496 372.499C440.495 372.103 440.416 371.711 440.262 371.345C440.109 370.98 439.885 370.648 439.603 370.369C439.321 370.091 438.987 369.87 438.62 369.721L438.432 370.185L438.62 369.721C438.253 369.572 437.86 369.497 437.465 369.5H427.464H426.964V370V382.518Z" fill="#1C2A3F" stroke="white"/>
<path d="M424.996 370V369.5H424.496H417.139C414.955 369.5 413.443 371.633 413.443 374.017V398V398.5H413.943H421.23C423.402 398.5 424.996 396.361 424.996 393.968V370Z" fill="#1C2A3F" stroke="white"/>
</g>
<g opacity="0.2">
<path d="M912.475 103.618H911.975V104.118V123.718V124.218H912.475H923.943H924.443V123.718V120.773V120.273H923.943H916.586V104.118V103.618H916.086H912.475Z" fill="#1C2A3F" stroke="white"/>
<path d="M894.566 124.218H894.936L895.044 123.863L896.627 118.667H902.124L903.789 123.87L903.9 124.218H904.265H908.1H908.789L908.576 123.563L902.203 103.963L902.09 103.618H901.727H897.158H896.796L896.683 103.962L890.239 123.562L890.024 124.218H890.714H894.566ZM901.177 114.963H897.5L898.814 110.792L898.814 110.792L898.816 110.784C898.99 110.201 899.153 109.56 899.308 108.926C899.474 109.555 899.651 110.193 899.839 110.791L899.839 110.791L899.84 110.795L901.177 114.963Z" fill="#1C2A3F" stroke="white"/>
<path d="M874.583 107.11V107.61H875.083H880.172V123.718V124.218H880.672H884.257H884.757V123.718V107.61H889.903H890.403V107.11V104.118V103.618H889.903H875.083H874.583V104.118V107.11Z" fill="#1C2A3F" stroke="white"/>
<path d="M840.126 104.118V103.618H839.626H835.999H835.499V104.118V123.718V124.218H835.999H839.626H840.126V123.718V104.118Z" fill="#1C2A3F" stroke="white"/>
<path d="M860.955 123.11L861.288 122.993L861.288 122.639L861.29 112.951L861.29 112.451H860.79H853.997H853.497V112.951V115.72V116.22H853.997H856.893V120.153C856.455 120.285 855.721 120.39 854.74 120.39C852.85 120.39 851.318 119.779 850.257 118.698C849.197 117.616 848.561 116.012 848.561 113.936C848.561 111.81 849.241 110.227 850.357 109.173C851.477 108.115 853.091 107.538 855.05 107.538C857.001 107.538 858.226 107.885 859.214 108.319L859.742 108.552L859.897 107.995L860.683 105.162L860.796 104.756L860.414 104.576C859.448 104.122 857.521 103.618 855.09 103.618C851.809 103.618 849.007 104.624 847.019 106.458C845.028 108.294 843.896 110.924 843.895 114.083C843.867 117.096 844.901 119.776 846.731 121.514C848.674 123.37 851.256 124.218 854.598 124.218L854.601 124.218C856.766 124.206 858.914 123.832 860.955 123.11Z" fill="#1C2A3F" stroke="white"/>
<path d="M870.926 104.118V103.618H870.426H866.799H866.299V104.118V123.718V124.218H866.799H870.426H870.926V123.718V104.118Z" fill="#1C2A3F" stroke="white"/>
<path d="M814.641 104.015L814.215 104.079V104.51V123.537V123.979L814.654 124.033C815.822 124.177 817.39 124.218 819.434 124.218C823.222 124.218 826.42 123.325 828.455 121.473C830.405 119.711 831.602 117.007 831.602 113.476C831.602 110.08 830.419 107.578 828.438 105.958C826.548 104.371 823.938 103.618 820.292 103.618C818.401 103.603 816.512 103.736 814.641 104.015ZM818.704 120.354V107.451C819.327 107.357 819.957 107.317 820.587 107.332L820.587 107.332H820.598C822.697 107.332 824.265 107.927 825.303 108.961C826.342 109.995 826.918 111.534 826.905 113.557H826.905V113.56C826.905 115.9 826.256 117.595 825.133 118.703C824.009 119.812 822.339 120.405 820.153 120.391L820.144 120.391L820.135 120.392C819.658 120.406 819.18 120.393 818.704 120.354Z" fill="#1C2A3F" stroke="white"/>
<mask id="path-36-outside-3_124_25105" maskUnits="userSpaceOnUse" x="791.006" y="103.118" width="20" height="22" fill="black">
<rect fill="white" x="791.006" y="103.118" width="20" height="22"/>
<path d="M809.849 113.723C809.849 120.094 805.991 123.718 800.745 123.718C795.39 123.718 792.006 119.628 792.006 114.056C792.006 108.221 795.67 104.118 801.027 104.118C806.578 104.118 809.852 108.318 809.852 113.723H809.849ZM795.672 114.015C795.672 117.869 797.614 120.946 800.948 120.946C804.307 120.946 806.193 117.841 806.193 113.877C806.193 110.299 804.418 106.918 800.948 106.918C797.507 106.918 795.672 110.092 795.672 114.015Z"/>
</mask>
<path d="M809.849 113.723C809.849 120.094 805.991 123.718 800.745 123.718C795.39 123.718 792.006 119.628 792.006 114.056C792.006 108.221 795.67 104.118 801.027 104.118C806.578 104.118 809.852 108.318 809.852 113.723H809.849ZM795.672 114.015C795.672 117.869 797.614 120.946 800.948 120.946C804.307 120.946 806.193 117.841 806.193 113.877C806.193 110.299 804.418 106.918 800.948 106.918C797.507 106.918 795.672 110.092 795.672 114.015Z" fill="#1C2A3F"/>
<path d="M809.849 113.723V112.723H808.849V113.723H809.849ZM809.852 113.723V114.723H810.852V113.723H809.852ZM808.849 113.723C808.849 116.706 807.949 118.939 806.54 120.42C805.133 121.899 803.131 122.718 800.745 122.718V124.718C803.605 124.718 806.155 123.725 807.989 121.799C809.819 119.876 810.849 117.112 810.849 113.723H808.849ZM800.745 122.718C798.34 122.718 796.434 121.808 795.118 120.315C793.791 118.81 793.006 116.644 793.006 114.056H791.006C791.006 117.041 791.914 119.705 793.617 121.638C795.332 123.583 797.795 124.718 800.745 124.718V122.718ZM793.006 114.056C793.006 111.347 793.855 109.113 795.25 107.569C796.638 106.033 798.619 105.118 801.027 105.118V103.118C798.079 103.118 795.55 104.254 793.766 106.228C791.99 108.195 791.006 110.93 791.006 114.056H793.006ZM801.027 105.118C803.531 105.118 805.457 106.056 806.769 107.553C808.094 109.064 808.852 111.217 808.852 113.723H810.852C810.852 110.824 809.973 108.174 808.273 106.234C806.56 104.28 804.074 103.118 801.027 103.118V105.118ZM809.852 112.723H809.849V114.723H809.852V112.723ZM794.672 114.015C794.672 116.096 795.195 118.049 796.249 119.511C797.322 120.999 798.932 121.946 800.948 121.946V119.946C799.63 119.946 798.602 119.354 797.871 118.341C797.12 117.3 796.672 115.788 796.672 114.015H794.672ZM800.948 121.946C802.981 121.946 804.587 120.988 805.649 119.472C806.69 117.987 807.193 116.002 807.193 113.877H805.193C805.193 115.716 804.754 117.265 804.012 118.324C803.291 119.352 802.275 119.946 800.948 119.946V121.946ZM807.193 113.877C807.193 111.94 806.715 109.991 805.699 108.494C804.662 106.967 803.059 105.918 800.948 105.918V107.918C802.306 107.918 803.326 108.559 804.045 109.617C804.784 110.706 805.193 112.236 805.193 113.877H807.193ZM800.948 105.918C798.873 105.918 797.258 106.895 796.197 108.426C795.161 109.923 794.672 111.914 794.672 114.015H796.672C796.672 112.193 797.1 110.635 797.842 109.564C798.56 108.528 799.582 107.918 800.948 107.918V105.918Z" fill="white" mask="url(#path-36-outside-3_124_25105)"/>
<path d="M787.82 104.118V103.618H787.32H783.693H783.193V104.118V123.718V124.218H783.693H787.32H787.82V123.718V104.118Z" fill="#1C2A3F" stroke="white"/>
<path d="M764.549 103.618H764.049L764.049 104.118L764.052 123.718L764.052 124.218H764.552H771.642C773.911 124.218 775.74 123.69 777.089 122.605C778.456 121.506 779.119 119.963 779.119 118.077C779.119 116.686 778.755 115.529 778.023 114.653C777.548 114.084 776.906 113.655 776.126 113.35C776.69 113.072 777.172 112.688 777.554 112.187C778.213 111.322 778.537 110.265 778.537 109.021C778.537 107.191 777.886 105.764 776.506 104.874C775.174 104.014 773.112 103.618 770.374 103.618H764.549ZM773.503 111.159L773.503 111.159L773.499 111.162C773.016 111.498 772.164 111.71 770.848 111.71H768.254V107.283H770.539C771.962 107.283 772.924 107.495 773.449 107.828C773.929 108.132 774.206 108.622 774.206 109.403C774.206 110.326 773.941 110.861 773.503 111.159ZM768.254 120.525V115.318L770.988 115.324H770.989C772.373 115.324 773.311 115.557 773.878 115.962C774.417 116.347 774.717 116.932 774.717 117.823C774.717 118.826 774.413 119.474 773.897 119.86C773.34 120.277 772.458 120.525 771.159 120.525H768.254Z" fill="#1C2A3F" stroke="white"/>
<path d="M751.466 128.5H751.467L753.996 125.465H754.496V125.465C754.496 125.465 754.496 125.464 754.496 125.464L754.496 118.002L754.496 118.001C754.494 117.2 754.174 116.432 753.606 115.866C753.038 115.3 752.268 114.982 751.466 114.982H741.464H740.964V115.482V128V128.5H741.464H751.466Z" fill="#1C2A3F" stroke="white"/>
<path d="M740.964 112.518V113.018H741.464H751.463C751.858 113.023 752.25 112.951 752.617 112.804C752.985 112.657 753.321 112.438 753.603 112.16C753.886 111.882 754.111 111.551 754.264 111.185C754.417 110.819 754.496 110.427 754.496 110.031C754.496 110.031 754.496 110.031 754.496 110.031L754.496 102.5L754.496 102.499C754.495 102.103 754.415 101.711 754.262 101.345C754.109 100.98 753.885 100.648 753.603 100.369C753.321 100.091 752.987 99.8705 752.62 99.7213L752.431 100.185L752.62 99.7213C752.253 99.5724 751.86 99.4972 751.465 99.5001H741.464H740.964V100V112.518Z" fill="#1C2A3F" stroke="white"/>
<path d="M738.996 100V99.5002H738.496H731.139C728.955 99.5002 727.443 101.633 727.443 104.017V128V128.5H727.943H735.23C737.402 128.5 738.996 126.361 738.996 123.968V100Z" fill="#1C2A3F" stroke="white"/>
</g>
</svg>
