<?xml version="1.0" encoding="UTF-8"?>
<svg width="281px" height="40px" viewBox="0 0 281 40" version="1.1" xmlns="http://www.w3.org/2000/svg" xmlns:xlink="http://www.w3.org/1999/xlink">
    <!-- Generator: Sketch 53 (72520) - https://sketchapp.com -->
    <title>biodigital-logo</title>
    <desc>Created with Sketch.</desc>
    <defs>
        <polygon id="path-1" points="0.00667386376 0.032 72.1548117 0.032 72.1548117 39.9933333 0.00667386376 39.9933333"></polygon>
    </defs>
    <g id="biodigital-logo" stroke="none" stroke-width="1" fill="none" fill-rule="evenodd">
        <g id="LOGO2019_UPDATED_02c">
            <polygon id="Fill-1" fill="white" points="79.9447983 34.0298507 84.7176221 34.0298507 84.7176221 6.56716418 79.9447983 6.56716418"></polygon>
            <path d="M97.1455236,20.120528 C97.1455236,25.6436361 99.9419481,30.0388003 104.724173,30.0388003 C109.547101,30.0388003 112.262674,25.6033682 112.262674,19.9189676 C112.262674,14.7989804 109.709137,9.96131002 104.724173,9.96131002 C99.7798011,9.96131002 97.1455236,14.5167737 97.1455236,20.120528 Z M117.530786,19.7174072 C117.530786,28.8293276 111.978751,34.0298507 104.440582,34.0298507 C96.7402673,34.0298507 91.8768577,28.1842681 91.8768577,20.2011743 C91.8768577,11.8561102 97.1455236,5.97014925 104.845839,5.97014925 C112.829412,5.97014925 117.530786,11.9770244 117.530786,19.7174072 L117.530786,19.7174072 Z" id="Fill-2" fill="white"></path>
            <path d="M129.657914,29.9151072 C130.344399,30.0374079 131.395682,30.0374079 132.404958,30.0374079 C138.868526,30.0781004 142.705543,26.4921373 142.705543,19.5256807 C142.746445,13.455464 139.272015,9.8810955 133.051647,9.8810955 C131.47638,9.8810955 130.344399,10.0032847 129.657914,10.166278 L129.657914,29.9151072 Z M124.690021,6.54051416 C126.871074,6.17383508 129.657914,5.97014925 132.607256,5.97014925 C137.696748,5.97014925 141.210975,7.02927096 143.715925,9.14784882 C146.341369,11.3070078 147.957537,14.6776905 147.957537,19.3626875 C147.957537,24.2514817 146.301573,27.9179381 143.715925,30.2817863 C141.009783,32.7668202 136.687472,34.0298507 131.395682,34.0298507 C128.487243,34.0298507 126.305084,33.9784555 124.690021,33.7746582 L124.690021,6.54051416 L124.690021,6.54051416 Z" id="Fill-3" fill="white"></path>
            <polygon id="Fill-4" fill="white" points="155.116773 34.0298507 159.889597 34.0298507 159.889597 6.56716418 155.116773 6.56716418"></polygon>
            <path d="M190.316348,32.4800929 C188.576692,33.1325403 185.178218,34.0298507 181.536125,34.0298507 C176.922881,34.0298507 173.442462,32.8471643 170.853464,30.3593599 C168.425033,28.0338303 167.008725,24.4040756 167.049697,20.2441934 C167.049697,11.5574693 173.199951,5.97014925 182.223793,5.97014925 C185.582403,5.97014925 188.212372,6.66344435 189.467006,7.27515562 L188.374046,11.3127178 C186.876901,10.6601589 185.056409,10.1300314 182.182821,10.1300314 C176.355915,10.1300314 172.269772,13.5966185 172.269772,19.9995536 C172.269772,26.239321 176.073539,29.9515524 181.737664,29.9515524 C183.518292,29.9515524 184.853763,29.7068009 185.501566,29.3805772 L185.501566,22.5280941 L180.685676,22.5280941 L180.685676,18.5721157 L190.316348,18.5721157 L190.316348,32.4800929" id="Fill-5" fill="white"></path>
            <polygon id="Fill-6" fill="white" points="199.265393 34.0298507 204.038217 34.0298507 204.038217 6.56716418 199.265393 6.56716418"></polygon>
            <polyline id="Fill-7" fill="white" points="219.073894 10.7638033 211.197452 10.7638033 211.197452 6.56716418 232.078556 6.56716418 232.078556 10.7638033 224.120161 10.7638033 224.120161 34.0298507 219.073894 34.0298507 219.073894 10.7638033"></polyline>
            <path d="M248.971304,22.457483 L246.802296,15.6938897 C246.269006,14.0233959 245.818624,12.1491914 245.409694,10.5600927 L245.327908,10.5600927 C244.918978,12.1491914 244.508928,14.0640934 244.018212,15.6938897 L241.888416,22.457483 L248.971304,22.457483 Z M241.070557,26.2467009 L238.695403,34.0298507 L233.271762,34.0298507 L242.338799,6.56716418 L248.767399,6.56716418 L257.732484,34.0298507 L252.329009,34.0298507 L249.831737,26.2467009 L241.070557,26.2467009 L241.070557,26.2467009 Z" id="Fill-8" fill="white"></path>
            <polyline id="Fill-9" fill="white" points="264.89172 5.97014925 269.955519 5.97014925 269.955519 29.8103914 281 29.8103914 281 34.0298507 264.89172 34.0298507 264.89172 5.97014925"></polyline>
            <g id="Group-15">
                <mask id="mask-2" fill="white">
                    <use xlink:href="#path-1"></use>
                </mask>
                <g id="Clip-11"></g>
                <path d="M56.8421875,21.3085556 L56.8421875,30.0626667 L61.6499277,30.0626667 C63.5426355,30.0626667 64.9717322,29.7004444 65.9369953,28.9754444 C66.9022585,28.2507778 67.3848901,27.1068889 67.3848901,25.5437778 C67.3848901,24.1067778 66.8928038,23.0417778 65.9086314,22.3484444 C64.9243477,21.6553333 63.4290686,21.3085556 61.4227939,21.3085556 L56.8421875,21.3085556 Z M56.8421875,17.6404444 L61.19566,17.6404444 C63.0883678,17.6404444 64.4700801,17.3411111 65.3406856,16.7423333 C66.2114024,16.1438889 66.6467607,15.1257778 66.6467607,13.6887778 C66.6467607,12.3906667 66.176587,11.4515556 65.2366846,10.8716667 C64.2964484,10.292 62.8043949,10.0017778 60.7603017,10.0017778 L56.8421875,10.0017778 L56.8421875,17.6404444 Z M52.3184202,6.22033333 L60.5331678,6.22033333 C64.3437216,6.22033333 67.0978027,6.77522222 68.7950775,7.88422222 C70.4921298,8.99355556 71.3410453,10.7457778 71.3410453,13.1404444 C71.3410453,14.7541111 70.9244849,16.0965556 70.0915867,17.1677778 C69.2587998,18.2392222 68.0598402,18.9136667 66.4953753,19.1908889 L66.4953753,19.3798889 C68.4384707,19.7456667 69.8673449,20.4671111 70.7824429,21.5448889 C71.6973184,22.6225556 72.1548117,24.0817778 72.1548117,25.9218889 C72.1548117,28.4053333 71.2870982,30.3494444 69.5521161,31.7547778 C67.8170227,33.1605556 65.4037536,33.863 62.3123087,33.863 L52.3184202,33.863 L52.3184202,6.22033333 L52.3184202,6.22033333 Z" id="Fill-10" fill="white" mask="url(#mask-2)"></path>
                <path d="M14.8634732,0.032 L4.49473601,0.032 C1.95488593,0.032 0.000778617439,2.60022222 0.000778617439,5.77488889 L0,39.9963333 L10.2607318,39.9963333 C12.7999145,39.9963333 14.8634732,37.4228889 14.8634732,34.2463333 L14.8634732,0.032" id="Fill-12" fill="white" mask="url(#mask-2)"></path>
                <path d="M36.9962301,14.2224444 C36.9962301,16.2075556 35.3663613,17.7476667 33.3615326,17.7476667 L18.9569988,17.7476667 L18.9569988,0.032 L33.3615326,0.032 C35.3663613,0.032 36.9962301,1.59566667 36.9962301,3.57777778 L36.9962301,14.2224444" id="Fill-13" fill="white" mask="url(#mask-2)"></path>
                <path d="M36.9962301,36.4072222 C36.9962301,38.393 35.3663613,39.9998889 33.3615326,39.9998889 L18.9569988,39.9998889 L18.9569988,22.2401111 L33.3615326,22.2401111 C35.3663613,22.2401111 36.9947841,23.8338889 36.9947841,25.8183333 L36.9962301,36.4072222" id="Fill-14" fill="white" mask="url(#mask-2)"></path>
            </g>
        </g>
    </g>
</svg>