<svg width="236" height="77" viewBox="0 0 236 77" fill="none" xmlns="http://www.w3.org/2000/svg">
<path fill-rule="evenodd" clip-rule="evenodd" d="M70.1379 69.7644C70.1379 73.553 67.0808 76.6187 63.3205 76.6187H36.3027V42.7354H63.3205C67.0808 42.7354 70.1351 45.7761 70.1351 49.5621L70.1379 69.7644Z" fill="black"/>
<path fill-rule="evenodd" clip-rule="evenodd" d="M70.1379 27.5223C70.1379 31.3191 67.0808 34.2647 63.3205 34.2647H36.3027V0.381348H63.3205C67.0808 0.381348 70.1379 3.37205 70.1379 7.16308V27.5223Z" fill="#DE3838"/>
<path fill-rule="evenodd" clip-rule="evenodd" d="M29.1363 0.381348H9.22097C4.34266 0.381348 0.589386 5.2806 0.589386 11.3367L0.587891 76.619H20.2958C25.1728 76.619 29.1363 71.7098 29.1363 65.65V0.381348Z" fill="black"/>
<path d="M224.255 70.8338C220.407 70.8338 217.442 69.7474 215.359 67.5746C213.276 65.3729 212.235 62.3455 212.235 58.4924V33.5925H207.722C207.143 33.5925 206.637 33.4042 206.203 33.0275C205.798 32.6509 205.596 32.086 205.596 31.3328V27.0742L212.756 25.9009L215.012 13.7333C215.128 13.1539 215.388 12.7049 215.793 12.3862C216.227 12.0675 216.762 11.9082 217.399 11.9082H222.953V25.9443H234.669V33.5925H222.953V57.7537C222.953 59.1443 223.3 60.2307 223.995 61.0129C224.689 61.7951 225.615 62.1862 226.772 62.1862C227.437 62.1862 227.987 62.1137 228.421 61.9689C228.884 61.7951 229.274 61.6212 229.592 61.4474C229.939 61.2736 230.243 61.1143 230.504 60.9694C230.764 60.7956 231.024 60.7087 231.285 60.7087C231.603 60.7087 231.863 60.7956 232.066 60.9694C232.268 61.1143 232.485 61.346 232.717 61.6647L235.928 66.8793C234.366 68.183 232.572 69.168 230.547 69.8343C228.522 70.5006 226.425 70.8338 224.255 70.8338Z" fill="black"/>
<path d="M181.116 70.1388V33.6362L177.254 33.0278C176.415 32.883 175.735 32.5933 175.214 32.1587C174.722 31.7242 174.477 31.1158 174.477 30.3336V25.9446H181.116V22.642C181.116 20.0926 181.492 17.8039 182.244 15.776C183.025 13.7481 184.124 12.0244 185.542 10.6048C186.988 9.18528 188.739 8.09889 190.793 7.34566C192.847 6.59244 195.161 6.21582 197.736 6.21582C199.789 6.21582 201.699 6.49104 203.463 7.04148L203.246 12.4299C203.189 13.2701 202.798 13.7916 202.075 13.9943C201.352 14.1971 200.513 14.2985 199.558 14.2985C198.285 14.2985 197.142 14.4434 196.13 14.7331C195.146 14.9938 194.307 15.4718 193.613 16.1671C192.919 16.8334 192.384 17.7315 192.008 18.8614C191.66 19.9622 191.487 21.3383 191.487 22.9896V25.9446H203.073V33.5928H191.834V70.1388H181.116Z" fill="black"/>
<path d="M148.886 24.8579C152.213 24.8579 155.222 25.3939 157.912 26.4658C160.631 27.5377 162.946 29.0586 164.855 31.0286C166.764 32.9986 168.24 35.4031 169.281 38.2422C170.323 41.0813 170.843 44.2535 170.843 47.7589C170.843 51.2933 170.323 54.48 169.281 57.3191C168.24 60.1582 166.764 62.5772 164.855 64.5762C162.946 66.5751 160.631 68.1106 157.912 69.1825C155.222 70.2544 152.213 70.7903 148.886 70.7903C145.559 70.7903 142.536 70.2544 139.817 69.1825C137.098 68.1106 134.769 66.5751 132.831 64.5762C130.921 62.5772 129.431 60.1582 128.361 57.3191C127.32 54.48 126.799 51.2933 126.799 47.7589C126.799 44.2535 127.32 41.0813 128.361 38.2422C129.431 35.4031 130.921 32.9986 132.831 31.0286C134.769 29.0586 137.098 27.5377 139.817 26.4658C142.536 25.3939 145.559 24.8579 148.886 24.8579ZM148.886 62.5338C152.589 62.5338 155.323 61.2881 157.088 58.7966C158.881 56.3052 159.778 52.6549 159.778 47.8458C159.778 43.0368 158.881 39.372 157.088 36.8516C155.323 34.3312 152.589 33.071 148.886 33.071C145.125 33.071 142.348 34.3457 140.555 36.8951C138.761 39.4155 137.864 43.0657 137.864 47.8458C137.864 52.6259 138.761 56.2762 140.555 58.7966C142.348 61.2881 145.125 62.5338 148.886 62.5338Z" fill="black"/>
<path d="M117.73 5.56396V70.1388H107.012V5.56396H117.73Z" fill="black"/>
</svg>
