
<svg width="120" height="32" viewBox="0 0 120 32" fill="none" xmlns="http://www.w3.org/2000/svg">
<path d="M0 10.6749V3.86995H0.755C0.835 3.86995 0.903333 3.88828 0.96 3.92495C1.01667 3.96161 1.05333 4.01828 1.07 4.09495L1.17 4.56995C1.37667 4.33328 1.61333 4.14161 1.88 3.99495C2.15 3.84828 2.465 3.77495 2.825 3.77495C3.105 3.77495 3.36 3.83328 3.59 3.94995C3.82333 4.06661 4.02333 4.23661 4.19 4.45995C4.36 4.67995 4.49 4.95328 4.58 5.27995C4.67333 5.60328 4.72 5.97495 4.72 6.39495C4.72 6.77828 4.66833 7.13328 4.565 7.45995C4.46167 7.78661 4.31333 8.06995 4.12 8.30995C3.93 8.54995 3.69833 8.73828 3.425 8.87495C3.155 9.00828 2.85167 9.07495 2.515 9.07495C2.225 9.07495 1.97833 9.03161 1.775 8.94495C1.575 8.85495 1.395 8.73161 1.235 8.57495V10.6749H0ZM2.4 4.74995C2.14333 4.74995 1.92333 4.80495 1.74 4.91495C1.56 5.02161 1.39167 5.17328 1.235 5.36995V7.66995C1.375 7.84328 1.52667 7.96495 1.69 8.03495C1.85667 8.10161 2.035 8.13495 2.225 8.13495C2.41167 8.13495 2.58 8.09995 2.73 8.02995C2.88333 7.95995 3.01167 7.85328 3.115 7.70995C3.22167 7.56661 3.30333 7.38661 3.36 7.16995C3.41667 6.94995 3.445 6.69161 3.445 6.39495C3.445 6.09495 3.42 5.84161 3.37 5.63495C3.32333 5.42495 3.255 5.25495 3.165 5.12495C3.075 4.99495 2.965 4.89995 2.835 4.83995C2.70833 4.77995 2.56333 4.74995 2.4 4.74995Z" fill="black"/>
<path d="M7.9443 3.78995C8.32763 3.78995 8.6743 3.85161 8.9843 3.97495C9.29763 4.09828 9.5643 4.27328 9.7843 4.49995C10.0043 4.72661 10.1743 5.00328 10.2943 5.32995C10.4143 5.65661 10.4743 6.02161 10.4743 6.42495C10.4743 6.83161 10.4143 7.19828 10.2943 7.52495C10.1743 7.85161 10.0043 8.12995 9.7843 8.35995C9.5643 8.58995 9.29763 8.76661 8.9843 8.88995C8.6743 9.01328 8.32763 9.07495 7.9443 9.07495C7.56096 9.07495 7.21263 9.01328 6.8993 8.88995C6.58596 8.76661 6.31763 8.58995 6.0943 8.35995C5.8743 8.12995 5.70263 7.85161 5.5793 7.52495C5.4593 7.19828 5.3993 6.83161 5.3993 6.42495C5.3993 6.02161 5.4593 5.65661 5.5793 5.32995C5.70263 5.00328 5.8743 4.72661 6.0943 4.49995C6.31763 4.27328 6.58596 4.09828 6.8993 3.97495C7.21263 3.85161 7.56096 3.78995 7.9443 3.78995ZM7.9443 8.12495C8.37096 8.12495 8.68596 7.98161 8.8893 7.69495C9.09596 7.40828 9.1993 6.98828 9.1993 6.43495C9.1993 5.88161 9.09596 5.45995 8.8893 5.16995C8.68596 4.87995 8.37096 4.73495 7.9443 4.73495C7.51096 4.73495 7.19096 4.88161 6.9843 5.17495C6.77763 5.46495 6.6743 5.88495 6.6743 6.43495C6.6743 6.98495 6.77763 7.40495 6.9843 7.69495C7.19096 7.98161 7.51096 8.12495 7.9443 8.12495Z" fill="black"/>
<path d="M10.9129 3.86995H11.8929C11.9862 3.86995 12.0646 3.89161 12.1279 3.93495C12.1912 3.97828 12.2312 4.03328 12.2479 4.09995L12.9829 6.83995C13.0229 6.98995 13.0546 7.13661 13.0779 7.27995C13.1046 7.42328 13.1296 7.56661 13.1529 7.70995C13.1896 7.56661 13.2279 7.42328 13.2679 7.27995C13.3112 7.13661 13.3562 6.98995 13.4029 6.83995L14.2529 4.08995C14.2729 4.02328 14.3129 3.96828 14.3729 3.92495C14.4329 3.88161 14.5029 3.85995 14.5829 3.85995H15.1279C15.2179 3.85995 15.2929 3.88161 15.3529 3.92495C15.4129 3.96828 15.4529 4.02328 15.4729 4.08995L16.3129 6.88995C16.3562 7.03328 16.3946 7.17328 16.4279 7.30995C16.4646 7.44328 16.4996 7.57828 16.5329 7.71495C16.5562 7.57161 16.5812 7.42828 16.6079 7.28495C16.6379 7.14161 16.6746 6.99328 16.7179 6.83995L17.4779 4.09995C17.4946 4.03328 17.5346 3.97828 17.5979 3.93495C17.6612 3.89161 17.7346 3.86995 17.8179 3.86995H18.7529L17.1279 8.99995H16.1329C16.0262 8.99995 15.9496 8.92661 15.9029 8.77995L14.9779 5.81495C14.9479 5.71828 14.9196 5.62161 14.8929 5.52495C14.8696 5.42495 14.8496 5.32661 14.8329 5.22995C14.8129 5.32995 14.7912 5.42995 14.7679 5.52995C14.7446 5.62661 14.7179 5.72495 14.6879 5.82495L13.7529 8.77995C13.7062 8.92661 13.6162 8.99995 13.4829 8.99995H12.5379L10.9129 3.86995Z" fill="black"/>
<path d="M21.668 3.78995C21.9914 3.78995 22.288 3.84161 22.558 3.94495C22.8314 4.04828 23.0664 4.19995 23.263 4.39995C23.4597 4.59661 23.613 4.83995 23.723 5.12995C23.833 5.41661 23.888 5.74495 23.888 6.11495C23.888 6.20828 23.883 6.28661 23.873 6.34995C23.8664 6.40995 23.8514 6.45828 23.828 6.49495C23.808 6.52828 23.7797 6.55328 23.743 6.56995C23.7064 6.58328 23.6597 6.58995 23.603 6.58995H20.433C20.4697 7.11661 20.6114 7.50328 20.858 7.74995C21.1047 7.99661 21.4314 8.11995 21.838 8.11995C22.038 8.11995 22.2097 8.09661 22.353 8.04995C22.4997 8.00328 22.6264 7.95161 22.733 7.89495C22.843 7.83828 22.938 7.78661 23.018 7.73995C23.1014 7.69328 23.1814 7.66995 23.258 7.66995C23.308 7.66995 23.3514 7.67995 23.388 7.69995C23.4247 7.71995 23.4564 7.74828 23.483 7.78495L23.843 8.23495C23.7064 8.39495 23.553 8.52995 23.383 8.63995C23.213 8.74661 23.0347 8.83328 22.848 8.89995C22.6647 8.96328 22.4764 9.00828 22.283 9.03495C22.093 9.06161 21.908 9.07495 21.728 9.07495C21.3714 9.07495 21.0397 9.01661 20.733 8.89995C20.4264 8.77995 20.1597 8.60495 19.933 8.37495C19.7064 8.14161 19.528 7.85495 19.398 7.51495C19.268 7.17161 19.203 6.77495 19.203 6.32495C19.203 5.97495 19.2597 5.64661 19.373 5.33995C19.4864 5.02995 19.648 4.76161 19.858 4.53495C20.0714 4.30495 20.3297 4.12328 20.633 3.98995C20.9397 3.85661 21.2847 3.78995 21.668 3.78995ZM21.693 4.67495C21.333 4.67495 21.0514 4.77661 20.848 4.97995C20.6447 5.18328 20.5147 5.47161 20.458 5.84495H22.778C22.778 5.68495 22.7564 5.53495 22.713 5.39495C22.6697 5.25161 22.603 5.12661 22.513 5.01995C22.423 4.91328 22.3097 4.82995 22.173 4.76995C22.0364 4.70661 21.8764 4.67495 21.693 4.67495Z" fill="black"/>
<path d="M24.9898 8.99995V3.86995H25.7148C25.8415 3.86995 25.9298 3.89328 25.9798 3.93995C26.0298 3.98661 26.0632 4.06661 26.0798 4.17995L26.1548 4.79995C26.3382 4.48328 26.5532 4.23328 26.7998 4.04995C27.0465 3.86661 27.3232 3.77495 27.6298 3.77495C27.8832 3.77495 28.0932 3.83328 28.2598 3.94995L28.0998 4.87495C28.0898 4.93495 28.0682 4.97828 28.0348 5.00495C28.0015 5.02828 27.9565 5.03995 27.8998 5.03995C27.8498 5.03995 27.7815 5.02828 27.6948 5.00495C27.6082 4.98161 27.4932 4.96995 27.3498 4.96995C27.0932 4.96995 26.8732 5.04161 26.6898 5.18495C26.5065 5.32495 26.3515 5.53161 26.2248 5.80495V8.99995H24.9898Z" fill="black"/>
<path d="M31.2919 3.78995C31.6152 3.78995 31.9119 3.84161 32.1819 3.94495C32.4552 4.04828 32.6902 4.19995 32.8869 4.39995C33.0835 4.59661 33.2369 4.83995 33.3469 5.12995C33.4569 5.41661 33.5119 5.74495 33.5119 6.11495C33.5119 6.20828 33.5069 6.28661 33.4969 6.34995C33.4902 6.40995 33.4752 6.45828 33.4519 6.49495C33.4319 6.52828 33.4035 6.55328 33.3669 6.56995C33.3302 6.58328 33.2835 6.58995 33.2269 6.58995H30.0569C30.0935 7.11661 30.2352 7.50328 30.4819 7.74995C30.7285 7.99661 31.0552 8.11995 31.4619 8.11995C31.6619 8.11995 31.8335 8.09661 31.9769 8.04995C32.1235 8.00328 32.2502 7.95161 32.3569 7.89495C32.4669 7.83828 32.5619 7.78661 32.6419 7.73995C32.7252 7.69328 32.8052 7.66995 32.8819 7.66995C32.9319 7.66995 32.9752 7.67995 33.0119 7.69995C33.0485 7.71995 33.0802 7.74828 33.1069 7.78495L33.4669 8.23495C33.3302 8.39495 33.1769 8.52995 33.0069 8.63995C32.8369 8.74661 32.6585 8.83328 32.4719 8.89995C32.2885 8.96328 32.1002 9.00828 31.9069 9.03495C31.7169 9.06161 31.5319 9.07495 31.3519 9.07495C30.9952 9.07495 30.6635 9.01661 30.3569 8.89995C30.0502 8.77995 29.7835 8.60495 29.5569 8.37495C29.3302 8.14161 29.1519 7.85495 29.0219 7.51495C28.8919 7.17161 28.8269 6.77495 28.8269 6.32495C28.8269 5.97495 28.8835 5.64661 28.9969 5.33995C29.1102 5.02995 29.2719 4.76161 29.4819 4.53495C29.6952 4.30495 29.9535 4.12328 30.2569 3.98995C30.5635 3.85661 30.9085 3.78995 31.2919 3.78995ZM31.3169 4.67495C30.9569 4.67495 30.6752 4.77661 30.4719 4.97995C30.2685 5.18328 30.1385 5.47161 30.0819 5.84495H32.4019C32.4019 5.68495 32.3802 5.53495 32.3369 5.39495C32.2935 5.25161 32.2269 5.12661 32.1369 5.01995C32.0469 4.91328 31.9335 4.82995 31.7969 4.76995C31.6602 4.70661 31.5002 4.67495 31.3169 4.67495Z" fill="black"/>
<path d="M38.2237 8.99995C38.0637 8.99995 37.9587 8.92495 37.9087 8.77495L37.8087 8.27995C37.702 8.39995 37.5903 8.50828 37.4737 8.60495C37.357 8.70161 37.2303 8.78495 37.0937 8.85495C36.9603 8.92495 36.8153 8.97828 36.6587 9.01495C36.5053 9.05495 36.3387 9.07495 36.1587 9.07495C35.8787 9.07495 35.622 9.01661 35.3887 8.89995C35.1553 8.78328 34.9537 8.61495 34.7837 8.39495C34.617 8.17161 34.487 7.89661 34.3937 7.56995C34.3037 7.24328 34.2587 6.86995 34.2587 6.44995C34.2587 6.06995 34.3103 5.71661 34.4137 5.38995C34.517 5.06328 34.6653 4.77995 34.8587 4.53995C35.052 4.29995 35.2837 4.11328 35.5537 3.97995C35.8237 3.84328 36.127 3.77495 36.4637 3.77495C36.7503 3.77495 36.9953 3.82161 37.1987 3.91495C37.402 4.00495 37.5837 4.12661 37.7437 4.27995V1.56995H38.9787V8.99995H38.2237ZM36.5787 8.09495C36.8353 8.09495 37.0537 8.04161 37.2337 7.93495C37.4137 7.82828 37.5837 7.67661 37.7437 7.47995V5.17995C37.6037 5.00995 37.4503 4.88995 37.2837 4.81995C37.1203 4.74995 36.9437 4.71495 36.7537 4.71495C36.567 4.71495 36.397 4.74995 36.2437 4.81995C36.0937 4.88995 35.9653 4.99661 35.8587 5.13995C35.7553 5.27995 35.6753 5.45995 35.6187 5.67995C35.562 5.89661 35.5337 6.15328 35.5337 6.44995C35.5337 6.74995 35.557 7.00495 35.6037 7.21495C35.6537 7.42161 35.7237 7.59161 35.8137 7.72495C35.9037 7.85495 36.0137 7.94995 36.1437 8.00995C36.2737 8.06661 36.4187 8.09495 36.5787 8.09495Z" fill="black"/>
<path d="M42.4654 8.99995V1.56995H43.7004V4.49995C43.9037 4.28328 44.1337 4.11161 44.3904 3.98495C44.6471 3.85495 44.9471 3.78995 45.2904 3.78995C45.5704 3.78995 45.8254 3.84828 46.0554 3.96495C46.2887 4.07828 46.4887 4.24495 46.6554 4.46495C46.8254 4.68495 46.9554 4.95661 47.0454 5.27995C47.1387 5.60328 47.1854 5.97495 47.1854 6.39495C47.1854 6.77828 47.1337 7.13328 47.0304 7.45995C46.9271 7.78661 46.7787 8.06995 46.5854 8.30995C46.3954 8.54995 46.1637 8.73828 45.8904 8.87495C45.6204 9.00828 45.3171 9.07495 44.9804 9.07495C44.8237 9.07495 44.6804 9.05828 44.5504 9.02495C44.4204 8.99495 44.3021 8.95161 44.1954 8.89495C44.0887 8.83828 43.9887 8.76995 43.8954 8.68995C43.8054 8.60661 43.7187 8.51495 43.6354 8.41495L43.5804 8.75995C43.5604 8.84661 43.5254 8.90828 43.4754 8.94495C43.4287 8.98161 43.3637 8.99995 43.2804 8.99995H42.4654ZM44.8654 4.74995C44.6087 4.74995 44.3887 4.80495 44.2054 4.91495C44.0254 5.02161 43.8571 5.17328 43.7004 5.36995V7.66995C43.8404 7.84328 43.9921 7.96495 44.1554 8.03495C44.3221 8.10161 44.5021 8.13495 44.6954 8.13495C44.8821 8.13495 45.0504 8.09995 45.2004 8.02995C45.3504 7.95995 45.4771 7.85328 45.5804 7.70995C45.6871 7.56661 45.7687 7.38661 45.8254 7.16995C45.8821 6.94995 45.9104 6.69161 45.9104 6.39495C45.9104 6.09495 45.8854 5.84161 45.8354 5.63495C45.7887 5.42495 45.7204 5.25495 45.6304 5.12495C45.5404 4.99495 45.4304 4.89995 45.3004 4.83995C45.1737 4.77995 45.0287 4.74995 44.8654 4.74995Z" fill="black"/>
<path d="M49.9075 10.4099C49.8708 10.4966 49.8225 10.5616 49.7625 10.6049C49.7058 10.6516 49.6175 10.6749 49.4975 10.6749H48.5775L49.5375 8.61995L47.4625 3.86995H48.5425C48.6425 3.86995 48.7192 3.89328 48.7725 3.93995C48.8258 3.98661 48.8658 4.03995 48.8925 4.09995L49.9875 6.75995C50.0242 6.84661 50.0558 6.93661 50.0825 7.02995C50.1092 7.12328 50.1325 7.21661 50.1525 7.30995C50.1792 7.21328 50.2075 7.11995 50.2375 7.02995C50.2708 6.93995 50.3058 6.84828 50.3425 6.75495L51.3725 4.09995C51.3992 4.03328 51.4425 3.97828 51.5025 3.93495C51.5658 3.89161 51.6358 3.86995 51.7125 3.86995H52.7025L49.9075 10.4099Z" fill="black"/>
<g clip-path="url(#clip0)">
<path d="M112.513 17.0006H114.71V27.1964H119.491V28.9992H112.513V17.0006Z" fill="black"/>
<path d="M102.644 25.6013L101.615 28.9992H99.2716L103.193 17.0006H105.973L109.851 28.9992H107.517L106.437 25.6013H102.644ZM106.055 23.9457L105.114 20.9944C104.887 20.2675 104.687 19.4437 104.512 18.752H104.477C104.302 19.4437 104.12 20.2846 103.91 20.9944L102.986 23.9457H106.055Z" fill="black"/>
<path d="M93.1611 18.8327H89.7598V17.0006H98.7779V18.8327H95.3424V28.9992H93.1611V18.8327Z" fill="black"/>
<path d="M68.1847 17.0006H65.9773V28.9992H68.1847V17.0006Z" fill="black"/>
<path d="M81.0617 28.3388C79.8518 28.7688 78.5786 28.9921 77.2952 28.9992C75.3145 28.9992 73.8276 28.495 72.7179 27.4283C71.6754 26.4331 71.0694 24.8793 71.0864 23.1027C71.0864 19.3862 73.7252 17.0006 77.5942 17.0006C79.038 17.0006 80.1648 17.3031 80.7046 17.5582L80.226 19.2925C79.5858 19.0091 78.7992 18.7883 77.5701 18.7883C75.0677 18.7883 73.3169 20.2725 73.3169 23.011C73.3169 25.6799 74.9473 27.268 77.3815 27.268C78.142 27.268 78.7139 27.1671 78.9958 27.027V24.103H76.9289V22.408H81.0628L81.0617 28.3388Z" fill="black"/>
<path d="M86.9263 17.0006H84.719V28.9992H86.9263V17.0006Z" fill="black"/>
<path d="M53.026 17.2406C54.1489 17.0721 55.2831 16.9919 56.4183 17.0006C58.5996 17.0006 60.1077 17.4544 61.1823 18.3628C62.307 19.2874 62.9973 20.7262 62.9973 22.7297C62.9973 24.8199 62.295 26.3867 61.1823 27.398C60.0234 28.4598 58.1652 28.9992 55.8976 28.9992C54.6534 28.9992 53.7163 28.974 53.026 28.8883V17.2406ZM55.1561 27.2176C55.5467 27.2635 55.94 27.2807 56.3331 27.269C59.1023 27.2861 60.7478 25.7566 60.7478 22.7811C60.7649 20.1868 59.2739 18.6623 56.606 18.6623C56.1175 18.6509 55.6292 18.6912 55.1491 18.7823V27.2176H55.1561Z" fill="black"/>
<path d="M50.0652 22.8809C50.0652 26.781 47.7173 28.9992 44.5257 28.9992C41.2668 28.9992 39.2079 26.4956 39.2079 23.0846C39.2079 19.5123 41.4373 17.0006 44.6972 17.0006C48.0745 17.0006 50.0672 19.5717 50.0672 22.8809H50.0652ZM41.4383 23.0594C41.4383 25.4188 42.6203 27.3022 44.6491 27.3022C46.6929 27.3022 47.8407 25.4016 47.8407 22.9747C47.8407 20.7847 46.7601 18.7147 44.6491 18.7147C42.5551 18.7147 41.4383 20.6577 41.4383 23.0594" fill="black"/>
<path d="M36.3563 17.0006H34.1489V28.9992H36.3563V17.0006Z" fill="black"/>
<path d="M22.5 17.0015H26.0448C27.6944 17.0015 28.8763 17.2445 29.6108 17.7214C30.3452 18.1983 30.7074 18.9626 30.7074 20.0031C30.7074 20.7089 30.5258 21.2877 30.1716 21.7555C29.8175 22.2234 29.2907 22.5107 28.6175 22.6317V22.7104C29.4553 22.8667 30.0763 23.1782 30.4656 23.6471C30.8549 24.1159 31.0616 24.7491 31.0616 25.5467C31.0616 26.6225 30.6904 27.4735 29.9399 28.0805C29.1894 28.6875 28.1519 29 26.8164 29H22.502L22.5 17.0015ZM24.4505 21.9552H26.3328C27.1522 21.9552 27.7479 21.8251 28.1198 21.565C28.5001 21.3048 28.6807 20.8592 28.6807 20.2371C28.6807 19.6734 28.474 19.2661 28.0786 19.014C27.6833 18.7619 27.0251 18.6329 26.1452 18.6329H24.4505V21.9552ZM24.4505 23.5513V27.3515H26.5224C27.3432 27.3515 27.9562 27.1952 28.3706 26.8837C28.785 26.5721 28.9917 26.0679 28.9917 25.3914C28.9917 24.7663 28.776 24.3065 28.3536 24.003C27.9312 23.6995 27.283 23.5553 26.4191 23.5553L24.4505 23.5513Z" fill="black"/>
<path fill-rule="evenodd" clip-rule="evenodd" d="M16.5 30.3817C16.5 31.2762 15.7772 32 14.8881 32H8.5V24H14.8881C15.7772 24 16.4994 24.7179 16.4994 25.6118L16.5 30.3817Z" fill="black"/>
<path fill-rule="evenodd" clip-rule="evenodd" d="M16.5 20.4081C16.5 21.3045 15.7772 22 14.8881 22H8.5V14H14.8881C15.7772 14 16.5 14.7061 16.5 15.6012V20.4081Z" fill="#DE3838"/>
<path fill-rule="evenodd" clip-rule="evenodd" d="M6.80554 14H2.09675C0.943321 14 0.0558956 15.1567 0.0558956 16.5866L0.055542 32H4.71528C5.86841 32 6.80554 30.8409 6.80554 29.4102V14Z" fill="black"/>
</g>
<defs>
<clipPath id="clip0">
<rect width="119.5" height="18" fill="white" transform="translate(0 14)"/>
</clipPath>
</defs>
</svg>
