<?xml version="1.0" encoding="UTF-8"?>
<svg width="100px" height="70px" viewBox="0 0 100 70" version="1.1" xmlns="http://www.w3.org/2000/svg" xmlns:xlink="http://www.w3.org/1999/xlink">
    <!-- Generator: Sketch 58 (84663) - https://sketch.com -->
    <title>help-keyboard-rotate</title>
    <desc>Created with Sketch.</desc>
    <g id="Widget-S1-R5" stroke="none" stroke-width="1" fill="none" fill-rule="evenodd">
        <g id="Widget-S2-R5-/-Help-2" transform="translate(-105.000000, -349.000000)">
            <g id="Keyboard" transform="translate(97.000000, 351.000000)">
                <g id="Group-13">
                    <g id="Keyboard-Rotate" transform="translate(10.000000, 0.000000)">
                        <g id="up" transform="translate(34.000000, 0.000000)">
                            <rect id="Rectangle" fill="#969696" x="0" y="3" width="28" height="28" rx="2"></rect>
                            <rect id="Rectangle" fill="#F9FAFD" x="0" y="1" width="28" height="28" rx="2"></rect>
                            <rect id="Rectangle" fill="#FFFFFF" x="0" y="0" width="28" height="28" rx="2"></rect>
                            <g id="Icon/Caret-Down" transform="translate(14.000000, 16.000000) rotate(180.000000) translate(-14.000000, -16.000000) translate(10.000000, 12.000000)" fill="#1C2A3F">
                                <path d="M0.537041765,2 L7.44442432,2 C7.92227666,2 8.16120284,2.57718121 7.82294781,2.91543624 L4.37059881,6.3704698 C4.16120284,6.57986577 3.82026324,6.57986577 3.61086727,6.3704698 L0.158518275,2.91543624 C-0.179736758,2.57718121 0.0591894161,2 0.537041765,2 Z" id="Path"></path>
                            </g>
                        </g>
                        <g id="left" transform="translate(0.000000, 35.000000)">
                            <rect id="Rectangle" fill="#969696" x="0" y="3" width="28" height="28" rx="2"></rect>
                            <rect id="Rectangle" fill="#F9FAFD" x="0" y="1" width="28" height="28" rx="2"></rect>
                            <rect id="Rectangle" fill="#FFFFFF" x="0" y="0" width="28" height="28" rx="2"></rect>
                            <g id="Icon/Caret-Down" transform="translate(14.000000, 15.000000) rotate(90.000000) translate(-14.000000, -15.000000) translate(10.000000, 11.000000)" fill="#1C2A3F">
                                <path d="M0.537041765,2 L7.44442432,2 C7.92227666,2 8.16120284,2.57718121 7.82294781,2.91543624 L4.37059881,6.3704698 C4.16120284,6.57986577 3.82026324,6.57986577 3.61086727,6.3704698 L0.158518275,2.91543624 C-0.179736758,2.57718121 0.0591894161,2 0.537041765,2 Z" id="Path"></path>
                            </g>
                        </g>
                        <g id="bottom" transform="translate(34.000000, 35.000000)">
                            <rect id="Rectangle" fill="#969696" x="0" y="3" width="28" height="28" rx="2"></rect>
                            <rect id="Rectangle" fill="#F9FAFD" x="0" y="1" width="28" height="28" rx="2"></rect>
                            <rect id="Rectangle" fill="#FFFFFF" x="0" y="0" width="28" height="28" rx="2"></rect>
                            <g id="Icon/Caret-Down" transform="translate(10.000000, 11.000000)" fill="#1C2A3F">
                                <path d="M0.537041765,2 L7.44442432,2 C7.92227666,2 8.16120284,2.57718121 7.82294781,2.91543624 L4.37059881,6.3704698 C4.16120284,6.57986577 3.82026324,6.57986577 3.61086727,6.3704698 L0.158518275,2.91543624 C-0.179736758,2.57718121 0.0591894161,2 0.537041765,2 Z" id="Path"></path>
                            </g>
                        </g>
                        <g id="right" transform="translate(68.000000, 35.000000)">
                            <rect id="Rectangle" fill="#969696" x="0" y="3" width="28" height="28" rx="2"></rect>
                            <rect id="Rectangle" fill="#F9FAFD" x="0" y="1" width="28" height="28" rx="2"></rect>
                            <rect id="Rectangle" fill="#FFFFFF" x="0" y="0" width="28" height="28" rx="2"></rect>
                            <g id="Icon/Caret-Down" transform="translate(14.000000, 15.000000) rotate(-90.000000) translate(-14.000000, -15.000000) translate(10.000000, 11.000000)" fill="#1C2A3F">
                                <path d="M0.537041765,2 L7.44442432,2 C7.92227666,2 8.16120284,2.57718121 7.82294781,2.91543624 L4.37059881,6.3704698 C4.16120284,6.57986577 3.82026324,6.57986577 3.61086727,6.3704698 L0.158518275,2.91543624 C-0.179736758,2.57718121 0.0591894161,2 0.537041765,2 Z" id="Path"></path>
                            </g>
                        </g>
                    </g>
                </g>
            </g>
            <g id="Mouse" transform="translate(88.000000, 137.000000)">
                <g id="Group-11">
                    <g id="Slices" transform="translate(17.000000, 0.000000)"></g>
                </g>
            </g>
        </g>
    </g>
</svg>