<?xml version="1.0" encoding="UTF-8"?>
<svg width="168px" height="70px" viewBox="0 0 168 70" version="1.1" xmlns="http://www.w3.org/2000/svg" xmlns:xlink="http://www.w3.org/1999/xlink">
    <!-- Generator: Sketch 58 (84663) - https://sketch.com -->
    <title>help-keyboard-zoom</title>
    <desc>Created with Sketch.</desc>
    <g id="Widget-S1-R5" stroke="none" stroke-width="1" fill="none" fill-rule="evenodd">
        <g id="Widget-S2-R5-/-Help-2" transform="translate(-472.000000, -353.000000)">
            <g id="Keyboard" transform="translate(97.000000, 351.000000)">
                <g id="Group-15" transform="translate(379.000000, 37.000000)">
                    <g id="Group-17">
                        <g id="Group-7" transform="translate(99.000000, 0.000000)">
                            <g id="A">
                                <rect id="Rectangle" fill="#969696" x="0" y="3" width="28" height="28" rx="2"></rect>
                                <rect id="Rectangle" fill="#F9FAFD" x="0" y="1" width="28" height="28" rx="2"></rect>
                                <rect id="Rectangle" fill="#FFFFFF" x="0" y="0" width="28" height="28" rx="2"></rect>
                                <polygon id="E" fill="#1C2A3F" fill-rule="nonzero" points="10.8607955 20 10.8607955 11.2727273 16.5369318 11.2727273 16.5369318 12.5980114 12.4417614 12.5980114 12.4417614 14.9673295 16.2428977 14.9673295 16.2428977 16.2926136 12.4417614 16.2926136 12.4417614 18.6747159 16.5710227 18.6747159 16.5710227 20"></polygon>
                            </g>
                            <g id="S" transform="translate(34.000000, 0.000000)">
                                <rect id="Rectangle" fill="#969696" x="0" y="3" width="28" height="28" rx="2"></rect>
                                <rect id="Rectangle" fill="#F9FAFD" x="0" y="1" width="28" height="28" rx="2"></rect>
                                <rect id="Rectangle" fill="#FFFFFF" x="0" y="0" width="28" height="28" rx="2"></rect>
                                <path d="M17.3309659,14.2173295 L15.7372159,14.2173295 C15.6463064,13.6945997 15.4105133,13.2897742 15.0298295,13.0028409 C14.6491458,12.7159077 14.1931845,12.5724432 13.6619318,12.5724432 C12.9488601,12.5724432 12.3650591,12.8366451 11.9105114,13.3650568 C11.4559636,13.8934686 11.2286932,14.6505633 11.2286932,15.6363636 C11.2286932,16.6363686 11.4566739,17.3970144 11.912642,17.9183239 C12.3686102,18.4396333 12.9502806,18.7002841 13.6576705,18.7002841 C14.1804003,18.7002841 14.6328106,18.5617912 15.0149148,18.2848011 C15.397019,18.0078111 15.6377836,17.6136389 15.7372159,17.1022727 L17.3309659,17.1107955 C17.2514201,17.6676164 17.051138,18.1732932 16.7301136,18.6278409 C16.4090893,19.0823886 15.9865083,19.4446009 15.462358,19.7144886 C14.9382076,19.9843763 14.3295489,20.1193182 13.6363636,20.1193182 C12.8693143,20.1193182 12.1846621,19.9410529 11.5823864,19.584517 C10.9801106,19.2279812 10.5056836,18.7152022 10.1590909,18.0461648 C9.81249827,17.3771273 9.63920455,16.5738683 9.63920455,15.6363636 C9.63920455,14.696018 9.81391871,13.8913386 10.1633523,13.2223011 C10.5127858,12.5532637 10.9893436,12.041195 11.5930398,11.6860795 C12.196736,11.3309641 12.8778371,11.1534091 13.6363636,11.1534091 C14.2812532,11.1534091 14.8657644,11.2741465 15.3899148,11.515625 C15.9140651,11.7571035 16.3465892,12.1058216 16.6875,12.5617898 C17.0284108,13.017758 17.2428973,13.569599 17.3309659,14.2173295 Z" id="C" fill="#1C2A3F" fill-rule="nonzero"></path>
                            </g>
                        </g>
                        <text id="or" font-family="InterUI-Medium, Inter UI" font-size="12" font-weight="400" letter-spacing="0.4" fill="#FFFFFF">
                            <tspan x="74" y="18">or</tspan>
                        </text>
                        <g id="Keyboard-Rotate">
                            <g id="left">
                                <rect id="Rectangle" fill="#969696" x="0" y="3" width="28" height="28" rx="2"></rect>
                                <rect id="Rectangle" fill="#F9FAFD" x="0" y="1" width="28" height="28" rx="2"></rect>
                                <rect id="Rectangle" fill="#FFFFFF" x="0" y="0" width="28" height="28" rx="2"></rect>
                                <g id="Icon/Minus" transform="translate(10.000000, 11.000000)" fill="#1C2A3F">
                                    <path d="M7.42857143,3.33333333 L0.571428571,3.33333333 C0.255892857,3.33333333 0,3.58922619 0,3.9047619 L0,4.47619048 C0,4.79172619 0.255892857,5.04761905 0.571428571,5.04761905 L7.42857143,5.04761905 C7.74410714,5.04761905 8,4.79172619 8,4.47619048 L8,3.9047619 C8,3.58922619 7.74410714,3.33333333 7.42857143,3.33333333 Z" id="Path"></path>
                                </g>
                            </g>
                            <g id="bottom" transform="translate(34.000000, 0.000000)">
                                <rect id="Rectangle" fill="#969696" x="0" y="3" width="28" height="28" rx="2"></rect>
                                <rect id="Rectangle" fill="#F9FAFD" x="0" y="1" width="28" height="28" rx="2"></rect>
                                <rect id="Rectangle" fill="#FFFFFF" x="0" y="0" width="28" height="28" rx="2"></rect>
                                <g id="Icon/Plus" transform="translate(10.000000, 11.000000)" fill="#1C2A3F">
                                    <path d="M7.42857143,3.14285714 L4.85714286,3.14285714 L4.85714286,0.571428571 C4.85714286,0.255892857 4.60125,0 4.28571429,0 L3.71428571,0 C3.39875,0 3.14285714,0.255892857 3.14285714,0.571428571 L3.14285714,3.14285714 L0.571428571,3.14285714 C0.255892857,3.14285714 0,3.39875 0,3.71428571 L0,4.28571429 C0,4.60125 0.255892857,4.85714286 0.571428571,4.85714286 L3.14285714,4.85714286 L3.14285714,7.42857143 C3.14285714,7.74410714 3.39875,8 3.71428571,8 L4.28571429,8 C4.60125,8 4.85714286,7.74410714 4.85714286,7.42857143 L4.85714286,4.85714286 L7.42857143,4.85714286 C7.74410714,4.85714286 8,4.60125 8,4.28571429 L8,3.71428571 C8,3.39875 7.74410714,3.14285714 7.42857143,3.14285714 Z" id="Path"></path>
                                </g>
                            </g>
                        </g>
                    </g>
                </g>
            </g>
            <g id="Mouse" transform="translate(88.000000, 137.000000)">
                <g id="Group-11">
                    <g id="Slices" transform="translate(17.000000, 0.000000)"></g>
                </g>
            </g>
        </g>
    </g>
</svg>