<?xml version="1.0" encoding="UTF-8"?>
<svg width="100px" height="100px" viewBox="0 0 100 100" version="1.1" xmlns="http://www.w3.org/2000/svg" xmlns:xlink="http://www.w3.org/1999/xlink">
    <!-- Generator: Sketch 58 (84663) - https://sketch.com -->
    <title>pan</title>
    <desc>Created with Sketch.</desc>
    <g id="Widget-Finish-Line" stroke="none" stroke-width="1" fill="none" fill-rule="evenodd">
        <g id="Viewer-Help" transform="translate(-127.000000, -243.000000)">
            <g id="Pan-Heart" transform="translate(128.000000, 247.000000)">
                <g id="Heart" transform="translate(56.963056, 46.000000) rotate(17.000000) translate(-56.963056, -46.000000) translate(30.463056, 6.000000)" fill="#FFFFFF">
                    <path d="M9.38911755,23.5460728 C9.38911755,23.5460728 6.29434371,26.7677406 6.54325187,33.8955379 C6.5608304,34.3989211 -0.901927332,40.19984 0.360625311,47.3573886 C1.01234191,51.4636096 2.71703358,55.3237887 5.30282108,58.5487149 C5.30282108,58.5487149 9.13798869,43.2587303 20.7657953,36.9322967 C21.5099889,36.533514 9.29411763,35.2987645 9.38911755,23.5460728 Z M29.8238811,30.2408425 C29.8238811,30.2408425 29.3029585,36.3379882 36.6043638,36.4063242 C38.200812,36.4198538 35.7833512,27.9830493 29.8238811,30.2408425 Z" id="Aorta" fill-opacity="0.6"></path>
                    <path d="M19.2032272,36.3436802 C19.2032272,36.3436802 7.3977006,36.6485549 5.01020081,53.657645 C3.83075561,62.0699974 10.1238987,73.9217752 24.6805412,78.129777 C39.2371837,82.3377788 47.4960688,78.129777 47.4960688,78.129777 C49.6977979,76.8070461 51.1524452,74.5468737 51.4321672,72.014026 C51.8225469,67.806937 54.9548137,62.8212307 49.0705081,47.551022 C46.2252581,40.1637425 36.6281919,33.7869311 31.7590581,33.7869311 C31.3668326,33.7869311 25.9070534,23.5453302 30.9718385,20.0228402 C31.4547219,19.6909184 31.9855212,19.433035 32.5462778,19.2579149 L32.5462778,14.6665377 C32.5462778,14.6665377 25.347786,13.4798994 22.3170364,22.3121392 C21.9220422,23.4586143 17.2014927,26.13494 20.742597,32.250691 C20.742597,32.250691 14.8582914,29.8354257 19.1681576,17.7225876 C21.7586918,10.4612743 30.1883103,12.3726747 30.1883103,12.3726747 L30.1883103,6.25692369 L26.2531348,6.25692369 L24.6842327,0.141172702 C23.9085149,-0.0470575673 23.0982915,-0.0470575673 22.3225737,0.141172702 C20.5967814,0.78013176 20.7536716,1.67011045 20.7536716,1.67011045 L21.5408913,6.25692369 L20.7472114,6.25692369 L19.172772,1.66737205 C18.3944398,1.50191172 17.5894453,1.50191172 16.811113,1.66737205 C16.2544,1.84897141 15.7262642,2.10708096 15.2422109,2.43412292 L16.811113,9.31479918 L14.4531455,10.8473881 L12.0905635,5.49199842 C11.5302158,5.31354381 10.9239071,5.33846319 10.3804603,5.56228391 C8.8410905,6.24323171 8.94445346,7.02184896 8.94445346,7.02184896 L12.0905635,13.9025252 C12.0905635,13.9025252 1.49770595,31.5067601 19.2032272,36.3436802 Z"></path>
                </g>
                <g id="arrows" transform="translate(0.000000, 33.755859)" fill="#2D72DC">
                    <path d="M12.2925,0.244140625 L1.77635684e-15,8.49414063 L12.2925,17.3203906 L12.2925,11.0128906 L26.325,11.5903906 C26.0579437,8.36547531 27.8178592,5.31276391 30.7425,3.92789063 C30.95875,4.16539063 12.2925,6.55289063 12.2925,6.55289063 L12.2925,0.244140625 Z" id="arrow_left"></path>
                    <path d="M80.2925,0.244140625 L68,8.49414063 L80.2925,17.3203906 L80.2925,11.0128906 L94.325,11.5903906 C94.0579437,8.36547531 95.8178592,5.31276391 98.7425,3.92789063 C98.95875,4.16539063 80.2925,6.55289063 80.2925,6.55289063 L80.2925,0.244140625 Z" id="arrow_left" transform="translate(83.372182, 8.782266) scale(1, -1) rotate(-180.000000) translate(-83.372182, -8.782266) "></path>
                </g>
            </g>
        </g>
    </g>
</svg>