<?xml version="1.0" encoding="UTF-8"?>
<svg width="86px" height="82px" viewBox="0 0 86 82" version="1.1" xmlns="http://www.w3.org/2000/svg" xmlns:xlink="http://www.w3.org/1999/xlink">
    <!-- Generator: Sketch 58 (84663) - https://sketch.com -->
    <title>help-trackpad-single-tap</title>
    <desc>Created with Sketch.</desc>
    <g id="Widget-S1-R5" stroke="none" stroke-width="1" fill="none" fill-rule="evenodd">
        <g id="Widget-S2-R5-/-Help-2" transform="translate(-169.000000, -557.000000)">
            <g id="Trackpad" transform="translate(150.000000, 559.000000)">
                <g id="Group-18">
                    <g id="Group-10" transform="translate(21.000000, 0.000000)">
                        <rect id="Rectangle" fill="#E6E6E6" x="0" y="0" width="82" height="62" rx="4"></rect>
                        <g id="TAP" transform="translate(23.414634, 20.000000)">
                            <path d="M7.71300117,22.4747332 C7.26350225,22.3385483 5.97286178,22.2130447 5.03736996,22.2130447 C2.92338987,22.2130447 1.33456695,23.8846466 1.01324197,26.874482 C1.01324197,26.874482 0.592226151,29.9773598 0.526358982,34.0451025 C0.439129488,39.3251572 1.37996189,41.6732327 3.48059052,44.707573 C6.3645044,48.8723363 12.351296,53.6174427 12.351296,53.6174427 L32.2079108,53.6174427 C34.6734161,50.6103455 36.3122171,47.6403889 37.1243136,44.707573 C38.3424585,40.3083491 38.3424585,37.2611261 38.3424585,34.0543595 C38.3424585,30.8475929 38.4077672,24.7752776 37.2060495,22.2130447 C36.4049043,20.5048894 34.7388581,19.8060483 32.2079108,20.1165214 C31.8576621,17.2990671 30.5121124,15.8903399 28.1712619,15.8903399 C26.452639,15.8903399 25.498208,16.2390633 25.3079688,16.9365101 C24.4030796,14.692128 23.2267978,13.4799185 21.7791234,13.2998816 C20.3314489,13.1198447 18.7090214,13.3587478 16.9118407,14.0165911 L16.822831,4.68116253 C16.822831,1.92613467 15.4341983,0.548620747 12.6569329,0.548620747 C9.87966754,0.548620747 8.47339603,1.92613467 8.4381184,4.68116253 L8.44009896,22.5290783" id="Stroke-12" stroke="#6E737B" fill="#FFFFFF" stroke-linecap="round" stroke-linejoin="round"></path>
                            <rect id="Rectangle" fill="#FFFFFF" x="12.4613563" y="51.7463939" width="19.5821313" height="6.23067814"></rect>
                            <g id="Group" transform="translate(8.440099, 0.548621)" stroke="#6E737B">
                                <path d="M8.34526689,25.202203 L8.34526689,3.91019558 C8.34526689,1.56122992 7.2072194,0 4.24569961,0 C1.28504526,0 0.145266892,1.56122992 0.145266892,3.91019558 L0.145266892,35.3319107" id="Stroke-6"></path>
                                <path d="M23.4117421,28.6191959 L23.4117421,20.9643627 C23.4117421,17.7261903 22.6905939,15.6495943 19.9617421,15.3772246 C17.6527137,15.1466896 16.5117421,16.1142249 16.5117421,16.1142249" id="Stroke-8"></path>
                                <path d="M23.7678119,19.6956187 C28.0100136,18.9844313 29.3469391,21.3093643 29.5801445,25.0264089 C29.8160202,28.7434534 29.9023596,30.7648634 29.9023596,35.4538938 C29.9023596,46.7670251 23.6894833,53.262062 23.6894833,53.262062" id="Stroke-10"></path>
                                <path d="M16.8678699,25.9932321 L16.8678699,18.8964897 C16.8678699,15.6592073 15.9920146,12.7512608 12.6577117,12.7512608 C9.82542339,12.7512608 8.44488314,13.4891511 8.44488314,13.4891511" id="Stroke-14"></path>
                            </g>
                        </g>
                        <path d="M26.3423631,23.729649 C26.3423631,18.3561341 30.6993874,14 36.0720121,14 C41.445527,14 45.8016611,18.3561341 45.8016611,23.729649" id="Stroke-16" stroke="#2D72DC" stroke-width="2" stroke-linecap="round"></path>
                    </g>
                </g>
            </g>
            <g id="Mouse" transform="translate(88.000000, 137.000000)">
                <g id="Group-11">
                    <g id="Slices" transform="translate(17.000000, 0.000000)"></g>
                </g>
            </g>
        </g>
    </g>
</svg>