<svg width="14" height="14" viewBox="0 0 14 14" fill="none" xmlns="http://www.w3.org/2000/svg">
<g id="cube-regular" clip-path="url(#clip0_1272_13197)">
<path id="Vector" d="M7.07109 1.78745C7.02539 1.76968 6.97461 1.76968 6.92637 1.78745L2.11484 3.61304L7 5.53257L11.8852 3.61304L7.07109 1.78745ZM1.71875 10.0953C1.71875 10.1791 1.77207 10.2552 1.85078 10.2857L6.39062 12.0072V6.60405L1.71875 4.76831V10.0953ZM7.60938 12.0072L12.1492 10.2857C12.2279 10.2552 12.2812 10.1791 12.2812 10.0953V4.76831L7.60938 6.60405V12.0072ZM6.49473 0.649951C6.81973 0.525537 7.17773 0.525537 7.50273 0.649951L12.5809 2.5771C13.1344 2.7853 13.5 3.31343 13.5 3.90503V10.0953C13.5 10.6869 13.1344 11.215 12.5834 11.4257L7.50527 13.3529C7.18027 13.4773 6.82227 13.4773 6.49727 13.3529L1.41914 11.4257C0.865625 11.215 0.5 10.6869 0.5 10.0953V3.90503C0.5 3.31343 0.865625 2.7853 1.4166 2.57456L6.49473 0.647412V0.649951Z" fill="#374A68"/>
</g>
<defs>
<clipPath id="clip0_1272_13197">
<rect width="13" height="13" fill="white" transform="translate(0.5 0.5)"/>
</clipPath>
</defs>
</svg>
