<svg width="48" height="48" viewBox="0 0 48 48" fill="none" xmlns="http://www.w3.org/2000/svg">
<g clip-path="url(#clip0_311_8785)">
<path d="M33.9559 25.7788L35.1559 42.7739C35.1565 43.2186 34.9802 43.6453 34.6657 43.9597C34.3513 44.2741 33.9246 44.4505 33.48 44.4498H33.4718C32.99 44.4463 32.532 44.2395 32.2108 43.8804L26.3085 36.0946C25.9971 35.7429 25.5498 35.5415 25.08 35.5414H25.0068C23.2096 35.5414 21.7526 34.0845 21.7526 32.2872V26.5924L33.9559 25.7788Z" fill="#C4455E"/>
<path d="M43.4843 29.2776C43.4843 32.717 40.0377 35.5109 35.7844 35.5109C35.1685 35.5139 34.5541 35.4524 33.951 35.3276C33.1874 35.1783 32.4474 34.9267 31.7511 34.5796C30.242 33.8796 29.0529 32.6355 28.4218 31.0963L34.6844 22.311L43.015 27.1363V27.1437C43.325 27.8123 43.4851 28.5406 43.4843 29.2776Z" fill="#C4455E"/>
<path d="M45.1748 16.9274C44.7051 16.6222 44.1922 16.3891 43.6534 16.2359C43.6697 16.1301 43.6778 16.0325 43.686 15.9267C43.7022 15.6664 43.7185 15.406 43.7185 15.1457C43.6818 10.4103 39.9624 6.52323 35.2332 6.27798C35.1355 6.18035 35.0298 6.09086 34.924 6.00137C33.302 4.59017 31.2245 3.81292 29.0746 3.81292C27.9609 3.81608 26.8576 4.02573 25.8204 4.43122H25.8122C25.3049 4.01616 24.7333 3.68643 24.12 3.45495C23.3683 3.14959 22.564 2.9948 21.7526 2.99937C20.7618 2.99619 19.7839 3.22463 18.897 3.66648C18.3631 3.92839 17.8676 4.26235 17.4245 4.65901L17.4164 4.66715C17.3513 4.62647 17.2781 4.58579 17.2049 4.54511C14.9268 3.25667 12.0622 3.70101 10.2815 5.619C9.86818 6.0506 9.52995 6.54831 9.28086 7.09153C9.10188 7.07526 8.9229 7.06713 8.73578 7.06713C5.59171 7.06982 3.04361 9.61792 3.04092 12.762C3.04092 12.8189 3.04906 12.8922 3.04906 12.9491V12.9654C0.579261 14.6709 -0.13401 18.0054 1.42195 20.5721C1.42195 20.5802 1.42195 20.5802 1.43009 20.5884C1.42195 20.6941 1.41382 20.7917 1.41382 20.8975C1.41215 21.6371 1.52466 22.3725 1.74737 23.0778V23.086C2.63191 25.9129 5.13432 27.927 8.08494 28.1869C8.30109 28.2101 8.51839 28.221 8.73578 28.2195C9.06512 28.2156 9.3939 28.1912 9.72018 28.1463C9.75272 28.2764 9.78526 28.4147 9.81781 28.5449C9.83408 28.6181 9.85848 28.6913 9.87475 28.7564C9.99541 29.1516 10.1506 29.5355 10.3385 29.9035C10.4198 30.0662 10.5093 30.2289 10.607 30.3917C11.9357 32.5761 14.3063 33.9109 16.8632 33.9143H16.8713C18.9248 33.9155 20.8835 33.0499 22.2651 31.5306C22.6353 31.1283 22.96 30.6863 23.2333 30.2127V30.2045C23.4123 30.3022 23.5912 30.3917 23.7702 30.473C23.793 30.4872 23.8176 30.4982 23.8434 30.5056C28.4929 32.6484 34.0098 31.1422 36.9254 26.9341C37.2562 26.4699 37.5448 25.9771 37.7877 25.4615C37.7877 25.4534 37.7959 25.4534 37.7959 25.4453C39.2541 27.1365 41.5662 27.8195 43.7093 27.1919C45.8524 26.5644 47.431 24.7421 47.7466 22.5314C48.0622 20.3207 47.0567 18.1296 45.1748 16.9274Z" fill="#F26674"/>
<path fill-rule="evenodd" clip-rule="evenodd" d="M46.8761 24.8421C46.1626 23.6924 44.8721 23.396 44.8056 23.3815C44.6841 23.3547 44.557 23.3772 44.4521 23.4442C44.3473 23.5111 44.2734 23.6169 44.2466 23.7384C44.2198 23.8598 44.2423 23.987 44.3093 24.0918C44.3762 24.1966 44.482 24.2706 44.6035 24.2974C44.6566 24.3095 45.8059 24.5841 46.2366 25.65C46.4735 25.4008 46.6876 25.1304 46.8761 24.8421Z" fill="#C4455E"/>
<path fill-rule="evenodd" clip-rule="evenodd" d="M44.6674 16.6343C44.8413 16.723 45.0107 16.8208 45.1747 16.9274C45.3919 17.0662 45.5975 17.2181 45.7907 17.3817C45.7919 17.5326 45.7904 17.7412 45.7893 17.8887C45.789 17.9325 45.7887 17.9709 45.7886 18.0009C45.782 19.3017 44.7669 20.3002 43.8402 20.8558C43.8237 20.8657 43.807 20.8755 43.7905 20.885C43.4646 21.0765 43.1095 21.2133 42.7393 21.29C41.0868 21.6226 40.3012 20.5314 40.1032 19.8763C39.8305 19.2431 39.5595 19.1403 39.5192 19.1284C39.3844 19.12 39.2581 19.0596 39.1668 18.96C39.0756 18.8604 39.0265 18.7294 39.0298 18.5943C39.0332 18.4593 39.0888 18.3308 39.1849 18.2359C39.281 18.141 39.4102 18.087 39.5453 18.0854C39.7004 18.0824 40.5053 18.1394 41.0768 19.4982C41.0856 19.519 41.0929 19.5402 41.0988 19.5619C41.1451 19.7136 41.4358 20.4874 42.5331 20.2666C42.8056 20.2094 43.0662 20.1057 43.3035 19.9601C43.4398 19.8784 44.6733 18.9968 44.6967 17.9435C44.7065 17.5848 44.6996 17.0447 44.6674 16.6343Z" fill="#C4455E"/>
<path opacity="0.9" fill-rule="evenodd" clip-rule="evenodd" d="M9.28094 7.09134C9.95435 7.4902 12.0121 9.03042 12.1883 9.85932C12.2685 10.2655 12.2537 10.6848 12.145 11.0843C12.0362 11.4839 11.8365 11.8528 11.5615 12.1624C11.4442 12.2975 11.317 12.4237 11.1809 12.5398C11.0594 12.6501 10.9856 12.8033 10.9751 12.967C10.9646 13.1307 11.0181 13.2921 11.1244 13.417C11.2307 13.542 11.3814 13.6207 11.5447 13.6365C11.7079 13.6524 11.871 13.6041 11.9993 13.5019C12.1834 13.3449 12.3556 13.1744 12.5144 12.9918C12.8871 12.5678 13.1652 12.0692 13.33 11.5293C13.4948 10.9893 13.5427 10.4205 13.4703 9.86057C13.8853 9.83135 14.288 9.70736 14.6475 9.49814C15.0071 9.28893 15.3139 9.00004 15.5443 8.65371C15.5938 8.58554 15.6292 8.50815 15.6484 8.4261C15.6675 8.34405 15.6701 8.259 15.6559 8.17595C15.6417 8.0929 15.611 8.01353 15.5657 7.94251C15.5203 7.87149 15.4613 7.81025 15.3919 7.76241C15.3226 7.71456 15.2443 7.68107 15.1618 7.66391C15.0793 7.64675 14.9943 7.64627 14.9116 7.66249C14.8289 7.6787 14.7503 7.7113 14.6804 7.75835C14.6105 7.8054 14.5507 7.86595 14.5046 7.93645C14.3448 8.16717 14.1261 8.35088 13.8712 8.4685C13.6164 8.58611 13.3347 8.63335 13.0555 8.60529C12.8351 8.21858 10.8143 6.4158 10.0509 5.87939C10.0415 5.88951 10.032 5.89964 10.0226 5.90981C9.72532 6.26921 9.47585 6.66635 9.28094 7.09134Z" fill="#C4455E"/>
<path fill-rule="evenodd" clip-rule="evenodd" d="M43.2236 12.2739C42.4301 12.1723 41.259 11.4615 40.5053 10.8372C39.7365 10.3425 37.7691 9.73763 36.0494 11.2762C35.9851 11.3265 35.9327 11.3882 35.8955 11.4573C35.8582 11.5265 35.8369 11.6018 35.8327 11.6786C35.8285 11.7555 35.8416 11.8323 35.8711 11.9044C35.9386 12.0501 36.0655 12.1665 36.2254 12.2297C36.3853 12.2929 36.566 12.2978 36.7298 12.2435C36.7343 12.2422 36.7548 12.2263 36.789 12.1997C37.101 11.9573 38.5596 10.8236 39.5725 11.6626C40.7733 12.6575 42.5782 13.3902 43.542 13.4382C43.4617 13.04 43.3549 12.6513 43.2236 12.2739Z" fill="#C4455E"/>
<path d="M28.1124 25.9653C26.9666 26.4559 25.6915 26.5572 24.4825 26.2537C22.3752 25.7563 20.2362 25.8745 19.1488 25.9898C18.9724 26.0108 18.8114 26.1004 18.7006 26.2392C18.5898 26.378 18.5382 26.5548 18.5568 26.7314C18.5755 26.9081 18.663 27.0702 18.8004 27.1828C18.9377 27.2953 19.1139 27.3493 19.2907 27.3329C20.2928 27.227 22.2595 27.1168 24.1722 27.5682C24.7398 27.7035 25.3212 27.7723 25.9046 27.7734C26.8517 27.7763 27.789 27.5815 28.6566 27.2015C30.0948 26.5843 31.4078 25.7088 32.5305 24.6184C32.551 24.6001 32.5704 24.5806 32.5886 24.56C33.4904 23.6592 35.3936 21.9717 35.7743 20.2965C35.8069 20.214 35.8228 20.1259 35.8213 20.0372C35.8197 19.9485 35.8008 19.861 35.7654 19.7796C35.7301 19.6983 35.679 19.6247 35.6152 19.5631C35.5514 19.5014 35.4761 19.453 35.3936 19.4205C35.3111 19.3879 35.223 19.372 35.1343 19.3735C35.0456 19.375 34.9581 19.394 34.8767 19.4294C34.7954 19.4647 34.7218 19.5158 34.6601 19.5796C34.5985 19.6434 34.5501 19.7187 34.5175 19.8012C33.9882 21.1442 33.2159 21.6959 32.702 22.2831C32.5305 20.8482 31.2519 19.8778 30.9587 19.5865C30.8249 19.4664 30.6489 19.4043 30.4694 19.4135C30.2898 19.4227 30.1211 19.5026 30.0003 19.6358C29.9409 19.7011 29.895 19.7776 29.8653 19.8608C29.8355 19.9439 29.8226 20.0322 29.8271 20.1204C29.8316 20.2086 29.8536 20.295 29.8917 20.3747C29.9298 20.4544 29.9833 20.5257 30.0491 20.5846C30.0714 20.6064 32.1125 22.2831 31.4665 23.7712C30.4849 24.6924 29.3498 25.435 28.1124 25.9653Z" fill="#C4455E"/>
<path d="M5.09153 14.7644C5.08343 14.7691 5.07584 14.7734 5.06803 14.7785C3.37739 15.8464 3.13637 17.7624 3.6011 19.2114C3.70197 19.5257 4.0381 19.6982 4.35186 19.5977C4.67068 19.4942 4.8387 19.1607 4.73812 18.8469C4.42164 17.861 4.53573 16.5268 5.70588 15.7877C5.98468 15.6117 6.06747 15.243 5.89154 14.9642C5.72073 14.6932 5.36693 14.6072 5.09153 14.7644Z" fill="#C4455E"/>
<path d="M18.7211 31.3007C18.713 31.3057 18.7054 31.3103 18.6969 31.3147C16.908 32.2911 14.3854 31.7546 13.3253 30.6225C13.0955 30.3769 13.1084 29.992 13.3534 29.7625C13.6036 29.5298 13.9839 29.5455 14.2135 29.7906C14.9347 30.5611 16.8761 30.9222 18.1143 30.2465C18.4092 30.0854 18.7787 30.1944 18.9397 30.4893C19.0964 30.7757 18.9976 31.1334 18.7211 31.3007Z" fill="#C4455E"/>
<path fill-rule="evenodd" clip-rule="evenodd" d="M9.2777 28.1945C9.27772 28.1849 9.27774 28.175 9.27776 28.1651C9.29976 27.2993 9.37532 25.8104 9.66632 24.9465C9.69175 24.8968 9.71037 24.8439 9.72167 24.7893C10.218 23.468 11.2421 22.0863 13.3334 21.4977C13.3344 21.4978 13.3352 21.4973 13.3361 21.4968C13.3368 21.4964 13.3374 21.496 13.3381 21.4958C13.3662 21.487 13.3937 21.4762 13.4203 21.4635C13.4248 21.4615 13.4294 21.4597 13.434 21.458C13.4411 21.4553 13.4482 21.4526 13.4547 21.449C13.4762 21.4368 13.497 21.4234 13.5169 21.4087C13.522 21.4053 13.5272 21.402 13.5324 21.3988C13.541 21.3935 13.5496 21.3883 13.5574 21.382C13.5751 21.3665 13.592 21.3501 13.608 21.3328C13.6099 21.3308 13.6118 21.3289 13.6138 21.327C13.6165 21.3244 13.6193 21.3219 13.6221 21.3193L13.6221 21.3193C13.6296 21.3124 13.637 21.3055 13.6435 21.2978C13.6616 21.2753 13.6782 21.2515 13.6932 21.2266C13.6956 21.2228 13.6983 21.2191 13.7011 21.2154L13.7011 21.2154C13.705 21.2101 13.7089 21.2048 13.7121 21.199C13.7223 21.1788 13.7314 21.1581 13.7394 21.137C13.7404 21.1346 13.7415 21.1321 13.7426 21.1297C13.7441 21.1264 13.7456 21.1231 13.7472 21.1198C13.7522 21.1089 13.7573 21.0979 13.7611 21.0864C13.7648 21.0754 13.7666 21.0659 13.7683 21.0566L13.7683 21.0566C13.7694 21.051 13.7705 21.0454 13.7719 21.0396C13.7787 21.0148 13.7839 20.9896 13.7876 20.9641C13.7877 20.9621 13.7877 20.9602 13.7887 20.9582C13.9802 19.1365 14.88 18.642 14.9373 18.6122C15.0877 18.5415 15.2039 18.4142 15.2606 18.258C15.3174 18.1018 15.31 17.9296 15.2401 17.7788C15.1701 17.6281 15.0434 17.5112 14.8875 17.4536C14.7317 17.396 14.5595 17.4025 14.4084 17.4716C14.3469 17.4995 12.9781 18.1464 12.5957 20.4119C11.7241 20.6916 10.9242 21.1584 10.2519 21.7796C9.57959 22.4009 9.0512 23.1615 8.70368 24.0083C7.82882 23.9358 6.99089 23.6235 6.28194 23.1057C6.21569 23.0553 6.14009 23.0186 6.05953 22.9976C5.97897 22.9767 5.89505 22.9719 5.81264 22.9837C5.73023 22.9954 5.65097 23.0234 5.57946 23.066C5.50796 23.1086 5.44562 23.165 5.39608 23.2319C5.34654 23.2988 5.31078 23.3749 5.29086 23.4557C5.27095 23.5365 5.26729 23.6205 5.28009 23.7027C5.29289 23.785 5.3219 23.8639 5.36543 23.9348C5.40896 24.0058 5.46614 24.0674 5.53367 24.1161C6.34614 24.7133 7.29698 25.0945 8.29704 25.2238C8.09924 26.0154 8.00631 27.3177 8.02049 28.181C8.04193 28.1831 8.06339 28.1851 8.08488 28.187C8.30103 28.2102 8.51833 28.221 8.73572 28.2195C8.91666 28.2174 9.09742 28.209 9.2777 28.1945Z" fill="#C4455E"/>
<path fill-rule="evenodd" clip-rule="evenodd" d="M25.8746 4.41027C25.5247 4.99483 25.1887 5.89248 25.1887 6.52328C25.1887 6.91874 25.2335 7.25957 25.2705 7.54138L25.2705 7.5414C25.2755 7.58007 25.2805 7.61762 25.2851 7.65404L25.2861 7.66066C25.3943 8.41243 25.399 8.44511 24.8096 8.70132C24.4498 8.85556 24.0515 8.89409 23.6275 8.93263C22.6444 9.01616 21.3081 9.13827 21.0896 11.2264C21.051 11.5797 21.3081 11.8946 21.6614 11.9331C21.671 11.9331 21.6823 11.9347 21.6935 11.9363L21.6935 11.9363C21.7048 11.9379 21.716 11.9395 21.7256 11.9395C22.0533 11.9395 22.3296 11.689 22.3681 11.3613C22.4707 10.3232 22.7905 10.2949 23.7292 10.2119L23.7366 10.2112C24.225 10.1662 24.7711 10.1148 25.3172 9.87709C26.8142 9.23459 26.6793 8.29654 26.5572 7.47415L26.5458 7.38724V7.38722C26.5103 7.11906 26.4737 6.84209 26.4737 6.52328C26.4737 6.20203 26.753 5.06182 27.1707 4.88835C27.5597 4.72756 28.1077 4.49563 28.531 3.83093C27.6222 3.88846 26.7265 4.08353 25.8746 4.41027Z" fill="#C4455E"/>
<path d="M26.7168 15.4551C25.5421 15.6086 24.5668 15.9425 23.8172 16.4461C23.3767 16.7428 23.024 17.1521 22.7956 17.6316C22.5673 18.111 22.4718 18.6429 22.519 19.1718C22.6848 20.7928 24.2733 21.0817 24.341 21.0932C24.4957 21.1195 24.6337 21.2058 24.7251 21.3334C24.8164 21.461 24.8536 21.6195 24.8286 21.7744C24.8037 21.9289 24.7185 22.0673 24.5917 22.1592C24.465 22.2511 24.3069 22.2889 24.1523 22.2643C23.2701 22.1249 21.5468 21.3242 21.3388 19.2926C21.3041 18.9473 21.3138 18.599 21.3676 18.2562C20.3193 17.9997 19.8199 17.0738 19.7947 17.0258C19.7209 16.8869 19.7053 16.7243 19.7513 16.5739C19.7974 16.4235 19.9013 16.2975 20.0402 16.2237C20.1791 16.1499 20.3417 16.1343 20.4921 16.1803C20.6425 16.2264 20.7685 16.3303 20.8423 16.4692C20.9373 16.6308 21.0644 16.7712 21.2156 16.8819C21.3668 16.9926 21.5391 17.0712 21.7218 17.1129C22.0441 16.4445 22.5391 15.8743 23.1555 15.4612C24.0585 14.8536 25.2045 14.4563 26.5632 14.2781C26.851 14.2404 27.1364 14.1866 27.4181 14.117C28.5455 13.4368 28.197 12.4589 28.1813 12.4173C28.126 12.2701 28.1314 12.1069 28.1963 11.9636C28.2613 11.8203 28.3805 11.7087 28.5278 11.6534C28.675 11.598 28.8382 11.6034 28.9815 11.6684C29.1247 11.7334 29.2363 11.8526 29.2917 11.9998C29.4347 12.4116 29.4677 12.8535 29.3872 13.2819C30.0325 12.8971 30.6085 12.4065 31.0911 11.8307C31.2682 11.5169 32.009 10.8758 32.4255 11.4646C32.6285 11.7515 32.4255 12.0878 32.009 12.5824C31.2858 13.4411 30.3945 14.1426 29.3899 14.6436C28.5527 15.0671 27.6482 15.3417 26.7168 15.4551Z" fill="#C4455E"/>
</g>
<defs>
<clipPath id="clip0_311_8785">
<rect width="47.4" height="42" fill="white" transform="translate(0.599823 2.99927)"/>
</clipPath>
</defs>
</svg>
