<svg width="80" height="81" viewBox="0 0 80 81" fill="none" xmlns="http://www.w3.org/2000/svg">
<path d="M25.7507 12.0428C23.5001 12.6475 21 7.64746 23.5001 5.64746C25.0889 3.26418 27.6044 3.56888 29.1932 3.83369C30.7821 4.09849 33.5626 7.40861 32.5033 12.0428C31.706 15.5313 31.2837 20.0702 31.0107 23.0049L31.0107 23.0051C30.9211 23.9688 30.8475 24.7595 30.7821 25.2832C30.6865 26.0478 30.6599 27.6404 30.6276 29.5754C30.391 37.4141 31.0107 53.6475 31.7089 58.1195C32.9319 58.1195 34.8866 58.7451 34.8866 61.8268L56.4685 73.346C57.4205 77.2652 54.7819 79.602 52.364 80.0986C48.1712 77.7595 39.5472 72.9223 38.5939 72.2868C37.4023 71.4923 33.4302 68.9766 31.7089 68.447C31.1211 68.2662 30.5488 68.1934 29.9972 68.1233C28.9334 67.988 26.7223 67.5625 25.8504 66.6906C24.5478 65.388 23.676 62.6855 25 60.6475C26.0006 57.1029 25.8504 28.1475 25.7507 12.0428Z" fill="#CBD4DC"/>
<path d="M30.5607 1.0531C31.9455 -0.349476 34.4004 -0.352592 35.4596 1.0531C39.5 6.41511 43.8603 23.6474 44.3603 35.6474C44.736 44.6642 41.8486 57.7618 44.3603 63.711L38.5 60.6474C38 56.6474 35.2607 50.0934 34.4004 38.8813C33.5 27.1474 33.3412 20.5166 34.4004 15.6176C35.2478 11.6984 34.7535 8.07054 34.4004 6.74649C34.1797 5.68726 33.3941 3.51582 32.0171 3.30398C30.6401 3.09213 29.9592 2.13345 30.5607 1.0531Z" fill="#F26674"/>
</svg>
