<svg width="80" height="80" viewBox="0 0 80 80" fill="none" xmlns="http://www.w3.org/2000/svg">
<path d="M57.7541 36.1375C57.7541 36.1375 57.6232 36.0065 57.7541 36.1375C57.0994 34.9591 55.921 32.2095 55.5282 30.2455C55.1354 28.4124 54.4808 26.7103 53.1714 25.401C53.1714 25.401 53.1714 25.401 53.0405 25.401C52.6477 25.0082 52.3858 24.6154 52.3858 24.0917C51.993 22.7823 51.4693 20.0327 51.2074 17.9378C51.0765 15.3192 49.1125 13.3552 46.3629 12.9624C46.3629 12.9624 44.268 11.3912 42.6968 11.2602L42.304 8.51064C42.304 8.51064 43.2205 7.07038 43.3515 6.15385C43.3515 6.15385 44.5299 5.36825 43.3515 4.05892C43.3515 4.05892 44.1371 0.392799 40.0781 0C36.0192 0.392799 36.8048 4.05892 36.8048 4.05892C35.6264 5.49918 36.8048 6.15385 36.8048 6.15385C36.9358 7.07038 37.8523 8.51064 37.8523 8.51064L37.1976 11.2602C35.7574 11.3912 33.5315 12.9624 33.5315 12.9624C30.7819 13.3552 28.8179 15.3192 28.687 17.9378C28.5561 20.0327 27.9014 22.7823 27.5086 24.0917C27.3777 24.6154 27.1158 25.0082 26.8539 25.401C26.8539 25.401 26.8539 25.401 26.723 25.401C25.4137 26.7103 24.759 28.5434 24.3662 30.2455C23.9734 32.0786 22.6641 34.8282 22.1403 36.0065C22.1403 36.0065 22.1403 36.0065 22.1403 36.1375C21.7475 36.6612 19.7835 39.5417 22.1403 40.0655C23.0569 40.3273 23.5806 40.0655 23.9734 39.8036C24.2353 39.5417 24.3662 39.2799 24.3662 39.018C24.4971 38.4943 24.4971 37.9705 24.4971 37.9705C24.4971 37.4468 24.6281 37.054 24.759 36.6612C24.8899 36.1375 25.1518 35.7447 25.5446 35.3519C28.4251 31.6858 29.4726 29.198 29.8654 27.6268C30.2582 26.1866 30.9128 24.7463 31.4366 23.437C32.0912 21.9967 32.3531 21.0802 32.3531 20.2946C32.3531 20.0327 32.7459 20.0327 32.7459 20.2946C34.0552 24.0917 33.5315 29.7218 33.0078 32.6023C32.7459 33.5188 32.484 34.5663 32.3531 35.4828C30.3891 40.982 30.7819 49.0998 31.3056 53.8134C31.4366 55.6465 31.3056 57.4795 30.9128 59.1817C29.9963 62.7169 30.2582 70.8347 30.52 74.108C30.52 75.1555 30.3891 76.072 29.8654 76.9885L29.2107 78.1669C28.0323 80 29.4726 80 29.4726 80H32.484C33.1387 80 33.6624 79.4763 33.6624 78.8216C33.5315 73.9771 34.0552 70.4419 34.3171 69.1326C34.448 68.7398 34.579 68.347 34.7099 67.9542C35.6264 65.5974 35.8883 61.0147 35.8883 59.1817C35.8883 58.7889 36.0192 58.3961 36.1502 58.0033C40.0781 46.874 39.8163 41.2439 39.8163 41.2439H39.9472H40.2091C40.2091 41.2439 40.0781 46.874 43.8752 58.0033C44.0061 58.3961 44.1371 58.7889 44.1371 59.1817C44.1371 60.8838 44.268 65.5974 45.3155 67.9542C45.4464 68.347 45.5773 68.7398 45.7083 69.1326C45.9701 70.4419 46.6248 74.108 46.3629 78.8216C46.3629 79.4763 46.8867 80 47.5413 80H50.4218C50.4218 80 51.7312 80 50.6837 78.1669L50.029 76.9885C49.5053 76.072 49.3744 75.1555 49.3744 74.108C49.5053 70.7038 49.8981 62.7169 48.9816 59.1817C48.5888 57.3486 48.4579 55.5155 48.5888 53.8134C48.9816 49.0998 49.3744 40.982 47.5413 35.4828C47.2795 34.5663 47.0176 33.5188 46.8867 32.6023C46.4939 29.7218 45.9701 24.2226 47.1485 20.2946C47.2795 20.0327 47.5413 20.1637 47.5413 20.2946C47.6723 20.9493 47.9341 21.9967 48.4579 23.437C49.1125 24.7463 49.6362 26.1866 50.029 27.6268C50.4218 29.0671 51.4693 31.6858 54.3498 35.3519C54.6117 35.7447 54.8736 36.1375 55.1354 36.6612C55.2664 37.054 55.3973 37.4468 55.3973 37.9705C55.3973 38.2324 55.5282 38.6252 55.5282 39.018C55.5282 39.2799 55.7901 39.5417 55.921 39.8036C56.3138 40.0655 56.8376 40.3273 57.7541 40.0655C60.1109 39.5417 58.1469 36.5303 57.7541 36.1375Z" fill="#F26674"/>
</svg>
