<svg width="80" height="80" viewBox="0 0 80 80" fill="none" xmlns="http://www.w3.org/2000/svg">
<path d="M16.6648 57.4857C16.6648 61.8522 27.3028 66.3919 40.4148 66.3919C53.5267 66.3919 64.1648 61.8522 64.1648 57.4857L62.2722 39.5L44.6824 45.8581C43.3093 46.3529 41.862 46.6003 40.4148 46.6003C38.9675 46.6003 37.5079 46.3529 36.1472 45.8581L18.5574 39.5L16.6648 57.4857Z" fill="#425B72"/>
<path d="M40.4167 11C39.4148 11 38.4252 11.1732 37.4851 11.5072L2.78786 24.0378C1.61273 24.4707 0.833435 25.584 0.833435 26.8333C0.833435 28.0827 1.61273 29.1959 2.78786 29.6289L9.94997 32.2142L17.7306 34.9974L37.4727 42.1224C38.4128 42.4564 39.4024 42.6295 40.4044 42.6295C41.4063 42.6295 42.3959 42.4564 43.336 42.1224L78.0456 29.6289C79.2208 29.2083 80.0001 28.0827 80.0001 26.8333C80.0001 25.584 79.2208 24.4707 78.0456 24.0378L43.3484 11.5072C42.4083 11.1732 41.4187 11 40.4167 11Z" fill="#425B72"/>
<path d="M6.62763 47.4527L6.74906 43.9789C6.92168 41.1835 7.94259 34.8771 10.6453 32.0142C13.3481 29.1513 17.2377 27.1397 18.8446 26.4917C23.6655 24.5478 33.7328 20.5693 35.4354 20.2064C37.5637 19.7527 38.0727 20.2985 38.5817 20.8444C39.0907 21.3903 39.0354 22.9727 37.9621 23.4633C37.1034 23.8557 26.1247 27.9592 20.7427 29.9618C18.2864 30.829 16.1679 32.3021 14.5062 34.1625C11.9745 37.609 10.9172 42.235 10.705 44.1172L10.5987 47.1583C11.2829 48.8284 11.7518 50.6395 12.0861 52.4088C12.7584 55.836 13.1241 60.6017 11.876 65.8556C11.7585 66.3837 11.4206 66.8422 10.9533 67.1106C10.486 67.3789 9.92619 67.4584 9.41173 67.3042L1.56905 65.0497C0.931827 64.8665 0.429035 64.3786 0.228553 63.7404C0.028072 63.1021 0.163531 62.4137 0.577705 61.896C1.69185 60.4744 2.66197 58.924 3.52169 57.345C5.04317 54.539 6.50491 50.9636 6.62763 47.4527Z" fill="#4B94E2"/>
</svg>
