<svg width="80" height="80" viewBox="0 0 80 80" fill="none" xmlns="http://www.w3.org/2000/svg">
<g clip-path="url(#clip0)">
<path d="M43.6413 40.6203C43.6413 40.6203 43.6413 69.037 43.6413 69.5567C43.6413 70.0764 44.4295 71.5316 46.3732 71.5316C48.3066 71.5316 49.1121 70.0764 49.1121 69.5567C49.1121 69.037 49.1121 40.6203 49.1121 40.6203C49.1121 37.7446 49.1121 36.1034 50.2062 34.4621C51.3003 32.8209 52.9416 31.7268 55.1298 31.7268H57.3181L57.318 26.2695C53.7395 26.2695 51.3003 25.7091 47.056 29.8572C45.983 31.2037 44.7772 32.6064 44.1884 34.4621C43.6413 36.6505 43.6415 38.5841 43.6413 40.6203Z" fill="#4B94E2"/>
<path d="M36.3072 40.6203C36.3072 40.6203 36.3072 69.037 36.3072 69.5567C36.3072 70.0764 35.519 71.5316 33.5753 71.5316C31.6419 71.5316 30.8364 70.0764 30.8364 69.5567C30.8364 69.037 30.8364 40.6203 30.8364 40.6203C30.8364 37.7446 30.8364 36.1034 29.7423 34.4621C28.6481 32.8209 27.0069 31.7268 24.8187 31.7268H22.6304L22.6305 26.2695C26.209 26.2695 28.6481 25.7091 32.8925 29.8572C33.9655 31.2037 35.1713 32.6064 35.76 34.4621C36.3072 36.6505 36.307 38.5841 36.3072 40.6203Z" fill="#C4455E"/>
<path d="M21.1169 35.9209C22.3748 37.2042 23.2255 38.8306 23.562 40.5958C23.8985 42.361 23.7059 44.1864 23.0084 45.8425C22.3109 47.4986 21.1396 48.9117 19.6415 49.9042C18.1435 50.8968 16.3855 51.4245 14.5885 51.4212C14.5885 51.4212 0 53.2447 0 29.5384C0 19.527 3.4283 14.4757 7.16661 11.941C14.2785 7.10852 25.5299 9.24209 25.5299 18.597C25.5306 19.8445 25.2752 21.0789 24.7796 22.2238C24.284 23.3687 23.5588 24.3997 22.6487 25.253C23.5602 26.9632 23.9031 28.9193 23.6276 30.8375C23.3522 32.7557 22.4728 34.5363 21.1169 35.9209Z" fill="#F26674"/>
<path d="M58.4493 35.9206C57.1914 37.2039 56.3408 38.8303 56.0042 40.5955C55.6677 42.3608 55.8603 44.1861 56.5578 45.8422C57.2553 47.4983 58.4267 48.9114 59.9247 49.9039C61.4228 50.8965 63.1807 51.4242 64.9777 51.4209C64.9777 51.4209 79.5662 53.2445 79.5662 29.5381C79.5662 7.6553 63.1541 9.47887 63.1541 9.47887C61.3248 9.47785 59.5374 10.0271 58.0244 11.0553C56.5113 12.0835 55.3425 13.543 54.6699 15.2442C53.9973 16.9454 53.852 18.8096 54.2528 20.5945C54.6537 22.3794 55.5821 24.0025 56.9175 25.2527C56.0061 26.9629 55.6632 28.919 55.9386 30.8372C56.214 32.7554 57.0935 34.536 58.4493 35.9206Z" fill="#F26674"/>
</g>
<defs>
<clipPath id="clip0">
<rect width="80" height="62.5641" fill="white" transform="translate(0 9)"/>
</clipPath>
</defs>
</svg>
