<svg width="48" height="48" viewBox="0 0 48 48" fill="none" xmlns="http://www.w3.org/2000/svg">
<path d="M32.9185 40.6702C38.1391 40.6702 42.3713 36.4381 42.3713 31.2174C42.3713 25.9968 38.1391 21.7646 32.9185 21.7646C27.6979 21.7646 23.4657 25.9968 23.4657 31.2174C23.4657 36.4381 27.6979 40.6702 32.9185 40.6702Z" fill="#4B94E2"/>
<path d="M38.2627 33.5048C37.3216 33.5048 36.9499 32.5196 36.6513 31.7278C36.5516 31.3899 36.3966 31.0733 36.1935 30.7924C36.0355 31.0916 35.9016 31.4044 35.7932 31.7275C35.4946 32.5192 35.1229 33.5048 34.1814 33.5048C33.2409 33.5048 32.8695 32.5192 32.5712 31.7271C32.4718 31.3895 32.3172 31.073 32.1146 30.7921C31.9587 31.0919 31.8259 31.4046 31.7174 31.7271C31.4192 32.5192 31.0481 33.5048 30.1075 33.5048C29.167 33.5048 28.7959 32.5192 28.4977 31.7271C28.3982 31.3895 28.2437 31.073 28.0411 30.7921C27.9584 30.7922 27.8765 30.7748 27.8003 30.741C27.724 30.7071 27.6549 30.6574 27.5969 30.5948C27.539 30.5322 27.4934 30.4579 27.4629 30.3764C27.4323 30.2948 27.4174 30.2076 27.419 30.1199C27.4225 29.9393 27.493 29.7675 27.615 29.6417C27.737 29.5159 27.9008 29.4462 28.0709 29.4477C29.0115 29.4477 29.3825 30.4332 29.6808 31.2253C29.7803 31.5629 29.9348 31.8794 30.1374 32.1603C30.293 31.8604 30.4257 31.5477 30.5342 31.2253C30.8326 30.4332 31.2036 29.4477 32.1442 29.4477C33.0847 29.4477 33.4561 30.4332 33.7544 31.2253C33.8538 31.5629 34.0084 31.8794 34.211 32.1603C34.3683 31.8607 34.502 31.5477 34.6106 31.2246C34.9092 30.4329 35.2809 29.4477 36.2221 29.4477C37.1635 29.4477 37.5352 30.4332 37.8338 31.2249C37.9336 31.5627 38.0886 31.8792 38.2917 32.16C38.3744 32.1598 38.4562 32.1772 38.5325 32.2111C38.6088 32.245 38.6779 32.2947 38.7359 32.3573C38.7939 32.4199 38.8395 32.4941 38.8701 32.5757C38.9006 32.6572 38.9156 32.7444 38.914 32.8322C38.9107 33.0127 38.8404 33.1846 38.7185 33.3105C38.5966 33.4364 38.4328 33.5062 38.2627 33.5048Z" fill="white"/>
<path d="M35.7246 9.41079L33.9732 8.24984C33.4411 7.9604 32.8881 7.7155 32.3408 7.51891C31.8468 7.34313 31.3592 7.18857 30.8507 7.06514L28.8889 6.66925C27.6016 6.49405 26.278 6.45633 24.9582 6.56165L23.0982 6.78331C21.6207 7.03676 20.1466 7.4602 18.7027 8.05733L17.034 8.79347C15.8932 9.35725 14.7636 10.0311 13.6658 10.7975C13.2704 11.0693 12.8949 11.3506 12.5261 11.6396L11.1513 12.8024C9.35741 14.4169 7.95017 16.1926 6.93694 18.0965L6.15717 19.7608C5.5911 21.1626 5.24533 22.6418 5.10124 24.1214L5.03568 26.0389C5.08011 27.5034 5.23696 29.5547 5.69979 30.9405C6.17257 32.4638 7.00768 36.0001 9.8998 38.4001C11.2006 39.4796 14.0197 42.0464 18.8998 41.1001C19.7998 40.9256 20.9523 40.1014 21.2956 39.3001C21.8564 37.9913 21.418 36.7809 21.2956 36.4199C20.081 33.6116 19.8796 30.3563 20.9737 27.2419C22.2596 23.5814 25.0638 20.8883 28.4315 19.6208C30.099 18.9933 31.9047 18.7152 33.7325 18.8424C34.9191 18.7821 35.5733 18.8211 36.4915 18.3803C37.4097 17.9395 38.1012 17.1176 38.2689 16.2624C39.2501 13.6499 36.9815 10.6061 35.7246 9.41079Z" fill="#889DAF"/>
</svg>
