<svg width="81" height="80" viewBox="0 0 81 80" fill="none" xmlns="http://www.w3.org/2000/svg">
<g clip-path="url(#clip0_3006_31671)">
<circle cx="33.452" cy="23.6182" r="17.5555" fill="#425B72"/>
<path fill-rule="evenodd" clip-rule="evenodd" d="M80.4999 3.69238C75.9604 4.09188 74.1039 6.12676 71.3164 9.18215C71.1565 9.35741 70.9936 9.53603 70.8269 9.71789C67.3596 13.5004 63.0818 25.5076 59.0959 36.6955C57.2202 41.9603 55.4091 47.0437 53.7776 51.0032C53.7776 51.0032 43.2528 43.0058 39.1919 40.2266C36.3126 38.2561 33.2633 33.9105 30.2851 29.6662C29.0629 27.9244 27.8526 26.1996 26.671 24.6631C21.9625 18.1044 11.1042 27.1309 18.2326 33.1682C22.0988 36.4426 23.049 38.7752 24.4063 42.1071C25.5514 44.9184 26.9864 48.4411 30.7073 53.8412C38.3979 65.0024 47.5725 71.4218 50.0616 73.1634C50.2041 73.2631 50.3247 73.3475 50.4218 73.4165C50.5623 73.5164 50.7034 73.6175 50.8452 73.719C53.6206 75.7069 56.648 77.8752 60.5115 74.9666C61.0003 74.5986 61.5774 74.2186 62.2427 73.7804C65.8022 71.436 71.888 67.4278 80.4999 54.7044V3.69238Z" fill="#F26674"/>
<circle cx="20.8774" cy="22.7314" r="18.7116" fill="#CBD4DC" stroke="white" stroke-width="3.36716"/>
<circle cx="19.5012" cy="22.0764" r="4.77413" fill="white" stroke="white" stroke-width="4.48954"/>
</g>
<defs>
<clipPath id="clip0_3006_31671">
<rect width="80" height="80" fill="white" transform="translate(0.5)"/>
</clipPath>
</defs>
</svg>
