<svg width="48" height="48" viewBox="0 0 48 48" fill="none" xmlns="http://www.w3.org/2000/svg">
<path d="M15.7529 9.21628C21.3253 6.28147 28.5323 7.8046 33.2132 9.21628L30.687 3.56957C28.2658 1.76555 26.0051 0.846633 24.0001 0.82051C20.9845 0.781219 18.5924 2.439 17.4618 3.56957L15.7529 9.21628Z" fill="#384C6C"/>
<path d="M20.582 16.7948C18.1636 12.6424 18.0559 4.64692 19.8019 1.86072C18.6874 2.50464 14.3085 5.24988 12.9293 8.99341C11.2203 13.632 14.9641 20.739 18.0005 25.3503L22.838 20.1378C21.82 18.8778 21.2372 17.9197 20.582 16.7948Z" fill="#408FF1"/>
<path d="M35.5904 43.1709L40.7913 41.6106C38.3274 36.9654 34.688 33.2695 30.3754 28.6503L25.1629 35.5878C28.0522 39.9102 30.5604 44.0671 32.6185 48.0003L35.5904 43.1709Z" fill="#408FF1"/>
<path d="M20.5823 25.4134C17.529 28.7443 12.4094 32.9919 7.2085 41.462L12.4094 43.2451L15.2328 47.8517C15.3814 46.0685 22.0683 36.2611 25.7832 31.3573C29.4982 26.4536 34.1047 20.3611 35.2935 12.9312C36.2445 6.98731 30.4083 2.67798 26.6376 1.32202C33.0273 10.6837 25.486 20.0639 20.5823 25.4134Z" fill="#92C5FD"/>
</svg>
