<svg width="48" height="48" viewBox="0 0 48 48" fill="none" xmlns="http://www.w3.org/2000/svg">
<path d="M34.17 9.3003C33.795 9.2028 25.5375 10.1478 23.67 10.9953C21.615 11.9403 20.3775 16.5003 20.1525 17.4003C20.1084 17.5648 20.1217 17.7393 20.19 17.8953C21.345 20.4378 23.475 21.8853 26.7 22.3203C26.8123 22.3356 26.9266 22.3252 27.0343 22.29C27.142 22.2548 27.2403 22.1956 27.3219 22.1169C27.4034 22.0383 27.4661 21.9421 27.5052 21.8358C27.5443 21.7294 27.5587 21.6156 27.5475 21.5028C27.3923 19.8115 27.6496 18.1078 28.2975 16.5378C29.0475 14.9703 32.295 14.3853 33.5475 14.2878C34.0713 14.1524 34.5444 13.8676 34.9093 13.4681C35.2742 13.0686 35.515 12.5717 35.6025 12.0378C35.6938 11.7642 35.7289 11.475 35.7059 11.1875C35.6828 10.9 35.602 10.6201 35.4682 10.3645C35.3345 10.1089 35.1506 9.88297 34.9275 9.70012C34.7045 9.51727 34.4468 9.38128 34.17 9.3003Z" fill="#408FF1"/>
<path d="M35.9025 22.8829C35.8714 22.8284 35.8336 22.778 35.79 22.7329C34.8963 21.8654 33.7696 21.2766 32.5471 21.0382C31.3246 20.7998 30.0592 20.9222 28.905 21.3904C26.8074 20.9031 24.8103 20.0555 23.0025 18.8854C20.1525 17.0554 15.945 14.9179 12.285 17.4529C8.79002 19.8679 8.23502 28.7029 9.93002 32.0404C11.505 35.1904 16.2675 40.7929 20.73 42.6904C23.4075 43.8229 30.345 46.1779 33.03 45.9229C35.715 45.6679 38.895 40.6729 39.03 34.7179C39.135 28.6729 36.0375 23.1154 35.9025 22.8829Z" fill="#FB7185"/>
<path fill-rule="evenodd" clip-rule="evenodd" d="M27.5138 21.0099C27.9718 21.1544 28.4358 21.2814 28.9048 21.3904C30.059 20.9222 31.3244 20.7998 32.5469 21.0382C33.2248 21.1704 33.8733 21.4103 34.4689 21.7458C34.4386 21.43 34.3793 20.9846 34.2648 20.4793C34.9237 20.0275 36.428 18.9888 36.8098 18.6378C37.2748 18.2103 37.2898 17.0778 36.5473 15.4878C36.4735 15.3263 36.3449 15.1962 36.1842 15.1207C36.0235 15.0452 35.8412 15.0291 35.6698 15.0753L31.3551 16.2381C30.7348 15.8656 30.0849 15.5847 29.5043 15.3907C28.9607 15.6955 28.5195 16.0735 28.2974 16.5378C27.7124 17.9553 27.4458 19.4819 27.5138 21.0099Z" fill="#BE133C"/>
<path fill-rule="evenodd" clip-rule="evenodd" d="M12.3399 35.6576C13.8117 37.4985 15.7003 39.4327 17.6883 40.8997C17.51 41.5086 17.2394 42.4359 16.8299 43.8679C16.5749 44.7679 14.7824 44.5954 13.8749 44.3929C13.3211 44.2683 12.8102 43.9993 12.3939 43.6134C11.9777 43.2274 11.671 42.7382 11.5049 42.1954C11.4994 42.1757 11.4945 42.1587 11.4905 42.1415C11.4409 41.9274 11.5312 41.681 12.3399 35.6576Z" fill="#408FF1"/>
<path d="M33.316 32.7018C32.3683 33.0022 31.3531 33.0175 30.3968 32.7458C30.5319 34.1255 30.1973 35.5104 29.4471 36.6762C29.3191 36.8523 29.1303 36.9746 28.9173 37.0195C28.7043 37.0643 28.4822 37.0286 28.2941 36.9192C28.1059 36.8098 27.965 36.6345 27.8986 36.4272C27.8322 36.2199 27.8451 35.9953 27.9347 35.7969C29.3768 33.3877 28.4975 31.5324 27.1434 28.9033C26.308 29.6595 25.165 30.9696 25.7453 32.1215C25.8407 32.3291 25.8515 32.5658 25.7754 32.7812C25.6993 32.9967 25.5423 33.1741 25.3377 33.2758C25.1331 33.3776 24.8969 33.3957 24.6792 33.3263C24.4615 33.2569 24.2794 33.1054 24.1714 32.9041C22.9228 30.3981 25.2793 28.1031 26.4399 27.1974C25.9387 25.0959 27.5101 21.0004 27.5101 21.0004C27.5101 21.0004 28.1854 21.0127 28.515 21.1074C28.8447 21.2022 29.0401 21.3304 29.0401 21.3304C29.0401 21.3304 27.7589 26.1774 28.1985 27.1359C28.8469 28.3002 29.4339 29.4977 29.9571 30.7234C30.839 31.1639 31.8489 31.2761 32.806 31.0399C33.014 31.0094 33.226 31.0543 33.4036 31.1666C33.5813 31.2788 33.7128 31.451 33.7745 31.6519C33.8362 31.8528 33.8238 32.0692 33.7397 32.2618C33.6556 32.4544 33.5053 32.6105 33.316 32.7018Z" fill="#BE133C"/>
<path d="M17.7652 32.4309C17.9375 31.6125 17.9832 30.78 17.9003 29.9714C21.6732 28.9168 20.0553 26.4837 18.9741 27.4663C18.5274 27.8692 18.0054 28.1421 17.4605 28.2577C17.1302 27.4755 16.6979 26.699 16.1656 26.0859C15.5921 26.4176 15.1436 26.5859 14.5725 27.0073C14.63 27.2052 14.8466 27.3602 15.3676 28.0464C17.3572 30.9159 15.365 32.7335 16.6538 33.1858C16.7632 33.2261 16.8814 33.2379 17.0002 33.2204C17.119 33.2029 17.2354 33.1566 17.3413 33.0846C17.4473 33.0127 17.5401 32.9169 17.6133 32.804C17.6865 32.691 17.7384 32.5637 17.7652 32.4309Z" fill="#BE133C"/>
<path fill-rule="evenodd" clip-rule="evenodd" d="M21.6224 18.923C21.1349 23.513 16.5674 26.3855 13.7924 27.5555C12.9646 27.9387 12.2415 28.5157 11.684 29.2377C11.1265 29.9596 10.7512 30.8052 10.5899 31.703L10.4174 32.9255C10.2299 32.618 10.0574 32.318 9.92235 32.0405C9.0687 30.3596 8.78574 27.2844 9.16162 24.3371C8.39484 24.5315 7.61367 24.6673 6.82489 24.7429C6.63155 24.7644 6.43743 24.7099 6.2835 24.591C6.2835 24.591 5.76368 24.0004 5.69986 23.2989C5.63605 22.5973 5.74527 22.0187 5.8237 21.8767C5.90213 21.7347 6.02447 21.622 6.17239 21.5554C7.02323 21.1955 7.71966 20.8896 8.2932 20.6317C7.72506 20.1722 7.23983 19.6515 7.03481 19.4178C6.93511 19.3061 6.87111 19.1672 6.85107 19.0188C6.85107 19.0188 6.71996 18.4168 7.03475 17.8035C7.41285 17.0669 7.98418 16.8109 7.98418 16.8109C8.11815 16.7386 8.27096 16.7087 8.42231 16.7253L12.3448 17.3253C12.3758 17.3302 12.4064 17.3371 12.4364 17.3458C15.554 15.3063 19.0435 16.5794 21.7499 18.128C21.6916 18.3902 21.649 18.6557 21.6224 18.923Z" fill="#BE133C"/>
<path fill-rule="evenodd" clip-rule="evenodd" d="M23.7974 2.71543L24.5474 4.62043C24.6141 4.63332 24.687 4.64827 24.7655 4.66549L25.3648 2.7679C25.4156 2.61127 25.5166 2.37394 25.6522 2.28041C26.1925 1.90756 26.6998 1.8005 27.5998 1.80042C28.5384 1.80033 29.3998 2.10038 29.9487 2.84019C29.993 2.97896 29.9777 3.04106 29.957 3.12475C29.9538 3.13766 29.9505 3.1511 29.9473 3.1654L28.9822 6.85016C29.6684 7.55867 30.213 8.47742 30.4248 9.6653C27.8557 10.0007 24.7311 10.5138 23.6699 10.9953C21.6729 11.9137 20.4479 16.246 20.1739 17.3156C19.8855 17.1847 19.5917 17.0617 19.2936 16.9495L18.0824 11.3854C18.0074 9.89277 17.9901 8.95591 17.9788 8.34851L17.9756 8.17542C18.7888 6.76451 19.4567 6.01366 19.9724 5.62543L19.1174 3.25543C19.0765 3.14219 19.0634 3.02077 19.0793 2.90141C19.0952 2.78206 19.1396 2.66829 19.2087 2.56972C19.2779 2.47115 19.3698 2.39067 19.4766 2.3351C19.4766 2.3351 20.3998 1.80042 21.4499 1.80042C22.8748 1.80042 23.5104 2.36995 23.5104 2.36995C23.6391 2.45308 23.7393 2.57365 23.7974 2.71543Z" fill="#BE133C"/>
<path fill-rule="evenodd" clip-rule="evenodd" d="M20.3466 17.4004L18.0824 11.3308C18.0075 9.82337 17.9901 8.87721 17.9789 8.26378C17.9609 7.28057 17.9585 7.15218 17.7599 6.93762C16.8149 5.83175 14.4224 5.48332 12.2624 7.12698C11.9237 7.38224 11.936 7.71666 11.9593 8.35287C11.9706 8.66057 11.9844 9.03886 11.9624 9.51293C10.7491 10.251 9.93807 10.6975 9.39084 10.9987C8.48357 11.4982 8.3013 11.5985 8.21241 11.9671C8.12255 12.5341 8.12255 13.1119 8.21241 13.6789C8.38491 14.8681 9.39741 15.4362 9.94491 15.2771L12.3749 14.5954C12.2973 15.4857 12.1623 16.525 12.0548 17.2849L12.3449 17.3297C12.3759 17.3347 12.4065 17.3416 12.4365 17.3504C15.0379 15.6316 17.8983 16.2423 20.3466 17.4004Z" fill="#408FF1"/>
</svg>
