<svg width="48" height="48" viewBox="0 0 48 48" fill="none" xmlns="http://www.w3.org/2000/svg">
<path d="M30.9569 11.6915C14.235 17.6717 11.4052 19.1345 1.08621 20.4108C1.08621 20.4108 0 20.7688 0 22.8377C0 24.9065 1.08621 25.6131 1.08621 25.6131C10.8049 24.6164 16.3993 21.6612 19.4313 20.4108C13.4219 25.4597 4.69731 29.1291 1.08621 29.5999C1.08621 29.5999 0.543103 30.5205 0.543103 32.6649C0.543103 34.8092 1.08621 36.0784 1.08621 36.0784C4.34482 37.5845 9.23275 38.0008 13.0916 36.0784C15.2069 34.7556 20.1537 28.6639 26.7355 23.3678C33.3172 18.0716 40.0887 13.6876 44.5344 12.1576C44.5344 12.1576 41.0722 10.6312 37.4741 10.6312C33.876 10.6312 30.9569 11.6915 30.9569 11.6915Z" fill="#384C6C"/>
<path d="M25.5258 26.7177C29.8707 21.8272 39.4655 16.3924 43.9913 13.6754C44.8965 13.4943 46.9241 13.2407 47.793 13.6754C48.8793 14.2188 45.6997 15.5164 38.0172 20.6415C29.8706 26.0761 26.0689 33.2021 23.8965 35.9482C21.7241 38.6943 18.5443 36.2619 19.0086 35.4145C19.6721 34.2037 21.181 31.6082 25.5258 26.7177Z" fill="#384C6C"/>
</svg>
