<svg width="48" height="48" viewBox="0 0 48 48" fill="none" xmlns="http://www.w3.org/2000/svg">
<g clip-path="url(#clip0_677_6679)">
<path d="M35.2634 15.1305C35.2634 15.1305 35.7275 4.337 24.3096 2.01082C21.6176 1.45254 18.8327 2.01082 16.6977 3.59262C12.8917 6.38403 8.0646 12.8043 11.2208 26.4822C11.9634 29.7389 13.4487 32.7164 15.5837 35.2286C16.9761 36.8104 18.6471 39.2297 19.5753 42.1141C19.5753 42.1141 22.9172 50.5814 31.0861 43.1376C31.0861 43.1376 32.4785 41.1836 32.5713 38.7644C32.5713 38.7644 37.0271 35.3217 34.2423 29.5528C34.2423 29.5528 32.6642 26.017 36.2845 22.5742C36.1916 22.6673 38.9765 18.7593 35.2634 15.1305Z" fill="#384C6C"/>
<path d="M31.1118 32.4187C28.6338 27.7047 30.1941 25.1592 30.1941 25.1592C31.7543 21.7652 29.0927 23.3679 29.0927 23.3679C22.2094 26.9505 21.3834 25.2535 21.2917 24.3107C21.2917 24.0279 21.4752 23.745 21.8423 23.745C24.5956 23.3679 27.349 21.1995 27.349 21.1995C35.2418 10.2631 26.9819 8.94318 26.9819 8.94318C15.6933 4.41778 14.4084 14.7885 14.4084 14.7885C11.3797 25.5363 20.6492 33.0787 20.6492 33.0787C21.7506 33.3615 21.1999 32.4187 21.1999 32.4187C12.8482 22.5194 16.7946 15.1656 16.7946 15.1656C20.1903 8.75463 21.4752 13.6571 21.4752 13.6571C18.9055 16.4855 19.3643 22.3308 19.3643 22.3308C20.0068 30.5331 27.349 30.7217 27.349 30.7217C26.0641 32.7958 28.5421 34.0214 28.5421 34.0214C31.9378 34.87 31.1118 32.4187 31.1118 32.4187Z" fill="white"/>
</g>
<defs>
<clipPath id="clip0_677_6679">
<rect width="27.4235" height="44.4" fill="white" transform="translate(10.2002 1.79999)"/>
</clipPath>
</defs>
</svg>
