<svg width="48" height="48" viewBox="0 0 48 48" fill="none" xmlns="http://www.w3.org/2000/svg">
<path d="M43.5184 28.3353C43.549 28.1974 43.5797 28.0592 43.6104 27.9057C44.0302 25.0377 43.6193 23.3255 43.6106 22.9048C43.0998 19.8403 39.7739 6.94141 37.2129 6.07427C34.7745 5.2438 35.2532 11.6364 35.2337 12.3799C35.2337 12.4718 35.2185 12.5634 35.2032 12.6553L35.203 12.6562C35.203 13.2555 34.983 14.5988 34.4359 15.9548V15.9701C33.2016 19.0528 30.997 20.315 29.7105 21.6006C28.0576 23.3646 28.8953 25.111 26.4981 24.6316C26.0769 24.4361 24.8541 23.6724 23.6985 23.6727C22.5436 23.673 20.901 24.6316 20.901 24.6316C18.5038 25.1111 19.3415 23.3646 17.6885 21.6006C16.4021 20.3151 14.1974 19.0529 12.9631 15.9702V15.9548C12.416 14.5989 12.196 13.2555 12.196 12.6563L12.1959 12.6554C12.1806 12.5635 12.1653 12.4719 12.1653 12.3799C12.1459 11.6365 12.6245 5.24383 10.1862 6.07431C7.62513 6.94145 4.29925 19.8404 3.78851 22.9048C3.77976 23.3255 3.36889 25.0377 3.78866 27.9058C3.81934 28.0592 3.85003 28.1974 3.88071 28.3354C4.03383 29.3308 4.38148 30.4053 4.46371 30.7748C4.47905 30.7748 4.47906 30.7901 4.47906 30.8054C4.49425 30.8361 4.50974 30.8822 4.50974 30.913C5.66578 33.7959 7.33915 41.0694 12.7945 41.0694C13.8225 41.0694 14.835 40.6858 15.6482 40.0416C18.8549 37.5609 16.2512 33.911 19.1769 33.1561C20.9254 32.705 21.8927 34.1234 23.6985 34.1236C25.505 34.1238 26.473 32.7044 28.2222 33.1561C31.1477 33.9116 28.5442 37.5609 31.7509 40.0416C32.564 40.6858 33.5766 41.0693 34.6045 41.0693C40.0599 41.0693 41.7333 33.7959 42.8893 30.913C42.8893 30.8821 42.9048 30.8361 42.92 30.8054C42.92 30.7901 42.92 30.7747 42.9354 30.7747C43.0176 30.4053 43.3652 29.3307 43.5184 28.3353Z" fill="#384C6C"/>
</svg>
