<svg width="48" height="48" viewBox="0 0 48 48" fill="none" xmlns="http://www.w3.org/2000/svg">
<path d="M46.727 15.4537C46.5807 11.1951 43.1051 7.80732 38.8465 7.80732C37.866 7.80732 36.9148 7.99024 36.0441 8.32683C35.327 8.60488 34.5148 8.47317 33.9368 7.97561C33.5124 7.60976 33.1612 7.21463 32.8831 6.86341C31.9904 5.72195 31.3173 4.30976 30.6514 2.84634C30.2929 2.07073 29.9563 1.27317 29.8612 0.585366C29.8612 0.585366 28.5464 0 27.6551 0C26.7637 0 25.449 0.585366 25.449 0.585366C25.5295 2.06341 26.0929 3.43902 26.6563 4.66829C27.4392 6.38049 28.2368 8.04146 29.4148 9.56342C29.8538 10.1268 30.3295 10.639 30.827 11.0927C31.2002 11.4293 31.4343 11.9049 31.4709 12.4024C31.5441 13.2951 31.0465 14.3122 30.7465 15.139C30.3221 16.2951 29.8099 17.4146 29.2099 18.4902C28.7124 19.3829 28.1563 20.2463 27.549 21.0659C26.9417 21.8854 26.2831 22.6683 25.5807 23.4C24.8782 24.139 24.1246 24.8268 23.3343 25.4634C22.5368 26.1073 21.7026 26.6927 20.8319 27.2341C19.9539 27.7756 19.0465 28.2512 18.11 28.6756C17.166 29.1 16.1856 29.4659 15.1904 29.7585C14.5904 29.9341 13.9831 30.0951 13.3758 30.2195C12.7685 30.3512 12.1465 30.3878 11.5173 30.3293C8.88312 30.0805 6.24898 30.9659 4.29532 32.7439C2.32702 34.5293 1.2002 37.0829 1.2002 39.739V47.4146C1.2002 47.4146 2.72983 48 3.70995 48C4.69007 48 6.21971 47.4146 6.21971 47.4146V39.8634C6.21971 38.861 6.51239 37.8659 7.11971 37.0683C7.12702 37.0537 7.13434 37.0463 7.14898 37.0317C7.89532 36.0732 9.27093 35.8463 10.2953 36.4902C14.2612 38.9707 19.01 40.3244 24.088 40.0756C36.0295 39.4976 45.7904 30 46.6685 18.0732C46.7343 17.1951 46.7563 16.3171 46.727 15.4537Z" fill="#384C6C"/>
</svg>
