<svg width="48" height="48" viewBox="0 0 48 48" fill="none" xmlns="http://www.w3.org/2000/svg">
<g clip-path="url(#clip0_677_6671)">
<path fill-rule="evenodd" clip-rule="evenodd" d="M26.3289 2.42581C25.9084 1.84197 23.3231 0.116144 21.3576 0.816757C19.1026 1.62059 18.985 2.87299 18.7756 5.10494C18.7568 5.30469 18.7373 5.51228 18.7155 5.7281C18.672 6.15836 18.9856 7.54178 19.2438 8.68111C19.4161 9.44145 19.5638 10.0931 19.5643 10.2801C19.5648 10.4692 19.5741 10.6569 19.5834 10.845C19.6185 11.5543 19.6539 12.2687 19.2185 13.0783C19.411 13.0993 20.0814 12.9785 20.3917 12.0867C20.4798 13.3085 21.632 13.2668 21.8164 12.9785C21.6503 12.6305 21.7514 12.5093 21.9078 12.3219C22.0357 12.1685 22.2007 11.9707 22.2863 11.5679C22.4437 10.8272 22.3459 9.42463 22.3033 8.81225C22.2933 8.66914 22.2863 8.56919 22.2863 8.53092C22.2863 6.38717 23.2173 3.49553 24.7716 4.23162C24.8063 4.23321 24.8441 4.23223 24.8846 4.22871C24.1112 5.34788 23.6373 6.80496 23.964 8.04386C24.7198 10.9103 23.9749 11.7871 23.384 12.4825C23.2619 12.6263 23.1463 12.7624 23.0519 12.9066C21.7694 14.8675 15.0961 21.0271 12.5632 22.8829C12.2933 23.0806 12.0535 23.2355 11.8427 23.3718C10.9732 23.9335 10.597 24.1766 10.6377 25.7905C10.6884 27.7958 17.2249 29.2496 19.353 29.5504C21.4812 29.8512 21.8232 30.2588 21.5192 31.5121C20.8069 33.2533 20.4685 33.8352 19.7973 34.9895L19.6768 35.197C19.3986 35.6761 18.8911 36.5244 18.7956 36.6691C16.4141 40.2786 15.8422 43.6889 18.2383 46.3446C20.783 49.165 28.6256 47.6705 30.8497 46.3446C34.765 44.0103 37.8367 41.3309 37.3813 35.197C37.1078 31.5121 33.1299 28.082 30.8497 26.3274C33.0285 24.3221 33.3399 22.6355 32.4247 22.099C32.3603 22.0612 32.2929 22.0222 32.2228 21.9816C31.2969 21.4459 29.8974 20.6362 28.6256 18.7721C28.517 18.6128 28.4148 18.4638 28.3191 18.3242C27.4594 17.0702 27.1208 16.5762 27.2575 16.2153C27.5178 15.5286 28.2346 14.7348 28.5105 14.9505C29.3843 15.6341 30.2 15.9189 30.8497 15.5755C31.1633 15.4098 31.7585 15.057 32.2232 14.5109C32.3815 14.3248 32.4851 14.0872 32.5796 13.8702C32.7188 13.5509 32.8385 13.2763 33.0846 13.2763C33.8195 13.2763 33.7594 12.9918 33.6709 12.5724C33.6373 12.4134 33.5997 12.235 33.5997 12.0454C33.5997 9.43288 33.9785 8.81522 34.1916 8.46774C34.2813 8.32146 34.3416 8.22306 34.332 8.04386C34.1923 5.44875 33.3089 4.74332 32.3638 3.98862C32.3171 3.9513 32.2702 3.91386 32.2232 3.87606C30.3384 2.23076 27.7032 2.12424 26.4171 2.75678C26.4054 2.65126 26.3769 2.54086 26.3289 2.42581ZM21.1291 21.8408L21.1227 21.8079L16.8035 24.799C17.3277 25.282 20.497 27.2837 21.8375 27.5673C22.1209 26.9797 21.3743 23.1111 21.1291 21.8408Z" fill="#384C6C"/>
</g>
<defs>
<clipPath id="clip0_677_6671">
<rect width="48" height="48" fill="white"/>
</clipPath>
</defs>
</svg>
