<svg width="48" height="48" viewBox="0 0 48 48" fill="none" xmlns="http://www.w3.org/2000/svg">
<g clip-path="url(#clip0_3466_28754)">
<g clip-path="url(#clip1_3466_28754)">
<g clip-path="url(#clip2_3466_28754)">
<path d="M1.04725 42.8611L9.89312 34.0154C11.0833 35.5423 12.4575 36.9164 13.9844 38.1066L5.13863 46.9525C4.87 47.2212 4.55108 47.4343 4.20008 47.5797C3.84908 47.7251 3.47287 47.8 3.09294 47.8C2.71301 47.8 2.3368 47.7251 1.9858 47.5797C1.6348 47.4343 1.31588 47.2212 1.04725 46.9525C0.778578 46.6839 0.565449 46.365 0.42004 46.014C0.27463 45.663 0.199787 45.2867 0.199787 44.9068C0.199787 44.5269 0.27463 44.1507 0.42004 43.7997C0.565449 43.4487 0.778578 43.1298 1.04725 42.8611Z" fill="#374A68"/>
<path fill-rule="evenodd" clip-rule="evenodd" d="M26.4971 43.0053C14.6215 43.0053 4.99444 33.3783 4.99444 21.5027C4.99444 9.62707 14.6215 0 26.4971 0C38.3727 0 47.9998 9.62707 47.9998 21.5027C47.9998 33.3783 38.3727 43.0053 26.4971 43.0053ZM26.4476 39.5711C16.496 39.5711 8.42863 31.5037 8.42863 21.5521C8.42863 11.6005 16.496 3.53314 26.4476 3.53314C36.3992 3.53314 44.4666 11.6005 44.4666 21.5521C44.4666 31.5037 36.3992 39.5711 26.4476 39.5711Z" fill="#374A68"/>
</g>
<path d="M26.3998 37.7999C35.3468 37.7999 42.5998 30.5469 42.5998 21.5999C42.5998 12.653 35.3468 5.39999 26.3998 5.39999C17.4529 5.39999 10.1999 12.653 10.1999 21.5999C10.1999 30.5469 17.4529 37.7999 26.3998 37.7999Z" fill="white"/>
<path fill-rule="evenodd" clip-rule="evenodd" d="M42.5011 19.8017C42.4512 19.8006 42.401 19.8 42.3508 19.8C38.9095 19.8 36.1198 22.5897 36.1198 26.0309C36.1198 28.3498 37.3864 30.3727 39.2655 31.4457C41.3569 28.717 42.5998 25.3036 42.5998 21.6C42.5998 20.9921 42.5663 20.3922 42.5011 19.8017Z" fill="#374A68"/>
<path fill-rule="evenodd" clip-rule="evenodd" d="M12.5594 30.0235C12.8823 30.0751 13.2134 30.1019 13.5509 30.1019C16.9922 30.1019 19.7819 27.3122 19.7819 23.8709C19.7819 20.4297 16.9922 17.64 13.5509 17.64C12.4465 17.64 11.4092 17.9273 10.5096 18.4313C10.3064 19.456 10.1999 20.5155 10.1999 21.5999C10.1999 24.6852 11.0624 27.569 12.5594 30.0235Z" fill="#374A68"/>
<path d="M14.2364 28.3263C13.7329 28.3263 13.282 27.9726 13.1775 27.4599C13.0586 26.8746 13.4365 26.3035 14.0219 26.1843C14.6383 26.0591 15.1698 25.6999 15.5183 25.173C15.867 24.6462 15.9898 24.0168 15.8644 23.4003C15.7575 22.8747 15.484 22.4142 15.0738 22.0685C14.6168 21.6837 14.5584 21.0014 14.9432 20.5445C15.3279 20.0876 16.0104 20.0292 16.4673 20.4139C17.2435 21.0676 17.7821 21.975 17.9843 22.9688C18.2249 24.1515 17.9898 25.3583 17.3223 26.3669C16.6547 27.3754 15.6357 28.0635 14.453 28.3041C14.3803 28.319 14.308 28.3263 14.2364 28.3263Z" fill="white"/>
<path fill-rule="evenodd" clip-rule="evenodd" d="M16.4309 14.9821C19.8722 14.9821 22.6619 12.1924 22.6619 8.75108C22.6619 7.7629 22.4318 6.82845 22.0224 5.99835C17.917 7.14787 14.4704 9.87425 12.377 13.4831C13.4667 14.4175 14.8828 14.9821 16.4309 14.9821Z" fill="#374A68"/>
<path fill-rule="evenodd" clip-rule="evenodd" d="M16.0575 12.3399C16.162 12.8526 16.6129 13.2063 17.1164 13.2063C17.188 13.2063 17.2603 13.199 17.333 13.1841C18.5157 12.9435 19.5347 12.2554 20.2023 11.247C20.8698 10.2383 21.1049 9.03152 20.8643 7.84885C20.7717 7.39362 20.6085 6.95652 20.3842 6.55365C19.7091 6.8238 19.0564 7.13808 18.4298 7.49289C18.5802 7.7311 18.6866 7.99615 18.7444 8.28026C18.8698 8.89678 18.747 9.52623 18.3983 10.053C18.0498 10.5799 17.5183 10.9391 16.9019 11.0643C16.3165 11.1835 15.9386 11.7546 16.0575 12.3399Z" fill="white"/>
<path d="M29.9333 22.0753C33.3746 22.0753 36.1643 19.2855 36.1643 15.8443C36.1643 12.403 33.3746 9.61328 29.9333 9.61328C26.492 9.61328 23.7023 12.403 23.7023 15.8443C23.7023 19.2855 26.492 22.0753 29.9333 22.0753Z" fill="#374A68"/>
<path d="M30.6188 20.2996C30.1153 20.2996 29.6644 19.9459 29.56 19.4333C29.441 18.8479 29.819 18.2769 30.4043 18.1576C31.0207 18.0324 31.5523 17.6732 31.9007 17.1464C32.2495 16.6196 32.3722 15.9901 32.2469 15.3736C32.1399 14.848 31.8665 14.3876 31.4563 14.0419C30.9992 13.657 30.9408 12.9747 31.3257 12.5178C31.7104 12.0609 32.3928 12.0025 32.8497 12.3872C33.6259 13.041 34.1645 13.9483 34.3667 14.9422C34.6073 16.1249 34.3723 17.3317 33.7047 18.3403C33.0372 19.3488 32.0181 20.0369 30.8354 20.2775C30.7628 20.2924 30.6904 20.2996 30.6188 20.2996Z" fill="white"/>
<path fill-rule="evenodd" clip-rule="evenodd" d="M30.8429 37.183C29.431 37.5848 27.9405 37.7999 26.3998 37.7999C25.417 37.7999 24.4546 37.7124 23.52 37.5447C21.823 36.4315 20.7023 34.5121 20.7023 32.3309C20.7023 28.8896 23.492 26.0999 26.9333 26.0999C30.3746 26.0999 33.1643 28.8896 33.1643 32.3309C33.1643 34.2916 32.2587 36.0408 30.8429 37.183Z" fill="#374A68"/>
<path d="M27.6189 37.0995C27.1154 37.0995 26.6645 36.7459 26.56 36.2332C26.4411 35.6478 26.819 35.0768 27.4044 34.9576C28.0208 34.8323 28.5524 34.4732 28.9008 33.9463C29.2495 33.4195 29.3723 32.7901 29.2469 32.1735C29.14 31.6479 28.8665 31.1875 28.4563 30.8418C27.9993 30.457 27.9409 29.7747 28.3257 29.3178C28.7104 28.8609 29.3929 28.8025 29.8498 29.1872C30.626 29.8409 31.1646 30.7483 31.3668 31.7421C31.6074 32.9248 31.3723 34.1316 30.7048 35.1402C30.0372 36.1487 29.0182 36.8368 27.8355 37.0774C27.7628 37.0923 27.6905 37.0995 27.6189 37.0995Z" fill="white"/>
</g>
</g>
<defs>
<clipPath id="clip0_3466_28754">
<rect width="47.9999" height="48" fill="white"/>
</clipPath>
<clipPath id="clip1_3466_28754">
<rect width="47.9997" height="47.9999" fill="white" transform="matrix(-1 0 0 1 47.9998 0)"/>
</clipPath>
<clipPath id="clip2_3466_28754">
<rect width="47.9999" height="47.9999" fill="white" transform="matrix(-1 0 0 1 47.9998 0)"/>
</clipPath>
</defs>
</svg>
