<svg width="48" height="48" viewBox="0 0 48 48" fill="none" xmlns="http://www.w3.org/2000/svg">
<path d="M47.0356 19.3128C47.6093 18.2514 47.9058 17.0465 47.9058 15.7556C47.9058 13.1068 46.9304 10.7258 45.1709 9.06193C43.4975 7.47454 41.2408 6.61395 38.7546 6.61395C38.5538 6.61395 38.3434 6.62352 38.1426 6.6331C33.2179 6.90081 30.5883 9.32964 28.4845 11.2804C26.9354 12.7148 25.7115 13.8431 23.9998 13.8431C22.2785 13.8431 21.0546 12.7148 19.515 11.2804L19.4999 11.2664C17.3892 9.31807 14.7699 6.90017 9.85699 6.6331C7.12215 6.48007 4.62638 7.35028 2.81907 9.06193C1.05956 10.7258 0.09375 13.1068 0.09375 15.7556C0.09375 17.0465 0.380669 18.2322 0.963961 19.2937C1.00219 19.112 1.05956 18.9303 1.12651 18.7582C1.8724 16.6927 3.80397 15.2201 6.07982 14.9237C6.62489 13.7953 8.00188 13.1451 9.8857 13.1451C13.7871 13.1451 15.7761 15.44 16.5124 20.795C16.914 23.7115 18.5397 26.5037 19.8401 28.3301C20.4043 29.1334 20.7008 30.0896 20.7008 31.1033V40.1506C20.7008 40.6861 21.2523 41.2299 21.7782 41.2299H26.209C26.735 41.2299 27.2892 40.6861 27.2892 40.1506V31.1033C27.2892 30.0896 27.5857 29.1334 28.1594 28.3301C29.4503 26.5037 31.0855 23.7115 31.4776 20.795C32.2235 15.44 34.2029 13.1451 38.1139 13.1451C39.9977 13.1451 41.3747 13.7953 41.9102 14.9237C44.1765 15.2105 46.1176 16.6831 46.8731 18.7677C46.94 18.9494 46.9878 19.1311 47.0356 19.3128Z" fill="#384C6C"/>
<path d="M11.789 21.6842C12.1906 20.575 11.9994 19.5327 11.2344 18.6625C10.6702 18.0218 9.80959 17.4959 8.61429 17.0656C6.26191 16.2145 3.6992 17.2664 2.92464 19.418C2.53261 20.4794 2.62821 21.6364 3.19242 22.6787C3.73748 23.6923 4.65544 24.4669 5.78379 24.8781C6.18545 25.0215 6.59663 25.0885 7.00781 25.0885C9.05418 25.0885 11.1388 23.4724 11.789 21.6842Z" fill="#384C6C"/>
<path d="M42.2166 24.8781C43.3354 24.4669 44.2534 23.6923 44.7984 22.6787C45.3626 21.6364 45.4582 20.4794 45.0757 19.418C44.2916 17.2664 41.7385 16.2049 39.3765 17.0656C38.1812 17.4959 37.3302 18.0218 36.766 18.6625C36.001 19.5327 35.8098 20.575 36.2114 21.6842C36.8616 23.4724 38.9367 25.0885 40.983 25.0885C41.4037 25.0885 41.8149 25.0215 42.2166 24.8781Z" fill="#384C6C"/>
</svg>
