<svg width="80" height="80" viewBox="0 0 80 80" fill="none" xmlns="http://www.w3.org/2000/svg">
<path d="M26.2981 6.51302C29.6383 6.40778 32.9678 6.94109 36.1282 8.08611L36.1564 8.09633L36.1842 8.10766C38.9039 9.2179 41.907 9.2179 44.6267 8.10766L44.6545 8.09633L44.6827 8.08611C47.8431 6.94109 51.1726 6.40778 54.5128 6.51302C57.8561 6.51728 60.4773 7.3949 62.4937 8.85919C64.5024 10.3179 65.806 12.282 66.6528 14.2911C68.3113 18.226 68.311 22.5751 68.3109 24.3803V24.4243C68.3109 30.3987 66.1893 34.9095 64.2565 39.0192L64.2199 39.097C63.9037 39.7692 63.566 40.434 63.2358 41.0802L63.1524 41.2435L63.152 41.2442C62.848 41.8391 62.552 42.4183 62.2703 43.0022C61.6557 44.2762 61.1429 45.5052 60.8409 46.7604C60.6108 47.7319 60.5213 49.0258 60.469 50.6565C60.454 51.1221 60.4421 51.6144 60.4297 52.1268L60.4297 52.1273V52.1274C60.4001 53.3506 60.3677 54.6884 60.2847 56.0508L60.2809 56.1131C60.0226 60.354 59.7296 65.164 58.8987 69.2411C58.6763 70.3593 58.1092 71.384 57.2667 72.1461C56.4211 72.911 55.3462 73.3663 54.2081 73.4196C53.0697 73.473 51.9574 73.1198 51.0472 72.4331C50.1402 71.749 49.4886 70.7765 49.1745 69.6806C47.4445 63.7399 45.7429 59.5197 44.1078 56.8451C42.4045 54.0592 41.1018 53.4618 40.3073 53.5183C39.886 53.5483 39.3364 53.7616 38.6506 54.3846C37.9605 55.0115 37.2094 55.9863 36.4178 57.3673C34.8345 60.1294 33.2304 64.2642 31.6366 69.755C31.3226 70.8512 30.6709 71.8239 29.7637 72.5082C28.8535 73.1949 27.7413 73.5481 26.6028 73.4947C25.4648 73.4414 24.3898 72.9861 23.5443 72.2212C22.701 71.4585 22.1336 70.4327 21.9117 69.3135C21.0835 65.1899 20.7899 60.3787 20.532 56.1521L20.5284 56.0928C20.4453 54.7312 20.4126 53.396 20.3827 52.1773C20.3701 51.6626 20.358 51.1687 20.3428 50.7023C20.2898 49.0755 20.1996 47.7937 19.9696 46.8388C19.6676 45.5825 19.1546 44.3519 18.5399 43.0771C18.2577 42.4919 17.9612 41.9115 17.6566 41.3153L17.6565 41.315L17.5748 41.1551C17.2448 40.5089 16.9071 39.8443 16.591 39.1721L16.5544 39.0943C14.6216 34.9846 12.5 30.4738 12.5 24.4994L12.5 24.4541C12.4999 22.6129 12.4996 18.2455 14.1575 14.3018C15.0042 12.2878 16.3077 10.321 18.3167 8.86076C20.3334 7.3949 22.9549 6.51728 26.2981 6.51302Z" fill="white"/>
<path fill-rule="evenodd" clip-rule="evenodd" d="M45.1936 9.49641C48.1838 8.41307 51.3319 7.91065 54.4884 8.01301C66.8109 8.01301 66.8109 20.8378 66.8109 24.4243C66.8109 30.063 64.8111 34.3153 62.8625 38.4586C61.6445 41.0484 60.0589 43.5957 59.3818 46.4124C58.8431 48.6846 59.0198 52.1472 58.7875 55.9596C58.5265 60.2442 58.2386 64.9706 57.4282 68.9451C57.2669 69.7602 56.8561 70.4949 56.2604 71.0337C55.6648 71.5725 54.9181 71.8847 54.1379 71.9213C53.3576 71.9578 52.5881 71.7166 51.9505 71.2356C51.3129 70.7546 50.8432 70.0611 50.6156 69.2643C43.6445 45.3233 36.6207 47.2011 30.1953 69.3394C29.9677 70.1363 29.4981 70.8297 28.8604 71.3107C28.2228 71.7917 27.4533 72.0329 26.673 71.9964C25.8928 71.9598 25.1461 71.6476 24.5505 71.1088C23.9548 70.57 23.544 69.8353 23.3827 69.0202C22.5746 64.9974 22.286 60.2689 22.0256 56.0015C21.7925 52.1817 21.9683 48.7314 21.4279 46.4875C20.7508 43.6708 19.1664 41.1235 17.9484 38.5337C15.9998 34.3904 14 30.1382 14 24.4994C14 20.8378 14 8.01301 26.3225 8.01301C29.479 7.91065 32.6271 8.41307 35.6173 9.49641C38.7004 10.755 42.1105 10.755 45.1936 9.49641Z" fill="#374A68"/>
<path fill-rule="evenodd" clip-rule="evenodd" d="M46.8171 8.96967C46.2714 9.12647 45.73 9.30209 45.1936 9.49641C43.2925 10.2725 41.267 10.57 39.2705 10.389C40.747 11.1463 43.431 12.6036 44.7095 13.9361C45.5109 14.7713 46.2349 15.6637 46.8541 16.427C47.7496 17.5309 48.4261 18.3648 48.8006 18.3648C49.3113 18.3648 49.8221 17.82 49.8221 16.1856C49.8221 14.7535 47.9975 10.827 46.8171 8.96967Z" fill="white"/>
</svg>
