<?xml version="1.0" encoding="UTF-8"?>
<svg width="90px" height="137px" viewBox="0 0 90 137" version="1.1" xmlns="http://www.w3.org/2000/svg" xmlns:xlink="http://www.w3.org/1999/xlink">
    <!-- Generator: Sketch 58 (84663) - https://sketch.com -->
    <title>Group</title>
    <desc>Created with Sketch.</desc>
    <defs>
        <filter x="-22.0%" y="-10.8%" width="144.0%" height="121.5%" filterUnits="objectBoundingBox" id="filter-1">
            <feOffset dx="0" dy="5" in="SourceAlpha" result="shadowOffsetOuter1"></feOffset>
            <feGaussianBlur stdDeviation="4" in="shadowOffsetOuter1" result="shadowBlurOuter1"></feGaussianBlur>
            <feColorMatrix values="0 0 0 0 0   0 0 0 0 0   0 0 0 0 0  0 0 0 0.25 0" type="matrix" in="shadowBlurOuter1" result="shadowMatrixOuter1"></feColorMatrix>
            <feMerge>
                <feMergeNode in="shadowMatrixOuter1"></feMergeNode>
                <feMergeNode in="SourceGraphic"></feMergeNode>
            </feMerge>
        </filter>
    </defs>
    <g id="Widget-Finish-Line" stroke="none" stroke-width="1" fill="none" fill-rule="evenodd">
        <g id="Widget-S2-/-Loading-Exp-/-Hand" transform="translate(-284.000000, -353.000000)" fill="#FFFFFF" fill-rule="nonzero">
            <g id="Hand-2" transform="translate(292.000000, 240.000000)">
                <g id="noun_Touch-gestures_1750255" filter="url(#filter-1)">
                    <g id="Group">
                        <path d="M67.939265,231.432617 C66.59375,225.483643 68.1548643,221.110187 68.7777066,219.392882 C68.8256175,219.260781 73.9520891,204.544797 74,198.996581 L74,176.196052 C74,172.523661 71.2930314,169.538192 67.9632205,169.538192 L67.939265,169.538192 C67.0050015,169.564612 66.2623818,170.410055 66.2623818,171.440438 L66.2623818,175.37703 C66.2623818,176.248892 65.6634949,176.988655 64.8729643,177.015075 C64.0824336,177.041495 63.4116803,176.354573 63.3877249,175.48271 C63.3877249,175.45629 63.3877249,175.45629 63.3877249,175.42987 L63.3877249,167.556686 C63.3877249,163.620094 60.6088898,160.264744 57.0395242,160.106224 C56.9197468,160.106224 56.7999694,160.106224 56.6801921,160.106224 L56.6322811,160.106224 C54.5481548,160.159064 52.8712716,162.03489 52.8712716,164.333437 L52.8712716,168.217188 C52.8952271,169.089051 52.2723848,169.828813 51.4818541,169.855233 C50.6913235,169.881653 50.0205702,169.194731 49.9966147,168.322869 C49.9966147,168.296448 49.9966147,168.296448 49.9966147,168.270028 L49.9966147,158.626699 C49.9966147,154.716528 47.2417352,151.387598 43.696325,151.229077 C43.5765476,151.229077 43.4567702,151.229077 43.3609483,151.229077 L43.3130374,151.229077 C41.2289111,151.255497 39.5759834,153.131323 39.5759834,155.42987 L39.5759834,165.49592 C39.5759834,166.367783 38.9770965,167.107545 38.1865659,167.133965 C37.3960352,167.160385 36.7252819,166.473463 36.7013264,165.6016 C36.7013264,165.57518 36.7013264,165.57518 36.7013264,165.54876 L36.7013264,123.487994 C36.7013264,119.524982 33.8745805,116.169632 30.2812593,116.037532 L29.9937936,116.037532 C25.5380754,116.090372 21.9926652,120.211904 21.9926652,125.126039 L21.9926652,185.046779 C19.9564499,181.215867 17.033882,176.116792 13.9675813,172.25946 C11.1887463,168.74559 7.33191491,167.768047 3.16366237,169.564612 C1.51073464,170.277954 0.312960924,171.915999 0.0494507066,173.844665 C-0.118237614,175.165669 0.145272604,176.513093 0.768114937,177.649157 C2.30126529,180.476105 4.12188134,184.914678 6.25391856,190.066594 C11.1647908,202.00847 16.7224608,215.53555 22.7352849,219.683503 C27.5024243,222.986013 37.7553673,235.40345 37.8511892,235.50913 C41.0251785,237.919058 56.7046176,236.021228 65.4362793,234.75293 C67.6638975,234.429362 68.4982261,233.322591 67.939265,231.432617 Z" id="Path"></path>
                    </g>
                </g>
            </g>
        </g>
    </g>
</svg>