<?xml version="1.0" encoding="UTF-8"?>
<svg width="15px" height="26px" viewBox="0 0 15 26" version="1.1" xmlns="http://www.w3.org/2000/svg" xmlns:xlink="http://www.w3.org/1999/xlink">
    <!-- Generator: Sketch 58 (84663) - https://sketch.com -->
    <title>noun_Touch gestures_1750255</title>
    <desc>Created with Sketch.</desc>
    <g id="Widget-Finish-Line" stroke="none" stroke-width="1" fill="none" fill-rule="evenodd">
        <g id="Widget-S2-/-Loading-Exp-/-Button" transform="translate(-310.000000, -287.000000)">
            <g id="Click-to-Interact" transform="translate(279.000000, 276.000000)">
                <g id="Group-2" transform="translate(29.000000, 11.000000)">
                    <g id="noun_Touch-gestures_1750255">
                        <g id="Group" fill="#FFFFFF" fill-rule="nonzero">
                            <path d="M16.0598901,25.5956044 C15.5236264,24.6813187 15.0269231,23.5164835 15.1412088,23.2307692 C15.15,23.2087912 16.0906593,20.7604396 16.0994505,19.8373626 L16.0994505,16.043956 C16.0994505,15.432967 15.6027473,14.9362637 14.9917582,14.9362637 L14.9873626,14.9362637 C14.8159341,14.9406593 14.6796703,15.0813187 14.6796703,15.2527473 L14.6796703,15.9076923 C14.6796703,16.0527473 14.5697802,16.1758242 14.4247253,16.1802198 C14.2796703,16.1846154 14.1565934,16.0703297 14.1521978,15.9252747 C14.1521978,15.9208791 14.1521978,15.9208791 14.1521978,15.9164835 L14.1521978,14.6065934 C14.1521978,13.9516484 13.6423077,13.3934066 12.9873626,13.367033 C12.9653846,13.367033 12.9434066,13.367033 12.9214286,13.367033 L12.9126374,13.367033 C12.5302198,13.3758242 12.2225275,13.6879121 12.2225275,14.0703297 L12.2225275,14.7164835 C12.2269231,14.8615385 12.1126374,14.9846154 11.9675824,14.989011 C11.8225275,14.9934066 11.6994505,14.8791209 11.6950549,14.7340659 C11.6950549,14.7296703 11.6950549,14.7296703 11.6950549,14.7252747 L11.6950549,13.1208791 C11.6950549,12.4703297 11.1895604,11.9164835 10.539011,11.8901099 C10.517033,11.8901099 10.4950549,11.8901099 10.4774725,11.8901099 L10.4686813,11.8901099 C10.0862637,11.8945055 9.78296703,12.2065934 9.78296703,12.589011 L9.78296703,14.2637363 C9.78296703,14.4087912 9.67307692,14.5318681 9.52802198,14.5362637 C9.38296703,14.5406593 9.25989011,14.4263736 9.25549451,14.2813187 C9.25549451,14.2769231 9.25549451,14.2769231 9.25549451,14.2725275 L9.25549451,7.27472527 C9.25549451,6.61538462 8.73681319,6.05714286 8.07747253,6.03516484 L8.02472527,6.03516484 C7.20714286,6.04395604 6.55659341,6.72967033 6.55659341,7.54725275 L6.55659341,17.5164835 C6.18296703,16.8791209 5.6467033,16.0307692 5.08406593,15.389011 C4.57417582,14.8043956 3.86648352,14.6417582 3.10164835,14.9406593 C2.79835165,15.0593407 2.57857143,15.3318681 2.53021978,15.6527473 C2.49945055,15.8725275 2.5478022,16.0967033 2.66208791,16.2857143 C2.94340659,16.756044 3.27747253,17.4945055 3.66868132,18.3516484 C4.56978022,20.3384615 5.58956044,22.589011 6.69285714,23.2791209 C7.56758242,23.8285714 9.4489011,25.8945055 9.46648352,25.9120879 C9.51483516,25.9692308 9.58516484,26 9.65989011,26 L15.8357143,26 C15.9631868,26 16.0686813,25.9120879 16.0950549,25.7846154 C16.1038462,25.7186813 16.0950549,25.6527473 16.0598901,25.5956044 Z" id="Path"></path>
                        </g>
                        <g id="Group-3" transform="translate(2.321429, 0.928571)" stroke="#FFFFFF" stroke-width="1.5">
                            <circle id="Oval" cx="5.57142857" cy="5.57142857" r="2.03571429"></circle>
                            <circle id="Oval" cx="5.57142857" cy="5.57142857" r="4.82142857"></circle>
                        </g>
                    </g>
                </g>
            </g>
        </g>
    </g>
</svg>