<svg width="48" height="48" viewBox="0 0 48 48" fill="none" xmlns="http://www.w3.org/2000/svg">
<g clip-path="url(#clip0_3006_31671)">
<g clip-path="url(#clip1_3006_31671)">
<circle cx="18.9047" cy="14.5129" r="10.1438" fill="#425B72"/>
<path fill-rule="evenodd" clip-rule="evenodd" d="M46.0896 2.99951C43.4666 3.23035 42.3939 4.40613 40.7833 6.17157C40.6909 6.27284 40.5967 6.37605 40.5004 6.48113C38.497 8.66672 36.0252 15.6046 33.7221 22.0691C32.6383 25.1112 31.5919 28.0485 30.6491 30.3363C30.6491 30.3363 24.5678 25.7153 22.2213 24.1095C20.5577 22.9709 18.7957 20.4599 17.0749 18.0075C16.3687 17.0011 15.6693 16.0045 14.9866 15.1167C12.266 11.3269 5.99191 16.5426 10.1108 20.031C12.3447 21.923 12.8938 23.2708 13.678 25.196C14.3397 26.8204 15.1688 28.8559 17.3188 31.9761C21.7626 38.4252 27.0638 42.1344 28.502 43.1407C28.5843 43.1984 28.654 43.2471 28.7101 43.287C28.7913 43.3447 28.8729 43.4031 28.9548 43.4618C30.5584 44.6104 32.3077 45.8633 34.5401 44.1827C34.8225 43.9701 35.156 43.7504 35.5404 43.4973C37.5971 42.1426 41.1135 39.8267 46.0896 32.4749L46.0896 2.99951Z" fill="#F26674"/>
<circle cx="11.639" cy="14.0004" r="11.5226" fill="#889DAF" stroke="white" stroke-width="3.36716"/>
<ellipse cx="10.8438" cy="13.622" rx="2.75856" ry="2.75856" fill="white" stroke="white" stroke-width="4.48954"/>
</g>
</g>
<defs>
<clipPath id="clip0_3006_31671">
<rect width="48" height="48" fill="white"/>
</clipPath>
<clipPath id="clip1_3006_31671">
<rect width="48" height="48" fill="white"/>
</clipPath>
</defs>
</svg>
