<svg width="81" height="81" viewBox="0 0 81 81" fill="none" xmlns="http://www.w3.org/2000/svg">
<g clip-path="url(#clip0_424_27017)">
<path d="M27.186 16.3005C36.4734 11.4092 48.4851 13.9477 56.2865 16.3005L52.0762 6.88932C48.0409 3.88261 44.273 2.35108 40.9314 2.30754C35.9053 2.24205 31.9184 5.00504 30.0342 6.88932L27.186 16.3005Z" fill="#425B72"/>
<path d="M35.2353 28.9315C31.2045 22.0107 31.025 8.68495 33.935 4.04126C32.0775 5.11447 24.7792 9.68988 22.4806 15.9291C19.6323 23.6601 25.8719 35.5051 30.9326 43.1907L38.9951 34.5032C37.2985 32.4031 36.3272 30.8063 35.2353 28.9315Z" fill="#4B94E2"/>
<path d="M60.2493 72.8917L68.9175 70.2913C64.8109 62.5492 58.7453 56.3894 51.5576 48.6907L42.8701 60.2532C47.6855 67.4572 51.8658 74.3854 55.296 80.9408L60.2493 72.8917Z" fill="#4B94E2"/>
<path d="M35.235 43.2958C30.1462 48.8472 21.6135 55.9266 12.9453 70.0434L21.6135 73.0154L26.3191 80.693C26.5668 77.721 37.7117 61.3752 43.9033 53.2023C50.0949 45.0294 57.7724 34.8752 59.7537 22.492C61.3388 12.5855 51.6118 5.40324 45.3273 3.14331C55.9769 18.7461 43.4079 34.3799 35.235 43.2958Z" fill="#A1CBF7"/>
</g>
<defs>
<clipPath id="clip0_424_27017">
<rect width="80" height="80.0002" fill="white" transform="translate(0.931396 0.940674)"/>
</clipPath>
</defs>
</svg>
