<svg width="80" height="80" viewBox="0 0 80 80" fill="none" xmlns="http://www.w3.org/2000/svg">
<path d="M26.2545 15.3599C35.5419 10.4685 47.5536 13.0071 55.355 15.3599L51.1447 5.94864C47.1094 2.94194 43.3415 1.4104 39.9998 1.36687C34.9738 1.30138 30.9869 4.06436 29.1026 5.94864L26.2545 15.3599Z" fill="#374A68"/>
<path d="M34.3036 27.9908C30.2729 21.07 30.0933 7.74428 33.0034 3.10059C31.1459 4.17379 23.8476 8.74921 21.5489 14.9884C18.7007 22.7194 24.9403 34.5645 30.001 42.25L38.0635 33.5625C36.3669 31.4625 35.3956 29.8657 34.3036 27.9908Z" fill="#374A68"/>
<path d="M59.3176 71.9511L67.9859 69.3506C63.8792 61.6085 57.8137 55.4488 50.626 47.75L41.9385 59.3125C46.7539 66.5166 50.9342 73.4447 54.3644 80.0001L59.3176 71.9511Z" fill="#374A68"/>
<path d="M34.3036 42.3551C29.2149 47.9065 20.6821 54.9859 12.0139 69.1028L20.6821 72.0747L25.3878 79.7523C25.6354 76.7803 36.7803 60.4345 42.9719 52.2616C49.1635 44.0887 56.841 33.9345 58.8223 21.5514C60.4074 11.6448 50.6804 4.46257 44.3959 2.20264C55.0455 17.8054 42.4765 33.4392 34.3036 42.3551Z" fill="#374A68"/>
</svg>
