<svg width="48" height="48" viewBox="0 0 48 48" fill="none" xmlns="http://www.w3.org/2000/svg">
<g clip-path="url(#clip0_4780_14811)">
<path d="M19.1177 20.8138C19.0982 20.4635 19.0772 20.1158 19.0564 19.7714C18.9023 17.2177 18.7588 14.8394 19.2896 12.8276C19.4546 12.1976 19.3946 11.1551 19.1621 10.5401C18.8096 9.61764 18.0521 8.73264 16.4471 9.10014C12.8771 9.91014 -0.84032 19.9526 1.20717 43.135C1.31967 44.38 2.55717 45.2125 3.74217 44.7925C4.27396 44.6066 4.92789 44.2761 5.74561 43.8629C6.34637 43.5593 7.03555 43.211 7.82965 42.8425C9.90715 41.8825 12.4946 41.11 14.0396 40.6825C15.7196 40.225 17.2346 39.25 18.2246 37.8251C19.2596 36.3401 19.6346 34.7201 19.7621 33.4901C19.8146 32.9276 19.7996 32.3501 19.7171 31.7876C19.6957 31.6389 19.674 31.4904 19.6523 31.342C19.5293 30.5023 19.407 29.6664 19.3496 28.8251L19.1396 25.7501C19.1825 25.1845 19.2041 24.6204 19.2105 24.0594C21.1962 22.9373 22.8389 21.6076 24.1047 20.1174L24.2097 19.9899L24.3147 20.1174C25.6068 21.6384 27.2987 22.9995 29.3331 24.1291C29.3404 24.6671 29.3619 25.208 29.403 25.7501L29.193 28.8251C29.1357 29.6664 29.0133 30.5023 28.8904 31.342C28.8687 31.4904 28.8469 31.6389 28.8255 31.7876C28.743 32.3501 28.728 32.9276 28.7805 33.4901C28.908 34.7201 29.283 36.3401 30.318 37.8251C31.308 39.25 32.823 40.225 34.503 40.6825C36.048 41.11 38.6355 41.8825 40.713 42.8425C41.5071 43.211 42.1962 43.5592 42.7969 43.8628C43.6146 44.2761 44.2687 44.6066 44.8005 44.7925C45.9855 45.2125 47.223 44.38 47.3355 43.135C49.383 19.9526 35.6655 9.91014 32.0955 9.10014C30.4905 8.73264 29.733 9.61764 29.3805 10.5401C29.148 11.1551 29.088 12.1976 29.253 12.8276C29.7838 14.8394 29.6403 17.2177 29.4863 19.7714C29.4637 20.1452 29.4409 20.5228 29.42 20.9035C27.3045 19.441 26.0634 18.0354 25.7322 17.4025V4H22.6873V17.4025C22.3618 18.0172 21.1854 19.3853 19.1177 20.8138Z" fill="#374A68"/>
</g>
<defs>
<clipPath id="clip0_4780_14811">
<rect width="47.9999" height="48" fill="white"/>
</clipPath>
</defs>
</svg>
