<svg width="276" height="80" viewBox="0 0 276 80" fill="none" xmlns="http://www.w3.org/2000/svg">
<path d="M94.325 65H124.325V57.275H103.55V14.45H94.325V65Z" fill="white"/>
<path d="M157.258 13.625C143.008 13.625 133.258 24.575 133.258 40.1C133.258 54.95 142.258 65.825 156.508 65.825C170.458 65.825 180.733 56.15 180.733 39.2C180.733 24.8 172.033 13.625 157.258 13.625ZM157.033 21.05C166.258 21.05 170.983 30.05 170.983 39.575C170.983 50.15 165.958 58.4 157.033 58.4C148.183 58.4 143.008 50.225 143.008 39.95C143.008 29.525 147.883 21.05 157.033 21.05Z" fill="white"/>
<path d="M196.19 65H205.415V43.55H224.015V35.975H205.415V22.025H225.365V14.45H196.19V65Z" fill="white"/>
<path d="M251.524 65H260.749V22.175H275.299V14.45H237.124V22.175H251.524V65Z" fill="white"/>
<path d="M66.9926 69.4821C66.9942 70.3368 66.8273 71.1834 66.5013 71.9736C66.1753 72.7638 65.6966 73.482 65.0925 74.0873C64.4885 74.6927 63.771 75.1732 62.981 75.5014C62.191 75.8296 61.344 75.9991 60.4883 76.0002H34.7683V43.812H60.4883C62.2104 43.812 63.8622 44.4942 65.0815 45.7089C66.3008 46.9237 66.9881 48.5718 66.9926 50.292V69.4821Z" fill="white"/>
<path d="M66.9926 29.7932C66.9927 30.6416 66.8237 31.4816 66.4956 32.2643C66.1675 33.0469 65.6868 33.7564 65.0815 34.3516C64.4761 34.9469 63.7583 35.4158 62.9697 35.7311C62.1812 36.0465 61.3376 36.202 60.4883 36.1885H34.7683V4.00023H60.4883C61.3386 3.99353 62.1819 4.15476 62.9696 4.47465C63.7574 4.79453 64.474 5.26677 65.0784 5.86422C65.6829 6.46167 66.1631 7.17256 66.4916 7.95601C66.8201 8.73946 66.9903 9.58002 66.9926 10.4294V29.7932Z" fill="white"/>
<path d="M27.1362 4.00024H8.21719C3.57859 4.00024 0 8.60825 0 14.3301V76.0002H18.7367C23.3711 76.0002 27.1362 71.3414 27.1362 65.6322V4.00024Z" fill="white"/>
</svg>
