<svg width="80" height="80" viewBox="0 0 80 80" fill="none" xmlns="http://www.w3.org/2000/svg">
<path d="M72.5304 47.2255C72.5816 46.9957 72.6327 46.7653 72.6838 46.5096C73.3835 41.7295 72.6987 38.8758 72.6841 38.1747C71.8329 33.0673 66.2897 11.569 62.0213 10.1238C57.9574 8.73966 58.7552 19.394 58.7227 20.6332C58.7227 20.7863 58.6973 20.939 58.6718 21.0922L58.6716 21.0937C58.6716 22.0925 58.3049 24.3314 57.393 26.5913V26.6169C55.3359 31.7547 51.6614 33.8584 49.5174 36.0009C46.7624 38.941 48.1586 41.8517 44.1633 41.0526C43.4613 40.7269 41.4234 39.454 39.4972 39.4545C37.5725 39.4549 34.8349 41.0527 34.8349 41.0527C30.8395 41.8518 32.2357 38.9411 29.4807 36.001C27.3367 33.8585 23.6622 31.7548 21.6051 26.6169V26.5914C20.6932 24.3315 20.3265 22.0925 20.3265 21.0938L20.3263 21.0923C20.3008 20.9391 20.2754 20.7864 20.2754 20.6332C20.2429 19.3941 21.0407 8.73972 16.9768 10.1238C12.7084 11.5691 7.16525 33.0673 6.31401 38.1747C6.29944 38.8759 5.61466 41.7295 6.31427 46.5096C6.36541 46.7653 6.41655 46.9957 6.46769 47.2256C6.72288 48.8846 7.3023 50.6755 7.43935 51.2913C7.46492 51.2913 7.46493 51.3168 7.46493 51.3424C7.49025 51.3936 7.51607 51.4703 7.51607 51.5217C9.4428 56.3266 12.2318 68.449 21.3241 68.449C23.0373 68.449 24.7249 67.8097 26.0801 66.736C31.4246 62.6015 27.0852 56.5183 31.9613 55.2602C34.8755 54.5083 36.4877 56.8724 39.4972 56.8727C42.5082 56.873 44.1215 54.5073 47.0368 55.2601C51.9127 56.5193 47.5735 62.6015 52.918 66.7359C54.2732 67.8096 55.9608 68.4489 57.6741 68.4489C66.7664 68.4489 69.5553 56.3265 71.482 51.5216C71.482 51.4702 71.5079 51.3935 71.5332 51.3423C71.5332 51.3168 71.5332 51.2912 71.5588 51.2912C71.6958 50.6755 72.2752 48.8845 72.5304 47.2255Z" fill="#F26674"/>
</svg>
