<svg width="80" height="80" viewBox="0 0 80 80" fill="none" xmlns="http://www.w3.org/2000/svg">
<g clip-path="url(#clip0)">
<g clip-path="url(#clip1)">
<path d="M31.3463 36.2091C29.3566 45.4096 26.9268 56.686 33.7939 63.7655L37.3154 62.6006C30.5012 56.7159 32.8782 45.6634 34.7975 36.7469L34.8079 36.6989C35.8776 31.7456 36.8026 27.4621 36.1357 24.4846C35.5546 21.8858 34.1108 20.0487 31.8218 19.048C29.339 17.9577 26.3985 18.1369 24.1799 18.5402L23.4404 21.7962C25.2365 21.3033 28.1946 20.7955 30.2018 21.6916C31.5049 22.2741 32.2971 23.3644 32.6846 25.0372C33.2294 27.4674 32.318 31.6985 31.3515 36.1852L31.3463 36.2091Z" fill="#C4455E"/>
<path d="M49.048 36.2089C51.0376 45.4093 53.4675 56.6858 46.6004 63.7653L43.0789 62.6003C49.8931 56.7157 47.5161 45.6632 45.5968 36.7466L45.5864 36.6986C44.5167 31.7453 43.5917 27.4619 44.2586 24.4844C44.8396 21.8856 46.2835 20.0485 48.5725 19.0477C51.0553 17.9575 53.9958 18.1367 56.2144 18.54L56.9539 21.7959C55.1578 21.303 52.1997 20.7953 50.1925 21.6914C48.8894 22.2739 48.0972 23.3642 47.7097 25.037C47.1649 27.4672 48.0763 31.6983 49.0428 36.185L49.048 36.2089Z" fill="#C4455E"/>
<path d="M23.8064 23.0976C24.748 24.0582 25.3847 25.2756 25.6366 26.5969C25.8885 27.9182 25.7443 29.2845 25.2222 30.5241C24.7001 31.7638 23.8233 32.8215 22.702 33.5644C21.5807 34.3074 20.2649 34.7024 18.9198 34.6999C18.9198 34.6999 8 36.0649 8 18.3202C8 10.8265 10.5661 7.04556 13.3643 5.14824C18.6877 1.53107 27.1096 3.12808 27.1096 10.1304C27.1101 11.0642 26.919 11.9882 26.548 12.8451C26.177 13.7021 25.6342 14.4738 24.953 15.1125C25.6352 16.3926 25.8919 17.8568 25.6857 19.2926C25.4796 20.7285 24.8213 22.0612 23.8064 23.0976Z" fill="#F26674"/>
<path d="M56.8723 23.1005C55.9306 24.0612 55.2938 25.2787 55.0419 26.6002C54.79 27.9216 54.9342 29.2881 55.4563 30.5278C55.9785 31.7676 56.8554 32.8254 57.9768 33.5685C59.0982 34.3115 60.4142 34.7066 61.7595 34.7041C61.7595 34.7041 72.6805 36.0692 72.6805 18.3226C72.6805 1.94106 60.3943 3.30618 60.3943 3.30618C59.0249 3.30542 57.6869 3.71662 56.5542 4.48632C55.4215 5.25602 54.5466 6.34863 54.0431 7.62215C53.5395 8.89567 53.4307 10.2912 53.7308 11.6274C54.0309 12.9636 54.7259 14.1786 55.7256 15.1145C55.0433 16.3947 54.7866 17.8591 54.9928 19.2951C55.199 20.731 55.8573 22.064 56.8723 23.1005Z" fill="#F26674"/>
<path d="M51.8306 65.836C51.8306 64.2399 50.8811 63.0466 49.4042 62.2112C49.0009 61.9398 47.8334 61.3272 46.3899 61.0477C44.6115 60.6151 42.607 60.4211 40.7231 60.4211C38.8542 60.4211 36.8497 60.6151 35.0713 61.0477C34.3959 61.2082 32.8475 61.6654 32.0571 62.2112C30.58 63.0466 29.6306 64.2399 29.6306 65.836C29.6306 71.8923 34.6041 76.8298 40.7231 76.8298C46.8571 76.8298 51.8306 71.8923 51.8306 65.836Z" fill="#F26674"/>
</g>
</g>
<defs>
<clipPath id="clip0">
<rect width="80" height="80.0002" fill="white"/>
</clipPath>
<clipPath id="clip1">
<rect width="64.75" height="74" fill="white" transform="translate(8 3)"/>
</clipPath>
</defs>
</svg>
