<svg width="80" height="80" viewBox="0 0 80 80" fill="none" xmlns="http://www.w3.org/2000/svg">
<path d="M56.5934 42.9658L58.5934 71.291C58.5945 72.0322 58.3006 72.7432 57.7765 73.2673C57.2525 73.7914 56.5414 74.0853 55.8002 74.0842H55.7867C54.9836 74.0784 54.2204 73.7337 53.685 73.1351L43.8478 60.1589C43.3288 59.5726 42.5834 59.2369 41.8004 59.2369H41.6783C38.6829 59.2369 36.2546 56.8086 36.2546 53.8132V44.3217L56.5934 42.9658Z" fill="#C4455E"/>
<path d="M72.4741 48.7973C72.4741 54.5295 66.7297 59.1861 59.6409 59.1861C58.6145 59.191 57.5904 59.0886 56.5854 58.8806C55.3127 58.6317 54.0793 58.2124 52.9187 57.6339C50.4035 56.4672 48.4217 54.3937 47.3699 51.8284L57.8076 37.1863L71.6919 45.2284V45.2407C72.2086 46.3551 72.4755 47.5689 72.4741 48.7973Z" fill="#F7A3AC"/>
<path d="M75.2916 28.2135C74.5087 27.7048 73.654 27.3163 72.756 27.061C72.7831 26.8847 72.7967 26.722 72.8102 26.5457C72.8374 26.1118 72.8645 25.6779 72.8645 25.244C72.8033 17.3517 66.6042 10.8733 58.7222 10.4645C58.5595 10.3018 58.3833 10.1527 58.207 10.0035C55.5037 7.65151 52.0412 6.35609 48.4579 6.35608C46.6019 6.36136 44.7629 6.71077 43.0342 7.38658H43.0207C42.1751 6.69482 41.2225 6.14527 40.2004 5.75948C38.9475 5.25053 37.6069 4.99255 36.2547 5.00016C34.6033 4.99487 32.9735 5.37561 31.4954 6.11202C30.6055 6.54853 29.7797 7.10513 29.0412 7.76624L29.0276 7.7798C28.9191 7.712 28.7971 7.64421 28.6751 7.57641C24.8784 5.42901 20.1039 6.16958 17.1362 9.36623C16.4473 10.0855 15.8835 10.9151 15.4684 11.8204C15.1701 11.7933 14.8718 11.7798 14.5599 11.7798C9.31981 11.7842 5.07298 16.0311 5.0685 21.2712C5.0685 21.3661 5.08206 21.4881 5.08206 21.5831V21.6102C0.96573 24.4527 -0.223055 30.0103 2.37022 34.288C2.37022 34.3016 2.37022 34.3016 2.38377 34.3151C2.37022 34.4914 2.35666 34.6541 2.35666 34.8304C2.35388 36.0631 2.5414 37.2888 2.91258 38.4643V38.4778C4.38681 43.1893 8.5575 46.5462 13.4752 46.9794C13.8355 47.0181 14.1976 47.0362 14.5599 47.0337C15.1088 47.0272 15.6568 46.9865 16.2006 46.9116C16.2548 47.1286 16.3091 47.3591 16.3633 47.576C16.3904 47.6981 16.4311 47.8201 16.4582 47.9286C16.6593 48.5873 16.9179 49.227 17.2311 49.8404C17.3667 50.1116 17.5158 50.3828 17.6785 50.654C19.8932 54.2948 23.8441 56.5194 28.1056 56.5251H28.1191C31.5417 56.527 34.8061 55.0844 37.1089 52.5523C37.7259 51.8816 38.267 51.145 38.7224 50.3557V50.3421C39.0207 50.5048 39.319 50.654 39.6173 50.7896C39.6553 50.8132 39.6964 50.8315 39.7394 50.8438C47.4885 54.4152 56.6832 51.9049 61.5426 44.8913C62.094 44.1178 62.575 43.2964 62.9798 42.4371C62.9798 42.4235 62.9934 42.4235 62.9934 42.41C65.4237 45.2288 69.2773 46.367 72.8492 45.3211C76.421 44.2752 79.052 41.2381 79.578 37.5536C80.104 33.8691 78.4281 30.2172 75.2916 28.2135Z" fill="#F26674"/>
<path fill-rule="evenodd" clip-rule="evenodd" d="M78.1272 41.4046C76.938 39.4884 74.7873 38.9945 74.6763 38.9703C74.4739 38.9256 74.262 38.9632 74.0873 39.0747C73.9126 39.1863 73.7893 39.3627 73.7447 39.5651C73.7 39.7675 73.7376 39.9794 73.8491 40.1541C73.9607 40.3288 74.1371 40.4521 74.3395 40.4967C74.428 40.5169 76.3435 40.9745 77.0615 42.7512C77.4562 42.3358 77.813 41.8851 78.1272 41.4046Z" fill="#C4455E"/>
<path fill-rule="evenodd" clip-rule="evenodd" d="M74.4461 27.7251C74.7359 27.8729 75.0181 28.0359 75.2916 28.2136C75.6536 28.4449 75.9962 28.6981 76.3181 28.9708C76.3202 29.2224 76.3176 29.5699 76.3159 29.8158C76.3153 29.8888 76.3149 29.9528 76.3146 30.0027C76.3038 32.1708 74.6119 33.8349 73.0674 34.761C73.0398 34.7774 73.0121 34.7937 72.9846 34.8096C72.4413 35.1288 71.8495 35.3568 71.2326 35.4847C68.4784 36.039 67.1689 34.2203 66.839 33.1285C66.3846 32.0732 65.9329 31.9018 65.8658 31.8819C65.6411 31.8679 65.4305 31.7674 65.2784 31.6014C65.1263 31.4354 65.0445 31.2169 65.0501 30.9918C65.0557 30.7668 65.1483 30.5526 65.3085 30.3944C65.4687 30.2363 65.684 30.1463 65.9091 30.1436C66.1677 30.1387 67.5092 30.2336 68.4617 32.4984C68.4763 32.5329 68.4886 32.5683 68.4984 32.6045C68.5755 32.8573 69.0601 34.1469 70.8888 33.7789C71.3429 33.6836 71.7773 33.5108 72.1728 33.2682C72.4001 33.132 74.4558 31.6626 74.4949 29.9072C74.5112 29.3093 74.4997 28.4092 74.4461 27.7251Z" fill="#C4455E"/>
<path opacity="0.9" fill-rule="evenodd" clip-rule="evenodd" d="M15.4685 11.82C16.5908 12.4847 20.0205 15.0518 20.3141 16.4333C20.4478 17.1103 20.4231 17.8091 20.2419 18.475C20.0606 19.1408 19.7278 19.7558 19.2695 20.2717C19.074 20.4969 18.8619 20.7071 18.6351 20.9007C18.4327 21.0845 18.3097 21.3398 18.2921 21.6127C18.2745 21.8855 18.3637 22.1545 18.5409 22.3628C18.718 22.571 18.9692 22.7022 19.2414 22.7286C19.5135 22.755 19.7852 22.6746 19.9991 22.5043C20.306 22.2426 20.5929 21.9585 20.8575 21.6541C21.4788 20.9474 21.9422 20.1164 22.2169 19.2165C22.4916 18.3166 22.5714 17.3685 22.4507 16.4353C23.1424 16.3866 23.8136 16.18 24.4128 15.8313C25.0121 15.4826 25.5234 15.0011 25.9074 14.4239C25.99 14.3103 26.0489 14.1813 26.0809 14.0446C26.1128 13.9078 26.1171 13.7661 26.0934 13.6276C26.0697 13.4892 26.0186 13.3569 25.9431 13.2386C25.8675 13.1202 25.769 13.0181 25.6535 12.9384C25.5379 12.8587 25.4075 12.8028 25.27 12.7742C25.1325 12.7456 24.9907 12.7448 24.8529 12.7719C24.7151 12.7989 24.5841 12.8532 24.4676 12.9316C24.3511 13.0101 24.2515 13.111 24.1746 13.2285C23.9082 13.613 23.5437 13.9192 23.119 14.1152C22.6943 14.3112 22.2248 14.39 21.7594 14.3432C21.392 13.6987 18.0241 10.6941 16.7518 9.80005C16.736 9.8169 16.7203 9.8338 16.7047 9.85074C16.2091 10.4497 15.7934 11.1116 15.4685 11.82Z" fill="#C4455E"/>
<path fill-rule="evenodd" clip-rule="evenodd" d="M72.0398 20.4576C70.7173 20.2883 68.7653 19.1036 67.5092 18.0631C66.2279 17.2385 62.9488 16.2304 60.0827 18.7947C59.9755 18.8786 59.8882 18.9813 59.8262 19.0966C59.7641 19.2119 59.7285 19.3373 59.7215 19.4654C59.7145 19.5935 59.7363 19.7215 59.7855 19.8418C59.898 20.0845 60.1095 20.2786 60.376 20.3839C60.6426 20.4891 60.9437 20.4974 61.2168 20.4069C61.2242 20.4047 61.2583 20.3783 61.3154 20.3339C61.8353 19.9298 64.2663 18.0404 65.9545 19.4387C67.9558 21.0969 70.9641 22.3181 72.5703 22.398C72.4365 21.7344 72.2586 21.0865 72.0398 20.4576Z" fill="#C4455E"/>
<path d="M46.8544 43.2768C44.9446 44.0944 42.8194 44.2632 40.8045 43.7574C37.2922 42.9285 33.7273 43.1254 31.9149 43.3176C31.621 43.3526 31.3526 43.5018 31.168 43.7332C30.9833 43.9645 30.8972 44.2593 30.9284 44.5537C30.9595 44.848 31.1053 45.1183 31.3342 45.3059C31.5632 45.4935 31.8568 45.5834 32.1515 45.5561C33.8216 45.3797 37.0995 45.1959 40.2873 45.9483C41.2333 46.1738 42.2022 46.2885 43.1747 46.2902C44.7532 46.2951 46.3154 45.9705 47.7613 45.3372C50.1583 44.3084 52.3466 42.8492 54.2177 41.0319C54.252 41.0015 54.2843 40.9689 54.3145 40.9345C55.8176 39.4333 58.9896 36.6208 59.6242 33.8288C59.6784 33.6913 59.705 33.5444 59.7024 33.3966C59.6999 33.2488 59.6682 33.1029 59.6093 32.9673C59.5504 32.8318 59.4653 32.7091 59.359 32.6064C59.2527 32.5037 59.1272 32.4229 58.9896 32.3687C58.8521 32.3145 58.7052 32.2879 58.5574 32.2905C58.4096 32.293 58.2637 32.3246 58.1282 32.3836C57.9926 32.4425 57.8699 32.5275 57.7672 32.6339C57.6645 32.7402 57.5837 32.8657 57.5295 33.0032C56.6473 35.2416 55.3601 36.1611 54.5036 37.1397C54.2177 34.7483 52.0868 33.1309 51.5982 32.6454C51.3751 32.4453 51.0818 32.3417 50.7825 32.3571C50.4832 32.3725 50.2022 32.5057 50.0008 32.7276C49.9017 32.8365 49.8253 32.9639 49.7757 33.1025C49.7262 33.2411 49.7046 33.3882 49.7121 33.5352C49.7197 33.6822 49.7563 33.8263 49.8198 33.9591C49.8833 34.0919 49.9724 34.2108 50.0821 34.309C50.1192 34.3453 53.5212 37.1397 52.4444 39.6199C50.8084 41.1553 48.9166 42.3929 46.8544 43.2768Z" fill="#C4455E"/>
<path d="M8.48616 24.6086C8.47266 24.6163 8.46001 24.6235 8.44699 24.6321C5.62926 26.4118 5.22756 29.6053 6.0021 32.0202C6.17023 32.544 6.73044 32.8316 7.25337 32.664C7.78474 32.4915 8.06478 31.9357 7.89714 31.4127C7.36967 29.7696 7.55983 27.546 9.51008 26.314C9.97474 26.0208 10.1127 25.4062 9.8195 24.9415C9.53482 24.4899 8.94515 24.3466 8.48616 24.6086Z" fill="#C4455E"/>
<path d="M31.2021 52.1692C31.1886 52.1774 31.1759 52.1851 31.1618 52.1924C28.1803 53.8197 23.976 52.9255 22.2092 51.0388C21.826 50.6295 21.8475 49.988 22.256 49.6054C22.6729 49.2176 23.3068 49.2438 23.6894 49.6522C24.8913 50.9364 28.1271 51.5383 30.1908 50.412C30.6823 50.1435 31.298 50.3253 31.5665 50.8167C31.8276 51.2941 31.663 51.8903 31.2021 52.1692Z" fill="#C4455E"/>
<path fill-rule="evenodd" clip-rule="evenodd" d="M15.4632 46.992C15.4633 46.976 15.4633 46.9596 15.4633 46.943C15.5 45.5 15.6259 43.0185 16.1109 41.5786C16.1533 41.4958 16.1843 41.4077 16.2032 41.3166C17.0305 39.1145 18.7372 36.8116 22.2228 35.8307C22.2243 35.8308 22.2258 35.8299 22.2273 35.8291C22.2283 35.8285 22.2294 35.8279 22.2305 35.8276C22.2774 35.8129 22.3233 35.7949 22.3676 35.7737C22.3751 35.7703 22.3828 35.7674 22.3905 35.7644C22.4022 35.7599 22.414 35.7554 22.4248 35.7495C22.4608 35.7293 22.4954 35.7068 22.5286 35.6823C22.537 35.6766 22.5457 35.6712 22.5544 35.6659C22.5687 35.6571 22.583 35.6483 22.596 35.6378C22.6256 35.612 22.6537 35.5846 22.6804 35.5558C22.6835 35.5526 22.6868 35.5494 22.6901 35.5462C22.6946 35.5419 22.6993 35.5376 22.7039 35.5333L22.704 35.5333C22.7164 35.5218 22.7288 35.5104 22.7395 35.4976C22.7698 35.4599 22.7975 35.4203 22.8223 35.3789C22.8264 35.3725 22.831 35.3663 22.8355 35.3602L22.8355 35.3601C22.842 35.3513 22.8486 35.3425 22.8538 35.3328C22.8708 35.2992 22.886 35.2647 22.8994 35.2296C22.9011 35.2255 22.9029 35.2214 22.9047 35.2174C22.9072 35.2118 22.9098 35.2063 22.9123 35.2008C22.9208 35.1826 22.9293 35.1643 22.9356 35.1451C22.9417 35.1268 22.9447 35.1111 22.9476 35.0955L22.9476 35.0955C22.9494 35.0861 22.9512 35.0769 22.9536 35.0671C22.9649 35.0258 22.9736 34.9838 22.9797 34.9414C22.9798 34.938 22.9799 34.9349 22.9816 34.9315C23.3008 31.8954 24.8004 31.0712 24.8959 31.0216C25.1465 30.9037 25.3402 30.6914 25.4348 30.4312C25.5293 30.1709 25.517 29.8838 25.4005 29.6326C25.284 29.3813 25.0727 29.1865 24.813 29.0905C24.5532 28.9946 24.2663 29.0054 24.0145 29.1206C23.9119 29.167 21.6305 30.2451 20.9932 34.021C19.5405 34.4872 18.2073 35.2652 17.0869 36.3006C15.9664 37.3359 15.0857 38.6037 14.5065 40.0151C13.0484 39.8941 11.6519 39.3736 10.4703 38.5107C10.3599 38.4267 10.2339 38.3655 10.0996 38.3306C9.96534 38.2957 9.82548 38.2878 9.68813 38.3073C9.55078 38.3269 9.41868 38.3735 9.2995 38.4445C9.18033 38.5156 9.07644 38.6096 8.99387 38.721C8.9113 38.8325 8.85169 38.9593 8.8185 39.094C8.78532 39.2287 8.77921 39.3687 8.80055 39.5058C8.82188 39.6428 8.87022 39.7743 8.94277 39.8926C9.01532 40.0108 9.11063 40.1135 9.22318 40.1946C10.5773 41.1901 12.162 41.8253 13.8288 42.0408C13.4991 43.3602 13.3442 45.5307 13.3679 46.9695C13.4036 46.973 13.4394 46.9763 13.4752 46.9794C13.8355 47.0181 14.1976 47.0362 14.5599 47.0337C14.8615 47.0301 15.1628 47.0163 15.4632 46.992Z" fill="#C4455E"/>
<path fill-rule="evenodd" clip-rule="evenodd" d="M43.1246 7.35155C42.5415 8.32582 41.9816 9.8219 41.9816 10.8732C41.9816 11.5323 42.0561 12.1004 42.1178 12.5701L42.1178 12.5701C42.1263 12.6345 42.1345 12.6971 42.1422 12.7578L42.1438 12.7689C42.3243 14.0218 42.3321 14.0763 41.3498 14.5033C40.7501 14.7604 40.0862 14.8246 39.3795 14.8888C37.7411 15.028 35.5138 15.2316 35.1497 18.7117C35.0855 19.3007 35.5138 19.8254 36.1028 19.8896C36.1188 19.8896 36.1375 19.8923 36.1562 19.895L36.1563 19.895C36.175 19.8976 36.1937 19.9003 36.2098 19.9003C36.7559 19.9003 37.2164 19.4827 37.2806 18.9365C37.4515 17.2064 37.9846 17.1592 39.5491 17.0209L39.5615 17.0198C40.3753 16.9448 41.2855 16.8591 42.1958 16.4629C44.6908 15.3921 44.4659 13.8287 44.2625 12.458L44.2434 12.3132V12.3131C44.1843 11.8662 44.1232 11.4046 44.1232 10.8732C44.1232 10.3378 44.5888 8.43747 45.2849 8.14834C45.9331 7.88037 46.8466 7.49382 47.5521 6.38599C46.0375 6.48187 44.5445 6.80698 43.1246 7.35155Z" fill="#C4455E"/>
<path d="M44.5283 25.7596C42.5704 26.0154 40.9449 26.572 39.6956 27.4113C38.9615 27.9057 38.3735 28.588 37.993 29.387C37.6124 30.1861 37.4532 31.0726 37.532 31.9542C37.8083 34.6558 40.4558 35.1373 40.5686 35.1564C40.8264 35.2002 41.0565 35.3441 41.2087 35.5567C41.3609 35.7694 41.4229 36.0335 41.3812 36.2917C41.3398 36.5493 41.1978 36.78 40.9865 36.9331C40.7752 37.0862 40.5118 37.1492 40.2541 37.1083C38.7837 36.876 35.9115 35.5414 35.5649 32.1554C35.507 31.5799 35.5232 30.9994 35.613 30.428C33.8658 30.0006 33.0334 28.4575 32.9914 28.3774C32.8684 28.1459 32.8424 27.875 32.9192 27.6243C32.9959 27.3736 33.1691 27.1636 33.4006 27.0406C33.6321 26.9176 33.9031 26.8916 34.1538 26.9683C34.4045 27.0451 34.6144 27.2183 34.7374 27.4498C34.8958 27.719 35.1075 27.953 35.3596 28.1375C35.6117 28.322 35.8987 28.4531 36.2033 28.5227C36.7405 27.4087 37.5654 26.4583 38.5928 25.7697C40.0978 24.7571 42.0078 24.095 44.2723 23.798C44.7519 23.7351 45.2276 23.6454 45.6971 23.5294C47.5761 22.3958 46.9953 20.766 46.9692 20.6966C46.8769 20.4512 46.8859 20.1792 46.9942 19.9404C47.1025 19.7017 47.3012 19.5157 47.5466 19.4234C47.792 19.3311 48.064 19.3401 48.3027 19.4484C48.5415 19.5567 48.7275 19.7554 48.8198 20.0008C49.0581 20.687 49.113 21.4236 48.979 22.1376C50.0545 21.4963 51.0144 20.6786 51.8187 19.7189C52.114 19.196 53.3485 18.1274 54.0428 19.1087C54.3811 19.5869 54.0428 20.1475 53.3485 20.9718C52.1433 22.4029 50.6577 23.572 48.9834 24.4071C47.5881 25.1129 46.0805 25.5706 44.5283 25.7596Z" fill="#C4455E"/>
</svg>
