<svg width="80" height="80" viewBox="0 0 80 80" fill="none" xmlns="http://www.w3.org/2000/svg">
<path d="M77.878 25.7561C77.6341 18.6585 71.8415 13.0122 64.7439 13.0122C63.1097 13.0122 61.5244 13.3171 60.0732 13.878C58.878 14.3415 57.5244 14.122 56.561 13.2927C55.8536 12.6829 55.2683 12.0244 54.8049 11.439C53.3171 9.53659 52.1951 7.18293 51.0854 4.7439C50.4878 3.45122 49.9268 2.12195 49.7683 0.97561C49.7683 0.97561 47.577 0 46.0915 0C44.6059 0 42.4146 0.97561 42.4146 0.97561C42.5488 3.43902 43.4878 5.73171 44.4268 7.78049C45.7317 10.6341 47.061 13.4024 49.0244 15.939C49.7561 16.878 50.5488 17.7317 51.378 18.4878C52 19.0488 52.3902 19.8415 52.4512 20.6707C52.5732 22.1585 51.7439 23.8537 51.2439 25.2317C50.5366 27.1585 49.6829 29.0244 48.6829 30.8171C47.8537 32.3049 46.9268 33.7439 45.9146 35.1098C44.9024 36.4756 43.8049 37.7805 42.6341 39C41.4634 40.2317 40.2073 41.378 38.8902 42.439C37.561 43.5122 36.1707 44.4878 34.7195 45.3902C33.2561 46.2927 31.7439 47.0854 30.1829 47.7927C28.6098 48.5 26.9756 49.1098 25.3171 49.5976C24.3171 49.8902 23.3049 50.1585 22.2927 50.3659C21.2805 50.5854 20.2439 50.6463 19.1951 50.5488C14.8049 50.1341 10.4146 51.6098 7.15854 54.5732C3.87805 57.5488 2 61.8049 2 66.2317V79.0244C2 79.0244 4.54939 80 6.18293 80C7.81646 80 10.3659 79.0244 10.3659 79.0244V66.439C10.3659 64.7683 10.8537 63.1098 11.8659 61.7805C11.878 61.7561 11.8902 61.7439 11.9146 61.7195C13.1585 60.122 15.4512 59.7439 17.1585 60.8171C23.7683 64.9512 31.6829 67.2073 40.1463 66.7927C60.0488 65.8293 76.3171 50 77.7805 30.122C77.8902 28.6585 77.9268 27.1951 77.878 25.7561Z" fill="#F26674"/>
</svg>
