<svg width="80" height="80" viewBox="0 0 80 80" fill="none" xmlns="http://www.w3.org/2000/svg">
<g clip-path="url(#clip0)">
<path d="M54.8645 67.7837C63.5655 67.7837 70.6191 60.7301 70.6191 52.029C70.6191 43.328 63.5655 36.2744 54.8645 36.2744C46.1635 36.2744 39.1099 43.328 39.1099 52.029C39.1099 60.7301 46.1635 67.7837 54.8645 67.7837Z" fill="#374A68"/>
<path d="M63.7713 55.8412C62.2027 55.8412 61.5832 54.1992 61.0856 52.8796C60.9193 52.3165 60.661 51.7888 60.3225 51.3207C60.0593 51.8193 59.8361 52.3406 59.6553 52.8791C59.1577 54.1986 58.5382 55.8412 56.9691 55.8412C55.4015 55.8412 54.7826 54.1986 54.2854 52.8785C54.1197 52.3158 53.8621 51.7883 53.5244 51.3201C53.2646 51.8198 53.0433 52.341 52.8625 52.8785C52.3653 54.1986 51.7469 55.8412 50.1793 55.8412C48.6117 55.8412 47.9933 54.1986 47.4962 52.8785C47.3304 52.3158 47.0729 51.7883 46.7352 51.3201C46.5974 51.3203 46.461 51.2914 46.3339 51.2349C46.2068 51.1784 46.0916 51.0956 45.995 50.9912C45.8985 50.8869 45.8225 50.7631 45.7716 50.6272C45.7206 50.4913 45.6958 50.346 45.6984 50.1998C45.7043 49.8988 45.8217 49.6125 46.0251 49.4028C46.2284 49.1931 46.5015 49.0769 46.785 49.0794C48.3525 49.0794 48.971 50.722 49.4681 52.0421C49.6339 52.6048 49.8914 53.1323 50.2291 53.6005C50.4885 53.1006 50.7096 52.5795 50.8905 52.0421C51.3877 50.722 52.0061 49.0794 53.5737 49.0794C55.1412 49.0794 55.7602 50.722 56.2574 52.0421C56.4231 52.6048 56.6807 53.1323 57.0183 53.6005C57.2807 53.1011 57.5035 52.5795 57.6845 52.041C58.1821 50.7214 58.8016 49.0794 60.3702 49.0794C61.9393 49.0794 62.5588 50.722 63.0564 52.0415C63.2228 52.6045 63.4811 53.132 63.8195 53.5999C63.9573 53.5997 64.0938 53.6287 64.2209 53.6851C64.3481 53.7416 64.4633 53.8244 64.5599 53.9288C64.6565 54.0331 64.7325 54.1569 64.7835 54.2928C64.8345 54.4287 64.8594 54.574 64.8568 54.7203C64.8512 55.0212 64.7341 55.3076 64.5309 55.5174C64.3277 55.7273 64.0548 55.8436 63.7713 55.8412Z" fill="white"/>
<path d="M59.5412 15.6846L56.6222 13.7496C55.7355 13.2672 54.8137 12.8591 53.9015 12.5314C53.0783 12.2384 52.2655 11.9809 51.4181 11.7751L48.1484 11.1153C46.0029 10.8233 43.7969 10.7604 41.5972 10.936L38.4973 11.3054C36.0348 11.7278 33.578 12.4336 31.1714 13.4288L28.3902 14.6557C26.4889 15.5953 24.6063 16.7184 22.7765 17.9957C22.1176 18.4487 21.4918 18.9175 20.8771 19.3992L18.5858 21.3372C15.596 24.028 13.2506 26.9875 11.5619 30.1607L10.2622 32.9346C9.31879 35.2709 8.74251 37.7362 8.50236 40.2021L8.39309 43.3981C8.46714 45.8389 8.72856 49.2577 9.49995 51.5674C10.2879 54.1062 11.6798 60 16.5 64C18.6681 65.7992 23.3664 70.0772 31.5 68.5C33 68.2092 34.9207 66.8356 35.493 65.5C36.4277 63.3187 35.697 61.3015 35.493 60.6997C33.4686 56.0192 33.133 50.5937 34.9565 45.4031C37.0997 39.3023 41.7733 34.8137 47.3861 32.7013C50.1653 31.6554 53.1747 31.192 56.2212 31.4039C58.1987 31.3034 59.2891 31.3684 60.8195 30.6337C62.3498 29.8991 63.5022 28.5292 63.7818 27.1039C65.4171 22.7497 61.6361 17.6767 59.5412 15.6846Z" fill="#374A68"/>
</g>
<defs>
<clipPath id="clip0">
<rect width="80" height="80" fill="white"/>
</clipPath>
</defs>
</svg>
