<svg width="24" height="24" viewBox="0 0 24 24" fill="none" xmlns="http://www.w3.org/2000/svg">
<path d="M24 5.03271H0V19.0343H24V5.03271Z" fill="#CB2127"/>
<path d="M2.31084 10.0999L2.76084 8.70302L1.57491 7.83584L3.04209 7.83115L3.50147 6.43896L3.95616 7.83115L5.42334 7.83584L4.23741 8.70302L4.68741 10.0999L3.50147 9.2374L2.31084 10.0999Z" fill="#F7DE28"/>
<path d="M6.40309 10.8545L6.89996 11.0514L7.24215 10.6436L7.20465 11.1779L7.70152 11.3795L7.18121 11.5107L7.14371 12.0404L6.85777 11.5904L6.34215 11.717L6.68434 11.3045L6.40309 10.8545Z" fill="#F7DE28"/>
<path d="M9.08445 8.16895L8.55945 8.07988L8.30633 8.54863L8.23133 8.01894L7.70633 7.92519L8.18445 7.69082L8.10945 7.16113L8.48445 7.54551L8.96258 7.31113L8.71414 7.78457L9.08445 8.16895Z" fill="#F7DE28"/>
<path d="M7.96871 10.5593L8.13277 10.053L7.70152 9.73897H8.2359L8.39996 9.22803L8.56402 9.73897H9.0984L8.66715 10.053L8.83121 10.5593L8.39996 10.2499L7.96871 10.5593Z" fill="#F7DE28"/>
<path d="M6.42664 5.92363L6.91414 6.14395L7.27977 5.75488L7.21414 6.28457L7.69695 6.51426L7.17195 6.61739L7.10633 7.14707L6.84852 6.67832L6.32352 6.78145L6.68445 6.3877L6.42664 5.92363Z" fill="#F7DE28"/>
</svg>
