<svg width="24" height="24" viewBox="0 0 24 24" fill="none" xmlns="http://www.w3.org/2000/svg">
<path d="M24 17.9248H0V19.0029H24V17.9248Z" fill="#CB001C"/>
<path d="M24 16.8467H0V17.9248H24V16.8467Z" fill="white"/>
<path d="M24 15.7686H0V16.8467H24V15.7686Z" fill="#CB001C"/>
<path d="M24 14.6904H0V15.7686H24V14.6904Z" fill="white"/>
<path d="M24 13.6172H0V14.6953H24V13.6172Z" fill="#CB001C"/>
<path d="M24 12.5391H0V13.6172H24V12.5391Z" fill="white"/>
<path d="M24 11.4609H0V12.5391H24V11.4609Z" fill="#CB001C"/>
<path d="M24 10.3828H0V11.4609H24V10.3828Z" fill="white"/>
<path d="M24 9.30957H0V10.3877H24V9.30957Z" fill="#CB001C"/>
<path d="M24 8.23145H0V9.30957H24V8.23145Z" fill="white"/>
<path d="M24 7.15332H0V8.23145H24V7.15332Z" fill="#CB001C"/>
<path d="M24 6.0752H0V7.15332H24V6.0752Z" fill="white"/>
<path d="M24 5.00146H0V6.07959H24V5.00146Z" fill="#CB001C"/>
<path d="M10.9594 5.00146H0V12.539H10.9594V5.00146Z" fill="#2A3560"/>
<path d="M0.989102 5.83105L1.08285 6.117H1.37816L1.1391 6.29044L1.22816 6.57638L0.989102 6.39825L0.745352 6.57638L0.839102 6.29044L0.595352 6.117H0.895352L0.989102 5.83105Z" fill="white"/>
<path d="M0.989102 7.0874L1.08285 7.37334H1.37816L1.1391 7.55147L1.22816 7.83272L0.989102 7.65928L0.745352 7.83272L0.839102 7.55147L0.595352 7.37334H0.895352L0.989102 7.0874Z" fill="white"/>
<path d="M0.989102 8.34863L1.08285 8.63457H1.37816L1.1391 8.80801L1.22816 9.09394L0.989102 8.91582L0.745352 9.09394L0.839102 8.80801L0.595352 8.63457H0.895352L0.989102 8.34863Z" fill="white"/>
<path d="M0.989102 9.60449L1.08285 9.89043H1.37816L1.1391 10.0686L1.22816 10.3498L0.989102 10.1764L0.745352 10.3498L0.839102 10.0686L0.595352 9.89043H0.895352L0.989102 9.60449Z" fill="white"/>
<path d="M0.989102 10.8652L1.08285 11.1465H1.37816L1.1391 11.3246L1.22816 11.6105L0.989102 11.4324L0.745352 11.6105L0.839102 11.3246L0.595352 11.1465H0.895352L0.989102 10.8652Z" fill="white"/>
<path d="M1.86575 6.49219L1.9595 6.77813H2.25481L2.01575 6.95625L2.10481 7.2375L1.86575 7.06406L1.622 7.2375L1.71575 6.95625L1.472 6.77813H1.772L1.86575 6.49219Z" fill="white"/>
<path d="M1.86575 7.75293L1.9595 8.03418H2.25481L2.01575 8.2123L2.10481 8.49824L1.86575 8.32012L1.622 8.49824L1.71575 8.2123L1.472 8.03418H1.772L1.86575 7.75293Z" fill="white"/>
<path d="M1.86575 9.00928L1.9595 9.29522H2.25481L2.01575 9.47334L2.10481 9.75459L1.86575 9.58115L1.622 9.75459L1.71575 9.47334L1.472 9.29522H1.772L1.86575 9.00928Z" fill="white"/>
<path d="M1.86575 10.2705L1.9595 10.5518H2.25481L2.01575 10.7299L2.10481 11.0158L1.86575 10.8377L1.622 11.0158L1.71575 10.7299L1.472 10.5518H1.772L1.86575 10.2705Z" fill="white"/>
<path d="M2.75151 5.83105L2.84525 6.117H3.14525L2.9015 6.29044L2.99525 6.57638L2.75151 6.39825L2.50776 6.57638L2.60151 6.29044L2.35776 6.117H2.65776L2.75151 5.83105Z" fill="white"/>
<path d="M2.75151 7.0874L2.84525 7.37334H3.14525L2.9015 7.55147L2.99525 7.83272L2.75151 7.65928L2.50776 7.83272L2.60151 7.55147L2.35776 7.37334H2.65776L2.75151 7.0874Z" fill="white"/>
<path d="M2.75151 8.34863L2.84525 8.63457H3.14525L2.9015 8.80801L2.99525 9.09394L2.75151 8.91582L2.50776 9.09394L2.60151 8.80801L2.35776 8.63457H2.65776L2.75151 8.34863Z" fill="white"/>
<path d="M2.75151 9.60449L2.84525 9.89043H3.14525L2.9015 10.0686L2.99525 10.3498L2.75151 10.1764L2.50776 10.3498L2.60151 10.0686L2.35776 9.89043H2.65776L2.75151 9.60449Z" fill="white"/>
<path d="M2.75151 10.8652L2.84525 11.1465H3.14525L2.9015 11.3246L2.99525 11.6105L2.75151 11.4324L2.50776 11.6105L2.60151 11.3246L2.35776 11.1465H2.65776L2.75151 10.8652Z" fill="white"/>
<path d="M3.62813 6.49219L3.72188 6.77813H4.02188L3.77813 6.95625L3.87188 7.2375L3.62813 7.06406L3.38437 7.2375L3.47812 6.95625L3.23438 6.77813H3.53438L3.62813 6.49219Z" fill="white"/>
<path d="M3.62813 7.75293L3.72188 8.03418H4.02188L3.77813 8.2123L3.87188 8.49824L3.62813 8.32012L3.38437 8.49824L3.47812 8.2123L3.23438 8.03418H3.53438L3.62813 7.75293Z" fill="white"/>
<path d="M3.62813 9.00928L3.72188 9.29522H4.02188L3.77813 9.47334L3.87188 9.75459L3.62813 9.58115L3.38437 9.75459L3.47812 9.47334L3.23438 9.29522H3.53438L3.62813 9.00928Z" fill="white"/>
<path d="M3.62813 10.2705L3.72188 10.5518H4.02188L3.77813 10.7299L3.87188 11.0158L3.62813 10.8377L3.38437 11.0158L3.47812 10.7299L3.23438 10.5518H3.53438L3.62813 10.2705Z" fill="white"/>
<path d="M4.51406 5.83105L4.60781 6.117H4.90781L4.66406 6.29044L4.75781 6.57638L4.51406 6.39825L4.275 6.57638L4.36875 6.29044L4.125 6.117H4.425L4.51406 5.83105Z" fill="white"/>
<path d="M4.51406 7.0874L4.60781 7.37334H4.90781L4.66406 7.55147L4.75781 7.83272L4.51406 7.65928L4.275 7.83272L4.36875 7.55147L4.125 7.37334H4.425L4.51406 7.0874Z" fill="white"/>
<path d="M4.51406 8.34863L4.60781 8.63457H4.90781L4.66406 8.80801L4.75781 9.09394L4.51406 8.91582L4.275 9.09394L4.36875 8.80801L4.125 8.63457H4.425L4.51406 8.34863Z" fill="white"/>
<path d="M4.51406 9.60449L4.60781 9.89043H4.90781L4.66406 10.0686L4.75781 10.3498L4.51406 10.1764L4.275 10.3498L4.36875 10.0686L4.125 9.89043H4.425L4.51406 9.60449Z" fill="white"/>
<path d="M4.51406 10.8652L4.60781 11.1465H4.90781L4.66406 11.3246L4.75781 11.6105L4.51406 11.4324L4.275 11.6105L4.36875 11.3246L4.125 11.1465H4.425L4.51406 10.8652Z" fill="white"/>
<path d="M5.39066 6.49219L5.48442 6.77813H5.78442L5.54066 6.95625L5.63441 7.2375L5.39066 7.06406L5.1516 7.2375L5.24067 6.95625L5.0016 6.77813H5.3016L5.39066 6.49219Z" fill="white"/>
<path d="M5.39066 7.75293L5.48442 8.03418H5.78442L5.54066 8.2123L5.63441 8.49824L5.39066 8.32012L5.1516 8.49824L5.24067 8.2123L5.0016 8.03418H5.3016L5.39066 7.75293Z" fill="white"/>
<path d="M5.39066 9.00928L5.48442 9.29522H5.78442L5.54066 9.47334L5.63441 9.75459L5.39066 9.58115L5.1516 9.75459L5.24067 9.47334L5.0016 9.29522H5.3016L5.39066 9.00928Z" fill="white"/>
<path d="M5.39066 10.2705L5.48442 10.5518H5.78442L5.54066 10.7299L5.63441 11.0158L5.39066 10.8377L5.1516 11.0158L5.24067 10.7299L5.0016 10.5518H5.3016L5.39066 10.2705Z" fill="white"/>
<path d="M6.28112 5.83105L6.37487 6.117H6.67018L6.43112 6.29044L6.52018 6.57638L6.28112 6.39825L6.03737 6.57638L6.13112 6.29044L5.88737 6.117H6.18737L6.28112 5.83105Z" fill="white"/>
<path d="M6.28112 7.0874L6.37487 7.37334H6.67018L6.43112 7.55147L6.52018 7.83272L6.28112 7.65928L6.03737 7.83272L6.13112 7.55147L5.88737 7.37334H6.18737L6.28112 7.0874Z" fill="white"/>
<path d="M6.28112 8.34863L6.37487 8.63457H6.67018L6.43112 8.80801L6.52018 9.09394L6.28112 8.91582L6.03737 9.09394L6.13112 8.80801L5.88737 8.63457H6.18737L6.28112 8.34863Z" fill="white"/>
<path d="M6.28112 9.60449L6.37487 9.89043H6.67018L6.43112 10.0686L6.52018 10.3498L6.28112 10.1764L6.03737 10.3498L6.13112 10.0686L5.88737 9.89043H6.18737L6.28112 9.60449Z" fill="white"/>
<path d="M6.28112 10.8652L6.37487 11.1465H6.67018L6.43112 11.3246L6.52018 11.6105L6.28112 11.4324L6.03737 11.6105L6.13112 11.3246L5.88737 11.1465H6.18737L6.28112 10.8652Z" fill="white"/>
<path d="M7.15777 6.49219L7.24684 6.77813H7.54683L7.30777 6.95625L7.39684 7.2375L7.15777 7.06406L6.91402 7.2375L7.00777 6.95625L6.76402 6.77813H7.06402L7.15777 6.49219Z" fill="white"/>
<path d="M7.15777 7.75293L7.24684 8.03418H7.54683L7.30777 8.2123L7.39684 8.49824L7.15777 8.32012L6.91402 8.49824L7.00777 8.2123L6.76402 8.03418H7.06402L7.15777 7.75293Z" fill="white"/>
<path d="M7.15777 9.00928L7.24684 9.29522H7.54683L7.30777 9.47334L7.39684 9.75459L7.15777 9.58115L6.91402 9.75459L7.00777 9.47334L6.76402 9.29522H7.06402L7.15777 9.00928Z" fill="white"/>
<path d="M7.15777 10.2705L7.24684 10.5518H7.54683L7.30777 10.7299L7.39684 11.0158L7.15777 10.8377L6.91402 11.0158L7.00777 10.7299L6.76402 10.5518H7.06402L7.15777 10.2705Z" fill="white"/>
<path d="M8.04379 5.83105L8.13754 6.117H8.43754L8.19379 6.29044L8.28754 6.57638L8.04379 6.39825L7.80004 6.57638L7.89379 6.29044L7.65004 6.117H7.95004L8.04379 5.83105Z" fill="white"/>
<path d="M8.04379 7.0874L8.13754 7.37334H8.43754L8.19379 7.55147L8.28754 7.83272L8.04379 7.65928L7.80004 7.83272L7.89379 7.55147L7.65004 7.37334H7.95004L8.04379 7.0874Z" fill="white"/>
<path d="M8.04379 8.34863L8.13754 8.63457H8.43754L8.19379 8.80801L8.28754 9.09394L8.04379 8.91582L7.80004 9.09394L7.89379 8.80801L7.65004 8.63457H7.95004L8.04379 8.34863Z" fill="white"/>
<path d="M8.04379 9.60449L8.13754 9.89043H8.43754L8.19379 10.0686L8.28754 10.3498L8.04379 10.1764L7.80004 10.3498L7.89379 10.0686L7.65004 9.89043H7.95004L8.04379 9.60449Z" fill="white"/>
<path d="M8.04379 10.8652L8.13754 11.1465H8.43754L8.19379 11.3246L8.28754 11.6105L8.04379 11.4324L7.80004 11.6105L7.89379 11.3246L7.65004 11.1465H7.95004L8.04379 10.8652Z" fill="white"/>
<path d="M8.92042 6.49219L9.01417 6.77813H9.31417L9.07042 6.95625L9.16417 7.2375L8.92042 7.06406L8.67667 7.2375L8.77042 6.95625L8.52667 6.77813H8.82667L8.92042 6.49219Z" fill="white"/>
<path d="M8.92042 7.75293L9.01417 8.03418H9.31417L9.07042 8.2123L9.16417 8.49824L8.92042 8.32012L8.67667 8.49824L8.77042 8.2123L8.52667 8.03418H8.82667L8.92042 7.75293Z" fill="white"/>
<path d="M8.92042 9.00928L9.01417 9.29522H9.31417L9.07042 9.47334L9.16417 9.75459L8.92042 9.58115L8.67667 9.75459L8.77042 9.47334L8.52667 9.29522H8.82667L8.92042 9.00928Z" fill="white"/>
<path d="M8.92042 10.2705L9.01417 10.5518H9.31417L9.07042 10.7299L9.16417 11.0158L8.92042 10.8377L8.67667 11.0158L8.77042 10.7299L8.52667 10.5518H8.82667L8.92042 10.2705Z" fill="white"/>
<path d="M9.80636 5.83105L9.90011 6.117H10.2001L9.95636 6.29044L10.0501 6.57638L9.80636 6.39825L9.5673 6.57638L9.65636 6.29044L9.4173 6.117H9.7173L9.80636 5.83105Z" fill="white"/>
<path d="M9.80636 7.0874L9.90011 7.37334H10.2001L9.95636 7.55147L10.0501 7.83272L9.80636 7.65928L9.5673 7.83272L9.65636 7.55147L9.4173 7.37334H9.7173L9.80636 7.0874Z" fill="white"/>
<path d="M9.80636 8.34863L9.90011 8.63457H10.2001L9.95636 8.80801L10.0501 9.09394L9.80636 8.91582L9.5673 9.09394L9.65636 8.80801L9.4173 8.63457H9.7173L9.80636 8.34863Z" fill="white"/>
<path d="M9.80636 9.60449L9.90011 9.89043H10.2001L9.95636 10.0686L10.0501 10.3498L9.80636 10.1764L9.5673 10.3498L9.65636 10.0686L9.4173 9.89043H9.7173L9.80636 9.60449Z" fill="white"/>
<path d="M9.80636 10.8652L9.90011 11.1465H10.2001L9.95636 11.3246L10.0501 11.6105L9.80636 11.4324L9.5673 11.6105L9.65636 11.3246L9.4173 11.1465H9.7173L9.80636 10.8652Z" fill="white"/>
</svg>
