<?xml version="1.0" encoding="UTF-8"?>
<svg width="28px" height="28px" viewBox="0 0 28 28" version="1.1" xmlns="http://www.w3.org/2000/svg" xmlns:xlink="http://www.w3.org/1999/xlink">
    <!-- Generator: Sketch 58 (84663) - https://sketch.com -->
    <title>nav-cube-arrows-selected</title>
    <desc>Created with Sketch.</desc>
    <g id="Widget-Finish-Line" stroke="none" stroke-width="1" fill="none" fill-rule="evenodd">
        <g id="Artboard" transform="translate(-445.000000, -140.000000)" fill="#2D72DC">
            <g id="noun_Holographic-Image_2409525" transform="translate(446.000000, 140.000000)">
                <g id="Group">
                    <polygon id="Path" points="6 19.2725 12.25 23 12.25 16.4675 6 12"></polygon>
                    <polygon id="Path" points="6.5 11 13.0129522 16 19.5 10.5 13 7"></polygon>
                    <polygon id="Path" points="13.75 23 20 18.7114258 20 12 13.75 16.4675"></polygon>
                    <polygon id="Path" points="12 12 13 11 14 12 14 5 16 5 13 0 10 5 12 5"></polygon>
                    <polygon id="Path" transform="translate(20.402076, 22.689681) rotate(140.000000) translate(-20.402076, -22.689681) " points="19.4813097 28.5026855 20.316439 27.8872418 21.4497452 28.4709378 21.4768642 22.4117394 23.881703 22.1885196 20.1800732 16.8766763 16.9224493 22.3638493 19.4519969 22.4424846"></polygon>
                    <polygon id="Path" transform="translate(6.459704, 22.758359) scale(-1, 1) rotate(140.000000) translate(-6.459704, -22.758359) " points="5.53893776 28.6610174 6.37406715 28.0455738 7.50737332 28.6292697 7.5344923 22.5700713 9.9393311 22.3468515 6.02401171 16.8557014 2.9800774 22.5221812 5.50962503 22.6008165"></polygon>
                </g>
            </g>
        </g>
    </g>
</svg>