<svg width="320" height="49" viewBox="0 0 320 49" fill="none" xmlns="http://www.w3.org/2000/svg">
<g clip-path="url(#clip0_2_271)">
<path d="M301.29 8.0352H307.174V35.3376H319.976V40.1652H301.29V8.0352Z" fill="black"/>
<path d="M274.862 31.0662L272.108 40.1652H265.832L276.332 8.0352H283.777L294.162 40.1652H287.912L285.018 31.0662H274.862ZM283.997 26.6328L281.477 18.7299C280.87 16.7832 280.333 14.5773 279.865 12.7251H279.771C279.303 14.5773 278.814 16.8291 278.253 18.7299L275.778 26.6328H283.997Z" fill="black"/>
<path d="M249.469 12.9411H240.361V8.0352H264.51V12.9411H255.31V40.1652H249.469V12.9411Z" fill="black"/>
<path d="M182.587 8.0352H176.676V40.1652H182.587V8.0352Z" fill="black"/>
<path d="M217.069 38.3967C213.829 39.5484 210.42 40.1462 206.983 40.1652C201.679 40.1652 197.697 38.8152 194.726 35.9586C191.934 33.2937 190.311 29.133 190.357 24.3756C190.357 14.4234 197.423 8.0352 207.783 8.0352C211.65 8.0352 214.667 8.8452 216.113 9.5283L214.831 14.1723C213.117 13.4136 211.01 12.8223 207.719 12.8223C201.018 12.8223 196.33 16.7967 196.33 24.1299C196.33 31.2768 200.696 35.5293 207.214 35.5293C209.25 35.5293 210.782 35.2593 211.537 34.884V27.054H206.002V22.5153H217.072L217.069 38.3967Z" fill="black"/>
<path d="M232.773 8.0352H226.863V40.1652H232.773V8.0352Z" fill="black"/>
<path d="M141.994 8.6778C145.001 8.22662 148.038 8.01177 151.078 8.0352C156.92 8.0352 160.958 9.2502 163.835 11.6829C166.847 14.1588 168.696 18.0117 168.696 23.3766C168.696 28.9737 166.815 33.1695 163.835 35.8776C160.732 38.7207 155.756 40.1652 149.684 40.1652C146.352 40.1652 143.843 40.0977 141.994 39.8682V8.6778ZM147.698 35.3943C148.744 35.5174 149.798 35.5634 150.85 35.532C158.266 35.5779 162.672 31.482 162.672 23.5143C162.718 16.5672 158.725 12.4848 151.581 12.4848C150.273 12.4544 148.965 12.5621 147.68 12.8061V35.3943H147.698Z" fill="black"/>
<path d="M134.066 23.7816C134.066 34.2252 127.779 40.1652 119.232 40.1652C110.505 40.1652 104.992 33.4611 104.992 24.327C104.992 14.7609 110.962 8.0352 119.691 8.0352C128.735 8.0352 134.071 14.9202 134.071 23.7816H134.066ZM110.964 24.2595C110.964 30.5775 114.13 35.6211 119.562 35.6211C125.035 35.6211 128.109 30.5316 128.109 24.0327C128.109 18.1683 125.215 12.6252 119.562 12.6252C113.955 12.6252 110.964 17.8281 110.964 24.2595Z" fill="black"/>
<path d="M97.3558 8.0352H91.4448V40.1652H97.3558V8.0352Z" fill="black"/>
<path d="M60.251 8.03753H69.7435C74.1606 8.03753 77.3257 8.68823 79.2924 9.96533C81.2592 11.2424 82.2291 13.289 82.2291 16.0754C82.2291 17.9654 81.7428 19.5152 80.7944 20.768C79.8459 22.0208 78.4353 22.7903 76.6325 23.1143V23.3249C78.876 23.7434 80.5391 24.5777 81.5816 25.8332C82.6241 27.0887 83.1776 28.7843 83.1776 30.92C83.1776 33.8009 82.1834 36.0797 80.1737 37.7051C78.164 39.3305 75.3858 40.1675 71.8097 40.1675H60.2564L60.251 8.03753ZM65.4742 21.3026H70.5146C72.7089 21.3026 74.3039 20.9543 75.2998 20.2577C76.3181 19.5611 76.8018 18.3677 76.8018 16.7018C76.8018 15.1925 76.2483 14.1017 75.1897 13.4267C74.1311 12.7517 72.3685 12.4061 70.0122 12.4061H65.4742V21.3026ZM65.4742 25.5767V35.753H71.0224C73.2203 35.753 74.8619 35.3345 75.9715 34.5002C77.0812 33.6659 77.6347 32.3159 77.6347 30.5042C77.6347 28.8302 77.057 27.599 75.9259 26.7863C74.7947 25.9736 73.059 25.5875 70.7457 25.5875L65.4742 25.5767Z" fill="black"/>
<path fill-rule="evenodd" clip-rule="evenodd" d="M44.1841 43.8672C44.1841 46.2625 42.2485 48.2008 39.8677 48.2008H22.7615V26.7782H39.8677C42.2485 26.7782 44.1824 28.7007 44.1824 31.0944L44.1841 43.8672Z" fill="black"/>
<path fill-rule="evenodd" clip-rule="evenodd" d="M44.1841 17.1597C44.1841 19.5602 42.2485 21.4226 39.8677 21.4226H22.7615V0H39.8677C42.2485 0 44.1841 1.89086 44.1841 4.28772V17.1597Z" fill="#DE3838"/>
<path fill-rule="evenodd" clip-rule="evenodd" d="M18.2241 0H5.61477C2.52609 0 0.14972 3.09752 0.14972 6.92648L0.148773 48.2008H12.6267C15.7146 48.2008 18.2241 45.097 18.2241 41.2658V0Z" fill="black"/>
</g>
<defs>
<clipPath id="clip0_2_271">
<rect width="320" height="48.2008" fill="white"/>
</clipPath>
</defs>
</svg>
