<svg width="182" height="32" viewBox="0 0 182 32" fill="none" xmlns="http://www.w3.org/2000/svg">
<g clip-path="url(#clip0_3_2)">
<path d="M47.3416 9.89791C44.6598 9.89791 42.1696 10.9515 40.5414 13.8248C39.3922 10.8556 36.8061 9.80206 34.3159 9.80206C32.2089 9.80206 29.9102 10.5682 28.7608 12.7712L28.4736 10.0895H24.6424V30.011H28.7608V19.0924C28.7608 16.1234 30.5807 13.6332 33.5497 13.6332C36.5189 13.6332 38.1471 16.1234 38.2427 18.9967V29.9153H42.457V18.9967C42.457 16.0276 44.3726 13.6332 47.3416 13.6332C50.3107 13.6332 51.7474 15.9317 51.7474 18.9009V29.9153H55.9615V18.9009C55.7699 13.4417 52.8966 9.89791 47.3416 9.89791Z" fill="#EE3124"/>
<path d="M64.4856 10.1845H60.3672V30.2019H64.4856V10.1845Z" fill="#EE3124"/>
<path d="M59.8885 4.43872C59.8885 7.88664 65.0603 7.88664 65.0603 4.43872C65.0603 0.990642 59.8885 0.990642 59.8885 4.43872Z" fill="#EE3124"/>
<path d="M73.2011 1.94788H69.0827V30.202H73.2011V1.94788Z" fill="#EE3124"/>
<path d="M118.982 1.94788H96.2834V3.86346H106.531V30.202H108.734V3.86346H118.982V1.94788Z" fill="#6DA9DC"/>
<path d="M118.217 13.7282L118.121 10.1844H116.3V30.1059H118.312V18.5169C118.312 14.8774 121.186 11.9083 124.92 11.8126C126.071 11.8126 127.22 12.1 128.273 12.7703L129.135 11.1421C127.794 10.3759 126.357 9.89699 124.824 9.99284C122.238 9.99284 119.462 11.0464 118.217 13.7282Z" fill="#6DA9DC"/>
<path d="M147.715 14.5906C146.088 11.5258 142.831 9.99329 139.575 9.99329C134.019 9.99329 129.422 14.1117 129.422 20.2414C129.422 26.3712 134.019 30.4896 139.575 30.5853C142.831 30.5853 145.8 29.1486 147.715 25.988V30.2022H149.726C149.726 23.4979 149.726 16.8893 149.726 10.2807H147.715V14.5906ZM139.575 28.574C135.074 28.574 131.433 25.2218 131.433 20.2414C131.433 15.2609 135.074 11.9089 139.575 11.9089C150.685 11.813 150.685 28.574 139.575 28.574Z" fill="#6DA9DC"/>
<path d="M157.484 10.0893H155.474V30.1067H157.484V10.0893Z" fill="#6DA9DC"/>
<path d="M154.898 3.67178C154.898 5.77891 158.06 5.77891 158.06 3.67178C158.06 1.56481 154.898 1.56481 154.898 3.67178Z" fill="#6DA9DC"/>
<path d="M172.235 9.80206C169.457 9.80206 166.679 10.9515 165.147 13.7289V10.1851H163.232V30.1068H165.243V18.9967C165.243 14.8783 168.116 11.8133 172.235 11.7176C176.544 11.7176 179.322 14.112 179.322 18.6135V30.1068H181.333V18.6135C181.237 13.0584 177.502 9.80206 172.235 9.80206Z" fill="#6DA9DC"/>
<path d="M94.4635 21.1997C94.272 23.1151 92.4523 24.8392 90.7282 25.7969C87.4718 27.5209 84.407 26.9463 82.5873 24.4561L97.5284 16.5065C96.3791 13.4417 93.8889 11.0473 90.7282 9.99377C89.7705 9.70638 88.7169 9.51483 87.5675 9.51483C86.5141 9.51483 85.4606 9.70638 84.407 9.99377C83.7365 10.1853 83.066 10.4727 82.3957 10.8558C79.1392 12.6755 76.9364 16.1234 76.9364 20.1461C76.9364 25.9886 81.6294 30.6816 87.4718 30.7773H87.5675C91.4944 30.7773 94.9425 28.6703 96.7622 25.4138C97.5284 24.1687 98.0073 22.7321 98.103 21.1997H94.4635ZM84.2155 14.1122C87.1844 12.5798 90.2493 12.9629 92.3564 15.2616L80.9589 21.2954C80.1928 18.6137 81.5337 15.5488 84.2155 14.1122Z" fill="#EE3124"/>
<path d="M11.5209 13.3451C8.45607 12.8661 5.87017 12.1 5.87017 9.32237C5.87017 6.64062 8.16884 5.01243 11.2337 5.01243C13.628 5.01243 15.9267 6.25753 16.9803 8.17311L19.8536 5.87445C17.8423 2.04329 14.4901 1.08557 11.1378 1.08557C6.92373 1.08557 2.03901 3.38424 2.13486 9.22668C2.13486 15.2605 6.54065 16.6972 11.2337 17.4635C14.4901 17.9423 17.1718 18.9958 17.1718 22.0607C17.1718 25.6044 14.107 26.7538 11.2337 26.7538C8.55192 26.7538 5.58278 25.5087 3.95459 22.1565L1.17714 24.4552C3.28411 29.2439 6.73219 30.8722 11.2337 30.8722C16.1182 30.8722 20.9071 28.4777 20.9071 22.1565C20.9071 15.7394 16.3098 14.1112 11.5209 13.3451Z" fill="#EE3124"/>
</g>
<defs>
<clipPath id="clip0_3_2">
<rect width="181.333" height="32" fill="white"/>
</clipPath>
</defs>
</svg>
