<svg width="125" height="38" viewBox="0 0 125 38" fill="none" xmlns="http://www.w3.org/2000/svg">
<g filter="url(#filter0_dd_203_6537)">
<path d="M2 13.6749V6.86995H2.755C2.835 6.86995 2.90333 6.88828 2.96 6.92495C3.01667 6.96161 3.05333 7.01828 3.07 7.09495L3.17 7.56995C3.37667 7.33328 3.61333 7.14161 3.88 6.99495C4.15 6.84828 4.465 6.77495 4.825 6.77495C5.105 6.77495 5.36 6.83328 5.59 6.94995C5.82333 7.06661 6.02333 7.23661 6.19 7.45995C6.36 7.67995 6.49 7.95328 6.58 8.27995C6.67333 8.60328 6.72 8.97495 6.72 9.39495C6.72 9.77828 6.66833 10.1333 6.565 10.4599C6.46167 10.7866 6.31333 11.0699 6.12 11.3099C5.93 11.5499 5.69833 11.7383 5.425 11.8749C5.155 12.0083 4.85167 12.0749 4.515 12.0749C4.225 12.0749 3.97833 12.0316 3.775 11.9449C3.575 11.8549 3.395 11.7316 3.235 11.5749V13.6749H2ZM4.4 7.74995C4.14333 7.74995 3.92333 7.80495 3.74 7.91495C3.56 8.02161 3.39167 8.17328 3.235 8.36995V10.6699C3.375 10.8433 3.52667 10.9649 3.69 11.0349C3.85667 11.1016 4.035 11.1349 4.225 11.1349C4.41167 11.1349 4.58 11.0999 4.73 11.0299C4.88333 10.9599 5.01167 10.8533 5.115 10.7099C5.22167 10.5666 5.30333 10.3866 5.36 10.1699C5.41667 9.94995 5.445 9.69161 5.445 9.39495C5.445 9.09495 5.42 8.84161 5.37 8.63495C5.32333 8.42495 5.255 8.25495 5.165 8.12495C5.075 7.99495 4.965 7.89995 4.835 7.83995C4.70833 7.77995 4.56333 7.74995 4.4 7.74995Z" fill="white"/>
<path d="M9.9443 6.78995C10.3276 6.78995 10.6743 6.85161 10.9843 6.97495C11.2976 7.09828 11.5643 7.27328 11.7843 7.49995C12.0043 7.72661 12.1743 8.00328 12.2943 8.32995C12.4143 8.65661 12.4743 9.02161 12.4743 9.42495C12.4743 9.83161 12.4143 10.1983 12.2943 10.5249C12.1743 10.8516 12.0043 11.1299 11.7843 11.3599C11.5643 11.5899 11.2976 11.7666 10.9843 11.8899C10.6743 12.0133 10.3276 12.0749 9.9443 12.0749C9.56096 12.0749 9.21263 12.0133 8.8993 11.8899C8.58596 11.7666 8.31763 11.5899 8.0943 11.3599C7.8743 11.1299 7.70263 10.8516 7.5793 10.5249C7.4593 10.1983 7.3993 9.83161 7.3993 9.42495C7.3993 9.02161 7.4593 8.65661 7.5793 8.32995C7.70263 8.00328 7.8743 7.72661 8.0943 7.49995C8.31763 7.27328 8.58596 7.09828 8.8993 6.97495C9.21263 6.85161 9.56096 6.78995 9.9443 6.78995ZM9.9443 11.1249C10.371 11.1249 10.686 10.9816 10.8893 10.6949C11.096 10.4083 11.1993 9.98828 11.1993 9.43495C11.1993 8.88161 11.096 8.45995 10.8893 8.16995C10.686 7.87995 10.371 7.73495 9.9443 7.73495C9.51096 7.73495 9.19096 7.88161 8.9843 8.17495C8.77763 8.46495 8.6743 8.88495 8.6743 9.43495C8.6743 9.98495 8.77763 10.4049 8.9843 10.6949C9.19096 10.9816 9.51096 11.1249 9.9443 11.1249Z" fill="white"/>
<path d="M12.9129 6.86995H13.8929C13.9862 6.86995 14.0646 6.89161 14.1279 6.93495C14.1912 6.97828 14.2312 7.03328 14.2479 7.09995L14.9829 9.83995C15.0229 9.98995 15.0546 10.1366 15.0779 10.2799C15.1046 10.4233 15.1296 10.5666 15.1529 10.7099C15.1896 10.5666 15.2279 10.4233 15.2679 10.2799C15.3112 10.1366 15.3562 9.98995 15.4029 9.83995L16.2529 7.08995C16.2729 7.02328 16.3129 6.96828 16.3729 6.92495C16.4329 6.88161 16.5029 6.85995 16.5829 6.85995H17.1279C17.2179 6.85995 17.2929 6.88161 17.3529 6.92495C17.4129 6.96828 17.4529 7.02328 17.4729 7.08995L18.3129 9.88995C18.3562 10.0333 18.3946 10.1733 18.4279 10.3099C18.4646 10.4433 18.4996 10.5783 18.5329 10.7149C18.5562 10.5716 18.5812 10.4283 18.6079 10.2849C18.6379 10.1416 18.6746 9.99328 18.7179 9.83995L19.4779 7.09995C19.4946 7.03328 19.5346 6.97828 19.5979 6.93495C19.6612 6.89161 19.7346 6.86995 19.8179 6.86995H20.7529L19.1279 11.9999H18.1329C18.0262 11.9999 17.9496 11.9266 17.9029 11.7799L16.9779 8.81495C16.9479 8.71828 16.9196 8.62161 16.8929 8.52495C16.8696 8.42495 16.8496 8.32661 16.8329 8.22995C16.8129 8.32995 16.7912 8.42995 16.7679 8.52995C16.7446 8.62661 16.7179 8.72495 16.6879 8.82495L15.7529 11.7799C15.7062 11.9266 15.6162 11.9999 15.4829 11.9999H14.5379L12.9129 6.86995Z" fill="white"/>
<path d="M23.668 6.78995C23.9914 6.78995 24.288 6.84161 24.558 6.94495C24.8314 7.04828 25.0664 7.19995 25.263 7.39995C25.4597 7.59661 25.613 7.83995 25.723 8.12995C25.833 8.41661 25.888 8.74495 25.888 9.11495C25.888 9.20828 25.883 9.28661 25.873 9.34995C25.8664 9.40995 25.8514 9.45828 25.828 9.49495C25.808 9.52828 25.7797 9.55328 25.743 9.56995C25.7064 9.58328 25.6597 9.58995 25.603 9.58995H22.433C22.4697 10.1166 22.6114 10.5033 22.858 10.7499C23.1047 10.9966 23.4314 11.1199 23.838 11.1199C24.038 11.1199 24.2097 11.0966 24.353 11.0499C24.4997 11.0033 24.6264 10.9516 24.733 10.8949C24.843 10.8383 24.938 10.7866 25.018 10.7399C25.1014 10.6933 25.1814 10.6699 25.258 10.6699C25.308 10.6699 25.3514 10.6799 25.388 10.6999C25.4247 10.7199 25.4564 10.7483 25.483 10.7849L25.843 11.2349C25.7064 11.3949 25.553 11.5299 25.383 11.6399C25.213 11.7466 25.0347 11.8333 24.848 11.8999C24.6647 11.9633 24.4764 12.0083 24.283 12.0349C24.093 12.0616 23.908 12.0749 23.728 12.0749C23.3714 12.0749 23.0397 12.0166 22.733 11.8999C22.4264 11.7799 22.1597 11.6049 21.933 11.3749C21.7064 11.1416 21.528 10.8549 21.398 10.5149C21.268 10.1716 21.203 9.77495 21.203 9.32495C21.203 8.97495 21.2597 8.64661 21.373 8.33995C21.4864 8.02995 21.648 7.76161 21.858 7.53495C22.0714 7.30495 22.3297 7.12328 22.633 6.98995C22.9397 6.85661 23.2847 6.78995 23.668 6.78995ZM23.693 7.67495C23.333 7.67495 23.0514 7.77661 22.848 7.97995C22.6447 8.18328 22.5147 8.47161 22.458 8.84495H24.778C24.778 8.68495 24.7564 8.53495 24.713 8.39495C24.6697 8.25161 24.603 8.12661 24.513 8.01995C24.423 7.91328 24.3097 7.82995 24.173 7.76995C24.0364 7.70661 23.8764 7.67495 23.693 7.67495Z" fill="white"/>
<path d="M26.9898 11.9999V6.86995H27.7148C27.8415 6.86995 27.9298 6.89328 27.9798 6.93995C28.0298 6.98661 28.0632 7.06661 28.0798 7.17995L28.1548 7.79995C28.3382 7.48328 28.5532 7.23328 28.7998 7.04995C29.0465 6.86661 29.3232 6.77495 29.6298 6.77495C29.8832 6.77495 30.0932 6.83328 30.2598 6.94995L30.0998 7.87495C30.0898 7.93495 30.0682 7.97828 30.0348 8.00495C30.0015 8.02828 29.9565 8.03995 29.8998 8.03995C29.8498 8.03995 29.7815 8.02828 29.6948 8.00495C29.6082 7.98161 29.4932 7.96995 29.3498 7.96995C29.0932 7.96995 28.8732 8.04161 28.6898 8.18495C28.5065 8.32495 28.3515 8.53161 28.2248 8.80495V11.9999H26.9898Z" fill="white"/>
<path d="M33.2919 6.78995C33.6152 6.78995 33.9119 6.84161 34.1819 6.94495C34.4552 7.04828 34.6902 7.19995 34.8869 7.39995C35.0835 7.59661 35.2369 7.83995 35.3469 8.12995C35.4569 8.41661 35.5119 8.74495 35.5119 9.11495C35.5119 9.20828 35.5069 9.28661 35.4969 9.34995C35.4902 9.40995 35.4752 9.45828 35.4519 9.49495C35.4319 9.52828 35.4035 9.55328 35.3669 9.56995C35.3302 9.58328 35.2835 9.58995 35.2269 9.58995H32.0569C32.0935 10.1166 32.2352 10.5033 32.4819 10.7499C32.7285 10.9966 33.0552 11.1199 33.4619 11.1199C33.6619 11.1199 33.8335 11.0966 33.9769 11.0499C34.1235 11.0033 34.2502 10.9516 34.3569 10.8949C34.4669 10.8383 34.5619 10.7866 34.6419 10.7399C34.7252 10.6933 34.8052 10.6699 34.8819 10.6699C34.9319 10.6699 34.9752 10.6799 35.0119 10.6999C35.0485 10.7199 35.0802 10.7483 35.1069 10.7849L35.4669 11.2349C35.3302 11.3949 35.1769 11.5299 35.0069 11.6399C34.8369 11.7466 34.6585 11.8333 34.4719 11.8999C34.2885 11.9633 34.1002 12.0083 33.9069 12.0349C33.7169 12.0616 33.5319 12.0749 33.3519 12.0749C32.9952 12.0749 32.6635 12.0166 32.3569 11.8999C32.0502 11.7799 31.7835 11.6049 31.5569 11.3749C31.3302 11.1416 31.1519 10.8549 31.0219 10.5149C30.8919 10.1716 30.8269 9.77495 30.8269 9.32495C30.8269 8.97495 30.8835 8.64661 30.9969 8.33995C31.1102 8.02995 31.2719 7.76161 31.4819 7.53495C31.6952 7.30495 31.9535 7.12328 32.2569 6.98995C32.5635 6.85661 32.9085 6.78995 33.2919 6.78995ZM33.3169 7.67495C32.9569 7.67495 32.6752 7.77661 32.4719 7.97995C32.2685 8.18328 32.1385 8.47161 32.0819 8.84495H34.4019C34.4019 8.68495 34.3802 8.53495 34.3369 8.39495C34.2935 8.25161 34.2269 8.12661 34.1369 8.01995C34.0469 7.91328 33.9335 7.82995 33.7969 7.76995C33.6602 7.70661 33.5002 7.67495 33.3169 7.67495Z" fill="white"/>
<path d="M40.2237 11.9999C40.0637 11.9999 39.9587 11.9249 39.9087 11.7749L39.8087 11.2799C39.702 11.3999 39.5903 11.5083 39.4737 11.6049C39.357 11.7016 39.2303 11.7849 39.0937 11.8549C38.9603 11.9249 38.8153 11.9783 38.6587 12.0149C38.5053 12.0549 38.3387 12.0749 38.1587 12.0749C37.8787 12.0749 37.622 12.0166 37.3887 11.8999C37.1553 11.7833 36.9537 11.6149 36.7837 11.3949C36.617 11.1716 36.487 10.8966 36.3937 10.5699C36.3037 10.2433 36.2587 9.86995 36.2587 9.44995C36.2587 9.06995 36.3103 8.71661 36.4137 8.38995C36.517 8.06328 36.6653 7.77995 36.8587 7.53995C37.052 7.29995 37.2837 7.11328 37.5537 6.97995C37.8237 6.84328 38.127 6.77495 38.4637 6.77495C38.7503 6.77495 38.9953 6.82161 39.1987 6.91495C39.402 7.00495 39.5837 7.12661 39.7437 7.27995V4.56995H40.9787V11.9999H40.2237ZM38.5787 11.0949C38.8353 11.0949 39.0537 11.0416 39.2337 10.9349C39.4137 10.8283 39.5837 10.6766 39.7437 10.4799V8.17995C39.6037 8.00995 39.4503 7.88995 39.2837 7.81995C39.1203 7.74995 38.9437 7.71495 38.7537 7.71495C38.567 7.71495 38.397 7.74995 38.2437 7.81995C38.0937 7.88995 37.9653 7.99661 37.8587 8.13995C37.7553 8.27995 37.6753 8.45995 37.6187 8.67995C37.562 8.89661 37.5337 9.15328 37.5337 9.44995C37.5337 9.74995 37.557 10.0049 37.6037 10.2149C37.6537 10.4216 37.7237 10.5916 37.8137 10.7249C37.9037 10.8549 38.0137 10.9499 38.1437 11.0099C38.2737 11.0666 38.4187 11.0949 38.5787 11.0949Z" fill="white"/>
<path d="M44.4654 11.9999V4.56995H45.7004V7.49995C45.9037 7.28328 46.1337 7.11161 46.3904 6.98495C46.6471 6.85495 46.9471 6.78995 47.2904 6.78995C47.5704 6.78995 47.8254 6.84828 48.0554 6.96495C48.2887 7.07828 48.4887 7.24495 48.6554 7.46495C48.8254 7.68495 48.9554 7.95661 49.0454 8.27995C49.1387 8.60328 49.1854 8.97495 49.1854 9.39495C49.1854 9.77828 49.1337 10.1333 49.0304 10.4599C48.9271 10.7866 48.7787 11.0699 48.5854 11.3099C48.3954 11.5499 48.1637 11.7383 47.8904 11.8749C47.6204 12.0083 47.3171 12.0749 46.9804 12.0749C46.8237 12.0749 46.6804 12.0583 46.5504 12.0249C46.4204 11.9949 46.3021 11.9516 46.1954 11.8949C46.0887 11.8383 45.9887 11.7699 45.8954 11.6899C45.8054 11.6066 45.7187 11.5149 45.6354 11.4149L45.5804 11.7599C45.5604 11.8466 45.5254 11.9083 45.4754 11.9449C45.4287 11.9816 45.3637 11.9999 45.2804 11.9999H44.4654ZM46.8654 7.74995C46.6087 7.74995 46.3887 7.80495 46.2054 7.91495C46.0254 8.02161 45.8571 8.17328 45.7004 8.36995V10.6699C45.8404 10.8433 45.9921 10.9649 46.1554 11.0349C46.3221 11.1016 46.5021 11.1349 46.6954 11.1349C46.8821 11.1349 47.0504 11.0999 47.2004 11.0299C47.3504 10.9599 47.4771 10.8533 47.5804 10.7099C47.6871 10.5666 47.7687 10.3866 47.8254 10.1699C47.8821 9.94995 47.9104 9.69161 47.9104 9.39495C47.9104 9.09495 47.8854 8.84161 47.8354 8.63495C47.7887 8.42495 47.7204 8.25495 47.6304 8.12495C47.5404 7.99495 47.4304 7.89995 47.3004 7.83995C47.1737 7.77995 47.0287 7.74995 46.8654 7.74995Z" fill="white"/>
<path d="M51.9075 13.4099C51.8708 13.4966 51.8225 13.5616 51.7625 13.6049C51.7058 13.6516 51.6175 13.6749 51.4975 13.6749H50.5775L51.5375 11.6199L49.4625 6.86995H50.5425C50.6425 6.86995 50.7192 6.89328 50.7725 6.93995C50.8258 6.98661 50.8658 7.03995 50.8925 7.09995L51.9875 9.75995C52.0242 9.84661 52.0558 9.93661 52.0825 10.0299C52.1092 10.1233 52.1325 10.2166 52.1525 10.3099C52.1792 10.2133 52.2075 10.1199 52.2375 10.0299C52.2708 9.93995 52.3058 9.84828 52.3425 9.75495L53.3725 7.09995C53.3992 7.03328 53.4425 6.97828 53.5025 6.93495C53.5658 6.89161 53.6358 6.86995 53.7125 6.86995H54.7025L51.9075 13.4099Z" fill="white"/>
<g clip-path="url(#clip0_203_6537)">
<path d="M114.513 20.0007H116.71V30.1964H121.491V31.9992H114.513V20.0007Z" fill="white"/>
<path d="M104.644 28.6013L103.615 31.9992H101.272L105.193 20.0007H107.973L111.851 31.9992H109.517L108.437 28.6013H104.644ZM108.055 26.9457L107.114 23.9945C106.887 23.2675 106.687 22.4437 106.512 21.7521H106.477C106.302 22.4437 106.12 23.2846 105.91 23.9945L104.986 26.9457H108.055Z" fill="white"/>
<path d="M95.1612 21.8327H91.7598V20.0007H100.778V21.8327H97.3425V31.9992H95.1612V21.8327Z" fill="white"/>
<path d="M70.1847 20.0007H67.9773V31.9992H70.1847V20.0007Z" fill="white"/>
<path d="M83.0617 31.3388C81.8517 31.7689 80.5786 31.9921 79.2951 31.9992C77.3145 31.9992 75.8275 31.4951 74.7178 30.4283C73.6753 29.4331 73.0693 27.8794 73.0864 26.1028C73.0864 22.3863 75.7252 20.0007 79.5941 20.0007C81.0379 20.0007 82.1647 20.3032 82.7045 20.5583L82.2259 22.2925C81.5858 22.0092 80.7992 21.7884 79.57 21.7884C77.0677 21.7884 75.3168 23.2725 75.3168 26.011C75.3168 28.68 76.9473 30.268 79.3814 30.268C80.142 30.268 80.7139 30.1672 80.9958 30.027V27.103H78.9289V25.4081H83.0627L83.0617 31.3388Z" fill="white"/>
<path d="M88.9263 20.0007H86.719V31.9992H88.9263V20.0007Z" fill="white"/>
<path d="M55.026 20.2406C56.1489 20.0721 57.2831 19.9919 58.4183 20.0006C60.5996 20.0006 62.1077 20.4544 63.1823 21.3628C64.307 22.2874 64.9973 23.7262 64.9973 25.7297C64.9973 27.8199 64.295 29.3867 63.1823 30.398C62.0234 31.4598 60.1652 31.9992 57.8976 31.9992C56.6534 31.9992 55.7163 31.974 55.026 31.8883V20.2406ZM57.1561 30.2176C57.5467 30.2635 57.94 30.2807 58.3331 30.269C61.1023 30.2861 62.7478 28.7566 62.7478 25.7811C62.7649 23.1868 61.2739 21.6623 58.606 21.6623C58.1175 21.6509 57.6292 21.6912 57.1491 21.7823V30.2176H57.1561Z" fill="white"/>
<path d="M52.0651 25.881C52.0651 29.781 49.7173 31.9992 46.5256 31.9992C43.2667 31.9992 41.2079 29.4957 41.2079 26.0846C41.2079 22.5123 43.4373 20.0007 46.6972 20.0007C50.0745 20.0007 52.0671 22.5718 52.0671 25.881H52.0651ZM43.4383 26.0594C43.4383 28.4188 44.6203 30.3023 46.649 30.3023C48.6929 30.3023 49.8407 28.4017 49.8407 25.9747C49.8407 23.7848 48.7601 21.7148 46.649 21.7148C44.555 21.7148 43.4383 23.6577 43.4383 26.0594Z" fill="white"/>
<path d="M38.3563 20.0007H36.1489V31.9992H38.3563V20.0007Z" fill="white"/>
<path d="M24.5 20.0015H28.0448C29.6944 20.0015 30.8763 20.2445 31.6108 20.7214C32.3452 21.1984 32.7074 21.9626 32.7074 23.0032C32.7074 23.709 32.5258 24.2877 32.1716 24.7556C31.8175 25.2234 31.2907 25.5108 30.6175 25.6318V25.7104C31.4553 25.8667 32.0763 26.1783 32.4656 26.6471C32.8549 27.116 33.0616 27.7492 33.0616 28.5467C33.0616 29.6225 32.6904 30.4735 31.9399 31.0805C31.1894 31.6875 30.1519 32.0001 28.8164 32.0001H24.502L24.5 20.0015ZM26.4505 24.9552H28.3328C29.1522 24.9552 29.7479 24.8251 30.1198 24.565C30.5001 24.3049 30.6807 23.8592 30.6807 23.2371C30.6807 22.6735 30.474 22.2661 30.0786 22.0141C29.6833 21.762 29.0251 21.6329 28.1452 21.6329H26.4505V24.9552ZM26.4505 26.5513V30.3515H28.5224C29.3432 30.3515 29.9562 30.1953 30.3706 29.8837C30.785 29.5721 30.9917 29.068 30.9917 28.3914C30.9917 27.7663 30.776 27.3065 30.3536 27.003C29.9312 26.6995 29.283 26.5554 28.4191 26.5554L26.4505 26.5513Z" fill="white"/>
<path fill-rule="evenodd" clip-rule="evenodd" d="M18.5 33.3817C18.5 34.2762 17.7772 35 16.8881 35H10.5V27H16.8881C17.7772 27 18.4994 27.7179 18.4994 28.6118L18.5 33.3817Z" fill="white"/>
<path fill-rule="evenodd" clip-rule="evenodd" d="M18.5 23.4081C18.5 24.3045 17.7772 25 16.8881 25H10.5V17H16.8881C17.7772 17 18.5 17.7061 18.5 18.6012V23.4081Z" fill="white"/>
<path fill-rule="evenodd" clip-rule="evenodd" d="M8.80554 17H4.09675C2.94332 17 2.0559 18.1567 2.0559 19.5866L2.05554 35H6.71528C7.86841 35 8.80554 33.8409 8.80554 32.4102V17Z" fill="white"/>
</g>
</g>
<defs>
<filter id="filter0_dd_203_6537" x="0" y="0" width="125" height="38" filterUnits="userSpaceOnUse" color-interpolation-filters="sRGB">
<feFlood flood-opacity="0" result="BackgroundImageFix"/>
<feColorMatrix in="SourceAlpha" type="matrix" values="0 0 0 0 0 0 0 0 0 0 0 0 0 0 0 0 0 0 127 0" result="hardAlpha"/>
<feOffset dy="1"/>
<feGaussianBlur stdDeviation="1"/>
<feColorMatrix type="matrix" values="0 0 0 0 0.109804 0 0 0 0 0.164706 0 0 0 0 0.247059 0 0 0 0.3 0"/>
<feBlend mode="normal" in2="BackgroundImageFix" result="effect1_dropShadow_203_6537"/>
<feColorMatrix in="SourceAlpha" type="matrix" values="0 0 0 0 0 0 0 0 0 0 0 0 0 0 0 0 0 0 127 0" result="hardAlpha"/>
<feOffset dx="1" dy="-1"/>
<feGaussianBlur stdDeviation="1"/>
<feColorMatrix type="matrix" values="0 0 0 0 0.109804 0 0 0 0 0.164706 0 0 0 0 0.247059 0 0 0 0.1 0"/>
<feBlend mode="normal" in2="effect1_dropShadow_203_6537" result="effect2_dropShadow_203_6537"/>
<feBlend mode="normal" in="SourceGraphic" in2="effect2_dropShadow_203_6537" result="shape"/>
</filter>
<clipPath id="clip0_203_6537">
<rect width="119.5" height="18" fill="white" transform="translate(2 17)"/>
</clipPath>
</defs>
</svg>
