<svg width="33" height="50" viewBox="0 0 33 50" fill="none" xmlns="http://www.w3.org/2000/svg">
<g clip-path="url(#clip0_130_70)">
<path d="M9.98399 49.8963C10.0807 49.9931 10.2258 49.9931 10.2741 49.8963L20.1856 39.9848C20.2823 39.8882 20.2823 39.7431 20.1856 39.6947L10.3225 29.7348C10.2258 29.6381 10.0807 29.6381 10.0323 29.7348L9.98399 49.8963Z" fill="#6DA9DC"/>
<path d="M10.1774 21.4188L7.46982 21.5638L3.98869 10.782H10.1774V21.4188Z" fill="#4B79BC"/>
<path d="M10.1291 21.4188L12.8366 21.5638L16.3177 10.782H10.1291V21.4188Z" fill="#6DA9DC"/>
<path d="M10.1291 49.9444C10.0808 49.9928 10.0324 49.9444 9.98408 49.8961L0.0725233 39.9845C-0.0241744 39.8878 -0.0241744 39.7428 0.0725233 39.6944L9.98408 29.7829C10.0808 29.6862 10.0808 29.6862 10.1775 29.7829L10.1291 49.9444Z" fill="#4B79BC"/>
<path d="M11.8213 0C9.06538 0 6.84138 2.1757 6.79302 4.88324H16.8979C16.8012 2.1757 14.5772 0 11.8213 0Z" fill="#BFBCBA"/>
<path d="M18.1065 0.918335C15.8825 0.918335 14.0936 2.70724 13.9969 4.88294H22.1678C22.1195 2.70724 20.3306 0.918335 18.1065 0.918335Z" fill="#BFBCBA"/>
<path d="M23.9085 2.41776C22.5063 2.41776 21.3943 3.52978 21.346 4.88355H26.4226C26.4226 3.52978 25.2622 2.41776 23.9085 2.41776Z" fill="#BFBCBA"/>
<path d="M29.8554 3.09457C28.8401 3.09457 28.0182 3.9165 27.9698 4.93183H31.741C31.6926 3.86816 30.8707 3.09457 29.8554 3.09457Z" fill="#BFBCBA"/>
<path d="M16.3177 10.7819C13.9485 10.7819 6.69623 10.7819 3.98869 10.7819C3.98869 8.31615 5.53586 6.28549 7.46982 6.28549H12.8849C14.7705 6.28549 16.3177 8.31615 16.3177 10.7819Z" fill="black"/>
<path d="M10.1292 38.2919C15.5442 38.2435 19.944 33.7955 19.944 28.332C19.944 22.8686 15.5442 18.4205 10.1292 18.3722V38.2919Z" fill="#F37654"/>
<path d="M10.1291 38.2922C4.71403 38.2439 0.314285 33.7958 0.314285 28.3324C0.314285 22.869 4.71403 18.4208 10.1291 18.3725V38.2922Z" fill="#EE3124"/>
<path d="M9.98407 34.2307C8.53361 34.2307 7.03482 33.8439 5.7294 32.9736C5.00417 32.4902 4.32728 31.9099 3.84379 31.1847C3.6504 30.8946 3.69874 30.5562 3.94049 30.3144C4.23058 30.121 4.56902 30.1694 4.81077 30.4112C5.2459 30.9913 5.77774 31.4748 6.40628 31.9099C9.40392 33.8922 13.4652 33.0219 15.4475 30.0243C15.6409 29.7342 16.0277 29.6859 16.2695 29.8309C16.5595 30.0243 16.6079 30.4112 16.4628 30.6528C14.964 32.9736 12.4982 34.2307 9.98407 34.2307Z" fill="white"/>
</g>
<defs>
<clipPath id="clip0_130_70">
<rect width="32.3077" height="50" fill="white"/>
</clipPath>
</defs>
</svg>
