<?xml version="1.0" encoding="UTF-8"?>
<svg width="50px" height="70px" viewBox="0 0 50 70" version="1.1" xmlns="http://www.w3.org/2000/svg" xmlns:xlink="http://www.w3.org/1999/xlink">
    <!-- Generator: Sketch 58 (84663) - https://sketch.com -->
    <title>help-mouse-double-click-left</title>
    <desc>Created with Sketch.</desc>
    <g id="Widget-S1-R5" stroke="none" stroke-width="1" fill="none" fill-rule="evenodd">
        <g id="Widget-S2-R5-/-Help-2" transform="translate(-767.000000, -137.000000)">
            <g id="Mouse" transform="translate(88.000000, 137.000000)">
                <g id="Group-11">
                    <g id="Slices" transform="translate(17.000000, 0.000000)"></g>
                </g>
                <g id="Group-12" transform="translate(637.000000, 2.000000)">
                    <g id="Group-7" transform="translate(40.000000, 0.000000)">
                        <g id="Group-5" transform="translate(21.224242, 0.000000)">
                            <g id="Group-4" transform="translate(0.000000, 18.536186)">
                                <path d="M28.0659465,18.5547226 L28.0659465,27.284289 C28.0662482,41.650286 23.4092601,48.8332845 14.0949823,48.8332845 C4.78070447,48.8332845 0.12356556,41.650286 0.12356556,27.284289 L0.12356556,18.5547226 L28.0659465,18.5547226 Z" id="Path-3" fill="#FFFFFF"></path>
                                <rect id="Rectangle" fill="#FFFFFF" x="12.1720877" y="4.24787606" width="3.86170551" height="7.72341102" rx="1.93085276"></rect>
                                <path d="M0.208167545,17.3734701 L13.1743783,17.3734701 L13.1743783,13.1505367 C11.1258803,12.8419592 10.0011916,11.9341557 9.80031221,10.4271263 C9.80031221,10.4271263 9.80031221,6.13291112 9.80031221,6.13291112 C10.027992,4.39807773 11.1526807,3.36998237 13.1743783,3.04862502 L13.1743783,0.0343178908 C9.41883994,0.0343178908 6.30607835,1.03908693 3.8360935,3.04862502 C0.988352148,5.36549943 -0.220956505,10.1404478 0.208167545,17.3734701 Z" id="Path-4" fill="#2D72DC"></path>
                                <path d="M14.9595759,17.3391522 L27.9257866,17.3391522 L27.9257866,13.1162188 C25.8772886,12.8076413 24.7525999,11.8998378 24.5517205,10.3928084 C24.5517205,10.3928084 24.5517205,6.09859323 24.5517205,6.09859323 C24.7794003,4.36375984 25.904089,3.33566448 27.9257866,3.01430713 L27.9257866,-2.84217094e-14 C24.1702482,-2.84217094e-14 21.0574867,1.00476904 18.5875018,3.01430713 C15.7397605,5.33118154 14.5304518,10.1061299 14.9595759,17.3391522 Z" id="Path-4" fill="#FFFFFF" transform="translate(21.400534, 8.669576) scale(-1, 1) translate(-21.400534, -8.669576) "></path>
                            </g>
                            <path d="M14.191742,19.1540593 C16.129923,13.3023174 15.8232996,10.3764464 13.2718717,10.3764464 C11.2629168,10.3764464 9.23215165,11.6777053 5.98349406,10.3764464 C2.73483646,9.0751876 1.58317975,6.24066253 3.19217306,3.88444256 C4.26483527,2.31362924 6.18716318,1.01881506 8.95915679,0" id="Path-5" stroke="#FFFFFF" stroke-width="2" stroke-linecap="round"></path>
                        </g>
                        <path d="M3.85882504,23.0513294 L3.85882504,21.9433748 L6.44760345,19.5463578 C6.77194219,19.2338562 7.02170295,18.9592378 7.19689322,18.7224942 C7.37208349,18.4857506 7.46086101,18.2229691 7.46322845,17.9341419 C7.46086101,17.614538 7.35255243,17.361818 7.13829947,17.1759743 C6.9240465,16.9901305 6.65593839,16.8972101 6.33396708,16.8972101 C6.0001586,16.8972101 5.72968308,16.9966409 5.52253242,17.1955055 C5.31538177,17.3943702 5.21180799,17.6689886 5.21180799,18.0193692 L3.75229095,18.0193692 C3.75229095,17.5435145 3.86237507,17.1304031 4.08254663,16.7800226 C4.30271818,16.429642 4.60811286,16.1585747 4.99873981,15.9668123 C5.38936676,15.77505 5.83798917,15.6791703 6.34462049,15.6791703 C6.86782387,15.6791703 7.32058922,15.7780093 7.70293015,15.9756902 C8.08527108,16.1733711 8.38119615,16.4408874 8.59071424,16.778247 C8.80023233,17.1156066 8.90617351,17.4949826 8.90854095,17.9163862 C8.91090838,18.2265203 8.85349892,18.5194862 8.73631083,18.7952925 C8.61912275,19.0710988 8.43150625,19.3605135 8.17345572,19.6635453 C7.91540519,19.9665771 7.5721321,20.3134013 7.14362617,20.7040282 L6.07473413,21.7445112 L6.07473413,21.7942271 L9.04348413,21.7942271 L9.04348413,23.0513294 L3.85882504,23.0513294 Z M11.9286302,15.7786021 L13.3952496,18.2572953 L13.4520677,18.2572953 L14.9257893,15.7786021 L16.662295,15.7786021 L14.4428348,19.4149657 L16.7120109,23.0513294 L14.943545,23.0513294 L13.4520677,20.5690851 L13.3952496,20.5690851 L11.9037723,23.0513294 L10.1424086,23.0513294 L12.4186871,19.4149657 L10.1850223,15.7786021 L11.9286302,15.7786021 Z" id="2X" fill="#2D72DC" fill-rule="nonzero"></path>
                    </g>
                </g>
            </g>
        </g>
    </g>
</svg>