<svg width="48" height="48" viewBox="0 0 48 48" fill="none" xmlns="http://www.w3.org/2000/svg">
<path d="M34.6526 21.6829C34.574 21.6043 34.6526 21.6829 34.6526 21.6829C34.2598 20.9758 33.5527 19.3261 33.317 18.1477C33.0814 17.0478 32.6886 16.0266 31.903 15.241C31.903 15.241 31.903 15.241 31.8244 15.241C31.5887 15.0053 31.4316 14.7696 31.4316 14.4554C31.1959 13.6698 30.8817 12.02 30.7246 10.7631C30.646 9.19186 29.4676 8.01346 27.8179 7.77778C27.8179 7.77778 26.5609 6.83506 25.6182 6.7565L25.3825 5.10675C25.3825 5.10675 25.9324 4.24259 26.011 3.69267C26.011 3.69267 26.718 3.22132 26.011 2.43572C26.011 2.43572 26.4823 0.236045 24.047 0.000366211C21.6116 0.236045 22.083 2.43572 22.083 2.43572C21.376 3.29988 22.083 3.69267 22.083 3.69267C22.1616 4.24259 22.7115 5.10675 22.7115 5.10675L22.3187 6.7565C21.4545 6.83506 20.119 7.77778 20.119 7.77778C18.4692 8.01346 17.2908 9.19186 17.2123 10.7631C17.1337 12.02 16.7409 13.6698 16.5053 14.4554C16.4267 14.7696 16.2696 15.0053 16.1125 15.241C16.1125 15.241 16.1125 15.241 16.0339 15.241C15.2483 16.0266 14.8555 17.1264 14.6198 18.1477C14.3841 19.2475 13.5985 20.8973 13.2843 21.6043C13.2843 21.6043 13.2843 21.6043 13.2843 21.6829C13.0486 21.9971 11.8702 23.7254 13.2843 24.0396C13.8342 24.1968 14.1485 24.0396 14.3841 23.8825C14.5413 23.7254 14.6198 23.5683 14.6198 23.4112C14.6984 23.0969 14.6984 22.7827 14.6984 22.7827C14.6984 22.4685 14.7769 22.2328 14.8555 21.9971C14.9341 21.6829 15.0912 21.4472 15.3269 21.2115C17.0552 19.0118 17.6836 17.5192 17.9193 16.5765C18.155 15.7123 18.5478 14.8482 18.862 14.0626C19.2548 13.1984 19.412 12.6485 19.412 12.1771C19.412 12.02 19.6476 12.02 19.6476 12.1771C20.4332 14.4554 20.119 17.8334 19.8048 19.5617C19.6476 20.1117 19.4905 20.7401 19.412 21.2901C18.2336 24.5896 18.4692 29.4603 18.7835 32.2884C18.862 33.3883 18.7835 34.4881 18.5478 35.5094C17.9979 37.6305 18.155 42.5012 18.3121 44.4652C18.3121 45.0937 18.2336 45.6436 17.9193 46.1935L17.5265 46.9005C16.8195 48.0004 17.6836 48.0004 17.6836 48.0004H19.4905C19.8833 48.0004 20.1976 47.6861 20.1976 47.2933C20.119 44.3866 20.4332 42.2655 20.5904 41.4799C20.6689 41.2442 20.7475 41.0085 20.826 40.7729C21.376 39.3588 21.5331 36.6092 21.5331 35.5094C21.5331 35.2737 21.6116 35.038 21.6902 34.8023C24.047 28.1248 23.8899 24.7467 23.8899 24.7467H23.9684H24.1255C24.1255 24.7467 24.047 28.1248 26.3252 34.8023C26.4038 35.038 26.4823 35.2737 26.4823 35.5094C26.4823 36.5306 26.5609 39.3588 27.1894 40.7729C27.2679 41.0085 27.3465 41.2442 27.4251 41.4799C27.5822 42.2655 27.975 44.4652 27.8179 47.2933C27.8179 47.6861 28.1321 48.0004 28.5249 48.0004H30.2532C30.2532 48.0004 31.0388 48.0004 30.4103 46.9005L30.0175 46.1935C29.7033 45.6436 29.6247 45.0937 29.6247 44.4652C29.7033 42.4226 29.939 37.6305 29.3891 35.5094C29.1534 34.4095 29.0748 33.3097 29.1534 32.2884C29.389 29.4603 29.6247 24.5896 28.5249 21.2901C28.3678 20.7401 28.2107 20.1117 28.1321 19.5617C27.8964 17.8334 27.5822 14.5339 28.2892 12.1771C28.3678 12.02 28.5249 12.0986 28.5249 12.1771C28.6035 12.5699 28.7606 13.1984 29.0748 14.0626C29.4676 14.8482 29.7818 15.7123 30.0175 16.5765C30.2532 17.4406 30.8817 19.0118 32.61 21.2115C32.7671 21.4472 32.9242 21.6829 33.0814 21.9971C33.1599 22.2328 33.2385 22.4685 33.2385 22.7827C33.2385 22.9398 33.317 23.1755 33.317 23.4112C33.317 23.5683 33.4742 23.7254 33.5527 23.8825C33.7884 24.0396 34.1026 24.1968 34.6526 24.0396C36.0666 23.7254 34.8882 21.9185 34.6526 21.6829Z" fill="#FB7185"/>
</svg>
