<svg width="48" height="48" viewBox="0 0 48 48" fill="none" xmlns="http://www.w3.org/2000/svg">
<path d="M46.727 15.454C46.5807 11.1955 43.1051 7.80768 38.8465 7.80768C37.866 7.80768 36.9148 7.99061 36.0441 8.3272C35.327 8.60524 34.5148 8.47354 33.9368 7.97598C33.5124 7.61012 33.1612 7.215 32.8831 6.86378C31.9904 5.72232 31.3173 4.31012 30.6514 2.84671C30.2929 2.0711 29.9563 1.27354 29.8612 0.585732C29.8612 0.585732 28.5464 0.000366211 27.6551 0.000366211C26.7637 0.000366211 25.449 0.585732 25.449 0.585732C25.5295 2.06378 26.0929 3.43939 26.6563 4.66866C27.4392 6.38085 28.2368 8.04183 29.4148 9.56378C29.8538 10.1272 30.3295 10.6394 30.827 11.093C31.2002 11.4296 31.4343 11.9052 31.4709 12.4028C31.5441 13.2955 31.0465 14.3126 30.7465 15.1394C30.3221 16.2955 29.8099 17.415 29.2099 18.4906C28.7124 19.3833 28.1563 20.2467 27.549 21.0662C26.9417 21.8857 26.2831 22.6687 25.5807 23.4004C24.8782 24.1394 24.1246 24.8272 23.3343 25.4638C22.5368 26.1077 21.7026 26.693 20.8319 27.2345C19.9539 27.776 19.0465 28.2516 18.11 28.676C17.166 29.1004 16.1856 29.4662 15.1904 29.7589C14.5904 29.9345 13.9831 30.0955 13.3758 30.2199C12.7685 30.3516 12.1465 30.3882 11.5173 30.3296C8.88312 30.0809 6.24898 30.9662 4.29532 32.7443C2.32702 34.5296 1.2002 37.0833 1.2002 39.7394V47.415C1.2002 47.415 2.72983 48.0004 3.70995 48.0004C4.69007 48.0004 6.21971 47.415 6.21971 47.415V39.8638C6.21971 38.8613 6.51239 37.8662 7.11971 37.0687C7.12702 37.054 7.13434 37.0467 7.14898 37.0321C7.89532 36.0735 9.27093 35.8467 10.2953 36.4906C14.2612 38.9711 19.01 40.3248 24.088 40.076C36.0295 39.4979 45.7904 30.0004 46.6685 18.0735C46.7343 17.1955 46.7563 16.3174 46.727 15.454Z" fill="#FB7185"/>
</svg>
