<svg width="48" height="48" viewBox="0 0 48 48" fill="none" xmlns="http://www.w3.org/2000/svg">
<path d="M27.749 45.0003C24.7663 44.997 21.9068 43.8107 19.7977 41.7016C17.6886 39.5926 16.5023 36.733 16.499 33.7503V25.5004C16.499 25.1025 16.6571 24.721 16.9384 24.4397C17.2197 24.1584 17.6012 24.0004 17.999 24.0004C18.3968 24.0004 18.7784 24.1584 19.0597 24.4397C19.341 24.721 19.499 25.1025 19.499 25.5004V33.7503C19.499 35.9384 20.3682 38.0368 21.9154 39.584C23.4625 41.1311 25.561 42.0003 27.749 42.0003C29.937 42.0003 32.0354 41.1311 33.5826 39.584C35.1298 38.0368 35.999 35.9384 35.999 33.7503V31.5003C35.999 31.1025 36.157 30.721 36.4383 30.4397C36.7196 30.1584 37.1011 30.0004 37.499 30.0004C37.8968 30.0004 38.2783 30.1584 38.5596 30.4397C38.8409 30.721 38.999 31.1025 38.999 31.5003V33.7503C38.9957 36.733 37.8094 39.5926 35.7003 41.7017C33.5913 43.8108 30.7317 44.9971 27.749 45.0003Z" fill="#384C6C"/>
<path d="M37.499 33.0003C39.9843 33.0003 41.999 30.9856 41.999 28.5004C41.999 26.0151 39.9843 24.0004 37.499 24.0004C35.0137 24.0004 32.999 26.0151 32.999 28.5004C32.999 30.9856 35.0137 33.0003 37.499 33.0003Z" fill="#8999B3"/>
<path d="M17.9991 27.0003C15.1781 26.9911 12.4645 25.9181 10.4 23.9958C8.33544 22.0734 7.07199 19.443 6.86189 16.6299L6.00284 4.60731C5.98815 4.40184 6.01595 4.19554 6.08449 4.00128C6.15303 3.80702 6.26085 3.62896 6.40122 3.47819C6.5416 3.32743 6.71153 3.2072 6.90041 3.12499C7.0893 3.04278 7.29309 3.00036 7.49909 3.00037H11.9991C12.3969 3.00037 12.7784 3.1584 13.0597 3.4397C13.341 3.72101 13.4991 4.10254 13.4991 4.50036C13.4991 4.89819 13.341 5.27972 13.0597 5.56102C12.7784 5.84232 12.3969 6.00036 11.9991 6.00036H9.11038L9.85408 16.416C10.001 18.4758 10.9229 20.4033 12.4341 21.8106C13.9454 23.2178 15.9336 24.0002 17.9986 24.0002C20.0636 24.0002 22.0519 23.2178 23.5631 21.8106C25.0743 20.4033 25.9962 18.4758 26.1431 16.416L26.8877 6.00036H23.999C23.6012 6.00036 23.2197 5.84232 22.9384 5.56102C22.6571 5.27972 22.4991 4.89819 22.4991 4.50036C22.4991 4.10254 22.6571 3.72101 22.9384 3.4397C23.2197 3.1584 23.6012 3.00037 23.999 3.00037H28.499C28.705 3.00034 28.9089 3.04274 29.0978 3.12494C29.2867 3.20714 29.4566 3.32737 29.597 3.47814C29.7374 3.6289 29.8452 3.80697 29.9138 4.00124C29.9823 4.19552 30.0101 4.40183 29.9954 4.60731L29.1362 16.6299C28.9261 19.443 27.6627 22.0734 25.5982 23.9958C23.5336 25.9181 20.82 26.9911 17.9991 27.0003Z" fill="#408FF1"/>
</svg>
