<svg width="80" height="80" viewBox="0 0 80 80" fill="none" xmlns="http://www.w3.org/2000/svg">
<path d="M40 22.5C45.5228 22.5 50 18.0228 50 12.5C50 6.97715 45.5228 2.5 40 2.5C34.4772 2.5 30 6.97715 30 12.5C30 18.0228 34.4772 22.5 40 22.5Z" fill="#425B72"/>
<path d="M41.25 13.75H38.75C35.9887 13.75 33.75 15.9887 33.75 18.75V20.3C35.4625 21.6737 37.6337 22.5 40 22.5C42.3663 22.5 44.5375 21.6737 46.25 20.3V18.75C46.25 15.9887 44.0113 13.75 41.25 13.75Z" fill="#CBD4DC"/>
<path d="M40 13.75C42.0711 13.75 43.75 12.0711 43.75 10C43.75 7.92893 42.0711 6.25 40 6.25C37.9289 6.25 36.25 7.92893 36.25 10C36.25 12.0711 37.9289 13.75 40 13.75Z" fill="#CBD4DC"/>
<path d="M67.5 50C73.0228 50 77.5 45.5228 77.5 40C77.5 34.4772 73.0228 30 67.5 30C61.9772 30 57.5 34.4772 57.5 40C57.5 45.5228 61.9772 50 67.5 50Z" fill="#425B72"/>
<path d="M68.75 41.25H66.25C63.4887 41.25 61.25 43.4887 61.25 46.25V47.8C62.9625 49.1738 65.1337 50 67.5 50C69.8663 50 72.0375 49.1738 73.75 47.8V46.25C73.75 43.4887 71.5113 41.25 68.75 41.25Z" fill="#CBD4DC"/>
<path d="M67.5 41.25C69.5711 41.25 71.25 39.5711 71.25 37.5C71.25 35.4289 69.5711 33.75 67.5 33.75C65.4289 33.75 63.75 35.4289 63.75 37.5C63.75 39.5711 65.4289 41.25 67.5 41.25Z" fill="#CBD4DC"/>
<path d="M12.5 50C18.0228 50 22.5 45.5228 22.5 40C22.5 34.4772 18.0228 30 12.5 30C6.97715 30 2.5 34.4772 2.5 40C2.5 45.5228 6.97715 50 12.5 50Z" fill="#425B72"/>
<path d="M13.75 41.25H11.25C8.48875 41.25 6.25 43.4887 6.25 46.25V47.8C7.9625 49.1738 10.1337 50 12.5 50C14.8663 50 17.0375 49.1738 18.75 47.8V46.25C18.75 43.4887 16.5113 41.25 13.75 41.25Z" fill="#CBD4DC"/>
<path d="M12.5 41.25C14.5711 41.25 16.25 39.5711 16.25 37.5C16.25 35.4289 14.5711 33.75 12.5 33.75C10.4289 33.75 8.75 35.4289 8.75 37.5C8.75 39.5711 10.4289 41.25 12.5 41.25Z" fill="#CBD4DC"/>
<path d="M40 62.5C43.4518 62.5 46.25 59.7018 46.25 56.25C46.25 52.7982 43.4518 50 40 50C36.5482 50 33.75 52.7982 33.75 56.25C33.75 59.7018 36.5482 62.5 40 62.5Z" fill="#4B94E2"/>
<path d="M41.9375 63.5H37.625C32.8618 63.5 29 67.3379 29 72.0714V74.7286C31.9541 77.0836 35.6995 78.5 39.7812 78.5C43.863 78.5 47.6084 77.0836 50.5625 74.7286V72.0714C50.5625 67.3379 46.7007 63.5 41.9375 63.5Z" fill="#4B94E2"/>
<path d="M49.6335 24.116L47.8657 25.8838L55.3656 33.3834L57.1333 31.6156L49.6335 24.116Z" fill="#CBD4DC"/>
<path d="M30.3656 24.1166L22.866 31.6165L24.6338 33.3842L32.1334 25.8843L30.3656 24.1166Z" fill="#CBD4DC"/>
<path d="M24.6335 45.366L22.8657 47.1338L30.3656 54.6334L32.1333 52.8656L24.6335 45.366Z" fill="#CBD4DC"/>
<path d="M55.3656 45.3668L47.866 52.8667L49.6338 54.6344L57.1334 47.1346L55.3656 45.3668Z" fill="#CBD4DC"/>
</svg>
