<svg width="48" height="48" viewBox="0 0 48 48" fill="none" xmlns="http://www.w3.org/2000/svg">
<path d="M40.4007 25.3301H33.8777C33.5384 25.3301 33.2131 25.1934 32.9733 24.9501C32.7334 24.7068 32.5986 24.3768 32.5986 24.0328C32.5986 23.6887 32.7334 23.3587 32.9733 23.1154C33.2131 22.8722 33.5384 22.7355 33.8777 22.7355H40.4007C40.7399 22.7355 41.0652 22.8722 41.3051 23.1154C41.5449 23.3587 41.6797 23.6887 41.6797 24.0328C41.6797 24.3768 41.5449 24.7068 41.3051 24.9501C41.0652 25.1934 40.7399 25.3301 40.4007 25.3301Z" fill="#408FF1"/>
<path d="M34.6998 5.92788C33.6601 4.1427 32.1738 2.65884 30.3869 1.62221C28.6 0.585579 26.574 0.031874 24.5082 0.0155425C15.4616 -0.41228 9.61204 8.28053 7.15076 16.5573C4.54271 25.3628 6.2357 36.9367 13.5866 41.1238C17.8478 43.5331 23.9707 43.8227 27.8112 40.5383C29.5965 39.0222 31.6045 36.1167 31.7126 32.9681L31.7064 32.871C31.6677 32.2934 31.6055 31.8229 31.533 31.4485C31.294 30.7518 31.039 30.2728 30.7929 30.0047C30.3261 29.4959 29.7628 29.1765 28.9684 29.0336C27.4411 28.759 26.1521 30.146 25.3966 30.959C25.3336 31.0268 25.2743 31.0906 25.2189 31.1492C24.8497 31.539 24.6117 31.9675 24.3614 32.4179L24.3614 32.4179C24.1237 32.8458 23.875 33.2936 23.4923 33.7471C22.7316 34.6485 21.782 35.6535 21.3013 35.8259C20.8205 35.9983 20.3092 36.07 19.7989 36.0358C18.743 36.0358 17.6092 35.151 17.1743 34.7087C16.7394 34.2663 16.3006 32.8245 16.2789 32.5994C16.2572 32.3743 16.2557 32.1477 16.2741 31.9222C16.2841 31.6356 16.5561 30.8024 16.8775 30.1427C17.5757 28.7091 18.6289 27.9668 19.7249 27.1943L19.7249 27.1943C20.0019 26.9991 20.2816 26.802 20.5589 26.5913L20.8373 26.3797L20.9546 26.2903C20.7757 26.2994 20.6007 26.3146 20.4299 26.3364C18.9531 26.5247 17.9405 26.8315 16.7151 27.2965C16.119 27.5314 15.4653 27.5787 14.8414 27.432C14.2139 27.2844 13.7254 27.0029 13.2179 26.468C12.4845 25.695 12.3887 24.9682 12.2708 23.9092C12.169 22.9949 12.4259 21.7531 12.5034 21.565C12.581 21.377 13.2438 20.3418 13.9401 19.8975C14.6364 19.4532 15.1432 19.4752 16.0286 19.3983C16.914 19.3214 18.3 19.6803 18.3 19.6803C18.3 19.6803 17.9757 19.3841 17.7 19.2003C16.8 18.6003 15.5508 18.4203 15 18.0003C14.2814 17.4523 14.0051 16.955 13.7427 16.0903C13.1865 14.2571 14.8899 11.9913 15.6359 11.5648L15.6428 11.5598C16.2495 11.122 16.9747 10.8788 17.7223 10.8619C18.4699 10.845 19.9232 11.5077 20.2222 11.6703C20.5213 11.8329 20.9732 12.0265 21.4081 12.3291C22.0886 12.8025 22.9383 13.8003 22.9383 13.8003C22.9383 13.8003 22.9264 12.8992 22.9383 12.7417C23.0096 11.7932 23.0893 10.7337 23.6696 9.67049C24.0212 9.02651 24.4105 8.48658 24.8013 8.17093C25.1922 7.85528 25.6416 7.61995 26.1238 7.47863C26.6061 7.33728 27.0315 7.28398 27.611 7.34756C28.1887 7.41094 29.3119 7.5546 29.9869 8.17093C30.662 8.78726 30.8844 9.05833 31.0815 9.67049C31.3189 10.4073 30.9285 11.6469 30.9285 11.6469L30.4029 13.0474C30.1922 13.453 29.4239 14.9478 29.1935 16.0014C29.054 16.6401 29.0502 17.4725 29.1277 18.3446L29.2015 18.42C30.0813 17.8651 31.0354 17.5639 31.7361 17.3427C31.9366 17.2795 32.1163 17.2227 32.2676 17.1685C33.6663 16.667 34.8454 15.8726 35.4809 14.642C36.7015 12.3458 36.3722 8.83985 34.6998 5.92788Z" fill="#FB7185"/>
<path d="M29.389 12.5529C29.3856 12.5603 29.3754 12.5801 29.3594 12.6109L29.3509 12.6275C29.1564 13.0017 28.3065 14.6377 28.0369 15.8702C27.835 16.7943 27.8716 17.9378 27.992 18.9907C28.1855 19.1854 28.375 19.3786 28.5597 19.5692C28.6699 19.6114 28.7811 19.6544 28.893 19.6982C29.0363 19.6467 29.1894 19.6195 29.3453 19.6195C33.2983 19.5296 38.5982 16.9606 39.5758 16.4866C39.671 16.4405 39.7252 16.4142 39.7332 16.412C40.0337 16.2484 40.3896 16.2059 40.7227 16.2938C41.0559 16.3817 41.3389 16.5929 41.5096 16.8808C41.6803 17.1687 41.7247 17.5099 41.6329 17.8291C41.5412 18.1484 41.3209 18.4197 41.0205 18.5833C41.0145 18.5863 41.0055 18.5908 40.9936 18.5968C40.5878 18.8024 36.7967 20.723 32.8373 21.6255C33.3921 21.9796 33.9142 22.367 34.3798 22.7919C40.3566 28.2466 39.117 40.4375 38.6628 44.9044C38.621 45.315 38.5858 45.6611 38.5635 45.9298C38.5481 46.1159 38.539 46.2654 38.538 46.3744C38.5348 46.5723 38.4593 46.7622 38.3257 46.9084C38.1922 47.0544 38.0097 47.1467 37.8129 47.1676L34.7679 47.5168C34.7038 47.525 34.639 47.5255 34.5752 47.5184C34.5221 47.5123 34.4697 47.5013 34.4186 47.4849C34.3921 47.4766 34.3661 47.4667 34.3408 47.4556C34.3248 47.4487 34.309 47.4411 34.2933 47.433C34.2773 47.4248 34.2616 47.4161 34.2463 47.4069C34.1997 47.3787 34.1558 47.3457 34.1155 47.3085C34.0284 47.2282 33.9601 47.1301 33.9151 47.0205C33.8702 46.911 33.8497 46.7931 33.8553 46.6748C34.0471 42.7273 34.0157 31.9253 31.6373 29.3336C30.8776 28.5057 30.06 28.0198 28.8359 27.886C26.9595 27.681 25.4306 29.3156 24.5333 30.275C24.4708 30.3417 24.4114 30.4052 24.3552 30.4646C23.4876 31.3808 22.6131 33.0036 22.4132 33.3744C22.3915 33.4147 22.3777 33.4402 22.3728 33.4485C22.2354 33.7707 22.0327 34.0612 21.7777 34.3014C21.5228 34.5418 21.2209 34.7269 20.8912 34.8452C20.5613 34.9635 20.2107 35.0126 19.8611 34.9892C19.5116 34.9657 19.1705 34.8704 18.8594 34.709C18.5487 34.5513 18.2722 34.3335 18.0459 34.0684C17.8645 33.8561 17.7183 33.6166 17.6122 33.3591C17.5859 33.2953 17.5621 33.2302 17.5408 33.1644C17.482 32.9826 17.4434 32.7954 17.4252 32.606C17.4101 32.45 17.409 32.2926 17.4218 32.1356C17.4453 31.8492 17.5156 31.5687 17.629 31.3055C17.653 31.2496 17.6792 31.1945 17.7072 31.1402C17.7286 31.0787 17.7572 31.02 17.7927 30.9654C19.0378 29.3192 19.9002 28.6641 21.2518 27.6374L21.528 27.4274C21.6344 27.3465 21.7438 27.2629 21.8566 27.1761C22.4455 26.7232 23.3905 26.1669 24.3924 25.6245C22.9706 25.2891 21.5506 25.1328 20.2663 25.2965C18.6704 25.5 17.5648 25.8372 16.2772 26.3262C15.9006 26.476 15.4873 26.5065 15.0928 26.4137C14.6983 26.3209 14.342 26.1092 14.0717 25.8074C13.6612 25.3006 13.3968 24.6917 13.3068 24.0459C13.2167 23.4001 13.3046 22.742 13.561 22.1424C13.7654 21.6734 14.1075 21.2773 14.5417 21.0067C14.976 20.736 16.2181 20.4447 17.4001 20.4002C18.5821 20.3557 20.7001 20.7002 20.7001 20.7002C20.7001 20.7002 20.2111 19.7762 19.5001 19.2002C19.4607 19.1683 19.4218 19.1367 19.3835 19.1056C18.4608 18.3568 17.8179 17.835 16.5149 17.6089C16.1146 17.5458 15.7434 17.3615 15.4514 17.0806C15.2729 16.9089 15.1291 16.7062 15.0263 16.4837C14.9611 16.3423 14.9124 16.193 14.8819 16.0384C14.7869 15.3934 14.8697 14.7346 15.1213 14.1332C15.373 13.5316 15.7841 13.0102 16.31 12.6249C16.7251 12.3255 17.2212 12.159 17.7327 12.1475C18.2444 12.1359 18.7475 12.2797 19.1757 12.56C19.1757 12.56 22.0333 14.0693 23.7241 15.2542C23.7914 15.3014 23.8591 15.3495 23.927 15.3986C23.9367 15.2238 23.9455 15.0561 23.9539 14.8939C24.0426 13.1997 24.0992 12.1175 24.7598 10.1626C24.785 10.1026 24.8175 10.0457 24.8563 9.99345C25.0225 9.68718 25.2476 9.4167 25.5188 9.19769C25.79 8.97868 26.1018 8.81541 26.4362 8.71738C26.7707 8.61936 27.1213 8.58847 27.4678 8.62648C27.8143 8.66449 28.1498 8.77075 28.4552 8.93893C28.7633 9.10537 29.034 9.33356 29.25 9.60959C29.4661 9.88545 29.6228 10.2028 29.7105 10.5422C29.7982 10.8814 29.8149 11.235 29.7596 11.581C29.7043 11.927 29.5781 12.2579 29.389 12.5529Z" fill="#BE133C"/>
</svg>
