<svg width="48" height="48" viewBox="0 0 48 48" fill="none" xmlns="http://www.w3.org/2000/svg">
<path d="M22.0718 3.93236L22.0533 3.9248L22.0345 3.91799L22.0176 3.91186C20.0077 3.1837 17.8891 2.84314 15.7624 2.90823C13.5809 2.91367 11.8009 3.49118 10.402 4.50795C9.01253 5.51792 8.13165 6.86432 7.57268 8.19392L8.49453 8.58147L7.57268 8.19392C6.49951 10.7466 6.49986 13.5309 6.5 14.6464L6.5 14.6728V14.6728V14.6729V14.6729L6.5 14.7C6.5 14.7001 6.5 14.7001 6.5 14.7001C6.50002 18.5085 7.85362 21.3863 9.00625 23.8368L9.02774 23.8825L9.02775 23.8826L9.0497 23.9292C9.24711 24.349 9.45655 24.7611 9.65427 25.1483L9.65433 25.1484L9.70187 25.2414L9.70198 25.2417L9.70333 25.2443L9.70346 25.2446C9.88712 25.6041 10.0597 25.942 10.2232 26.281L11.1015 25.8574L10.2232 26.281C10.5799 27.0207 10.8526 27.6851 11.0094 28.3374L11.0096 28.3378C11.1207 28.7992 11.1743 29.4734 11.2062 30.4543C11.2151 30.7294 11.2223 31.0216 11.2299 31.3312L11.2301 31.3385C11.2479 32.0656 11.2679 32.8818 11.3189 33.717L11.3211 33.7526L11.3233 33.7899C11.4766 36.301 11.6561 39.2428 12.1664 41.7842C12.34 42.6584 12.7847 43.4678 13.4557 44.0747C14.1296 44.6843 14.9934 45.053 15.9149 45.0961C16.8368 45.1393 17.7327 44.8527 18.4604 44.3037C19.1845 43.7575 19.6969 42.9877 19.9428 42.1305C20.8907 38.8652 21.8268 36.4733 22.7182 34.9181C23.164 34.1404 23.5538 33.652 23.8627 33.3714C24.0735 33.1799 24.1992 33.1265 24.2435 33.1127C24.3156 33.1329 24.7954 33.2943 25.6115 34.6291C26.5232 36.1203 27.5145 38.5514 28.5439 42.0861C28.7899 42.943 29.3022 43.7126 30.0261 44.2586C30.7539 44.8076 31.6497 45.0943 32.5717 45.0511C33.4932 45.0079 34.3569 44.6392 35.0308 44.0297L34.36 43.2881L35.0308 44.0297C35.701 43.4235 36.1454 42.6154 36.3195 41.7426C36.8318 39.2277 37.011 36.2859 37.1643 33.768L37.1667 33.7292L37.1667 33.7291L37.169 33.6918L37.169 33.6917C37.2199 32.8559 37.2397 32.0379 37.2574 31.3082L37.2575 31.3009C37.265 30.9925 37.272 30.7011 37.2809 30.4264C37.3124 29.4451 37.3654 28.7623 37.4771 28.2891C37.634 27.6379 37.9064 26.975 38.2629 26.2362L37.3622 25.8017L38.2629 26.2362C38.426 25.8981 38.5983 25.5609 38.7816 25.2022L38.7819 25.2015L38.7824 25.2005L38.7828 25.1999L38.832 25.1035L38.832 25.1034C39.0299 24.7162 39.2394 24.3041 39.4368 23.8842C39.4368 23.8842 39.4368 23.8842 39.4369 23.8842L39.4537 23.8484L39.4537 23.8483L39.4588 23.8375L39.4588 23.8375L39.4803 23.7918C40.6329 21.3412 41.9866 18.4633 41.9866 14.655V14.6286V14.6285V14.6029C41.9867 13.5081 41.987 10.7345 40.9132 8.18668C40.354 6.86001 39.473 5.51555 38.0838 4.50675C36.6853 3.49118 34.9057 2.91367 32.7242 2.90823C30.5975 2.84314 28.4788 3.1837 26.469 3.91186L26.469 3.91187L26.452 3.918L26.4332 3.92481L26.4147 3.93237L26.3981 3.93916C26.3981 3.93916 26.3981 3.93917 26.3981 3.93917C25.0085 4.50641 23.478 4.5064 22.0885 3.93916L21.7129 4.85919L22.0885 3.93916L22.0718 3.93236ZM24.2616 33.1081C24.2616 33.1082 24.2608 33.1083 24.259 33.1085L24.2616 33.1081Z" fill="white" stroke="white" stroke-width="2"/>
<path fill-rule="evenodd" clip-rule="evenodd" d="M27.8999 5.4002C29.694 4.75019 30.799 4.74681 32.6929 4.80823C40.0864 4.80823 40.0865 12.5031 40.0865 14.655C40.0865 18.0383 38.8866 20.5896 37.7174 23.0756C36.9866 24.6295 36.0352 26.1578 35.629 27.8479C35.3057 29.2112 35.4118 31.2888 35.2724 33.5762C35.1158 36.147 34.9431 38.9828 34.4568 41.3675C34.36 41.8565 34.1135 42.2974 33.7562 42.6206C33.3988 42.9439 32.9508 43.1313 32.4826 43.1532C32.0145 43.1751 31.5528 43.0304 31.1702 42.7418C30.7876 42.4532 30.5058 42.0371 30.3692 41.559C26.1866 27.1944 21.9723 28.3211 18.1171 41.6041C17.9805 42.0822 17.6987 42.4983 17.3161 42.7869C16.9336 43.0755 16.4719 43.2202 16.0037 43.1983C15.5356 43.1763 15.0876 42.989 14.7302 42.6657C14.3728 42.3424 14.1263 41.9016 14.0295 41.4125C13.5447 38.9989 13.3715 36.1617 13.2153 33.6013C13.0754 31.3094 13.1809 29.2392 12.8566 27.8929C12.4504 26.2029 11.4997 24.6745 10.7689 23.1207C9.59979 20.6347 8.3999 18.0833 8.3999 14.7001C8.3999 12.5031 8.3999 4.80823 15.7934 4.80823C17.6873 4.74681 19.5762 5.04827 21.3703 5.69827C22.0279 5.96672 22.9181 6.37898 23.6999 6.9002C26.3999 8.7002 28.1999 11.5802 29.3999 11.1002C30.8999 10.5002 28.1081 6.04641 27.8999 5.4002Z" fill="#8999B3"/>
</svg>
