<svg width="80" height="80" viewBox="0 0 80 80" fill="none" xmlns="http://www.w3.org/2000/svg">
<g clip-path="url(#clip0)">
<path d="M58.7719 25.2175C58.7719 25.2175 59.5455 7.22835 40.5157 3.35139C36.0289 2.42092 31.3875 3.35139 27.8291 5.98772C21.4858 10.6401 13.4407 21.3405 18.701 44.137C19.9387 49.5648 22.4141 54.5273 25.9725 58.7144C28.2932 61.3507 31.0781 65.3828 32.6252 70.1902C32.6252 70.1902 38.1949 84.3024 51.8098 71.8961C51.8098 71.8961 54.1305 68.6394 54.2852 64.6074C54.2852 64.6074 61.7115 58.8695 57.0701 49.2546C57.0701 49.2546 54.4399 43.3616 60.4738 37.6237C60.3191 37.7788 64.9605 31.2655 58.7719 25.2175Z" fill="#F26674"/>
<path d="M51.8526 54.0312C47.7226 46.1746 50.3229 41.932 50.3229 41.932C52.9233 36.2753 48.4874 38.9465 48.4874 38.9465C37.0152 44.9175 35.6386 42.0892 35.4856 40.5178C35.4856 40.0464 35.7915 39.575 36.4034 39.575C40.9923 38.9465 45.5811 35.3325 45.5811 35.3325C58.7358 17.1052 44.9693 14.9053 44.9693 14.9053C26.1549 7.36299 24.0135 24.6475 24.0135 24.6475C18.9657 42.5606 34.4149 55.1311 34.4149 55.1311C36.2504 55.6025 35.3327 54.0312 35.3327 54.0312C21.4131 37.5323 27.9905 25.276 27.9905 25.276C33.6501 14.5911 35.7915 22.7619 35.7915 22.7619C31.5086 27.4759 32.2734 37.2181 32.2734 37.2181C33.3442 50.8885 45.5811 51.2028 45.5811 51.2028C43.4396 54.6597 47.5696 56.7024 47.5696 56.7024C53.2292 58.1166 51.8526 54.0312 51.8526 54.0312Z" fill="#C4455E"/>
</g>
<defs>
<clipPath id="clip0">
<rect width="80" height="80" fill="white"/>
</clipPath>
</defs>
</svg>
