<svg width="80" height="80" viewBox="0 0 80 80" fill="none" xmlns="http://www.w3.org/2000/svg">
<g clip-path="url(#clip0)">
<path d="M33.6984 33.8586C36.1122 26.7699 34.9624 21.9829 34.1264 19.7289C28.8661 5.54689 38.2713 1.87456 38.2713 1.87456C38.2713 1.87456 41.1573 0.157995 45.4959 0.0104404C48.83 -0.102954 51.5066 0.713398 53.8177 2.16446C57.0289 4.18065 58.9465 6.69724 59.2429 10.7452C59.3206 11.8054 59.125 12.4745 58.9467 13.0841C58.7323 13.8176 58.543 14.4649 58.8857 15.6038C59.3277 17.073 59.9489 18.0379 60.3782 18.7047L60.3783 18.7048C60.5582 18.9844 60.7045 19.2115 60.7896 19.4015C61.4402 20.9456 58.4651 20.9525 58.4651 20.9525C58.1592 21.7832 58.7382 22.2961 58.7382 22.2961C58.7382 22.2961 59.3641 22.5741 59 23.5C58.9119 23.7241 58.0956 24.3237 57.9 25C57.7806 25.4129 57.8941 26.0954 57.8941 26.0954C58.0036 26.6373 58.1293 27.2599 57.2523 28.157C56.3242 29.0594 54.9541 28.9202 53.7403 28.7968H53.7403C52.5695 28.6778 51.5441 28.5736 51.2009 29.4333C50.6842 30.7277 52.3797 33.494 52.3797 33.494C52.3797 33.494 56.1446 35.7177 59.3103 37.5048C59.5474 37.5599 59.7845 37.5918 60.0217 37.5918C64.8644 38.4702 69.267 38.6921 71.9085 42.6452C74.1097 45.2806 75.4305 49.6729 74.9903 54.0653C74.9436 54.4842 74.9019 54.8439 74.8657 55.1564L74.8656 55.1572C74.7258 56.3622 74.6674 56.8659 74.7204 57.3578C74.7584 57.7111 74.8539 58.0583 75.018 58.6548C75.1252 59.0446 75.2617 59.5407 75.4305 60.2146C75.8708 61.093 76.311 62.4107 76.311 62.85L77.6318 72.5131C77.9593 74.474 78.2869 75.219 78.7958 76.3766C78.9709 76.7747 79.1674 77.2219 79.3928 77.784C79.6352 78.5097 79.8332 79.2501 80.0002 80H66.0303C65.9063 79.2325 65.8256 78.5082 65.7449 77.784C65.6349 76.7957 65.5248 75.8074 65.3047 74.7093C65.0846 74.0505 64.8645 73.1721 64.6443 72.2936C64.4242 71.4151 64.2041 70.5366 63.9839 69.8777C63.7638 70.3169 63.6538 70.866 63.5437 71.415L63.5437 71.415C63.4336 71.9641 63.3236 72.5131 63.1034 72.9524C62.4071 74.805 62.0779 77.3903 62.0513 80H23.432C23.382 77.5055 23.0518 74.9489 22.3848 72.9524C22.3848 72.0739 21.9445 70.7562 21.5043 69.8777C21.2842 70.5365 21.0641 71.4149 20.844 72.2933L20.8439 72.2935L20.8439 72.2936C20.6238 73.1721 20.4036 74.0505 20.1835 74.7093C19.9452 75.8983 19.8359 76.8298 19.7159 77.8523C19.6397 78.5017 19.5592 79.1879 19.4385 80H6.57558C6.74438 79.2594 6.94485 78.5217 7.19134 77.784C7.45106 77.1362 7.67249 76.6795 7.86685 76.2785L7.86726 76.2777C8.3316 75.3202 8.6421 74.6799 8.95235 72.5131L10.2731 62.85C10.2731 62.4108 10.4932 61.9716 10.7133 61.5323L10.7134 61.5323C10.9335 61.0931 11.1536 60.6538 11.1536 60.2146C11.7611 57.7904 11.7399 57.4567 11.6684 56.3291C11.6362 55.8222 11.5939 55.1549 11.5939 54.0653C11.5939 50.1122 12.9146 45.2806 14.6756 42.6452C17.3172 38.2528 21.7197 38.4702 26.5625 37.5918C27.443 37.5918 28.3235 37.1525 29.204 36.7133C29.2353 36.7071 29.2665 36.7007 29.2975 36.6943C31.5359 35.2654 33.6984 33.8586 33.6984 33.8586Z" fill="#F26674"/>
<path d="M57.9685 73.5038C57.1607 73.2182 57.0311 72.5473 55.3892 71.7769C53.57 70.9268 52.3041 70.2427 50.9512 69.8641C49.4801 69.4589 48.1534 68.5955 47.2865 67.3336C46.3802 66.0185 45.8567 65.7887 45.9401 63.4947C46.0235 61.2006 46.9325 59 47.2865 55C47.6404 51 48.1683 48.3183 47.3539 45.1967C47.2094 44.6388 47.2619 43.7156 47.4655 43.171C47.7742 42.354 48.4375 41.5703 49.843 41.8958C52.9692 42.6131 61.9814 51.5063 60.1884 72.0359C60.0899 73.1385 59.0062 73.8757 57.9685 73.5038Z" fill="white"/>
<path d="M26.7036 73.5038C27.5114 73.2182 27.641 72.5473 29.2829 71.7769C31.1022 70.9268 32.368 70.2427 33.7209 69.8641C35.192 69.4589 36.5187 68.5955 37.3856 67.3336C38.292 66.0185 38.8154 65.7887 38.732 63.4947C38.6486 61.2006 37.7396 59 37.3856 55C37.0317 51 36.5038 48.3183 37.3182 45.1967C37.4627 44.6388 37.4102 43.7156 37.2066 43.171C36.8979 42.354 36.2346 41.5703 34.8291 41.8958C31.7029 42.6131 22.6908 51.5063 24.4837 72.0359C24.5822 73.1385 25.6659 73.8757 26.7036 73.5038Z" fill="white"/>
<path fill-rule="evenodd" clip-rule="evenodd" d="M59.2606 16.652C59.638 17.555 60.0606 18.2114 60.3781 18.7047L60.3782 18.7048L60.3782 18.7049C60.5582 18.9844 60.7044 19.2115 60.7895 19.4015C61.4402 20.9456 58.4651 20.9525 58.4651 20.9525C58.1591 21.7832 58.7381 22.2961 58.7381 22.2961C58.7381 22.2961 59.364 22.5741 58.9999 23.5C58.9694 23.5776 58.8517 23.7001 58.7027 23.8552C58.4212 24.1483 58.0279 24.5577 57.8999 25C57.8641 25.1237 57.8493 25.2717 57.846 25.4182C57.584 25.292 57.3037 25.1518 57.0005 25.0002L57 25C56.6082 24.8041 56.3124 24.6274 56.0516 24.4716C54.9815 23.8324 54.5031 23.5467 50.4111 23.7384C45.3221 23.9769 44.0001 30.8617 44.0001 30.8617V47.848L48.1234 52.7795V57.5001L42.5001 50.0001L36.0001 59.0001L35.5001 54.5001L41.0001 47.848L41 25.5002C41.1481 23.3966 43.5001 15.5192 48.7672 14.4233C52.4911 13.6485 56.677 15.0927 59.2606 16.652Z" fill="white"/>
</g>
<defs>
<clipPath id="clip0">
<rect width="80" height="80" fill="white" transform="matrix(-1 0 0 1 80 0)"/>
</clipPath>
</defs>
</svg>
