<svg width="48" height="48" viewBox="0 0 48 48" fill="none" xmlns="http://www.w3.org/2000/svg">
<path d="M18.8331 32.9542C18.9515 31.0117 19.1726 29.3455 19.4345 27.5766C19.4345 27.0844 19.7976 24.9105 20.6998 20.4C21.5997 15.9 24.0512 11.7789 25.6043 10.3183C28.2478 7.09176 30.2997 5.39999 33.9525 3.65552C29.0723 7.84599 23.3105 16.9811 26.7139 27.4424C26.7139 27.4424 27.7879 31.1301 28.0353 32.512C28.1463 33.1557 28.1202 33.8156 27.9588 34.4486C27.7974 35.0815 27.5043 35.6733 27.0985 36.1852C26.6928 36.6971 26.1836 37.1177 25.6043 37.4194C25.0249 37.7211 24.3884 37.8972 23.7364 37.9361C23.0844 37.975 22.4314 37.876 21.8203 37.6453C21.2091 37.4147 20.6535 37.0577 20.1898 36.5977C19.726 36.1377 19.3645 35.5851 19.1289 34.9758C18.8933 34.3666 18.7889 33.7145 18.8226 33.0622L18.8331 32.9542Z" fill="#384C6C"/>
<path d="M47.1791 23.7178C47.5061 23.7178 47.7713 23.983 47.7713 24.3101V42.3736C47.7713 43.5526 46.91 44.5304 45.7823 44.7122H2.38056C1.25287 44.5304 0.391602 43.5526 0.391602 42.3736V24.3101C0.391602 23.983 0.656759 23.7178 0.983848 23.7178H14.1165C16.4573 24.3551 16.9827 26.1759 16.8271 27.187C16.5863 28.8624 16.3336 30.6628 16.2059 32.7949L16.2006 32.8936C16.1403 33.8831 16.2831 34.8745 16.6204 35.8068C16.9576 36.739 17.4821 37.5924 18.1616 38.3142C18.8411 39.0361 19.6611 39.6113 20.5712 40.0043C21.4814 40.3973 22.4623 40.5998 23.4537 40.5994C24.5167 40.5989 25.5667 40.3657 26.53 39.9163C27.4934 39.467 28.3467 38.8122 29.0302 37.9981C29.7137 37.1839 30.2107 36.2301 30.4865 35.2034C30.7622 34.1768 30.81 33.1023 30.6264 32.0553C30.5274 31.4987 30.2475 30.6108 29.9784 29.757C29.7149 28.921 29.4617 28.1175 29.3985 27.6898L29.3864 27.6141C29.2555 26.8051 28.876 24.4596 31.7969 23.7178H47.1791Z" fill="#384C6C"/>
</svg>
