<svg width="48" height="48" viewBox="0 0 48 48" fill="none" xmlns="http://www.w3.org/2000/svg">
<path d="M22.0718 3.93193L22.0533 3.92438L22.0345 3.91757L22.0176 3.91144C20.0077 3.18327 17.8891 2.84271 15.7624 2.90781C13.5809 2.91324 11.8009 3.49076 10.402 4.50752C9.01253 5.51749 8.13165 6.8639 7.57268 8.19349L8.49453 8.58104L7.57268 8.19349C6.49951 10.7462 6.49986 13.5305 6.5 14.646L6.5 14.6724V14.6724V14.6725V14.6725L6.5 14.6996C6.5 14.6996 6.5 14.6997 6.5 14.6997C6.50002 18.508 7.85362 21.3859 9.00625 23.8364L9.02774 23.8821L9.02775 23.8821L9.0497 23.9288C9.24711 24.3486 9.45655 24.7606 9.65427 25.1478L9.65433 25.1479L9.70187 25.241L9.70198 25.2412L9.70333 25.2439L9.70346 25.2441C9.88712 25.6036 10.0597 25.9416 10.2232 26.2806L11.1015 25.857L10.2232 26.2806C10.5799 27.0203 10.8526 27.6846 11.0094 28.337L11.0096 28.3374C11.1207 28.7988 11.1743 29.473 11.2062 30.4539C11.2151 30.7289 11.2223 31.0211 11.2299 31.3308L11.2301 31.3381C11.2479 32.0652 11.2679 32.8814 11.3189 33.7166L11.3211 33.7522L11.3233 33.7895C11.4766 36.3005 11.6561 39.2424 12.1664 41.7838C12.34 42.6579 12.7847 43.4674 13.4557 44.0743C14.1296 44.6839 14.9934 45.0525 15.9149 45.0957C16.8368 45.1389 17.7327 44.8522 18.4604 44.3033C19.1845 43.7571 19.6969 42.9872 19.9428 42.1301C20.8907 38.8648 21.8268 36.4728 22.7182 34.9176C23.164 34.14 23.5538 33.6515 23.8627 33.3709C24.0735 33.1795 24.1992 33.1261 24.2435 33.1122C24.3156 33.1324 24.7954 33.2939 25.6115 34.6287C26.5232 36.1199 27.5145 38.551 28.5439 42.0857C28.7899 42.9426 29.3022 43.7121 30.0261 44.2582C30.7539 44.8072 31.6497 45.0938 32.5717 45.0506C33.4932 45.0075 34.3569 44.6388 35.0308 44.0293L34.36 43.2876L35.0308 44.0293C35.701 43.4231 36.1454 42.615 36.3195 41.7421C36.8318 39.2273 37.011 36.2855 37.1643 33.7676L37.1667 33.7287L37.1667 33.7286L37.169 33.6913L37.169 33.6913C37.2199 32.8555 37.2397 32.0375 37.2574 31.3078L37.2575 31.3005C37.265 30.9921 37.272 30.7007 37.2809 30.426C37.3124 29.4447 37.3654 28.7619 37.4771 28.2887C37.634 27.6375 37.9064 26.9746 38.2629 26.2358L37.3622 25.8013L38.2629 26.2358C38.426 25.8976 38.5983 25.5605 38.7816 25.2018L38.7819 25.2011L38.7824 25.2001L38.7828 25.1994L38.832 25.1031L38.832 25.103C39.0299 24.7158 39.2394 24.3036 39.4368 23.8838C39.4368 23.8838 39.4368 23.8837 39.4369 23.8837L39.4537 23.8479L39.4537 23.8479L39.4588 23.8371L39.4588 23.837L39.4803 23.7913C40.6329 21.3408 41.9866 18.4629 41.9866 14.6545V14.6282V14.6281V14.6025C41.9867 13.5077 41.987 10.734 40.9132 8.18625C40.354 6.85959 39.473 5.51512 38.0838 4.50632C36.6853 3.49075 34.9057 2.91324 32.7242 2.90781C30.5975 2.84271 28.4788 3.18327 26.469 3.91144L26.469 3.91144L26.452 3.91757L26.4332 3.92439L26.4147 3.93195L26.3981 3.93873C26.3981 3.93874 26.3981 3.93874 26.3981 3.93875C25.0085 4.50598 23.478 4.50597 22.0885 3.93873L21.7129 4.85876L22.0885 3.93873L22.0718 3.93193ZM24.2616 33.1077C24.2616 33.1077 24.2608 33.1079 24.259 33.1081L24.2616 33.1077Z" fill="white" stroke="white" stroke-width="2"/>
<path fill-rule="evenodd" clip-rule="evenodd" d="M27.8999 5.39977C29.694 4.74977 30.799 4.74639 32.6929 4.8078C40.0864 4.8078 40.0865 12.5027 40.0865 14.6546C40.0865 18.0378 38.8866 20.5892 37.7174 23.0752C36.9866 24.629 36.0352 26.1574 35.629 27.8474C35.3057 29.2107 35.4118 31.2883 35.2724 33.5758C35.1158 36.1465 34.9431 38.9824 34.4568 41.367C34.36 41.8561 34.1135 42.2969 33.7562 42.6202C33.3988 42.9435 32.9508 43.1308 32.4826 43.1528C32.0145 43.1747 31.5528 43.03 31.1702 42.7414C30.7876 42.4528 30.5058 42.0367 30.3692 41.5586C26.1866 27.194 21.9723 28.3206 18.1171 41.6036C17.9805 42.0817 17.6987 42.4978 17.3161 42.7864C16.9336 43.075 16.4719 43.2198 16.0037 43.1978C15.5356 43.1759 15.0876 42.9885 14.7302 42.6653C14.3728 42.342 14.1263 41.9012 14.0295 41.4121C13.5447 38.9985 13.3715 36.1613 13.2153 33.6009C13.0754 31.309 13.1809 29.2388 12.8566 27.8925C12.4504 26.2025 11.4997 24.6741 10.7689 23.1202C9.59979 20.6342 8.3999 18.0829 8.3999 14.6996C8.3999 12.5027 8.3999 4.8078 15.7934 4.8078C17.6873 4.74639 19.5762 5.04784 21.3703 5.69784C22.0279 5.9663 22.9181 6.37856 23.6999 6.89977C26.3999 8.69977 28.1999 11.5798 29.3999 11.0998C30.8999 10.4998 28.1081 6.04599 27.8999 5.39977Z" fill="#384C6C"/>
</svg>
