<svg width="48" height="48" viewBox="0 0 48 48" fill="none" xmlns="http://www.w3.org/2000/svg">
<rect x="5.39981" y="12" width="30" height="4.2" rx="2.1" fill="#374A68"/>
<rect x="5.39981" y="21" width="30" height="4.2" rx="2.1" fill="#374A68"/>
<rect x="5.39981" y="30" width="30" height="4.2" rx="2.1" fill="#374A68"/>
<ellipse cx="34.6066" cy="32.3288" rx="12" ry="12" fill="white"/>
<g clip-path="url(#clip0_3466_29062)">
<path d="M45.0691 32.3288C45.0691 38.1071 40.3849 42.7913 34.6066 42.7913C28.8283 42.7913 24.1441 38.1071 24.1441 32.3288C24.1441 26.5505 28.8283 21.8663 34.6066 21.8663C40.3849 21.8663 45.0691 26.5505 45.0691 32.3288ZM33.3964 37.8686L41.1589 30.1061C41.4225 29.8425 41.4225 29.4151 41.1589 29.1515L40.2043 28.197C39.9408 27.9333 39.5133 27.9333 39.2497 28.197L32.9191 34.5275L29.9635 31.5719C29.6999 31.3083 29.2725 31.3083 29.0089 31.5719L28.0543 32.5265C27.7907 32.7901 27.7907 33.2175 28.0543 33.4811L32.4418 37.8686C32.7054 38.1322 33.1328 38.1322 33.3964 37.8686V37.8686Z" fill="#374A68"/>
</g>
<defs>
<clipPath id="clip0_3466_29062">
<rect width="21.6" height="21.6" fill="white" transform="translate(23.8066 21.5288)"/>
</clipPath>
</defs>
</svg>
