<svg width="48" height="48" viewBox="0 0 48 48" fill="none" xmlns="http://www.w3.org/2000/svg">
<path d="M34.6526 21.6825C34.574 21.6039 34.6526 21.6825 34.6526 21.6825C34.2598 20.9755 33.5527 19.3257 33.317 18.1473C33.0814 17.0475 32.6886 16.0262 31.903 15.2406C31.903 15.2406 31.903 15.2406 31.8244 15.2406C31.5887 15.0049 31.4316 14.7692 31.4316 14.455C31.1959 13.6694 30.8817 12.0196 30.7246 10.7627C30.646 9.19149 29.4676 8.01309 27.8179 7.77741C27.8179 7.77741 26.5609 6.8347 25.6182 6.75614L25.3825 5.10638C25.3825 5.10638 25.9324 4.24223 26.011 3.69231C26.011 3.69231 26.718 3.22095 26.011 2.43535C26.011 2.43535 26.4823 0.235679 24.047 0C21.6116 0.235679 22.083 2.43535 22.083 2.43535C21.376 3.29951 22.083 3.69231 22.083 3.69231C22.1616 4.24223 22.7115 5.10638 22.7115 5.10638L22.3187 6.75614C21.4545 6.8347 20.119 7.77741 20.119 7.77741C18.4692 8.01309 17.2908 9.19149 17.2123 10.7627C17.1337 12.0196 16.7409 13.6694 16.5053 14.455C16.4267 14.7692 16.2696 15.0049 16.1125 15.2406C16.1125 15.2406 16.1125 15.2406 16.0339 15.2406C15.2483 16.0262 14.8555 17.126 14.6198 18.1473C14.3841 19.2471 13.5985 20.8969 13.2843 21.6039C13.2843 21.6039 13.2843 21.6039 13.2843 21.6825C13.0486 21.9967 11.8702 23.725 13.2843 24.0393C13.8342 24.1964 14.1485 24.0393 14.3841 23.8822C14.5413 23.725 14.6198 23.5679 14.6198 23.4108C14.6984 23.0966 14.6984 22.7823 14.6984 22.7823C14.6984 22.4681 14.7769 22.2324 14.8555 21.9967C14.9341 21.6825 15.0912 21.4468 15.3269 21.2111C17.0552 19.0115 17.6836 17.5188 17.9193 16.5761C18.155 15.7119 18.5478 14.8478 18.862 14.0622C19.2548 13.198 19.412 12.6481 19.412 12.1768C19.412 12.0196 19.6476 12.0196 19.6476 12.1768C20.4332 14.455 20.119 17.8331 19.8048 19.5614C19.6476 20.1113 19.4905 20.7398 19.412 21.2897C18.2336 24.5892 18.4692 29.4599 18.7835 32.2881C18.862 33.3879 18.7835 34.4877 18.5478 35.509C17.9979 37.6301 18.155 42.5008 18.3121 44.4648C18.3121 45.0933 18.2336 45.6432 17.9193 46.1931L17.5265 46.9002C16.8195 48 17.6836 48 17.6836 48H19.4905C19.8833 48 20.1976 47.6858 20.1976 47.293C20.119 44.3862 20.4332 42.2651 20.5904 41.4795C20.6689 41.2439 20.7475 41.0082 20.826 40.7725C21.376 39.3584 21.5331 36.6088 21.5331 35.509C21.5331 35.2733 21.6116 35.0376 21.6902 34.802C24.047 28.1244 23.8899 24.7463 23.8899 24.7463H23.9684H24.1255C24.1255 24.7463 24.047 28.1244 26.3252 34.802C26.4038 35.0376 26.4823 35.2733 26.4823 35.509C26.4823 36.5303 26.5609 39.3584 27.1894 40.7725C27.2679 41.0082 27.3465 41.2439 27.4251 41.4795C27.5822 42.2651 27.975 44.4648 27.8179 47.293C27.8179 47.6858 28.1321 48 28.5249 48H30.2532C30.2532 48 31.0388 48 30.4103 46.9002L30.0175 46.1931C29.7033 45.6432 29.6247 45.0933 29.6247 44.4648C29.7033 42.4223 29.939 37.6301 29.3891 35.509C29.1534 34.4092 29.0748 33.3093 29.1534 32.2881C29.389 29.4599 29.6247 24.5892 28.5249 21.2897C28.3678 20.7398 28.2107 20.1113 28.1321 19.5614C27.8964 17.8331 27.5822 14.5336 28.2892 12.1768C28.3678 12.0196 28.5249 12.0982 28.5249 12.1768C28.6035 12.5696 28.7606 13.198 29.0748 14.0622C29.4676 14.8478 29.7818 15.7119 30.0175 16.5761C30.2532 17.4403 30.8817 19.0115 32.61 21.2111C32.7671 21.4468 32.9242 21.6825 33.0814 21.9967C33.1599 22.2324 33.2385 22.4681 33.2385 22.7823C33.2385 22.9394 33.317 23.1751 33.317 23.4108C33.317 23.5679 33.4742 23.725 33.5527 23.8822C33.7884 24.0393 34.1026 24.1964 34.6526 24.0393C36.0666 23.725 34.8882 21.9182 34.6526 21.6825Z" fill="#384C6C"/>
</svg>
