<svg width="80" height="80" viewBox="0 0 80 80" fill="none" xmlns="http://www.w3.org/2000/svg">
<g clip-path="url(#clip0)">
<path d="M40.0326 5.6042C38.9338 5.60184 37.8719 6.00087 37.0465 6.72628C36.2212 7.4517 35.6891 8.45357 35.5504 9.54362C35.4117 10.6337 35.6758 11.7369 36.2932 12.6459C36.9106 13.5549 37.8387 14.2072 38.9031 14.4801V18.0291C38.9031 18.3287 39.0221 18.616 39.2339 18.8278C39.4457 19.0396 39.733 19.1587 40.0326 19.1587C40.3322 19.1587 40.6195 19.0396 40.8313 18.8278C41.0431 18.616 41.1621 18.3287 41.1621 18.0291V14.4801C42.2266 14.2072 43.1546 13.5549 43.772 12.6459C44.3894 11.7369 44.6535 10.6337 44.5148 9.54362C44.3761 8.45357 43.8441 7.4517 43.0187 6.72628C42.1933 6.00087 41.1314 5.60184 40.0326 5.6042V5.6042ZM41.1621 66.7596V63.2106C41.1621 62.9111 41.0431 62.6238 40.8313 62.4119C40.6195 62.2001 40.3322 62.0811 40.0326 62.0811C39.733 62.0811 39.4457 62.2001 39.2339 62.4119C39.0221 62.6238 38.9031 62.9111 38.9031 63.2106V66.7596C37.8383 67.0346 36.9103 67.6884 36.2932 68.5985C35.676 69.5087 35.4119 70.6127 35.5505 71.7036C35.689 72.7946 36.2207 73.7975 37.0458 74.5245C37.871 75.2514 38.9329 75.6525 40.0326 75.6525C41.1323 75.6525 42.1942 75.2514 43.0194 74.5245C43.8445 73.7975 44.3762 72.7946 44.5147 71.7036C44.6533 70.6127 44.3892 69.5087 43.7721 68.5985C43.1549 67.6884 42.2269 67.0346 41.1621 66.7596V66.7596ZM70.5301 36.1017C69.5312 36.1047 68.5615 36.439 67.7729 37.0523C66.9843 37.6655 66.4214 38.5229 66.1724 39.4903H62.6234C62.3238 39.4903 62.0365 39.6093 61.8247 39.8212C61.6128 40.033 61.4938 40.3203 61.4938 40.6199C61.4938 40.9194 61.6128 41.2068 61.8247 41.4186C62.0365 41.6304 62.3238 41.7494 62.6234 41.7494H66.1724C66.385 42.5657 66.8223 43.3061 67.4345 43.8864C68.0468 44.4667 68.8095 44.8637 69.6361 45.0322C70.4626 45.2008 71.3199 45.1342 72.1105 44.8401C72.9011 44.5459 73.5934 44.0359 74.1087 43.368C74.6241 42.7002 74.9418 41.9012 75.0258 41.0618C75.1098 40.2224 74.9568 39.3763 74.5841 38.6195C74.2114 37.8628 73.634 37.2257 72.9174 36.7806C72.2008 36.3355 71.3737 36.1003 70.5301 36.1017V36.1017ZM17.4418 41.7494C17.7414 41.7494 18.0287 41.6304 18.2405 41.4186C18.4524 41.2068 18.5714 40.9194 18.5714 40.6199C18.5714 40.3203 18.4524 40.033 18.2405 39.8212C18.0287 39.6093 17.7414 39.4903 17.4418 39.4903H13.8928C13.6179 38.4256 12.9641 37.4976 12.0539 36.8804C11.1438 36.2632 10.0398 35.9992 8.94885 36.1377C7.85792 36.2763 6.85498 36.808 6.12803 37.6331C5.40107 38.4583 5 39.5202 5 40.6199C5 41.7196 5.40107 42.7815 6.12803 43.6066C6.85498 44.4318 7.85792 44.9635 8.94885 45.102C10.0398 45.2406 11.1438 44.9765 12.0539 44.3593C12.9641 43.7421 13.6179 42.8142 13.8928 41.7494H17.4418ZM59.3242 58.3143L56.8053 55.7953C56.7004 55.6904 56.5759 55.6072 56.4388 55.5505C56.3018 55.4937 56.155 55.4645 56.0066 55.4645C55.8583 55.4645 55.7115 55.4937 55.5744 55.5505C55.4374 55.6072 55.3129 55.6904 55.208 55.7953C55.1031 55.9002 55.0199 56.0247 54.9632 56.1617C54.9064 56.2987 54.8772 56.4456 54.8772 56.5939C54.8772 56.7422 54.9064 56.8891 54.9632 57.0261C55.0199 57.1631 55.1031 57.2876 55.208 57.3925L57.7172 59.9017C57.3079 60.5853 57.0879 61.3655 57.0795 62.1622C57.0712 62.9589 57.275 63.7435 57.6699 64.4355C58.0649 65.1275 58.6367 65.702 59.3269 66.1C60.0171 66.4981 60.8008 66.7054 61.5975 66.7007C62.4898 66.6984 63.3614 66.4322 64.1027 65.9355C64.844 65.4389 65.4218 64.7341 65.7633 63.9098C66.1049 63.0855 66.195 62.1785 66.0223 61.3032C65.8495 60.4278 65.4216 59.6231 64.7925 58.9903C64.0733 58.3074 63.154 57.8732 62.1697 57.7515C61.1855 57.6298 60.1881 57.8271 59.3242 58.3143V58.3143ZM22.348 21.338C22.8632 20.4799 23.0756 19.4737 22.9512 18.4805C22.8269 17.4874 22.373 16.5646 21.6622 15.8599C21.1367 15.3346 20.4899 14.947 19.7789 14.7314C19.0679 14.5158 18.3147 14.4789 17.586 14.6239C16.8573 14.7689 16.1756 15.0914 15.6013 15.5627C15.027 16.0341 14.5778 16.6398 14.2936 17.3263C14.0093 18.0127 13.8986 18.7586 13.9715 19.498C14.0443 20.2374 14.2984 20.9474 14.7112 21.5652C15.124 22.183 15.6827 22.6894 16.338 23.0396C16.9932 23.3899 17.7247 23.5731 18.4677 23.5731C19.2722 23.5696 20.0609 23.3493 20.7508 22.9353L23.26 25.4445C23.4718 25.6563 23.759 25.7753 24.0586 25.7753C24.3581 25.7753 24.6454 25.6563 24.8572 25.4445C25.069 25.2327 25.188 24.9454 25.188 24.6458C25.188 24.3463 25.069 24.059 24.8572 23.8472L22.348 21.338ZM56.8053 25.4445L59.3145 22.9353C60.1726 23.4505 61.1788 23.6629 62.172 23.5385C63.1651 23.4142 64.0879 22.9603 64.7925 22.2494C65.2125 21.83 65.5457 21.3319 65.7731 20.7836C66.0005 20.2354 66.1177 19.6477 66.1179 19.0541C66.118 18.4605 66.0013 17.8728 65.7742 17.3244C65.5472 16.7759 65.2143 16.2776 64.7945 15.8579C64.3748 15.4382 63.8765 15.1053 63.3281 14.8783C62.7797 14.6512 62.1919 14.5344 61.5984 14.5346C61.0048 14.5348 60.4171 14.652 59.8688 14.8794C59.3206 15.1068 58.8225 15.44 58.403 15.8599C57.6922 16.5646 57.2382 17.4873 57.1139 18.4805C56.9896 19.4737 57.202 20.4799 57.7172 21.338L55.208 23.8472C55.1031 23.9521 55.0199 24.0766 54.9632 24.2136C54.9064 24.3507 54.8772 24.4975 54.8772 24.6458C54.8772 24.7942 54.9064 24.941 54.9632 25.0781C55.0199 25.2151 55.1031 25.3396 55.208 25.4445C55.3129 25.5493 55.4374 25.6325 55.5744 25.6893C55.7115 25.7461 55.8583 25.7753 56.0066 25.7753C56.155 25.7753 56.3018 25.7461 56.4388 25.6893C56.5759 25.6325 56.7004 25.5493 56.8053 25.4445V25.4445ZM23.26 55.7953L20.741 58.3143C19.8771 57.8271 18.8797 57.6298 17.8955 57.7515C16.9112 57.8732 15.9919 58.3074 15.2727 58.9903C14.4262 59.8378 13.951 60.9867 13.9514 62.1845C13.9517 63.3822 14.4277 64.5309 15.2747 65.3778C16.1216 66.2248 17.2702 66.7007 18.468 66.7011C19.6658 66.7015 20.8147 66.2262 21.6622 65.3798C22.373 64.6752 22.827 63.7524 22.9513 62.7592C23.0756 61.7661 22.8632 60.7599 22.348 59.9017L24.8572 57.3925C24.9621 57.2876 25.0453 57.1631 25.102 57.0261C25.1588 56.8891 25.188 56.7422 25.188 56.5939C25.188 56.4456 25.1588 56.2987 25.102 56.1617C25.0453 56.0247 24.9621 55.9002 24.8572 55.7953C24.7523 55.6904 24.6278 55.6072 24.4908 55.5505C24.3538 55.4937 24.2069 55.4645 24.0586 55.4645C23.9103 55.4645 23.7634 55.4937 23.6264 55.5505C23.4893 55.6072 23.3648 55.6904 23.26 55.7953V55.7953Z" fill="#374A68"/>
<path d="M40.2454 62.697C52.4969 62.697 62.4286 52.7652 62.4286 40.5138C62.4286 28.2624 52.4969 18.3306 40.2454 18.3306C27.994 18.3306 18.0623 28.2624 18.0623 40.5138C18.0623 52.7652 27.994 62.697 40.2454 62.697Z" fill="#374A68"/>
<path d="M52.0463 44.6348C49.8143 44.6348 48.9329 42.4338 48.2248 40.665C47.9883 39.9101 47.6207 39.2028 47.139 38.5753C46.7645 39.2437 46.447 39.9425 46.1897 40.6642C45.4816 42.433 44.6002 44.6348 42.3674 44.6348C40.1369 44.6348 39.2562 42.433 38.5488 40.6635C38.313 39.9092 37.9465 39.2021 37.466 38.5746C37.0963 39.2444 36.7813 39.943 36.5241 40.6635C35.8167 42.433 34.9368 44.6348 32.7062 44.6348C30.4757 44.6348 29.5957 42.433 28.8884 40.6635C28.6525 39.9092 28.286 39.2021 27.8056 38.5746C27.6095 38.5749 27.4154 38.536 27.2345 38.4603C27.0537 38.3846 26.8897 38.2736 26.7524 38.1337C26.615 37.9939 26.5069 37.828 26.4344 37.6458C26.3619 37.4636 26.3266 37.2688 26.3304 37.0728C26.3388 36.6695 26.5057 36.2857 26.7951 36.0046C27.0845 35.7235 27.473 35.5677 27.8764 35.571C30.1069 35.571 30.9869 37.7728 31.6942 39.5423C31.9301 40.2966 32.2966 41.0037 32.7771 41.6312C33.1461 40.9612 33.4608 40.2627 33.7182 39.5423C34.4256 37.7728 35.3056 35.571 37.5361 35.571C39.7666 35.571 40.6473 37.7728 41.3547 39.5423C41.5906 40.2966 41.9571 41.0037 42.4375 41.6312C42.8108 40.9619 43.1278 40.2627 43.3853 39.5408C44.0934 37.772 44.9749 35.571 47.2069 35.571C49.4396 35.571 50.3211 37.7728 51.0292 39.5416C51.2658 40.2962 51.6334 41.0032 52.1149 41.6305C52.311 41.6302 52.5052 41.669 52.6861 41.7447C52.867 41.8204 53.031 41.9314 53.1684 42.0713C53.3059 42.2111 53.4141 42.377 53.4866 42.5592C53.5591 42.7414 53.5946 42.9362 53.5909 43.1323C53.583 43.5356 53.4164 43.9195 53.1272 44.2008C52.8381 44.482 52.4497 44.638 52.0463 44.6348Z" fill="white"/>
</g>
<defs>
<clipPath id="clip0">
<rect width="79.9998" height="80" fill="white"/>
</clipPath>
</defs>
</svg>
