<svg width="80" height="80" viewBox="0 0 80 80" fill="none" xmlns="http://www.w3.org/2000/svg">
<path d="M31.0876 39.9624C34.5626 38.0499 37.4251 35.7624 39.6126 33.1874L39.7876 32.9749L39.9626 33.1874C42.1501 35.7624 45.0251 38.0624 48.4876 39.9624L48.6751 34.6374C45.0251 32.1499 42.8876 29.7374 42.3251 28.6624V28.6124V6.32495H37.2501V28.6124V28.6624C36.6876 29.7249 34.6001 32.1374 30.9126 34.6124" fill="#374A68"/>
<path d="M12.4875 71.0626C9.36253 72.5126 7.21253 73.7751 5.67503 74.3126C3.70003 75.0126 1.63753 73.6251 1.45003 71.5501C-1.96247 32.9126 20.9 16.1751 26.85 14.8251C29.525 14.2126 30.7875 15.6876 31.375 17.2251C31.7625 18.2501 31.8625 19.9876 31.5875 21.0376C30.0375 26.9126 31.9375 34.6626 31.3375 42.5751L31.6875 47.7001C31.8 49.3501 32.0625 50.9876 32.3 52.6376C32.4375 53.5751 32.4625 54.5376 32.375 55.4751C32.1625 57.5251 31.5375 60.2251 29.8125 62.7001C28.1625 65.0751 25.6375 66.7001 22.8375 67.4626C20.2625 68.1751 15.95 69.4626 12.4875 71.0626Z" fill="#374A68"/>
<path d="M67.2933 71.0626C70.4183 72.5126 72.5683 73.7751 74.1058 74.3126C76.0808 75.0126 78.1433 73.6251 78.3308 71.5501C81.7433 32.9126 58.8808 16.1751 52.9308 14.8251C50.2558 14.2126 48.9933 15.6876 48.4058 17.2251C48.0183 18.2501 47.9183 19.9876 48.1933 21.0376C49.7433 26.9126 47.8433 34.6626 48.4433 42.5751L48.0933 47.7001C47.9808 49.3501 47.7183 50.9876 47.4808 52.6376C47.3433 53.5751 47.3183 54.5376 47.4058 55.4751C47.6183 57.5251 48.2433 60.2251 49.9683 62.7001C51.6183 65.0751 54.1433 66.7001 56.9433 67.4626C59.5183 68.1751 63.8308 69.4626 67.2933 71.0626Z" fill="#374A68"/>
</svg>
