<svg width="80" height="80" viewBox="0 0 80 80" fill="none" xmlns="http://www.w3.org/2000/svg">
<g clip-path="url(#clip0)">
<path d="M39.0112 44.579C39.1646 44.2723 39.3179 44.119 39.4712 44.119H40.0846C40.2379 44.2723 40.3912 44.2723 40.5446 44.579V45.1923C40.5446 46.1124 40.5446 46.8791 40.6979 47.7991V47.9524C40.8513 48.4124 41.3113 53.4726 41.7713 57.306C41.9246 59.1461 42.078 60.6794 42.2313 61.2928C42.2313 62.3661 42.3846 63.1328 42.3846 63.5928V64.3595V65.4329C42.3846 66.5063 42.8447 68.8063 42.998 69.2663L43.6113 73.2531V74.4798V75.2465V75.5532C43.458 75.7065 43.458 76.0132 43.458 76.1665V76.7799V77.3932C43.3047 77.8532 42.6913 78.9266 43.3047 79.6933C43.6113 80 43.7647 80 44.2247 80H44.378H44.5314H50.8182C51.5849 79.3866 50.9715 78.6199 49.7448 78.4666C49.5915 78.4666 49.5915 78.4666 49.1317 78.3133L49.1315 78.3132C48.8248 78.1599 48.5181 77.8532 48.2115 77.6999C47.5981 77.3932 47.1381 76.9332 46.6781 76.4732C46.2181 73.4064 46.9848 69.8797 47.4448 66.8129C47.9048 64.3595 47.4448 62.6728 47.1381 60.3728V56.846C47.1381 55.1593 47.7514 54.0859 48.0581 52.3992L48.2115 51.0192C48.5181 48.5658 48.6715 44.8857 48.2115 42.5856C48.0581 42.1256 47.9048 41.5122 47.9048 41.0522C47.7514 39.8255 47.2914 38.7522 47.1381 36.6054C46.9848 35.9921 46.9848 35.5321 46.8314 35.0721C46.5247 33.9987 46.8314 33.5387 46.5247 31.6986C46.2181 30.4719 46.2181 28.3252 46.6781 26.9452C46.6781 26.6385 46.8314 26.1785 46.9848 25.8718C47.1381 26.3318 47.2914 27.0985 47.4448 27.5585C47.5981 28.3252 47.5981 28.7852 47.7514 29.7053L48.2115 31.6986C48.6715 32.9253 49.1315 33.9987 49.7448 35.2254L49.7449 35.2254C50.0515 35.6854 50.3582 36.1454 50.6649 36.7588C50.9715 37.2188 51.2782 37.8321 51.5849 38.2922C51.5849 38.4455 52.1982 39.8255 52.1982 39.8255C52.3516 40.1322 52.0449 40.4389 52.0449 40.8989C52.0449 41.0522 51.7382 43.3523 51.8916 43.5056C52.1982 43.5056 52.3516 43.5056 52.5049 43.3523C52.6582 43.3523 52.6582 43.3523 52.6582 43.199V43.0456C52.8116 42.5856 52.6582 42.4323 52.9649 41.9723C52.9649 41.9723 53.1183 43.0456 52.9649 43.8123C52.8116 43.9656 52.8116 44.119 52.8116 44.119C52.6582 44.2723 52.6582 44.4257 52.5049 44.579C52.1982 44.8857 51.7382 45.039 51.8916 45.6524C51.8916 45.8057 51.8916 45.8057 52.0449 45.8057C52.6582 45.499 53.7316 44.7323 54.0383 44.2723C54.4983 43.5056 54.4983 42.7389 54.4983 41.8189C54.345 40.7456 54.0383 39.2122 53.7316 37.2188C53.5783 35.9921 53.2716 33.8454 53.1183 32.9253C52.8116 31.392 52.8116 30.0119 52.3516 28.6319C52.0449 27.8652 51.8916 27.8652 51.7382 26.7918L51.2782 23.4184C51.2782 23.1117 50.9715 22.8051 50.9715 22.4984C50.6649 21.2717 50.8182 21.5784 50.8182 20.3517C50.8182 18.9716 50.3582 17.2849 49.7448 16.3649C48.8248 14.8315 47.2914 14.5248 45.6047 14.2182C45.298 14.2182 44.9914 14.0648 44.6847 13.9115C43.918 13.7582 43.458 13.4515 42.8447 13.1448C42.6913 12.9915 42.538 12.9915 42.3846 12.6848C42.2313 12.2248 42.2313 11.4581 42.2313 10.8447C42.2313 10.2314 42.538 9.77138 42.538 9.15803H42.6913H42.8447C43.1513 9.15803 43.1513 9.15803 43.3047 8.85136C43.458 8.54468 43.6113 8.54468 43.6113 8.23801C43.7647 7.47132 43.7647 7.31798 43.6113 6.70463H43.1513C43.1513 6.09128 43.3047 5.3246 43.1513 4.86458C43.1513 3.33121 41.4646 1.95117 39.7779 1.95117C38.0912 1.95117 36.4045 3.33121 36.4045 4.86458C36.2511 5.3246 36.4045 6.09128 36.4045 6.70463H35.9445C35.7911 7.31798 35.7911 7.47132 35.9445 8.23801C36.0978 8.54468 36.0978 8.69802 36.2511 8.85136C36.4045 9.15803 36.4045 9.15803 36.7112 9.15803H36.8645H37.0178C37.0178 9.77138 37.3245 10.2314 37.3245 10.8447C37.3245 11.4581 37.3245 12.2248 37.1712 12.6848L36.7112 13.1448C36.0978 13.4515 35.4845 13.6048 34.8711 13.9115C34.5644 14.0648 34.2578 14.2182 33.9511 14.2182C32.2644 14.5248 30.731 14.9849 29.811 16.3649C29.0443 17.2849 28.5843 18.8183 28.7376 20.3517C28.8909 21.7317 28.8909 21.2717 28.5843 22.4984C28.4309 22.8051 28.2776 23.2651 28.2776 23.4184L27.8176 26.7918C27.6642 27.7119 27.5109 27.8652 27.2042 28.6319C26.7442 30.0119 26.7442 31.5453 26.4375 32.9253C26.2842 33.8454 26.1309 35.8388 25.8242 37.2188C25.3642 39.0588 25.2108 40.5922 25.0575 41.8189C24.9042 42.7389 25.0575 43.5056 25.5175 44.2723C25.8242 44.7323 26.8976 45.499 27.5109 45.8057C27.6642 45.8057 27.6642 45.8057 27.6642 45.6524C27.9709 45.1923 27.3576 45.039 27.0509 44.579C26.8976 44.4257 26.8976 44.2723 26.7442 44.119C26.5909 43.9656 26.5909 43.9656 26.5909 43.8123C26.4375 43.0456 26.5909 41.9723 26.5909 41.9723C26.8976 42.4323 26.7442 42.4323 26.8976 43.0456V43.199C27.0509 43.199 27.0509 43.3523 27.0509 43.3523C27.3576 43.659 27.5109 43.659 27.6642 43.5056C27.8176 43.5056 27.5109 41.2056 27.5109 40.8989C27.6642 40.4389 27.3576 40.1322 27.3576 39.8255L27.9709 38.2922C28.2776 37.8321 28.5843 37.2188 28.8909 36.7588L28.891 36.7587C29.1976 36.2987 29.5043 35.8387 29.811 35.2254C30.5777 33.9987 30.8843 32.9253 31.3443 31.6986L31.8044 29.7053C31.9577 28.9386 31.9577 28.3252 32.111 27.5585C32.2644 27.0985 32.4177 26.3318 32.571 25.8718C32.7244 26.1785 32.7244 26.6385 32.8777 26.9452C33.3377 28.1719 33.3377 30.3186 33.0311 31.6986C32.571 33.692 33.0311 34.152 32.7244 35.0721C32.571 35.5321 32.4177 36.1454 32.4177 36.6054C32.4177 38.7522 31.8044 39.8255 31.651 41.0522C31.4977 41.5122 31.3443 42.1256 31.3443 42.5856C31.0377 45.039 31.0377 48.7191 31.3443 51.0192L31.4977 52.3992C31.651 53.9326 32.4177 55.0059 32.4177 56.846C32.4177 57.9194 32.571 59.2994 32.4177 60.3728C32.2644 62.6728 31.8044 64.3595 32.111 66.8129C32.571 69.8797 33.3377 73.4064 32.8777 76.4732C32.2644 76.7799 31.9577 77.3932 31.3443 77.6999C31.0377 78.0066 30.731 78.1599 30.4243 78.3132C29.9643 78.4666 29.811 78.4666 29.811 78.4666C28.5843 78.6199 27.9709 79.3866 28.7376 80H35.1778H35.3311C35.7911 80 35.9445 80 36.2511 79.6933C36.8645 78.9266 36.2511 77.8532 36.0978 77.3932V76.1665C35.9445 76.0132 35.9445 75.7065 35.9445 75.5532V73.2531L36.5578 69.2663C36.5578 68.8063 37.0178 66.5063 37.1712 65.4329V63.5928C37.1712 62.9795 37.1712 62.3661 37.3245 61.2928C37.4778 60.5261 37.6312 58.9927 37.7845 57.306C38.2445 53.4726 38.8579 48.4124 38.8579 47.9524L39.0112 45.1923V44.579Z" fill="#374A68"/>
</g>
<defs>
<clipPath id="clip0">
<rect width="30.2439" height="80" fill="white" transform="translate(25)"/>
</clipPath>
</defs>
</svg>
