<svg width="80" height="80" viewBox="0 0 80 80" fill="none" xmlns="http://www.w3.org/2000/svg">
<path d="M79.8434 26.2595C79.8434 28.411 79.3494 30.4191 78.3932 32.1881C78.3135 31.8853 78.2338 31.5825 78.1223 31.2797C76.8632 27.8053 73.6279 25.351 69.8508 24.8729C68.9583 22.9923 66.6633 21.9086 63.5236 21.9086C57.0052 21.9086 53.7062 25.7335 52.463 34.6585C51.8096 39.5194 49.0843 44.1731 46.9328 47.2171C45.9765 48.5559 45.4824 50.1496 45.4824 51.839V66.918C45.4824 67.8105 44.5587 68.7167 43.682 68.7167H36.2974C35.4208 68.7167 34.5016 67.8105 34.5016 66.918V51.839C34.5016 50.1496 34.0076 48.5559 33.0672 47.2171C30.8998 44.1731 28.1904 39.5194 27.5211 34.6585C26.2939 25.7335 22.9788 21.9086 16.4765 21.9086C13.3367 21.9086 11.0418 22.9923 10.1333 24.8729C6.34021 25.367 3.12092 27.8213 1.87776 31.2638C1.76619 31.5507 1.67057 31.8535 1.60685 32.1563C0.634694 30.3872 0.156494 28.411 0.156494 26.2595C0.156494 21.8448 1.76619 17.8764 4.69871 15.1033C7.7109 12.2505 11.8705 10.8002 16.4286 11.0552C24.6364 11.5014 29.0032 15.5495 32.5254 18.8008C35.0913 21.1914 37.1313 23.072 40 23.072C42.8528 23.072 44.8928 21.1914 47.4746 18.8008C50.9809 15.5495 55.3636 11.5014 63.5714 11.0552C63.9061 11.0393 64.2567 11.0233 64.5914 11.0233C68.7351 11.0233 72.4963 12.4576 75.2854 15.1033C78.2179 17.8764 79.8434 21.8448 79.8434 26.2595Z" fill="#374A68"/>
<path d="M18.7237 31.1042C19.9986 32.5546 20.3174 34.2917 19.6481 36.1405C18.5643 39.1208 15.09 41.8142 11.6794 41.8142C10.9941 41.8142 10.3088 41.7026 9.63935 41.4635C7.75874 40.7782 6.22882 39.4873 5.32038 37.798C4.38003 36.0607 4.22069 34.1324 4.87408 32.3634C6.16501 28.7775 10.4362 27.0243 14.3568 28.4427C16.349 29.1599 17.7834 30.0365 18.7237 31.1042ZM74.6639 37.798C73.7555 39.4873 72.2255 40.7782 70.3609 41.4635C69.6914 41.7026 69.0061 41.8142 68.3049 41.8142C64.8943 41.8142 61.4359 39.1208 60.3521 36.1405C59.6828 34.2917 60.0016 32.5546 61.2765 31.1042C62.2168 30.0365 63.6352 29.1599 65.6274 28.4427C69.564 27.0083 73.8192 28.7775 75.1261 32.3634C75.7636 34.1324 75.6042 36.0607 74.6639 37.798Z" fill="#374A68"/>
</svg>
