<svg width="48" height="48" viewBox="0 0 48 48" fill="none" xmlns="http://www.w3.org/2000/svg">
<path d="M12.9293 8.99319C13.9615 6.19148 16.6739 3.94894 18.4406 2.72794C18.7892 2.46742 19.1858 2.20633 19.6247 1.96457C19.6905 1.92535 19.7498 1.89061 19.8019 1.86047L19.7938 1.87347C20.9524 1.26379 22.3871 0.799249 24.0001 0.820266C25.4138 0.838685 26.9546 1.30095 28.5892 2.20436C32.1167 4.11242 36.091 7.94709 35.2935 12.9309C34.1048 20.3609 29.4982 26.4534 25.7833 31.3571C22.0683 36.2609 15.3814 46.0683 15.2328 47.8515L12.4094 43.245L7.2085 41.4618C11.2678 34.8508 15.2777 30.8121 18.2941 27.774C19.1424 26.9196 19.9122 26.1443 20.5823 25.4132C24.2819 21.3773 29.4826 15.0473 29.0701 8.16196C25.7936 7.50111 22.0476 7.1979 18.6135 8.11026C18.6411 11.174 19.2731 14.5472 20.5821 16.7946C21.2373 17.9195 21.82 18.8776 22.838 20.1376L18.0005 25.3501C14.9641 20.7388 11.2203 13.6318 12.9293 8.99319Z" fill="#384C6C"/>
<path d="M35.5905 43.1708L40.7914 41.6105C38.5371 37.3605 35.299 33.9053 31.4615 29.8104L31.4551 29.8036C31.1003 29.425 30.7403 29.0409 30.3755 28.6501L25.163 35.5876C28.0522 39.9101 30.5604 44.0669 32.6185 48.0002L35.5905 43.1708Z" fill="#384C6C"/>
</svg>
