<svg width="28" height="28" viewBox="0 0 28 28" fill="none" xmlns="http://www.w3.org/2000/svg">
<path fill-rule="evenodd" clip-rule="evenodd" d="M18.6403 0.976883C19.2208 1.44047 19.7635 1.87379 19.8493 3.46786C19.8552 3.57794 19.8181 3.63838 19.763 3.72824C19.6321 3.94168 19.3995 4.32109 19.3995 5.92585C19.3995 6.04232 19.4226 6.15189 19.4432 6.24956C19.4976 6.50721 19.5345 6.68197 19.0831 6.68197C18.9319 6.68197 18.8583 6.85065 18.7729 7.04677C18.7148 7.18005 18.6512 7.326 18.5539 7.4403C18.2685 7.77576 17.9029 7.99248 17.7103 8.09429C17.3112 8.30523 16.8101 8.13025 16.2734 7.71038C16.1039 7.57783 15.6636 8.06546 15.5037 8.4873C15.4197 8.70898 15.6277 9.0124 16.1558 9.78272C16.2146 9.86845 16.2773 9.95996 16.3441 10.0578C17.1253 11.2028 17.9849 11.7002 18.5537 12.0293C18.5968 12.0542 18.6382 12.0782 18.6777 12.1014C19.2399 12.4309 19.0486 13.467 17.7103 14.6988C19.1109 15.7766 21.5543 17.8835 21.7224 20.147C22.0021 23.9149 20.1153 25.5607 17.7103 26.9945C16.3441 27.809 11.5267 28.7271 9.96351 26.9945C8.49169 25.3633 8.84298 23.2684 10.3059 21.0513C10.3645 20.9624 10.6762 20.4413 10.8471 20.147C10.8726 20.1032 10.8972 20.0608 10.9212 20.0196C11.3335 19.3105 11.5413 18.9531 11.9789 17.8835C12.1656 17.1137 11.9555 16.8633 10.6483 16.6785C9.34102 16.4938 5.32593 15.6007 5.2948 14.369C5.26975 13.3776 5.50086 13.2283 6.03495 12.8832C6.16445 12.7995 6.31175 12.7044 6.47754 12.5829C8.03337 11.443 12.1325 7.65938 12.9204 6.45489C12.9783 6.36627 13.0493 6.28271 13.1244 6.19438C13.4873 5.76719 13.9449 5.2286 13.4806 3.46786C13.1855 2.34844 13.9543 0.939038 14.8075 0.32685C15.5037 -0.17267 17.2994 -0.187372 18.5539 0.907742C18.5828 0.930959 18.6116 0.953958 18.6403 0.976883ZM11.7355 11.9227L11.7394 11.9429C11.89 12.7232 12.3487 15.0995 12.1745 15.4605C11.3511 15.2863 9.40438 14.0567 9.08234 13.76L11.7355 11.9227Z" fill="#374A68"/>
<circle cx="12.4116" cy="3.57326" r="1.65871" fill="#374A68"/>
</svg>
