<svg width="48" height="48" viewBox="0 0 48 48" fill="none" xmlns="http://www.w3.org/2000/svg">
<path d="M7.4999 12C6.3401 12 5.3999 12.9402 5.3999 14.1C5.3999 15.2598 6.3401 16.2 7.4999 16.2H33.2999C34.4597 16.2 35.3999 15.2598 35.3999 14.1C35.3999 12.9402 34.4597 12 33.2999 12H7.4999Z" fill="#384C6C"/>
<path d="M5.3999 23.1C5.3999 21.9402 6.3401 21 7.4999 21H33.2999C34.4597 21 35.3999 21.9402 35.3999 23.1C35.3999 24.2598 34.4597 25.2 33.2999 25.2H7.4999C6.3401 25.2 5.3999 24.2598 5.3999 23.1Z" fill="#384C6C"/>
<path d="M5.3999 32.1C5.3999 30.9402 6.3401 30 7.4999 30H33.2999C34.4597 30 35.3999 30.9402 35.3999 32.1C35.3999 33.2598 34.4597 34.2 33.2999 34.2H7.4999C6.3401 34.2 5.3999 33.2598 5.3999 32.1Z" fill="#384C6C"/>
<ellipse cx="34.6069" cy="32.3288" rx="12" ry="12" fill="white"/>
<path d="M45.0695 32.3288C45.0695 38.1071 40.3853 42.7913 34.607 42.7913C28.8287 42.7913 24.1445 38.1071 24.1445 32.3288C24.1445 26.5505 28.8287 21.8663 34.607 21.8663C40.3853 21.8663 45.0695 26.5505 45.0695 32.3288ZM33.3968 37.8686L41.1593 30.1061C41.4229 29.8425 41.4229 29.4151 41.1593 29.1515L40.2048 28.1969C39.9412 27.9333 39.5138 27.9333 39.2501 28.1969L32.9195 34.5275L29.9639 31.5719C29.7003 31.3083 29.2729 31.3083 29.0093 31.5719L28.0547 32.5265C27.7911 32.7901 27.7911 33.2175 28.0547 33.481L32.4422 37.8685C32.7059 38.1322 33.1332 38.1322 33.3968 37.8686Z" fill="#384C6C"/>
</svg>
