<svg width="80" height="80" viewBox="0 0 80 80" fill="none" xmlns="http://www.w3.org/2000/svg">
<path d="M56.95 15.4999C56.325 15.3374 42.5625 16.9124 39.45 18.3249C36.025 19.8999 33.9625 27.4999 33.5875 28.9999C33.5141 29.274 33.5361 29.5649 33.65 29.8249C35.575 34.0624 39.125 36.4749 44.5 37.1999C44.6871 37.2254 44.8776 37.2081 45.0571 37.1494C45.2366 37.0907 45.4005 36.9921 45.5365 36.861C45.6724 36.7299 45.7768 36.5696 45.842 36.3923C45.9071 36.2151 45.9312 36.0253 45.9125 35.8374C45.6538 33.0185 46.0827 30.179 47.1625 27.5624C48.4125 24.9499 53.825 23.9749 55.9125 23.8124C56.7855 23.5867 57.5741 23.1121 58.1822 22.4463C58.7903 21.7805 59.1917 20.9522 59.3375 20.0624C59.4896 19.6064 59.5482 19.1243 59.5098 18.6452C59.4713 18.166 59.3366 17.6995 59.1137 17.2735C58.8909 16.8476 58.5844 16.471 58.2126 16.1663C57.8408 15.8615 57.4114 15.6349 56.95 15.4999Z" fill="#374A68"/>
<path d="M59.8376 38.1375C59.7858 38.0467 59.7228 37.9627 59.6501 37.8875C58.1606 36.4416 56.2826 35.4603 54.2452 35.063C52.2077 34.6657 50.0987 34.8697 48.1751 35.65C44.6791 34.8378 41.3506 33.4252 38.3376 31.475C33.5876 28.425 26.5751 24.8625 20.4751 29.0875C14.6501 33.1125 13.7251 47.8375 16.5501 53.4C19.1751 58.65 27.1126 67.9875 34.5501 71.15C39.0126 73.0375 50.5751 76.9625 55.0501 76.5375C59.5251 76.1125 64.8251 67.7875 65.0501 57.8625C65.2251 47.7875 60.0626 38.525 59.8376 38.1375Z" fill="#374A68"/>
<path fill-rule="evenodd" clip-rule="evenodd" d="M45.8567 35.0158C46.62 35.2568 47.3933 35.4684 48.175 35.65C50.0986 34.8697 52.2076 34.6657 54.2451 35.063C55.375 35.2833 56.4558 35.6833 57.4485 36.2424C57.3979 35.716 57.2992 34.9737 57.1083 34.1315C58.2065 33.3785 60.7137 31.6474 61.35 31.0624C62.125 30.3499 62.15 28.4624 60.9125 25.8124C60.7896 25.5432 60.5751 25.3264 60.3073 25.2005C60.0395 25.0747 59.7357 25.0479 59.45 25.1249L52.2588 27.0628C51.2249 26.442 50.1418 25.9739 49.1741 25.6506C48.2682 26.1585 47.5328 26.7886 47.1626 27.5624C46.1877 29.9249 45.7433 32.4692 45.8567 35.0158Z" fill="#374A68"/>
<path fill-rule="evenodd" clip-rule="evenodd" d="M20.5667 59.4286C23.0198 62.4968 26.1675 65.7205 29.4808 68.1656C29.1837 69.1803 28.7326 70.7259 28.0501 73.1126C27.6251 74.6126 24.6376 74.3251 23.1251 73.9876C22.2022 73.7798 21.3506 73.3315 20.6569 72.6883C19.9631 72.045 19.4519 71.2297 19.1751 70.3251C19.166 70.2921 19.1578 70.2638 19.1512 70.2351C19.0685 69.8783 19.2191 69.4676 20.5667 59.4286Z" fill="#374A68"/>
<path d="M55.5265 54.5024C53.947 55.003 52.2551 55.0285 50.6611 54.5757C50.8863 56.8752 50.3286 59.1834 49.0784 61.1264C48.865 61.4198 48.5504 61.6237 48.1954 61.6985C47.8404 61.7733 47.4702 61.7138 47.1566 61.5314C46.843 61.3491 46.6081 61.0569 46.4975 60.7113C46.3869 60.3658 46.4083 59.9915 46.5577 59.6609C48.9611 55.6455 47.4957 52.5533 45.2388 48.1715C43.8466 49.4318 41.9414 51.6154 42.9087 53.5352C43.0676 53.8813 43.0856 54.2757 42.9588 54.6348C42.832 54.9939 42.5704 55.2896 42.2294 55.4591C41.8884 55.6287 41.4947 55.6588 41.1319 55.5432C40.769 55.4275 40.4654 55.1751 40.2854 54.8395C38.2044 50.6628 42.132 46.8379 44.0664 45.3284C43.2311 41.8259 45.85 35 45.85 35C45.85 35 46.9755 35.0205 47.5249 35.1784C48.0743 35.3364 48.4 35.55 48.4 35.55C48.4 35.55 46.2646 43.6285 46.9974 45.2259C48.078 47.1664 49.0563 49.1622 49.9284 51.2051C51.3982 51.9393 53.0814 52.1263 54.6766 51.7326C55.0231 51.6817 55.3764 51.7566 55.6725 51.9437C55.9686 52.1308 56.1879 52.4178 56.2907 52.7526C56.3934 53.0875 56.3729 53.448 56.2327 53.769C56.0925 54.09 55.842 54.3502 55.5265 54.5024Z" fill="#374A68"/>
<path d="M29.6086 54.0509C29.8959 52.6868 29.9721 51.2993 29.8338 49.9517C36.1221 48.1941 33.4255 44.1388 31.6235 45.7765C30.879 46.4479 30.009 46.9028 29.1008 47.0955C28.5503 45.7918 27.8298 44.4976 26.9426 43.4759C25.9868 44.0287 25.2393 44.3092 24.2875 45.0116C24.3834 45.3413 24.7443 45.5996 25.6127 46.7432C28.9287 51.5258 25.6083 54.5552 27.7563 55.309C27.9387 55.3761 28.1357 55.3957 28.3337 55.3666C28.5317 55.3375 28.7257 55.2603 28.9022 55.1404C29.0788 55.0205 29.2335 54.8608 29.3555 54.6726C29.4775 54.4844 29.5639 54.2722 29.6086 54.0509Z" fill="#374A68"/>
<path fill-rule="evenodd" clip-rule="evenodd" d="M36.0375 31.5376C35.225 39.1876 27.6125 43.9751 22.9875 45.9251C21.608 46.5639 20.4027 47.5255 19.4736 48.7288C18.5445 49.932 17.919 51.3414 17.65 52.8376L17.3625 54.8751C17.05 54.3626 16.7625 53.8626 16.5375 53.4001C15.1147 50.5987 14.6432 45.4733 15.2696 40.5611C13.9916 40.8851 12.6897 41.1114 11.3751 41.2375C11.0528 41.2733 10.7293 41.1825 10.4727 40.9843C10.4727 40.9843 9.60638 40 9.50002 38.8308C9.39365 37.6616 9.5757 36.6971 9.70641 36.4605C9.83712 36.2239 10.041 36.036 10.2876 35.925C11.7056 35.3252 12.8664 34.8153 13.8222 34.3856C12.8754 33.6197 12.0666 32.7519 11.7249 32.3624C11.5588 32.1762 11.4521 31.9446 11.4187 31.6973C11.4187 31.6973 11.2002 30.694 11.7248 29.6719C12.355 28.4442 13.3072 28.0176 13.3072 28.0176C13.5305 27.897 13.7852 27.8472 14.0374 27.8749L20.5749 28.8749C20.6266 28.8831 20.6776 28.8945 20.7276 28.909C25.9236 25.5098 31.7394 27.6316 36.25 30.2126C36.1529 30.6497 36.0819 31.0921 36.0375 31.5376Z" fill="#374A68"/>
<path fill-rule="evenodd" clip-rule="evenodd" d="M39.6625 4.52502L40.9125 7.70002C41.0236 7.7215 41.1452 7.74642 41.2761 7.77513L42.2748 4.61248C42.3595 4.35142 42.5279 3.95588 42.7538 3.8C43.6544 3.17858 44.4999 3.00013 45.9999 3C47.5642 2.99986 48.9999 3.49994 49.9146 4.73296C49.9885 4.96424 49.963 5.06774 49.9285 5.20722C49.9232 5.22875 49.9177 5.25114 49.9123 5.27498L48.3039 11.4163C49.4474 12.5971 50.3552 14.1283 50.7081 16.1081C46.4263 16.6671 41.2187 17.5222 39.45 18.3249C36.1216 19.8555 34.0799 27.0759 33.6233 28.8587C33.1427 28.6404 32.6531 28.4355 32.1562 28.2485L30.1374 18.975C30.0126 16.4873 29.9836 14.9258 29.9649 13.9135L29.9595 13.625C31.3148 11.2735 32.428 10.0221 33.2875 9.37502L31.8625 5.42502C31.7943 5.2363 31.7725 5.03392 31.799 4.835C31.8255 4.63608 31.8995 4.44646 32.0147 4.28217C32.13 4.11788 32.2831 3.98376 32.4611 3.89113C32.4611 3.89113 33.9999 3 35.75 3C38.1248 3 39.1841 3.94922 39.1841 3.94922C39.3987 4.08778 39.5656 4.28872 39.6625 4.52502Z" fill="#374A68"/>
<path fill-rule="evenodd" clip-rule="evenodd" d="M33.9111 29L30.1375 18.8841C30.0127 16.3717 29.9837 14.7947 29.965 13.7724C29.9349 12.1337 29.931 11.9197 29.6 11.5621C28.025 9.71897 24.0375 9.13826 20.4375 11.8777C19.873 12.3031 19.8935 12.8605 19.9323 13.9208C19.9511 14.4337 19.9742 15.0642 19.9375 15.8543C17.9153 17.0844 16.5636 17.8285 15.6516 18.3306C14.1394 19.163 13.8357 19.3303 13.6875 19.9445C13.5378 20.8895 13.5378 21.8525 13.6875 22.7975C13.975 24.7795 15.6625 25.7263 16.575 25.4612L20.625 24.325C20.4957 25.8089 20.2707 27.541 20.0914 28.8076L20.5749 28.8823C20.6266 28.8905 20.6776 28.9021 20.7276 28.9167C25.0634 26.0521 29.8307 27.07 33.9111 29Z" fill="#374A68"/>
</svg>
