<svg width="48" height="48" viewBox="0 0 48 48" fill="none" xmlns="http://www.w3.org/2000/svg">
<g clip-path="url(#clip0_677_6665)">
<path d="M22.228 4.03575C22.7232 3.6005 23.3603 3.36108 24.0196 3.36249C24.6789 3.36108 25.316 3.6005 25.8113 4.03575C26.3065 4.471 26.6257 5.07212 26.7089 5.72616C26.7922 6.38019 26.6337 7.04211 26.2633 7.58752C25.8928 8.13293 25.336 8.52429 24.6973 8.68805V10.8175C24.6973 10.8827 24.6879 10.947 24.6699 11.0085C27.8842 11.1326 30.8061 12.3965 33.0429 14.4076C33.067 14.372 33.0944 14.3388 33.1249 14.3083L34.6304 12.8028C34.3213 12.2879 34.1938 11.6842 34.2684 11.0883C34.343 10.4924 34.6154 9.93875 35.0419 9.51595C35.2936 9.26397 35.5924 9.06405 35.9214 8.9276C36.2504 8.79116 36.603 8.72088 36.9591 8.72076C37.3152 8.72065 37.6679 8.79072 37.997 8.92695C38.326 9.06319 38.625 9.26293 38.8768 9.51475C39.1286 9.76658 39.3284 10.0656 39.4646 10.3946C39.6009 10.7237 39.6709 11.0763 39.6708 11.4325C39.6707 11.7886 39.6004 12.1412 39.464 12.4702C39.3275 12.7991 39.1276 13.098 38.8756 13.3497C38.4528 13.7762 37.8992 14.0485 37.3033 14.1231C36.7074 14.1977 36.1037 14.0703 35.5888 13.7612L34.0832 15.2667C34.0538 15.2961 34.0219 15.3226 33.9878 15.3461C36.0173 17.5731 37.3009 20.4917 37.4439 23.7068C37.4865 23.6985 37.5301 23.6942 37.5741 23.6942H39.7035C39.8529 23.1138 40.1907 22.5993 40.6638 22.2314C41.137 21.8634 41.7188 21.6629 42.3182 21.6611C42.8243 21.6602 43.3206 21.8013 43.7505 22.0684C44.1805 22.3354 44.527 22.7177 44.7506 23.1718C44.9742 23.6258 45.066 24.1335 45.0156 24.6371C44.9652 25.1407 44.7745 25.6201 44.4653 26.0209C44.1561 26.4216 43.7408 26.7276 43.2664 26.9041C42.792 27.0806 42.2777 27.1205 41.7817 27.0194C41.2858 26.9182 40.8282 26.68 40.4608 26.3319C40.0935 25.9837 39.8311 25.5395 39.7035 25.0497H37.5741C37.528 25.0497 37.4823 25.045 37.4377 25.0358C37.2651 28.2409 35.9586 31.1446 33.9122 33.3529C33.9753 33.3851 34.033 33.427 34.0832 33.4772L35.5946 34.9886C36.1129 34.6963 36.7114 34.578 37.3019 34.651C37.8925 34.724 38.4441 34.9845 38.8756 35.3942C39.2531 35.7739 39.5098 36.2567 39.6134 36.782C39.7171 37.3072 39.663 37.8513 39.4581 38.3459C39.2532 38.8405 38.9065 39.2634 38.4617 39.5614C38.0169 39.8594 37.494 40.0191 36.9586 40.0205C36.4806 40.0233 36.0104 39.8989 35.5962 39.6601C35.1821 39.4212 34.839 39.0765 34.602 38.6614C34.3651 38.2462 34.2428 37.7754 34.2478 37.2974C34.2528 36.8194 34.3848 36.3512 34.6304 35.9411L33.1249 34.4356C33.0715 34.3822 33.0274 34.3203 32.9945 34.2525C30.7522 36.2489 27.8302 37.4983 24.619 37.6101C24.67 37.7067 24.6973 37.8152 24.6973 37.9264V40.0559C25.3362 40.2208 25.893 40.6131 26.2633 41.1592C26.6336 41.7053 26.792 42.3677 26.7089 43.0223C26.6258 43.6768 26.3068 44.2786 25.8117 44.7147C25.3166 45.1509 24.6794 45.3916 24.0196 45.3916C23.3598 45.3916 22.7226 45.1509 22.2276 44.7147C21.7325 44.2786 21.4135 43.6768 21.3303 43.0223C21.2472 42.3677 21.4056 41.7053 21.7759 41.1592C22.1463 40.6131 22.703 40.2208 23.3419 40.0559V37.9264C23.3419 37.8109 23.3714 37.6985 23.4262 37.5991C20.2186 37.4278 17.3125 36.1209 15.1027 34.0731C15.0942 34.1219 15.0803 34.1697 15.0612 34.2157C15.0272 34.2979 14.9773 34.3726 14.9143 34.4356L13.4088 35.9411C13.718 36.456 13.8454 37.0597 13.7708 37.6556C13.6962 38.2515 13.4238 38.8052 12.9973 39.228C12.4888 39.7358 11.7995 40.021 11.0808 40.0207C10.3622 40.0205 9.67299 39.7349 9.16482 39.2267C8.65664 38.7186 8.37105 38.0294 8.37083 37.3107C8.3706 36.5921 8.65576 35.9027 9.16362 35.3942C9.59514 34.9845 10.1467 34.724 10.7373 34.651C11.3279 34.578 11.9263 34.6963 12.4446 34.9886L13.956 33.4772C14.0189 33.4143 14.0936 33.3644 14.1758 33.3303C14.2232 33.3107 14.2725 33.2966 14.3229 33.2881C12.2881 31.0632 10.9992 28.1448 10.8516 24.9287C10.7389 25.0069 10.6042 25.0497 10.4651 25.0497H8.33571C8.17076 25.6885 7.77847 26.2453 7.23237 26.6156C6.68628 26.9859 6.02387 27.1444 5.36931 27.0612C4.71476 26.9781 4.11299 26.6591 3.67682 26.164C3.24064 25.6689 3 25.0318 3 24.372C3 23.7121 3.24064 23.075 3.67682 22.5799C4.11299 22.0848 4.71476 21.7658 5.36931 21.6827C6.02387 21.5995 6.68628 21.758 7.23237 22.1283C7.77847 22.4986 8.17076 23.0554 8.33571 23.6942H10.4651C10.6021 23.6942 10.7348 23.7357 10.8465 23.8117C10.9644 20.5968 12.2226 17.6731 14.2285 15.4329C14.1267 15.4003 14.033 15.3437 13.956 15.2667L12.4505 13.7612C12.0366 14.0096 11.5633 14.1418 11.0806 14.1439C10.6348 14.1439 10.1959 14.0339 9.8028 13.8238C9.40965 13.6136 9.07439 13.3098 8.82672 12.9391C8.57905 12.5685 8.42661 12.1425 8.38291 11.6988C8.3392 11.2552 8.40557 10.8076 8.57615 10.3957C8.74672 9.98389 9.01623 9.62045 9.36081 9.33763C9.70539 9.0548 10.1144 8.86132 10.5516 8.77431C10.9888 8.68731 11.4408 8.70947 11.8674 8.83884C12.294 8.9682 12.6821 9.20077 12.9973 9.51595C13.4238 9.93876 13.6962 10.4924 13.7708 11.0883C13.8454 11.6842 13.7179 12.2879 13.4088 12.8028L14.9143 14.3083C14.9881 14.3821 15.0432 14.4712 15.0763 14.5681C17.2771 12.5176 20.1737 11.2041 23.373 11.0206C23.3526 10.9554 23.3419 10.887 23.3419 10.8175V8.68805C22.7032 8.52429 22.1464 8.13293 21.776 7.58752C21.4055 7.04211 21.2471 6.38019 21.3303 5.72616C21.4135 5.07212 21.7327 4.471 22.228 4.03575Z" fill="#384C6C"/>
<path d="M31.2281 26.7809C29.8889 26.7809 29.3601 25.4603 28.9352 24.399C28.7933 23.9461 28.5728 23.5217 28.2837 23.1453C28.059 23.5463 27.8685 23.9656 27.7142 24.3986C27.2893 25.4599 26.7604 26.7809 25.4208 26.7809C24.0825 26.7809 23.554 25.4599 23.1296 24.3982C22.9881 23.9456 22.7682 23.5213 22.4799 23.1448C22.2581 23.5467 22.0691 23.9658 21.9148 24.3982C21.4904 25.4599 20.9624 26.7809 19.6241 26.7809C18.2857 26.7809 17.7577 25.4599 17.3333 24.3982C17.1918 23.9456 16.9719 23.5213 16.6836 23.1448C16.566 23.145 16.4495 23.1217 16.341 23.0763C16.2325 23.0308 16.1341 22.9642 16.0517 22.8803C15.9693 22.7964 15.9044 22.6969 15.8609 22.5875C15.8175 22.4782 15.7962 22.3614 15.7985 22.2437C15.8036 22.0017 15.9037 21.7715 16.0774 21.6028C16.251 21.4342 16.4841 21.3407 16.7261 21.3427C18.0644 21.3427 18.5924 22.6637 19.0168 23.7255C19.1584 24.1781 19.3783 24.6023 19.6665 24.9788C19.888 24.5768 20.0768 24.1577 20.2312 23.7255C20.6557 22.6637 21.1837 21.3427 22.522 21.3427C23.8603 21.3427 24.3887 22.6637 24.8131 23.7255C24.9546 24.1781 25.1746 24.6023 25.4628 24.9788C25.6868 24.5772 25.877 24.1577 26.0315 23.7246C26.4564 22.6633 26.9853 21.3427 28.3245 21.3427C29.6641 21.3427 30.193 22.6637 30.6178 23.725C30.7598 24.1778 30.9803 24.602 31.2693 24.9784C31.3869 24.9782 31.5035 25.0015 31.612 25.0469C31.7205 25.0923 31.8189 25.1589 31.9014 25.2428C31.9839 25.3267 32.0488 25.4263 32.0923 25.5356C32.1358 25.6449 32.1571 25.7618 32.1549 25.8794C32.1501 26.1214 32.0502 26.3518 31.8767 26.5205C31.7032 26.6893 31.4702 26.7829 31.2281 26.7809Z" fill="white"/>
</g>
<defs>
<clipPath id="clip0_677_6665">
<rect width="42.6001" height="42.6001" fill="white" transform="translate(3 3)"/>
</clipPath>
</defs>
</svg>
