<svg width="80" height="80" viewBox="0 0 80 80" fill="none" xmlns="http://www.w3.org/2000/svg">
<g clip-path="url(#clip0)">
<path d="M32.3913 45.9612C31.9548 48.9093 31.5863 51.6863 31.3889 54.9239L31.3713 55.1037C31.3153 56.191 31.4893 57.2778 31.882 58.2932C32.2746 59.3086 32.8771 60.2297 33.65 60.9964C34.423 61.7631 35.349 62.358 36.3676 62.7424C37.3861 63.1268 38.4743 63.2919 39.5611 63.227C40.6478 63.1621 41.7087 62.8687 42.6742 62.3658C43.6398 61.8629 44.4885 61.162 45.1647 60.3088C45.8409 59.4556 46.3295 58.4693 46.5985 57.4144C46.8675 56.3595 46.911 55.2597 46.7259 54.1869C46.3135 51.8837 44.5236 45.7375 44.5236 45.7375C38.8512 28.3019 48.4544 13.0767 56.5879 6.09253C50.5 9 47.0802 11.8196 42.6742 17.1972C40.0858 19.6315 36 26.5 34.5 34C32.9965 41.5175 32.3913 45.1408 32.3913 45.9612Z" fill="#374A68"/>
<path fill-rule="evenodd" clip-rule="evenodd" d="M79.6192 40.5168C79.6192 39.9717 79.1773 39.5297 78.6322 39.5297H52.9952C48.1269 40.766 48.7594 44.6752 48.9776 46.0237C48.9849 46.0686 48.9917 46.1106 48.9978 46.1497C49.1031 46.8627 49.5251 48.2017 49.9643 49.5951C50.4128 51.0181 50.8792 52.4979 51.0444 53.4255C51.3503 55.1706 51.2707 56.9615 50.8111 58.6725C50.3516 60.3836 49.5231 61.9733 48.384 63.3302C47.2449 64.6872 45.8226 65.7784 44.217 66.5274C42.6115 67.2763 40.8614 67.6649 39.0897 67.6658C37.4375 67.6665 35.8025 67.3289 34.2857 66.6739C32.7688 66.0189 31.402 65.0603 30.2696 63.8572C29.1371 62.654 28.2629 61.2318 27.7008 59.6781C27.1388 58.1244 26.9007 56.472 27.0013 54.8228L27.0101 54.6583C27.2228 51.1048 27.644 48.1041 28.0454 45.3117C28.3048 43.6266 27.4291 40.5919 23.5277 39.5297H1.63991C1.09476 39.5297 0.652832 39.9717 0.652832 40.5168V70.6228C0.652832 72.5878 2.08828 74.2175 3.96778 74.5206H76.3043C78.1838 74.2175 79.6192 72.5878 79.6192 70.6228V40.5168Z" fill="#374A68"/>
</g>
<defs>
<clipPath id="clip0">
<rect width="80" height="68.5714" fill="white" transform="translate(0 6)"/>
</clipPath>
</defs>
</svg>
