<svg width="48" height="48" viewBox="0 0 48 48" fill="none" xmlns="http://www.w3.org/2000/svg">
<path d="M23.7203 13.4939C23.7618 13.4958 23.8034 13.4973 23.8451 13.4984C23.8966 13.4997 23.9482 13.5003 24 13.5003C24.0381 13.5003 24.0761 13.5 24.114 13.4993C24.1663 13.4983 24.2184 13.4966 24.2704 13.4943C27.4586 13.353 30 10.7234 30 7.50035C30 4.18665 27.3137 1.50037 24 1.50037C20.6863 1.50037 18 4.18665 18 7.50035C18 10.7203 20.5365 13.3479 23.7203 13.4939Z" fill="#384C6C"/>
<path d="M40.8087 29.9925C43.9789 29.8318 46.5 27.2104 46.5 24.0003C46.5 20.6866 43.8137 18.0003 40.5 18.0003C37.1863 18.0003 34.5 20.6866 34.5 24.0003C34.5 27.2104 37.021 29.8318 40.1912 29.9925C40.2935 29.9976 40.3964 30.0003 40.5 30.0003L40.5194 30.0002C40.6164 29.9999 40.7129 29.9973 40.8087 29.9925Z" fill="#384C6C"/>
<path d="M13.5 24.0003C13.5 27.2178 10.9674 29.8437 7.78701 29.9935C7.74308 29.9956 7.69902 29.9972 7.65484 29.9983C7.60339 29.9996 7.55177 30.0003 7.49999 30.0003C7.45859 30.0003 7.41728 29.9999 7.37608 29.999C7.32711 29.998 7.27828 29.9964 7.2296 29.9943C4.04139 29.8529 1.5 27.2234 1.5 24.0003C1.5 20.6866 4.18628 18.0003 7.49998 18.0003C10.8137 18.0003 13.5 20.6866 13.5 24.0003Z" fill="#384C6C"/>
<path d="M24 37.5002C26.0711 37.5002 27.75 35.8213 27.75 33.7502C27.75 31.6792 26.0711 30.0002 24 30.0002C21.9289 30.0002 20.25 31.6792 20.25 33.7502C20.25 35.8213 21.9289 37.5002 24 37.5002Z" fill="#384C6C"/>
<path d="M22.5749 38.1002H25.1624C28.0203 38.1002 30.3374 40.4029 30.3374 43.2431V44.8373C28.5649 46.2503 26.3177 47.1002 23.8686 47.1002C21.4196 47.1002 19.1723 46.2503 17.3999 44.8373V43.2431C17.3999 40.4029 19.717 38.1002 22.5749 38.1002Z" fill="#384C6C"/>
<path d="M29.7799 14.4698L28.7192 15.5305L33.2192 20.0303L34.2798 18.9696L29.7799 14.4698Z" fill="#384C6C"/>
<path d="M13.7192 18.9702L18.219 14.4703L19.2797 15.5309L14.7799 20.0309L13.7192 18.9702Z" fill="#384C6C"/>
<path d="M14.7799 27.2198L13.7192 28.2805L18.2192 32.7802L19.2798 31.7195L14.7799 27.2198Z" fill="#384C6C"/>
<path d="M28.7197 31.7203L33.2195 27.2204L34.2802 28.281L29.7804 32.7809L28.7197 31.7203Z" fill="#384C6C"/>
</svg>
