<svg width="80" height="80" viewBox="0 0 80 80" fill="none" xmlns="http://www.w3.org/2000/svg">
<g clip-path="url(#clip0_3006_31687)">
<circle cx="32.952" cy="23.6185" r="17.5555" fill="#374A68"/>
<path fill-rule="evenodd" clip-rule="evenodd" d="M79.9999 3.69263C75.4604 4.09213 73.6039 6.12701 70.8164 9.18239C70.6565 9.35765 70.4936 9.53627 70.3269 9.71813C66.8596 13.5007 62.5818 25.5078 58.5959 36.6958C56.7202 41.9606 54.9091 47.0439 53.2776 51.0034C53.2776 51.0034 42.7528 43.0061 38.6919 40.2268C35.8126 38.2563 32.7633 33.9107 29.7851 29.6665C28.5629 27.9246 27.3526 26.1999 26.171 24.6633C21.4625 18.1046 10.6042 27.1312 17.7326 33.1684C21.5988 36.4428 22.549 38.7755 23.9063 42.1074C25.0514 44.9187 26.4864 48.4414 30.2073 53.8414C37.8979 65.0026 47.0725 71.4221 49.5616 73.1636C49.7041 73.2633 49.8247 73.3477 49.9218 73.4168C50.0623 73.5166 50.2034 73.6177 50.3452 73.7193C53.1206 75.7071 56.148 77.8755 60.0115 74.9669C60.5003 74.5989 61.0774 74.2188 61.7427 73.7806C65.3022 71.4362 71.388 67.4281 79.9999 54.7046V3.69263Z" fill="#374A68"/>
<circle cx="20.3774" cy="22.7316" r="18.7116" fill="#374A68" stroke="white" stroke-width="3.36716"/>
<circle cx="19.0012" cy="22.0766" r="4.77413" fill="white" stroke="white" stroke-width="4.48954"/>
</g>
<defs>
<clipPath id="clip0_3006_31687">
<rect width="80" height="80" fill="white" transform="translate(0 0.000244141)"/>
</clipPath>
</defs>
</svg>
