<svg width="48" height="48" viewBox="0 0 48 48" fill="none" xmlns="http://www.w3.org/2000/svg">
<path d="M29.3451 22.0864C29.0038 22.0864 28.6763 21.9565 28.4349 21.7251C28.1935 21.4938 28.0579 21.18 28.0579 20.8528C28.0579 20.5256 28.1935 20.2118 28.4349 19.9805C28.6763 19.7491 29.0038 19.6191 29.3451 19.6191C33.6831 19.5204 39.6429 16.4363 39.7331 16.4116C40.0335 16.248 40.3894 16.2055 40.7225 16.2934C41.0557 16.3814 41.3387 16.5925 41.5094 16.8804C41.6801 17.1683 41.7245 17.5095 41.6327 17.8287C41.541 18.148 41.3207 18.4193 41.0203 18.5829C40.75 18.7186 34.4297 21.9754 29.4353 22.0864H29.3451Z" fill="#374A68"/>
<path d="M40.4005 25.3297H33.8775C33.5383 25.3297 33.2129 25.193 32.9731 24.9497C32.7332 24.7064 32.5984 24.3765 32.5984 24.0324C32.5984 23.6883 32.7332 23.3584 32.9731 23.1151C33.2129 22.8718 33.5383 22.7351 33.8775 22.7351H40.4005C40.7397 22.7351 41.065 22.8718 41.3049 23.1151C41.5448 23.3584 41.6795 23.6883 41.6795 24.0324C41.6795 24.3765 41.5448 24.7064 41.3049 24.9497C41.065 25.193 40.7397 25.3297 40.4005 25.3297Z" fill="#374A68"/>
<path d="M34.6997 5.92751C33.6601 4.14233 32.1738 2.65847 30.3869 1.62184C28.5999 0.585213 26.574 0.0315078 24.5082 0.0151763C15.4616 -0.412646 9.61203 8.28017 7.15074 16.5569C4.54269 25.3624 6.23568 36.9364 13.5866 41.1234C17.8478 43.5328 23.9707 43.8223 27.8112 40.5379C29.5965 39.0218 31.6044 36.1163 31.7126 32.9677L31.7063 32.8707C31.6677 32.2931 31.6055 31.8225 31.533 31.4481C31.2939 30.7515 31.039 30.2725 30.7929 30.0043C30.3261 29.4955 29.7628 29.1761 28.9684 29.0333C27.4411 28.7586 26.1521 30.1456 25.3966 30.9587C25.3336 31.0265 25.2743 31.0903 25.2189 31.1488C24.8496 31.5387 24.6117 31.9671 24.3614 32.4175L24.3614 32.4176C24.1237 32.8454 23.875 33.2932 23.4923 33.7467C22.7316 34.6481 21.782 35.6531 21.3013 35.8256C20.8205 35.998 20.3091 36.0696 19.7989 36.0354C18.743 36.0354 17.6092 35.1507 17.1743 34.7083C16.7393 34.2659 16.3006 32.8242 16.2789 32.599C16.2572 32.3739 16.2557 32.1473 16.2741 31.9219C16.2841 31.6353 16.5561 30.8021 16.8774 30.1424C17.5757 28.7087 18.6289 27.9664 19.7249 27.1939L19.7249 27.1939C20.0019 26.9987 20.2815 26.8016 20.5589 26.5909L20.8373 26.3793L20.9545 26.2899C20.7757 26.299 20.6007 26.3142 20.4299 26.336C18.9531 26.5243 17.9405 26.8311 16.7151 27.2962C16.1189 27.5311 15.4653 27.5784 14.8414 27.4316C14.2139 27.284 13.7254 27.0026 13.2179 26.4676C12.4845 25.6946 12.3887 24.9678 12.2708 23.9088C12.169 22.9945 12.4259 21.7528 12.5034 21.5647C12.5809 21.3766 13.2437 20.3414 13.9401 19.8971C14.6364 19.4528 15.1432 19.4748 16.0286 19.3979C16.9139 19.3211 18.2999 19.6799 18.2999 19.6799C18.2999 19.6799 17.9757 19.3838 17.7 19.1999C16.8 18.5999 15.5507 18.4199 15 17.9999C14.2813 17.452 14.0051 16.9547 13.7427 16.0899C13.1865 14.2567 14.8899 11.9909 15.6359 11.5644L15.6428 11.5594C16.2495 11.1217 16.9747 10.8784 17.7223 10.8615C18.4699 10.8446 19.9232 11.5073 20.2222 11.6699C20.5213 11.8325 20.9732 12.0262 21.4081 12.3287C22.0886 12.8021 22.9383 13.8 22.9383 13.8C22.9383 13.8 22.9264 12.8988 22.9383 12.7414C23.0096 11.7929 23.0893 10.7333 23.6696 9.67012C24.0211 9.02614 24.4105 8.48621 24.8013 8.17056C25.1921 7.85492 25.6416 7.61959 26.1238 7.47827C26.6061 7.33691 27.0314 7.28361 27.611 7.3472C28.1887 7.41058 29.3119 7.55423 29.9869 8.17056C30.6619 8.78689 30.8843 9.05796 31.0815 9.67012C31.3189 10.407 30.9285 11.6465 30.9285 11.6465L30.4029 13.0471C30.1921 13.4527 29.4239 14.9475 29.1935 16.001C29.054 16.6397 29.0502 17.4721 29.1277 18.3442L29.2015 18.4197C30.0813 17.8647 31.0354 17.5635 31.7361 17.3424C31.9366 17.2791 32.1163 17.2224 32.2676 17.1681C33.6662 16.6667 34.8454 15.8722 35.4809 14.6417C36.7015 12.3454 36.3722 8.83948 34.6997 5.92751Z" fill="#374A68"/>
<path d="M29.3594 12.6106C29.3753 12.5798 29.3856 12.56 29.389 12.5526C29.578 12.2576 29.7043 11.9267 29.7595 11.5807C29.8148 11.2347 29.7982 10.8811 29.7104 10.5419C29.6227 10.2025 29.4661 9.88515 29.2499 9.60928C29.0339 9.33326 28.7633 9.10506 28.4551 8.93862C28.1498 8.77044 27.8142 8.66418 27.4677 8.62618C27.1212 8.58817 26.7706 8.61905 26.4362 8.71708C26.1017 8.8151 25.7899 8.97837 25.5188 9.19738C25.2475 9.4164 25.0225 9.68688 24.8562 9.99315C24.8174 10.0454 24.7849 10.1023 24.7598 10.1623C24.0991 12.1172 24.0425 13.1987 23.9539 14.893L23.9539 14.8936C23.9455 15.0558 23.9366 15.2235 23.9269 15.3983C23.859 15.3492 23.7914 15.3011 23.7241 15.2539C22.0332 14.069 19.1756 12.5597 19.1756 12.5597C18.7474 12.2794 18.2443 12.1356 17.7326 12.1472C17.2211 12.1587 16.725 12.3252 16.3099 12.6246C15.784 13.0099 15.3729 13.5312 15.1213 14.1329C14.8696 14.7343 14.7868 15.3931 14.8818 16.0381C14.9124 16.1927 14.961 16.342 15.0263 16.4834C15.129 16.7059 15.2728 16.9086 15.4513 17.0803C15.7433 17.3612 16.1145 17.5455 16.5148 17.6086C17.872 17.8441 18.5131 18.4003 19.5 19.1999C20.211 19.7759 20.7 20.6999 20.7 20.6999C20.7 20.6999 18.5821 20.3554 17.4 20.3999C16.218 20.4444 14.9759 20.7357 14.5417 21.0064C14.1074 21.277 13.7654 21.6731 13.5609 22.1421C13.3045 22.7417 13.2167 23.3998 13.3068 24.0456C13.3967 24.6914 13.6612 25.3003 14.0717 25.8071C14.342 26.1089 14.6983 26.3206 15.0928 26.4134C15.4872 26.5062 15.9006 26.4757 16.2771 26.3259C17.5648 25.8368 18.6703 25.4997 20.2663 25.2962C21.5506 25.1325 22.9706 25.2888 24.3924 25.6242C23.3904 26.1666 22.4455 26.7229 21.8565 27.1758C21.7438 27.2626 21.6343 27.3462 21.5279 27.4271L21.2517 27.6371C19.9001 28.6638 19.0377 29.3189 17.7927 30.9651C17.7572 31.0197 17.7285 31.0784 17.7071 31.1399C17.6791 31.1942 17.653 31.2493 17.6289 31.3052C17.5155 31.5684 17.4452 31.8489 17.4218 32.1353C17.409 32.2923 17.4101 32.4497 17.4251 32.6057C17.4433 32.7951 17.482 32.9823 17.5407 33.1641C17.5621 33.2299 17.5858 33.295 17.6121 33.3588C17.7182 33.6163 17.8644 33.8558 18.0459 34.0681C18.2722 34.3332 18.5487 34.551 18.8594 34.7087C19.1704 34.8701 19.5115 34.9654 19.861 34.9888C20.2107 35.0123 20.5613 34.9632 20.8912 34.8449C21.2209 34.7266 21.5227 34.5415 21.7777 34.3011C22.0326 34.0609 22.2353 33.7704 22.3728 33.4482C22.4228 33.3644 23.3933 31.48 24.3551 30.4643C25.2195 29.5517 26.8289 27.6665 28.8358 27.8857C30.06 28.0195 30.8776 28.5054 31.6372 29.3333C34.0156 31.925 34.047 42.727 33.8552 46.6745C33.8497 46.7928 33.8701 46.9107 33.9151 47.0202C33.9601 47.1297 34.0283 47.2279 34.1154 47.3082C34.1558 47.3454 34.1997 47.3784 34.2462 47.4066C34.2616 47.4158 34.2773 47.4245 34.2932 47.4327C34.3089 47.4408 34.3248 47.4484 34.3408 47.4553C34.3661 47.4664 34.3921 47.4762 34.4185 47.4846C34.4697 47.5009 34.5221 47.512 34.5751 47.5181C34.6389 47.5252 34.7037 47.5247 34.7679 47.5165L37.8128 47.1673C38.0097 47.1464 38.1921 47.0541 38.3256 46.908C38.4592 46.7619 38.5348 46.572 38.538 46.3741C38.5389 46.2651 38.5481 46.1156 38.5634 45.9295C38.5858 45.6608 38.6209 45.3155 38.6627 44.9048L38.6627 44.9041L38.6628 44.904C39.1169 40.4372 40.3565 28.2463 34.3797 22.7916C32.7834 21.3348 30.5225 20.3194 28.5596 19.5689C28.375 19.3783 28.1854 19.1851 27.9919 18.9904C27.8715 17.9375 27.835 16.794 28.0369 15.8699C28.3064 14.6374 29.1561 13.002 29.3505 12.6277L29.3508 12.6272L29.3594 12.6106Z" fill="#374A68"/>
</svg>
