<svg width="42" height="46" viewBox="0 0 42 46" fill="none" xmlns="http://www.w3.org/2000/svg">
<g filter="url(#filter0_dd_561_7843)">
<path fill-rule="evenodd" clip-rule="evenodd" d="M38.5432 39.4036C38.5432 41.3914 36.937 42.9999 34.9612 42.9999H20.7654V25.2222H34.9612C36.937 25.2222 38.5418 26.8176 38.5418 28.804L38.5432 39.4036Z" fill="white"/>
<path fill-rule="evenodd" clip-rule="evenodd" d="M38.5432 17.2402C38.5432 19.2323 36.937 20.7778 34.9612 20.7778H20.7654V3H34.9612C36.937 3 38.5432 4.56915 38.5432 6.55821V17.2402Z" fill="white"/>
<path fill-rule="evenodd" clip-rule="evenodd" d="M17 3H6.53602C3.97284 3 2.00079 5.57051 2.00079 8.74801L2 43H12.355C14.9175 43 17 40.4243 17 37.2449V3Z" fill="white"/>
</g>
<defs>
<filter id="filter0_dd_561_7843" x="0" y="0" width="41.5432" height="46" filterUnits="userSpaceOnUse" color-interpolation-filters="sRGB">
<feFlood flood-opacity="0" result="BackgroundImageFix"/>
<feColorMatrix in="SourceAlpha" type="matrix" values="0 0 0 0 0 0 0 0 0 0 0 0 0 0 0 0 0 0 127 0" result="hardAlpha"/>
<feOffset dy="1"/>
<feGaussianBlur stdDeviation="1"/>
<feColorMatrix type="matrix" values="0 0 0 0 0.109804 0 0 0 0 0.164706 0 0 0 0 0.247059 0 0 0 0.3 0"/>
<feBlend mode="normal" in2="BackgroundImageFix" result="effect1_dropShadow_561_7843"/>
<feColorMatrix in="SourceAlpha" type="matrix" values="0 0 0 0 0 0 0 0 0 0 0 0 0 0 0 0 0 0 127 0" result="hardAlpha"/>
<feOffset dx="1" dy="-1"/>
<feGaussianBlur stdDeviation="1"/>
<feColorMatrix type="matrix" values="0 0 0 0 0.109804 0 0 0 0 0.164706 0 0 0 0 0.247059 0 0 0 0.1 0"/>
<feBlend mode="normal" in2="effect1_dropShadow_561_7843" result="effect2_dropShadow_561_7843"/>
<feBlend mode="normal" in="SourceGraphic" in2="effect2_dropShadow_561_7843" result="shape"/>
</filter>
</defs>
</svg>
