
<svg width="24px" height="26px" viewBox="0 0 24 26" version="1.1" xmlns="http://www.w3.org/2000/svg" xmlns:xlink="http://www.w3.org/1999/xlink">
    <g id="Page-1" stroke="none" stroke-width="1" fill="none" fill-rule="evenodd">
        <g id="V2---1280x768" transform="translate(-16.000000, -16.000000)">
            <!-- <rect fill="#F5F5F5" x="0" y="0" width="1280" height="768"></rect> -->
            <g id="Logo/Color/Brand-Mark" transform="translate(16.000000, 16.000000)">
                <g id="B">
                    <path d="M9.57931034,0.407523511 L2.89696552,0.407523511 C1.26041379,0.407523511 0.000413793103,2.03965517 0.000413793103,4.05689655 L0.000413793103,25.8015361 L6.61365517,25.8015361 C8.25062069,25.8015361 9.58013793,24.1665517 9.58013793,22.1480878 L9.57931034,0.407523511 Z" id="Path" fill="#000000"></path>
                    <path d="M23.8431724,23.521442 C23.8354239,24.7883706 22.7871179,25.8096683 21.5006897,25.8035737 L12.218069,25.8036008 L12.218069,14.5191737 L21.501931,14.5192476 C22.1187174,14.5143665 22.7121449,14.7513061 23.1513482,15.1778154 C23.5905515,15.6043246 23.8394561,16.1853716 23.8431724,16.7928213 L23.8431724,23.521442 Z" id="Path" fill="#000000"></path>
                    <path d="M23.8431724,9.42438871 C23.8383265,10.0287979 23.5878198,10.6061029 23.147635,11.0272889 C22.7074503,11.4484749 22.1142818,11.6784313 21.5006897,11.665768 L12.218069,11.665768 L12.218069,0.406708464 L21.501931,0.406708464 C22.116543,0.397677499 22.7093992,0.630589398 23.1489489,1.05376261 C23.5884987,1.47693581 23.8383895,2.05537231 23.8431724,2.660721 L23.8431724,9.42438871 Z" id="Path-Standout" fill="#DE3838"></path>
                </g>
            </g>
        </g>
    </g>
</svg>