<svg width="48" height="48" viewBox="0 0 48 48" fill="none" xmlns="http://www.w3.org/2000/svg">
<g clip-path="url(#clip0_311_8797)">
<path d="M35.2629 15.1305C35.2629 15.1305 35.7271 4.33706 24.3092 2.01088C21.6171 1.4526 18.8323 2.01088 16.6972 3.59268C12.8913 6.3841 8.06417 12.8043 11.2203 26.4823C11.963 29.7389 13.4482 32.7164 15.5833 35.2287C16.9757 36.8105 18.6466 39.2297 19.5749 42.1142C19.5749 42.1142 22.9167 50.5815 31.0857 43.1377C31.0857 43.1377 32.4781 41.1837 32.5709 38.7645C32.5709 38.7645 37.0267 35.3217 34.2418 29.5528C34.2418 29.5528 32.6637 26.017 36.284 22.5743C36.1912 22.6673 38.9761 18.7594 35.2629 15.1305Z" fill="#F26674"/>
<path opacity="0.9" d="M31.1112 32.4188C28.6332 27.7048 30.1934 25.1593 30.1934 25.1593C31.7537 21.7652 29.0921 23.368 29.0921 23.368C22.2088 26.9506 21.3828 25.2535 21.2911 24.3108C21.2911 24.0279 21.4746 23.7451 21.8417 23.7451C24.595 23.368 27.3484 21.1995 27.3484 21.1995C35.2412 10.2632 26.9812 8.94324 26.9812 8.94324C15.6927 4.41784 14.4078 14.7886 14.4078 14.7886C11.3791 25.5364 20.6486 33.0787 20.6486 33.0787C21.7499 33.3616 21.1993 32.4188 21.1993 32.4188C12.8476 22.5194 16.794 15.1657 16.794 15.1657C20.1897 8.75469 21.4746 13.6572 21.4746 13.6572C18.9049 16.4856 19.3637 22.3309 19.3637 22.3309C20.0062 30.5332 27.3484 30.7217 27.3484 30.7217C26.0635 32.7959 28.5415 34.0215 28.5415 34.0215C31.9372 34.87 31.1112 32.4188 31.1112 32.4188Z" fill="#C4455E"/>
</g>
<defs>
<clipPath id="clip0_311_8797">
<rect width="27.4235" height="44.4" fill="white" transform="translate(10.1998 1.80005)"/>
</clipPath>
</defs>
</svg>
