<svg width="80" height="80" viewBox="0 0 80 80" fill="none" xmlns="http://www.w3.org/2000/svg">
<rect x="9" y="20" width="50" height="7" rx="3.5" fill="#889DAF"/>
<rect x="9" y="35" width="50" height="7" rx="3.5" fill="#889DAF"/>
<rect x="9" y="50" width="50" height="7" rx="3.5" fill="#889DAF"/>
<circle cx="57.678" cy="53.8813" r="20" fill="white"/>
<g clip-path="url(#clip0_2216:30191)">
<path d="M75.1155 53.8813C75.1155 63.5118 67.3085 71.3188 57.678 71.3188C48.0475 71.3188 40.2405 63.5118 40.2405 53.8813C40.2405 44.2509 48.0475 36.4438 57.678 36.4438C67.3085 36.4438 75.1155 44.2509 75.1155 53.8813ZM55.661 63.1144L68.5985 50.1769C69.0378 49.7376 69.0378 49.0252 68.5985 48.5859L67.0075 46.9949C66.5682 46.5556 65.8559 46.5556 65.4165 46.9949L54.8655 57.5459L49.9395 52.6199C49.5001 52.1806 48.7878 52.1806 48.3484 52.6199L46.7575 54.2108C46.3182 54.6501 46.3182 55.3625 46.7575 55.8018L54.07 63.1143C54.5093 63.5537 55.2216 63.5537 55.661 63.1144Z" fill="#4B94E2"/>
</g>
<defs>
<clipPath id="clip0_2216:30191">
<rect width="36" height="36" fill="white" transform="translate(39.678 35.8813)"/>
</clipPath>
</defs>
</svg>
