<svg width="80" height="80" viewBox="0 0 80 80" fill="none" xmlns="http://www.w3.org/2000/svg">
<g clip-path="url(#clip0)">
<g clip-path="url(#clip1)">
<path d="M1.74544 71.4353L16.4886 56.6924C18.4723 59.2372 20.7625 61.5275 23.3074 63.5112L8.56441 78.2543C8.1167 78.7021 7.58517 79.0573 7.00016 79.2997C6.41516 79.542 5.78814 79.6668 5.15492 79.6668C4.52171 79.6668 3.89469 79.542 3.30968 79.2997C2.72468 79.0573 2.19315 78.7021 1.74544 78.2543C1.29764 77.8066 0.942427 77.2751 0.700075 76.6901C0.457726 76.1051 0.332987 75.478 0.332987 74.8448C0.332987 74.2116 0.457726 73.5846 0.700075 72.9996C0.942427 72.4146 1.29764 71.8831 1.74544 71.4353Z" fill="#425B72"/>
<path fill-rule="evenodd" clip-rule="evenodd" d="M44.1619 71.6758C24.3692 71.6758 8.32401 55.6306 8.32401 35.8379C8.32401 16.0452 24.3692 0 44.1619 0C63.9546 0 79.9998 16.0452 79.9998 35.8379C79.9998 55.6306 63.9546 71.6758 44.1619 71.6758ZM44.0794 65.9521C27.4934 65.9521 14.0477 52.5064 14.0477 35.9203C14.0477 19.3342 27.4934 5.88858 44.0794 5.88858C60.6655 5.88858 74.1112 19.3342 74.1112 35.9203C74.1112 52.5064 60.6655 65.9521 44.0794 65.9521Z" fill="#CBD4DC"/>
</g>
<path d="M43.9998 63C58.9114 63 70.9998 50.9117 70.9998 36C70.9998 21.0883 58.9114 9 43.9998 9C29.0881 9 16.9998 21.0883 16.9998 36C16.9998 50.9117 29.0881 63 43.9998 63Z" fill="white"/>
<path fill-rule="evenodd" clip-rule="evenodd" d="M70.8352 33.003C70.752 33.001 70.6685 33 70.5847 33C64.8492 33 60.1997 37.6495 60.1997 43.385C60.1997 47.2497 62.3107 50.6213 65.4426 52.4097C68.9283 47.8617 70.9997 42.1727 70.9997 36C70.9997 34.987 70.9439 33.987 70.8352 33.003Z" fill="#F26674"/>
<path fill-rule="evenodd" clip-rule="evenodd" d="M20.9322 50.0394C21.4704 50.1255 22.0224 50.1702 22.5848 50.1702C28.3202 50.1702 32.9698 45.5206 32.9698 39.7852C32.9698 34.0497 28.3202 29.4001 22.5848 29.4001C20.7441 29.4001 19.0152 29.879 17.516 30.719C17.1773 32.4269 16.9998 34.1928 16.9998 36.0001C16.9998 41.1423 18.4372 45.9487 20.9322 50.0394Z" fill="#F26674"/>
<path d="M23.7272 47.2105C22.8881 47.2105 22.1366 46.621 21.9625 45.7666C21.7643 44.791 22.3942 43.8392 23.3698 43.6405C24.3971 43.4318 25.283 42.8332 25.8638 41.9551C26.445 41.0771 26.6496 40.028 26.4407 39.0005C26.2625 38.1245 25.8067 37.3571 25.123 36.7809C24.3612 36.1395 24.2639 35.0023 24.9054 34.2408C25.5465 33.4793 26.6839 33.382 27.4455 34.0232C28.7391 35.1127 29.6368 36.625 29.9738 38.2814C30.3748 40.2526 29.983 42.2639 28.8704 43.945C27.7579 45.6257 26.0594 46.7726 24.0883 47.1736C23.9672 47.1985 23.8466 47.2105 23.7272 47.2105Z" fill="#C4455E"/>
<path fill-rule="evenodd" clip-rule="evenodd" d="M27.3847 24.9702C33.1202 24.9702 37.7698 20.3207 37.7698 14.5852C37.7698 12.9382 37.3864 11.3808 36.704 9.99731C29.8616 11.9132 24.1172 16.4572 20.6282 22.472C22.4444 24.0293 24.8047 24.9702 27.3847 24.9702Z" fill="#F26674"/>
<path fill-rule="evenodd" clip-rule="evenodd" d="M26.7625 20.5666C26.9366 21.4211 27.6882 22.0106 28.5273 22.0106C28.6466 22.0106 28.7672 21.9985 28.8883 21.9737C30.8595 21.5727 32.5579 20.4258 33.6705 18.745C34.7831 17.064 35.1748 15.0526 34.7738 13.0815C34.6195 12.3228 34.3475 11.5943 33.9737 10.9229C32.8485 11.3731 31.7608 11.8969 30.7163 12.4883C30.967 12.8853 31.1444 13.327 31.2407 13.8005C31.4497 14.8281 31.2451 15.8772 30.6638 16.7552C30.0831 17.6332 29.1971 18.2319 28.1698 18.4406C27.1942 18.6393 26.5643 19.5911 26.7625 20.5666Z" fill="#C4455E"/>
<path d="M49.8889 36.7922C55.6244 36.7922 60.2739 32.1427 60.2739 26.4072C60.2739 20.6717 55.6244 16.0222 49.8889 16.0222C44.1534 16.0222 39.5039 20.6717 39.5039 26.4072C39.5039 32.1427 44.1534 36.7922 49.8889 36.7922Z" fill="#F26674"/>
<path d="M51.0314 33.8328C50.1923 33.8328 49.4408 33.2434 49.2667 32.3889C49.0685 31.4133 49.6984 30.4615 50.674 30.2628C51.7013 30.0541 52.5872 29.4555 53.168 28.5774C53.7492 27.6994 53.9538 26.6503 53.7449 25.6228C53.5667 24.7468 53.1109 23.9794 52.4272 23.4032C51.6654 22.7618 51.5681 21.6247 52.2096 20.8631C52.8507 20.1016 53.9881 20.0043 54.7497 20.6455C56.0433 21.735 56.941 23.2473 57.278 24.9038C57.679 26.8749 57.2872 28.8862 56.1746 30.5673C55.062 32.2481 53.3636 33.3949 51.3925 33.7959C51.2714 33.8208 51.1508 33.8328 51.0314 33.8328Z" fill="#C4455E"/>
<path fill-rule="evenodd" clip-rule="evenodd" d="M51.4049 61.9719C49.0518 62.6415 46.5676 63 43.9998 63C42.3617 63 40.7577 62.8541 39.2001 62.5747C36.3718 60.7193 34.5039 57.5203 34.5039 53.885C34.5039 48.1495 39.1534 43.5 44.8889 43.5C50.6244 43.5 55.2739 48.1495 55.2739 53.885C55.2739 57.1529 53.7645 60.0682 51.4049 61.9719Z" fill="#F26674"/>
<path d="M46.0314 61.8328C45.1923 61.8328 44.4408 61.2434 44.2667 60.3889C44.0685 59.4133 44.6984 58.4615 45.674 58.2628C46.7013 58.0541 47.5872 57.4555 48.168 56.5774C48.7492 55.6994 48.9538 54.6503 48.7449 53.6228C48.5667 52.7468 48.1109 51.9794 47.4272 51.4032C46.6654 50.7618 46.5681 49.6247 47.2096 48.8631C47.8507 48.1016 48.9881 48.0043 49.7497 48.6455C51.0433 49.735 51.941 51.2473 52.278 52.9038C52.679 54.8749 52.2872 56.8862 51.1746 58.5673C50.062 60.2481 48.3636 61.3949 46.3925 61.7959C46.2714 61.8208 46.1508 61.8328 46.0314 61.8328Z" fill="#C4455E"/>
</g>
<defs>
<clipPath id="clip0">
<rect width="79.9998" height="80" fill="white" transform="matrix(-1 0 0 1 79.9998 0)"/>
</clipPath>
<clipPath id="clip1">
<rect width="80" height="80" fill="white" transform="matrix(-1 0 0 1 79.9998 0)"/>
</clipPath>
</defs>
</svg>
