<svg width="48" height="48" viewBox="0 0 48 48" fill="none" xmlns="http://www.w3.org/2000/svg">
<g clip-path="url(#clip0_383_300)">
<g clip-path="url(#clip1_383_300)">
<path d="M47.5132 29.7567V36.8837C47.5135 37.0215 47.4787 37.1571 47.412 37.2777C47.3453 37.3982 47.249 37.4998 47.1322 37.5729C47.0153 37.6459 46.8818 37.688 46.7442 37.695C46.6066 37.7021 46.4694 37.674 46.3457 37.6134L39.6484 34.3702C37.9829 37.1372 35.6193 39.4177 32.7945 40.9831C29.9697 42.5484 26.7829 43.3437 23.5539 43.2891C12.989 43.2972 4.38635 34.4918 4.38635 23.708C4.38635 12.9243 12.989 4.02972 23.5539 4.02972C34.1187 4.02972 42.7133 12.8351 42.7133 23.708C42.7117 24.841 42.6168 25.9718 42.4295 27.0891L47.0186 29.0513C47.159 29.1105 47.2799 29.2081 47.3674 29.3329C47.4549 29.4576 47.5054 29.6045 47.5132 29.7567Z" fill="#374A68"/>
<path d="M8.11605 32.2215C6.83735 29.7846 6.12116 27.092 6.02013 24.3419C5.9191 21.5917 6.43582 18.8538 7.53227 16.3297C7.58719 16.2013 7.60802 16.0608 7.59272 15.922C7.57743 15.7832 7.52653 15.6507 7.44497 15.5373C7.36341 15.4239 7.25394 15.3336 7.12718 15.2749C7.00043 15.2163 6.86067 15.1914 6.72146 15.2026C5.26201 15.381 0.51878 16.5567 0.51878 24.1215C0.486347 30.1945 3.96472 33.4377 7.39444 33.4377C7.5384 33.4412 7.6807 33.4063 7.80669 33.3365C7.93269 33.2668 8.03783 33.1647 8.11132 33.0409C8.1848 32.917 8.22397 32.7759 8.22481 32.6318C8.22564 32.4878 8.1881 32.3462 8.11605 32.2215V32.2215Z" fill="#374A68"/>
<path d="M23.5782 7.08643C14.8701 7.08643 7.78363 14.4891 7.78363 23.5783C7.78363 32.6674 14.8701 40.0701 23.5782 40.0701C32.2863 40.0701 39.4052 32.6755 39.4052 23.5783C39.4052 14.481 32.2863 7.08643 23.5782 7.08643Z" fill="white"/>
<path d="M9.77823 15.5999C8.38278 18.244 7.7053 21.2079 7.81343 24.1957C7.92156 27.1835 8.81151 30.0906 10.3944 32.6269C10.502 32.7983 10.6698 32.9233 10.8648 32.9773C11.0599 33.0313 11.2681 33.0105 11.4485 32.9188C14.0917 31.5891 15.8593 28.0539 15.8593 24.1864C15.8917 17.2945 10.6215 13.9783 9.77823 15.5999Z" fill="#374A68"/>
<path d="M47.5133 33.4377V35.3837L46.2565 34.5729C36.4619 28.135 34.9052 28.2323 34.8241 28.1918C33.9241 28.1918 32.5295 29.5702 30.8917 30.535C30.7052 31.4756 30.0809 33.6972 28.662 34.5891C28.5709 34.6608 28.4655 34.7122 28.353 34.7398C28.2404 34.7673 28.1232 34.7704 28.0093 34.7489C27.8954 34.7273 27.7875 34.6816 27.6927 34.6148C27.598 34.5479 27.5187 34.4616 27.4602 34.3615C27.4017 34.2615 27.3653 34.15 27.3535 34.0347C27.3417 33.9194 27.3548 33.8029 27.3919 33.6931C27.4289 33.5832 27.4891 33.4826 27.5683 33.398C27.6475 33.3134 27.744 33.2468 27.8511 33.2026C28.417 32.7358 28.8225 32.1035 29.0106 31.3945C28.4269 31.5779 27.8218 31.6842 27.2106 31.7107C26.9956 31.7182 26.7863 31.64 26.629 31.4933C26.4716 31.3466 26.3789 31.1433 26.3714 30.9283C26.3639 30.7132 26.4421 30.504 26.5888 30.3466C26.7356 30.1893 26.9388 30.0966 27.1538 30.0891C30.0322 29.9837 31.8565 27.535 33.8106 26.7891C32.489 23.3107 30.4782 22.7351 29.5782 20.0107C28.5723 20.032 27.5761 20.2126 26.6268 20.5459C26.5262 20.581 26.4196 20.596 26.3132 20.5899C26.2068 20.5839 26.1027 20.557 26.0067 20.5107C25.8128 20.4171 25.664 20.2504 25.593 20.0472C25.5579 19.9466 25.5429 19.84 25.549 19.7336C25.555 19.6272 25.582 19.5231 25.6283 19.4271C25.7218 19.2332 25.8885 19.0844 26.0917 19.0134C27.0891 18.6705 28.1282 18.4632 29.1809 18.3972C28.9972 17.302 28.9293 16.1905 28.9782 15.081C28.9844 14.9745 29.0115 14.8702 29.0581 14.7742C29.1047 14.6782 29.1698 14.5923 29.2496 14.5215C29.3295 14.4507 29.4225 14.3963 29.5234 14.3616C29.6243 14.3268 29.7311 14.3123 29.8376 14.3189C29.9442 14.3251 30.0484 14.3522 30.1445 14.3988C30.2405 14.4454 30.3263 14.5105 30.3972 14.5903C30.468 14.6702 30.5223 14.7632 30.5571 14.8641C30.5919 14.965 30.6064 15.0718 30.5998 15.1783C30.5349 16.3216 30.6484 19.6134 31.9619 21.1134C33.7782 23.181 34.7106 24.4134 35.4809 26.6756C37.9781 27.3323 43.8565 31.054 47.5133 33.4377Z" fill="#374A68"/>
</g>
</g>
<defs>
<clipPath id="clip0_383_300">
<rect width="47.9999" height="48" fill="white"/>
</clipPath>
<clipPath id="clip1_383_300">
<rect width="47.9999" height="40.2161" fill="white" transform="translate(-0.00012207 3.59998)"/>
</clipPath>
</defs>
</svg>
