<svg width="48" height="48" viewBox="0 0 48 48" fill="none" xmlns="http://www.w3.org/2000/svg">
<path d="M35.4892 9.49993C35.1142 9.40243 26.8567 10.3474 24.9892 11.1949C22.9342 12.1399 21.6967 16.6999 21.4717 17.5999C21.4276 17.7644 21.4409 17.939 21.5092 18.0949C22.6642 20.6374 24.7942 22.0849 28.0192 22.5199C28.1315 22.5352 28.2458 22.5249 28.3535 22.4896C28.4612 22.4544 28.5595 22.3953 28.6411 22.3166C28.7226 22.2379 28.7853 22.1418 28.8244 22.0354C28.8635 21.929 28.8779 21.8152 28.8667 21.7024C28.7114 20.0111 28.9688 18.3074 29.6167 16.7374C30.3667 15.1699 33.6142 14.5849 34.8667 14.4874C35.3905 14.352 35.8636 14.0672 36.2285 13.6678C36.5933 13.2683 36.8342 12.7713 36.9217 12.2374C37.013 11.9638 37.0481 11.6746 37.025 11.3871C37.002 11.0996 36.9212 10.8197 36.7874 10.5641C36.6537 10.3086 36.4698 10.0826 36.2467 9.89975C36.0237 9.7169 35.766 9.58091 35.4892 9.49993Z" fill="#374A68"/>
<path d="M37.2217 23.0825C37.1906 23.028 37.1528 22.9776 37.1092 22.9325C36.2155 22.065 35.0887 21.4762 33.8663 21.2378C32.6438 20.9994 31.3784 21.1218 30.2242 21.59C28.1266 21.1027 26.1295 20.2551 24.3217 19.085C21.4717 17.255 17.2642 15.1175 13.6042 17.6525C10.1092 20.0675 9.55421 28.9025 11.2492 32.24C12.8242 35.39 17.5867 40.9925 22.0492 42.89C24.7267 44.0225 31.6642 46.3775 34.3492 46.1225C37.0342 45.8675 40.2142 40.8725 40.3492 34.9175C40.4542 28.8725 37.3567 23.315 37.2217 23.0825Z" fill="#374A68"/>
<path fill-rule="evenodd" clip-rule="evenodd" d="M28.8332 21.2095C29.2911 21.3541 29.7552 21.481 30.2242 21.59C31.3784 21.1218 32.6438 20.9994 33.8663 21.2378C34.5442 21.37 35.1927 21.61 35.7883 21.9455C35.7579 21.6296 35.6987 21.1842 35.5842 20.6789C36.2431 20.2271 37.7474 19.1885 38.1292 18.8375C38.5942 18.4099 38.6092 17.2774 37.8667 15.6874C37.7929 15.5259 37.6642 15.3959 37.5035 15.3203C37.3429 15.2448 37.1606 15.2287 36.9892 15.2749L32.6744 16.4377C32.0541 16.0652 31.4043 15.7844 30.8236 15.5904C30.2801 15.8951 29.8388 16.2732 29.6167 16.7374C29.0317 18.155 28.7652 19.6815 28.8332 21.2095Z" fill="#374A68"/>
<path fill-rule="evenodd" clip-rule="evenodd" d="M13.6592 35.8572C15.1311 37.6981 17.0197 39.6323 19.0077 41.0993C18.8294 41.7082 18.5588 42.6355 18.1493 44.0675C17.8943 44.9675 16.1018 44.795 15.1943 44.5925C14.6405 44.4679 14.1296 44.1989 13.7133 43.813C13.2971 43.427 12.9903 42.9378 12.8243 42.395C12.8188 42.3753 12.8139 42.3583 12.8099 42.341C12.7603 42.127 12.8506 41.8806 13.6592 35.8572Z" fill="#374A68"/>
<path d="M34.6351 32.9014C33.6874 33.2018 32.6722 33.2171 31.7159 32.9454C31.851 34.3251 31.5164 35.71 30.7662 36.8759C30.6382 37.0519 30.4494 37.1742 30.2364 37.2191C30.0234 37.264 29.8013 37.2283 29.6131 37.1188C29.425 37.0094 29.284 36.8341 29.2177 36.6268C29.1513 36.4195 29.1642 36.1949 29.2538 35.9966C30.6959 33.5873 29.8166 31.732 28.4625 29.1029C27.6271 29.8591 26.4841 31.1692 27.0644 32.3211C27.1598 32.5288 27.1706 32.7654 27.0945 32.9809C27.0184 33.1963 26.8614 33.3737 26.6568 33.4755C26.4522 33.5772 26.216 33.5953 25.9983 33.5259C25.7806 33.4565 25.5984 33.3051 25.4905 33.1037C24.2419 30.5977 26.5984 28.3027 27.759 27.3971C27.2578 25.2956 28.8292 21.2 28.8292 21.2C28.8292 21.2 29.5045 21.2123 29.8341 21.3071C30.1638 21.4018 30.3592 21.53 30.3592 21.53C30.3592 21.53 29.078 26.3771 29.5176 27.3355C30.166 28.4999 30.753 29.6973 31.2762 30.923C32.1581 31.3635 33.168 31.4758 34.1251 31.2396C34.3331 31.209 34.545 31.2539 34.7227 31.3662C34.9004 31.4785 35.0319 31.6507 35.0936 31.8516C35.1552 32.0525 35.1429 32.2688 35.0588 32.4614C34.9747 32.654 34.8244 32.8101 34.6351 32.9014Z" fill="#374A68"/>
<path d="M19.0844 32.6305C19.2567 31.8121 19.3024 30.9796 19.2195 30.171C22.9924 29.1164 21.3745 26.6833 20.2933 27.6659C19.8466 28.0688 19.3246 28.3417 18.7797 28.4573C18.4494 27.6751 18.0171 26.8986 17.4848 26.2855C16.9113 26.6172 16.4628 26.7855 15.8917 27.2069C15.9492 27.4048 16.1658 27.5597 16.6868 28.2459C18.6764 31.1155 16.6842 32.9331 17.973 33.3854C18.0824 33.4256 18.2006 33.4374 18.3194 33.42C18.4382 33.4025 18.5546 33.3562 18.6605 33.2842C18.7664 33.2123 18.8593 33.1165 18.9325 33.0036C19.0057 32.8906 19.0575 32.7633 19.0844 32.6305Z" fill="#374A68"/>
<path fill-rule="evenodd" clip-rule="evenodd" d="M22.9417 19.1226C22.4542 23.7126 17.8867 26.5851 15.1117 27.7551C14.284 28.1383 13.5608 28.7153 13.0033 29.4373C12.4459 30.1592 12.0706 31.0049 11.9092 31.9026L11.7367 33.1251C11.5492 32.8176 11.3767 32.5176 11.2417 32.2401C10.388 30.5592 10.1051 27.484 10.481 24.5367C9.71418 24.7311 8.93301 24.8669 8.14422 24.9425C7.95088 24.964 7.75676 24.9095 7.60283 24.7906C7.60283 24.7906 7.08302 24.2 7.0192 23.4985C6.95538 22.7969 7.06461 22.2183 7.14304 22.0763C7.22146 21.9343 7.34381 21.8216 7.49172 21.755C8.34257 21.3951 9.039 21.0892 9.61253 20.8314C9.0444 20.3718 8.55916 19.8512 8.35415 19.6174C8.25444 19.5057 8.19045 19.3668 8.1704 19.2184C8.1704 19.2184 8.03929 18.6164 8.35408 18.0031C8.73218 17.2665 9.30352 17.0105 9.30352 17.0105C9.43749 16.9382 9.5903 16.9083 9.74164 16.9249L13.6641 17.5249C13.6952 17.5298 13.7257 17.5367 13.7557 17.5454C16.8733 15.5059 20.3628 16.779 23.0692 18.3276C23.0109 18.5898 22.9683 18.8553 22.9417 19.1226Z" fill="#374A68"/>
<path fill-rule="evenodd" clip-rule="evenodd" d="M25.1167 2.91501L25.8667 4.82001C25.9333 4.8329 26.0063 4.84785 26.0848 4.86508L26.684 2.96749C26.7349 2.81085 26.8359 2.57353 26.9714 2.48C27.5118 2.10715 28.0191 2.00008 28.9191 2C29.8577 1.99992 30.7191 2.29996 31.268 3.03977C31.3123 3.17854 31.2969 3.24065 31.2763 3.32433C31.2731 3.33725 31.2698 3.35068 31.2665 3.36499L30.3015 7.04975C30.9876 7.75825 31.5323 8.67701 31.7441 9.86488C29.175 10.2003 26.0504 10.7133 24.9892 11.1949C22.9921 12.1133 21.7671 16.4456 21.4931 17.5152C21.2048 17.3843 20.911 17.2613 20.6129 17.1491L19.4016 11.585C19.3267 10.0924 19.3094 9.15549 19.2981 8.5481L19.2949 8.37501C20.1081 6.96409 20.776 6.21324 21.2917 5.82501L20.4367 3.45501C20.3958 3.34178 20.3827 3.22035 20.3986 3.101C20.4145 2.98165 20.4589 2.86787 20.528 2.7693C20.5972 2.67073 20.689 2.59025 20.7958 2.53468C20.7958 2.53468 21.7191 2 22.7692 2C24.1941 2 24.8297 2.56953 24.8297 2.56953C24.9584 2.65267 25.0586 2.77323 25.1167 2.91501Z" fill="#374A68"/>
<path fill-rule="evenodd" clip-rule="evenodd" d="M21.6659 17.6L19.4017 11.5304C19.3268 10.023 19.3094 9.07684 19.2982 8.46341C19.2802 7.4802 19.2778 7.35181 19.0792 7.13725C18.1342 6.03138 15.7417 5.68296 13.5817 7.32661C13.243 7.58188 13.2553 7.91629 13.2786 8.5525C13.2898 8.8602 13.3037 9.23849 13.2817 9.71257C12.0684 10.4507 11.2574 10.8971 10.7101 11.1984C9.80285 11.6978 9.62059 11.7982 9.5317 12.1667C9.44184 12.7337 9.44184 13.3115 9.5317 13.8785C9.7042 15.0677 10.7167 15.6358 11.2642 15.4767L13.6942 14.795C13.6166 15.6853 13.4816 16.7246 13.374 17.4845L13.6641 17.5294C13.6952 17.5343 13.7257 17.5412 13.7557 17.55C16.3572 15.8313 19.2176 16.442 21.6659 17.6Z" fill="#374A68"/>
</svg>
