<svg width="48" height="48" viewBox="0 0 48 48" fill="none" xmlns="http://www.w3.org/2000/svg">
<path d="M46.7267 15.4537C46.5803 11.1951 43.1047 7.80732 38.8462 7.80732C37.8657 7.80732 36.9145 7.99024 36.0438 8.32683C35.3267 8.60488 34.5145 8.47317 33.9364 7.97561C33.512 7.60976 33.1608 7.21463 32.8828 6.86341C31.9901 5.72195 31.3169 4.30976 30.6511 2.84634C30.2925 2.07073 29.956 1.27317 29.8608 0.585366C29.8608 0.585366 28.5461 0 27.6547 0C26.7634 0 25.4486 0.585366 25.4486 0.585366C25.5291 2.06341 26.0925 3.43902 26.656 4.66829C27.4389 6.38049 28.2364 8.04146 29.4145 9.56342C29.8535 10.1268 30.3291 10.639 30.8267 11.0927C31.1999 11.4293 31.434 11.9049 31.4706 12.4024C31.5438 13.2951 31.0462 14.3122 30.7462 15.139C30.3218 16.2951 29.8096 17.4146 29.2096 18.4902C28.7121 19.3829 28.156 20.2463 27.5486 21.0659C26.9413 21.8854 26.2828 22.6683 25.5803 23.4C24.8779 24.139 24.1242 24.8268 23.334 25.4634C22.5364 26.1073 21.7023 26.6927 20.8316 27.2341C19.9535 27.7756 19.0462 28.2512 18.1096 28.6756C17.1657 29.1 16.1852 29.4659 15.1901 29.7585C14.5901 29.9341 13.9828 30.0951 13.3755 30.2195C12.7682 30.3512 12.1462 30.3878 11.5169 30.3293C8.88279 30.0805 6.24864 30.9659 4.29498 32.7439C2.32669 34.5293 1.19986 37.0829 1.19986 39.739V47.4146C1.19986 47.4146 2.72949 48 3.70962 48C4.68974 48 6.21937 47.4146 6.21937 47.4146V39.8634C6.21937 38.861 6.51205 37.8659 7.11937 37.0683C7.12669 37.0537 7.13401 37.0463 7.14864 37.0317C7.89498 36.0732 9.27059 35.8463 10.295 36.4902C14.2608 38.9707 19.0096 40.3244 24.0877 40.0756C36.0291 39.4976 45.7901 30 46.6681 18.0732C46.734 17.1951 46.7559 16.3171 46.7267 15.4537Z" fill="#F26674"/>
</svg>
