<svg width="48" height="48" viewBox="0 0 48 48" fill="none" xmlns="http://www.w3.org/2000/svg">
<path fill-rule="evenodd" clip-rule="evenodd" d="M43.0181 16.6318C45.8371 16.2134 48 13.7831 48 10.8477C48 7.61811 45.3819 5 42.1523 5C39.5326 5 37.3152 6.72261 36.5712 9.0969C35.7442 9.10837 34.8597 9.13507 33.9376 9.18364C31.078 9.33425 27.7673 9.69845 24.6635 10.5136C23.597 9.08926 21.896 8.16751 19.9797 8.16751C16.7501 8.16751 14.132 10.7856 14.132 14.0152C14.132 14.8194 14.2943 15.5857 14.588 16.2831C12.412 18.4264 10.4383 20.9406 8.84429 23.1892C8.35039 23.8859 7.88842 24.5637 7.46347 25.2058C6.95029 25.0586 6.40821 24.9797 5.84772 24.9797C2.61811 24.9797 0 27.5978 0 30.8274C0 34.057 2.61811 36.6751 5.84772 36.6751C7.54485 36.6751 9.07313 35.9522 10.1414 34.7974C12.659 36.0454 15.7551 37.4146 18.4309 38.0956C21.4012 38.8516 25.2236 39.1025 28.2911 39.1702C29.0393 41.5376 31.2532 43.2538 33.868 43.2538C37.0976 43.2538 39.7157 40.6357 39.7157 37.4061C39.7157 35.7237 39.0053 34.2073 37.868 33.1404C39.0803 30.6265 40.4351 27.5813 41.2383 25.0144C42.0373 22.461 42.6197 19.3031 43.0181 16.6318ZM34.0786 11.8601C34.8789 11.818 35.6503 11.793 36.3785 11.7804C36.7282 13.9619 38.2844 15.7403 40.3412 16.4096C39.952 18.9863 39.4029 21.9051 38.6804 24.214C37.9529 26.5391 36.7081 29.3636 35.5384 31.8004C35.0091 31.6429 34.4485 31.5584 33.868 31.5584C32.9387 31.5584 32.06 31.7752 31.2797 32.1609C29.6005 29.9571 27.7376 27.4047 26.4798 25.3712C25.3193 23.495 24.1606 21.0807 23.2026 18.8954C24.7843 17.8488 25.8274 16.0538 25.8274 14.0152C25.8274 13.6705 25.7976 13.3327 25.7404 13.0044C28.4431 12.3353 31.384 12.002 34.0786 11.8601ZM24.2004 26.7811C25.5434 28.9522 27.5014 31.6272 29.2113 33.8685C28.6402 34.6191 28.2465 35.5119 28.0925 36.4845C25.1254 36.4095 21.6806 36.1571 19.092 35.4982C16.7323 34.8977 13.8986 33.6622 11.4641 32.4614C11.6147 31.9429 11.6954 31.3946 11.6954 30.8274C11.6954 29.1246 10.9676 27.5917 9.80602 26.523C10.1864 25.9515 10.5959 25.3528 11.0308 24.7393C12.5399 22.6105 14.3114 20.3668 16.1906 18.4694C17.2112 19.3385 18.5342 19.8629 19.9797 19.8629C20.2174 19.8629 20.4519 19.8488 20.6822 19.8212C21.6744 22.0956 22.9187 24.709 24.2004 26.7811Z" fill="#374A68"/>
</svg>
