<svg width="48" height="48" viewBox="0 0 48 48" fill="none" xmlns="http://www.w3.org/2000/svg">
<path d="M24.8734 28.8875H22.8396C22.553 28.8875 22.3206 29.1198 22.3206 29.4065V38.7079C22.3206 38.9946 22.553 39.227 22.8396 39.227H24.8734C25.16 39.227 25.3924 38.9946 25.3924 38.7079V29.4065C25.3924 29.1198 25.16 28.8875 24.8734 28.8875Z" fill="white"/>
<path d="M29.1099 35.0498V33.0646C29.1099 32.778 28.8775 32.5456 28.5908 32.5456H19.1233C18.8366 32.5456 18.6043 32.778 18.6043 33.0646V35.0498C18.6043 35.3365 18.8366 35.5688 19.1233 35.5688H28.5908C28.8775 35.5688 29.1099 35.3365 29.1099 35.0498Z" fill="white"/>
<path fill-rule="evenodd" clip-rule="evenodd" d="M16.3028 23.7096C14.0604 25.6693 12.5844 28.4931 12.4014 31.6833L12.2016 35.1637C11.8243 41.7401 17.0555 47.2801 23.6425 47.2801H24.2696C30.7626 47.2801 35.9587 41.8908 35.7218 35.4022L35.5947 31.9218C35.4711 28.5382 33.8897 25.5415 31.4678 23.5268C29.4058 25.2836 26.7166 26.3463 23.7754 26.3463C20.9374 26.3463 18.3344 25.3569 16.3028 23.7096Z" fill="#374A68"/>
<path d="M11.7265 11.9009C14.7289 11.9009 17.1628 9.50546 17.1628 6.55057C17.1628 3.59567 14.7289 1.20026 11.7265 1.20026C8.72415 1.20026 6.29025 3.59567 6.29025 6.55057C6.29025 9.50546 8.72415 11.9009 11.7265 11.9009Z" fill="#374A68"/>
<path d="M35.8232 11.9009C38.8255 11.9009 41.2594 9.50546 41.2594 6.55057C41.2594 3.59567 38.8255 1.20026 35.8232 1.20026C32.8208 1.20026 30.3869 3.59567 30.3869 6.55057C30.3869 9.50546 32.8208 11.9009 35.8232 11.9009Z" fill="#374A68"/>
<path d="M23.7759 25.0062C30.2705 25.0062 35.5354 19.8246 35.5354 13.4328C35.5354 7.04093 30.2705 1.85931 23.7759 1.85931C17.2814 1.85931 12.0165 7.04093 12.0165 13.4328C12.0165 19.8246 17.2814 25.0062 23.7759 25.0062Z" fill="#374A68"/>
<path d="M24.8723 29.8328H22.6773C22.3679 29.8328 22.1171 30.0836 22.1171 30.393V40.4323C22.1171 40.7417 22.3679 40.9925 22.6773 40.9925H24.8723C25.1817 40.9925 25.4326 40.7417 25.4326 40.4323V30.393C25.4326 30.0836 25.1817 29.8328 24.8723 29.8328Z" fill="white"/>
<path d="M29.4445 36.4845V34.3419C29.4445 34.0325 29.1937 33.7817 28.8843 33.7817H18.6658C18.3564 33.7817 18.1056 34.0325 18.1056 34.3419V36.4845C18.1056 36.7939 18.3564 37.0447 18.6658 37.0447H28.8843C29.1937 37.0447 29.4445 36.7939 29.4445 36.4845Z" fill="white"/>
<path d="M30.5199 17.4318C30.5199 20.4868 27.5004 22.9632 23.7756 22.9632C20.0508 22.9632 17.0312 20.4868 17.0312 17.4318C17.0312 14.3769 20.0508 11.9004 23.7756 11.9004C27.5004 11.9004 30.5199 14.3769 30.5199 17.4318Z" fill="white"/>
<path d="M27.1477 15.8689C27.1477 17.3964 25.638 18.6347 23.7756 18.6347C21.9132 18.6347 20.4035 17.3964 20.4035 15.8689C20.4035 14.3415 21.9132 13.1032 23.7756 13.1032C25.638 13.1032 27.1477 14.3415 27.1477 15.8689Z" fill="#374A68"/>
<path d="M6.1395 24.9764C8.57139 24.1504 13.8951 22.2793 16.3214 23.7349L12.4592 32.7119C10.5169 32.9979 6.61502 35.1574 5.46268 35.4333C3.77511 35.837 1.5299 33.736 1.22972 30.5808C0.91752 27.2994 3.09966 26.0091 6.1395 24.9764Z" fill="#374A68"/>
<path d="M6.13942 24.9762C8.57131 24.1502 13.895 22.2792 16.3213 23.7347L12.4591 32.7117C11.8195 32.8059 10.9673 33.1032 10.0708 33.4697L6.13942 24.9762Z" fill="#374A68"/>
<path d="M41.6279 24.7763C39.1953 23.9525 33.8698 22.0866 31.4448 23.5445L35.3157 32.5178C37.2584 32.8019 41.1623 34.9577 42.3149 35.2325C44.003 35.6347 46.2461 33.5315 46.5431 30.376C46.8522 27.0942 44.6688 25.806 41.6279 24.7763Z" fill="#374A68"/>
<path d="M41.6273 24.7977C39.1955 23.9717 33.8717 22.1006 31.4454 23.5562L35.3077 32.5331C35.9472 32.6274 36.7995 32.9246 37.6959 33.291L41.6273 24.7977Z" fill="#374A68"/>
</svg>
