<svg width="37" height="36" viewBox="0 0 37 36" fill="none" xmlns="http://www.w3.org/2000/svg">
<g clip-path="url(#clip0_315_46744)">
<path d="M18.5 36C28.4411 36 36.5 27.9411 36.5 18C36.5 8.05888 28.4411 0 18.5 0C8.55888 0 0.5 8.05888 0.5 18C0.5 27.9411 8.55888 36 18.5 36Z" fill="#EAEFF5"/>
<g clip-path="url(#clip1_315_46744)">
<path d="M21.2584 15.2419C23.5923 17.5781 23.5603 21.3238 21.2725 23.6243C21.2682 23.629 21.2631 23.634 21.2584 23.6387L18.6334 26.2637C16.3182 28.579 12.5514 28.5787 10.2365 26.2637C7.92131 23.9489 7.92131 20.1817 10.2365 17.8669L11.686 16.4174C12.0704 16.033 12.7323 16.2885 12.7522 16.8317C12.7775 17.524 12.9016 18.2195 13.1307 18.8911C13.2083 19.1185 13.1528 19.3701 12.9829 19.54L12.4717 20.0512C11.3769 21.146 11.3426 22.9286 12.4266 24.034C13.5213 25.1504 15.3206 25.157 16.4237 24.054L19.0487 21.4294C20.1499 20.3281 20.1453 18.5482 19.0487 17.4516C18.9041 17.3073 18.7585 17.1952 18.6447 17.1169C18.5642 17.0616 18.4978 16.9883 18.4507 16.9028C18.4036 16.8173 18.3771 16.722 18.3733 16.6245C18.3579 16.2117 18.5041 15.7863 18.8303 15.4602L19.6527 14.6377C19.8684 14.4221 20.2067 14.3956 20.4568 14.5701C20.7432 14.7701 21.0114 14.9949 21.2584 15.2419ZM26.7637 9.73631C24.4488 7.42139 20.6821 7.42107 18.3668 9.73631L15.7418 12.3613C15.7371 12.366 15.7321 12.3711 15.7278 12.3758C13.44 14.6762 13.408 18.4219 15.7418 20.7582C15.9888 21.0052 16.257 21.2299 16.5434 21.4299C16.7935 21.6044 17.1319 21.5779 17.3475 21.3623L18.1699 20.5398C18.4961 20.2137 18.6423 19.7883 18.6269 19.3755C18.6231 19.278 18.5966 19.1827 18.5495 19.0972C18.5024 19.0117 18.436 18.9384 18.3555 18.8831C18.2417 18.8048 18.0961 18.6927 17.9515 18.5484C16.8549 17.4518 16.8503 15.6719 17.9515 14.5706L20.5765 11.946C21.6796 10.8429 23.4789 10.8496 24.5736 11.966C25.6576 13.0714 25.6233 14.854 24.5285 15.9488L24.0173 16.46C23.8474 16.6299 23.7919 16.8815 23.8695 17.1089C24.0986 17.7805 24.2227 18.476 24.248 19.1683C24.2679 19.7115 24.9298 19.967 25.3142 19.5826L26.7637 18.1331C29.0789 15.8183 29.0789 12.0512 26.7637 9.73631Z" fill="#374A68"/>
</g>
</g>
<defs>
<clipPath id="clip0_315_46744">
<rect width="36" height="36" fill="white" transform="translate(0.5)"/>
</clipPath>
<clipPath id="clip1_315_46744">
<rect width="20" height="20" fill="white" transform="translate(8.50012 8)"/>
</clipPath>
</defs>
</svg>
