<svg width="48" height="48" viewBox="0 0 48 48" fill="none" xmlns="http://www.w3.org/2000/svg">
<path d="M21.6952 4.39842C28.9912 8.14242 33.0232 9.58243 35.5192 10.0624C43.2952 11.5984 48.2872 20.5264 38.9752 34.3504C38.9752 34.3504 34.9432 41.4544 33.8872 47.8864H19.0072H11.9032C13.7272 43.3744 19.1032 30.3184 22.0792 26.3824C22.0792 26.3824 10.4632 26.8624 4.99121 22.9264V10.7344V0.300415C7.79917 0.30031 13.4992 1.20042 21.6952 4.39842Z" fill="#FB7185"/>
<path d="M23.1351 32.1416C23.1351 36.3003 20.2791 46.5416 19.7991 47.8856H28.2711C34.2231 31.9496 34.4391 33.4203 35.3991 31.5003C35.7831 30.7323 35.8795 30.1975 35.6871 29.5496C35.3182 28.307 29.3991 26.4003 28.1991 26.4003C26.9991 26.4003 25.7786 26.307 24.5991 27.3003C23.0884 28.5727 23.1351 32.1416 23.1351 32.1416Z" fill="white"/>
<path d="M4.99121 3.91833C8.25521 4.68633 23.6392 11.0223 29.2072 14.3823C29.6836 14.6755 30.216 14.6749 30.8149 14.6742C31.4139 14.6736 33.4809 14.8102 35.0991 15.3003C35.0991 15.3003 41.0991 17.1663 41.1455 20.2426C41.1455 20.2426 41.2954 22.2668 40.7991 23.4063C40.4271 24.2605 40.0613 24.6875 39.3832 25.3263C35.9528 28.5584 28.2981 24.0963 28.1512 21.6003C28.0552 19.9683 27.7672 19.1343 26.4232 18.3663C24.9049 17.5228 21.1501 14.6865 16.1991 12.6003L4.99121 8.10032V3.91833Z" fill="white"/>
</svg>
