<svg width="48" height="48" viewBox="0 0 48 48" fill="none" xmlns="http://www.w3.org/2000/svg">
<g clip-path="url(#clip0_677_6723)">
<path fill-rule="evenodd" clip-rule="evenodd" d="M47.7713 24.3104C47.7713 23.9833 47.5061 23.7181 47.1791 23.7181H31.7969C28.876 24.4599 29.2555 26.8054 29.3864 27.6145C29.3907 27.6414 29.3948 27.6667 29.3985 27.6901C29.4617 28.1179 29.7149 28.9213 29.9784 29.7573C30.2475 30.6111 30.5274 31.499 30.6264 32.0556C30.81 33.1026 30.7622 34.1772 30.4865 35.2038C30.2107 36.2304 29.7137 37.1843 29.0302 37.9984C28.3467 38.8126 27.4934 39.4673 26.53 39.9167C25.5667 40.3661 24.5167 40.5992 23.4537 40.5997C22.4623 40.6001 21.4814 40.3976 20.5712 40.0046C19.6611 39.6116 18.8411 39.0365 18.1616 38.3146C17.4821 37.5927 16.9576 36.7394 16.6204 35.8071C16.2831 34.8749 16.1403 33.8835 16.2006 32.894L16.2059 32.7953C16.3336 30.6632 16.5863 28.8627 16.8271 27.1873C16.9827 26.1762 16.4573 24.3554 14.1165 23.7181H0.983848C0.656759 23.7181 0.391602 23.9833 0.391602 24.3104V42.3739C0.391602 43.5529 1.25287 44.5307 2.38056 44.7126H45.7823C46.91 44.5307 47.7713 43.5529 47.7713 42.3739V24.3104Z" fill="#FB7185"/>
<path d="M19.4345 27.577C19.1726 29.3459 18.9515 31.012 18.8331 32.9546L18.8226 33.0625C18.7889 33.7149 18.8933 34.367 19.1289 34.9762C19.3645 35.5854 19.726 36.1381 20.1898 36.5981C20.6535 37.0581 21.2091 37.4151 21.8203 37.6457C22.4314 37.8763 23.0843 37.9754 23.7364 37.9365C24.3884 37.8975 25.0249 37.7215 25.6043 37.4197C26.1836 37.118 26.6928 36.6975 27.0985 36.1856C27.5043 35.6736 27.7974 35.0819 27.9588 34.4489C28.1202 33.816 28.1463 33.1561 28.0353 32.5124C27.7879 31.1305 26.7139 27.4428 26.7139 27.4428C23.3105 16.9815 29.0723 7.84635 33.9525 3.65588C30.2997 5.40036 28.2478 7.09213 25.6043 10.3187C24.0512 11.7792 21.5997 15.9003 20.6998 20.4003C19.7976 24.9108 19.4345 27.0848 19.4345 27.577Z" fill="#384C6C"/>
</g>
<defs>
<clipPath id="clip0_677_6723">
<rect width="47.9999" height="41.1427" fill="white" transform="translate(0 3.60034)"/>
</clipPath>
</defs>
</svg>
