<svg width="48" height="48" viewBox="0 0 48 48" fill="none" xmlns="http://www.w3.org/2000/svg">
<path fill-rule="evenodd" clip-rule="evenodd" d="M24.9209 1.79813C24.4946 1.20625 21.8737 -0.543333 19.8812 0.166924C17.5951 0.981817 17.4759 2.25146 17.2636 4.51414C17.2446 4.71663 17.2248 4.92708 17.2027 5.14587C17.1586 5.58205 17.4765 6.98451 17.7383 8.13952C17.913 8.91033 18.0627 9.57093 18.0632 9.76057C18.0637 9.95224 18.0731 10.1426 18.0826 10.3332C18.1182 11.0523 18.154 11.7765 17.7127 12.5972C17.9078 12.6185 18.5874 12.4961 18.9019 11.592C18.9912 12.8306 20.1593 12.7884 20.3463 12.4961C20.1779 12.1433 20.2804 12.0204 20.4389 11.8304C20.5687 11.6749 20.7359 11.4744 20.8227 11.066C20.9822 10.3152 20.8831 8.89328 20.8399 8.27246C20.8297 8.12739 20.8227 8.02607 20.8227 7.98727C20.8226 5.81401 21.7665 2.88257 23.3422 3.62879C23.3772 3.6304 23.4155 3.62942 23.4563 3.62588C22.6723 4.76046 22.1919 6.23763 22.523 7.4936C23.2892 10.3995 22.534 11.2884 21.9351 11.9934C21.8112 12.1392 21.6941 12.2771 21.5984 12.4233C20.2982 14.4112 13.533 20.6555 10.9653 22.5369C10.6917 22.7373 10.4486 22.8944 10.2349 23.0325C9.35341 23.6019 8.972 23.8484 9.01334 25.4845C9.06471 27.5174 15.6911 28.9912 17.8486 29.2962C20.006 29.6011 20.3528 30.0144 20.0446 31.2849C19.3224 33.0501 18.9795 33.6399 18.299 34.8102L18.1768 35.0205C17.8947 35.5062 17.3803 36.3662 17.2835 36.5129C14.8692 40.172 14.2894 43.6293 16.7185 46.3215C19.2983 49.1808 27.2488 47.6657 29.5035 46.3215C33.4727 43.9551 36.5867 41.2389 36.125 35.0205C35.8477 31.2849 31.8151 27.8076 29.5035 26.0288C31.7123 23.9959 32.028 22.286 31.1002 21.7422C31.0349 21.7039 30.9666 21.6644 30.8956 21.6233L30.8955 21.6232C29.9568 21.0801 28.5381 20.2592 27.2488 18.3695C27.1387 18.208 27.0351 18.057 26.9381 17.9155L26.9381 17.9155C26.0665 16.6442 25.7232 16.1434 25.8619 15.7776C26.1258 15.0814 26.8524 14.2766 27.1321 14.4954C28.018 15.1883 28.8449 15.4771 29.5035 15.129C29.8214 14.9609 30.4248 14.6033 30.8959 14.0496C31.0564 13.861 31.1614 13.6201 31.2573 13.4002C31.3983 13.0765 31.5196 12.7981 31.7692 12.7981C32.5141 12.7981 32.4533 12.5097 32.3635 12.0844C32.3295 11.9233 32.2913 11.7424 32.2913 11.5502C32.2913 8.90174 32.6753 8.27558 32.8914 7.92332C32.9823 7.77502 33.0435 7.67526 33.0337 7.4936C32.8922 4.86277 31.9966 4.14763 31.0384 3.38254C30.9911 3.34471 30.9435 3.30675 30.8959 3.26843C28.9854 1.60066 26.3143 1.49252 25.0104 2.13354C24.9984 2.02661 24.9696 1.91472 24.9209 1.79813ZM19.6491 21.4804L19.6427 21.447L15.264 24.4793C15.7954 24.9689 19.0083 26.9982 20.3673 27.2857C20.6546 26.6901 19.8977 22.7682 19.6491 21.4804Z" fill="#F26674"/>
</svg>
