<svg width="48" height="48" viewBox="0 0 48 48" fill="none" xmlns="http://www.w3.org/2000/svg">
<g clip-path="url(#clip0_311_8784)">
<g clip-path="url(#clip1_311_8784)">
<path d="M26.1847 24.3721C26.1847 24.3721 26.1847 41.4221 26.1847 41.7339C26.1847 42.0458 26.6577 42.9189 27.8239 42.9189C28.9839 42.9189 29.4672 42.0458 29.4672 41.7339C29.4672 41.4221 29.4672 24.3721 29.4672 24.3721C29.4672 22.6467 29.4672 21.662 30.1237 20.6772C30.7802 19.6925 31.7649 19.036 33.0779 19.036H34.3908L34.3908 15.7617C32.2437 15.7617 30.7802 15.4254 28.2336 17.9143C27.5898 18.7222 26.8663 19.5638 26.513 20.6772C26.1847 21.9903 26.1849 23.1504 26.1847 24.3721Z" fill="#4B94E2"/>
<path d="M21.7842 24.3721C21.7842 24.3721 21.7842 41.4221 21.7842 41.7339C21.7842 42.0458 21.3113 42.9189 20.145 42.9189C18.985 42.9189 18.5017 42.0458 18.5017 41.7339C18.5017 41.4221 18.5017 24.3721 18.5017 24.3721C18.5017 22.6467 18.5017 21.662 17.8453 20.6772C17.1888 19.6925 16.2041 19.036 14.8911 19.036H13.5781L13.5782 15.7617C15.7253 15.7617 17.1888 15.4254 19.7354 17.9143C20.3792 18.7222 21.1027 19.5638 21.4559 20.6772C21.7842 21.9903 21.7841 23.1504 21.7842 24.3721Z" fill="#C4455E"/>
<path d="M12.6701 21.5525C13.4248 22.3225 13.9352 23.2983 14.1372 24.3574C14.3391 25.4166 14.2235 26.5118 13.805 27.5054C13.3865 28.4991 12.6837 29.3469 11.7849 29.9425C10.8861 30.538 9.8313 30.8546 8.75309 30.8526C8.75309 30.8526 0 31.9468 0 17.723C0 11.7162 2.05698 8.68543 4.29996 7.16458C8.56709 4.26511 15.3179 5.54525 15.3179 11.1582C15.3183 11.9067 15.1651 12.6473 14.8677 13.3343C14.5704 14.0212 14.1352 14.6398 13.5892 15.1518C14.1361 16.1779 14.3418 17.3515 14.1765 18.5024C14.0113 19.6534 13.4836 20.7217 12.6701 21.5525Z" fill="#F26674"/>
<path d="M35.0694 21.5523C34.3147 22.3223 33.8043 23.2982 33.6024 24.3573C33.4005 25.4164 33.516 26.5116 33.9345 27.5053C34.353 28.499 35.0559 29.3468 35.9547 29.9423C36.8535 30.5379 37.9083 30.8545 38.9865 30.8525C38.9865 30.8525 47.7396 31.9466 47.7396 17.7229C47.7396 4.59323 37.8923 5.68737 37.8923 5.68737C36.7947 5.68676 35.7223 6.01633 34.8145 6.63324C33.9067 7.25015 33.2054 8.12587 32.8018 9.14659C32.3983 10.1673 32.3111 11.2858 32.5516 12.3567C32.792 13.4277 33.3491 14.4015 34.1504 15.1516C33.6035 16.1777 33.3977 17.3514 33.563 18.5023C33.7283 19.6533 34.2559 20.7216 35.0694 21.5523V21.5523Z" fill="#F26674"/>
</g>
</g>
<defs>
<clipPath id="clip0_311_8784">
<rect width="47.9999" height="48" fill="white"/>
</clipPath>
<clipPath id="clip1_311_8784">
<rect width="47.9999" height="37.5383" fill="white" transform="translate(0 5.40002)"/>
</clipPath>
</defs>
</svg>
