<svg width="48" height="50" viewBox="0 0 48 50" fill="none" xmlns="http://www.w3.org/2000/svg">
<path d="M28.5825 24.4432C27.8625 26.8432 28.102 28.2478 29.7825 28.9432C32.6827 30.1432 35.7825 28.0432 35.7825 23.8432C35.7825 20.1174 34.5825 19.7432 33.3825 19.9432C29.9827 20.5098 29.3025 22.0432 28.5825 24.4432Z" fill="#384C6C"/>
<path d="M18.3 35.8004C17.58 31.9604 15.8 25.9004 15 23.2004C16.44 22.7204 17.7 21.0004 18.3 19.9004C19.5 21.8204 23.7 24.7004 26.4 25.0004C26.4 25.3004 26.1 26.2004 26.4 27.4004C26.7541 28.8167 27.9 30.0004 28.5 30.4004L30 47.5004C29.6 47.9004 28.14 48.7604 25.5 49.0004C22.86 49.2404 20.6 48.5004 19.8 48.1004C19.6 45.6004 19.02 39.6404 18.3 35.8004Z" fill="#8999B3"/>
<path d="M20.1 13.9004C20.1269 11.396 19.5 7.90039 18.9 7.00039L20.7 6.40039C20.9 7.10039 21.84 9.16039 22.8 10.6004C24 12.4004 24.5325 12.2167 25.5 12.7004C26.1 13.0004 26.7 13.3004 26.4 14.5004C26.2 15.3004 25.86 17.1404 27.3 18.1004C28.74 19.0604 29.5 19.5004 29.7 19.6004C27.54 20.5604 26.8 22.6004 26.7 23.5004C23.82 22.5404 20.4 20.5004 19.2 18.1004C19.3 17.5004 20.0822 15.5571 20.1 13.9004Z" fill="#8999B3"/>
<path d="M11.4525 11.6229C12.399 8.78341 12.8998 7.60045 15.5998 7.30044C17.5473 7.08405 18.229 9.72996 18.3642 11.4877C18.4994 13.2454 18.8121 14.6979 17.6998 17.2004C16.4998 19.9004 15.1868 21.2047 14.0998 21.7004C13.1998 20.8004 12.1174 18.9784 11.4684 17.5722C10.6571 15.8145 10.506 14.4623 11.4525 11.6229Z" fill="#384C6C"/>
<path d="M36.9533 12.9232C35.8116 16.4609 33.687 17.485 31.9256 17.566C30.1641 17.647 28.4998 16.9246 28.4998 15.1002C28.4998 12.4002 29.6998 11.2002 26.6997 10.3002C23.6996 9.40024 22.7135 7.14627 22.7997 4.60024C22.8932 1.84032 26.0018 0.261538 30.4524 1.14618C33.3543 1.723 36.1559 4.50832 36.7858 5.88254C37.4157 7.25676 37.8602 10.1129 36.9533 12.9232Z" fill="#408FF1"/>
</svg>
