<svg width="48" height="48" viewBox="0 0 48 48" fill="none" xmlns="http://www.w3.org/2000/svg">
<g clip-path="url(#clip0_677_6729)">
<path d="M47.9058 15.7559C47.9058 17.0468 47.6093 18.2517 47.0356 19.3131C46.9878 19.1314 46.94 18.9497 46.8731 18.768C46.1176 16.6834 44.1765 15.2109 41.9102 14.924C41.3747 13.7956 39.9977 13.1454 38.1139 13.1454C34.2029 13.1454 32.2235 15.4403 31.4776 20.7953C31.0855 23.7118 29.4503 26.504 28.1594 28.3304C27.5857 29.1337 27.2892 30.0899 27.2892 31.1036V40.151C27.2892 40.6864 26.735 41.2302 26.209 41.2302H21.7782C21.2523 41.2302 20.7008 40.6864 20.7008 40.151V31.1036C20.7008 30.0899 20.4043 29.1337 19.8401 28.3304C18.5397 26.504 16.914 23.7118 16.5124 20.7953C15.7761 15.4403 13.7871 13.1454 9.8857 13.1454C8.00188 13.1454 6.62489 13.7956 6.07982 14.924C3.80397 15.2204 1.8724 16.693 1.12651 18.7585C1.05956 18.9306 1.00219 19.1123 0.963961 19.294C0.380669 18.2325 0.09375 17.0468 0.09375 15.7559C0.09375 13.1071 1.05956 10.7261 2.81907 9.06223C4.62638 7.35058 7.12215 6.48037 9.85699 6.6334C14.7816 6.90112 17.4017 9.32995 19.515 11.2807C21.0546 12.7151 22.2785 13.8434 23.9998 13.8434C25.7115 13.8434 26.9354 12.7151 28.4845 11.2807C30.5883 9.32995 33.2179 6.90112 38.1426 6.6334C38.3434 6.62383 38.5538 6.61426 38.7546 6.61426C41.2408 6.61426 43.4975 7.47484 45.1709 9.06223C46.9304 10.7261 47.9058 13.1071 47.9058 15.7559Z" fill="#FB7185"/>
<path d="M11.2344 18.6629C11.9994 19.5331 12.1906 20.5753 11.789 21.6846C11.1388 23.4728 9.05418 25.0888 7.00781 25.0888C6.59663 25.0888 6.18545 25.0219 5.78379 24.8784C4.65544 24.4672 3.73748 23.6927 3.19242 22.6791C2.62821 21.6368 2.53261 20.4797 2.92464 19.4183C3.6992 17.2668 6.26191 16.2149 8.61429 17.066C9.80959 17.4963 10.6702 18.0222 11.2344 18.6629ZM44.7984 22.6791C44.2534 23.6927 43.3354 24.4672 42.2166 24.8784C41.8149 25.0219 41.4037 25.0888 40.983 25.0888C38.9367 25.0888 36.8616 23.4728 36.2114 21.6846C35.8098 20.5753 36.001 19.5331 36.766 18.6629C37.3302 18.0222 38.1812 17.4963 39.3765 17.066C41.7385 16.2053 44.2916 17.2668 45.0757 19.4183C45.4582 20.4797 45.3626 21.6368 44.7984 22.6791Z" fill="#BE133C"/>
</g>
<defs>
<clipPath id="clip0_677_6729">
<rect width="47.9999" height="35.0768" fill="white" transform="translate(0 6.60034)"/>
</clipPath>
</defs>
</svg>
