<svg width="48" height="48" viewBox="0 0 48 48" fill="none" xmlns="http://www.w3.org/2000/svg">
<g clip-path="url(#clip0_311_8811)">
<path d="M34.6523 21.6826C34.6523 21.6826 34.5737 21.6041 34.6523 21.6826C34.2595 20.9756 33.5525 19.3258 33.3168 18.1474C33.0811 17.0476 32.6883 16.0263 31.9027 15.2407C31.9027 15.2407 31.9027 15.2407 31.8242 15.2407C31.5885 15.005 31.4314 14.7694 31.4314 14.4551C31.1957 13.6695 30.8814 12.0198 30.7243 10.7628C30.6458 9.19161 29.4674 8.01322 27.8176 7.77754C27.8176 7.77754 26.5607 6.83482 25.6179 6.75626L25.3823 5.10651C25.3823 5.10651 25.9322 4.24235 26.0107 3.69243C26.0107 3.69243 26.7178 3.22107 26.0107 2.43547C26.0107 2.43547 26.4821 0.235801 24.0467 0.00012207C21.6114 0.235801 22.0828 2.43547 22.0828 2.43547C21.3757 3.29963 22.0828 3.69243 22.0828 3.69243C22.1613 4.24235 22.7112 5.10651 22.7112 5.10651L22.3184 6.75626C21.4543 6.83482 20.1188 7.77754 20.1188 7.77754C18.469 8.01322 17.2906 9.19161 17.212 10.7628C17.1335 12.0198 16.7407 13.6695 16.505 14.4551C16.4264 14.7694 16.2693 15.005 16.1122 15.2407C16.1122 15.2407 16.1122 15.2407 16.0336 15.2407C15.2481 16.0263 14.8553 17.1261 14.6196 18.1474C14.3839 19.2473 13.5983 20.897 13.2841 21.6041C13.2841 21.6041 13.2841 21.6041 13.2841 21.6826C13.0484 21.9968 11.87 23.7252 13.2841 24.0394C13.834 24.1965 14.1482 24.0394 14.3839 23.8823C14.541 23.7252 14.6196 23.568 14.6196 23.4109C14.6981 23.0967 14.6981 22.7824 14.6981 22.7824C14.6981 22.4682 14.7767 22.2325 14.8553 21.9968C14.9338 21.6826 15.0909 21.4469 15.3266 21.2113C17.0549 19.0116 17.6834 17.5189 17.9191 16.5762C18.1548 15.7121 18.5476 14.8479 18.8618 14.0623C19.2546 13.1982 19.4117 12.6482 19.4117 12.1769C19.4117 12.0198 19.6474 12.0198 19.6474 12.1769C20.433 14.4551 20.1188 17.8332 19.8045 19.5615C19.6474 20.1114 19.4903 20.7399 19.4117 21.2898C18.2333 24.5893 18.469 29.46 18.7832 32.2882C18.8618 33.388 18.7832 34.4878 18.5476 35.5091C17.9976 37.6302 18.1548 42.5009 18.3119 44.4649C18.3119 45.0934 18.2333 45.6433 17.9191 46.1932L17.5263 46.9003C16.8192 48.0001 17.6834 48.0001 17.6834 48.0001H19.4903C19.8831 48.0001 20.1973 47.6859 20.1973 47.2931C20.1188 44.3864 20.433 42.2653 20.5901 41.4797C20.6687 41.244 20.7472 41.0083 20.8258 40.7726C21.3757 39.3585 21.5328 36.609 21.5328 35.5091C21.5328 35.2734 21.6114 35.0378 21.69 34.8021C24.0467 28.1245 23.8896 24.7464 23.8896 24.7464H23.9682H24.1253C24.1253 24.7464 24.0467 28.1245 26.325 34.8021C26.4035 35.0378 26.4821 35.2734 26.4821 35.5091C26.4821 36.5304 26.5607 39.3585 27.1891 40.7726C27.2677 41.0083 27.3463 41.244 27.4248 41.4797C27.5819 42.2653 27.9747 44.4649 27.8176 47.2931C27.8176 47.6859 28.1318 48.0001 28.5246 48.0001H30.253C30.253 48.0001 31.0386 48.0001 30.4101 46.9003L30.0173 46.1932C29.703 45.6433 29.6245 45.0934 29.6245 44.4649C29.703 42.4224 29.9387 37.6302 29.3888 35.5091C29.1531 34.4093 29.0746 33.3094 29.1531 32.2882C29.3888 29.46 29.6245 24.5893 28.5246 21.2898C28.3675 20.7399 28.2104 20.1114 28.1318 19.5615C27.8962 17.8332 27.5819 14.5337 28.289 12.1769C28.3675 12.0198 28.5246 12.0983 28.5246 12.1769C28.6032 12.5697 28.7603 13.1982 29.0746 14.0623C29.4674 14.8479 29.7816 15.7121 30.0173 16.5762C30.253 17.4404 30.8814 19.0116 32.6098 21.2113C32.7669 21.4469 32.924 21.6826 33.0811 21.9968C33.1597 22.2325 33.2382 22.4682 33.2382 22.7824C33.2382 22.9396 33.3168 23.1752 33.3168 23.4109C33.3168 23.568 33.4739 23.7252 33.5525 23.8823C33.7882 24.0394 34.1024 24.1965 34.6523 24.0394C36.0664 23.7252 34.888 21.9183 34.6523 21.6826Z" fill="#F26674"/>
</g>
<defs>
<clipPath id="clip0_311_8811">
<rect width="48" height="48" fill="white"/>
</clipPath>
</defs>
</svg>
