<svg width="48" height="48" viewBox="0 0 48 48" fill="none" xmlns="http://www.w3.org/2000/svg">
<g clip-path="url(#clip0_311_8801)">
<path d="M23.9999 13.5009C27.3136 13.5009 29.9999 10.8147 29.9999 7.50096C29.9999 4.18726 27.3136 1.50098 23.9999 1.50098C20.6862 1.50098 17.9999 4.18726 17.9999 7.50096C17.9999 10.8147 20.6862 13.5009 23.9999 13.5009Z" fill="#425B72"/>
<path d="M24.7499 8.25098H23.2499C21.5932 8.25098 20.2499 9.59422 20.2499 11.251V12.181C21.2774 13.0052 22.5802 13.501 23.9999 13.501C25.4197 13.501 26.7224 13.0052 27.7499 12.181V11.251C27.7499 9.59422 26.4067 8.25098 24.7499 8.25098Z" fill="#889DAF"/>
<path d="M23.9999 8.25096C25.2426 8.25096 26.2499 7.24361 26.2499 6.00097C26.2499 4.75833 25.2426 3.75098 23.9999 3.75098C22.7573 3.75098 21.7499 4.75833 21.7499 6.00097C21.7499 7.24361 22.7573 8.25096 23.9999 8.25096Z" fill="#889DAF"/>
<path d="M40.4999 30.0009C43.8136 30.0009 46.4999 27.3147 46.4999 24.001C46.4999 20.6873 43.8136 18.001 40.4999 18.001C37.1862 18.001 34.4999 20.6873 34.4999 24.001C34.4999 27.3147 37.1862 30.0009 40.4999 30.0009Z" fill="#425B72"/>
<path d="M41.2499 24.7509H39.7499C38.0931 24.7509 36.7499 26.0941 36.7499 27.7508V28.6808C37.7774 29.5051 39.0801 30.0008 40.4999 30.0008C41.9196 30.0008 43.2224 29.5051 44.2499 28.6808V27.7508C44.2499 26.0941 42.9066 24.7509 41.2499 24.7509Z" fill="#889DAF"/>
<path d="M40.4999 24.751C41.7425 24.751 42.7499 23.7436 42.7499 22.501C42.7499 21.2583 41.7425 20.251 40.4999 20.251C39.2572 20.251 38.2499 21.2583 38.2499 22.501C38.2499 23.7436 39.2572 24.751 40.4999 24.751Z" fill="#889DAF"/>
<path d="M7.49997 30.0009C10.8137 30.0009 13.5 27.3147 13.5 24.001C13.5 20.6873 10.8137 18.001 7.49997 18.001C4.18628 18.001 1.49999 20.6873 1.49999 24.001C1.49999 27.3147 4.18628 30.0009 7.49997 30.0009Z" fill="#425B72"/>
<path d="M8.24997 24.7509H6.74998C5.09323 24.7509 3.74998 26.0941 3.74998 27.7508V28.6808C4.77748 29.5051 6.08023 30.0008 7.49997 30.0008C8.91972 30.0008 10.2225 29.5051 11.25 28.6808V27.7508C11.25 26.0941 9.90672 24.7509 8.24997 24.7509Z" fill="#889DAF"/>
<path d="M7.49998 24.751C8.74261 24.751 9.74997 23.7436 9.74997 22.501C9.74997 21.2583 8.74261 20.251 7.49998 20.251C6.25734 20.251 5.24998 21.2583 5.24998 22.501C5.24998 23.7436 6.25734 24.751 7.49998 24.751Z" fill="#889DAF"/>
<path d="M23.9999 37.5008C26.071 37.5008 27.7499 35.8219 27.7499 33.7508C27.7499 31.6798 26.071 30.0009 23.9999 30.0009C21.9289 30.0009 20.2499 31.6798 20.2499 33.7508C20.2499 35.8219 21.9289 37.5008 23.9999 37.5008Z" fill="#4B94E2"/>
<path d="M25.1624 38.1008H22.5749C19.717 38.1008 17.3999 40.4035 17.3999 43.2437V44.838C19.1724 46.251 21.4196 47.1008 23.8687 47.1008C26.3177 47.1008 28.565 46.251 30.3374 44.838V43.2437C30.3374 40.4035 28.0203 38.1008 25.1624 38.1008Z" fill="#4B94E2"/>
<path d="M29.78 14.4705L28.7193 15.5311L33.2193 20.0309L34.2799 18.9702L29.78 14.4705Z" fill="#889DAF"/>
<path d="M18.2192 14.4709L13.7195 18.9708L14.7802 20.0315L19.2799 15.5315L18.2192 14.4709Z" fill="#889DAF"/>
<path d="M14.78 27.2205L13.7194 28.2811L18.2193 32.7809L19.2799 31.7202L14.78 27.2205Z" fill="#889DAF"/>
<path d="M33.2193 27.221L28.7195 31.7209L29.7802 32.7816L34.2799 28.2817L33.2193 27.221Z" fill="#889DAF"/>
</g>
<defs>
<clipPath id="clip0_311_8801">
<rect width="47.9999" height="48" fill="white" transform="translate(0 0.000976562)"/>
</clipPath>
</defs>
</svg>
