<svg width="48" height="48" viewBox="0 0 48 48" fill="none" xmlns="http://www.w3.org/2000/svg">
<g clip-path="url(#clip0_677_6747)">
<path d="M35.2634 15.1309C35.2634 15.1309 35.7275 4.33743 24.3096 2.01125C21.6176 1.45297 18.8327 2.01125 16.6977 3.59305C12.8917 6.38446 8.0646 12.8047 11.2208 26.4826C11.9634 29.7393 13.4487 32.7168 15.5837 35.2291C16.9761 36.8109 18.6471 39.2301 19.5753 42.1146C19.5753 42.1146 22.9172 50.5818 31.0861 43.1381C31.0861 43.1381 32.4785 41.1841 32.5713 38.7649C32.5713 38.7649 37.0271 35.3221 34.2423 29.5532C34.2423 29.5532 32.6642 26.0174 36.2845 22.5747C36.1916 22.6677 38.9765 18.7597 35.2634 15.1309Z" fill="#FB7185"/>
<path opacity="0.9" d="M31.1118 32.4191C28.6338 27.7052 30.1941 25.1596 30.1941 25.1596C31.7543 21.7656 29.0927 23.3683 29.0927 23.3683C22.2094 26.9509 21.3834 25.2539 21.2917 24.3111C21.2917 24.0283 21.4752 23.7454 21.8423 23.7454C24.5956 23.3683 27.349 21.1999 27.349 21.1999C35.2418 10.2635 26.9819 8.94361 26.9819 8.94361C15.6933 4.41821 14.4084 14.7889 14.4084 14.7889C11.3797 25.5367 20.6492 33.0791 20.6492 33.0791C21.7506 33.3619 21.1999 32.4191 21.1999 32.4191C12.8482 22.5198 16.7946 15.166 16.7946 15.166C20.1903 8.75505 21.4752 13.6576 21.4752 13.6576C18.9055 16.4859 19.3643 22.3313 19.3643 22.3313C20.0068 30.5335 27.349 30.7221 27.349 30.7221C26.0641 32.7962 28.5421 34.0219 28.5421 34.0219C31.9378 34.8704 31.1118 32.4191 31.1118 32.4191Z" fill="#BE133C"/>
</g>
<defs>
<clipPath id="clip0_677_6747">
<rect width="27.4235" height="44.4" fill="white" transform="translate(10.2002 1.80042)"/>
</clipPath>
</defs>
</svg>
