<svg width="48" height="48" viewBox="0 0 48 48" fill="none" xmlns="http://www.w3.org/2000/svg">
<path d="M7.4999 12.0004C6.3401 12.0004 5.3999 12.9406 5.3999 14.1004C5.3999 15.2602 6.3401 16.2004 7.4999 16.2004H33.2999C34.4597 16.2004 35.3999 15.2602 35.3999 14.1004C35.3999 12.9406 34.4597 12.0004 33.2999 12.0004H7.4999Z" fill="#8999B3"/>
<path d="M5.3999 23.1004C5.3999 21.9406 6.34011 21.0004 7.4999 21.0004H33.2999C34.4597 21.0004 35.3999 21.9406 35.3999 23.1004C35.3999 24.2602 34.4597 25.2004 33.2999 25.2004H7.4999C6.34011 25.2004 5.3999 24.2602 5.3999 23.1004Z" fill="#8999B3"/>
<path d="M5.3999 32.1004C5.3999 30.9406 6.34011 30.0004 7.4999 30.0004H33.2999C34.4597 30.0004 35.3999 30.9406 35.3999 32.1004C35.3999 33.2602 34.4597 34.2004 33.2999 34.2004H7.4999C6.34011 34.2004 5.3999 33.2602 5.3999 32.1004Z" fill="#8999B3"/>
<ellipse cx="34.6069" cy="32.3291" rx="12" ry="12" fill="white"/>
<path d="M45.0695 32.3292C45.0695 38.1075 40.3853 42.7917 34.607 42.7917C28.8287 42.7917 24.1445 38.1075 24.1445 32.3292C24.1445 26.5509 28.8287 21.8667 34.607 21.8667C40.3853 21.8667 45.0695 26.5509 45.0695 32.3292ZM33.3968 37.869L41.1593 30.1065C41.4229 29.8429 41.4229 29.4155 41.1593 29.1519L40.2048 28.1974C39.9412 27.9337 39.5138 27.9337 39.2501 28.1974L32.9195 34.5279L29.9639 31.5723C29.7003 31.3087 29.2729 31.3087 29.0093 31.5723L28.0547 32.5269C27.7911 32.7905 27.7911 33.2179 28.0547 33.4815L32.4422 37.869C32.7059 38.1326 33.1332 38.1326 33.3968 37.869Z" fill="#408FF1"/>
</svg>
