<svg width="48" height="48" viewBox="0 0 48 48" fill="none" xmlns="http://www.w3.org/2000/svg">
<g clip-path="url(#clip0_677_6731)">
<g clip-path="url(#clip1_677_6731)">
<path d="M1.04725 42.8615L9.89312 34.0157C11.0833 35.5426 12.4575 36.9168 13.9844 38.107L5.13863 46.9529C4.87 47.2215 4.55108 47.4347 4.20008 47.5801C3.84908 47.7255 3.47287 47.8003 3.09294 47.8003C2.71301 47.8003 2.3368 47.7255 1.9858 47.5801C1.6348 47.4347 1.31588 47.2215 1.04725 46.9529C0.778578 46.6842 0.565449 46.3653 0.420039 46.0143C0.27463 45.6633 0.199787 45.2871 0.199787 44.9072C0.199787 44.5273 0.27463 44.151 0.420039 43.8C0.565449 43.449 0.778578 43.1301 1.04725 42.8615Z" fill="#384C6C"/>
<path fill-rule="evenodd" clip-rule="evenodd" d="M26.4969 43.0057C14.6213 43.0057 4.99419 33.3786 4.99419 21.503C4.99419 9.62744 14.6213 0.000366211 26.4969 0.000366211C38.3724 0.000366211 47.9995 9.62744 47.9995 21.503C47.9995 33.3786 38.3724 43.0057 26.4969 43.0057ZM26.4474 39.5715C16.4958 39.5715 8.42839 31.5041 8.42839 21.5525C8.42839 11.6009 16.4958 3.5335 26.4474 3.5335C36.399 3.5335 44.4664 11.6009 44.4664 21.5525C44.4664 31.5041 36.399 39.5715 26.4474 39.5715Z" fill="#8999B3"/>
</g>
<path d="M26.3997 37.8003C35.3466 37.8003 42.5996 30.5473 42.5996 21.6003C42.5996 12.6534 35.3466 5.40039 26.3997 5.40039C17.4527 5.40039 10.1997 12.6534 10.1997 21.6003C10.1997 30.5473 17.4527 37.8003 26.3997 37.8003Z" fill="white"/>
<path fill-rule="evenodd" clip-rule="evenodd" d="M42.5009 19.8022C42.451 19.801 42.4009 19.8004 42.3506 19.8004C38.9093 19.8004 36.1196 22.5901 36.1196 26.0314C36.1196 28.3502 37.3862 30.3732 39.2654 31.4462C41.3567 28.7174 42.5996 25.304 42.5996 21.6004C42.5996 20.9926 42.5661 20.3926 42.5009 19.8022Z" fill="#FB7185"/>
<path fill-rule="evenodd" clip-rule="evenodd" d="M12.5592 30.0239C12.8821 30.0755 13.2133 30.1024 13.5507 30.1024C16.992 30.1024 19.7817 27.3126 19.7817 23.8714C19.7817 20.4301 16.992 17.6404 13.5507 17.6404C12.4463 17.6404 11.409 17.9277 10.5095 18.4317C10.3063 19.4564 10.1997 20.516 10.1997 21.6004C10.1997 24.6856 11.0622 27.5695 12.5592 30.0239Z" fill="#FB7185"/>
<path d="M14.236 28.3267C13.7325 28.3267 13.2816 27.973 13.1771 27.4603C13.0582 26.875 13.4362 26.3039 14.0215 26.1847C14.6379 26.0595 15.1695 25.7003 15.5179 25.1735C15.8667 24.6467 15.9894 24.0172 15.8641 23.4007C15.7571 22.8751 15.4837 22.4146 15.0735 22.069C14.6164 21.6841 14.558 21.0018 14.9429 20.5449C15.3276 20.088 16.01 20.0296 16.4669 20.4143C17.2431 21.068 17.7817 21.9754 17.9839 22.9693C18.2245 24.152 17.9894 25.3588 17.3219 26.3674C16.6544 27.3758 15.6353 28.064 14.4526 28.3046C14.3799 28.3195 14.3076 28.3267 14.236 28.3267Z" fill="#BE133C"/>
<path fill-rule="evenodd" clip-rule="evenodd" d="M16.4309 14.9825C19.8722 14.9825 22.6619 12.1928 22.6619 8.75151C22.6619 7.76333 22.4318 6.82888 22.0224 5.99878C17.917 7.1483 14.4704 9.87468 12.377 13.4836C13.4667 14.418 14.8828 14.9825 16.4309 14.9825Z" fill="#FB7185"/>
<path fill-rule="evenodd" clip-rule="evenodd" d="M16.0575 12.3403C16.162 12.853 16.6129 13.2067 17.1164 13.2067C17.188 13.2067 17.2603 13.1995 17.333 13.1846C18.5157 12.944 19.5347 12.2558 20.2023 11.2474C20.8698 10.2388 21.1049 9.03195 20.8643 7.84927C20.7717 7.39405 20.6085 6.95694 20.3842 6.55408C19.7091 6.82423 19.0564 7.1385 18.4298 7.49332C18.5802 7.73152 18.6866 7.99658 18.7444 8.28068C18.8698 8.89721 18.747 9.52666 18.3983 10.0535C18.0498 10.5803 17.5183 10.9395 16.9019 11.0647C16.3165 11.1839 15.9386 11.755 16.0575 12.3403Z" fill="#BE133C"/>
<path d="M29.9331 22.0757C33.3744 22.0757 36.1641 19.286 36.1641 15.8448C36.1641 12.4035 33.3744 9.61377 29.9331 9.61377C26.4919 9.61377 23.7021 12.4035 23.7021 15.8448C23.7021 19.286 26.4919 22.0757 29.9331 22.0757Z" fill="#FB7185"/>
<path d="M30.6188 20.3001C30.1153 20.3001 29.6644 19.9464 29.56 19.4337C29.441 18.8484 29.819 18.2773 30.4043 18.1581C31.0207 18.0329 31.5523 17.6737 31.9007 17.1469C32.2495 16.62 32.3722 15.9906 32.2469 15.3741C32.1399 14.8485 31.8665 14.388 31.4563 14.0424C30.9992 13.6575 30.9408 12.9752 31.3257 12.5183C31.7104 12.0614 32.3928 12.003 32.8497 12.3877C33.6259 13.0414 34.1645 13.9488 34.3667 14.9427C34.6073 16.1253 34.3723 17.3321 33.7047 18.3408C33.0372 19.3492 32.0181 20.0374 30.8354 20.278C30.7628 20.2929 30.6904 20.3001 30.6188 20.3001Z" fill="#BE133C"/>
<path fill-rule="evenodd" clip-rule="evenodd" d="M30.8427 37.1834C29.4309 37.5852 27.9404 37.8003 26.3996 37.8003C25.4168 37.8003 24.4544 37.7128 23.5199 37.5451C21.8229 36.4319 20.7021 34.5125 20.7021 32.3313C20.7021 28.89 23.4919 26.1003 26.9331 26.1003C30.3744 26.1003 33.1641 28.89 33.1641 32.3313C33.1641 34.292 32.2585 36.0412 30.8427 37.1834Z" fill="#FB7185"/>
<path d="M27.6188 37.1C27.1153 37.1 26.6644 36.7463 26.56 36.2337C26.441 35.6483 26.819 35.0772 27.4043 34.958C28.0207 34.8328 28.5523 34.4736 28.9007 33.9468C29.2495 33.42 29.3722 32.7905 29.2469 32.174C29.1399 31.6484 28.8665 31.188 28.4563 30.8423C27.9992 30.4574 27.9408 29.7751 28.3257 29.3182C28.7104 28.8613 29.3928 28.8029 29.8497 29.1876C30.6259 29.8413 31.1645 30.7487 31.3667 31.7426C31.6073 32.9253 31.3723 34.1321 30.7047 35.1407C30.0372 36.1492 29.0181 36.8373 27.8354 37.0779C27.7628 37.0928 27.6904 37.1 27.6188 37.1Z" fill="#BE133C"/>
</g>
<defs>
<clipPath id="clip0_677_6731">
<rect width="47.9997" height="47.9999" fill="white" transform="matrix(-1 0 0 1 47.9995 0.000366211)"/>
</clipPath>
<clipPath id="clip1_677_6731">
<rect width="47.9999" height="47.9999" fill="white" transform="matrix(-1 0 0 1 47.9995 0.000366211)"/>
</clipPath>
</defs>
</svg>
