<svg width="48" height="48" viewBox="0 0 48 48" fill="none" xmlns="http://www.w3.org/2000/svg">
<g clip-path="url(#clip0_677_6739)">
<path fill-rule="evenodd" clip-rule="evenodd" d="M26.3285 2.42569C25.9079 1.84184 23.3226 0.116022 21.3571 0.816635C19.1021 1.62046 18.9845 2.87287 18.7751 5.10482C18.7563 5.30457 18.7368 5.51216 18.715 5.72798C18.6715 6.15824 18.9851 7.54166 19.2433 8.68098C19.4157 9.44133 19.5634 10.093 19.5638 10.28C19.5643 10.4691 19.5736 10.6568 19.5829 10.8449C19.618 11.5542 19.6534 12.2686 19.2181 13.0782C19.4105 13.0991 20.0809 12.9784 20.3912 12.0866C20.4793 13.3084 21.6315 13.2667 21.8159 12.9784C21.6498 12.6304 21.751 12.5092 21.9073 12.3218C22.0353 12.1683 22.2002 11.9706 22.2858 11.5678C22.4432 10.8271 22.3455 9.42451 22.3028 8.81212C22.2928 8.66902 22.2858 8.56907 22.2858 8.53079C22.2858 6.38705 23.2168 3.49541 24.7711 4.23149C24.8058 4.23309 24.8436 4.23211 24.8841 4.22859C24.1107 5.34776 23.6368 6.80484 23.9635 8.04374C24.7193 10.9102 23.9744 11.787 23.3835 12.4824C23.2614 12.6262 23.1458 12.7623 23.0514 12.9065C21.7689 14.8674 15.0956 21.027 12.5627 22.8827C12.2928 23.0805 12.053 23.2354 11.8422 23.3716C10.9727 23.9334 10.5965 24.1764 10.6373 25.7904C10.6879 27.7957 17.2244 29.2495 19.3525 29.5503C21.4807 29.8511 21.8227 30.2587 21.5187 31.512C20.8064 33.2532 20.4681 33.8351 19.7968 34.9894L19.6763 35.1968C19.3981 35.676 18.8906 36.5243 18.7951 36.669C16.4136 40.2784 15.8417 43.6887 18.2378 46.3444C20.7825 49.1649 28.6251 47.6704 30.8492 46.3444C34.7645 44.0102 37.8362 41.3308 37.3808 35.1968C37.1073 31.512 33.1294 28.0819 30.8492 26.3273C33.0281 24.322 33.3394 22.6353 32.4242 22.0989C32.3598 22.0611 32.2924 22.0221 32.2223 21.9815C31.2964 21.4458 29.8969 20.6361 28.6251 18.7719C28.5165 18.6127 28.4143 18.4637 28.3187 18.3241C27.4589 17.0701 27.1203 16.5761 27.2571 16.2152C27.5174 15.5285 28.2341 14.7346 28.51 14.9504C29.3839 15.634 30.1995 15.9188 30.8492 15.5754C31.1628 15.4097 31.758 15.0569 32.2227 14.5107C32.3811 14.3247 32.4846 14.0871 32.5792 13.8701C32.7183 13.5508 32.838 13.2762 33.0841 13.2762C33.819 13.2762 33.7589 12.9917 33.6704 12.5722C33.6368 12.4133 33.5992 12.2349 33.5992 12.0453C33.5992 9.43276 33.978 8.8151 34.1911 8.46762C34.2808 8.32134 34.3411 8.22294 34.3315 8.04374C34.1919 5.44863 33.3084 4.7432 32.3633 3.9885C32.3166 3.95118 32.2697 3.91374 32.2227 3.87594C30.3379 2.23063 27.7028 2.12412 26.4167 2.75666C26.4049 2.65114 26.3764 2.54073 26.3285 2.42569ZM21.1286 21.8407L21.1223 21.8078L16.803 24.7989C17.3272 25.2819 20.4965 27.2836 21.837 27.5672C22.1205 26.9796 21.3738 23.111 21.1286 21.8407Z" fill="#FB7185"/>
</g>
<defs>
<clipPath id="clip0_677_6739">
<rect width="48" height="48" fill="white" transform="translate(-0.000488281 0.000366211)"/>
</clipPath>
</defs>
</svg>
