<svg width="48" height="48" viewBox="0 0 48 48" fill="none" xmlns="http://www.w3.org/2000/svg">
<g clip-path="url(#clip0_677_6737)">
<path d="M35.784 35.5113C40.0373 35.5113 43.4839 32.7173 43.4839 29.278C43.4848 28.541 43.3246 27.8127 43.0146 27.144V27.1367L34.684 22.3114L32.125 25.9012L21.7524 26.5927V32.2876C21.7524 34.0848 23.2094 35.5418 25.0066 35.5418H25.0799C25.5497 35.5418 25.9969 35.7433 26.3083 36.095L32.2107 43.8807C32.5319 44.2399 32.9898 44.4467 33.4717 44.4502H33.4798C33.9245 44.4509 34.3511 44.2745 34.6656 43.9601C34.98 43.6456 35.1564 43.219 35.1557 42.7743L34.638 35.4422C35.0179 35.49 35.4007 35.5131 35.784 35.5113Z" fill="#BE133C"/>
<path d="M45.1746 16.9277C44.7048 16.6225 44.192 16.3894 43.6532 16.2362C43.6695 16.1305 43.6776 16.0328 43.6858 15.9271C43.702 15.6667 43.7183 15.4064 43.7183 15.1461C43.6816 10.4107 39.9621 6.52359 35.2329 6.27835C35.1353 6.18072 35.0296 6.09123 34.9238 6.00174C33.3018 4.59054 31.2243 3.81329 29.0744 3.81328C27.9607 3.81645 26.8573 4.02609 25.8202 4.43158H25.812C25.3046 4.01653 24.7331 3.6868 24.1198 3.45532C23.3681 3.14995 22.5638 2.99516 21.7524 2.99973C20.7616 2.99655 19.7837 3.225 18.8968 3.66684C18.3629 3.92875 17.8674 4.26271 17.4243 4.65938L17.4162 4.66751C17.3511 4.62684 17.2779 4.58616 17.2046 4.54548C14.9266 3.25704 12.062 3.70138 10.2813 5.61937C9.86796 6.05096 9.52974 6.54868 9.28065 7.0919C9.10167 7.07563 8.92269 7.06749 8.73557 7.06749C5.5915 7.07018 3.0434 9.61828 3.04071 12.7624C3.04071 12.8193 3.04884 12.8925 3.04884 12.9495V12.9657C0.579047 14.6713 -0.134223 18.0058 1.42174 20.5725C1.42174 20.5806 1.42174 20.5806 1.42987 20.5887C1.42174 20.6945 1.4136 20.7921 1.4136 20.8979C1.41194 21.6375 1.52445 22.3729 1.74716 23.0782V23.0863C2.63169 25.9132 5.13411 27.9274 8.08473 28.1873C8.30088 28.2105 8.51818 28.2214 8.73557 28.2198C9.06491 28.216 9.39368 28.1915 9.71997 28.1466C9.75251 28.2768 9.78505 28.4151 9.81759 28.5453C9.83386 28.6185 9.85827 28.6917 9.87454 28.7568C9.99519 29.152 10.1504 29.5359 10.3383 29.9039C10.4196 30.0666 10.5091 30.2293 10.6067 30.392C11.9355 32.5765 14.3061 33.9113 16.863 33.9147H16.8711C18.9246 33.9158 20.8833 33.0502 22.2649 31.531C22.6351 31.1286 22.9598 30.6866 23.2331 30.213V30.2049C23.412 30.3025 23.591 30.392 23.77 30.4734C23.7928 30.4876 23.8174 30.4985 23.8432 30.5059C28.4927 32.6488 34.0096 31.1426 36.9251 26.9344C37.256 26.4703 37.5446 25.9775 37.7875 25.4619C37.7875 25.4538 37.7956 25.4538 37.7956 25.4456C39.2538 27.1369 41.566 27.8198 43.7091 27.1923C45.8522 26.5647 47.4308 24.7425 47.7464 22.5318C48.062 20.3211 47.0564 18.1299 45.1746 16.9277Z" fill="#FB7185"/>
<path d="M25.8744 4.41064C25.5245 4.9952 25.1886 5.89285 25.1886 6.52364C25.1886 6.9191 25.2333 7.25992 25.2703 7.54172L25.285 7.65441L25.2859 7.66102C25.3942 8.4128 25.3989 8.44548 24.8095 8.70169C24.4497 8.85592 24.0513 8.89446 23.6273 8.93299C22.6443 9.01652 21.3079 9.13864 21.0894 11.2267C21.0509 11.5801 21.3079 11.8949 21.6613 11.9335C21.6709 11.9335 21.6821 11.9351 21.6933 11.9367C21.7046 11.9383 21.7158 11.9399 21.7255 11.9399C22.0532 11.9399 22.3294 11.6893 22.368 11.3616C22.4705 10.3235 22.7904 10.2953 23.7291 10.2122L23.7365 10.2116C24.2248 10.1666 24.7709 10.1152 25.3171 9.87745C26.8141 9.23495 26.6791 8.29691 26.5571 7.47452L26.5456 7.38761C26.5102 7.11945 26.4736 6.84245 26.4736 6.52364C26.4736 6.20239 26.7529 5.06219 27.1705 4.88871C27.5595 4.72793 28.1076 4.496 28.5308 3.8313C27.6221 3.88883 26.7263 4.08389 25.8744 4.41064Z" fill="#BE133C"/>
<path d="M9.28091 7.09171C9.95432 7.49057 12.0121 9.03079 12.1883 9.85969C12.2685 10.2659 12.2537 10.6852 12.1449 11.0847C12.0362 11.4842 11.8365 11.8532 11.5615 12.1628C11.4442 12.2979 11.317 12.424 11.1808 12.5402C11.0594 12.6504 10.9856 12.8036 10.9751 12.9673C10.9645 13.131 11.0181 13.2924 11.1243 13.4174C11.2306 13.5423 11.3814 13.6211 11.5446 13.6369C11.7079 13.6528 11.8709 13.6045 11.9993 13.5023C12.1834 13.3453 12.3556 13.1748 12.5143 12.9922C12.8871 12.5682 13.1651 12.0696 13.33 11.5297C13.4948 10.9897 13.5426 10.4208 13.4703 9.86093C13.8852 9.83171 14.288 9.70773 14.6475 9.49851C15.0071 9.28929 15.3138 9.00041 15.5443 8.65407C15.5938 8.5859 15.6292 8.50852 15.6483 8.42647C15.6675 8.34442 15.6701 8.25937 15.6559 8.17632C15.6417 8.09327 15.611 8.01389 15.5657 7.94287C15.5203 7.87185 15.4612 7.81062 15.3919 7.76277C15.3225 7.71493 15.2443 7.68144 15.1618 7.66428C15.0793 7.64712 14.9942 7.64664 14.9115 7.66285C14.8289 7.67907 14.7503 7.71166 14.6804 7.75871C14.6105 7.80576 14.5507 7.86632 14.5046 7.93682C14.3447 8.16753 14.126 8.35124 13.8712 8.46886C13.6164 8.58648 13.3347 8.63371 13.0555 8.60566C12.835 8.21895 10.8143 6.41617 10.0509 5.87976L10.0226 5.91018C9.72529 6.26958 9.47582 6.66671 9.28091 7.09171Z" fill="#BE133C"/>
<path d="M45.1745 16.9278C45.0104 16.8211 44.8411 16.7233 44.6672 16.6346C44.6994 17.0451 44.7063 17.5851 44.6965 17.9439C44.673 18.9972 43.4396 19.8788 43.3032 19.9605C43.0659 20.1061 42.8053 20.2098 42.5329 20.2669C41.4356 20.4878 41.1449 19.714 41.0986 19.5623C41.0927 19.5406 41.0854 19.5193 41.0766 19.4986C40.5051 18.1397 39.7002 18.0828 39.5451 18.0857C39.41 18.0874 39.2808 18.1413 39.1847 18.2363C39.0886 18.3312 39.033 18.4596 39.0296 18.5947C39.0262 18.7297 39.0753 18.8608 39.1666 18.9604C39.2579 19.06 39.3842 19.1203 39.519 19.1287C39.5593 19.1407 39.8303 19.2435 40.103 19.8767C40.3009 20.5318 41.0866 21.623 42.7391 21.2904C43.1093 21.2137 43.4644 21.0768 43.7903 20.8854C43.8068 20.8758 43.8234 20.8661 43.84 20.8562C44.7667 20.3005 45.7818 19.3021 45.7883 18.0012L45.7891 17.8891L45.7891 17.8878C45.7902 17.7404 45.7917 17.5324 45.7905 17.3821C45.5973 17.2185 45.3917 17.0665 45.1745 16.9278Z" fill="#BE133C"/>
<path d="M44.8055 23.3819C44.8721 23.3964 46.1625 23.6927 46.876 24.8425C46.6875 25.1308 46.4734 25.4012 46.2366 25.6504C45.8058 24.5844 44.6565 24.3098 44.6034 24.2977C44.482 24.2709 44.3761 24.197 44.3092 24.0922C44.2423 23.9873 44.2197 23.8602 44.2465 23.7388C44.2733 23.6173 44.3473 23.5115 44.4521 23.4445C44.5569 23.3776 44.684 23.3551 44.8055 23.3819Z" fill="#BE133C"/>
<path d="M40.5051 10.8376C41.2587 11.4619 42.4299 12.1727 43.2234 12.2743C43.3547 12.6517 43.4615 13.0404 43.5417 13.4385C42.578 13.3906 40.7731 12.6578 39.5722 11.663C38.5594 10.824 37.1007 11.9576 36.7888 12.2001C36.7545 12.2267 36.7341 12.2426 36.7296 12.2439C36.5658 12.2982 36.3851 12.2932 36.2252 12.2301C36.0653 12.1669 35.9384 12.0504 35.8709 11.9048C35.8413 11.8326 35.8283 11.7558 35.8325 11.679C35.8366 11.6021 35.858 11.5268 35.8953 11.4577C35.9325 11.3885 35.9849 11.3269 36.0492 11.2766C37.7689 9.73799 39.7363 10.3428 40.5051 10.8376Z" fill="#BE133C"/>
<path d="M28.1122 25.9657C26.9664 26.4563 25.6913 26.5576 24.4823 26.2541C22.3749 25.7567 20.236 25.8749 19.1485 25.9902C18.9722 26.0111 18.8112 26.1007 18.7004 26.2395C18.5896 26.3783 18.538 26.5552 18.5566 26.7318C18.5753 26.9084 18.6628 27.0706 18.8002 27.1831C18.9375 27.2957 19.1137 27.3496 19.2905 27.3333C20.2926 27.2274 22.2593 27.1172 24.172 27.5686C24.7396 27.7039 25.3209 27.7727 25.9044 27.7737C26.8515 27.7766 27.7888 27.5819 28.6564 27.2019C30.0946 26.5847 31.4075 25.7091 32.5303 24.6188C32.5508 24.6005 32.5702 24.581 32.5883 24.5603C32.6909 24.4579 32.8065 24.3452 32.9313 24.2235L32.9322 24.2226C33.9045 23.2748 35.4368 21.781 35.7741 20.2969C35.8066 20.2144 35.8226 20.1263 35.8211 20.0376C35.8195 19.9489 35.8005 19.8614 35.7652 19.78C35.7298 19.6987 35.6788 19.6251 35.615 19.5634C35.5512 19.5018 35.4759 19.4534 35.3934 19.4208C35.3109 19.3883 35.2227 19.3723 35.1341 19.3739C35.0454 19.3754 34.9579 19.3944 34.8765 19.4297C34.7952 19.4651 34.7216 19.5161 34.6599 19.5799C34.5983 19.6437 34.5498 19.719 34.5173 19.8015C34.1059 20.8453 33.5478 21.4111 33.0782 21.8871C32.9436 22.0236 32.8163 22.1526 32.7018 22.2835C32.5519 21.0292 31.5561 20.1299 31.1119 19.7287C31.048 19.671 30.9954 19.6235 30.9585 19.5868C30.8246 19.4668 30.6487 19.4046 30.4691 19.4139C30.2896 19.4231 30.1209 19.503 30.0001 19.6361C29.9407 19.7015 29.8948 19.778 29.865 19.8611C29.8353 19.9443 29.8223 20.0325 29.8269 20.1207C29.8314 20.2089 29.8534 20.2954 29.8915 20.375C29.9296 20.4547 29.9831 20.5261 30.0489 20.585L30.0584 20.5932C30.2103 20.7235 32.0898 22.3354 31.4663 23.7716C30.4846 24.6928 29.3495 25.4353 28.1122 25.9657Z" fill="#BE133C"/>
<path d="M5.09165 14.7648C5.36705 14.6076 5.72085 14.6936 5.89166 14.9645C6.0676 15.2433 5.9848 15.6121 5.706 15.7881C4.53585 16.5272 4.42176 17.8614 4.73824 18.8473C4.83882 19.161 4.6708 19.4946 4.35198 19.598C4.03822 19.6986 3.70209 19.526 3.60122 19.2118C3.13649 17.7628 3.37751 15.8467 5.06815 14.7789C5.07593 14.7738 5.08359 14.7694 5.09165 14.7648Z" fill="#BE133C"/>
<path d="M18.7212 31.3011C18.713 31.306 18.7054 31.3106 18.697 31.3151C16.9081 32.2914 14.3855 31.7549 13.3254 30.6229C13.0955 30.3773 13.1084 29.9924 13.3535 29.7628C13.6037 29.5302 13.984 29.5459 14.2136 29.7909C14.9347 30.5614 16.8762 30.9226 18.1144 30.2468C18.4093 30.0857 18.7787 30.1948 18.9398 30.4896C19.0965 30.7761 18.9977 31.1338 18.7212 31.3011Z" fill="#BE133C"/>
<path d="M9.27776 28.1654L9.27769 28.1949C9.09742 28.2094 8.91666 28.2177 8.73572 28.2199C8.51833 28.2214 8.30103 28.2105 8.08488 28.1873L8.02049 28.1814C8.00631 27.3181 8.09924 26.0158 8.29704 25.2241C7.29698 25.0948 6.34613 24.7137 5.53367 24.1164C5.46614 24.0678 5.40895 24.0062 5.36542 23.9352C5.32189 23.8643 5.29289 23.7854 5.28009 23.7031C5.26729 23.6209 5.27095 23.5369 5.29086 23.4561C5.31077 23.3752 5.34654 23.2992 5.39608 23.2323C5.44562 23.1654 5.50796 23.109 5.57946 23.0664C5.65097 23.0238 5.73023 22.9958 5.81264 22.984C5.89505 22.9723 5.97897 22.9771 6.05953 22.998C6.14009 23.019 6.21569 23.0557 6.28194 23.1061C6.99089 23.6238 7.82882 23.9361 8.70367 24.0087C9.0512 23.1619 9.57959 22.4012 10.2519 21.78C10.9242 21.1588 11.7241 20.692 12.5957 20.4123C12.9781 18.1467 14.3469 17.4999 14.4084 17.472C14.5595 17.4029 14.7317 17.3964 14.8875 17.454C15.0434 17.5115 15.1701 17.6285 15.24 17.7792C15.31 17.9299 15.3174 18.1022 15.2606 18.2584C15.2039 18.4145 15.0877 18.5419 14.9373 18.6126C14.88 18.6424 13.9802 19.1369 13.7887 20.9586C13.7881 20.9598 13.7878 20.961 13.7877 20.9623L13.7876 20.9645C13.7839 20.9899 13.7787 21.0151 13.7719 21.0399L13.7703 21.0471L13.7683 21.057C13.7666 21.0663 13.7648 21.0758 13.7611 21.0867C13.7573 21.0983 13.7522 21.1092 13.7472 21.1202L13.7426 21.1301L13.7394 21.1374C13.7314 21.1585 13.7223 21.1792 13.7121 21.1993C13.7089 21.2051 13.705 21.2104 13.7011 21.2157C13.6984 21.2194 13.6956 21.2231 13.6932 21.227C13.6782 21.2518 13.6616 21.2756 13.6435 21.2982C13.637 21.3059 13.6296 21.3128 13.6221 21.3196L13.6138 21.3274L13.608 21.3331C13.592 21.3504 13.5751 21.3669 13.5573 21.3823C13.5496 21.3886 13.541 21.3939 13.5324 21.3992C13.5272 21.4024 13.522 21.4056 13.5169 21.4091C13.497 21.4238 13.4762 21.4372 13.4547 21.4493C13.4482 21.4529 13.4411 21.4556 13.4341 21.4583C13.4295 21.4601 13.4248 21.4619 13.4203 21.4639C13.3937 21.4766 13.3662 21.4874 13.3381 21.4962L13.3364 21.4969C13.3355 21.4974 13.3343 21.4981 13.3334 21.4981C11.2421 22.0866 10.218 23.4684 9.72167 24.7896C9.71037 24.8443 9.69175 24.8972 9.66631 24.9468C9.37532 25.8108 9.29976 27.2997 9.27776 28.1654Z" fill="#BE133C"/>
<path d="M23.8169 16.4465C24.5665 15.9429 25.5418 15.609 26.7165 15.4554C27.6479 15.3421 28.5524 15.0675 29.3896 14.644C30.3942 14.1429 31.2855 13.4415 32.0087 12.5828C32.4252 12.0882 32.6282 11.7519 32.4252 11.4649C32.0087 10.8761 31.268 11.5173 31.0908 11.831C30.6082 12.4069 30.0322 12.8975 29.3869 13.2823C29.4674 12.8539 29.4344 12.4119 29.2914 12.0002C29.2361 11.8529 29.1245 11.7337 28.9812 11.6688C28.8379 11.6038 28.6747 11.5984 28.5275 11.6537C28.3803 11.7091 28.261 11.8207 28.1961 11.964C28.1311 12.1072 28.1257 12.2704 28.1811 12.4177C28.1967 12.4593 28.5452 13.4372 27.4179 14.1174C27.1361 14.187 26.8507 14.2408 26.563 14.2785C25.2042 14.4567 24.0582 14.854 23.1553 15.4615C22.5388 15.8747 22.0439 16.4449 21.7215 17.1133C21.5388 17.0716 21.3666 16.9929 21.2153 16.8822C21.0641 16.7715 20.9371 16.6311 20.842 16.4696C20.7682 16.3307 20.6422 16.2268 20.4918 16.1807C20.3414 16.1347 20.1789 16.1503 20.0399 16.2241C19.901 16.2979 19.7971 16.4239 19.7511 16.5743C19.705 16.7247 19.7206 16.8872 19.7944 17.0262C19.8196 17.0742 20.319 18.0001 21.3674 18.2565C21.3135 18.5994 21.3038 18.9477 21.3385 19.293C21.5465 21.3245 23.2698 22.1253 24.152 22.2647C24.3066 22.2892 24.4647 22.2514 24.5915 22.1596C24.7183 22.0677 24.8034 21.9293 24.8283 21.7747C24.8533 21.6198 24.8161 21.4613 24.7248 21.3337C24.6335 21.2062 24.4954 21.1198 24.3407 21.0936C24.2731 21.0821 22.6845 20.7932 22.5188 19.1722C22.4715 18.6433 22.567 18.1114 22.7953 17.6319C23.0237 17.1525 23.3765 16.7431 23.8169 16.4465Z" fill="#BE133C"/>
</g>
<defs>
<clipPath id="clip0_677_6737">
<rect width="47.4" height="42" fill="white" transform="translate(0.599609 2.99963)"/>
</clipPath>
</defs>
</svg>
