<svg width="48" height="48" viewBox="0 0 48 48" fill="none" xmlns="http://www.w3.org/2000/svg">
<g clip-path="url(#clip0_677_6743)">
<path d="M47.5126 29.757V36.884C47.5129 37.0218 47.4781 37.1574 47.4114 37.278C47.3447 37.3985 47.2484 37.5002 47.1316 37.5732C47.0147 37.6462 46.8812 37.6883 46.7436 37.6954C46.606 37.7024 46.4688 37.6744 46.3451 37.6137L39.6478 34.3705C37.9823 37.1375 35.6187 39.418 32.7939 40.9834C29.969 42.5487 26.7823 43.344 23.5532 43.2894C12.9884 43.2975 4.38574 34.4921 4.38574 23.7084C4.38574 12.9246 12.9884 4.03003 23.5532 4.03003C34.1181 4.03003 42.7126 12.8354 42.7126 23.7084C42.7111 24.8413 42.6162 25.9721 42.4289 27.0894L47.018 29.0516C47.1584 29.1108 47.2793 29.2084 47.3668 29.3332C47.4543 29.4579 47.5048 29.6048 47.5126 29.757Z" fill="#FB7185"/>
<path d="M8.11557 32.2218C6.83687 29.7849 6.12067 27.0923 6.01964 24.3422C5.91861 21.592 6.43533 18.8542 7.53178 16.33C7.58671 16.2016 7.60753 16.0611 7.59223 15.9223C7.57694 15.7835 7.52604 15.651 7.44448 15.5376C7.36292 15.4242 7.25345 15.3339 7.1267 15.2752C6.99994 15.2166 6.86018 15.1917 6.72098 15.203C5.26152 15.3813 0.518291 16.557 0.518291 24.1218C0.485859 30.1948 3.96423 33.438 7.39395 33.438C7.53792 33.4415 7.68021 33.4066 7.8062 33.3368C7.9322 33.2671 8.03734 33.165 8.11083 33.0412C8.18431 32.9173 8.22348 32.7762 8.22432 32.6322C8.22515 32.4881 8.18761 32.3465 8.11557 32.2218Z" fill="#384C6C"/>
<path d="M23.5777 7.08679C14.8697 7.08679 7.7832 14.4895 7.7832 23.5786C7.7832 32.6678 14.8697 40.0705 23.5777 40.0705C32.2858 40.0705 39.4047 32.6759 39.4047 23.5786C39.4047 14.4814 32.2858 7.08679 23.5777 7.08679Z" fill="white"/>
<path d="M9.77775 15.6004C8.38229 18.2445 7.70481 21.2083 7.81294 24.1961C7.92107 27.1839 8.81103 30.091 10.394 32.6273C10.5015 32.7988 10.6693 32.9238 10.8644 32.9778C11.0594 33.0318 11.2676 33.0109 11.448 32.9192C14.0912 31.5895 15.8588 28.0544 15.8588 24.1868C15.8912 17.295 10.621 13.9787 9.77775 15.6004Z" fill="#8999B3"/>
<path d="M47.5129 33.4382V35.3841L46.2562 34.5733C36.4616 28.1355 34.9049 28.2328 34.8238 28.1922C33.9238 28.1922 32.5292 29.5706 30.8914 30.5355C30.7049 31.476 30.0806 33.6976 28.6616 34.5895C28.5706 34.6612 28.4652 34.7126 28.3526 34.7402C28.2401 34.7678 28.1229 34.7709 28.009 34.7493C27.8951 34.7277 27.7872 34.682 27.6924 34.6152C27.5977 34.5484 27.5184 34.462 27.4599 34.362C27.4014 34.2619 27.365 34.1504 27.3532 34.0351C27.3414 33.9198 27.3545 33.8033 27.3916 33.6935C27.4286 33.5837 27.4888 33.4831 27.568 33.3984C27.6472 33.3138 27.7437 33.2472 27.8508 33.203C28.4167 32.7363 28.8222 32.1039 29.0103 31.3949C28.4266 31.5783 27.8215 31.6846 27.2103 31.7111C26.9953 31.7187 26.786 31.6405 26.6287 31.4937C26.4713 31.347 26.3786 31.1437 26.3711 30.9287C26.3636 30.7137 26.4418 30.5044 26.5885 30.3471C26.7353 30.1897 26.9385 30.097 27.1535 30.0895C30.0319 29.9841 31.8562 27.5355 33.8103 26.7895C32.4887 23.3112 30.4779 22.7355 29.5779 20.0112C28.572 20.0325 27.5758 20.2131 26.6265 20.5463C26.5259 20.5814 26.4193 20.5964 26.3129 20.5904C26.2065 20.5843 26.1023 20.5574 26.0064 20.5111C25.8125 20.4176 25.6637 20.2509 25.5927 20.0477C25.5576 19.947 25.5426 19.8405 25.5487 19.7341C25.5547 19.6277 25.5817 19.5235 25.628 19.4275C25.7215 19.2336 25.8882 19.0848 26.0914 19.0139C27.0888 18.6709 28.1279 18.4637 29.1806 18.3977C28.9969 17.3024 28.929 16.1909 28.9779 15.0815C28.9841 14.9749 29.0112 14.8706 29.0578 14.7746C29.1044 14.6786 29.1695 14.5927 29.2493 14.5219C29.3292 14.4511 29.4222 14.3968 29.5231 14.362C29.624 14.3272 29.7308 14.3127 29.8373 14.3193C29.9439 14.3255 30.0481 14.3527 30.1442 14.3993C30.2402 14.4458 30.326 14.5109 30.3969 14.5908C30.4677 14.6706 30.522 14.7637 30.5568 14.8646C30.5916 14.9655 30.6061 15.0722 30.5995 15.1787C30.5346 16.322 30.6481 19.6139 31.9616 21.1139C33.7779 23.1814 34.7103 24.4139 35.4805 26.676C37.9778 27.3328 43.8562 31.0544 47.5129 33.4382Z" fill="#BE133C"/>
</g>
<defs>
<clipPath id="clip0_677_6743">
<rect width="47.9999" height="40.2161" fill="white" transform="translate(-0.000488281 3.60034)"/>
</clipPath>
</defs>
</svg>
