<svg width="48" height="48" viewBox="0 0 48 48" fill="none" xmlns="http://www.w3.org/2000/svg">
<path d="M32.9186 40.6706C38.1393 40.6706 42.3714 36.4384 42.3714 31.2178C42.3714 25.9972 38.1393 21.765 32.9186 21.765C27.698 21.765 23.4658 25.9972 23.4658 31.2178C23.4658 36.4384 27.698 40.6706 32.9186 40.6706Z" fill="#408FF1"/>
<path d="M38.2628 33.5051C37.3216 33.5051 36.95 32.5199 36.6514 31.7282C36.5516 31.3903 36.3966 31.0737 36.1935 30.7928C36.0356 31.092 35.9017 31.4048 35.7932 31.7278C35.4946 32.5196 35.123 33.5051 34.1815 33.5051C33.2409 33.5051 32.8695 32.5196 32.5713 31.7275C32.4718 31.3898 32.3173 31.0734 32.1147 30.7925C31.9588 31.0923 31.826 31.405 31.7175 31.7275C31.4192 32.5196 31.0482 33.5051 30.1076 33.5051C29.1671 33.5051 28.796 32.5196 28.4977 31.7275C28.3983 31.3898 28.2437 31.0734 28.0411 30.7925C27.9585 30.7926 27.8766 30.7752 27.8003 30.7413C27.7241 30.7074 27.6549 30.6577 27.597 30.5951C27.5391 30.5325 27.4935 30.4583 27.4629 30.3767C27.4324 30.2952 27.4175 30.208 27.4191 30.1202C27.4226 29.9397 27.493 29.7679 27.615 29.6421C27.7371 29.5163 27.9009 29.4465 28.071 29.448C29.0115 29.448 29.3826 30.4336 29.6809 31.2256C29.7803 31.5633 29.9349 31.8798 30.1375 32.1607C30.2931 31.8608 30.4258 31.5481 30.5343 31.2256C30.8326 30.4336 31.2037 29.448 32.1442 29.448C33.0848 29.448 33.4561 30.4336 33.7544 31.2256C33.8539 31.5633 34.0084 31.8798 34.211 32.1607C34.3684 31.8611 34.5021 31.5481 34.6107 31.225C34.9093 30.4332 35.281 29.448 36.2221 29.448C37.1636 29.448 37.5353 30.4336 37.8339 31.2253C37.9337 31.5631 38.0887 31.8796 38.2917 32.1603C38.3744 32.1602 38.4563 32.1776 38.5326 32.2115C38.6089 32.2453 38.678 32.295 38.736 32.3576C38.7939 32.4203 38.8395 32.4945 38.8701 32.5761C38.9007 32.6576 38.9157 32.7448 38.9141 32.8326C38.9108 33.0131 38.8405 33.1849 38.7186 33.3108C38.5967 33.4368 38.4329 33.5066 38.2628 33.5051Z" fill="white"/>
<path d="M35.7251 9.41116L33.9737 8.25021C33.4417 7.96077 32.8886 7.71587 32.3413 7.51928C31.8474 7.34349 31.3597 7.18894 30.8513 7.0655L28.8894 6.66961C27.6021 6.49442 26.2785 6.4567 24.9587 6.56201L23.0987 6.78368C21.6213 7.03712 20.1472 7.46056 18.7032 8.0577L17.0345 8.79383C15.8937 9.35762 14.7642 10.0315 13.6663 10.7979C13.2709 11.0696 12.8955 11.3509 12.5266 11.6399L11.1519 12.8028C9.35796 14.4173 7.95072 16.1929 6.93749 18.0969L6.15772 19.7612C5.59165 21.1629 5.24588 22.6422 5.10179 24.1217L5.03623 26.0393C5.08066 27.5038 5.23751 29.555 5.70034 30.9409C6.17312 32.4641 7.00823 36.0004 9.90035 38.4004C11.2012 39.4799 14.0202 42.0467 18.9004 41.1004C19.8004 40.9259 20.9528 40.1017 21.2962 39.3004C21.857 37.9916 21.4186 36.7813 21.2962 36.4202C20.0816 33.612 19.8802 30.3566 20.9742 27.2423C22.2602 23.5818 25.0644 20.8887 28.4321 19.6212C30.0996 18.9936 31.9052 18.7156 33.7331 18.8427C34.9196 18.7825 35.5738 18.8215 36.4921 18.3807C37.4103 17.9399 38.1017 17.1179 38.2695 16.2628C39.2506 13.6502 36.9821 10.6065 35.7251 9.41116Z" fill="#8999B3"/>
</svg>
