<svg width="48" height="48" viewBox="0 0 48 48" fill="none" xmlns="http://www.w3.org/2000/svg">
<path d="M19.3275 0V3.28542C19.3275 3.36497 19.3282 3.45132 19.3288 3.54357C19.3388 4.93641 19.3585 7.67683 17.4067 8.72769C14.0312 10.6966 13.565 13.5297 14.2054 16.0908C14.8455 18.972 19.2855 19.9324 21.5263 17.6914C23.1271 16.2979 25.2921 16.2979 26.7327 17.6914C28.6535 19.9324 33.4133 18.972 34.0535 16.0908C34.6938 13.5297 33.7234 10.5547 30.8524 8.72769C29.0916 7.60722 28.9315 4.56595 28.9315 3.28542V0H19.3275Z" fill="#374A68"/>
<path d="M15.2894 21.3745C10.8979 22.299 7.97027 25.8021 7.19983 26.9578C11.2139 25.5944 13.1154 25.4789 16.4956 25.4789C17.8407 25.4789 19.3996 25.7117 21.1306 25.9702C23.9802 26.3959 27.296 26.8911 30.8908 26.5316C35.9505 26.0256 40.1361 21.797 41.0028 19.7746C40.3287 20.0635 37.6068 21.0114 33.3971 21.676C30.7778 22.0896 27.7851 21.7767 24.7754 21.462C21.4776 21.1172 18.1594 20.7703 15.2894 21.3745Z" fill="#374A68"/>
<path d="M19.3275 44.7146V48H28.9315V44.7146C28.9315 43.4341 29.0916 40.3928 30.8524 39.2723C33.7234 37.4453 34.6938 34.4703 34.0535 31.9092C33.4133 29.028 28.6535 28.0676 26.7327 30.3086C25.2921 31.7021 23.1271 31.7021 21.5263 30.3086C19.2855 28.0676 14.8455 29.028 14.2054 31.9092C13.565 34.4703 14.0312 37.3034 17.4067 39.2723C19.3585 40.3232 19.3388 43.0636 19.3288 44.4564C19.3282 44.5487 19.3275 44.635 19.3275 44.7146Z" fill="#374A68"/>
</svg>
