<svg width="48" height="48" viewBox="0 0 48 48" fill="none" xmlns="http://www.w3.org/2000/svg">
<path d="M46.5268 15.4537C46.3805 11.1951 42.9049 7.80732 38.6463 7.80732C37.6658 7.80732 36.7146 7.99024 35.8439 8.32683C35.1268 8.60488 34.3146 8.47317 33.7366 7.97561C33.3122 7.60976 32.961 7.21463 32.6829 6.86341C31.7902 5.72195 31.1171 4.30976 30.4512 2.84634C30.0927 2.07073 29.7561 1.27317 29.661 0.585366C29.661 0.585366 28.3462 0 27.4549 0C26.5635 0 25.2488 0.585366 25.2488 0.585366C25.3293 2.06341 25.8927 3.43902 26.4561 4.66829C27.239 6.38049 28.0366 8.04146 29.2146 9.56342C29.6537 10.1268 30.1293 10.639 30.6268 11.0927C31 11.4293 31.2341 11.9049 31.2707 12.4024C31.3439 13.2951 30.8463 14.3122 30.5463 15.139C30.1219 16.2951 29.6098 17.4146 29.0098 18.4902C28.5122 19.3829 27.9561 20.2463 27.3488 21.0659C26.7415 21.8854 26.0829 22.6683 25.3805 23.4C24.678 24.139 23.9244 24.8268 23.1341 25.4634C22.3366 26.1073 21.5024 26.6927 20.6317 27.2341C19.7537 27.7756 18.8463 28.2512 17.9098 28.6756C16.9659 29.1 15.9854 29.4659 14.9902 29.7585C14.3902 29.9341 13.7829 30.0951 13.1756 30.2195C12.5683 30.3512 11.9463 30.3878 11.3171 30.3293C8.68293 30.0805 6.04878 30.9659 4.09512 32.7439C2.12683 34.5293 1 37.0829 1 39.739V47.4146C1 47.4146 2.52964 48 3.50976 48C4.48988 48 6.01951 47.4146 6.01951 47.4146V39.8634C6.01951 38.861 6.31219 37.8659 6.91951 37.0683C6.92683 37.0537 6.93415 37.0463 6.94878 37.0317C7.69512 36.0732 9.07073 35.8463 10.0951 36.4902C14.061 38.9707 18.8098 40.3244 23.8878 40.0756C35.8293 39.4976 45.5902 30 46.4683 18.0732C46.5341 17.1951 46.5561 16.3171 46.5268 15.4537Z" fill="#374A68"/>
</svg>
