<svg width="48" height="48" viewBox="0 0 48 48" fill="none" xmlns="http://www.w3.org/2000/svg">
<path d="M43.5182 28.3353C43.5489 28.1974 43.5796 28.0592 43.6103 27.9057C44.03 25.0377 43.6192 23.3255 43.6104 22.9048C43.0997 19.8403 39.7738 6.94141 37.2127 6.07427C34.7744 5.2438 35.2531 11.6364 35.2336 12.3799C35.2336 12.4718 35.2184 12.5634 35.2031 12.6553L35.2029 12.6562C35.2029 13.2555 34.9829 14.5988 34.4358 15.9548V15.9701C33.2015 19.0528 30.9968 20.315 29.7104 21.6006C28.0574 23.3646 28.8951 25.111 26.4979 24.6316C26.0768 24.4361 24.854 23.6724 23.6983 23.6727C22.5435 23.673 20.9009 24.6316 20.9009 24.6316C18.5037 25.1111 19.3414 23.3646 17.6884 21.6006C16.402 20.3151 14.1973 19.0529 12.963 15.9702V15.9548C12.4159 14.5989 12.1959 13.2555 12.1959 12.6563L12.1958 12.6554L12.1958 12.6554C12.1805 12.5635 12.1652 12.4719 12.1652 12.3799C12.1457 11.6365 12.6244 5.24383 10.1861 6.07431C7.625 6.94145 4.29913 19.8404 3.78838 22.9048C3.77964 23.3255 3.36877 25.0377 3.78854 27.9058C3.81922 28.0592 3.84991 28.1974 3.88059 28.3354C4.0337 29.3308 4.38135 30.4053 4.46359 30.7748C4.47893 30.7748 4.47894 30.7901 4.47894 30.8054C4.49412 30.8361 4.50962 30.8822 4.50962 30.913C5.66565 33.7959 7.33903 41.0694 12.7944 41.0694C13.8223 41.0694 14.8349 40.6858 15.6481 40.0416C18.8547 37.5609 16.2511 33.911 19.1768 33.1561C20.9253 32.705 21.8926 34.1234 23.6983 34.1236C25.5049 34.1238 26.4729 32.7044 28.2221 33.1561C31.1476 33.9116 28.5441 37.5609 31.7508 40.0416C32.5639 40.6858 33.5765 41.0693 34.6044 41.0693C40.0598 41.0693 41.7332 33.7959 42.8892 30.913C42.8892 30.8821 42.9047 30.8361 42.9199 30.8054C42.9199 30.7901 42.9199 30.7747 42.9352 30.7747C43.0175 30.4053 43.3651 29.3307 43.5182 28.3353Z" fill="#374A68"/>
</svg>
