<svg width="48" height="48" viewBox="0 0 48 48" fill="none" xmlns="http://www.w3.org/2000/svg">
<path d="M16.0838 3C20.5956 3 24.528 5.46619 26.5958 9.11743C22.544 10.742 19.3366 14.0128 17.81 18.0974C17.2435 18.0331 16.6675 18 16.0838 18C12.2608 18 8.77024 19.4162 6.11298 21.7502C4.79556 19.827 4.0249 17.5031 4.0249 15C4.0249 8.37258 9.42385 3 16.0838 3Z" fill="#384C6C"/>
<path d="M16.0838 21C16.4033 21 16.72 21.0124 17.0332 21.0366C16.9045 21.8389 16.8375 22.6617 16.8375 23.5C16.8375 30.1759 21.0787 35.8659 27.0261 38.0476C25.1106 42.1529 20.9317 45 16.0838 45C9.42385 45 4.0249 39.6274 4.0249 33C4.0249 26.3726 9.42385 21 16.0838 21Z" fill="#384C6C"/>
<path fill-rule="evenodd" clip-rule="evenodd" d="M44.975 23.5C44.975 16.5964 39.3511 11 32.4136 11C25.4762 11 19.8523 16.5964 19.8523 23.5C19.8523 30.4035 25.4762 36 32.4136 36C39.3511 36 44.975 30.4035 44.975 23.5ZM39.1968 22.375C39.1968 18.1846 35.7283 16.25 33.1673 16.25V13.25C36.887 13.25 42.2115 16.0653 42.2115 22.375H39.1968Z" fill="#384C6C"/>
</svg>
