<svg width="48" height="48" viewBox="0 0 48 48" fill="none" xmlns="http://www.w3.org/2000/svg">
<g clip-path="url(#clip0_4780_14807)">
<path d="M19.4348 27.5766C19.1729 29.3455 18.9518 31.0117 18.8333 32.9542L18.8228 33.0621C18.7892 33.7145 18.8936 34.3666 19.1292 34.9758C19.3648 35.5851 19.7262 36.1377 20.19 36.5977C20.6538 37.0577 21.2094 37.4147 21.8205 37.6453C22.4317 37.8759 23.0846 37.975 23.7366 37.9361C24.3887 37.8972 25.0252 37.7211 25.6045 37.4194C26.1839 37.1177 26.693 36.6971 27.0988 36.1852C27.5045 35.6733 27.7976 35.0815 27.9591 34.4486C28.1205 33.8156 28.1465 33.1557 28.0355 32.512C27.7881 31.1301 26.7141 27.4424 26.7141 27.4424C23.3107 16.9811 29.0726 7.84597 33.9527 3.6555C30.3 5.39998 28.2481 7.09175 25.6045 10.3183C24.0514 11.7788 21.6 15.8999 20.7 20.3999C19.7979 24.9104 19.4348 27.0844 19.4348 27.5766Z" fill="#374A68"/>
<path fill-rule="evenodd" clip-rule="evenodd" d="M47.7714 24.31C47.7714 23.9829 47.5063 23.7178 47.1792 23.7178H31.797C28.8761 24.4596 29.2556 26.805 29.3865 27.6141C29.3909 27.6411 29.395 27.6663 29.3986 27.6897C29.4618 28.1175 29.715 28.9209 29.9785 29.757C30.2476 30.6108 30.5275 31.4987 30.6266 32.0552C30.8101 33.1023 30.7624 34.1768 30.4866 35.2034C30.2109 36.23 29.7138 37.1839 29.0303 37.998C28.3469 38.8122 27.4935 39.4669 26.5302 39.9163C25.5668 40.3657 24.5168 40.5988 23.4538 40.5994C22.4624 40.5998 21.4815 40.3972 20.5714 40.0042C19.6612 39.6112 18.8412 39.0361 18.1617 38.3142C17.4822 37.5923 16.9577 36.739 16.6205 35.8068C16.2832 34.8745 16.1404 33.8831 16.2008 32.8936L16.206 32.7949C16.3337 30.6628 16.5864 28.8624 16.8272 27.187C16.9829 26.1759 16.4575 24.3551 14.1166 23.7178H0.98397C0.656881 23.7178 0.391724 23.9829 0.391724 24.31V42.3735C0.391724 43.5525 1.25299 44.5304 2.38068 44.7122H45.7825C46.9102 44.5304 47.7714 43.5525 47.7714 42.3735V24.31Z" fill="#374A68"/>
</g>
<defs>
<clipPath id="clip0_4780_14807">
<rect width="47.9999" height="48" fill="white"/>
</clipPath>
</defs>
</svg>
