<svg width="48" height="48" viewBox="0 0 48 48" fill="none" xmlns="http://www.w3.org/2000/svg">
<path d="M46.7268 15.4537C46.5805 11.1951 43.1049 7.80732 38.8463 7.80732C37.8659 7.80732 36.9146 7.99024 36.0439 8.32683C35.3268 8.60488 34.5146 8.47317 33.9366 7.97561C33.5122 7.60976 33.161 7.21463 32.8829 6.86341C31.9903 5.72195 31.3171 4.30976 30.6512 2.84634C30.2927 2.07073 29.9561 1.27317 29.861 0.585366C29.861 0.585366 28.5462 0 27.6549 0C26.7635 0 25.4488 0.585366 25.4488 0.585366C25.5293 2.06341 26.0927 3.43902 26.6561 4.66829C27.439 6.38049 28.2366 8.04146 29.4146 9.56342C29.8537 10.1268 30.3293 10.639 30.8268 11.0927C31.2 11.4293 31.4342 11.9049 31.4707 12.4024C31.5439 13.2951 31.0463 14.3122 30.7463 15.139C30.322 16.2951 29.8098 17.4146 29.2098 18.4902C28.7122 19.3829 28.1561 20.2463 27.5488 21.0659C26.9415 21.8854 26.2829 22.6683 25.5805 23.4C24.8781 24.139 24.1244 24.8268 23.3342 25.4634C22.5366 26.1073 21.7024 26.6927 20.8317 27.2341C19.9537 27.7756 19.0464 28.2512 18.1098 28.6756C17.1659 29.1 16.1854 29.4659 15.1903 29.7585C14.5903 29.9341 13.9829 30.0951 13.3756 30.2195C12.7683 30.3512 12.1464 30.3878 11.5171 30.3293C8.88294 30.0805 6.24879 30.9659 4.29513 32.7439C2.32684 34.5293 1.20001 37.0829 1.20001 39.739V47.4146C1.20001 47.4146 2.72965 48 3.70977 48C4.68989 48 6.21952 47.4146 6.21952 47.4146V39.8634C6.21952 38.861 6.51221 37.8659 7.11952 37.0683C7.12684 37.0537 7.13416 37.0463 7.14879 37.0317C7.89513 36.0732 9.27074 35.8463 10.2951 36.4902C14.261 38.9707 19.0098 40.3244 24.0878 40.0756C36.0293 39.4976 45.7903 30 46.6683 18.0732C46.7342 17.1951 46.7561 16.3171 46.7268 15.4537Z" fill="#374A68"/>
</svg>
