<svg width="48" height="48" viewBox="0 0 48 48" fill="none" xmlns="http://www.w3.org/2000/svg">
<path d="M23.7974 2.715L24.5474 4.62C24.6141 4.63289 24.687 4.64784 24.7655 4.66507L25.3648 2.76748C25.4156 2.61084 25.5166 2.37352 25.6522 2.27999C26.1925 1.90714 26.6998 1.80007 27.5998 1.79999C28.5384 1.7999 29.3998 2.09995 29.9487 2.83976C29.993 2.97853 29.9777 3.04063 29.957 3.12432L29.9473 3.16498L28.9822 6.84974C29.6684 7.55824 30.213 8.47699 30.4248 9.66487C32.3768 9.41005 34.0081 9.25782 34.17 9.29991C34.4468 9.3809 34.7045 9.51689 34.9275 9.69974C35.1506 9.88259 35.3345 10.1086 35.4682 10.3641C35.602 10.6197 35.6828 10.8996 35.7059 11.1871C35.7289 11.4746 35.6938 11.7638 35.6025 12.0374C35.515 12.5713 35.2742 13.0683 34.9093 13.4677C34.5444 13.8672 34.0713 14.152 33.5475 14.2874C32.7363 14.3506 31.0683 14.6308 29.8028 15.2382L29.5048 15.3904C30.0854 15.5844 30.7353 15.8652 31.3556 16.2377L35.6703 15.0749C35.8417 15.0287 36.024 15.0448 36.1847 15.1203C36.3454 15.1958 36.474 15.3259 36.5478 15.4874C37.2903 17.0774 37.2753 18.2099 36.8103 18.6374C36.4285 18.9884 34.9242 20.0271 34.2653 20.4789C34.3798 20.9842 34.4391 21.4296 34.4694 21.7454C35.9993 23.3086 39.2045 27 39.0295 34.7175C38.8945 40.6725 35.7145 45.6675 33.0295 45.9225C30.3445 46.1775 23.407 43.8225 20.7295 42.69C19.7176 42.2597 18.6903 41.6389 17.6882 40.8995C17.51 41.5083 17.2393 42.4356 16.8299 43.8675C16.5749 44.7675 14.7824 44.595 13.8749 44.3925C13.3211 44.2678 12.8102 43.9989 12.3939 43.6129C11.9777 43.227 11.671 42.7378 11.5049 42.195L11.5024 42.1862L11.5024 42.1861C11.4979 42.1701 11.4939 42.1556 11.4905 42.141C11.4613 42.015 11.4806 41.8777 11.6666 40.5562C11.7964 39.6336 12.0074 38.1337 12.3398 35.6574C11.5698 34.6943 10.9138 33.7567 10.4174 32.925C10.2299 32.6175 10.0574 32.3176 9.92235 32.0401C9.0687 30.3592 8.78574 27.2839 9.16162 24.3366C8.39484 24.5311 7.61367 24.6668 6.82489 24.7425C6.63155 24.764 6.43743 24.7095 6.2835 24.5905C6.2835 24.5905 5.76368 24 5.69986 23.2984C5.63605 22.5969 5.74527 22.0183 5.8237 21.8763C5.90213 21.7343 6.02447 21.6216 6.17239 21.555C7.02323 21.1951 7.71966 20.8892 8.2932 20.6313C7.72506 20.1718 7.23983 19.6511 7.03481 19.4174C6.93511 19.3057 6.87111 19.1668 6.85107 19.0184C6.85107 19.0184 6.71996 18.4164 7.03475 17.8031C7.41285 17.0665 7.98418 16.8105 7.98418 16.8105C8.11815 16.7382 8.27096 16.7083 8.42231 16.7249L12.0558 17.2807C12.1632 16.5211 12.2979 15.4838 12.3754 14.595L9.9454 15.2767C9.3979 15.4358 8.3854 14.8677 8.2129 13.6785C8.12304 13.1115 8.12304 12.5337 8.2129 11.9667C8.30179 11.5981 8.48406 11.4978 9.39133 10.9983L9.39141 10.9983C9.93864 10.6971 10.7496 10.2506 11.9629 9.51255C11.9849 9.03848 11.971 8.66019 11.9598 8.35249C11.9365 7.71627 11.9242 7.38186 12.2629 7.1266C14.4229 5.48294 16.8154 5.83137 17.7604 6.93724C17.9526 7.14491 17.961 7.27185 17.9777 8.17135C18.7899 6.76278 19.4572 6.0129 19.9724 5.625L19.1174 3.255C19.0765 3.14177 19.0634 3.02034 19.0793 2.90099C19.0952 2.78163 19.1396 2.66786 19.2087 2.56929C19.2779 2.47072 19.3698 2.39024 19.4766 2.33467C19.4766 2.33467 20.3998 1.79999 21.4499 1.79999C22.8748 1.79999 23.5104 2.36952 23.5104 2.36952C23.6391 2.45265 23.7393 2.57322 23.7974 2.715Z" fill="#384C6C"/>
</svg>
