<svg width="48" height="48" viewBox="0 0 48 48" fill="none" xmlns="http://www.w3.org/2000/svg">
<path d="M14.2836 13.8582C14.8486 14.4345 15.2306 15.165 15.3817 15.9577C15.5329 16.7505 15.4464 17.5703 15.1331 18.3141C14.8199 19.0578 14.2938 19.6925 13.621 20.1382C12.9482 20.584 12.1587 20.821 11.3517 20.8195C11.3517 20.8195 4.7998 21.6385 4.7998 10.9917C4.7998 6.49552 6.33949 4.22694 8.0184 3.08855C11.2124 0.918252 16.2655 1.87646 16.2655 6.07784C16.2658 6.63812 16.1511 7.1925 15.9286 7.70668C15.706 8.22086 15.3803 8.68389 14.9716 9.06712C15.2883 9.66132 15.4521 10.3216 15.4528 10.989C16.6104 10.8715 17.9346 10.9197 19.0928 11.4283C20.4662 12.0288 21.3325 13.131 21.6812 14.6903C22.0813 16.4768 21.5263 19.0468 20.8845 22.0188L20.8782 22.0476C19.8295 26.9199 18.5529 32.8551 21.4216 36.543C21.2937 36.5695 21.1672 36.5979 21.0426 36.6282C20.6828 36.7136 19.91 36.9395 19.4093 37.2183C16.3821 32.961 17.707 26.8137 18.8075 21.725L18.8106 21.7106C19.3905 19.0186 19.9374 16.48 19.6105 15.0219C19.378 14.0182 18.9026 13.364 18.1208 13.0145C17.2227 12.6136 16.0074 12.681 15.0005 12.8639C14.8139 13.2272 14.5729 13.5627 14.2836 13.8582Z" fill="#384C6C"/>
<path d="M34.1232 13.8598C33.5582 14.4362 33.1761 15.1668 33.025 15.9596C32.8738 16.7525 32.9603 17.5724 33.2736 18.3162C33.5869 19.0601 34.113 19.6948 34.7859 20.1406C35.4587 20.5864 36.2483 20.8234 37.0555 20.8219C37.0555 20.8219 43.6081 21.641 43.6081 10.9931C43.6081 1.1642 36.2364 1.98327 36.2364 1.98327C35.4147 1.98281 34.6119 2.22953 33.9323 2.69135C33.2527 3.15317 32.7278 3.80874 32.4257 4.57285C32.1235 5.33696 32.0583 6.17428 32.2383 6.97598C32.4183 7.77768 32.8354 8.50668 33.4352 9.06825C33.1157 9.66762 32.9518 10.3342 32.9539 11.0076C31.7572 10.8678 30.3589 10.8945 29.1434 11.4282C27.77 12.0287 26.9037 13.1309 26.555 14.6902C26.1549 16.4767 26.7099 19.0468 27.3517 22.0188L27.358 22.0475C28.3971 26.8749 29.6597 32.7457 26.8928 36.4404C27.2143 36.4918 27.5296 36.5542 27.8339 36.6282C28.2737 36.7133 28.6709 36.8501 28.987 36.9853C31.8062 32.7388 30.5092 26.7216 29.4287 21.7249L29.4256 21.7106C28.8457 19.0185 28.2988 16.4799 28.6257 15.0218C28.8582 14.0181 29.3335 13.3639 30.1154 13.0144C31.0703 12.5881 32.3838 12.6914 33.4241 12.8998C33.6081 13.2499 33.843 13.5737 34.1232 13.8598Z" fill="#384C6C"/>
<path d="M29.6424 37.327C30.5286 37.8282 31.0983 38.5442 31.0983 39.5019C31.0983 43.1356 28.1142 46.0981 24.4338 46.0981C20.7624 46.0981 17.7783 43.1356 17.7783 39.5019C17.7783 38.5442 18.348 37.8282 19.2342 37.327C19.7085 36.9995 20.6374 36.7244 21.0426 36.6282C22.1096 36.3686 23.3125 36.2529 24.4338 36.2529C25.5641 36.2529 26.7668 36.3686 27.8339 36.6282C28.7 36.7958 29.4004 37.1641 29.6424 37.327Z" fill="#384C6C"/>
</svg>
