<svg width="48" height="48" viewBox="0 0 48 48" fill="none" xmlns="http://www.w3.org/2000/svg">
<g clip-path="url(#clip0_677_6683)">
<path d="M40.783 6.17193C42.3937 4.40649 43.4664 3.23071 46.0893 2.99988V32.4753C41.1133 39.827 37.5969 42.143 35.5401 43.4976C35.1557 43.7508 34.8222 43.9704 34.5398 44.1831C32.3074 45.8637 30.5582 44.6108 28.9545 43.4622C28.8726 43.4035 28.7911 43.3451 28.7099 43.2874C28.6537 43.2475 28.5841 43.1987 28.5017 43.1411C27.0635 42.1348 21.7623 38.4256 17.3186 31.9765C15.1686 28.8563 14.3394 26.8208 13.6777 25.1964C13.1696 23.9491 12.7603 22.9441 11.9274 21.8765C11.5558 21.5242 11.2108 21.1441 10.8958 20.7395C10.6594 20.5109 10.399 20.2757 10.1105 20.0314C8.7449 18.8748 8.52173 17.5283 8.93273 16.3832C8.81979 15.7771 8.76074 15.1521 8.76074 14.5133C8.76074 8.91103 13.3023 4.36951 18.9045 4.36951C24.5068 4.36951 29.0483 8.91103 29.0483 14.5133C29.0483 18.9567 26.1912 22.7329 22.214 24.1049C22.2163 24.1066 22.2187 24.1082 22.2211 24.1098C24.5675 25.7157 30.6489 30.3367 30.6489 30.3367C31.5916 28.0488 32.638 25.1116 33.7218 22.0696C36.0249 15.6051 38.4967 8.66708 40.5002 6.48149C40.5964 6.37644 40.6907 6.27317 40.783 6.17193Z" fill="#384C6C"/>
<path d="M21.4778 14.039C21.4778 19.4729 17.0727 23.878 11.6388 23.878C6.20488 23.878 1.7998 19.4729 1.7998 14.039C1.7998 8.60502 6.20488 4.19995 11.6388 4.19995C17.0727 4.19995 21.4778 8.60502 21.4778 14.039Z" fill="#384C6C"/>
<path fill-rule="evenodd" clip-rule="evenodd" d="M24.8449 14.0389C24.8449 21.3325 18.9323 27.2451 11.6388 27.2451C4.34522 27.2451 -1.56738 21.3325 -1.56738 14.0389C-1.56738 6.74536 4.34522 0.832764 11.6388 0.832764C18.9323 0.832764 24.8449 6.74536 24.8449 14.0389ZM11.6388 23.8779C17.0727 23.8779 21.4778 19.4729 21.4778 14.0389C21.4778 8.60499 17.0727 4.19992 11.6388 4.19992C6.20485 4.19992 1.79977 8.60499 1.79977 14.0389C1.79977 19.4729 6.20485 23.8779 11.6388 23.8779Z" fill="white"/>
<ellipse cx="11.6387" cy="14.0388" rx="4.5" ry="4.5" fill="white"/>
</g>
<defs>
<clipPath id="clip0_677_6683">
<rect width="47.9998" height="48" fill="white"/>
</clipPath>
</defs>
</svg>
