<svg width="48" height="48" viewBox="0 0 48 48" fill="none" xmlns="http://www.w3.org/2000/svg">
<path d="M7.7998 12.7199C7.7998 10.3341 9.73393 8.39996 12.1198 8.39996C14.5057 8.39996 16.4398 10.3341 16.4398 12.7199C16.4398 15.1058 14.5057 17.0399 12.1198 17.0399C9.73393 17.0399 7.7998 15.1058 7.7998 12.7199Z" fill="#384C6C"/>
<path d="M19.6797 12.7199C19.6797 10.3341 21.6138 8.39996 23.9997 8.39996C26.3855 8.39996 28.3197 10.3341 28.3197 12.7199C28.3197 15.1058 26.3855 17.0399 23.9997 17.0399C21.6138 17.0399 19.6797 15.1058 19.6797 12.7199Z" fill="#384C6C"/>
<path d="M35.8796 8.39996C33.4937 8.39996 31.5596 10.3341 31.5596 12.7199C31.5596 15.1058 33.4937 17.0399 35.8796 17.0399C38.2654 17.0399 40.1995 15.1058 40.1995 12.7199C40.1995 10.3341 38.2654 8.39996 35.8796 8.39996Z" fill="#384C6C"/>
<path d="M31.5596 24.0599C31.5596 21.6741 33.4937 19.7399 35.8796 19.7399C38.2654 19.7399 40.1995 21.6741 40.1995 24.0599C40.1995 26.4458 38.2654 28.3799 35.8796 28.3799C33.4937 28.3799 31.5596 26.4458 31.5596 24.0599Z" fill="#384C6C"/>
<path d="M23.9997 19.7399C21.6138 19.7399 19.6797 21.6741 19.6797 24.0599C19.6797 26.4458 21.6138 28.3799 23.9997 28.3799C26.3855 28.3799 28.3197 26.4458 28.3197 24.0599C28.3197 21.6741 26.3855 19.7399 23.9997 19.7399Z" fill="#384C6C"/>
<path d="M7.7998 24.0599C7.7998 21.6741 9.73393 19.7399 12.1198 19.7399C14.5057 19.7399 16.4398 21.6741 16.4398 24.0599C16.4398 26.4458 14.5057 28.3799 12.1198 28.3799C9.73393 28.3799 7.7998 26.4458 7.7998 24.0599Z" fill="#384C6C"/>
<path d="M35.8796 31.0799C33.4937 31.0799 31.5596 33.014 31.5596 35.3999C31.5596 37.7857 33.4937 39.7199 35.8796 39.7199C38.2654 39.7199 40.1995 37.7857 40.1995 35.3999C40.1995 33.014 38.2654 31.0799 35.8796 31.0799Z" fill="#384C6C"/>
<path d="M19.6797 35.3999C19.6797 33.014 21.6138 31.0799 23.9997 31.0799C26.3855 31.0799 28.3197 33.014 28.3197 35.3999C28.3197 37.7857 26.3855 39.7199 23.9997 39.7199C21.6138 39.7199 19.6797 37.7857 19.6797 35.3999Z" fill="#384C6C"/>
<path d="M12.1198 31.0799C9.73393 31.0799 7.7998 33.014 7.7998 35.3999C7.7998 37.7857 9.73393 39.7199 12.1198 39.7199C14.5057 39.7199 16.4398 37.7857 16.4398 35.3999C16.4398 33.014 14.5057 31.0799 12.1198 31.0799Z" fill="#384C6C"/>
</svg>
