<svg width="48" height="48" viewBox="0 0 48 48" fill="none" xmlns="http://www.w3.org/2000/svg">
<path d="M12.1208 11.8872C11.9907 11.8964 11.8593 11.9011 11.7268 11.9011C8.72443 11.9011 6.29053 9.50564 6.29053 6.55075C6.29053 3.59585 8.72443 1.20044 11.7268 1.20044C13.8883 1.20044 15.7551 2.44198 16.6313 4.24C18.6117 2.7468 21.0887 1.8595 23.7762 1.8595C26.463 1.8595 28.9394 2.74633 30.9195 4.23879C31.7959 2.44142 33.6624 1.20044 35.8234 1.20044C38.8258 1.20044 41.2597 3.59585 41.2597 6.55075C41.2597 9.50564 38.8258 11.9011 35.8234 11.9011C35.6917 11.9011 35.5611 11.8964 35.4317 11.8874C35.5002 12.393 35.5356 12.9089 35.5356 13.433C35.5356 19.8248 30.2708 25.0064 23.7762 25.0064C17.2817 25.0064 12.0168 19.8248 12.0168 13.433C12.0168 12.9088 12.0522 12.3929 12.1208 11.8872Z" fill="#384C6C"/>
<path d="M41.4389 24.7124L41.6281 24.7765C44.669 25.8062 46.8524 27.0944 46.5433 30.3762C46.2463 33.5317 44.0032 35.6349 42.3151 35.2327C41.8633 35.125 40.9889 34.7283 39.9756 34.2686C39.2548 33.9417 38.4637 33.5828 37.7044 33.2734L37.6962 33.2911C36.9384 32.9815 36.2122 32.7212 35.6194 32.5912L35.722 35.4024C35.959 41.891 30.7629 47.2803 24.2698 47.2803H23.6427C17.0557 47.2803 11.8245 41.7403 12.2019 35.1639L12.3415 32.7313C11.1544 32.9424 9.32164 33.7759 7.80158 34.4672C6.78866 34.9278 5.91454 35.3253 5.46288 35.4335C3.77531 35.8372 1.5301 33.7362 1.22992 30.5811C0.917718 27.2996 3.09986 26.0093 6.1397 24.9766L6.33053 24.9115C8.83027 24.0609 13.9164 22.3301 16.2933 23.7182L16.303 23.7098C18.3346 25.3571 20.9377 26.3465 23.7756 26.3465C26.7062 26.3465 29.3865 25.2915 31.4456 23.5461L31.445 23.5447L31.4527 23.54L31.4681 23.527L31.4709 23.5293C33.8461 22.1361 38.9382 23.8639 41.4389 24.7124Z" fill="#384C6C"/>
<path d="M22.6777 29.833H24.8727C25.1821 29.833 25.4329 30.0838 25.4329 30.3932V33.7819H28.8847C29.1941 33.7819 29.4449 34.0328 29.4449 34.3421V36.4848C29.4449 36.7942 29.1941 37.045 28.8847 37.045H25.4329V40.4325C25.4329 40.7419 25.1821 40.9927 24.8727 40.9927H22.6777C22.3683 40.9927 22.1174 40.7419 22.1174 40.4325V37.045H18.6662C18.3568 37.045 18.106 36.7942 18.106 36.4848V34.3421C18.106 34.0328 18.3568 33.7819 18.6662 33.7819H22.1174V30.3932C22.1174 30.0838 22.3683 29.833 22.6777 29.833Z" fill="white"/>
<path d="M30.52 17.4321C30.52 20.4871 27.5004 22.9635 23.7756 22.9635C20.0508 22.9635 17.0312 20.4871 17.0312 17.4321C17.0312 14.3771 20.0508 11.9006 23.7756 11.9006C27.5004 11.9006 30.52 14.3771 30.52 17.4321Z" fill="white"/>
<path d="M27.148 15.8691C27.148 17.3966 25.6383 18.6348 23.7759 18.6348C21.9135 18.6348 20.4038 17.3966 20.4038 15.8691C20.4038 14.3417 21.9135 13.1034 23.7759 13.1034C25.6383 13.1034 27.148 14.3417 27.148 15.8691Z" fill="#384C6C"/>
</svg>
