<svg width="48" height="48" viewBox="0 0 48 48" fill="none" xmlns="http://www.w3.org/2000/svg">
<g clip-path="url(#clip0_383_270)">
<path d="M28.5297 48H18.3792V43.5301C18.3792 42.5523 17.5877 41.7607 16.6099 41.7607H13.1177C11.2087 41.7607 9.67216 40.2242 9.67216 38.3152V33.6124C9.67216 32.9606 7.75873 32.7259 7.19999 32.4L5.58003 31.7912C4.83504 31.4187 4.60223 30.4875 4.97472 29.7425L9.15998 24.4863C9.43935 24.0207 9.53247 23.462 9.43935 22.9032C9.06686 20.4354 8.41499 12.5665 15.4924 7.11877C21.4057 2.55571 29.6937 2.46259 35.8864 6.65315C35.9796 6.69971 36.0727 6.79283 36.1658 6.83939C41.9395 10.9834 44.1279 18.5264 41.6601 25.2313C40.9617 27.1403 39.9839 29.3753 38.7267 31.4706C37.1902 34.078 36.4917 37.1511 36.7711 40.1776L37.4695 48H28.5297Z" fill="#374A68"/>
</g>
<defs>
<clipPath id="clip0_383_270">
<rect width="48" height="48" fill="white"/>
</clipPath>
</defs>
</svg>
