<svg width="48" height="48" viewBox="0 0 48 48" fill="none" xmlns="http://www.w3.org/2000/svg">
<path d="M20.3902 8.7269C20.3902 6.66859 22.0588 5 24.1171 5C26.1754 5 27.844 6.66859 27.844 8.72691V10.8419C28.2414 10.8991 28.6927 10.9887 29.1959 11.0887C30.5491 11.3574 32.2776 11.7007 34.3428 11.6894C36.7563 11.6761 38.7007 10.8943 40.2321 10.2785C41.8167 9.64139 42.9591 9.18205 43.7213 9.93599C45.2243 12.1639 40.419 15.1718 34.8055 15.2026C31.9712 15.2181 29.4922 14.9571 27.844 14.3532V18.57C29.176 18.834 30.8571 19.1542 32.8527 19.1432C35.2662 19.13 37.2106 18.3482 38.742 17.7324C40.3266 17.0953 41.469 16.6359 42.2312 17.3899C43.7342 19.6178 38.9289 22.6257 33.3154 22.6565C31.2384 22.6679 29.3523 22.5307 27.844 22.219V26.0514C28.8779 26.2858 30.0657 26.497 31.4036 26.5675C33.8137 26.6944 35.8003 26.0268 37.3649 25.501C38.9838 24.9569 40.1509 24.5647 40.8681 25.3616C42.2392 27.6731 37.2673 30.3969 31.6615 30.1017C30.2825 30.029 28.9916 29.8958 27.844 29.6974V33.7406C28.4076 33.8584 29.013 33.9538 29.6603 34.0068C31.7629 34.1791 33.5235 33.5496 34.9101 33.0538C36.3449 32.5408 37.3792 32.171 37.9778 32.9807C39.0939 35.3158 34.6499 37.9431 29.7595 37.5424C29.094 37.4879 28.4528 37.4154 27.844 37.3242V40.033C27.844 42.0913 26.1754 43.7599 24.1171 43.7599C22.0588 43.7599 20.3902 42.0913 20.3902 40.033V37.288C19.7124 37.3964 18.9919 37.4809 18.2405 37.5425C13.3501 37.9432 8.90615 35.3158 10.0222 32.9807C10.6207 32.171 11.6551 32.5409 13.0899 33.0539C14.4765 33.5497 16.2372 34.1791 18.3397 34.0069C19.0776 33.9464 19.761 33.8309 20.3902 33.69V29.6557C19.1851 29.8773 17.8121 30.0241 16.3385 30.1017C10.7327 30.3969 5.76083 27.6731 7.13192 25.3617C7.8491 24.5647 9.01623 24.957 10.6351 25.501C12.1997 26.0268 14.1863 26.6945 16.5965 26.5675C18.0365 26.4917 19.3026 26.2528 20.3902 25.9974V22.1686C18.8451 22.516 16.8705 22.6685 14.6846 22.6565C9.07108 22.6257 4.26578 19.6178 5.76877 17.3899C6.53102 16.636 7.6734 17.0953 9.25799 17.7325C10.7894 18.3482 12.7338 19.1301 15.1473 19.1433C17.2125 19.1546 18.941 18.8113 20.2942 18.5426L20.3902 18.5235V14.2629C18.7477 14.9312 16.1664 15.2189 13.1945 15.2026C7.58099 15.1718 2.77569 12.164 4.27868 9.93603C5.04093 9.1821 6.18331 9.64143 7.7679 10.2786C9.29931 10.8943 11.2437 11.6762 13.6572 11.6894C15.7224 11.7007 17.4509 11.3574 18.8041 11.0887C19.4089 10.9686 19.9387 10.8634 20.3902 10.8114V8.7269Z" fill="#374A68"/>
</svg>
