<svg width="48" height="48" viewBox="0 0 48 48" fill="none" xmlns="http://www.w3.org/2000/svg">
<path d="M26.1848 23.7098C26.1848 23.7098 26.1848 40.7598 26.1848 41.0716C26.1848 41.3834 26.6577 42.2566 27.824 42.2566C28.984 42.2566 29.4673 41.3834 29.4673 41.0716C29.4673 40.7598 29.4673 23.7098 29.4673 23.7098C29.4673 21.9843 29.4673 20.9996 30.1238 20.0149C30.7803 19.0302 31.765 18.3737 33.078 18.3737H34.3909L34.3909 15.0993C32.2438 15.0993 30.7803 14.763 28.2337 17.2519C27.5899 18.0598 26.8664 18.9014 26.5131 20.0149C26.1848 21.3279 26.185 22.488 26.1848 23.7098Z" fill="#374A68"/>
<path d="M21.7843 23.7098C21.7843 23.7098 21.7843 40.7598 21.7843 41.0716C21.7843 41.3834 21.3114 42.2566 20.1451 42.2566C18.9851 42.2566 18.5018 41.3834 18.5018 41.0716C18.5018 40.7598 18.5018 23.7098 18.5018 23.7098C18.5018 21.9843 18.5018 20.9996 17.8453 20.0149C17.1888 19.0301 16.2041 18.3737 14.8911 18.3737H13.5782L13.5782 15.0993C15.7253 15.0993 17.1888 14.763 19.7354 17.2519C20.3792 18.0598 21.1027 18.9014 21.456 20.0149C21.7843 21.3279 21.7841 22.488 21.7843 23.7098Z" fill="#374A68"/>
<path d="M12.6701 20.8902C13.4249 21.6602 13.9353 22.636 14.1372 23.6951C14.3391 24.7543 14.2236 25.8495 13.8051 26.8431C13.3865 27.8368 12.6837 28.6847 11.7849 29.2802C10.8861 29.8757 9.83133 30.1924 8.75312 30.1904C8.75312 30.1904 0 31.2845 0 17.0607C0 11.0538 2.05698 8.02308 4.29997 6.50223C8.56711 3.60276 15.318 4.8829 15.318 10.4958C15.3183 11.2444 15.1651 11.985 14.8678 12.6719C14.5704 13.3589 14.1353 13.9775 13.5892 14.4894C14.1361 15.5155 14.3418 16.6892 14.1766 17.8401C14.0113 18.9911 13.4837 20.0594 12.6701 20.8902Z" fill="#374A68"/>
<path d="M35.0696 20.89C34.3148 21.66 33.8044 22.6358 33.6025 23.695C33.4006 24.7541 33.5161 25.8493 33.9346 26.843C34.3531 27.8366 35.056 28.6845 35.9548 29.28C36.8536 29.8755 37.9084 30.1922 38.9866 30.1902C38.9866 30.1902 47.7397 31.2843 47.7397 17.0605C47.7397 3.93082 37.8924 5.02496 37.8924 5.02496C36.7948 5.02435 35.7224 5.35392 34.8146 5.97084C33.9068 6.58775 33.2055 7.46347 32.8019 8.48419C32.3984 9.50491 32.3112 10.6234 32.5517 11.6944C32.7921 12.7653 33.3492 13.7391 34.1505 14.4893C33.6036 15.5154 33.3978 16.689 33.5631 17.84C33.7284 18.9909 34.256 20.0592 35.0696 20.89Z" fill="#374A68"/>
</svg>
