<svg width="156" height="30" viewBox="0 0 156 30" fill="none" xmlns="http://www.w3.org/2000/svg">
<g clip-path="url(#clip0)">
<path fill-rule="evenodd" clip-rule="evenodd" d="M12.1287 11.2474C11.3481 12.0381 10.8915 13.0922 10.8487 14.2024C10.8487 16.6887 12.2762 18.6337 14.8374 18.6349C18.2362 18.6349 18.8999 15.1624 18.8999 13.5099C18.8999 13.3258 18.8894 13.1417 18.8687 12.9587C19.8159 12.7946 20.7175 12.4312 21.5137 11.8924C21.5549 13.5449 21.6024 15.1424 21.6024 15.8724C21.5787 18.1624 21.7499 18.4337 22.4637 18.4337C23.2274 18.4337 23.6462 16.8824 24.3599 15.4049C25.1962 13.5587 26.0837 11.7112 26.6249 11.7112C27.6349 11.7112 25.8124 18.5324 28.2499 18.5324C29.9737 18.5324 32.5337 11.6124 33.6424 11.6124C34.5037 11.6124 32.7549 18.5324 34.6762 18.5324C36.0799 18.5324 38.4687 11.4899 39.2812 11.4899C40.1187 11.4899 38.3949 18.5324 40.8824 18.5324C43.1224 18.5324 44.9449 12.7462 45.5612 12.7462C45.8574 12.7462 46.4112 13.5212 46.8112 14.5824V14.6099C46.1307 15.3242 45.6868 16.2307 45.5399 17.2062C45.5352 17.3862 45.5678 17.5653 45.6357 17.7321C45.7036 17.8989 45.8054 18.0498 45.9347 18.1752C46.0639 18.3007 46.2177 18.398 46.3864 18.461C46.5552 18.524 46.7351 18.5513 46.9149 18.5412C47.5395 18.4411 48.1011 18.1031 48.482 17.5982C48.863 17.0933 49.0338 16.4605 48.9587 15.8324C48.9601 15.0643 48.8234 14.3022 48.5549 13.5824V13.5724C49.8874 12.2423 51.5199 11.2516 53.3149 10.6837C52.6262 11.4712 51.3699 12.1612 51.3699 14.4024C51.3584 14.9608 51.459 15.5157 51.6659 16.0345C51.8727 16.5532 52.1816 17.0251 52.5742 17.4222C52.9668 17.8194 53.4351 18.1337 53.9514 18.3465C54.4677 18.5593 55.0215 18.6663 55.5799 18.6612C58.9037 18.6612 59.6174 15.1162 59.6174 13.7362C59.6208 13.2775 59.5602 12.8206 59.4374 12.3787C60.5624 11.8474 61.4199 11.0974 61.7387 11.0974C62.4274 11.0974 62.1574 13.1899 62.1574 15.3574C62.1574 16.9824 61.9074 18.6562 63.1174 18.6562C64.0287 18.6562 64.4724 16.8587 65.3824 15.2587C66.2687 13.6824 67.2287 11.5399 67.5987 11.5399C68.0912 11.5399 67.8949 14.8399 67.8949 15.4799C67.8949 16.2924 67.7462 18.8549 69.4212 18.8549C70.5537 18.8549 72.6712 15.6787 72.6712 15.2599C72.6712 15.0387 72.6712 14.9887 72.4987 14.9887C72.3262 14.9887 71.0212 17.1312 70.4987 17.1312C69.7599 17.1312 70.2274 14.3974 70.2274 12.3812C70.2274 11.4949 70.3524 9.52494 68.8724 9.52494C66.9974 9.52494 65.1787 14.7937 64.6137 14.7937C64.0724 14.7937 65.4012 9.72119 63.0624 9.72119C62.1099 9.72119 60.6962 11.0124 59.1537 11.6762H59.1624C58.9322 11.1833 58.5692 10.7644 58.1141 10.4663C57.6591 10.1682 57.13 10.0028 56.5862 9.9887C56.2752 9.97638 55.9715 10.0847 55.7385 10.2911C55.5056 10.4975 55.3614 10.786 55.3362 11.0962C55.3472 11.3502 55.4095 11.5993 55.5193 11.8286C55.629 12.0579 55.784 12.2627 55.9749 12.4306C56.1658 12.5985 56.3887 12.726 56.6301 12.8056C56.8716 12.8852 57.1266 12.9152 57.3799 12.8937C57.7654 12.8909 58.1486 12.835 58.5187 12.7274H58.5337C58.6561 13.1058 58.7235 13.4999 58.7337 13.8974C58.776 14.6353 58.5298 15.3607 58.0472 15.9205C57.5647 16.4802 56.8835 16.8306 56.1474 16.8974C55.4084 16.7969 54.7361 16.4168 54.2689 15.8355C53.8018 15.2541 53.5753 14.5158 53.6362 13.7724C53.6362 10.9649 55.3349 10.4974 55.3349 9.9312C55.3349 9.6812 55.1374 9.63495 54.7687 9.63495C52.8687 9.63495 50.2587 11.2062 48.2987 13.0099H48.2912C48.2239 12.8896 48.1504 12.7728 48.0712 12.6599C46.1762 9.9512 46.9137 9.3612 46.4212 9.3612C45.8062 9.3612 43.0462 16.8712 41.9637 16.8712C40.5362 16.8712 43.1462 9.63245 40.3637 9.63245C38.1724 9.63245 36.9162 15.3199 36.0787 15.3199C35.2662 15.3199 36.8912 9.63245 34.5274 9.63245C32.8287 9.63245 30.2924 16.4274 29.1849 16.4274C28.2499 16.4274 30.0462 9.7312 27.8799 9.7312C25.8112 9.7312 24.1862 14.9812 23.6699 14.9812C23.2374 14.9812 23.3299 13.3424 23.3474 10.3362L23.3549 10.3149C25.0952 8.51097 26.1175 6.13399 26.2299 3.62995C26.2299 2.52245 25.6887 1.65995 24.6537 1.6612C22.6349 1.6612 21.4537 4.8612 21.4537 8.38245C21.4537 9.14995 21.4712 10.1324 21.4937 11.1324V11.1449C20.8299 11.7019 20.0254 12.0652 19.1687 12.1949H18.7149C18.5632 11.5999 18.2279 11.0678 17.7568 10.6741C17.2856 10.2803 16.7024 10.0449 16.0899 10.0012C15.7622 10.0126 15.4502 10.1446 15.2138 10.3718C14.9774 10.599 14.8331 10.9054 14.8087 11.2324C14.8087 12.0674 15.5499 12.9512 17.8874 13.0024C17.9461 13.285 17.9771 13.5726 17.9799 13.8612C18.0096 14.6157 17.7515 15.3532 17.2578 15.9246C16.7642 16.496 16.072 16.8584 15.3212 16.9387C13.8437 16.9387 12.7349 15.2649 12.7349 13.4187C12.7289 12.7885 12.8679 12.1653 13.1412 11.5974C13.4146 11.0295 13.8149 10.5321 14.3112 10.1437C14.3112 10.0449 14.2874 9.94619 14.2374 9.94619C12.6737 9.94619 10.1237 11.6674 7.72118 14.1662C7.35464 11.7243 7.15542 9.26024 7.12493 6.79119C7.03192 5.01792 7.29108 3.24378 7.88743 1.5712C7.88743 1.3212 7.81368 1.2262 7.39493 1.2262C6.46493 1.24995 0.407428 3.9837 0.407428 10.0412C0.366223 11.6221 0.732281 13.187 1.47043 14.5856C2.20858 15.9842 3.29401 17.1694 4.62243 18.0274C2.87122 20.3675 1.81969 23.1562 1.58993 26.0699C1.58993 27.4987 2.15618 28.9012 3.21493 28.9012C4.88993 28.9012 8.08993 25.3549 8.08993 18.0924C8.06335 16.9973 7.96943 15.9048 7.80868 14.8212C9.08713 13.4471 10.5394 12.2457 12.1287 11.2474ZM140.934 11.9837V11.9749C140.62 11.3712 140.184 10.9037 139.646 10.9037C139.529 10.9106 139.417 10.9588 139.332 11.0397C139.246 11.1207 139.192 11.2292 139.179 11.3462C139.179 11.7899 139.597 12.0599 140.237 12.0599C140.472 12.0586 140.705 12.0326 140.934 11.9824V11.9837ZM87.6649 17.5337C87.9749 17.0949 88.2974 16.6649 88.6299 16.2474L88.6474 16.2099C88.2151 14.3189 87.9363 12.3959 87.8137 10.4599C87.8137 6.10245 89.7087 2.99995 89.7087 2.33495C89.7087 1.8912 89.7837 1.81745 89.4587 1.81745C89.2362 1.81745 84.9024 3.6637 84.9024 10.1924C84.9354 12.8875 85.9131 15.4855 87.6649 17.5337ZM87.3237 18.0337C86.7137 17.5687 86.1449 16.7712 85.2774 16.1774C84.5462 15.6774 82.6174 16.2199 80.9437 16.5237C80.7987 17.4874 80.4662 18.4412 80.1349 18.4412C79.9174 18.4412 79.8224 17.6787 79.5512 16.7912L79.5349 16.7799C78.9531 16.9004 78.3632 16.9781 77.7699 17.0124C76.6137 17.0124 73.9537 16.4949 73.9537 14.7474C73.9537 13.7624 75.0612 13.3724 76.1199 13.3724C76.8133 13.3949 77.4937 13.5668 78.1146 13.8764C78.7355 14.186 79.2822 14.6259 79.7174 15.1662C79.683 14.1205 79.3022 13.1158 78.6349 12.3099C78.6349 12.0399 79.9399 11.5474 80.0624 11.5474C80.5799 11.5474 81.0224 13.9112 81.0224 15.5849C81.0224 15.6649 81.0224 15.7462 81.0224 15.8349C82.2215 15.5246 83.4581 15.3837 84.6962 15.4162C83.6215 13.8344 83.0766 11.9524 83.1399 10.0412C83.1399 3.9837 89.1724 1.2512 90.1087 1.2512C90.5274 1.2512 90.6262 1.34995 90.6262 1.5962C90.0114 3.26453 89.7434 5.04075 89.8387 6.8162C89.8694 9.28523 90.0686 11.7493 90.4349 14.1912C92.8387 11.6912 95.3912 9.96744 96.9549 9.96744C97.0037 9.96744 97.0287 10.0662 97.0287 10.1649C96.5324 10.5534 96.1321 11.0508 95.8587 11.6187C95.5854 12.1866 95.4464 12.8097 95.4524 13.4399C95.4524 15.2862 96.5849 16.9599 98.0624 16.9599C98.809 16.8744 99.4956 16.5096 99.9844 15.9387C100.473 15.3679 100.728 14.6333 100.697 13.8824C100.695 13.5921 100.663 13.3028 100.604 13.0187C98.2637 12.9674 97.5224 12.0849 97.5224 11.2487C97.5484 10.9181 97.6964 10.609 97.9376 10.3815C98.1787 10.1539 98.4959 10.0242 98.8274 10.0174C99.4355 10.0651 100.013 10.3022 100.48 10.6956C100.946 11.0889 101.277 11.6185 101.426 12.2099H101.881C102.739 12.0799 103.544 11.7157 104.209 11.1574C104.185 10.1487 104.169 9.16745 104.169 8.3987C104.169 4.87745 105.351 1.67745 107.37 1.6762C108.404 1.6762 108.946 2.5387 108.946 3.6462C108.834 6.15079 107.812 8.52841 106.071 10.3324L106.065 10.3499C106.049 13.3587 105.955 14.9974 106.387 14.9974C106.905 14.9974 108.529 9.74745 110.597 9.74745C112.765 9.74745 110.991 16.4449 111.902 16.4449C113.011 16.4449 115.547 9.6487 117.246 9.6487C119.61 9.6487 117.985 15.3362 118.797 15.3362C119.634 15.3362 120.89 9.6487 123.081 9.6487C125.864 9.6487 123.254 16.8874 124.682 16.8874C125.766 16.8874 128.524 9.37744 129.139 9.37744C129.631 9.37744 128.889 9.96869 130.789 12.6762C130.868 12.7889 130.942 12.9057 131.009 13.0262H131.017C132.981 11.2162 135.596 9.65119 137.51 9.65119C137.855 9.65119 138.051 9.69995 138.051 9.94745C138.051 10.5137 136.352 10.9812 136.352 13.7887C136.292 14.5322 136.518 15.2707 136.986 15.8521C137.453 16.4335 138.126 16.8135 138.865 16.9137C139.601 16.8465 140.282 16.496 140.764 15.9363C141.246 15.3766 141.492 14.6513 141.45 13.9137C141.439 13.5166 141.372 13.123 141.25 12.7449H141.239C140.873 12.852 140.495 12.9076 140.114 12.9099C139.859 12.9337 139.602 12.9055 139.358 12.8271C139.114 12.7486 138.889 12.6215 138.695 12.4535C138.502 12.2855 138.345 12.08 138.233 11.8495C138.122 11.619 138.058 11.3683 138.046 11.1124C138.071 10.8022 138.216 10.5138 138.449 10.3074C138.681 10.101 138.985 9.99263 139.296 10.0049C139.838 10.0189 140.366 10.1833 140.82 10.4798C141.274 10.7762 141.637 11.193 141.867 11.6837C143.406 11.0187 144.817 9.73244 145.766 9.73244C148.105 9.73244 146.775 14.8049 147.317 14.8049C147.909 14.8049 149.706 9.5362 151.577 9.5362C153.055 9.5362 152.931 11.5062 152.931 12.3924C152.931 14.4112 152.464 17.1424 153.202 17.1424C153.72 17.1424 155.025 14.9999 155.202 14.9999C155.38 14.9999 155.399 15.0487 155.399 15.2712C155.399 15.6899 153.281 18.8662 152.124 18.8662C150.45 18.8662 150.597 16.3049 150.597 15.4912C150.597 14.8512 150.795 11.5512 150.301 11.5512C149.932 11.5512 148.971 13.6937 148.085 15.2699C147.175 16.8699 146.731 18.6674 145.82 18.6674C144.614 18.6674 144.86 16.9924 144.86 15.3687C144.86 13.2012 145.131 11.1087 144.441 11.1087C144.122 11.1087 143.27 11.8587 142.147 12.3899C142.269 12.8292 142.328 13.2831 142.325 13.7387C142.325 15.1137 141.611 18.6637 138.287 18.6637C137.729 18.6687 137.175 18.5615 136.659 18.3487C136.143 18.1358 135.675 17.8215 135.282 17.4244C134.89 17.0272 134.581 16.5554 134.374 16.0368C134.167 15.5181 134.066 14.9632 134.077 14.4049C134.077 12.1637 135.327 11.4749 136.046 10.6862C134.243 11.25 132.603 12.2406 131.265 13.5737V13.5874C131.532 14.3053 131.668 15.0652 131.667 15.8312C131.743 16.4589 131.573 17.0917 131.193 17.5969C130.813 18.1021 130.252 18.4405 129.627 18.5412C129.448 18.5512 129.269 18.5241 129.1 18.4614C128.932 18.3987 128.778 18.3018 128.649 18.1769C128.52 18.052 128.418 17.9017 128.35 17.7355C128.281 17.5693 128.248 17.3908 128.252 17.2112C128.4 16.2343 128.845 15.3264 129.526 14.6112V14.6024C129.131 13.5337 128.574 12.7537 128.276 12.7537C127.661 12.7537 125.862 18.5399 123.597 18.5399C121.11 18.5399 122.835 11.4974 121.996 11.4974C121.184 11.4974 118.796 18.5399 117.417 18.5399C115.472 18.5399 117.22 11.6212 116.357 11.6199C115.25 11.6199 112.689 18.5399 110.966 18.5399C108.529 18.5399 110.351 11.7187 109.341 11.7187C108.8 11.7187 107.912 13.5649 107.075 15.4124C106.361 16.8899 105.942 18.4412 105.18 18.4412C104.466 18.4412 104.319 18.1699 104.317 15.8799C104.317 15.1537 104.27 13.5537 104.229 11.9012C103.433 12.4393 102.532 12.8027 101.586 12.9674C101.607 13.1492 101.617 13.332 101.616 13.5149C101.616 15.1649 100.951 18.6399 97.5537 18.6399C94.9937 18.6399 93.5899 16.6949 93.5899 14.2074C93.6231 13.1009 94.069 12.0469 94.8399 11.2524C93.2532 12.2478 91.8031 13.4458 90.5262 14.8162V14.8374C90.687 15.9173 90.7809 17.006 90.8074 18.0974C90.8074 25.3612 87.6312 28.9062 85.9324 28.9062C84.8737 28.9062 84.3074 27.5024 84.3074 26.0749C84.5331 23.1607 85.5807 20.3702 87.3287 18.0274L87.3237 18.0337ZM129.736 15.2924C129.354 15.7731 129.119 16.3546 129.061 16.9662C129.061 17.4587 129.16 17.7549 129.455 17.7549C129.725 17.7549 129.972 17.4099 129.972 16.9424C129.967 16.3843 129.889 15.8293 129.741 15.2912L129.736 15.2924ZM106.062 9.33869C107.26 7.81965 107.913 5.94199 107.915 4.00745C107.915 2.9737 107.841 2.38245 107.3 2.38245C105.907 2.38245 106.046 7.52369 106.062 9.33869ZM100.344 12.1899V12.1837C100.08 11.5662 99.6649 11.0749 99.0937 11.0749C99.0447 11.0692 98.995 11.0737 98.9479 11.0884C98.9007 11.103 98.8572 11.1274 98.8201 11.1599C98.783 11.1924 98.7531 11.2324 98.7324 11.2772C98.7117 11.322 98.7006 11.3706 98.6999 11.4199C98.7012 11.9662 99.4812 12.1374 100.344 12.1899ZM88.7749 16.8712C86.8322 19.175 85.6699 22.0353 85.4549 25.0412C85.4549 25.9524 85.4549 27.3074 86.7049 27.3074C88.2562 27.3074 89.3399 24.9924 89.3387 21.7674C89.2926 20.1221 89.104 18.4839 88.7749 16.8712ZM79.3112 16.1424L79.3199 16.1262C79.149 15.5395 78.7936 15.0235 78.3064 14.6547C77.8191 14.2858 77.226 14.0839 76.6149 14.0787C76.1962 14.0787 75.9749 14.4537 75.9749 14.8912C75.9749 15.7037 77.2549 16.2212 78.4374 16.2212C78.7301 16.2152 79.0221 16.1889 79.3112 16.1424ZM58.2249 11.9824C57.9974 12.032 57.7653 12.0575 57.5324 12.0587C56.8674 12.0587 56.4737 11.7874 56.4737 11.3449C56.487 11.2279 56.5412 11.1194 56.6268 11.0385C56.7123 10.9575 56.8236 10.9093 56.9412 10.9024C57.4737 10.9024 57.9149 11.3712 58.2287 11.9737L58.2249 11.9824ZM47.0399 15.2912C47.1866 15.8261 47.2635 16.3778 47.2687 16.9324C47.2687 17.3999 47.0187 17.7449 46.7512 17.7449C46.4562 17.7449 46.3574 17.4487 46.3574 16.9562C46.4149 16.348 46.6476 15.7696 47.0274 15.2912H47.0399ZM23.3549 9.32994C23.3387 7.50744 23.2024 2.38245 24.5874 2.38245C25.1287 2.38245 25.2024 2.9737 25.2024 4.00745C25.2014 5.93881 24.5521 7.81394 23.3587 9.33245L23.3549 9.32994ZM17.6387 12.1887C16.7749 12.1387 15.9937 11.9662 15.9937 11.4187C15.9944 11.3694 16.0055 11.3207 16.0262 11.2759C16.0469 11.2311 16.0767 11.1912 16.1138 11.1586C16.151 11.1261 16.1945 11.1018 16.2416 11.0871C16.2887 11.0725 16.3384 11.0679 16.3874 11.0737C16.9612 11.0737 17.3774 11.5662 17.6374 12.1862L17.6387 12.1887ZM5.94118 16.2299C5.60493 16.6524 5.27743 17.0874 4.96493 17.5312C3.21514 15.4816 2.23938 12.8834 2.20743 10.1887C2.20743 3.66495 6.54118 1.8137 6.76243 1.8137C7.08368 1.8137 6.98368 1.88744 6.98368 2.33119C6.98368 2.99619 5.10868 6.0987 5.10868 10.4562C5.23135 12.3922 5.51017 14.3151 5.94243 16.2062L5.94118 16.2299ZM6.06618 16.8649C6.39692 18.4771 6.58763 20.1149 6.63618 21.7599C6.63618 24.9849 5.55368 27.2999 4.00118 27.2999C2.75118 27.2999 2.75118 25.9449 2.75118 25.0349C2.96435 22.0298 4.12447 19.1695 6.06493 16.8649H6.06618Z" fill="#9CA8B3"/>
</g>
<defs>
<clipPath id="clip0">
<rect width="155" height="30" fill="white" transform="translate(0.407471)"/>
</clipPath>
</defs>
</svg>
