<svg width="48" height="49" viewBox="0 0 48 49" fill="none" xmlns="http://www.w3.org/2000/svg">
<path d="M15.4502 7.2256C14.0999 7.58843 12.5998 4.58843 14.0999 3.38843C15.0532 1.95846 16.5624 2.14128 17.5158 2.30016C18.4691 2.45905 20.1374 4.44511 19.5018 7.2256C19.0234 9.31871 18.7701 12.0421 18.6063 13.8029L18.6063 13.803C18.5525 14.3812 18.5083 14.8556 18.4691 15.1699C18.4117 15.6286 18.3958 16.5842 18.3764 17.7452C18.2344 22.4484 18.6063 32.1884 19.0252 34.8716C19.7589 34.8716 20.9318 35.247 20.9318 37.096L33.8809 44.0075C34.4521 46.359 32.869 47.7612 31.4182 48.0591C28.9025 46.6556 23.7282 43.7533 23.1562 43.372C22.4412 42.8953 20.0579 41.3859 19.0252 41.0682C18.6725 40.9596 18.3291 40.916 17.9981 40.8739C17.3599 40.7927 16.0332 40.5375 15.5101 40.0143C14.7285 39.2327 14.2054 37.6112 14.9998 36.3884C15.6002 34.2617 15.5101 16.8884 15.4502 7.2256Z" fill="#374A68"/>
<path d="M18.3362 0.631832C19.1671 -0.209716 20.6401 -0.211586 21.2756 0.631832C23.6998 3.84904 26.316 14.1884 26.616 21.3884C26.8415 26.7985 25.109 34.657 26.616 38.2265L23.0998 36.3884C22.7998 33.9884 21.1563 30.056 20.6401 23.3287C20.0998 16.2884 20.0045 12.3099 20.6401 9.37052C21.1485 7.01902 20.8519 4.84229 20.6401 4.04786C20.5077 3.41232 20.0363 2.10946 19.2101 1.98236C18.3839 1.85525 17.9753 1.28004 18.3362 0.631832Z" fill="#374A68"/>
</svg>
