<?xml version="1.0" encoding="UTF-8"?>
<svg width="74px" height="70px" viewBox="0 0 74 70" version="1.1" xmlns="http://www.w3.org/2000/svg" xmlns:xlink="http://www.w3.org/1999/xlink">
    <!-- Generator: Sketch 58 (84663) - https://sketch.com -->
    <title>help-keyboard-slow-motion</title>
    <desc>Created with Sketch.</desc>
    <g id="Widget-S1-R5" stroke="none" stroke-width="1" fill="none" fill-rule="evenodd">
        <g id="Widget-S2-R5-/-Help-2" transform="translate(-749.000000, -353.000000)">
            <g id="Keyboard" transform="translate(97.000000, 351.000000)">
                <g id="Group-16" transform="translate(606.000000, 37.000000)">
                    <g id="S" transform="translate(48.000000, 0.000000)">
                        <rect id="Rectangle" fill="#969696" x="0" y="3" width="70" height="28" rx="2"></rect>
                        <rect id="Rectangle" fill="#F9FAFD" x="0" y="1" width="70" height="28" rx="2"></rect>
                        <rect id="Rectangle" fill="#FFFFFF" x="0" y="0" width="70" height="28" rx="2"></rect>
                        <path d="M26.9659091,15.1846591 L25.5596591,15.3380682 C25.4999997,15.122158 25.3728703,14.931819 25.178267,14.7670455 C24.9836638,14.6022719 24.7088086,14.5198864 24.3536932,14.5198864 C24.0326688,14.5198864 23.7634954,14.5894879 23.5461648,14.7286932 C23.3288341,14.8678984 23.2215909,15.0482943 23.2244318,15.2698864 C23.2215909,15.4602282 23.2919027,15.6157664 23.4353693,15.7365057 C23.5788359,15.8572449 23.8167597,15.9545451 24.1491477,16.0284091 L25.265625,16.2670455 C26.4900629,16.5340922 27.1036932,17.1249954 27.1065341,18.0397727 C27.1065341,18.4517066 26.9872171,18.8146291 26.7485795,19.1285511 C26.509942,19.4424732 26.1803998,19.6874991 25.7599432,19.8636364 C25.3394865,20.0397736 24.8565368,20.1278409 24.3110795,20.1278409 C23.5070983,20.1278409 22.8622183,19.9588085 22.3764205,19.6207386 C21.8906226,19.2826688 21.5994323,18.8139235 21.5028409,18.2144886 L23.0071023,18.0696023 C23.1406257,18.6661962 23.57386,18.9644886 24.3068182,18.9644886 C24.6732973,18.9644886 24.9680387,18.8899155 25.1910511,18.740767 C25.4140636,18.5916186 25.5255682,18.4048307 25.5255682,18.1803977 C25.5255682,17.8139186 25.231537,17.5653416 24.6434659,17.4346591 L23.5269886,17.2002841 C22.8991446,17.0696016 22.4346606,16.8487231 22.1335227,16.537642 C21.8323849,16.2265609 21.6832386,15.8323888 21.6860795,15.3551136 C21.6860795,14.9517025 21.7968739,14.601564 22.0184659,14.3046875 C22.2400579,14.007811 22.5497139,13.7776997 22.9474432,13.6143466 C23.3451724,13.4509935 23.8068156,13.3693182 24.3323864,13.3693182 C25.0994357,13.3693182 25.703833,13.533379 26.1455966,13.8615057 C26.5873602,14.1896323 26.8607949,14.630679 26.9659091,15.1846591 Z M30.3732955,16.1647727 L30.3732955,20 L28.8306818,20 L28.8306818,11.2727273 L30.3392045,11.2727273 L30.3392045,14.5667614 L30.4159091,14.5667614 C30.566478,14.1946004 30.8029813,13.9019897 31.1254261,13.6889205 C31.4478709,13.4758512 31.8605088,13.3693182 32.3633523,13.3693182 C33.0423329,13.3693182 33.587782,13.5823842 33.9997159,14.0085227 C34.4116498,14.4346612 34.6176136,15.0426097 34.6176136,15.8323864 L34.6176136,20 L33.075,20 L33.075,16.0710227 C33.075,15.6306796 32.962075,15.2876433 32.7362216,15.0419034 C32.5103682,14.7961635 32.1943202,14.6732955 31.7880682,14.6732955 C31.3761343,14.6732955 31.0373593,14.8032657 30.771733,15.0632102 C30.5061066,15.3231547 30.3732955,15.6903385 30.3732955,16.1647727 Z M36.6357955,20 L36.6357955,13.4545455 L38.1784091,13.4545455 L38.1784091,20 L36.6357955,20 Z M37.4113636,12.5511364 C37.1642033,12.5511364 36.9532679,12.4659099 36.7785511,12.2954545 C36.6038344,12.1249991 36.5164773,11.9204557 36.5164773,11.6818182 C36.5164773,11.4431806 36.6038344,11.2393474 36.7785511,11.0703125 C36.9532679,10.9012776 37.1642033,10.8167614 37.4113636,10.8167614 C37.655683,10.8167614 37.865198,10.9012776 38.0399148,11.0703125 C38.2146316,11.2393474 38.3019886,11.4431806 38.3019886,11.6818182 C38.3019886,11.9204557 38.2146316,12.1249991 38.0399148,12.2954545 C37.865198,12.4659099 37.655683,12.5511364 37.4113636,12.5511364 Z M43.5715909,13.4545455 L43.5715909,14.6477273 L42.2122159,14.6477273 L42.2122159,20 L40.6696023,20 L40.6696023,14.6477273 L39.7022727,14.6477273 L39.7022727,13.4545455 L40.6696023,13.4545455 L40.6696023,12.8366477 C40.6696023,12.3963046 40.7612207,12.029831 40.9444602,11.7372159 C41.1276998,11.4446008 41.3741462,11.225853 41.6838068,11.0809659 C41.9934675,10.9360788 42.337214,10.8636364 42.7150568,10.8636364 C42.9821036,10.8636364 43.2193171,10.884943 43.4267045,10.9275568 C43.6340919,10.9701707 43.7874995,11.0085226 43.8869318,11.0426136 L43.5758523,12.2357955 C43.513352,12.215909 43.4323869,12.1953126 43.3329545,12.1740057 C43.2335222,12.1526988 43.1227279,12.1420455 43.0005682,12.1420455 C42.7136349,12.1420455 42.510512,12.2109368 42.3911932,12.3487216 C42.2718744,12.4865064 42.2122159,12.6832374 42.2122159,12.9389205 L42.2122159,13.4545455 L43.5715909,13.4545455 Z M48.5002841,13.4545455 L48.5002841,14.6477273 L47.2090909,14.6477273 L47.2090909,18.0227273 C47.2090909,18.3323879 47.277272,18.5362211 47.4136364,18.634233 C47.5500007,18.7322448 47.7147718,18.78125 47.9079545,18.78125 C48.0045459,18.78125 48.0933235,18.7734376 48.1742898,18.7578125 C48.2552561,18.7421874 48.3170452,18.7301137 48.3596591,18.7215909 L48.6196023,19.9232955 C48.5372155,19.9517047 48.4200292,19.9829544 48.2680398,20.0170455 C48.1160504,20.0511365 47.9306829,20.0710227 47.7119318,20.0767045 C47.1323835,20.096591 46.6458826,19.9552572 46.2524148,19.6526989 C45.8589469,19.3501405 45.6636363,18.8906281 45.6664773,18.2741477 L45.6664773,14.6477273 L44.7375,14.6477273 L44.7375,13.4545455 L45.6664773,13.4545455 L45.6664773,11.8863636 L47.2090909,11.8863636 L47.2090909,13.4545455 L48.5002841,13.4545455 Z" id="shift" fill="#1C2A3F" fill-rule="nonzero"></path>
                    </g>
                </g>
            </g>
            <g id="Mouse" transform="translate(88.000000, 137.000000)">
                <g id="Group-11">
                    <g id="Slices" transform="translate(17.000000, 0.000000)"></g>
                </g>
            </g>
        </g>
    </g>
</svg>