<?xml version="1.0" encoding="UTF-8"?>
<svg width="90px" height="100px" viewBox="0 0 90 100" version="1.1" xmlns="http://www.w3.org/2000/svg" xmlns:xlink="http://www.w3.org/1999/xlink">
    <!-- Generator: Sketch 58 (84663) - https://sketch.com -->
    <title>zoom</title>
    <desc>Created with Sketch.</desc>
    <defs>
        <circle id="path-1" cx="22.9275007" cy="22.5283732" r="22"></circle>
    </defs>
    <g id="Widget-Finish-Line" stroke="none" stroke-width="1" fill="none" fill-rule="evenodd">
        <g id="Viewer-Help" transform="translate(-287.000000, -98.000000)">
            <g id="Zoom" transform="translate(292.000000, 102.000000)">
                <g id="Heart-Zoom" fill="#FFFFFF">
                    <g id="Heart" transform="translate(37.500000, 46.000000) rotate(17.000000) translate(-37.500000, -46.000000) translate(11.000000, 6.000000)">
                        <path d="M9.38911755,23.5460728 C9.38911755,23.5460728 6.29434371,26.7677406 6.54325187,33.8955379 C6.5608304,34.3989211 -0.901927332,40.19984 0.360625311,47.3573886 C1.01234191,51.4636096 2.71703358,55.3237887 5.30282108,58.5487149 C5.30282108,58.5487149 9.13798869,43.2587303 20.7657953,36.9322967 C21.5099889,36.533514 9.29411763,35.2987645 9.38911755,23.5460728 Z M29.8238811,30.2408425 C29.8238811,30.2408425 29.3029585,36.3379882 36.6043638,36.4063242 C38.200812,36.4198538 35.7833512,27.9830493 29.8238811,30.2408425 Z" id="Aorta" fill-opacity="0.6"></path>
                        <path d="M19.2032272,36.3436802 C19.2032272,36.3436802 7.3977006,36.6485549 5.01020081,53.657645 C3.83075561,62.0699974 10.1238987,73.9217752 24.6805412,78.129777 C39.2371837,82.3377788 47.4960688,78.129777 47.4960688,78.129777 C49.6977979,76.8070461 51.1524452,74.5468737 51.4321672,72.014026 C51.8225469,67.806937 54.9548137,62.8212307 49.0705081,47.551022 C46.2252581,40.1637425 36.6281919,33.7869311 31.7590581,33.7869311 C31.3668326,33.7869311 25.9070534,23.5453302 30.9718385,20.0228402 C31.4547219,19.6909184 31.9855212,19.433035 32.5462778,19.2579149 L32.5462778,14.6665377 C32.5462778,14.6665377 25.347786,13.4798994 22.3170364,22.3121392 C21.9220422,23.4586143 17.2014927,26.13494 20.742597,32.250691 C20.742597,32.250691 14.8582914,29.8354257 19.1681576,17.7225876 C21.7586918,10.4612743 30.1883103,12.3726747 30.1883103,12.3726747 L30.1883103,6.25692369 L26.2531348,6.25692369 L24.6842327,0.141172702 C23.9085149,-0.0470575673 23.0982915,-0.0470575673 22.3225737,0.141172702 C20.5967814,0.78013176 20.7536716,1.67011045 20.7536716,1.67011045 L21.5408913,6.25692369 L20.7472114,6.25692369 L19.172772,1.66737205 C18.3944398,1.50191172 17.5894453,1.50191172 16.811113,1.66737205 C16.2544,1.84897141 15.7262642,2.10708096 15.2422109,2.43412292 L16.811113,9.31479918 L14.4531455,10.8473881 L12.0905635,5.49199842 C11.5302158,5.31354381 10.9239071,5.33846319 10.3804603,5.56228391 C8.8410905,6.24323171 8.94445346,7.02184896 8.94445346,7.02184896 L12.0905635,13.9025252 C12.0905635,13.9025252 1.49770595,31.5067601 19.2032272,36.3436802 Z"></path>
                    </g>
                </g>
                <g id="Group-7" transform="translate(24.000000, 22.000000)">
                    <g id="Group-5">
                        <g id="Heart-Zoom">
                            <g id="Heart" transform="translate(0.072499, 0.471627)">
                                <mask id="mask-2" fill="white">
                                    <use xlink:href="#path-1"></use>
                                </mask>
                                <use id="Mask" fill="#2D72DC" opacity="0.231375558" xlink:href="#path-1"></use>
                                <g mask="url(#mask-2)">
                                    <g transform="translate(10.000000, 33.000000) rotate(17.000000) translate(-10.000000, -33.000000) translate(-36.000000, -37.000000)">
                                        <path d="M16.3060713,41.1401556 C16.3060713,41.1401556 10.9313806,46.7691161 11.3636592,59.2229419 C11.3941878,60.1024628 -1.56637632,70.2379408 0.626297628,82.7437488 C1.75813321,89.9182178 4.71866959,96.6627976 9.20940422,102.297451 C9.20940422,102.297451 15.8699361,75.5824934 36.0639365,64.5288258 C37.3563768,63.8320649 16.1410851,61.6746866 16.3060713,41.1401556 Z M52.1666667,50.6324058 C51.5635841,50.8167867 47.7844027,65.2935059 57.6985113,64.9070042 C58.998063,64.8563411 63.2762136,65.8778047 64.9839262,62.6796293 C67.3911534,58.1714148 62.5164727,46.6875458 52.1666667,50.6324058 Z" id="Aorta" fill="#A5A6AA"></path>
                                        <path d="M33.350226,63.5003835 C33.350226,63.5003835 12.8475795,64.0330666 8.70121088,93.7516791 C6.65286955,108.449905 17.582165,129.157561 42.8626719,136.509863 C68.1431788,143.862166 82.4863765,136.509863 82.4863765,136.509863 C86.3101173,134.198762 88.836402,130.249745 89.3221948,125.824304 C90.0001669,118.473597 95.4399717,109.762474 85.2207038,83.0820688 C80.2793608,70.1748707 63.6121452,59.033182 55.1559255,59.033182 C54.4747478,59.033182 44.9927546,41.138858 53.7887618,34.9842951 C54.627385,34.4043549 55.5492237,33.953776 56.5230891,33.6478028 L56.5230891,25.6256594 C56.5230891,25.6256594 44.0214753,23.552342 38.7579754,38.9842028 C38.0719894,40.9873464 29.8738158,45.6634745 36.0236481,56.3490334 C36.0236481,56.3490334 25.8043802,52.1290351 33.2893207,30.9652491 C37.7882989,18.2781415 52.4280092,21.6177774 52.4280092,21.6177774 L52.4280092,10.9322185 L45.5937937,10.9322185 L42.869083,0.246659685 C41.5218945,-0.0822198951 40.1147805,-0.0822198951 38.767592,0.246659685 C35.7704102,1.36306136 36.0428813,2.9180494 36.0428813,2.9180494 L37.410045,10.9322185 L36.0316619,10.9322185 L33.2973346,2.91326482 C31.9456057,2.62416931 30.5475725,2.62416931 29.1958436,2.91326482 C28.2290007,3.23055874 27.3117877,3.68153276 26.4711329,4.25294683 L29.1958436,16.274998 L25.1007637,18.9527671 L20.99767,9.59572625 C20.0245146,9.2839269 18.9715388,9.32746652 18.0277353,9.71853044 C15.3543133,10.9082956 15.5338236,12.2687108 15.5338236,12.2687108 L20.99767,24.290762 C20.99767,24.290762 2.60106447,55.0492229 33.350226,63.5003835 Z" id="Heart" fill="#FFFFFF"></path>
                                    </g>
                                </g>
                            </g>
                        </g>
                    </g>
                    <g id="search-regular" fill="#2D72DC">
                        <path d="M55.6144719,51.2834334 L42.3369953,38.0059567 C42.085445,37.7544065 41.7573361,37.6231629 41.4073532,37.6231629 L39.9636736,37.6231629 C43.4088179,33.6311704 45.4977784,28.4361115 45.4977784,22.7488892 C45.4977784,10.1823153 35.3154631,0 22.7488892,0 C10.1823153,0 0,10.1823153 0,22.7488892 C0,35.3154631 10.1823153,45.4977784 22.7488892,45.4977784 C28.4361115,45.4977784 33.6311704,43.4088179 37.6231629,39.9636736 L37.6231629,41.4073532 C37.6231629,41.7573361 37.7653435,42.085445 38.0059567,42.3369953 L51.2834334,55.6144719 C51.7974708,56.1285094 52.6286802,56.1285094 53.1427176,55.6144719 L55.6144719,53.1427176 C56.1285094,52.6286802 56.1285094,51.7974708 55.6144719,51.2834334 Z M22.7488892,40.2480348 C13.0806113,40.2480348 5.24974366,32.4171671 5.24974366,22.7488892 C5.24974366,13.0806113 13.0806113,5.24974366 22.7488892,5.24974366 C32.4171671,5.24974366 40.2480348,13.0806113 40.2480348,22.7488892 C40.2480348,32.4171671 32.4171671,40.2480348 22.7488892,40.2480348 Z" id="Shape"></path>
                    </g>
                </g>
            </g>
        </g>
    </g>
</svg>