<?xml version="1.0" encoding="UTF-8"?>
<svg width="50px" height="70px" viewBox="0 0 50 70" version="1.1" xmlns="http://www.w3.org/2000/svg" xmlns:xlink="http://www.w3.org/1999/xlink">
    <!-- Generator: Sketch 58 (84663) - https://sketch.com -->
    <title>help-mouse-scroll</title>
    <desc>Created with Sketch.</desc>
    <g id="Widget-S1-R5" stroke="none" stroke-width="1" fill="none" fill-rule="evenodd">
        <g id="Widget-S2-R5-/-Help-2" transform="translate(-413.000000, -137.000000)">
            <g id="Mouse" transform="translate(88.000000, 137.000000)">
                <g id="Group-11">
                    <g id="Slices" transform="translate(17.000000, 0.000000)"></g>
                </g>
                <g id="Group-9" transform="translate(308.000000, 2.000000)">
                    <g id="mouse_scroll" transform="translate(30.000000, 0.000000)">
                        <g id="Group-5">
                            <path d="M13.4022377,19.1540593 C15.3404188,13.3023174 15.0337954,10.3764464 12.4823675,10.3764464 C10.4734125,10.3764464 8.44264741,11.6777053 5.19398982,10.3764464 C1.94533222,9.0751876 0.793675512,6.24066253 2.40266883,3.88444256 C3.47533103,2.31362924 5.39765894,1.01881506 8.16965255,-1.24344979e-14" id="Path-5" stroke="#FFFFFF" stroke-width="2" stroke-linecap="round"></path>
                            <g id="Group-4" transform="translate(0.000000, 18.536186)">
                                <path d="M28.0659465,18.5547226 L28.0659465,27.284289 C28.0662482,41.650286 23.4092601,48.8332845 14.0949823,48.8332845 C4.78070447,48.8332845 0.12356556,41.650286 0.12356556,27.284289 L0.12356556,18.5547226 L28.0659465,18.5547226 Z" id="Path-3" fill="#FFFFFF"></path>
                                <rect id="Rectangle" fill="#2D72DC" x="12.1720877" y="4.24787606" width="3.86170551" height="7.72341102" rx="1.93085276"></rect>
                                <path d="M0.0854019591,17.6013068 L13.2219889,17.6013068 L13.2219889,13.322884 C11.1465736,13.0102518 10.0071064,12.0905198 9.80358752,10.5636879 C9.80358752,10.5636879 9.80358752,6.21304671 9.80358752,6.21304671 C10.0342591,4.45541759 11.1737262,3.41381304 13.2219889,3.08823305 L13.2219889,0.0343178908 C9.4171027,0.0343178908 6.26343939,1.05228961 3.76099891,3.08823305 C0.875838197,5.43555122 -0.349360786,10.2732425 0.0854019591,17.6013068 Z" id="Path-4" fill="#FFFFFF"></path>
                                <path d="M14.9606835,17.5669889 L28.0972704,17.5669889 L28.0972704,13.2885661 C26.0218551,12.9759339 24.882388,12.0562019 24.678869,10.52937 C24.678869,10.52937 24.678869,6.17872882 24.678869,6.17872882 C24.9095406,4.4210997 26.0490077,3.37949515 28.0972704,3.05391516 L28.0972704,-2.84217094e-14 C24.2923842,-2.84217094e-14 21.1387209,1.01797172 18.6362804,3.05391516 C15.7511197,5.40123333 14.5259207,10.2389246 14.9606835,17.5669889 Z" id="Path-4" fill="#FFFFFF" transform="translate(21.486276, 8.783494) scale(-1, 1) translate(-21.486276, -8.783494) "></path>
                            </g>
                        </g>
                    </g>
                </g>
            </g>
        </g>
    </g>
</svg>