<?xml version="1.0" encoding="UTF-8"?>
<svg width="170px" height="100px" viewBox="0 0 170 100" version="1.1" xmlns="http://www.w3.org/2000/svg" xmlns:xlink="http://www.w3.org/1999/xlink">
    <!-- Generator: Sketch 58 (84663) - https://sketch.com -->
    <title>help-learn</title>
    <desc>Created with Sketch.</desc>
    <defs>
        <rect id="path-1" x="0" y="0" width="125" height="48" rx="3"></rect>
        <filter x="-2.8%" y="-9.4%" width="106.4%" height="118.8%" filterUnits="objectBoundingBox" id="filter-2">
            <feOffset dx="0" dy="1" in="SourceAlpha" result="shadowOffsetOuter1"></feOffset>
            <feGaussianBlur stdDeviation="1" in="shadowOffsetOuter1" result="shadowBlurOuter1"></feGaussianBlur>
            <feColorMatrix values="0 0 0 0 0.109803922   0 0 0 0 0.164705882   0 0 0 0 0.247058824  0 0 0 0.3 0" type="matrix" in="shadowBlurOuter1" result="shadowMatrixOuter1"></feColorMatrix>
            <feOffset dx="1" dy="-1" in="SourceAlpha" result="shadowOffsetOuter2"></feOffset>
            <feGaussianBlur stdDeviation="1" in="shadowOffsetOuter2" result="shadowBlurOuter2"></feGaussianBlur>
            <feColorMatrix values="0 0 0 0 0.109803922   0 0 0 0 0.164705882   0 0 0 0 0.247058824  0 0 0 0.1 0" type="matrix" in="shadowBlurOuter2" result="shadowMatrixOuter2"></feColorMatrix>
            <feMerge>
                <feMergeNode in="shadowMatrixOuter1"></feMergeNode>
                <feMergeNode in="shadowMatrixOuter2"></feMergeNode>
            </feMerge>
        </filter>
    </defs>
    <g id="Widget-Finish-Line" stroke="none" stroke-width="1" fill="none" fill-rule="evenodd">
        <g id="Viewer-Help" transform="translate(-284.000000, -244.000000)">
            <g id="Read-More" transform="translate(280.000000, 248.000000)">
                <g id="Heart" transform="translate(38.012850, 46.003440) rotate(17.000000) translate(-38.012850, -46.003440) translate(11.501222, 6.003440)">
                    <path d="M9.39886878,24.0634037 C9.39886878,24.0634037 6.37034048,27.2397103 6.61392061,34.267148 C6.63112286,34.7634436 -0.671889954,40.4826853 0.563636974,47.5394555 C1.20140318,51.5878608 2.86960488,55.3936884 5.400042,58.5732076 C5.400042,58.5732076 9.57479308,39.2165405 19.4085581,36.2100569 C21.3505194,35.6163397 9.3059024,35.6506172 9.39886878,24.0634037 Z M29.3962136,30.6639108 C29.3962136,30.6639108 28.8864417,36.6752086 36.0315559,36.7425823 C37.5938312,36.7559215 35.2281177,28.4379074 29.3962136,30.6639108 Z" id="Aorta" fill-opacity="0.6" fill="#FFFFFF"></path>
                    <path d="M19.4085581,36.2100569 C19.4085581,36.2100569 7.77194996,36.5089537 5.41861153,53.1845322 C4.25604234,61.4319366 10.4591404,73.0513265 24.8075003,77.1768184 C39.1558602,81.3023104 47.2965736,77.1768184 47.2965736,77.1768184 C49.4667994,75.8800235 50.9006331,73.6641682 51.1763526,71.1809841 C51.5611466,67.0563871 54.6485957,62.1684398 48.8484852,47.1976469 C46.0439462,39.955216 36.5841989,33.7034402 31.7847348,33.7034402 C31.3981214,33.7034402 26.0164631,23.662655 31.008779,20.2092334 C31.4847532,19.8838199 32.0079576,19.630993 32.5606906,19.4593066 L32.5606906,14.9579564 C32.5606906,14.9579564 25.4651979,13.7945856 22.4778135,22.4536442 C22.0884711,23.5776394 17.4354653,26.2014881 20.9259019,32.1973224 C20.9259019,32.1973224 15.1257914,29.8294153 19.3739903,17.9540838 C21.927458,10.8351491 30.2364619,12.7090711 30.2364619,12.7090711 L30.2364619,6.71323679 L26.3575926,6.71323679 L24.811139,0.717402489 C24.0465205,0.53286301 23.2478901,0.53286301 22.4832716,0.717402489 C20.7821727,1.34383294 20.936818,2.21636106 20.936818,2.21636106 L21.7127738,6.71323679 L20.9304503,6.71323679 L19.3785387,2.21367636 C18.6113431,2.05146035 17.8178668,2.05146035 17.0506712,2.21367636 C16.5019239,2.39171495 15.9813449,2.64476353 15.5042177,2.9653929 L17.0506712,9.71115394 L14.7264425,11.2136921 L12.3976654,5.96331005 C11.8453354,5.78835455 11.247702,5.81278532 10.7120311,6.0322174 C9.19468722,6.69981328 9.29657122,7.46316353 9.29657122,7.46316353 L12.3976654,14.2089246 C12.3976654,14.2089246 1.95637495,31.4679784 19.4085581,36.2100569 Z" fill="#FFFFFF" opacity="0.6"></path>
                    <path d="M21.7928157,35.3208687 C11.9483347,36.816703 6.24542052,43.1269147 4.68407325,54.251504 C3.527095,62.5044997 9.70036156,74.1317671 23.9797183,78.2600559 C38.259075,82.3883448 34.8439923,74.7665833 35.1183859,72.2817157 C35.5013294,68.1543224 39.8837018,60.5593977 38.9189044,52.3916418 C37.9994777,44.6079835 35.6997812,34.7572046 30.9233984,34.7572046 C30.6668956,34.7572046 27.623368,34.9450926 21.7928157,35.3208687 Z" fill="#2D72DC" opacity="0.931036086"></path>
                </g>
                <g id="Label-Read-More" transform="translate(44.000000, 23.000000)">
                    <g id="Rectangle">
                        <use fill="black" fill-opacity="1" filter="url(#filter-2)" xlink:href="#path-1"></use>
                        <use fill="#FFFFFF" fill-rule="evenodd" xlink:href="#path-1"></use>
                    </g>
                    <g id="Icon/Ellipsis" transform="translate(105.000000, 9.000000)" fill="#2D72DC">
                        <path d="M6.435,4.94 C7.29625,4.94 7.995,5.63875 7.995,6.5 C7.995,7.36125 7.29625,8.06 6.435,8.06 C5.57375,8.06 4.875,7.36125 4.875,6.5 C4.875,5.63875 5.57375,4.94 6.435,4.94 Z M4.875,1.56 C4.875,2.42125 5.57375,3.12 6.435,3.12 C7.29625,3.12 7.995,2.42125 7.995,1.56 C7.995,0.69875 7.29625,0 6.435,0 C5.57375,0 4.875,0.69875 4.875,1.56 Z M4.875,11.44 C4.875,12.30125 5.57375,13 6.435,13 C7.29625,13 7.995,12.30125 7.995,11.44 C7.995,10.57875 7.29625,9.88 6.435,9.88 C5.57375,9.88 4.875,10.57875 4.875,11.44 Z" id="Shape"></path>
                    </g>
                    <path d="M8.86079545,18.196522 L8.86079545,9.28248498 L12.2035593,9.28248498 C13.2278662,9.28248498 14.0076916,9.54508663 14.5430588,10.0702978 C15.078426,10.595509 15.3461056,11.2832062 15.3461056,12.1334099 C15.3461056,12.7398692 15.2097268,13.26072 14.9369652,13.6959779 C14.6642036,14.1312358 14.266674,14.4533218 13.7443646,14.6622456 L15.6725474,18.196522 L13.8705887,18.196522 L12.1208607,14.9321041 L10.4755941,14.9321041 L10.4755941,18.196522 L8.86079545,18.196522 Z M10.4755941,13.5915165 L11.9641687,13.5915165 C12.5619229,13.5915165 13.0008013,13.4667445 13.2808172,13.2171966 C13.5608331,12.9676488 13.700839,12.6063901 13.700839,12.1334099 C13.700839,11.6575279 13.5608331,11.2882897 13.2808172,11.0256841 C13.0008013,10.7630785 12.5590212,10.6317777 11.9554636,10.6317777 L10.4755941,10.6317777 L10.4755941,13.5915165 Z M16.9693192,18.196522 L16.9693192,11.5109942 L18.5449449,11.5109942 L18.5449449,18.196522 L16.9693192,18.196522 Z M17.7614846,10.5882521 C17.509035,10.5882521 17.2935856,10.5012018 17.1151299,10.3270987 C16.9366741,10.1529955 16.8474476,9.94407488 16.8474476,9.70033046 C16.8474476,9.45658604 16.9366741,9.24839081 17.1151299,9.07573851 C17.2935856,8.90308622 17.509035,8.81676136 17.7614846,8.81676136 C18.0110325,8.81676136 18.2250311,8.90308622 18.4034868,9.07573851 C18.5819425,9.24839081 18.671169,9.45658604 18.671169,9.70033046 C18.671169,9.94407488 18.5819425,10.1529955 18.4034868,10.3270987 C18.2250311,10.5012018 18.0110325,10.5882521 17.7614846,10.5882521 Z M23.2758843,20.8167614 C22.4256806,20.8167614 21.7575697,20.6535421 21.2715318,20.3270987 C20.7854938,20.0006553 20.4699365,19.6096545 20.3248506,19.1540845 L21.7437842,18.8102325 C21.8395409,18.9930408 22.0049365,19.1743956 22.2399757,19.3543022 C22.475015,19.5342088 22.8290194,19.6241607 23.3019997,19.6241607 C23.7517661,19.6241607 24.1224552,19.5167987 24.414078,19.3020715 C24.7057008,19.0873443 24.85151,18.740594 24.85151,18.2618103 L24.85151,16.9952162 L24.773164,16.9952162 C24.6919158,17.1577125 24.5736725,17.3245588 24.4184306,17.4957603 C24.2631886,17.6669617 24.0586204,17.8105947 23.80472,17.9266634 C23.5508196,18.0427322 23.2323607,18.1007657 22.8493337,18.1007657 C22.3357294,18.1007657 21.8707359,17.9796208 21.4543392,17.7373272 C21.0379424,17.4950336 20.7071514,17.1315988 20.4619561,16.6470116 C20.2167609,16.1624245 20.0941651,15.5574251 20.0941651,14.8319953 C20.0941651,14.0978603 20.2167609,13.4776272 20.4619561,12.9712771 C20.7071514,12.4649271 21.0386679,12.0804551 21.4565154,11.8178495 C21.874363,11.5552439 22.340082,11.4239431 22.8536863,11.4239431 C23.2483201,11.4239431 23.5725824,11.4899562 23.8264828,11.6219844 C24.0803832,11.7540127 24.2820497,11.912154 24.4314882,12.0964132 C24.5809268,12.2806723 24.6948176,12.4540475 24.773164,12.6165437 L24.8602151,12.6165437 L24.8602151,11.5109942 L26.414078,11.5109942 L26.414078,18.3053359 C26.414078,18.8653677 26.2776992,19.3318121 26.0049376,19.704683 C25.732176,20.0775539 25.3600361,20.3561148 24.8885067,20.540374 C24.4169774,20.7246332 23.8794419,20.8167614 23.2758843,20.8167614 Z M23.288942,16.8646395 C23.7909394,16.8646395 24.1783131,16.6840102 24.4510747,16.3227461 C24.7238364,15.9614821 24.8602151,15.4616684 24.8602151,14.8232902 C24.8602151,14.1907154 24.7252872,13.6814713 24.4554273,13.2955426 C24.1855674,12.909614 23.7967429,12.7166525 23.288942,12.7166525 C22.7637308,12.7166525 22.3676521,12.9161428 22.1006939,13.3151292 C21.8337357,13.7141156 21.7002586,14.2168309 21.7002586,14.8232902 C21.7002586,15.4384547 21.8351866,15.932465 22.1050465,16.3053359 C22.3749063,16.6782068 22.7695342,16.8646395 23.288942,16.8646395 Z M29.813135,14.2792206 L29.813135,18.196522 L28.2375093,18.196522 L28.2375093,9.28248498 L29.7783145,9.28248498 L29.7783145,12.6470116 L29.8566605,12.6470116 C30.0104516,12.2668864 30.2520162,11.9680138 30.5813613,11.7503849 C30.9107064,11.5327559 31.3321748,11.4239431 31.8457791,11.4239431 C32.53929,11.4239431 33.0964118,11.6415688 33.5171611,12.0768267 C33.9379104,12.5120845 34.1482819,13.1330431 34.1482819,13.9397211 L34.1482819,18.196522 L32.5726562,18.196522 L32.5726562,14.1834643 C32.5726562,13.7336978 32.4573146,13.3833205 32.2266279,13.1323218 C31.9959412,12.881323 31.6731298,12.7558256 31.2581839,12.7558256 C30.8374346,12.7558256 30.4914098,12.8885772 30.220099,13.1540845 C29.9487883,13.4195919 29.813135,13.7946334 29.813135,14.2792206 Z M39.2927142,11.5109942 L39.2927142,12.7297102 L37.9738894,12.7297102 L37.9738894,16.1769355 C37.9738894,16.4932229 38.0435296,16.7014181 38.1828121,16.8015274 C38.3220947,16.9016367 38.4903919,16.9516906 38.6877088,16.9516906 C38.7863672,16.9516906 38.8770446,16.943711 38.9597436,16.9277516 L39.1490798,16.8907548 L39.1490798,16.8907548 L39.4145858,18.1181759 C39.3304359,18.1471931 39.2107418,18.1791116 39.0554998,18.2139322 C38.9002579,18.2487528 38.7109235,18.2690646 38.4874911,18.274868 C37.8955404,18.29518 37.3986284,18.1508217 36.9967403,17.8417886 C36.5948522,17.5327555 36.395362,17.0634094 36.3982637,16.4337363 L36.3982637,12.7297102 L35.4494063,12.7297102 L35.4494063,11.5109942 L36.3982637,11.5109942 L36.3982637,9.9092532 L37.9738894,9.9092532 L37.9738894,11.5109942 L39.2927142,11.5109942 Z M45.3683036,9.28248498 L47.6882166,16.2988071 L47.7796203,16.2988071 L50.0951807,9.28248498 L51.871024,9.28248498 L48.7284777,18.196522 L46.7350066,18.196522 L43.5968129,9.28248498 L45.3683036,9.28248498 Z M55.4224204,18.3270987 C54.7521233,18.3270987 54.1739644,18.1863674 53.6879264,17.9049006 C53.2018884,17.6234339 52.8282977,17.2259043 52.5671429,16.7123 C52.3059882,16.1986957 52.1754128,15.5922455 52.1754128,14.8929311 C52.1754128,14.2052236 52.3059882,13.6009497 52.5671429,13.0800911 C52.8282977,12.5592325 53.1960851,12.1529979 53.6705162,11.8613751 C54.1449473,11.5697523 54.7013436,11.4239431 55.3397218,11.4239431 C55.8881468,11.4239431 56.3944892,11.5421864 56.8587643,11.7786765 C57.3230393,12.0151666 57.6951793,12.3822286 57.9751952,12.8798734 C58.2552111,13.3775183 58.3952169,14.0180632 58.3952169,14.8015274 L58.3952169,15.2846613 L53.7379808,15.2846613 C53.746686,15.8562999 53.9055527,16.3017072 54.2145858,16.6208963 C54.5236189,16.9400854 54.9334806,17.0996776 55.4441832,17.0996776 C55.7836843,17.0996776 56.077479,17.0264103 56.325576,16.8798734 C56.573673,16.7333366 56.7514006,16.519338 56.8587643,16.2378713 L58.3299286,16.4032684 C58.190646,16.9836123 57.8663838,17.4493312 57.3571321,17.8004393 C56.8478803,18.1515473 56.2029829,18.3270987 55.4224204,18.3270987 Z M53.7423334,14.2226373 L56.8848796,14.2226373 C56.8819779,13.7670674 56.7405212,13.3913004 56.4605053,13.095325 C56.1804894,12.7993497 55.8141528,12.6513642 55.3614846,12.6513642 C54.8914061,12.6513642 54.5098357,12.8066038 54.2167621,13.1170878 C53.9236884,13.4275718 53.7655471,13.7960846 53.7423334,14.2226373 Z M61.5070051,14.2792206 L61.5070051,18.196522 L59.9313794,18.196522 L59.9313794,11.5109942 L61.4373642,11.5109942 L61.4373642,12.6470116 L61.5157102,12.6470116 C61.6695013,12.2755916 61.9154184,11.9788952 62.2534687,11.7569137 C62.5915189,11.5349322 63.0100857,11.4239431 63.5091814,11.4239431 C64.1997906,11.4239431 64.754736,11.6430196 65.1740345,12.0811792 C65.5933329,12.5193388 65.8015281,13.1388466 65.7986857,13.9397211 L65.7986857,18.196522 L64.2230008,18.196522 L64.2230008,14.1834643 C64.2230008,13.7365995 64.1076591,13.3869476 63.8769725,13.134498 C63.6462858,12.8820485 63.3278269,12.7558256 62.9215862,12.7558256 C62.5066403,12.7558256 62.1671443,12.8885772 61.9030878,13.1540845 C61.6390313,13.4195919 61.5070051,13.7946334 61.5070051,14.2792206 Z M70.9474113,11.5109942 L70.9474113,12.7297102 L69.6285865,12.7297102 L69.6285865,16.1769355 C69.6285865,16.4932229 69.6982267,16.7014181 69.8375093,16.8015274 C69.9767918,16.9016367 70.145089,16.9516906 70.3424059,16.9516906 C70.4410644,16.9516906 70.5317417,16.943711 70.6144407,16.9277516 L70.803777,16.8907548 L70.803777,16.8907548 L71.0692829,18.1181759 L70.9163995,18.1638778 C70.856552,18.1798371 70.787818,18.1965219 70.710197,18.2139322 C70.554955,18.2487528 70.3656207,18.2690646 70.1421883,18.274868 C69.5502375,18.29518 69.0533256,18.1508217 68.6514375,17.8417886 C68.2495493,17.5327555 68.0500591,17.0634094 68.0529609,16.4337363 L68.0529609,12.7297102 L67.1041034,12.7297102 L67.1041034,11.5109942 L68.0529609,11.5109942 L68.0529609,9.9092532 L69.6285865,9.9092532 L69.6285865,11.5109942 L70.9474113,11.5109942 Z M72.5140417,18.196522 L72.5140417,11.5109942 L74.0417893,11.5109942 L74.0417893,12.6252489 L74.1114302,12.6252489 C74.2333024,12.2364185 74.4422231,11.9375459 74.7381984,11.7286221 C75.0341738,11.5196983 75.3751207,11.415238 75.7610494,11.415238 C75.9409559,11.415238 76.1063515,11.4370005 76.2572409,11.4805263 C76.4081303,11.5240521 76.5416074,11.5835365 76.6576761,11.6589812 L76.1701897,12.9647483 C76.0860399,12.9241242 75.9931862,12.890755 75.8916261,12.8646395 C75.7900659,12.838524 75.6754497,12.8254665 75.5477741,12.8254665 C75.1357299,12.8254665 74.7897051,12.959669 74.5096892,13.228078 C74.2296733,13.496487 74.0896674,13.8425119 74.0896674,14.2661629 L74.0896674,18.196522 L72.5140417,18.196522 Z M77.7890508,18.196522 L77.7890508,11.5109942 L79.3646765,11.5109942 L79.3646765,18.196522 L77.7890508,18.196522 Z M78.5812162,10.5882521 C78.3287666,10.5882521 78.1133172,10.5012018 77.9348615,10.3270987 C77.7564057,10.1529955 77.6671792,9.94407488 77.6671792,9.70033046 C77.6671792,9.45658604 77.7564057,9.24839081 77.9348615,9.07573851 C78.1133172,8.90308622 78.3287666,8.81676136 78.5812162,8.81676136 C78.8307641,8.81676136 79.0447626,8.90308622 79.2232184,9.07573851 C79.4016741,9.24839081 79.4909006,9.45658604 79.4909006,9.70033046 C79.4909006,9.94407488 79.4016741,10.1529955 79.2232184,10.3270987 C79.0447626,10.5012018 78.8307641,10.5882521 78.5812162,10.5882521 Z M84.104321,18.3270987 C83.4398273,18.3270987 82.8681972,18.1805641 82.3894135,17.8874904 C81.9106298,17.5944168 81.5428424,17.1881822 81.2860403,16.6687744 C81.0292381,16.1493667 80.900839,15.5530723 80.900839,14.8798734 C80.900839,14.1979694 81.0314144,13.598048 81.2925691,13.0800911 C81.5537239,12.5621342 81.9229621,12.156625 82.4002949,11.8635514 C82.8776277,11.5704777 83.4427291,11.4239431 84.0956159,11.4239431 C84.6411391,11.4239431 85.1228173,11.5233255 85.5406649,11.7220932 C85.9585125,11.920861 86.2922052,12.2001473 86.541753,12.5599605 C86.7913009,12.9197737 86.933483,13.3419675 86.9683036,13.8265546 L85.4623188,13.8265546 C85.4013827,13.5044638 85.2570244,13.2353334 85.0292394,13.0191553 C84.8014545,12.8029772 84.4975039,12.6948898 84.1173787,12.6948898 C83.6327916,12.6948898 83.2417908,12.8856749 82.9443646,13.267251 C82.6469383,13.6488271 82.4982274,14.1776575 82.4982274,14.8537581 C82.4982274,15.5356621 82.6454875,16.0710213 82.940012,16.4598517 C83.2345365,16.8486821 83.6269881,17.0430943 84.1173787,17.0430943 C84.4626833,17.0430943 84.756478,16.9444374 84.9987715,16.7471204 C85.2410651,16.5498035 85.3955793,16.2712427 85.4623188,15.9114295 L86.9683036,15.9114295 C86.9305813,16.3844097 86.7913008,16.802251 86.5504581,17.1649659 C86.3096154,17.5276808 85.9817261,17.8120451 85.5667802,18.0180671 C85.1518344,18.2240892 84.6643528,18.3270987 84.104321,18.3270987 Z M94.7457429,11.4239431 C95.2941678,11.4239431 95.8005102,11.5421864 96.2647853,11.7786765 C96.7290604,12.0151666 97.1012003,12.3822286 97.3812162,12.8798734 C97.6612321,13.3775183 97.801238,14.0180632 97.801238,14.8015274 L97.801238,15.2846613 L93.1440018,15.2846613 C93.152707,15.8562999 93.3115737,16.3017072 93.6206068,16.6208963 C93.9296399,16.9400854 94.3395016,17.0996776 94.8502042,17.0996776 C95.1897054,17.0996776 95.4835001,17.0264103 95.7315971,16.8798734 C95.979694,16.7333366 96.1574217,16.519338 96.2647853,16.2378713 L97.7359496,16.4032684 C97.5966671,16.9836123 97.2724048,17.4493312 96.7631531,17.8004393 C96.2539014,18.1515473 95.6090039,18.3270987 94.8284414,18.3270987 C94.1581443,18.3270987 93.5799854,18.1863674 93.0939474,17.9049006 C92.6079095,17.6234339 92.2343187,17.2259043 91.973164,16.7123 C91.7120092,16.1986957 91.5814338,15.5922455 91.5814338,14.8929311 C91.5814338,14.2052236 91.7120092,13.6009497 91.973164,13.0800911 C92.2343187,12.5592325 92.6021061,12.1529979 93.0765372,11.8613751 C93.5509683,11.5697523 94.1073646,11.4239431 94.7457429,11.4239431 Z M90.0452713,9.28248498 L90.0452713,18.196522 L88.4696457,18.196522 L88.4696457,9.28248498 L90.0452713,9.28248498 Z M94.7675056,12.6513642 C94.2974271,12.6513642 93.9158568,12.8066038 93.6227831,13.1170878 C93.3297095,13.4275718 93.1715681,13.7960846 93.1483544,14.2226373 L93.1483544,14.2226373 L96.2909006,14.2226373 C96.2879989,13.7670674 96.1465422,13.3913004 95.8665263,13.095325 C95.5865104,12.7993497 95.2201739,12.6513642 94.7675056,12.6513642 Z" id="RightVentricle" fill="#1C2A3F" fill-rule="nonzero"></path>
                    <path d="M8.79900568,38 L8.79900568,30.7272727 L11.3913352,30.7272727 C11.954785,30.7272727 12.4223466,30.8243362 12.7940341,31.0184659 C13.1657216,31.2125957 13.444483,31.4807038 13.6303267,31.8227983 C13.8161704,32.1648928 13.9090909,32.5596569 13.9090909,33.0071023 C13.9090909,33.4947941 13.7984149,33.9167833 13.5770597,34.2730824 C13.3557044,34.6293815 13.0213091,34.8903874 12.5738636,35.056108 L14.1860795,38 L12.9360795,38 L11.4588068,35.2478693 L9.89630682,35.2478693 L9.89630682,38 L8.79900568,38 Z M9.89630682,34.303267 L11.2883523,34.303267 C11.8233928,34.303267 12.209871,34.1896318 12.4477983,33.962358 C12.6857256,33.7350841 12.8046875,33.4166687 12.8046875,33.0071023 C12.8046875,32.5951684 12.6851338,32.269059 12.4460227,32.0287642 C12.2069117,31.7884694 11.8162906,31.6683239 11.2741477,31.6683239 L9.89630682,31.6683239 L9.89630682,34.303267 Z M17.6460227,38.1100852 C17.1109822,38.1100852 16.6493391,37.9940826 16.2610795,37.7620739 C15.87282,37.5300651 15.5739357,37.2039557 15.3644176,36.7837358 C15.1548995,36.3635159 15.050142,35.8716884 15.050142,35.3082386 C15.050142,34.7495237 15.1548995,34.2571044 15.3644176,33.8309659 C15.5739357,33.4048274 15.8674934,33.0722076 16.2450994,32.8330966 C16.6227055,32.5939855 17.0648175,32.4744318 17.5714489,32.4744318 C17.9833827,32.4744318 18.373412,32.5661686 18.7415483,32.7496449 C19.1096846,32.9331212 19.4091608,33.2254952 19.6399858,33.6267756 C19.8708108,34.028056 19.9862216,34.5577619 19.9862216,35.2159091 L19.9862216,35.5923295 L16.1083807,35.5923295 C16.1225853,36.1179004 16.2705478,36.5227259 16.5522727,36.8068182 C16.8339976,37.0909105 17.2021284,37.2329545 17.6566761,37.2329545 C17.959708,37.2329545 18.2213057,37.167851 18.4414773,37.037642 C18.6616488,36.9074331 18.819081,36.7133062 18.9137784,36.4552557 L19.91875,36.6363636 C19.7980108,37.0790742 19.5375967,37.435368 19.1375,37.7052557 C18.7374033,37.9751434 18.2402492,38.1100852 17.6460227,38.1100852 Z M16.1119318,34.796875 L18.9457386,34.796875 C18.9433712,34.3802063 18.817899,34.0351576 18.5693182,33.7617188 C18.3207374,33.4882799 17.990485,33.3515625 17.5785511,33.3515625 C17.2920914,33.3515625 17.0417388,33.4184416 16.8274858,33.5522017 C16.6132328,33.6859618 16.4439637,33.8623332 16.3196733,34.081321 C16.1953829,34.3003089 16.1261364,34.5388245 16.1119318,34.796875 Z M22.956108,38.1207386 C22.6104623,38.1207386 22.2985573,38.0568188 22.0203835,37.9289773 C21.7422098,37.8011357 21.5214497,37.6135192 21.3580966,37.3661222 C21.1947435,37.1187251 21.1130682,36.8162897 21.1130682,36.4588068 C21.1130682,36.1486727 21.172845,35.8941771 21.2924006,35.6953125 C21.4119561,35.4964479 21.5717556,35.3390157 21.771804,35.2230114 C21.9718523,35.107007 22.1961635,35.020005 22.4447443,34.9620028 C22.6933251,34.9040007 22.946637,34.8596119 23.2046875,34.8288352 L23.9983665,34.7347301 L23.9983665,34.7347301 C24.2007823,34.709872 24.3487448,34.6690344 24.4422585,34.6122159 C24.5357722,34.5553974 24.5825284,34.4630688 24.5825284,34.3352273 L24.5825284,34.3103693 C24.5825284,34.0002352 24.4955264,33.759944 24.3215199,33.5894886 C24.1475133,33.4190332 23.8888748,33.3338068 23.5455966,33.3338068 C23.1881137,33.3338068 22.9069849,33.411931 22.7022017,33.5681818 C22.4974185,33.7244326 22.3559663,33.8996202 22.2778409,34.09375 L21.2799716,33.8664773 C21.4575293,33.3693157 21.7540462,33.0130219 22.1695313,32.7975852 C22.5850163,32.5821485 23.0389653,32.4744318 23.531392,32.4744318 C23.7491962,32.4744318 23.9800177,32.4998814 24.2238636,32.5507812 C24.4677096,32.6016811 24.6979393,32.6951934 24.9145597,32.831321 C25.1311801,32.9674486 25.3075514,33.1597999 25.443679,33.4083807 C25.5798066,33.6569615 25.6478693,33.9801116 25.6478693,34.3778409 L25.6478693,38 L24.6109375,38 L24.6109375,37.2542614 L24.5683239,37.2542614 C24.4665241,37.4578609 24.285418,37.6531714 24.025,37.8401989 C23.764582,38.0272263 23.4082882,38.1207386 22.956108,38.1207386 Z M23.1869318,37.2684659 C23.4828613,37.2684659 23.7349895,37.2104646 23.9433239,37.0944602 C24.1516582,36.9784559 24.3108659,36.8263504 24.4209517,36.6381392 C24.5310375,36.449928 24.5860795,36.2481071 24.5860795,36.0326705 L24.5860795,35.3295455 C24.5363634,35.3792616 24.427463,35.4230585 24.259375,35.4609375 C24.1473164,35.4861902 24.0310501,35.5088121 23.9105747,35.5288036 L23.2721591,35.6207386 L23.2721591,35.6207386 C22.9643924,35.660985 22.7010191,35.7420685 22.4820313,35.8639915 C22.2630434,35.9859144 22.1535511,36.188919 22.1535511,36.4730114 C22.1535511,36.7357968 22.2506146,36.9340666 22.4447443,37.0678267 C22.6388741,37.2015868 22.8862674,37.2684659 23.1869318,37.2684659 Z M32.0055398,38 L32.0055398,30.7272727 L30.94375,30.7272727 L30.94375,33.4296875 L30.8798295,33.4296875 C30.8159088,33.3160506 30.7265394,33.1846598 30.6117188,33.0355114 C30.4968981,32.8863629 30.3359149,32.755564 30.1287642,32.6431108 C29.9216135,32.5306576 29.6499543,32.4744318 29.3137784,32.4744318 C28.8734353,32.4744318 28.4810387,32.5856996 28.1365767,32.8082386 C27.7921148,33.0307776 27.5204555,33.3515604 27.3215909,33.7705966 C27.1227263,34.1896328 27.0232955,34.6938891 27.0232955,35.2833807 C27.0232955,35.8705048 27.1215426,36.375353 27.3180398,36.7979403 C27.514537,37.2205277 27.7844206,37.5442697 28.1276989,37.7691761 C28.4709771,37.9940826 28.8627819,38.1065341 29.303125,38.1065341 C29.6345661,38.1065341 29.9044497,38.0509002 30.1127841,37.9396307 C30.3211185,37.8283612 30.485061,37.6981542 30.6046165,37.5490057 C30.724172,37.3998572 30.8159088,37.2672828 30.8798295,37.1512784 L30.968608,37.1512784 L30.968608,38 L32.0055398,38 Z M30.9650568,35.2727273 C30.9650568,35.8456468 30.841952,36.3102492 30.5957386,36.6665483 C30.3495253,37.0228474 29.9979663,37.2009943 29.5410511,37.2009943 C29.2238147,37.2009943 28.958074,37.1163597 28.743821,36.9470881 C28.5295681,36.7778164 28.367993,36.5475867 28.2590909,36.256392 C28.1501888,35.9651974 28.0957386,35.6373124 28.0957386,35.2727273 C28.0957386,34.9105096 28.149597,34.5867675 28.2573153,34.3014915 C28.3650337,34.0162154 28.5254251,33.7907205 28.7384943,33.625 C28.9515636,33.4592795 29.2190798,33.3764205 29.5410511,33.3764205 C30.0050686,33.3764205 30.3584031,33.5498325 30.6010653,33.8966619 C30.8437275,34.2434913 30.9650568,34.7021752 30.9650568,35.2727273 Z M36.6526989,30.7272727 L37.984375,30.7272727 L40.2997159,36.3806818 L40.3849432,36.3806818 L42.7002841,30.7272727 L44.0319602,30.7272727 L44.0319602,38 L42.9879261,38 L42.9879261,32.7372159 L42.9204545,32.7372159 L40.7755682,37.9893466 L39.9090909,37.9893466 L37.7642045,32.7336648 L37.696733,32.7336648 L37.696733,38 L36.6526989,38 L36.6526989,30.7272727 Z M48.2234375,38.1100852 C47.7120713,38.1100852 47.2658163,37.9928989 46.8846591,37.7585227 C46.5035019,37.5241466 46.2075768,37.1956697 45.996875,36.7730824 C45.7861732,36.350495 45.6808239,35.8586676 45.6808239,35.2975852 C45.6808239,34.731768 45.7861732,34.2369813 45.996875,33.8132102 C46.2075768,33.3894392 46.5035019,33.0603705 46.8846591,32.8259943 C47.2658163,32.5916181 47.7120713,32.4744318 48.2234375,32.4744318 C48.7371711,32.4744318 49.184018,32.5916181 49.5639915,32.8259943 C49.943965,33.0603705 50.2392982,33.3894392 50.45,33.8132102 C50.6607018,34.2369813 50.7660511,34.731768 50.7660511,35.2975852 C50.7660511,35.8586676 50.6607018,36.350495 50.45,36.7730824 C50.2392982,37.1956697 49.943965,37.5241466 49.5639915,37.7585227 C49.184018,37.9928989 48.7371711,38.1100852 48.2234375,38.1100852 Z M48.2269886,37.21875 C48.5607971,37.21875 48.8360074,37.1311562 49.0526278,36.9559659 C49.2692482,36.7807756 49.4302315,36.5469948 49.5355824,36.2546165 C49.6409333,35.9622381 49.693608,35.6420472 49.693608,35.2940341 C49.693608,34.946021 49.6409333,34.6252382 49.5355824,34.3316761 C49.4302315,34.0381141 49.2692482,33.8031496 49.0526278,33.6267756 C48.8360074,33.4504016 48.5607971,33.3622159 48.2269886,33.3622159 C47.8931801,33.3622159 47.617378,33.4504016 47.3995739,33.6267756 C47.1817697,33.8031496 47.0196028,34.0381141 46.9130682,34.3316761 C46.8065336,34.6252382 46.753267,34.946021 46.753267,35.2940341 C46.753267,35.6420472 46.8065336,35.9622381 46.9130682,36.2546165 C47.0196028,36.5469948 47.1817697,36.7807756 47.3995739,36.9559659 C47.617378,37.1311562 47.8931801,37.21875 48.2269886,37.21875 Z M52.1485795,38 L52.1485795,32.5454545 L53.174858,32.5454545 L53.174858,33.4119318 L53.2316761,33.4119318 C53.3311085,33.1183697 53.5062961,32.8869563 53.7572443,32.7176847 C54.0081925,32.548413 54.294648,32.4637784 54.6166193,32.4637784 C54.7657678,32.4637784 54.8995259,32.4815339 55.0178977,32.5170455 C55.1362695,32.552557 55.2404352,32.6010887 55.3303977,32.662642 L54.9894886,33.5504261 C54.9255679,33.517282 54.8533621,33.4912406 54.7728693,33.4723011 C54.6923765,33.4533616 54.6000479,33.443892 54.4958807,33.443892 C54.1289281,33.443892 53.8229416,33.5593028 53.5779119,33.7901278 C53.3328823,34.0209529 53.2103693,34.3139187 53.2103693,34.6690341 L53.2103693,38 L52.1485795,38 Z M58.4849432,38.1100852 C57.9499026,38.1100852 57.4882595,37.9940826 57.1,37.7620739 C56.7117405,37.5300651 56.4128562,37.2039557 56.2033381,36.7837358 C55.99382,36.3635159 55.8890625,35.8716884 55.8890625,35.3082386 C55.8890625,34.7495237 55.99382,34.2571044 56.2033381,33.8309659 C56.4128562,33.4048274 56.7064138,33.0722076 57.0840199,32.8330966 C57.4616259,32.5939855 57.903738,32.4744318 58.4103693,32.4744318 C58.8223032,32.4744318 59.2123324,32.5661686 59.5804688,32.7496449 C59.9486051,32.9331212 60.2480812,33.2254952 60.4789063,33.6267756 C60.7097313,34.028056 60.825142,34.5577619 60.825142,35.2159091 L60.825142,35.5923295 L56.9473011,35.5923295 C56.9615058,36.1179004 57.1094683,36.5227259 57.3911932,36.8068182 C57.6729181,37.0909105 58.0410489,37.2329545 58.4955966,37.2329545 C58.7986284,37.2329545 59.0602262,37.167851 59.2803977,37.037642 C59.5005693,36.9074331 59.6580014,36.7133062 59.7526989,36.4552557 L60.7576705,36.6363636 C60.6369312,37.0790742 60.3765172,37.435368 59.9764205,37.7052557 C59.5763238,37.9751434 59.0791696,38.1100852 58.4849432,38.1100852 Z M56.9508523,34.796875 L59.7846591,34.796875 C59.7822917,34.3802063 59.6568194,34.0351576 59.4082386,33.7617188 C59.1596578,33.4882799 58.8294055,33.3515625 58.4174716,33.3515625 C58.1310118,33.3515625 57.8806592,33.4184416 57.6664063,33.5522017 C57.4521533,33.6859618 57.2828841,33.8623332 57.1585938,34.081321 C57.0343034,34.3003089 56.9650569,34.5388245 56.9508523,34.796875 Z M62.9178977,38.0674716 C62.723768,38.0674716 62.5568662,37.9982251 62.4171875,37.8597301 C62.2775088,37.7212351 62.2076705,37.5537415 62.2076705,37.3572443 C62.2076705,37.1631146 62.2775088,36.9968047 62.4171875,36.8583097 C62.5568662,36.7198146 62.723768,36.6505682 62.9178977,36.6505682 C63.1120275,36.6505682 63.2789292,36.7198146 63.418608,36.8583097 C63.5582867,36.9968047 63.628125,37.1631146 63.628125,37.3572443 C63.628125,37.5537415 63.5582867,37.7212351 63.418608,37.8597301 C63.2789292,37.9982251 63.1120275,38.0674716 62.9178977,38.0674716 Z M65.5705966,38.0674716 C65.3764668,38.0674716 65.2095651,37.9982251 65.0698864,37.8597301 C64.9302076,37.7212351 64.8603693,37.5537415 64.8603693,37.3572443 C64.8603693,37.1631146 64.9302076,36.9968047 65.0698864,36.8583097 C65.2095651,36.7198146 65.3764668,36.6505682 65.5705966,36.6505682 C65.7647263,36.6505682 65.9316281,36.7198146 66.0713068,36.8583097 C66.2109855,36.9968047 66.2808239,37.1631146 66.2808239,37.3572443 C66.2808239,37.5537415 66.2109855,37.7212351 66.0713068,37.8597301 C65.9316281,37.9982251 65.7647263,38.0674716 65.5705966,38.0674716 Z M68.2268466,38.0674716 C68.0327168,38.0674716 67.8658151,37.9982251 67.7261364,37.8597301 C67.5864576,37.7212351 67.5166193,37.5537415 67.5166193,37.3572443 C67.5166193,37.1631146 67.5864576,36.9968047 67.7261364,36.8583097 C67.8658151,36.7198146 68.0327168,36.6505682 68.2268466,36.6505682 C68.4209763,36.6505682 68.5878781,36.7198146 68.7275568,36.8583097 C68.8672355,36.9968047 68.9370739,37.1631146 68.9370739,37.3572443 C68.9370739,37.5537415 68.8672355,37.7212351 68.7275568,37.8597301 C68.5878781,37.9982251 68.4209763,38.0674716 68.2268466,38.0674716 Z" id="ReadMore…" fill="#1C2A3F" fill-rule="nonzero"></path>
                </g>
            </g>
        </g>
    </g>
</svg>