<svg width="48" height="48" viewBox="0 0 48 48" fill="none" xmlns="http://www.w3.org/2000/svg">
<g clip-path="url(#clip0_3006_31687)">
<g clip-path="url(#clip1_3006_31687)">
<circle cx="18.9047" cy="14.513" r="10.1438" fill="#374A68"/>
<path fill-rule="evenodd" clip-rule="evenodd" d="M46.0896 2.99969C43.4666 3.23053 42.3939 4.40631 40.7833 6.17175C40.6909 6.27302 40.5967 6.37623 40.5004 6.48131C38.497 8.6669 36.0252 15.6048 33.7221 22.0693C32.6383 25.1114 31.5919 28.0486 30.6491 30.3365C30.6491 30.3365 24.5678 25.7155 22.2213 24.1096C20.5577 22.971 18.7957 20.4601 17.0749 18.0077C16.3687 17.0013 15.6693 16.0047 14.9866 15.1168C12.266 11.3271 5.99191 16.5428 10.1108 20.0312C12.3447 21.9232 12.8938 23.271 13.678 25.1962C14.3397 26.8206 15.1688 28.8561 17.3188 31.9763C21.7626 38.4254 27.0638 42.1346 28.502 43.1409C28.5843 43.1985 28.654 43.2473 28.7101 43.2872C28.7913 43.3449 28.8729 43.4033 28.9548 43.462C30.5584 44.6106 32.3077 45.8635 34.5401 44.1829C34.8225 43.9702 35.156 43.7506 35.5404 43.4974C37.5971 42.1428 41.1135 39.8268 46.0896 32.4751L46.0896 2.99969Z" fill="#374A68"/>
<circle cx="11.639" cy="14.0006" r="11.5226" fill="#374A68" stroke="white" stroke-width="3.36716"/>
<ellipse cx="10.8438" cy="13.6221" rx="2.75856" ry="2.75856" fill="white" stroke="white" stroke-width="4.48954"/>
</g>
</g>
<defs>
<clipPath id="clip0_3006_31687">
<rect width="48" height="48.0002" fill="white"/>
</clipPath>
<clipPath id="clip1_3006_31687">
<rect width="48" height="48" fill="white" transform="translate(0 0.000244141)"/>
</clipPath>
</defs>
</svg>
