<svg width="48" height="48" viewBox="0 0 48 48" fill="none" xmlns="http://www.w3.org/2000/svg">
<g clip-path="url(#clip0_383_296)">
<g clip-path="url(#clip1_383_296)">
<path d="M18.6524 23.9774C20.7374 22.8299 22.4549 21.4574 23.7673 19.9124L23.8723 19.7849L23.9773 19.9124C25.2898 21.4574 27.0148 22.8374 29.0923 23.9774L29.2048 20.7824C27.0148 19.2899 25.7323 17.8424 25.3948 17.1974V17.1674V3.79492H22.3499V17.1674V17.1974C22.0124 17.8349 20.7599 19.2824 18.5474 20.7674" fill="#374A68"/>
<path d="M7.49231 42.6375C5.61732 43.5075 4.32732 44.265 3.40483 44.5875C2.21983 45.0075 0.982332 44.175 0.869833 42.93C-1.17766 19.7475 12.5398 9.70506 16.1098 8.89506C17.7148 8.52756 18.4723 9.41256 18.8248 10.3351C19.0573 10.9501 19.1173 11.9926 18.9523 12.6226C18.0223 16.1475 19.1623 20.7975 18.8023 25.545L19.0123 28.62C19.0798 29.61 19.2373 30.5925 19.3798 31.5825C19.4623 32.145 19.4773 32.7225 19.4248 33.285C19.2973 34.515 18.9223 36.135 17.8873 37.62C16.8973 39.045 15.3823 40.02 13.7023 40.4775C12.1573 40.905 9.56981 41.6775 7.49231 42.6375Z" fill="#374A68"/>
<path d="M40.3757 42.6375C42.2507 43.5075 43.5407 44.265 44.4632 44.5875C45.6481 45.0075 46.8856 44.175 46.9981 42.93C49.0456 19.7475 35.3282 9.70506 31.7582 8.89506C30.1532 8.52756 29.3957 9.41256 29.0432 10.3351C28.8107 10.9501 28.7507 11.9926 28.9157 12.6226C29.8457 16.1475 28.7057 20.7975 29.0657 25.545L28.8557 28.62C28.7882 29.61 28.6307 30.5925 28.4882 31.5825C28.4057 32.145 28.3907 32.7225 28.4432 33.285C28.5707 34.515 28.9457 36.135 29.9807 37.62C30.9707 39.045 32.4857 40.02 34.1657 40.4775C35.7107 40.905 38.2982 41.6775 40.3757 42.6375Z" fill="#374A68"/>
</g>
</g>
<defs>
<clipPath id="clip0_383_296">
<rect width="47.9999" height="48" fill="white"/>
</clipPath>
<clipPath id="clip1_383_296">
<rect width="46.7999" height="41.3999" fill="white" transform="translate(0.599854 3.59998)"/>
</clipPath>
</defs>
</svg>
