<svg width="48" height="48" viewBox="0 0 48 48" fill="none" xmlns="http://www.w3.org/2000/svg">
<path d="M15.0747 26.4C17.1122 11.9125 13.4997 8.09999 12.5997 0H35.9876C32.0995 32.223 32.0252 31.3049 32.5247 36.1C32.8247 38.8 32.8997 45.0999 32.0997 47.8999L13.6997 47.9999C12.5997 43.7 12.7747 34.3 15.0747 26.4Z" fill="#374A68"/>
<path d="M20.5058 31.3001C21.5558 33.7875 20.6517 47.898 20.6517 47.898H27.0357C27.0357 47.898 26.3498 33.7875 27.2873 31.3001C28.4609 29.725 29.3682 27.85 29.6696 26.8001C30.2696 25.9001 29.9696 24.7001 29.1696 24.2001C28.3696 26.4001 25.4446 28.9251 23.8446 28.9251C22.2446 28.9251 19.9933 26.4 18.6446 24.1251C17.8433 24.7 17.3934 25.9 18.0183 26.8001C18.4308 28.1625 19.6808 30.0375 20.5058 31.3001Z" fill="white"/>
<path d="M20.4122 22.5375C17.5998 22.225 17.7557 17.5633 19.9435 17.4C22.2873 17.225 21.33 4.29999 21.33 0H26.83C26.831 4.29999 25.7247 16.2875 27.5997 17.4C30.7247 17.5375 30.0997 23.075 27.2872 22.5375C27.2872 22.5375 26.3559 26.6 24.0605 26.5583C21.7713 26.6 20.4122 22.5375 20.4122 22.5375Z" fill="white"/>
<path d="M11.0291 21.1626C11.0291 20.6778 10.6365 20.2876 10.1518 20.2876L6.6255 20.2876C6.14078 20.2876 5.74817 20.6778 5.74817 21.1626C5.74818 21.6473 6.14079 22.0438 6.6255 22.0438L10.1518 22.0438C10.6365 22.0438 11.0291 21.6473 11.0291 21.1626ZM7.45921 15.0625C7.15929 15.4424 7.22412 15.9936 7.60431 16.2938L10.8452 18.7939C11.2281 19.0965 11.7828 19.0896 12.0779 18.7126C12.3778 18.3327 12.313 17.7753 11.9328 17.4751L8.69189 14.9189C8.3114 14.6183 7.75306 14.6802 7.45921 15.0625ZM7.60492 25.9876C7.21988 26.2932 7.15929 26.8883 7.45981 27.2688C7.76003 27.649 8.312 27.7125 8.69189 27.4125L11.9325 24.8501C12.31 24.5546 12.38 24.0014 12.0776 23.6188C11.7774 23.2386 11.2254 23.1751 10.8455 23.4751L7.60492 25.9876ZM42.3864 21.1644C42.3864 20.6796 41.9935 20.2867 41.5091 20.287L37.9831 20.2873C37.4984 20.2873 37.1058 20.6799 37.1058 21.1647C37.1058 21.6494 37.4987 22.0423 37.9831 22.042L41.5091 22.0417C41.9938 22.0417 42.3864 21.6491 42.3864 21.1644ZM40.6751 15.0639C40.3749 14.6837 39.8229 14.6189 39.443 14.9188L36.2021 17.4775C35.8183 17.7771 35.7562 18.3306 36.057 18.7102C36.3572 19.0904 36.9092 19.1552 37.2891 18.8553L40.53 16.2966C40.9075 16.0012 40.9775 15.4465 40.6751 15.0639ZM40.6745 27.266C40.975 26.8855 40.9105 26.3338 40.53 26.0333L37.2894 23.4737C36.9095 23.1726 36.3472 23.2416 36.0573 23.6182C35.7568 23.9987 35.8213 24.5504 36.2018 24.8509L39.4424 27.4105C39.8316 27.7181 40.3872 27.6353 40.6745 27.266Z" fill="#374A68"/>
</svg>
