<svg width="42" height="12" viewBox="0 0 42 12" fill="none" xmlns="http://www.w3.org/2000/svg">
<path d="M5.62914 9.13666H0V7.86796L3.59794 3.47977H0.145581V2.19727H5.44197V3.49364L1.80244 7.84726H5.62914V9.13666Z" fill="#00C1DE"/>
<path d="M13.9688 2.57169C14.6829 2.27359 15.7435 2.01709 16.8111 2.01709C19.1612 2.01709 20.6863 3.31346 20.6863 5.58037C20.6863 7.94436 19.1959 9.31696 16.8111 9.31696C16.3051 9.31696 15.8129 9.24066 15.5286 9.12976V11.9999H13.9688V2.57169ZM15.5286 7.77106C15.8614 7.89576 16.2773 7.97896 16.721 7.97896C18.1214 7.97896 19.0989 7.18866 19.0989 5.6289C19.0989 4.24241 18.2115 3.42438 16.7973 3.42438C16.3536 3.42438 15.8614 3.48677 15.5286 3.59769V7.77106Z" fill="#0071CE"/>
<path d="M25.6223 4.47811C25.6223 3.72248 25.0469 3.37585 24.2705 3.37585C23.4594 3.37585 22.8285 3.61156 22.2393 3.94431V2.58556C22.8563 2.23893 23.6535 2.01709 24.527 2.01709C26.066 2.01709 27.1613 2.64795 27.1613 4.40186V9.02576C26.4958 9.19906 25.5391 9.31006 24.7488 9.31006C22.9256 9.31006 21.5876 8.75546 21.5876 7.18176C21.5876 5.76061 22.8077 5.06737 24.8389 5.06737H25.6154V4.47811H25.6223ZM25.6223 6.10026H24.9568C23.8615 6.10026 23.1474 6.41916 23.1474 7.12626C23.1474 7.85426 23.8129 8.13156 24.7696 8.13156C25.0053 8.13156 25.345 8.10376 25.6292 8.05526V6.10026H25.6223Z" fill="#0071CE"/>
<path d="M34.1908 4.05562C33.6016 3.59807 32.9846 3.4109 32.3329 3.4109C31.0643 3.4109 30.0799 4.21506 30.0799 5.68474C30.0799 7.07124 31.0296 7.95854 32.3953 7.95854C33.0955 7.95854 33.6985 7.73674 34.267 7.32774V8.81124C33.6153 9.17174 32.936 9.33124 32.1873 9.33124C30.0452 9.33124 28.4854 7.93084 28.4854 5.68474C28.4854 3.4317 30.1215 2.02441 32.1873 2.02441C32.9638 2.02441 33.5669 2.19772 34.1908 2.54434V4.05562Z" fill="#0071CE"/>
<path d="M36.7073 6.02417V6.05187C36.8043 7.29967 37.8789 7.97907 38.9742 7.97907C39.9447 7.97907 40.6449 7.75727 41.3381 7.29967V8.67237C40.7004 9.11597 39.7645 9.31707 38.8633 9.31707C36.6726 9.31707 35.1821 7.93057 35.1821 5.7191C35.1821 3.49379 36.6449 2.01025 38.579 2.01025C40.6241 2.01025 41.5946 3.32048 41.5946 5.2269V6.01717H36.7073V6.02417ZM40.118 5.01199C40.0834 3.9236 39.5426 3.32741 38.5305 3.32741C37.6224 3.32741 36.9568 3.95826 36.7489 5.01199H40.118Z" fill="#0071CE"/>
<path d="M9.69148 9.338C8.67934 9.338 7.72266 9.0538 7.07794 8.5685L6.86304 8.4091V6.4957L7.72959 7.1889C8.31192 7.6534 8.94277 7.8683 9.69148 7.8683C10.2946 7.8683 11.2998 7.7158 11.2998 6.6967C11.2998 6.0174 10.9463 5.71927 9.57362 5.23399C8.37431 4.81112 6.8769 4.28425 6.8769 2.47488C6.8769 1.01907 8.09701 0 9.83706 0C10.7522 0 11.6395 0.27037 12.208 0.72791L12.409 0.88735V2.75218L11.5494 2.07973C11.0087 1.65685 10.4957 1.47661 9.83706 1.47661C9.60135 1.47661 8.4367 1.52514 8.4367 2.47488C8.4367 2.94629 8.54762 3.29291 10.052 3.79898C11.5355 4.29118 12.8596 4.88737 12.8596 6.6898C12.8666 8.2773 11.591 9.338 9.69148 9.338Z" fill="#0071CE"/>
</svg>
