<svg width="24" height="17" viewBox="0 0 24 17" fill="none" xmlns="http://www.w3.org/2000/svg">
<g id="bu-logo">
<rect id="Rectangle 10" width="24" height="16.8571" fill="#CC0000"/>
<rect id="Rectangle 9" x="1" y="1" width="22" height="14.8571" fill="white"/>
<rect id="Rectangle 8" x="1.42859" y="1.42859" width="21.1429" height="14" fill="#CC0000"/>
<g id="BU">
<path id="Vector" d="M8.96537 7.9769C9.71779 7.8195 10.2421 7.20712 10.2421 6.54731C10.2421 5.98452 10.0077 5.57915 9.53235 5.24061C9.11031 4.93227 8.22573 4.78564 7.21539 4.78564C6.99584 4.78564 6.12619 4.79858 5.49526 4.82014C5.16274 4.83093 4.37194 4.87836 4.05222 4.88914H4.02877V5.15652H4.45721C5.25013 5.16299 5.30768 5.47996 5.31621 6.13977V10.9482C5.30768 11.6727 5.15421 11.8668 4.21634 11.8754H3.92859V12.1428H8.14473C10.0013 12.1406 10.6407 10.8426 10.6429 9.91538C10.6429 9.0119 10.0205 8.3025 8.96537 7.97259M7.53938 7.90359H6.31376V5.08968C6.60151 5.07674 7.0534 5.05518 7.29852 5.05518C8.69893 5.05949 9.1636 5.78399 9.16573 6.58396C9.1636 7.47449 8.63498 7.89928 7.53938 7.90359ZM9.51956 9.95634C9.51743 10.8533 9.09539 11.7827 7.59693 11.7848C6.63775 11.7805 6.32015 11.4894 6.31376 10.6162V8.17097H7.52659C8.85666 8.17097 9.51743 9.07444 9.51956 9.95419V9.95634Z" fill="white"/>
<path id="Vector_2" d="M17.3392 4.71423V5.0065H17.3735C18.3332 5.06667 18.4663 5.2171 18.4792 6.33458V9.04661C18.4749 11.0043 17.1696 11.5287 15.8643 11.5352C14.1469 11.5309 13.256 10.6132 13.2517 9.05736V5.82312C13.2603 5.16122 13.4986 5.01939 14.134 5.01079H14.2736V4.71638H11.2144V5.01079H11.2487C12.0409 5.03443 12.2019 5.1118 12.2126 5.8489V9.24647C12.2148 10.927 13.374 12.2121 15.6089 12.2142C18.1485 12.2121 19.0824 10.6455 19.0846 9.18845V6.04661C19.0931 5.31165 19.34 5.03228 20.1064 5.01294H20.1429V4.71853H20.1064" fill="white"/>
</g>
</g>
</svg>
