<svg width="959" height="100" viewBox="0 0 959 100" fill="none" xmlns="http://www.w3.org/2000/svg">
<g opacity="0.2">
<path d="M738.594 19.8531H738.094V20.3531V79.153V79.653H738.594H772.998H773.498V79.153V70.3182V69.8182H772.998H749.927V20.3531V19.8531H749.427H738.594Z" fill="#1C2A3F" stroke="white"/>
<path d="M684.868 79.653H685.239L685.347 79.2987L690.309 63.0013H708.272L713.488 79.3054L713.6 79.653H713.965H725.471H726.159L725.946 78.9984L706.827 20.1985L706.715 19.8531H706.352H692.644H692.283L692.169 20.197L672.838 78.9968L672.622 79.653H673.313H684.868ZM706.072 53.8879H692.307L696.658 40.0753L696.658 40.0753L696.661 40.0675C697.366 37.6951 698.011 35.0157 698.621 32.4863C698.771 31.8616 698.92 31.246 699.066 30.6464C699.829 33.6647 700.688 37.0404 701.64 40.0748L701.641 40.0778L706.072 53.8879Z" fill="#1C2A3F" stroke="white"/>
<path d="M625.918 29.3312V29.8312H626.418H642.687V79.153V79.653H643.187H653.941H654.441V79.153V29.8312H670.879H671.379V29.3312V20.3531V19.8531H670.879H626.418H625.918V20.3531V29.3312Z" fill="#1C2A3F" stroke="white"/>
<path d="M520.549 20.3531V19.8531H520.049H509.167H508.667V20.3531V79.153V79.653H509.167H520.049H520.549V79.153V20.3531Z" fill="#1C2A3F" stroke="white"/>
<path d="M583.702 76.388L584.035 76.2702L584.035 75.9166L584.04 46.8527L584.04 46.3526H583.54H563.16H562.66V46.8526V55.1587V55.6587H563.16H572.85V69.1658C571.475 69.738 568.872 70.169 565.391 70.169C559.501 70.169 554.628 68.2615 551.228 64.7929C547.828 61.3239 545.852 56.2437 545.852 49.8074C545.852 43.2084 547.971 38.1762 551.553 34.7915C555.14 31.4027 560.249 29.6138 566.321 29.6138C572.312 29.6138 576.121 30.6818 579.213 32.0421L579.742 32.2747L579.896 31.7182L582.256 23.2194L582.369 22.8126L581.987 22.6331C579.247 21.346 573.617 19.8531 566.439 19.8531C556.801 19.8531 548.651 22.808 542.905 28.1077C537.156 33.4106 533.856 41.0241 533.855 50.2547C533.771 59.0718 536.796 66.8279 542.054 71.8169C547.644 77.1578 555.113 79.653 564.965 79.653L564.968 79.653C571.351 79.6178 577.684 78.5142 583.702 76.388Z" fill="#1C2A3F" stroke="white"/>
<path d="M612.949 20.3531V19.8531H612.449H601.566H601.066V20.3531V79.153V79.653H601.566H612.449H612.949V79.153V20.3531Z" fill="#1C2A3F" stroke="white"/>
<path d="M445.241 21.0346L444.815 21.0982V21.5291V78.6094V79.0515L445.253 79.1057C448.691 79.5298 453.339 79.653 459.472 79.653C470.713 79.653 480.019 76.9976 485.862 71.6767C491.469 66.6108 494.975 58.7884 494.975 48.4288C494.975 38.4876 491.524 31.2848 485.845 26.6437C480.424 22.0892 472.857 19.8534 462.041 19.8531C456.419 19.8102 450.802 20.2052 445.241 21.0346ZM456.282 69.9708V29.5012C458.483 29.1137 460.718 28.9444 462.953 28.996L462.953 28.9962H462.965C469.448 28.9962 474.433 30.8359 477.786 34.1752C481.138 37.5138 482.926 42.4169 482.884 48.6775V48.6808C482.884 55.8808 480.883 61.2553 477.27 64.821C473.657 68.3875 468.359 70.2154 461.622 70.1739L461.613 70.1739L461.604 70.1741C459.827 70.2269 458.049 70.1589 456.282 69.9708Z" fill="#1C2A3F" stroke="white"/>
<mask id="path-8-outside-1_149_34343" maskUnits="userSpaceOnUse" x="376.189" y="19.3531" width="56" height="61" fill="black">
<rect fill="white" x="376.189" y="19.3531" width="56" height="61"/>
<path d="M430.717 49.17C430.717 68.2824 419.142 79.153 403.406 79.153C387.34 79.153 377.189 66.8841 377.189 50.1681C377.189 32.6616 388.181 20.3531 404.252 20.3531C420.903 20.3531 430.727 32.9531 430.727 49.17H430.717ZM388.185 50.0446C388.185 61.6069 394.013 70.837 404.015 70.837C414.091 70.837 419.75 61.5229 419.75 49.6295C419.75 38.8973 414.423 28.7531 404.015 28.7531C393.691 28.7531 388.185 38.2748 388.185 50.0446Z"/>
</mask>
<path d="M430.717 49.17C430.717 68.2824 419.142 79.153 403.406 79.153C387.34 79.153 377.189 66.8841 377.189 50.1681C377.189 32.6616 388.181 20.3531 404.252 20.3531C420.903 20.3531 430.727 32.9531 430.727 49.17H430.717ZM388.185 50.0446C388.185 61.6069 394.013 70.837 404.015 70.837C414.091 70.837 419.75 61.5229 419.75 49.6295C419.75 38.8973 414.423 28.7531 404.015 28.7531C393.691 28.7531 388.185 38.2748 388.185 50.0446Z" fill="#1C2A3F"/>
<path d="M430.717 49.17V48.17H429.717V49.17H430.717ZM430.727 49.17V50.17H431.727V49.17H430.727ZM429.717 49.17C429.717 58.523 426.888 65.7538 422.238 70.6392C417.59 75.5222 411.038 78.153 403.406 78.153V80.153C411.511 80.153 418.613 77.3485 423.687 72.0181C428.758 66.6901 431.717 58.9295 431.717 49.17H429.717ZM403.406 78.153C395.645 78.153 389.369 75.1983 385.023 70.2678C380.665 65.3249 378.189 58.3276 378.189 50.1681H376.189C376.189 58.7246 378.788 66.2198 383.522 71.5903C388.268 76.9733 395.101 80.153 403.406 80.153V78.153ZM378.189 50.1681C378.189 41.6231 380.87 34.4203 385.436 29.3661C389.995 24.3199 396.486 21.3531 404.252 21.3531V19.3531C395.946 19.3531 388.907 22.5407 383.952 28.0253C379.004 33.5019 376.189 41.2067 376.189 50.1681H378.189ZM404.252 21.3531C412.306 21.3531 418.645 24.3912 422.982 29.3394C427.331 34.3023 429.727 41.2581 429.727 49.17H431.727C431.727 40.865 429.211 33.4125 424.486 28.0211C419.748 22.6151 412.849 19.3531 404.252 19.3531V21.3531ZM430.727 48.17H430.717V50.17H430.727V48.17ZM387.185 50.0446C387.185 55.9801 388.679 61.3984 391.538 65.3617C394.417 69.3519 398.665 71.837 404.015 71.837V69.837C399.363 69.837 395.696 67.7071 393.16 64.1917C390.605 60.6494 389.185 55.6715 389.185 50.0446H387.185ZM404.015 71.837C409.406 71.837 413.635 69.3265 416.48 65.2673C419.304 61.2393 420.75 55.7194 420.75 49.6295H418.75C418.75 55.4331 417.367 60.5169 414.842 64.1193C412.339 67.6905 408.7 69.837 404.015 69.837V71.837ZM420.75 49.6295C420.75 44.1153 419.384 38.6868 416.613 34.605C413.821 30.4929 409.595 27.7531 404.015 27.7531V29.7531C408.842 29.7531 412.485 32.0855 414.958 35.7285C417.452 39.4019 418.75 44.4116 418.75 49.6295H420.75ZM404.015 27.7531C398.498 27.7531 394.245 30.3171 391.407 34.4159C388.592 38.4807 387.185 44.0203 387.185 50.0446H389.185C389.185 44.2991 390.532 39.1929 393.051 35.5544C395.547 31.9499 399.208 29.7531 404.015 29.7531V27.7531Z" fill="white" mask="url(#path-8-outside-1_149_34343)"/>
<path d="M363.631 20.3531V19.8531H363.131H352.248H351.748V20.3531V79.153V79.653H352.248H363.131H363.631V79.153V20.3531Z" fill="#1C2A3F" stroke="white"/>
<path d="M294.817 19.853H294.317L294.317 20.3531L294.327 79.1529L294.327 79.6529H294.827H316.097C322.756 79.6529 327.994 78.1036 331.81 75.0362C335.644 71.9536 337.527 67.6308 337.527 62.2294C337.527 58.2331 336.484 55.0075 334.472 52.5997C332.68 50.4543 329.969 48.9807 326.45 48.132C329.218 47.4019 331.454 46.0315 333.037 43.9536C334.86 41.5602 335.781 38.6127 335.781 35.0629C335.781 29.8333 333.939 25.9097 330.145 23.4609C326.4 21.0435 320.452 19.853 312.293 19.853H294.817ZM322.242 42.3033L322.242 42.3032L322.238 42.3062C320.532 43.4921 317.723 44.129 313.713 44.129H304.933V28.8478H312.788C317.103 28.8478 320.228 29.4814 322.053 30.6379C323.832 31.7658 324.788 33.5868 324.788 36.2092C324.788 39.1648 323.929 41.156 322.242 42.3033ZM314.137 52.9706H314.138C318.362 52.9706 321.43 53.6749 323.385 55.0714C325.313 56.4479 326.322 58.5351 326.322 61.4684C326.322 64.6815 325.339 66.9772 323.46 68.3809C321.541 69.8155 318.644 70.5741 314.648 70.5741H304.933V52.9518L314.137 52.9706Z" fill="#1C2A3F" stroke="white"/>
<path d="M255.57 92.5H255.57L263.158 84.3955H263.658V84.3945V62.0071V62.0058C263.652 59.8664 262.797 57.8166 261.281 56.306C259.765 54.7954 257.711 53.9471 255.57 53.9471H225.563H225.063V54.4471V92V92.5H225.563H255.57Z" fill="#1C2A3F" stroke="white"/>
<path d="M225.063 45.5531V46.0531H225.563H255.566C256.622 46.0693 257.67 45.8758 258.65 45.4838C259.632 45.0913 260.525 44.5076 261.279 43.7666C262.032 43.0257 262.631 42.1424 263.039 41.1682C263.448 40.1939 263.658 39.1482 263.658 38.0919C263.658 38.0919 263.658 38.0919 263.658 38.0919V15.5009V15.4996C263.655 14.4427 263.443 13.3968 263.035 12.422C262.626 11.4471 262.028 10.5626 261.276 9.81929C260.524 9.07595 259.633 8.48843 258.653 8.09046C257.673 7.69274 256.625 7.49217 255.568 7.50023H225.563H225.063V8.00023V45.5531Z" fill="#1C2A3F" stroke="white"/>
<path d="M217.159 8.00024V7.50024H216.659H194.587C188.795 7.50024 184.5 13.2166 184.5 20.0517V92V92.5H185H206.859C212.636 92.5 217.159 86.737 217.159 79.904V8.00024Z" fill="#1C2A3F" stroke="white"/>
</g>
</svg>
