<?xml version="1.0" encoding="UTF-8"?>
<svg width="100px" height="70px" viewBox="0 0 100 70" version="1.1" xmlns="http://www.w3.org/2000/svg" xmlns:xlink="http://www.w3.org/1999/xlink">
    <!-- Generator: Sketch 58 (84663) - https://sketch.com -->
    <title>help-keyboard-pan</title>
    <desc>Created with Sketch.</desc>
    <g id="Widget-S1-R5" stroke="none" stroke-width="1" fill="none" fill-rule="evenodd">
        <g id="Widget-S2-R5-/-Help-2" transform="translate(-293.000000, -349.000000)">
            <g id="Keyboard" transform="translate(97.000000, 351.000000)">
                <g id="Group-14" transform="translate(184.000000, 0.000000)">
                    <g id="Keyboard-Pan" transform="translate(15.000000, 0.000000)">
                        <g id="W" transform="translate(29.000000, 0.000000)">
                            <rect id="Rectangle" fill="#969696" x="0" y="3" width="28" height="28" rx="2"></rect>
                            <rect id="Rectangle" fill="#F9FAFD" x="0" y="1" width="28" height="28" rx="2"></rect>
                            <rect id="Rectangle" fill="#FFFFFF" x="0" y="0" width="28" height="28" rx="2"></rect>
                            <polygon fill="#1C2A3F" fill-rule="nonzero" points="10.4630682 19.7272727 8 11 9.70028409 11 11.2727273 17.4133523 11.3536932 17.4133523 13.0326705 11 14.5795455 11 16.2627841 17.4176136 16.3394886 17.4176136 17.9119318 11 19.6122159 11 17.1491477 19.7272727 15.5894886 19.7272727 13.8423295 13.6036932 13.7741477 13.6036932 12.0227273 19.7272727"></polygon>
                        </g>
                        <g id="A" transform="translate(0.000000, 35.000000)">
                            <rect id="Rectangle" fill="#969696" x="0" y="3" width="28" height="28" rx="2"></rect>
                            <rect id="Rectangle" fill="#F9FAFD" x="0" y="1" width="28" height="28" rx="2"></rect>
                            <rect id="Rectangle" fill="#FFFFFF" x="0" y="0" width="28" height="28" rx="2"></rect>
                            <path d="M11.6875,19.7272727 L10,19.7272727 L13.0724432,11 L15.0241477,11 L18.1008523,19.7272727 L16.4133523,19.7272727 L15.6889205,17.5752841 L12.4076705,17.5752841 L11.6875,19.7272727 Z M12.8338068,16.3053977 L15.2627841,16.3053977 L14.0823864,12.7897727 L14.0142045,12.7897727 L12.8338068,16.3053977 Z" fill="#1C2A3F" fill-rule="nonzero"></path>
                        </g>
                        <g id="S" transform="translate(34.000000, 35.000000)">
                            <rect id="Rectangle" fill="#969696" x="0" y="3" width="28" height="28" rx="2"></rect>
                            <rect id="Rectangle" fill="#F9FAFD" x="0" y="1" width="28" height="28" rx="2"></rect>
                            <rect id="Rectangle" fill="#FFFFFF" x="0" y="0" width="28" height="28" rx="2"></rect>
                            <path d="M16.0582386,13.5184659 C16.0184657,13.146305 15.8522742,12.8565351 15.5596591,12.6491477 C15.267044,12.4417603 14.8849455,12.3380682 14.4133523,12.3380682 C13.9190316,12.3380682 13.5326718,12.4453114 13.2542614,12.6598011 C12.9758509,12.8742908 12.8352273,13.1463052 12.8323864,13.4758523 C12.8295454,13.7173308 12.9019879,13.9169026 13.0497159,14.0745739 C13.1974439,14.2322451 13.3856523,14.3579541 13.6143466,14.4517045 C13.8430409,14.545455 14.0767034,14.6207384 14.3153409,14.6775568 L15.1335227,14.8821023 C15.5710249,14.9843755 15.9850833,15.1356524 16.3757102,15.3359375 C16.7663372,15.5362226 17.0845158,15.8032654 17.3302557,16.1370739 C17.5759955,16.4708824 17.6988636,16.8906225 17.6988636,17.3963068 C17.6960227,18.166197 17.4048324,18.7890601 16.8252841,19.2649148 C16.2457357,19.7407694 15.4332439,19.9786932 14.3877841,19.9786932 C13.3707336,19.9786932 12.5596621,19.7436103 11.9545455,19.2734375 C11.3494288,18.8032647 11.0312502,18.1349475 11,17.2684659 L12.5553977,17.2684659 C12.5866479,17.7258546 12.774146,18.0667602 13.1178977,18.2911932 C13.4616494,18.5156261 13.8806793,18.6278409 14.375,18.6278409 C14.892048,18.6278409 15.3110779,18.5134955 15.6321023,18.2848011 C15.9531266,18.0561068 16.1150568,17.7556837 16.1178977,17.3835227 C16.1150568,17.0454529 15.9708821,16.7890634 15.6853693,16.6143466 C15.3998565,16.4396298 15.0213092,16.2926142 14.5497159,16.1732955 L13.5568182,15.9176136 C12.8380646,15.7329536 12.2705987,15.4524167 11.8544034,15.0759943 C11.4382081,14.699572 11.2301136,14.1988668 11.2301136,13.5738636 C11.2301136,13.0596565 11.3693168,12.6093769 11.6477273,12.2230114 C11.9261378,11.8366458 12.307526,11.5362227 12.7919034,11.321733 C13.2762808,11.1072432 13.8238606,11 14.4346591,11 C15.0539804,11 15.598009,11.1072432 16.0667614,11.321733 C16.5355137,11.5362227 16.9026975,11.8330947 17.1683239,12.212358 C17.4339502,12.5916212 17.5710227,13.0269862 17.5795455,13.5184659 L16.0582386,13.5184659 Z" fill="#1C2A3F" fill-rule="nonzero"></path>
                        </g>
                        <g id="D" transform="translate(68.000000, 35.000000)">
                            <rect id="Rectangle" fill="#969696" x="0" y="3" width="28" height="28" rx="2"></rect>
                            <rect id="Rectangle" fill="#F9FAFD" x="0" y="1" width="28" height="28" rx="2"></rect>
                            <rect id="Rectangle" fill="#FFFFFF" x="0" y="0" width="28" height="28" rx="2"></rect>
                            <path d="M12.9573864,19.7272727 L10,19.7272727 L10,11 L13.0170455,11 C13.8835271,11 14.628548,11.1740039 15.2521307,11.522017 C15.8757133,11.8700301 16.355112,12.3693149 16.6903409,13.0198864 C17.0255699,13.6704578 17.1931818,14.4488591 17.1931818,15.3551136 C17.1931818,16.2642091 17.0248596,17.0454513 16.6882102,17.6988636 C16.3515608,18.352276 15.8671907,18.8536914 15.2350852,19.203125 C14.6029798,19.5525586 13.8437544,19.7272727 12.9573864,19.7272727 Z M11.5809659,18.359375 L12.8806818,18.359375 C14.7102364,18.359375 15.625,17.3579646 15.625,15.3551136 C15.625,13.3636264 14.7258613,12.3678977 12.9275568,12.3678977 L11.5809659,12.3678977 L11.5809659,18.359375 Z" fill="#1C2A3F" fill-rule="nonzero"></path>
                        </g>
                    </g>
                </g>
            </g>
            <g id="Mouse" transform="translate(88.000000, 137.000000)">
                <g id="Group-11">
                    <g id="Slices" transform="translate(17.000000, 0.000000)"></g>
                </g>
            </g>
        </g>
    </g>
</svg>