<svg width="80" height="80" viewBox="0 0 80 80" fill="none" xmlns="http://www.w3.org/2000/svg">
<g clip-path="url(#clip0)">
<path d="M46.25 75C41.2789 74.9945 36.5129 73.0173 32.9978 69.5022C29.4827 65.9871 27.5055 61.2211 27.5 56.25V42.5C27.5 41.837 27.7634 41.2011 28.2322 40.7322C28.7011 40.2634 29.337 40 30 40C30.663 40 31.2989 40.2634 31.7678 40.7322C32.2366 41.2011 32.5 41.837 32.5 42.5V56.25C32.5 59.8967 33.9487 63.3941 36.5273 65.9727C39.1059 68.5513 42.6033 70 46.25 70C49.8967 70 53.3941 68.5513 55.9727 65.9727C58.5513 63.3941 60 59.8967 60 56.25V52.5C60 51.837 60.2634 51.2011 60.7322 50.7322C61.2011 50.2634 61.837 50 62.5 50C63.163 50 63.7989 50.2634 64.2678 50.7322C64.7366 51.2011 65 51.837 65 52.5V56.25C64.9946 61.2211 63.0174 65.9871 59.5023 69.5023C55.9871 73.0174 51.2211 74.9946 46.25 75Z" fill="#425B72"/>
<path d="M62.5 55C66.6421 55 70 51.6421 70 47.5C70 43.3579 66.6421 40 62.5 40C58.3579 40 55 43.3579 55 47.5C55 51.6421 58.3579 55 62.5 55Z" fill="#CBD4DC"/>
<path d="M30.0001 45C25.2985 44.9846 20.7758 43.1964 17.3349 39.9924C13.894 36.7885 11.7883 32.4045 11.4381 27.716L10.0064 7.67825C9.98188 7.33579 10.0282 6.99196 10.1424 6.66819C10.2567 6.34442 10.4364 6.04765 10.6703 5.79638C10.9043 5.54511 11.1875 5.34472 11.5023 5.2077C11.8171 5.07069 12.1568 4.99998 12.5001 5H20.0001C20.6632 5 21.299 5.26339 21.7679 5.73223C22.2367 6.20107 22.5001 6.83696 22.5001 7.5C22.5001 8.16304 22.2367 8.79893 21.7679 9.26777C21.299 9.73661 20.6632 10 20.0001 10H15.1856L16.4251 27.3595C16.67 30.7924 18.2065 34.005 20.7252 36.3504C23.2439 38.6958 26.5577 39.9998 29.9994 39.9998C33.441 39.9998 36.7548 38.6958 39.2735 36.3504C41.7922 34.005 43.3287 30.7924 43.5736 27.3595L44.8146 10H40.0001C39.3371 10 38.7012 9.73661 38.2323 9.26777C37.7635 8.79893 37.5001 8.16304 37.5001 7.5C37.5001 6.83696 37.7635 6.20107 38.2323 5.73223C38.7012 5.26339 39.3371 5 40.0001 5H47.5001C47.8435 4.99995 48.1831 5.07063 48.498 5.20763C48.8128 5.34463 49.0961 5.54501 49.3301 5.79629C49.564 6.04756 49.7438 6.34435 49.858 6.66813C49.9723 6.99192 50.0186 7.33577 49.9941 7.67825L48.5621 27.716C48.2119 32.4045 46.1062 36.7885 42.6653 39.9924C39.2244 43.1964 34.7017 44.9846 30.0001 45Z" fill="#4B94E2"/>
</g>
<defs>
<clipPath id="clip0">
<rect width="80" height="80.0002" fill="white"/>
</clipPath>
</defs>
</svg>
