<svg width="80" height="80" viewBox="0 0 80 80" fill="none" xmlns="http://www.w3.org/2000/svg">
<path d="M36.1601 7.33001C48.3201 13.57 55.0401 15.97 59.2001 16.77C72.1601 19.33 80.4801 34.21 64.9601 57.25C64.9601 57.25 58.2401 69.09 56.4801 79.81H31.6801H19.8401C22.8801 72.29 31.8401 50.53 36.8001 43.97C36.8001 43.97 17.4401 44.77 8.32007 38.21V17.89V0.5C13 0.499825 22.5 2 36.1601 7.33001Z" fill="#F26674"/>
<path d="M38.56 53.5688C38.56 60.5 33.8 77.5688 33 79.8088H47.12C57.04 53.2488 57.4 55.7 59 52.5C59.64 51.22 59.8007 50.3287 59.48 49.2488C58.865 47.1777 49 44 47 44C45 44 42.9657 43.8444 41 45.5C38.482 47.6206 38.56 53.5688 38.56 53.5688Z" fill="white"/>
<path d="M8.32014 6.53003C13.7601 7.81003 39.4002 18.37 48.6802 23.97C49.4742 24.4586 50.3614 24.4576 51.3597 24.4565C52.358 24.4554 55.8029 24.6831 58.5 25.5C58.5 25.5 68.5 28.61 68.5772 33.7371C68.5772 33.7371 68.8272 37.1109 68 39.01C67.38 40.4336 66.7703 41.1453 65.6402 42.21C59.9227 47.5968 47.1649 40.16 46.9202 36C46.7602 33.28 46.2802 31.89 44.0402 30.61C41.5097 29.2042 35.2516 24.4769 27 21L8.32014 13.5V6.53003Z" fill="white"/>
</svg>
