<svg width="80" height="80" viewBox="0 0 80 80" fill="none" xmlns="http://www.w3.org/2000/svg">
<g clip-path="url(#clip0)">
<path d="M54.8645 67.7837C63.5655 67.7837 70.6191 60.7301 70.6191 52.029C70.6191 43.328 63.5655 36.2744 54.8645 36.2744C46.1635 36.2744 39.1099 43.328 39.1099 52.029C39.1099 60.7301 46.1635 67.7837 54.8645 67.7837Z" fill="#4B94E2"/>
<path d="M63.7714 55.8412C62.2028 55.8412 61.5834 54.1992 61.0857 52.8796C60.9195 52.3165 60.6612 51.7888 60.3226 51.3207C60.0594 51.8193 59.8362 52.3406 59.6555 52.8791C59.1578 54.1986 58.5384 55.8412 56.9692 55.8412C55.4016 55.8412 54.7827 54.1986 54.2856 52.8785C54.1198 52.3158 53.8622 51.7883 53.5246 51.3201C53.2648 51.8198 53.0434 52.341 52.8626 52.8785C52.3655 54.1986 51.747 55.8412 50.1795 55.8412C48.6119 55.8412 47.9934 54.1986 47.4963 52.8785C47.3305 52.3158 47.073 51.7883 46.7353 51.3201C46.5975 51.3203 46.4611 51.2914 46.334 51.2349C46.2069 51.1784 46.0917 51.0956 45.9951 50.9912C45.8986 50.8869 45.8226 50.7631 45.7717 50.6272C45.7208 50.4913 45.6959 50.346 45.6986 50.1998C45.7045 49.8988 45.8218 49.6125 46.0252 49.4028C46.2286 49.1931 46.5016 49.0769 46.7851 49.0794C48.3527 49.0794 48.9711 50.722 49.4682 52.0421C49.634 52.6048 49.8916 53.1323 50.2292 53.6005C50.4886 53.1006 50.7098 52.5795 50.8906 52.0421C51.3878 50.722 52.0063 49.0794 53.5738 49.0794C55.1414 49.0794 55.7603 50.722 56.2575 52.0421C56.4232 52.6048 56.6808 53.1323 57.0185 53.6005C57.2808 53.1011 57.5036 52.5795 57.6846 52.041C58.1822 50.7214 58.8017 49.0794 60.3703 49.0794C61.9394 49.0794 62.5589 50.722 63.0566 52.0415C63.2229 52.6045 63.4812 53.132 63.8196 53.5999C63.9574 53.5997 64.0939 53.6287 64.221 53.6851C64.3482 53.7416 64.4634 53.8244 64.56 53.9288C64.6566 54.0331 64.7326 54.1569 64.7836 54.2928C64.8346 54.4287 64.8595 54.574 64.8569 54.7203C64.8513 55.0212 64.7343 55.3076 64.531 55.5174C64.3278 55.7273 64.0549 55.8436 63.7714 55.8412Z" fill="white"/>
<path d="M59.5413 15.6845L56.6223 13.7496C55.7356 13.2672 54.8138 12.859 53.9016 12.5314C53.0783 12.2384 52.2656 11.9808 51.4182 11.7751L48.1485 11.1153C46.003 10.8233 43.7969 10.7604 41.5973 10.936L38.4973 11.3054C36.0349 11.7278 33.5781 12.4335 31.1715 13.4288L28.3903 14.6557C26.489 15.5953 24.6064 16.7184 22.7766 17.9957C22.1177 18.4487 21.4919 18.9175 20.8772 19.3992L18.586 21.3372C15.5961 24.028 13.2507 26.9875 11.562 30.1607L10.2624 32.9346C9.31891 35.2708 8.74264 37.7362 8.50248 40.2021L8.39321 43.3981C8.46726 45.8389 8.72868 49.2577 9.50006 51.5674C10.288 54.1061 11.6799 60 16.5001 64C18.6681 65.7992 23.3665 70.0772 31.5001 68.5C33.0001 68.2091 34.9208 66.8355 35.4931 65.5C36.4278 63.3187 35.6971 61.3015 35.4931 60.6997C33.4687 56.0192 33.133 50.5937 34.9565 45.4031C37.0998 39.3023 41.7734 34.8137 47.3862 32.7013C50.1653 31.6553 53.1747 31.1919 56.2212 31.4038C58.1987 31.3034 59.2891 31.3684 60.8195 30.6337C62.3498 29.8991 63.5022 28.5291 63.7819 27.1039C65.4171 22.7496 61.6362 17.6767 59.5413 15.6845Z" fill="#889DAF"/>
</g>
<defs>
<clipPath id="clip0">
<rect width="80" height="80" fill="white"/>
</clipPath>
</defs>
</svg>
