<svg width="80" height="82" viewBox="0 0 80 82" fill="none" xmlns="http://www.w3.org/2000/svg">
<path d="M19.0878 18.7041C20.6653 13.9717 21.5 12.0001 26 11.5C29.2458 11.1394 30.3819 15.5492 30.6073 18.4788C30.8327 21.4084 31.3538 23.8291 29.5 28C27.5 32.5 25.3117 34.6738 23.5 35.5001C22 34.0001 20.196 30.9633 19.1143 28.6197C17.7622 25.6901 17.5103 23.4366 19.0878 18.7041Z" fill="#374A68"/>
<path d="M61.5892 20.8715C59.6864 26.7676 56.1454 28.4744 53.2097 28.6095C50.2739 28.7445 47.5 27.5404 47.5 24.4999C47.5 19.9999 49.5 17.9999 44.4999 16.4999C39.4998 14.9999 37.8562 11.2433 37.9999 6.99988C38.1557 2.40001 43.3368 -0.2313 50.7544 1.24311C55.5909 2.20447 60.2603 6.84667 61.3101 9.13704C62.3599 11.4274 63.1007 16.1876 61.5892 20.8715Z" fill="#374A68"/>
<path d="M30.5 59C29.3 52.6 26.3333 42.5 25 38C27.4 37.2 29.5 34.3333 30.5 32.5C32.5 35.7 39.5 40.5 44 41C44 41.5 43.5 43 44 45C44.5901 47.3605 46.5 49.3333 47.5 50L50 78.5C49.3333 79.1667 46.9 80.6 42.5 81C38.1 81.4 34.3333 80.1667 33 79.5C32.6667 75.3333 31.7 65.4 30.5 59Z" fill="#374A68"/>
<path d="M33.5 22.5C33.5449 18.326 32.5 12.5 31.5 11L34.5 10C34.8333 11.1667 36.4 14.6 38 17C40 20 40.8875 19.6938 42.5 20.5C43.5 21 44.5 21.5 44 23.5C43.6667 24.8333 43.1 27.9 45.5 29.5C47.9 31.1 49.1667 31.8333 49.5 32C45.9 33.6 44.6667 37 44.5 38.5C39.7 36.9 34 33.5 32 29.5C32.1667 28.5 33.4703 25.2613 33.5 22.5Z" fill="#374A68"/>
<path d="M47.6381 40.0713C46.4381 44.0713 46.8371 46.4124 49.6381 47.5713C54.4717 49.5714 59.638 46.0714 59.638 39.0713C59.638 32.8617 57.638 32.238 55.638 32.5713C49.9716 33.5157 48.8381 36.0713 47.6381 40.0713Z" fill="#374A68"/>
</svg>
