<svg width="37" height="36" viewBox="0 0 37 36" fill="none" xmlns="http://www.w3.org/2000/svg">
<g clip-path="url(#clip0_315_46739)">
<path d="M18.5 36C28.4411 36 36.5 27.9411 36.5 18C36.5 8.05888 28.4411 0 18.5 0C8.55888 0 0.5 8.05888 0.5 18C0.5 27.9411 8.55888 36 18.5 36Z" fill="#EAEFF5"/>
<g clip-path="url(#clip1_315_46739)">
<path d="M28.1211 15.4531C28.2734 15.332 28.5 15.4453 28.5 15.6367V23.625C28.5 24.6602 27.6602 25.5 26.625 25.5H10.375C9.33984 25.5 8.5 24.6602 8.5 23.625V15.6406C8.5 15.4453 8.72266 15.3359 8.87891 15.457C9.75391 16.1367 10.9141 17 14.8984 19.8945C15.7227 20.4961 17.1133 21.7617 18.5 21.7539C19.8945 21.7656 21.3125 20.4727 22.1055 19.8945C26.0898 17 27.2461 16.1328 28.1211 15.4531ZM18.5 20.5C19.4062 20.5156 20.7109 19.3594 21.3672 18.8828C26.5508 15.1211 26.9453 14.793 28.1406 13.8555C28.3672 13.6797 28.5 13.4062 28.5 13.1172V12.375C28.5 11.3398 27.6602 10.5 26.625 10.5H10.375C9.33984 10.5 8.5 11.3398 8.5 12.375V13.1172C8.5 13.4062 8.63281 13.6758 8.85938 13.8555C10.0547 14.7891 10.4492 15.1211 15.6328 18.8828C16.2891 19.3594 17.5938 20.5156 18.5 20.5Z" fill="#374A68"/>
</g>
</g>
<defs>
<clipPath id="clip0_315_46739">
<rect width="36" height="36" fill="white" transform="translate(0.5)"/>
</clipPath>
<clipPath id="clip1_315_46739">
<rect width="20" height="20" fill="white" transform="translate(8.5 8)"/>
</clipPath>
</defs>
</svg>
