<svg width="37" height="36" viewBox="0 0 37 36" fill="none" xmlns="http://www.w3.org/2000/svg">
<g clip-path="url(#clip0_315_46723)">
<path d="M18.5 36C28.4411 36 36.5 27.9411 36.5 18C36.5 8.05888 28.4411 0 18.5 0C8.55888 0 0.5 8.05888 0.5 18C0.5 27.9411 8.55888 36 18.5 36Z" fill="#2867B2"/>
<path d="M8.52137 27.6364H12.5142V14.328H8.52137V27.6364ZM24.0767 13.867C22.1389 13.867 20.4051 14.5747 19.1751 16.1367V14.2843H15.1676V27.6365H19.1751V20.416C19.1751 18.89 20.5731 17.4013 22.3242 17.4013C24.0754 17.4013 24.5072 18.89 24.5072 20.3786V27.6352H28.5V20.0815C28.4999 14.8345 26.0158 13.867 24.0767 13.867ZM10.4991 12.9981C11.6026 12.9981 12.4982 12.1025 12.4982 10.999C12.4982 9.89547 11.6026 9 10.4991 9C9.39562 9 8.5 9.89562 8.5 10.9991C8.5 12.1026 9.39562 12.9981 10.4991 12.9981Z" fill="white"/>
</g>
<defs>
<clipPath id="clip0_315_46723">
<rect x="0.5" width="36" height="36" rx="18" fill="white"/>
</clipPath>
</defs>
</svg>
