<svg width="37" height="36" viewBox="0 0 37 36" fill="none" xmlns="http://www.w3.org/2000/svg">
<g clip-path="url(#clip0_315_46711)">
<path d="M18.5 36C28.4411 36 36.5 27.9411 36.5 18C36.5 8.05888 28.4411 0 18.5 0C8.55888 0 0.5 8.05888 0.5 18C0.5 27.9411 8.55888 36 18.5 36Z" fill="#1D9BF0"/>
<path d="M15.206 27.4951C23.189 27.4951 27.554 20.8801 27.554 15.1471C27.554 14.9581 27.554 14.7691 27.545 14.5891C28.391 13.9771 29.129 13.2121 29.714 12.3391C28.94 12.6811 28.103 12.9151 27.221 13.0231C28.121 12.4831 28.805 11.6371 29.129 10.6201C28.292 11.1151 27.365 11.4751 26.375 11.6731C25.583 10.8271 24.458 10.3051 23.207 10.3051C20.813 10.3051 18.869 12.2491 18.869 14.6431C18.869 14.9851 18.905 15.3181 18.986 15.6331C15.377 15.4531 12.182 13.7251 10.04 11.0971C9.671 11.7361 9.455 12.4831 9.455 13.2751C9.455 14.7781 10.22 16.1101 11.39 16.8841C10.679 16.8661 10.013 16.6681 9.428 16.3441C9.428 16.3621 9.428 16.3801 9.428 16.3981C9.428 18.5041 10.922 20.2501 12.911 20.6551C12.551 20.7541 12.164 20.8081 11.768 20.8081C11.489 20.8081 11.219 20.7811 10.949 20.7271C11.498 22.4551 13.1 23.7061 14.999 23.7421C13.514 24.9031 11.642 25.5961 9.608 25.5961C9.257 25.5961 8.915 25.5781 8.573 25.5331C10.472 26.7751 12.758 27.4951 15.206 27.4951Z" fill="white"/>
</g>
<defs>
<clipPath id="clip0_315_46711">
<rect x="0.5" width="36" height="36" rx="18" fill="white"/>
</clipPath>
</defs>
</svg>
