<svg width="77" height="45" viewBox="0 0 77 45" fill="none" xmlns="http://www.w3.org/2000/svg">
<g clip-path="url(#clip0)">
<path fill-rule="evenodd" clip-rule="evenodd" d="M42.1719 30.1881L44.2626 30.1982L44.2581 36.2435L42.1645 36.2386L42.1719 30.1881ZM65.23 31.308V30.3484H65.6396C65.7426 30.3484 65.8172 30.3571 65.8639 30.3744C65.9106 30.3914 65.948 30.4222 65.9761 30.4662C66.0042 30.5105 66.0181 30.5607 66.0181 30.6174C66.0181 30.6893 65.9968 30.7489 65.9544 30.7959C65.9119 30.8426 65.8483 30.8723 65.7637 30.8844C65.8058 30.9089 65.8406 30.9357 65.868 30.965C65.8954 30.9943 65.9322 31.0461 65.9785 31.1207L66.0964 31.308H65.8638L65.723 31.0991C65.6731 31.0245 65.639 30.9775 65.6205 30.9582C65.6021 30.9387 65.5826 30.9255 65.5619 30.9182C65.5413 30.911 65.5088 30.9074 65.4639 30.9074H65.4246V31.308H65.23ZM65.4246 30.7541H65.5684C65.6618 30.7541 65.7201 30.7502 65.7434 30.7424C65.7666 30.7346 65.7847 30.721 65.798 30.7018C65.811 30.6826 65.8177 30.6587 65.8177 30.6299C65.8177 30.5974 65.8089 30.5716 65.7918 30.5517C65.7745 30.5317 65.75 30.5192 65.7183 30.514C65.7026 30.5119 65.6553 30.5108 65.5763 30.5108H65.4246V30.7541ZM26.0419 9.89361C25.9302 10.0784 25.0548 12.7744 25.0341 13.0197L27.0252 13.0088C26.9679 12.5959 26.685 11.8461 26.5552 11.4198C26.4634 11.1191 26.1978 10.024 26.0419 9.89361ZM33.5382 23.8929C33.6293 23.4707 33.462 23.5594 33.0572 23.5505C32.7653 23.544 32.4474 23.5196 32.166 23.5838C31.7516 23.6784 31.235 23.9982 31.4479 24.574C31.687 25.2201 33.2386 25.2822 33.5382 23.8929ZM31.5854 31.5577C29.9686 31.9646 30.2373 35.4082 32.3186 34.8729C33.8332 34.4832 33.6202 31.0456 31.5854 31.5577ZM47.3165 32.6391L49.6208 32.6398C49.6711 30.8946 47.2543 30.9777 47.3165 32.6391ZM54.202 22.656C54.2858 21.9032 53.7691 21.3907 53.0661 21.3857C52.3909 21.381 51.8376 21.9549 51.9199 22.6637L54.202 22.656ZM44.4726 12.6745L46.7882 12.6836C46.8425 11.9456 46.3645 11.411 45.6398 11.4092C44.95 11.4073 44.3927 11.9877 44.4726 12.6745ZM65.9183 13.6111C64.3976 13.9405 65.2638 15.4885 66.4933 14.9243C66.8592 14.7564 67.1663 14.3609 67.2626 13.8893C67.342 13.501 67.1487 13.5779 66.786 13.5692C66.4636 13.5615 66.2127 13.5474 65.9183 13.6111ZM66.3008 31.1336C66.6803 30.1608 65.2954 29.6288 64.9763 30.5647C64.6438 31.5394 65.941 32.0563 66.3008 31.1336ZM31.2682 30.1006C33.3492 29.7842 35.0749 30.8086 35.4014 32.5449C35.8016 34.6739 34.4341 36.0819 32.6088 36.3373C27.6474 37.0316 26.8185 30.7771 31.2682 30.1006ZM50.9469 36.007C49.4022 36.5553 47.5965 36.5772 46.3487 35.6652C45.301 34.8995 44.7575 33.1301 45.5529 31.6081C46.7748 29.2704 51.8301 29.1206 51.4915 33.8176L47.3263 33.8383C47.2971 34.5245 48.043 34.9073 48.7397 34.9771C49.9172 35.0953 50.4341 34.6731 50.9593 34.5715L50.9469 36.007ZM52.9612 28.8217C53.371 28.6997 54.669 28.2304 55.0149 28.2179L55.0194 30.1656C55.3885 30.2076 55.7913 30.1743 56.1653 30.179C56.6176 30.1847 56.5289 30.2263 56.4904 31.6434L55.062 31.6798C55.0559 31.6928 55.0507 31.7104 55.0481 31.7206C54.9923 31.9409 55.0138 32.028 55.0153 32.2633C55.0216 33.2335 54.815 34.6644 55.455 34.9224C55.8842 35.0954 56.123 34.8969 56.4966 34.952L56.5547 36.2542C55.2796 36.5725 53.7286 36.42 53.211 35.5631C52.6434 34.6235 53.0922 32.8116 52.901 31.6566L51.7062 31.6179C51.7021 31.3179 51.6257 30.4223 51.7425 30.2318C51.8687 30.0956 52.5568 30.2609 52.9474 30.1442L52.9612 28.8217ZM65.3683 29.9085C65.9423 29.7017 66.4407 30.1185 66.5789 30.5131C66.778 31.0822 66.4337 31.6268 65.9906 31.7767C64.757 32.1939 64.019 30.3942 65.3683 29.9085ZM41.1797 36.1318C39.8801 36.4238 38.7176 36.5763 37.5183 35.9286C36.6419 35.4552 35.9372 34.5884 35.9482 33.1867C35.9719 30.1538 39.3771 29.5563 41.1545 30.3801L40.9867 31.8921C40.3921 31.6605 39.7753 31.3783 39.015 31.7281C37.5834 32.3868 37.7799 35.0496 40.1754 34.8381C40.6061 34.8002 40.8156 34.6532 41.1586 34.6059L41.1797 36.1318ZM57.6267 37.1467C58.0576 37.117 58.332 37.3597 58.861 37.1593C59.1594 37.0463 59.5136 36.6902 59.5007 36.3766C59.49 36.1204 57.1044 30.528 57.1057 30.1868C57.5012 30.1744 59.0569 30.0967 59.2923 30.2186C59.5095 30.3854 60.4213 33.8186 60.6474 34.0678C60.8138 33.836 61.1794 32.5073 61.2936 32.1366C61.4027 31.7832 61.7929 30.4118 61.9367 30.1897L63.9699 30.1908C63.9217 30.5254 63.0979 32.4855 62.9075 32.9727C62.5438 33.9036 62.1959 34.7834 61.8293 35.7003C61.0145 37.7387 60.4873 39.3949 57.5354 38.698C57.4626 38.4286 57.6032 37.4888 57.6267 37.1467ZM42.1691 27.6715L44.2628 27.6817L44.2489 29.1917L42.1671 29.1876L42.1691 27.6715ZM22.1026 34.2922C22.2217 34.2948 22.8141 34.552 23.0652 34.6184C23.9243 34.846 26.0964 35.0306 25.6572 33.728C25.3937 32.9467 23.0777 32.871 22.3119 31.9204C21.3088 30.6755 21.6244 28.034 25.2166 27.9916C25.7554 27.9851 27.1131 28.0628 27.4912 28.3104L27.3555 29.8498C27.2706 29.8992 27.332 29.8919 27.1926 29.8852L26.3428 29.654C23.9993 29.2751 23.7469 30.362 24.372 30.8476C24.7418 31.1349 25.7457 31.3129 26.2778 31.5148C26.9493 31.77 27.447 32.0884 27.7137 32.6507C28.0084 33.2717 28.0012 34.1494 27.7439 34.7818C26.8189 37.0554 22.4914 36.3762 21.9358 36.0105L22.1026 34.2922ZM55.5472 26.0203C54.1901 26.6211 52.1266 26.546 50.9776 25.7153C49.9134 24.9458 49.3363 23.1836 50.1562 21.6086C51.4551 19.1136 56.5991 19.4235 56.0943 23.8395L51.9363 23.8446C51.9034 24.5911 52.6507 24.9504 53.374 25.0005C54.6388 25.0879 54.9668 24.7034 55.5505 24.5885L55.5472 26.0203ZM38.5268 21.2287C38.6747 21.1729 38.6319 21.1776 38.7371 21.023C39.5928 19.7644 41.7529 19.7628 42.5996 20.8611C43.1469 21.571 43.0915 22.3372 43.0917 23.3281C43.0919 24.2769 43.127 25.2934 43.0861 26.2516L41.0078 26.244C40.8644 24.1424 41.5137 21.6977 39.8615 21.8198C38.2373 21.9396 38.7789 24.769 38.7003 26.2521L36.614 26.2415L36.6327 20.2064L38.519 20.2165L38.5268 21.2287ZM30.2319 20.5036C30.8123 20.1729 32.0674 20.0456 32.8497 20.0749C35.9704 20.1915 35.5374 22.5455 35.5356 24.8686C35.5353 25.3721 35.6143 25.7931 35.6254 26.2444C35.2963 26.2666 33.9622 26.2971 33.7162 26.2173C33.7087 26.0258 33.7258 25.581 33.6231 25.4144C33.2706 25.6878 32.924 26.6006 31.2696 26.3786C29.028 26.0776 28.8504 23.5149 30.6257 22.7607C31.6525 22.3245 32.4132 22.48 33.5555 22.4907C33.6641 21.2768 31.9234 21.3826 31.1018 21.5824C30.8532 21.6429 30.3704 21.8632 30.2408 21.8669L30.2319 20.5036ZM49.14 26.1453C46.557 26.9601 43.895 25.8936 43.9093 23.2253C43.9235 20.5932 46.6479 19.4264 49.1127 20.3947L48.9524 21.898C48.5183 21.7877 47.8068 21.3493 46.9506 21.7575C45.7967 22.3078 45.7056 24.2074 47.1052 24.7431C48.0424 25.1016 48.8167 24.6283 49.1199 24.6347L49.14 26.1453ZM58.8951 21.2305C59.2411 21.0775 59.3301 19.7777 61.3872 20.1285C61.4341 20.2919 61.365 21.644 61.318 21.8295C60.795 21.878 59.4974 21.506 59.1487 23.0179C58.958 23.8446 59.1189 25.3007 59.069 26.2501L56.9815 26.2469L57.0017 20.2064L58.8889 20.2158L58.8951 21.2305ZM28.875 26.0497C28.0855 26.5639 21.7575 27.2942 21.7905 22.1982C21.8025 20.3366 22.6504 19.1603 23.9508 18.5274C25.5157 17.7658 27.2377 17.953 28.8698 18.4188L28.7033 20.1292C28.5255 20.1237 28.2373 19.946 28.0189 19.8671C26.023 19.1474 24.0437 19.9663 24.031 22.1979C24.02 24.1338 25.5596 24.9894 27.2514 24.7769C28.0267 24.6797 28.4494 24.462 28.7821 24.4134L28.875 26.0497ZM54.6887 10.2285L56.7746 10.2415L56.7617 16.2877L54.6811 16.2696L54.6887 10.2285ZM24.7526 8.16565L27.3828 8.18044C27.5722 8.45616 28.047 9.82549 28.1908 10.2051C28.444 10.8729 28.7028 11.5078 28.9634 12.2063C29.2061 12.8571 30.4812 15.9011 30.4923 16.2888L28.1643 16.2782C28.0058 15.8156 27.7172 14.8793 27.5389 14.5508L24.4954 14.5573L23.8243 16.288L21.6519 16.2701L24.7526 8.16565ZM48.1061 16.0376C46.6068 16.626 44.6731 16.5813 43.5018 15.6996C42.4731 14.9253 41.9016 13.1853 42.7369 11.6043C43.6886 9.80338 47.0878 9.34526 48.2543 11.5278C48.5461 12.0734 48.7661 13.1055 48.6559 13.8623L44.4967 13.8709C44.5154 14.6389 45.1696 14.952 45.9483 15.0209C47.0811 15.1212 47.4652 14.7676 48.1106 14.6026L48.1061 16.0376ZM72.2982 11.2701C72.4543 11.1735 72.3844 11.2121 72.4995 11.042C72.557 10.9573 72.6025 10.8998 72.6541 10.8398C73.5198 9.83655 75.5312 9.81866 76.3351 10.8396C76.8852 11.5382 76.86 12.2616 76.86 13.3144C76.86 14.1647 76.9392 15.4933 76.8438 16.2886L74.779 16.2821C74.5671 14.3674 75.3232 11.6895 73.6514 11.8321C71.9763 11.9747 72.5798 14.7909 72.4752 16.2857L70.3914 16.2766L70.4032 10.2266L72.2865 10.2483L72.2982 11.2701ZM33.0995 11.2333C33.2871 11.1592 33.219 11.1763 33.3301 11.0166C34.0195 10.0237 35.5648 9.84581 36.4842 10.36C37.1111 10.7107 37.0252 11.0352 37.3155 11.18C37.8803 9.96904 40.4443 9.59188 41.211 10.8918C41.6114 11.5708 41.5673 12.5294 41.5673 13.417C41.5673 14.3128 41.6234 15.4073 41.5557 16.2883L39.4747 16.269C39.3407 14.2294 39.9614 11.613 38.4256 11.8404C36.9887 12.0534 37.5225 14.8874 37.419 16.2867L35.3449 16.2747C35.1598 14.2715 35.8672 11.6204 34.3041 11.8392C32.8417 12.0441 33.3753 14.9183 33.2874 16.2859L31.2011 16.2766L31.2114 10.2272L33.0963 10.2454L33.0995 11.2333ZM63.9348 10.5413C64.4034 10.1799 65.8035 10.0619 66.5276 10.0892C69.6902 10.2082 69.2491 12.5653 69.2461 14.9065C69.2455 15.396 69.3299 15.8227 69.3428 16.2877L67.4388 16.2626L67.3689 15.4088C67.0373 15.6312 66.7351 16.6016 64.979 16.3958C62.78 16.1379 62.5454 13.5656 64.3353 12.7774C65.3144 12.3463 66.1767 12.4767 67.2726 12.51C67.2468 11.2485 65.638 11.3997 64.7735 11.612C64.4545 11.6903 64.2048 11.8433 63.9568 11.904L63.9348 10.5413ZM51.5475 11.2347C52.0194 10.3381 52.5929 9.92206 53.9937 10.1552L53.8861 11.8726C53.3367 11.8501 52.9049 11.7399 52.4269 12.0119C51.2677 12.6711 51.7083 14.7117 51.6452 16.2862L49.5431 16.2836L49.5573 10.2253L51.4447 10.2513C51.4548 10.4184 51.4546 10.5793 51.451 10.7468C51.4386 11.3211 51.47 11.1514 51.5475 11.2347ZM62.5913 16.1387C62.1903 16.368 61.1973 16.4322 60.6473 16.4161C56.8563 16.3051 56.3472 11.8353 59.005 10.5023C59.8148 10.0962 61.7764 9.83638 62.5563 10.4402L62.4122 11.9036C62.0504 11.8428 61.877 11.6661 61.4215 11.6316C58.8081 11.4335 58.8941 15.1705 61.6159 14.8779C62.0016 14.8364 62.2298 14.6987 62.5656 14.6436L62.5913 16.1387ZM54.6856 7.71143L56.7758 7.72573L56.7534 9.23796L54.6842 9.22528L54.6856 7.71143Z" fill="#9CA8B3"/>
<path fill-rule="evenodd" clip-rule="evenodd" d="M8.57867 40.2157L8.59571 41.7169C9.17816 42.1457 9.43073 43.1622 8.85535 43.8536C8.29524 44.5268 7.2472 44.3656 6.73017 43.8416C6.37376 43.4805 6.42118 43.2107 6.42102 42.6178C6.42102 42.4612 6.40173 41.9735 6.4289 41.8533C6.4789 41.6325 8.55198 40.2227 8.57867 40.2157ZM10.5026 37.5782C10.3075 38.1972 8.40584 39.5378 7.79461 40.0008C7.38771 40.309 6.6723 40.9511 6.2527 41.0227C5.43311 41.1626 4.75484 40.581 5.01158 39.7027C5.14357 39.2511 7.25492 37.7177 7.74718 37.3322C8.10296 37.0538 8.85888 36.4031 9.27768 36.3045C10.1121 36.108 10.7725 36.7222 10.5026 37.5782ZM11.2451 33.4643C11.1003 33.9002 10.8324 34.072 10.5215 34.3282C9.25999 35.3677 7.35604 36.9753 6.1146 37.8888C5.35803 38.4456 4.18798 37.9438 4.46819 36.7815C4.57446 36.3412 4.88779 36.1586 5.18216 35.9155C5.67989 35.5045 9.287 32.5433 9.58523 32.3558C10.431 31.8241 11.5951 32.4113 11.2451 33.4643ZM7.48337 29.7983C6.07682 28.7724 6.42231 29.0977 6.42134 26.9334L6.42118 7.13488C6.42118 5.83379 6.3797 4.46432 6.4199 3.17202C6.4297 2.85538 7.28884 0.633653 7.48337 0.350708C7.60892 0.43455 8.54635 2.76486 8.5822 2.98073C8.64201 3.34101 8.59474 23.0474 8.59426 25.2878C8.5941 26.4802 8.64908 27.8107 8.58574 28.9861C8.27964 29.1882 7.71599 29.7256 7.48337 29.7983ZM5.70754 26.9889C4.50935 27.4892 3.23302 26.0663 3.25424 27.2668C3.51485 27.4402 6.78725 30.0788 6.91843 30.2246C6.86072 30.3489 5.51189 31.4237 5.29968 31.525C5.07074 31.4433 3.72786 30.3239 3.38768 30.0521C3.01342 29.7532 1.78371 28.8565 1.54449 28.5257C0.601117 27.2212 1.0921 24.6018 3.52224 24.6016L5.57877 24.6057C5.48777 25.0111 4.89004 25.5498 4.96191 25.8288C5.02123 26.0587 5.62233 26.6794 5.70754 26.9889ZM9.41771 24.5793C10.8249 24.5017 12.6195 24.3063 13.4283 25.5903C13.7497 26.1002 13.9608 26.9165 13.8069 27.6312C13.6365 28.423 13.2624 28.6967 12.733 29.1134C10.8087 30.6281 9.0055 32.1103 7.07245 33.6153C6.56201 34.0129 6.15367 34.3483 5.67892 34.7224C5.41093 34.9337 5.19309 35.1159 4.73924 35.0778C3.9621 35.0122 3.59732 34.1216 3.93654 33.5221C4.14569 33.1523 11.6106 27.3964 11.6787 27.2419C11.7024 26.9806 11.5916 26.8715 11.4903 26.7389C10.8784 26.6752 10.0256 27.4501 9.29263 26.9583C9.39134 26.7631 10.0037 25.9786 10.0486 25.8239C10.124 25.5639 9.49102 24.914 9.41771 24.5793Z" fill="#9CA8B3"/>
</g>
<defs>
<clipPath id="clip0">
<rect width="76.0909" height="45" fill="white" transform="translate(0.862061)"/>
</clipPath>
</defs>
</svg>
