<svg width="80" height="80" viewBox="0 0 80 80" fill="none" xmlns="http://www.w3.org/2000/svg">
<path d="M79.8435 26.2593C79.8435 28.4108 79.3494 30.419 78.3932 32.188C78.3135 31.8852 78.2338 31.5824 78.1223 31.2796C76.8632 27.8052 73.6279 25.3509 69.8508 24.8728C68.9583 22.9922 66.6633 21.9085 63.5236 21.9085C57.0052 21.9085 53.7062 25.7334 52.463 34.6584C51.8096 39.5193 49.0843 44.1729 46.9328 47.2169C45.9765 48.5557 45.4824 50.1495 45.4824 51.8388V66.9179C45.4824 67.8103 44.5587 68.7166 43.682 68.7166H36.2974C35.4208 68.7166 34.5016 67.8103 34.5016 66.9179V51.8388C34.5016 50.1495 34.0076 48.5557 33.0672 47.2169C30.8998 44.1729 28.1904 39.5193 27.5211 34.6584C26.2939 25.7334 22.9788 21.9085 16.4765 21.9085C13.3367 21.9085 11.0418 22.9922 10.1333 24.8728C6.34021 25.3668 3.12092 27.8212 1.87776 31.2637C1.76619 31.5506 1.67057 31.8534 1.60685 32.1562C0.634694 30.3871 0.156494 28.4108 0.156494 26.2593C0.156494 21.8446 1.76619 17.8763 4.69871 15.1032C7.7109 12.2504 11.8705 10.8 16.4286 11.0551C24.6364 11.5013 29.0032 15.5494 32.5254 18.8006C35.0913 21.1913 37.1313 23.0719 40 23.0719C42.8528 23.0719 44.8928 21.1913 47.4746 18.8006C50.9809 15.5494 55.3636 11.5013 63.5714 11.0551C63.9061 11.0391 64.2567 11.0232 64.5914 11.0232C68.7351 11.0232 72.4963 12.4575 75.2854 15.1032C78.2179 17.8763 79.8435 21.8446 79.8435 26.2593Z" fill="#F26674"/>
<path d="M18.7237 31.1041C19.9986 32.5545 20.3174 34.2916 19.6481 36.1404C18.5643 39.1207 15.09 41.8141 11.6794 41.8141C10.9941 41.8141 10.3088 41.7025 9.63935 41.4634C7.75874 40.7781 6.22882 39.4872 5.32038 37.7978C4.38003 36.0606 4.22069 34.1323 4.87408 32.3632C6.16501 28.7773 10.4362 27.0242 14.3568 28.4426C16.349 29.1598 17.7834 30.0363 18.7237 31.1041ZM74.6639 37.7978C73.7555 39.4872 72.2255 40.7781 70.3609 41.4634C69.6914 41.7025 69.0061 41.8141 68.3049 41.8141C64.8943 41.8141 61.4359 39.1207 60.3521 36.1404C59.6828 34.2916 60.0015 32.5545 61.2765 31.1041C62.2168 30.0363 63.6352 29.1598 65.6274 28.4426C69.564 27.0082 73.8192 28.7773 75.1261 32.3632C75.7636 34.1323 75.6042 36.0606 74.6639 37.7978Z" fill="#C4455E"/>
</svg>
