<svg width="80" height="80" viewBox="0 0 80 80" fill="none" xmlns="http://www.w3.org/2000/svg">
<path d="M48.9088 36.8108C48.3398 36.8108 47.7941 36.5942 47.3918 36.2086C46.9895 35.823 46.7634 35.3 46.7634 34.7547C46.7634 34.2094 46.9895 33.6864 47.3918 33.3008C47.7941 32.9152 48.3398 32.6986 48.9088 32.6986C56.1387 32.5341 66.0719 27.3938 66.222 27.3527C66.7227 27.0801 67.316 27.0092 67.8712 27.1557C68.4264 27.3023 68.8982 27.6542 69.1827 28.134C69.4672 28.6139 69.5411 29.1824 69.3882 29.7146C69.2353 30.2467 68.8681 30.6988 68.3674 30.9715C67.9169 31.1976 57.3831 36.6257 49.059 36.8108H48.9088Z" fill="#C4455E"/>
<path d="M67.3342 42.2162H56.4625C55.8972 42.2162 55.355 41.9884 54.9552 41.5829C54.5554 41.1774 54.3308 40.6274 54.3308 40.054C54.3308 39.4806 54.5554 38.9306 54.9552 38.5251C55.355 38.1196 55.8972 37.8918 56.4625 37.8918H67.3342C67.8996 37.8918 68.4418 38.1196 68.8416 38.5251C69.2414 38.9306 69.4659 39.4806 69.4659 40.054C69.4659 40.6274 69.2414 41.1774 68.8416 41.5829C68.4418 41.9884 67.8996 42.2162 67.3342 42.2162Z" fill="#4B94E2"/>
<path d="M57.8331 9.87922C56.1004 6.90391 53.6231 4.4308 50.6449 2.70308C47.6667 0.975358 44.2901 0.0525131 40.8472 0.0252939C25.7694 -0.687746 16.0201 13.8003 11.9179 27.5949C7.57117 42.2708 10.3928 61.5608 22.6444 68.5392C29.7464 72.5549 39.9513 73.0375 46.3521 67.5634C49.3276 65.0366 52.6742 60.194 52.8544 54.9464C52.8511 54.8922 52.8477 54.8383 52.8441 54.7846C52.7796 53.8219 52.676 53.0377 52.5551 52.4137C52.1567 51.2526 51.7318 50.4543 51.3217 50.0073C50.5436 49.1594 49.6048 48.627 48.2808 48.3889C45.7352 47.9312 43.587 50.2429 42.3278 51.5979C42.2227 51.7109 42.1239 51.8173 42.0315 51.9148C41.4162 52.5646 41.0195 53.2787 40.6025 54.0294L40.6025 54.0295C40.2063 54.7426 39.7918 55.4888 39.1539 56.2447C37.8861 57.747 36.3035 59.4221 35.5022 59.7094C34.701 59.9968 33.8487 60.1162 32.9982 60.0592C31.2385 60.0592 29.3487 58.5846 28.6239 57.8473C27.899 57.11 27.1677 54.7071 27.1316 54.3319C27.0954 53.9567 27.0928 53.579 27.1236 53.2032C27.1402 52.7256 27.5936 51.3369 28.1291 50.2374C29.2929 47.848 31.0483 46.6108 32.8749 45.3234L32.875 45.3233L32.875 45.3233C33.3366 44.998 33.8027 44.6695 34.2649 44.3184L34.7289 43.9656L34.9243 43.8167C34.6263 43.8318 34.3346 43.8572 34.05 43.8935C31.5885 44.2073 29.9009 44.7187 27.8586 45.4937C26.865 45.8852 25.7756 45.9641 24.7357 45.7195C23.6899 45.4735 22.8757 45.0044 22.0299 44.1129C20.8076 42.8245 20.6479 41.6132 20.4513 39.8482C20.2817 38.3243 20.7098 36.2547 20.8391 35.9412C20.9683 35.6278 22.073 33.9024 23.2335 33.162C24.3941 32.4215 25.2387 32.4581 26.7144 32.33C28.19 32.2019 30.5 32.8 30.5 32.8C30.5 32.8 29.9595 32.3064 29.5 32C28 31 25.918 30.7 25 30C23.8023 29.0867 23.3419 28.2579 22.9046 26.8166C21.9775 23.7612 24.8165 19.985 26.0599 19.2741L26.0714 19.2657C27.0825 18.5362 28.2912 18.1308 29.5372 18.1026C30.7832 18.0744 33.2054 19.1789 33.7038 19.4499C34.2022 19.7209 34.9554 20.0437 35.6803 20.5479C36.8145 21.3369 38.2306 23 38.2306 23C38.2306 23 38.2108 21.4981 38.2306 21.2357C38.3494 19.6549 38.4823 17.8889 39.4495 16.1169C40.0354 15.0436 40.6843 14.1437 41.3357 13.6176C41.987 13.0916 42.7361 12.6993 43.5397 12.4638C44.3436 12.2282 45.0525 12.1394 46.0185 12.2454C46.9813 12.351 48.8534 12.5904 49.9784 13.6176C51.1034 14.6449 51.4741 15.0966 51.8027 16.1169C52.1983 17.345 51.5476 19.4109 51.5476 19.4109L50.6716 21.7452C50.3204 22.4212 49.0399 24.9125 48.6559 26.6684C48.4234 27.7329 48.4171 29.1203 48.5463 30.5738L48.6693 30.6995C50.1357 29.7746 51.7258 29.2727 52.8937 28.904C53.2278 28.7986 53.5273 28.704 53.7795 28.6136C56.1106 27.7779 58.0758 26.4538 59.1349 24.4029C61.1693 20.5758 60.6204 14.7325 57.8331 9.87922Z" fill="#F26674"/>
<path d="M48.9324 21.0176C48.959 20.9664 48.976 20.9335 48.9816 20.9211C49.2968 20.4294 49.5071 19.8781 49.5992 19.3014C49.6913 18.7247 49.6636 18.1353 49.5174 17.5699C49.3712 17.0043 49.1102 16.4754 48.7499 16.0156C48.3899 15.5556 47.9388 15.1752 47.4252 14.8978C46.9163 14.6175 46.357 14.4404 45.7796 14.3771C45.2021 14.3138 44.6177 14.3652 44.0603 14.5286C43.5028 14.692 42.9832 14.9641 42.5313 15.3291C42.0792 15.6941 41.7041 16.1449 41.427 16.6554C41.3623 16.7425 41.3082 16.8372 41.2662 16.9373C40.1652 20.1954 40.0709 21.9981 39.9231 24.8219L39.9231 24.8229C39.9091 25.0932 39.8943 25.3727 39.8782 25.6641C39.765 25.5822 39.6523 25.502 39.5401 25.4233C36.7221 23.4486 31.9593 20.933 31.9593 20.933C31.2457 20.4658 30.4071 20.2262 29.5544 20.2455C28.7018 20.2647 27.8749 20.5421 27.1832 21.0412C26.3066 21.6834 25.6215 22.5522 25.2021 23.5549C24.7827 24.5574 24.6446 25.6553 24.803 26.7304C24.8539 26.988 24.935 27.2368 25.0437 27.4725C25.215 27.8434 25.4546 28.1812 25.7521 28.4673C26.2388 28.9355 26.8575 29.2428 27.5247 29.3478C29.7866 29.7403 30.8551 30.6674 32.5 32C33.685 32.96 34.5 34.5 34.5 34.5C34.5 34.5 30.9701 33.9259 29 34C27.0299 34.0741 24.9598 34.5597 24.2361 35.0108C23.5123 35.4619 22.9422 36.122 22.6015 36.9038C22.1742 37.903 22.0277 38.9999 22.1779 40.0763C22.3278 41.1526 22.7686 42.1674 23.4527 43.012C23.9032 43.5151 24.4971 43.868 25.1546 44.0226C25.812 44.1773 26.5009 44.1264 27.1285 43.8767C29.2746 43.0616 31.1171 42.4997 33.7771 42.1606C35.9176 41.8877 38.2843 42.1482 40.6539 42.7072C38.984 43.6112 37.4091 44.5384 36.4275 45.2932C36.2396 45.4379 36.0572 45.5772 35.8798 45.7121L35.4195 46.0621C33.1669 47.7732 31.7295 48.8651 29.6544 51.6087C29.5953 51.6997 29.5475 51.7977 29.5119 51.9001C29.4652 51.9906 29.4216 52.0824 29.3815 52.1756C29.1925 52.6143 29.0753 53.0817 29.0363 53.5592C29.0149 53.8207 29.0167 54.0831 29.0418 54.3431C29.0722 54.6587 29.1366 54.9707 29.2345 55.2737C29.2701 55.3835 29.3097 55.492 29.3535 55.5983C29.5303 56.0275 29.774 56.4266 30.0764 56.7805C30.4536 57.2223 30.9144 57.5852 31.4323 57.8481C31.9506 58.1171 32.5192 58.276 33.1017 58.315C33.6844 58.3541 34.2688 58.2723 34.8186 58.0751C35.3681 57.8779 35.8711 57.5694 36.2961 57.1688C36.721 56.7684 37.0588 56.2843 37.2879 55.7472C37.3713 55.6076 38.9887 52.467 40.5919 50.7741C42.0325 49.2531 44.7148 46.111 48.0597 46.4764C50.1 46.6994 51.4626 47.5092 52.7287 48.8891C56.6928 53.2087 56.745 71.212 56.4254 77.7911C56.4162 77.9883 56.4502 78.1849 56.5252 78.3673C56.6001 78.5499 56.7139 78.7136 56.859 78.8474C56.9263 78.9094 56.9995 78.9643 57.0771 79.0113C57.1027 79.0266 57.1288 79.0411 57.1554 79.0548C57.1816 79.0683 57.208 79.081 57.2346 79.0926C57.2769 79.1111 57.3201 79.1274 57.3642 79.1414C57.4495 79.1686 57.5368 79.1871 57.6253 79.1971C57.7316 79.209 57.8396 79.2082 57.9465 79.1945L63.0214 78.6125C63.3495 78.5776 63.6535 78.4238 63.876 78.1804C64.0988 77.9368 64.2247 77.6203 64.23 77.2904C64.2316 77.1088 64.2469 76.8597 64.2725 76.5496C64.3097 76.1016 64.3682 75.526 64.4379 74.8416L64.438 74.8406L64.438 74.8404C65.195 67.3957 67.2609 47.0774 57.2996 37.9862C54.6391 35.5582 50.8709 33.8659 47.5994 32.6151C47.2916 32.2973 46.9757 31.9753 46.6532 31.6509C46.4526 29.896 46.3916 27.9901 46.7281 26.4501C47.1774 24.3959 48.5935 21.6702 48.9175 21.0464L48.918 21.0454L48.9324 21.0176Z" fill="#C4455E"/>
</svg>
