<svg width="80" height="83" viewBox="0 0 80 83" fill="none" xmlns="http://www.w3.org/2000/svg">
<path d="M25.125 47C28.5208 22.8541 22.5 16.5 21 3H59.9798C53.4997 56.7051 53.3758 55.1749 54.2083 63.1666C54.7083 67.6666 54.8333 78.1666 53.5 82.8332L22.8333 82.9999C21 75.8333 21.2917 60.1666 25.125 47Z" fill="#F26674"/>
<path d="M34.1768 55.1668C35.9268 59.3125 34.42 82.83 34.42 82.83H45.06C45.06 82.83 43.9168 59.3126 45.4793 55.1668C47.4353 52.5418 48.9475 49.4168 49.4498 47.6668C50.4498 46.1668 49.9498 44.1668 48.6165 43.3335C47.2832 47.0002 42.4082 51.2085 39.7415 51.2085C37.0749 51.2085 33.3227 47.0001 31.0749 43.2085C29.7393 44.1667 28.9895 46.1667 30.031 47.6668C30.7185 49.9376 32.8018 53.0626 34.1768 55.1668Z" fill="white"/>
<path d="M34.0207 40.5625C29.3334 40.0417 29.5932 32.2722 33.2395 32C37.1458 31.7084 35.5504 10.1667 35.5504 3H44.7171C44.7187 10.1666 42.8749 30.1459 45.9999 32C51.2082 32.2292 50.1666 41.4583 45.4791 40.5625C45.4791 40.5625 43.9269 47.3333 40.1012 47.2639C36.2858 47.3333 34.0207 40.5625 34.0207 40.5625Z" fill="white"/>
<path d="M18.3822 38.2709C18.3822 37.463 17.7279 36.8125 16.92 36.8125L11.0429 36.8125C10.235 36.8125 9.58067 37.463 9.58068 38.2709C9.58069 39.0787 10.235 39.7396 11.0429 39.7396L16.92 39.7396C17.7279 39.7396 18.3822 39.0787 18.3822 38.2709ZM12.4324 28.1042C11.9325 28.7373 12.0406 29.6559 12.6742 30.1562L18.0758 34.323C18.7139 34.8274 19.6385 34.816 20.1302 34.1876C20.6301 33.5544 20.522 32.6255 19.8884 32.1251L14.4869 27.8647C13.8527 27.3638 12.9222 27.467 12.4324 28.1042ZM12.6753 46.3125C12.0335 46.822 11.9325 47.8138 12.4334 48.4479C12.9338 49.0816 13.8537 49.1874 14.4869 48.6875L19.8879 44.4167C20.5171 43.9242 20.6337 43.0022 20.1297 42.3646C19.6294 41.7309 18.7094 41.6252 18.0763 42.125L12.6753 46.3125ZM70.6444 38.2738C70.6444 37.466 69.9895 36.8111 69.1822 36.8116L63.3056 36.8121C62.4977 36.8121 61.8433 37.4665 61.8433 38.2743C61.8434 39.0822 62.4982 39.7371 63.3055 39.7365L69.1822 39.736C69.99 39.736 70.6444 39.0817 70.6444 38.2738ZM67.7922 28.1065C67.2918 27.4728 66.3719 27.3648 65.7387 27.8646L60.3372 32.1291C59.6975 32.6285 59.594 33.5509 60.0953 34.1836C60.5957 34.8172 61.5157 34.9253 62.1488 34.4254L67.5503 30.161C68.1796 29.6685 68.2962 28.7441 67.7922 28.1065ZM67.7912 48.4432C68.292 47.809 68.1845 46.8896 67.5503 46.3887L62.1493 42.1227C61.5162 41.6209 60.579 41.736 60.0958 42.3636C59.595 42.9978 59.7025 43.9172 60.3367 44.4181L65.7377 48.684C66.3864 49.1967 67.3124 49.0587 67.7912 48.4432Z" fill="#F26674"/>
</svg>
