<svg width="48" height="48" viewBox="0 0 48 48" fill="none" xmlns="http://www.w3.org/2000/svg">
<g clip-path="url(#clip0_311_8780)">
<g clip-path="url(#clip1_311_8780)">
<path d="M19.4347 27.5766C19.1728 29.3455 18.9517 31.0117 18.8333 32.9542L18.8227 33.0622C18.7891 33.7145 18.8935 34.3666 19.1291 34.9758C19.3647 35.5851 19.7262 36.1377 20.19 36.5977C20.6537 37.0577 21.2093 37.4147 21.8205 37.6453C22.4316 37.876 23.0845 37.975 23.7366 37.9361C24.3886 37.8972 25.0251 37.7211 25.6045 37.4194C26.1838 37.1177 26.693 36.6971 27.0987 36.1852C27.5044 35.6733 27.7976 35.0815 27.959 34.4486C28.1204 33.8156 28.1465 33.1557 28.0355 32.512C27.788 31.1301 26.7141 27.4424 26.7141 27.4424C23.3107 16.9811 29.0725 7.84599 33.9526 3.65552C30.2999 5.39999 28.248 7.09176 25.6045 10.3183C24.0514 11.7789 21.5999 15.9 20.6999 20.4C19.7978 24.9105 19.4347 27.0844 19.4347 27.5766Z" fill="#425B72"/>
<path fill-rule="evenodd" clip-rule="evenodd" d="M47.7714 24.31C47.7714 23.9829 47.5062 23.7178 47.1791 23.7178H31.797C28.876 24.4596 29.2556 26.805 29.3865 27.6141C29.3908 27.6411 29.3949 27.6663 29.3986 27.6897C29.4618 28.1175 29.715 28.9209 29.9785 29.757C30.2476 30.6108 30.5274 31.4987 30.6265 32.0552C30.8101 33.1023 30.7623 34.1768 30.4866 35.2034C30.2108 36.23 29.7138 37.1839 29.0303 37.998C28.3468 38.8122 27.4935 39.4669 26.5301 39.9163C25.5668 40.3657 24.5168 40.5988 23.4538 40.5994C22.4624 40.5998 21.4815 40.3972 20.5713 40.0042C19.6612 39.6112 18.8411 39.0361 18.1617 38.3142C17.4822 37.5923 16.9577 36.739 16.6204 35.8068C16.2832 34.8745 16.1404 33.8831 16.2007 32.8936L16.206 32.7949C16.3336 30.6628 16.5863 28.8624 16.8272 27.187C16.9828 26.1759 16.4574 24.3551 14.1166 23.7178H0.983932C0.656843 23.7178 0.391685 23.9829 0.391685 24.31V42.3735C0.391685 43.5525 1.25295 44.5304 2.38065 44.7122H45.7824C46.9101 44.5304 47.7714 43.5525 47.7714 42.3735V24.31Z" fill="#F26674"/>
</g>
</g>
<defs>
<clipPath id="clip0_311_8780">
<rect width="47.9999" height="48" fill="white"/>
</clipPath>
<clipPath id="clip1_311_8780">
<rect width="47.9999" height="41.1427" fill="white" transform="translate(0 3.59998)"/>
</clipPath>
</defs>
</svg>
