<svg width="80" height="80" viewBox="0 0 80 80" fill="none" xmlns="http://www.w3.org/2000/svg">
<path d="M79.1892 49.5947V61.4731C79.1896 61.7027 79.1315 61.9287 79.0204 62.1297C78.9093 62.3307 78.7488 62.5 78.554 62.6217C78.3593 62.7434 78.1367 62.8135 77.9074 62.8253C77.678 62.8372 77.4494 62.7903 77.2432 62.6893L66.0811 57.2839C63.3052 61.8955 59.3658 65.6964 54.6578 68.3054C49.9498 70.9144 44.6386 72.2398 39.2567 72.1488C21.6486 72.1623 7.31079 57.4866 7.31079 39.5136C7.31079 21.5406 21.6486 6.71631 39.2567 6.71631C56.8648 6.71631 71.1892 21.392 71.1892 39.5136C71.1866 41.4018 71.0284 43.2866 70.7162 45.1487L78.3648 48.419C78.5988 48.5177 78.8003 48.6804 78.9461 48.8883C79.0919 49.0963 79.1761 49.3411 79.1892 49.5947Z" fill="#F26674"/>
<path d="M13.527 53.7028C11.3959 49.6412 10.2022 45.1536 10.0338 40.57C9.86544 35.9863 10.7266 31.4232 12.5541 27.2163C12.6456 27.0023 12.6803 26.7682 12.6548 26.5368C12.6293 26.3055 12.5445 26.0846 12.4086 25.8957C12.2726 25.7067 12.0902 25.5561 11.8789 25.4584C11.6677 25.3606 11.4347 25.3191 11.2027 25.3379C8.77028 25.6352 0.864877 27.5946 0.864877 40.2028C0.810823 50.3244 6.60812 55.7298 12.3243 55.7298C12.5643 55.7356 12.8014 55.6774 13.0114 55.5611C13.2214 55.4449 13.3967 55.2748 13.5191 55.0684C13.6416 54.862 13.7069 54.6267 13.7083 54.3866C13.7097 54.1466 13.6471 53.9106 13.527 53.7028Z" fill="#425B72"/>
<path d="M39.2972 11.8108C24.7837 11.8108 12.9729 24.1486 12.9729 39.2973C12.9729 54.4459 24.7837 66.7838 39.2972 66.7838C53.8107 66.7838 65.6756 54.4594 65.6756 39.2973C65.6756 24.1351 53.8107 11.8108 39.2972 11.8108Z" fill="white"/>
<path d="M16.2972 26.0001C13.9715 30.4069 12.8423 35.3467 13.0225 40.3264C13.2028 45.306 14.686 50.1513 17.3243 54.3784C17.5035 54.6642 17.7832 54.8725 18.1083 54.9625C18.4333 55.0525 18.7803 55.0177 19.081 54.8649C23.4864 52.6487 26.4324 46.7568 26.4324 40.3109C26.4864 28.8244 17.7026 23.2974 16.2972 26.0001Z" fill="#CBD4DC"/>
<path d="M79.1893 55.7297V58.973L77.0947 57.6216C60.7703 46.8919 58.1757 47.0541 58.0406 46.9865C56.5406 46.9865 54.2163 49.2838 51.4865 50.8919C51.1757 52.4595 50.1352 56.1622 47.7703 57.6487C47.6186 57.7682 47.443 57.8539 47.2553 57.8998C47.0677 57.9458 46.8724 57.9509 46.6825 57.915C46.4927 57.879 46.3128 57.8028 46.155 57.6915C45.9971 57.5801 45.865 57.4362 45.7674 57.2694C45.6699 57.1026 45.6093 56.9169 45.5896 56.7247C45.57 56.5325 45.5917 56.3384 45.6535 56.1553C45.7152 55.9723 45.8155 55.8046 45.9476 55.6636C46.0796 55.5225 46.2404 55.4115 46.419 55.3379C47.3621 54.5599 48.0379 53.5061 48.3514 52.3243C47.3786 52.63 46.3701 52.8071 45.3514 52.8514C44.993 52.8639 44.6443 52.7336 44.382 52.489C44.1197 52.2445 43.9653 51.9057 43.9528 51.5473C43.9402 51.1889 44.0706 50.8402 44.3151 50.5779C44.5597 50.3156 44.8984 50.1612 45.2568 50.1487C50.0541 49.973 53.0947 45.8919 56.3514 44.6487C54.1487 38.8514 50.7974 37.8919 49.2974 33.3514C47.6209 33.3868 45.9606 33.6879 44.3784 34.2433C44.2107 34.3018 44.0331 34.3268 43.8558 34.3167C43.6784 34.3066 43.5048 34.2617 43.3448 34.1846C43.0217 34.0287 42.7737 33.7509 42.6555 33.4122C42.5969 33.2445 42.5719 33.0669 42.582 32.8895C42.5921 32.7122 42.637 32.5386 42.7142 32.3786C42.87 32.0554 43.1479 31.8075 43.4865 31.6892C45.149 31.1176 46.8807 30.7722 48.6352 30.6622C48.3291 28.8368 48.2158 26.9842 48.2974 25.1351C48.3077 24.9576 48.353 24.7838 48.4306 24.6238C48.5083 24.4637 48.6167 24.3206 48.7498 24.2026C48.8829 24.0846 49.038 23.994 49.2061 23.936C49.3743 23.8781 49.5523 23.8539 49.7298 23.8649C49.9074 23.8752 50.0811 23.9205 50.2412 23.9981C50.4012 24.0758 50.5443 24.1843 50.6623 24.3173C50.7804 24.4504 50.8709 24.6055 50.9289 24.7737C50.9868 24.9418 51.011 25.1198 51.0001 25.2973C50.8919 27.2027 51.0811 32.6892 53.2703 35.1892C56.2974 38.6351 57.8514 40.6892 59.1352 44.4595C63.2974 45.5541 73.0947 51.7568 79.1893 55.7297Z" fill="#C4455E"/>
</svg>
