<svg width="146" height="19" viewBox="0 0 146 19" fill="none" xmlns="http://www.w3.org/2000/svg">
<path d="M0.945761 12.0029C1.01358 12.0029 0.989356 11.9496 0.9942 11.9157C1.00873 11.7026 1.00389 11.4894 1.04748 11.2812C1.11045 11.0099 1.14921 10.7289 1.2364 10.4625C1.32359 10.201 1.38171 9.92485 1.48343 9.66812C1.66266 9.20311 1.88064 8.74778 2.11314 8.30698C2.20518 8.1326 2.31659 7.97275 2.41347 7.80321C2.51035 7.62883 2.63145 7.47383 2.75255 7.31398C2.85911 7.17835 2.98021 7.0524 3.09162 6.92162C3.17397 6.82474 3.24178 6.72302 3.33382 6.63583C3.68258 6.3016 4.06525 6.01096 4.47214 5.75423C4.67074 5.63313 4.8645 5.50719 5.07763 5.40547C5.22779 5.33766 5.37795 5.27468 5.53295 5.21656C5.68796 5.15843 5.82843 5.05671 6.00766 5.07124C6.2983 4.93561 6.61315 4.92592 6.91832 4.87264C7.37365 4.79514 7.82898 4.8242 8.27946 4.84357C8.58463 4.85326 8.89464 4.92592 9.19981 5.00827C9.58248 5.10999 9.93124 5.26984 10.2703 5.4636C10.4834 5.5847 10.682 5.72032 10.8758 5.87049C11.0647 6.0158 11.2391 6.1805 11.3989 6.35488C11.675 6.6552 11.9027 6.98943 12.0819 7.35273C12.2224 7.64336 12.2951 7.95822 12.421 8.2537C12.4065 8.48136 12.4985 8.69449 12.5276 8.91247C12.547 9.07716 12.5373 9.24186 12.5712 9.40171C12.6584 9.77469 12.5954 10.1477 12.6099 10.5207C12.6148 10.6175 12.576 10.7144 12.5663 10.8161C12.5566 10.9227 12.5954 11.039 12.5566 11.1261C12.4888 11.2666 12.5615 11.4216 12.5034 11.5427C12.4355 11.6784 12.5034 11.8091 12.4501 11.9448C9.34997 11.9448 6.24501 11.9448 3.12068 11.9448C3.12068 12.0562 3.11584 12.1579 3.11584 12.2596C3.11584 12.4049 3.12552 12.5503 3.11099 12.6956C3.08677 12.9668 3.16428 13.2284 3.16912 13.4997C3.16912 13.6208 3.18365 13.7516 3.2224 13.863C3.26116 13.9841 3.266 14.1148 3.32897 14.2311C3.38225 14.3377 3.40648 14.4588 3.45492 14.5653C3.57601 14.8269 3.72617 15.0691 3.9054 15.3016C4.2251 15.723 4.65136 15.9798 5.11153 16.1977C5.25201 16.2655 5.4167 16.2995 5.57171 16.3091C5.8139 16.3285 6.06094 16.3431 6.2983 16.3043C6.4969 16.2704 6.70034 16.2462 6.8941 16.1784C7.07817 16.1154 7.25739 16.0379 7.43178 15.9507C7.76116 15.7908 8.06633 15.6019 8.35696 15.3743C8.55556 15.2193 8.73479 15.0497 8.88979 14.8657C9.21434 14.483 9.50013 14.0713 9.70357 13.6062C9.7181 13.5723 9.74232 13.5433 9.76654 13.4997C9.89733 13.5287 10.0233 13.4754 10.1589 13.5433C10.2752 13.6014 10.4253 13.5045 10.5464 13.6014C10.5561 13.6111 10.5755 13.6062 10.5949 13.6014C10.8177 13.5675 11.0308 13.6692 11.2536 13.6547C11.336 13.6498 11.4183 13.6886 11.5007 13.6983C11.5782 13.708 11.6654 13.6934 11.7429 13.7031C11.7913 13.708 11.8349 13.7467 11.8688 13.7661C11.8494 13.8242 11.8349 13.8823 11.8155 13.9405C11.6411 14.3716 11.4329 14.7882 11.1664 15.1708C11.0308 15.3597 10.871 15.5341 10.7256 15.7182C10.5706 15.9216 10.3866 16.1009 10.2025 16.2752C9.81983 16.6385 9.42262 16.9921 8.9673 17.2634C8.7251 17.4087 8.45868 17.5153 8.20196 17.6364C7.91132 17.7672 7.58678 17.7865 7.30099 17.9173C7.12661 17.9028 6.96191 17.9997 6.78753 17.9658C6.75362 17.9609 6.70034 17.9464 6.70034 18.0142C6.18204 18.0142 5.66859 18.0142 5.15029 18.0142C5.13576 17.9997 5.12607 17.9658 5.11153 17.9658C4.8984 17.9755 4.6998 17.9173 4.49636 17.8689C4.26869 17.8156 4.05071 17.7381 3.83758 17.6461C3.63898 17.5589 3.45491 17.4378 3.266 17.3361C3.00927 17.1956 2.76707 17.0357 2.55394 16.842C2.40862 16.7112 2.27784 16.561 2.1519 16.406C1.9533 16.1687 1.79345 15.9119 1.64813 15.6455C1.41562 15.2193 1.29937 14.948 1.17827 14.4103C1.07171 14.2553 1.08623 14.0616 1.04264 13.8872C0.999044 13.708 0.955451 13.519 0.984514 13.3301C0.989358 13.3108 0.95545 13.2865 0.940918 13.2672C0.945762 12.8409 0.945761 12.4243 0.945761 12.0029ZM10.5949 10.3027C10.5561 9.92001 10.6094 9.55671 10.5513 9.18857C10.5125 8.94638 10.4592 8.71387 10.4011 8.47652C10.343 8.24885 10.2219 8.05025 10.1298 7.83712C10.062 7.68211 9.9603 7.54648 9.84889 7.42054C9.57763 7.12022 9.28215 6.8538 8.88011 6.71817C8.62822 6.63098 8.3715 6.54864 8.10992 6.53895C7.79507 6.52926 7.48021 6.50988 7.16051 6.57286C6.93769 6.61645 6.50174 6.72786 6.26923 6.82474C5.91078 6.9749 5.59108 7.19772 5.29076 7.44476C5.08247 7.6143 4.88872 7.80806 4.69496 7.99213C4.49151 8.18588 4.33651 8.41839 4.19603 8.65574C3.97806 9.03841 3.80368 9.4453 3.65836 9.86188C3.60992 10.0024 3.5857 10.1525 3.55179 10.3027C5.90594 10.3027 8.23587 10.3027 10.5949 10.3027Z" fill="#9CA8B3"/>
<path d="M19.6433 18.0092C19.6433 17.9414 19.59 17.9559 19.5561 17.9608C19.406 17.985 19.2607 17.922 19.1153 17.9075C18.97 17.893 18.8344 17.8397 18.6939 17.8203C18.3839 17.7719 18.0933 17.6701 17.8026 17.5733C17.5217 17.4764 17.0809 17.2536 16.829 17.1179C16.6013 16.992 16.393 16.8467 16.1848 16.6965C15.9862 16.556 15.8118 16.3768 15.6374 16.2073C15.2644 15.844 14.9593 15.4322 14.688 14.9818C14.4506 14.5846 14.2666 14.1728 14.1261 13.7369C14.0195 13.4075 13.9275 13.0732 13.8742 12.7245C13.8451 12.5453 13.8064 12.366 13.7773 12.182C13.7483 12.027 13.7676 11.8671 13.7289 11.717C13.6708 11.4748 13.695 11.2277 13.6901 10.9855C13.6853 10.7336 13.6901 10.4866 13.6901 10.2347C13.6901 10.0991 13.6853 9.95861 13.6901 9.82298C13.7047 9.52265 13.7047 9.22233 13.7434 8.92201C13.758 8.80575 13.758 8.68465 13.7919 8.57809C13.8306 8.46183 13.8064 8.34074 13.8403 8.23417C13.8984 8.04526 13.9178 7.8515 13.9662 7.65774C14.005 7.50758 14.0341 7.34773 14.0728 7.19273C14.1358 6.92631 14.2181 6.67443 14.3005 6.41285C14.4797 5.83643 14.7413 5.3036 15.0271 4.77561C15.1821 4.48982 15.3371 4.20403 15.5502 3.9473C15.7246 3.73416 15.8748 3.50166 16.0346 3.27884C16.0443 3.26431 16.0588 3.25462 16.0685 3.24493C16.4609 2.7896 16.8823 2.36334 17.3231 1.9516C17.5362 1.753 17.7784 1.58831 18.0206 1.42361C18.3645 1.18626 18.7181 0.977973 19.0911 0.793904C19.2849 0.697026 19.4883 0.624367 19.6918 0.546864C19.8855 0.469361 20.0793 0.372483 20.2924 0.362795C20.4862 0.232009 20.7332 0.270761 20.9415 0.178726C21.0384 0.135131 21.1692 0.139975 21.2806 0.130287C21.5082 0.115755 21.7311 0.0382524 21.9636 0.0721598C21.9829 0.0770038 22.0072 0.0430962 22.0265 0.0285645C22.5109 0.0285645 22.9953 0.0285645 23.4797 0.0285645C23.4942 0.0430962 23.5039 0.0721598 23.5185 0.0770037C23.5814 0.0818476 23.6492 0.0770038 23.7122 0.0818477C23.8139 0.0866916 23.9108 0.0721598 24.0077 0.125443C24.0852 0.169038 24.1966 0.0866916 24.2741 0.178726C24.4097 0.15935 24.5405 0.193258 24.6665 0.232009C24.9523 0.314356 25.2477 0.367639 25.5238 0.498425C25.7176 0.59046 25.9259 0.65343 26.1196 0.755153C26.3958 0.900471 26.6573 1.06516 26.9044 1.25408C27.103 1.40424 27.3113 1.54956 27.4759 1.73847C27.8053 2.1163 28.1299 2.49897 28.3672 2.94461C28.4447 3.08992 28.5319 3.2304 28.6094 3.37572C28.7547 3.66151 28.8468 3.97152 28.9485 4.27668C29.0405 4.55279 29.118 4.82889 29.1423 5.11468C29.244 5.23578 29.1277 5.41016 29.2779 5.55064C29.1907 5.55548 29.1471 5.56032 29.0987 5.56032C28.7838 5.55548 28.4689 5.64267 28.1492 5.60876C27.9506 5.69595 27.7424 5.63783 27.5389 5.6572C27.4566 5.66689 27.3742 5.69595 27.2919 5.7008C27.2047 5.71049 27.1175 5.7008 27.0206 5.7008C26.9916 5.49251 26.9334 5.28906 26.8705 5.08562C26.8123 4.89186 26.7494 4.70295 26.6719 4.51404C26.4054 3.86011 26.2989 3.75838 26.0712 3.429C25.9017 3.19165 25.6885 2.99789 25.4802 2.80413C25.2913 2.62975 25.0588 2.5135 24.8263 2.40209C24.5454 2.2713 24.2644 2.14536 23.9544 2.11145C23.8721 2.02426 23.7558 2.09208 23.6686 2.04364C23.5717 1.99035 23.4603 2.04364 23.3683 2.00973C23.1406 1.93707 22.913 1.97098 22.6853 1.96613C22.5448 1.96129 22.4092 1.96613 22.2687 2.00973C22.1476 2.04848 22.012 1.9952 21.8764 2.05332C21.7843 2.09208 21.6681 2.06301 21.5567 2.10661C21.4501 2.14536 21.3193 2.12114 21.2176 2.16958C21.1159 2.21802 21.0045 2.24708 20.8979 2.28099C20.554 2.38755 20.2246 2.53772 19.9097 2.70241C19.6627 2.8332 19.4253 2.99305 19.2074 3.16258C18.9458 3.36603 18.6842 3.56947 18.4614 3.81651C18.195 4.11684 17.8898 4.39294 17.7009 4.75623C17.2989 5.22609 17.047 5.78799 16.7806 6.33535C16.6062 6.69865 16.4802 7.08132 16.3543 7.46399C16.2865 7.67712 16.238 7.89994 16.1944 8.1276C16.1412 8.42793 16.0491 8.72341 16.0491 9.03826C15.9716 9.15452 16.0249 9.2853 15.9959 9.4064C15.9232 9.70672 15.9668 10.007 15.9474 10.3074C15.9426 10.3655 15.9087 10.4236 15.9038 10.4817C15.8941 10.5447 15.8893 10.6125 15.9038 10.6755C15.9668 10.9758 15.9183 11.281 15.9619 11.5765C16.0007 11.8332 16.0201 12.0899 16.0879 12.3418C16.1412 12.5356 16.1799 12.739 16.2332 12.9376C16.3204 13.267 16.4609 13.5673 16.6256 13.8628C16.7467 14.0759 16.8823 14.2745 17.0324 14.4683C17.1826 14.6572 17.3376 14.8364 17.5168 14.9914C17.7058 15.1561 17.9092 15.3111 18.1272 15.4468C18.4662 15.6599 18.8489 15.7713 19.2171 15.9166C19.3285 15.9602 19.4593 15.9554 19.5804 15.9748C19.6627 15.9893 19.745 16.0087 19.8274 16.0232C19.9049 16.0329 19.9824 16.0038 20.0551 16.0668C20.0841 16.091 20.1471 16.0716 20.1955 16.0716C20.4716 16.0716 20.7429 16.0765 21.019 16.0668C21.1353 16.0619 21.2467 16.091 21.3678 16.028C21.4646 15.9748 21.6051 16.0619 21.7068 15.9748C22.0411 15.9748 22.3462 15.8391 22.6417 15.7229C23.0244 15.5679 23.3925 15.379 23.7219 15.1125C23.9544 14.9236 24.1869 14.7444 24.4001 14.5264C24.8893 14.0275 25.2865 13.4656 25.5917 12.8407C25.7564 12.5065 25.8823 12.1529 26.0082 11.8041C26.0276 11.746 26.0325 11.683 26.0421 11.6055C26.1051 11.6152 26.1632 11.6249 26.2214 11.6394C26.2407 11.6443 26.265 11.6588 26.2843 11.6637C26.512 11.683 26.7397 11.6927 26.9673 11.7121C27.0836 11.7218 27.195 11.7412 27.3113 11.7605C27.4275 11.7799 27.5534 11.7073 27.6552 11.809C27.6649 11.8187 27.6891 11.8138 27.7036 11.809C27.9361 11.7751 28.1541 11.8913 28.4011 11.8526C28.3818 11.9349 28.3866 12.0173 28.3527 12.0754C28.2268 12.2885 28.1686 12.5356 28.0621 12.7535C27.9555 12.9764 27.8489 13.1992 27.7375 13.4172C27.5486 13.7853 27.3403 14.1438 27.103 14.4828C26.948 14.7057 26.7833 14.9188 26.6137 15.1319C26.3473 15.4661 26.0373 15.7568 25.7321 16.0426C25.4803 16.2799 25.1945 16.4785 24.9087 16.6771C24.5454 16.9339 24.1627 17.1615 23.7558 17.3456C23.5766 17.4231 23.3974 17.5006 23.2181 17.5684C23.0486 17.6314 22.8742 17.6798 22.7047 17.7283C22.5206 17.7815 22.3462 17.8397 22.1573 17.8639C22.0847 17.8736 22.012 17.8978 21.9345 17.9075C21.8667 17.9172 21.8037 17.922 21.7359 17.9511C21.6536 17.985 21.547 17.9559 21.4501 17.9608C21.4307 17.9608 21.4065 17.9898 21.3871 18.0092C20.8059 18.0092 20.2246 18.0092 19.6433 18.0092Z" fill="#9CA8B3"/>
<path d="M30.7793 17.767C30.0915 17.767 29.4133 17.767 28.7352 17.767C28.711 17.767 28.6916 17.7622 28.6528 17.7622C28.6867 17.6265 28.7158 17.4957 28.7497 17.3698C28.7836 17.239 28.7933 17.1034 28.8369 16.9726C28.866 16.8806 28.8708 16.7788 28.8902 16.682C28.9289 16.4737 28.958 16.2654 29.0307 16.0619C29.0646 15.9699 29.0355 15.8682 29.0839 15.7665C29.1275 15.6793 29.1178 15.5727 29.1372 15.4758C29.1566 15.3693 29.1614 15.2579 29.2099 15.1658C29.2632 15.0738 29.1808 14.9527 29.2825 14.88C29.2729 14.6669 29.3504 14.4683 29.3891 14.2697C29.423 14.0953 29.4521 13.9112 29.515 13.7417C29.549 13.6497 29.5199 13.5479 29.5683 13.4462C29.6168 13.3493 29.5732 13.1992 29.6313 13.112C29.6991 13.0103 29.6119 12.8843 29.7185 12.8068C29.7137 12.7051 29.7476 12.6082 29.7621 12.5113C29.796 12.3031 29.8347 12.0948 29.9026 11.8913C29.9316 11.7993 29.9316 11.6976 29.951 11.6007C30.0188 11.3052 30.0721 11.0097 30.1399 10.7094C30.1835 10.5108 30.2174 10.3025 30.2562 10.0991C30.2901 9.92469 30.3191 9.74062 30.3821 9.57109C30.416 9.47905 30.387 9.37733 30.4354 9.27561C30.4838 9.17873 30.4596 9.0431 30.4935 8.93653C30.5274 8.83481 30.5081 8.7234 30.5856 8.63621C30.5807 8.4473 30.6437 8.27291 30.6824 8.09369C30.7067 7.98712 30.6824 7.85634 30.7406 7.77883C30.8132 7.67711 30.7454 7.5657 30.8181 7.46882C30.8665 7.40101 30.852 7.27991 30.8713 7.17819C30.9101 6.9699 30.944 6.76161 31.0118 6.55817C31.0457 6.46613 31.036 6.36441 31.0603 6.26269C31.1184 6.0544 31.1571 5.83642 31.2007 5.61844C31.2395 5.41984 31.2928 5.2164 31.3121 5.00811C31.3315 4.82889 31.3945 4.6545 31.4381 4.48012C31.4623 4.3784 31.472 4.27183 31.4962 4.16527C31.5301 4.01995 31.5543 3.86979 31.5931 3.71963C31.6318 3.584 31.6464 3.43868 31.6851 3.29821C31.7142 3.20617 31.719 3.10445 31.7336 3.00273C31.7675 2.79444 31.8062 2.58615 31.874 2.3827C31.9031 2.29067 31.8983 2.18895 31.9225 2.08722C31.9806 1.87409 32.0194 1.66096 32.063 1.44298C32.1065 1.24438 32.155 1.04094 32.1744 0.832648C32.1889 0.682487 32.2373 0.537169 32.2761 0.377319C32.9736 0.377319 33.676 0.377319 34.3929 0.377319C34.3638 0.508105 34.3299 0.638891 34.296 0.764833C34.2621 0.895619 34.2233 1.03609 34.2137 1.16203C34.1943 1.36548 34.1168 1.54955 34.0974 1.74815C34.0829 1.92253 34.0441 2.09691 33.9957 2.26161C33.9521 2.4263 33.923 2.60068 33.8746 2.76537C33.8213 2.93491 33.8068 3.12382 33.768 3.30305C33.7438 3.40962 33.7583 3.52587 33.7099 3.6179C33.6711 3.69541 33.6857 3.77291 33.6663 3.84072C33.6421 3.91338 33.6372 3.99089 33.6179 4.06354C33.5404 4.31543 33.5403 4.58669 33.4386 4.83857C33.3999 4.93061 33.4144 5.03233 33.3902 5.12921C33.3321 5.34234 33.2933 5.55547 33.2497 5.77345C33.211 5.97205 33.1674 6.18034 33.1335 6.38378C33.1044 6.55817 33.085 6.74223 33.0124 6.91177C32.9736 7.00865 32.9736 7.12006 32.9494 7.22178C32.9155 7.3671 32.8961 7.51726 32.8525 7.66742C32.8138 7.80305 32.7992 7.94837 32.7605 8.08885C32.7314 8.18088 32.7266 8.2826 32.712 8.38433C32.6781 8.59261 32.6345 8.8009 32.5716 9.00435C32.5425 9.09638 32.5473 9.1981 32.5231 9.29983C32.4698 9.51296 32.4262 9.73094 32.3827 9.94407C32.3391 10.1427 32.3003 10.351 32.2664 10.5544C32.2373 10.7288 32.2228 10.9177 32.1453 11.0824C32.1017 11.1696 32.1162 11.2761 32.092 11.373C32.0339 11.5862 32.0145 11.8041 31.9467 12.0173C31.9176 12.1093 31.9176 12.211 31.8934 12.3127C31.8304 12.6034 31.8014 12.8989 31.6997 13.1798C31.6706 13.2622 31.6754 13.359 31.6561 13.4511C31.6076 13.6739 31.5543 13.8967 31.5107 14.1195C31.472 14.323 31.4332 14.5264 31.3945 14.7299C31.3606 14.9042 31.3509 15.0883 31.2686 15.2579C31.225 15.345 31.2637 15.4516 31.2153 15.5485C31.1668 15.6454 31.191 15.7762 31.1571 15.8876C31.1232 15.9893 31.1087 16.091 31.0748 16.1927C31.0409 16.2799 31.0409 16.3865 31.0215 16.4834C30.9876 16.6335 30.9585 16.7788 30.9246 16.929C30.8956 17.0695 30.8762 17.21 30.8278 17.3504C30.7987 17.4764 30.7987 17.612 30.7793 17.767Z" fill="#9CA8B3"/>
<path d="M33.1968 17.767C34.0638 13.5479 34.9261 9.3434 35.7883 5.13403C36.5003 5.13403 37.2221 5.13403 37.9632 5.13403C37.939 5.29388 37.9244 5.44404 37.8905 5.59421C37.8469 5.79281 37.7937 5.99141 37.7549 6.19001C37.7258 6.36439 37.7113 6.54361 37.6435 6.69862C37.5999 6.81003 37.6047 6.92144 37.5708 7.03285C37.503 7.24114 37.4691 7.45912 37.4255 7.67225C37.3868 7.87085 37.3383 8.07429 37.3093 8.28258C37.2899 8.45212 37.2318 8.62166 37.1979 8.79119C37.1639 8.98495 37.1155 9.17386 37.0719 9.36762C37.0089 9.63404 36.9847 9.9053 36.8927 10.1669C36.8588 10.2589 36.8685 10.3606 36.8394 10.4575C36.791 10.6077 36.7813 10.7675 36.7377 10.9225C36.6989 11.0678 36.6602 11.218 36.6457 11.3682C36.6166 11.654 36.5052 11.9155 36.481 12.2013C36.4664 12.3515 36.4228 12.5113 36.3792 12.6663C36.3405 12.8165 36.326 12.9667 36.2872 13.112C36.2194 13.3687 36.1806 13.6303 36.108 13.8822C36.0741 14.0129 36.0498 14.1486 36.0208 14.2842C35.9917 14.4198 35.9917 14.5603 35.9481 14.6911C35.89 14.8655 35.89 15.0495 35.8173 15.2191C35.7786 15.3063 35.7931 15.4128 35.7641 15.5097C35.7108 15.7228 35.7059 15.9457 35.6139 16.1491C35.6187 16.4349 35.5025 16.7013 35.4589 16.9823C35.425 17.2051 35.3765 17.4279 35.3233 17.6507C35.3087 17.7185 35.2797 17.767 35.2022 17.7621C35.1634 17.7621 35.1198 17.7621 35.0811 17.7621C34.4707 17.767 33.8507 17.767 33.1968 17.767Z" fill="#9CA8B3"/>
<path d="M36.7569 0.377319C37.4786 0.377319 38.1858 0.377319 38.9124 0.377319C38.9173 0.46451 38.9367 0.546857 38.8834 0.638891C38.8398 0.721238 38.8737 0.832648 38.8301 0.929527C38.7913 1.01672 38.7913 1.12328 38.7768 1.22016C38.7623 1.3122 38.7429 1.39939 38.7284 1.49142C38.7138 1.5883 38.646 1.68033 38.6799 1.7869C38.5831 1.88378 38.6557 2.02425 38.5927 2.14051C38.5395 2.24223 38.5734 2.38755 38.5298 2.49896C38.491 2.59584 38.4959 2.69271 38.4862 2.79444C37.7451 2.79444 37.0136 2.79444 36.2773 2.79444C36.4323 1.99519 36.5922 1.19594 36.7569 0.377319Z" fill="#9CA8B3"/>
<path d="M39.8182 17.7671C39.1061 17.7671 38.3989 17.7671 37.6626 17.7671C37.6723 17.7187 37.6674 17.6654 37.6868 17.6218C37.7304 17.5298 37.6965 17.428 37.7498 17.3312C37.7885 17.2585 37.7934 17.1519 37.7982 17.0648C37.8031 16.9679 37.8612 16.8904 37.8564 16.7935C37.8515 16.7015 37.8903 16.6094 37.9096 16.5271C37.9823 16.2703 37.9871 16.0039 38.0889 15.7569C38.1228 15.6745 38.1131 15.5631 38.1421 15.4663C38.1712 15.3645 38.1518 15.2386 38.2003 15.1514C38.2681 15.0351 38.2196 14.9092 38.2826 14.7978C38.3359 14.7009 38.3068 14.5653 38.3407 14.4587C38.3989 14.2843 38.4086 14.1051 38.4715 13.9307C38.5054 13.8387 38.4764 13.737 38.5248 13.6353C38.5733 13.5384 38.5297 13.3882 38.5878 13.301C38.6604 13.1993 38.5636 13.0685 38.675 12.9959C38.6459 12.7876 38.7428 12.6035 38.7815 12.4097C38.8348 12.153 38.8736 11.8914 38.9559 11.6347C39.0092 11.4652 39.0237 11.2763 39.0625 11.097C39.0867 10.9905 39.0819 10.8791 39.1158 10.7822C39.1691 10.6369 39.1739 10.4819 39.2127 10.3365C39.2611 10.1622 39.2805 9.98293 39.3434 9.80855C39.3774 9.71652 39.3483 9.6148 39.3967 9.51307C39.4452 9.4162 39.4016 9.26603 39.4597 9.17884C39.5275 9.07712 39.4403 8.95118 39.5469 8.87368C39.542 8.67992 39.6147 8.49585 39.6438 8.30694C39.6583 8.2149 39.6777 8.12287 39.7019 8.04052C39.7261 7.94849 39.7019 7.83223 39.7503 7.77411C39.8182 7.69176 39.7406 7.57551 39.8375 7.51738C39.8327 7.32846 39.8957 7.15408 39.9344 6.97486C39.9586 6.86829 39.9538 6.75688 39.9877 6.65516C40.041 6.50984 40.0458 6.35484 40.0846 6.20952C40.133 6.03514 40.1427 5.85107 40.2105 5.68153C40.2493 5.5895 40.2444 5.47324 40.2735 5.36668C40.2977 5.28917 40.3074 5.20683 40.3219 5.11964C40.971 5.11964 41.6056 5.11964 42.2547 5.11964C42.2837 5.2698 42.2014 5.40058 42.1917 5.5459C42.1771 5.69606 42.1432 5.84622 42.1142 5.99639C42.0851 6.13686 42.0367 6.27733 42.0221 6.41781C42.0076 6.57281 41.964 6.71813 41.9398 6.86829C41.9156 7.00877 41.8962 7.14924 41.872 7.32847C42.0657 7.13471 42.2207 6.96033 42.3951 6.80532C42.7003 6.52922 43.0248 6.27733 43.3542 6.02545C43.6158 5.82201 43.8967 5.65247 44.1729 5.47324C44.4005 5.32308 44.6621 5.22136 44.9188 5.11964C45.161 5.02276 45.4177 4.95494 45.6696 4.88713C45.8198 4.84838 45.9748 4.83384 46.1298 4.829C46.3381 4.81931 46.5512 4.829 46.7595 4.82416C47.147 4.81931 47.52 4.91135 47.8833 5.04213C48.3338 5.20198 48.731 5.45387 49.0362 5.81232C49.3268 6.15139 49.5642 6.52922 49.6756 6.97486C49.724 7.15893 49.7821 7.343 49.7724 7.5416C49.7676 7.67723 49.8306 7.79348 49.8306 7.93396C49.8306 8.06474 49.7773 8.17615 49.7724 8.30209C49.7676 8.41835 49.7773 8.52976 49.7337 8.65086C49.6804 8.79133 49.7143 8.96571 49.6707 9.11103C49.6077 9.32416 49.6223 9.54698 49.5351 9.75527C49.4963 9.84731 49.5157 9.96356 49.4867 10.075C49.4334 10.2881 49.3849 10.5061 49.3462 10.7192C49.3123 10.9178 49.2541 11.1067 49.2299 11.3053C49.2009 11.5427 49.1234 11.7752 49.0604 12.0077C49.0313 12.1094 49.0313 12.216 48.9974 12.3226C48.9441 12.4872 48.949 12.6762 48.8908 12.836C48.8279 13.0007 48.8569 13.1848 48.7552 13.3349C48.7843 13.5432 48.6874 13.7321 48.6486 13.921C48.5954 14.1632 48.5566 14.4054 48.4743 14.6476C48.421 14.8026 48.4016 14.9722 48.3677 15.1369C48.3338 15.3064 48.3241 15.4905 48.266 15.6503C48.203 15.815 48.2321 15.9991 48.1255 16.1492C48.1497 16.3478 48.0577 16.5271 48.0189 16.7111C47.9705 16.9533 47.9269 17.2004 47.8494 17.4377C47.8155 17.5443 47.8397 17.6702 47.7574 17.7671C47.0501 17.7671 46.3381 17.7671 45.6212 17.7671C45.5582 17.6363 45.6454 17.5152 45.6696 17.3941C45.7084 17.2198 45.7568 17.0405 45.7907 16.8661C45.8392 16.6143 45.9312 16.3672 45.9457 16.1057C46.0426 16.0185 45.97 15.8828 46.0378 15.7763C46.091 15.6891 46.0668 15.5631 46.0959 15.4614C46.1637 15.2337 46.1928 15.0012 46.2557 14.7736C46.2993 14.5992 46.3332 14.42 46.3817 14.2456C46.4495 13.9985 46.4834 13.737 46.5318 13.4851C46.6287 13.3979 46.5561 13.2623 46.6239 13.1557C46.6772 13.0734 46.6529 12.9426 46.682 12.8408C46.7498 12.6132 46.7837 12.3807 46.8419 12.153C46.8855 11.9786 46.9194 11.7994 46.9678 11.625C47.0356 11.378 47.0695 11.1164 47.118 10.8645C47.2148 10.7773 47.1422 10.6417 47.21 10.5351C47.2633 10.4528 47.2342 10.322 47.2681 10.2203C47.3311 10.0507 47.3456 9.86668 47.3989 9.6923C47.428 9.59542 47.4474 9.48401 47.457 9.37744C47.4667 9.24666 47.5006 9.11587 47.52 8.98993C47.5491 8.79133 47.5878 8.59757 47.6024 8.39897C47.6169 8.20037 47.6217 7.99208 47.6024 7.79348C47.5781 7.57066 47.5055 7.34784 47.3553 7.17346C47.1131 6.88282 47.0114 6.82954 46.5318 6.66485C46.4156 6.6261 46.3042 6.6261 46.1879 6.61641C46.1056 6.61156 46.0135 6.66 45.936 6.57766C45.9264 6.56797 45.8828 6.57281 45.8731 6.5825C45.8295 6.64063 45.7713 6.61641 45.7181 6.61641C45.098 6.59703 44.5313 6.78595 43.9888 7.06205C43.7272 7.19768 43.485 7.36722 43.2428 7.55129C42.9667 7.75957 42.7245 8.00661 42.5017 8.26334C42.2304 8.5782 42.0221 8.94149 41.8332 9.31447C41.5717 9.82309 41.3924 10.3608 41.2229 10.8984C41.1357 11.1842 41.0437 11.4749 41.0049 11.78C40.9904 11.9205 40.9565 12.061 40.9129 12.2015C40.8741 12.3322 40.8741 12.4679 40.8208 12.5987C40.7773 12.7198 40.7918 12.8602 40.7627 12.9862C40.7337 13.1121 40.7191 13.2381 40.6852 13.364C40.6562 13.4657 40.6465 13.5723 40.6222 13.6788C40.598 13.8096 40.6126 13.9501 40.5641 14.0664C40.4963 14.2553 40.5205 14.4587 40.4236 14.6379C40.4382 14.8656 40.351 15.0787 40.3171 15.2967C40.288 15.4953 40.2347 15.6988 40.196 15.8925C40.1524 16.1008 40.0991 16.3091 40.0797 16.5271C40.0652 16.7208 40.0216 16.9194 39.9683 17.1083C39.9344 17.2343 39.9053 17.3602 39.8957 17.4862C39.886 17.6024 39.8666 17.6848 39.8182 17.7671Z" fill="#9CA8B3"/>
<path d="M52.7223 5.12451C53.4538 5.12451 54.1658 5.12451 54.8779 5.12451C54.8827 5.12451 54.8924 5.1342 54.9021 5.14389C54.8827 5.26014 54.873 5.38124 54.844 5.49749C54.7955 5.69609 54.7471 5.8947 54.7083 6.0933C54.6599 6.34518 54.6163 6.60191 54.5485 6.84895C54.5291 6.91192 54.5291 6.97005 54.5146 7.02817C54.5 7.0863 54.4758 7.14443 54.4661 7.20255C54.4322 7.406 54.3789 7.59976 54.3305 7.79836C54.3014 7.90977 54.2918 8.02602 54.2724 8.13743C54.2336 8.33119 54.19 8.5201 54.1416 8.71386C54.1174 8.81558 54.1125 8.92215 54.0786 9.02871C54.0496 9.13044 54.0738 9.26607 54.0205 9.33872C53.9478 9.44045 54.0399 9.56639 53.9333 9.64389C53.9527 9.84734 53.8655 10.0362 53.8219 10.23C53.7686 10.4867 53.7444 10.7531 53.6475 11.0002C53.6136 11.0874 53.6185 11.1939 53.5991 11.2908C53.5603 11.4991 53.5264 11.7074 53.4586 11.9108C53.4247 12.0174 53.4199 12.1385 53.4005 12.2499C53.3617 12.4437 53.3278 12.6374 53.2697 12.8263C53.2406 12.9232 53.2649 13.0201 53.2164 13.1218C53.168 13.2187 53.2116 13.3689 53.1534 13.4561C53.0856 13.5578 53.1728 13.6837 53.0663 13.7612C53.0856 13.8726 53.0275 13.9744 53.0178 14.0809C53.0033 14.2747 52.9016 14.4491 52.9112 14.6428C52.8192 14.7252 52.8967 14.8463 52.8289 14.948C52.7756 15.0303 52.8047 15.1611 52.7708 15.2628C52.6884 15.5147 52.6884 15.786 52.5916 16.033C52.5576 16.1251 52.5673 16.2268 52.5431 16.3237C52.485 16.5368 52.4559 16.7548 52.3978 16.9679C52.3542 17.1423 52.33 17.3264 52.2912 17.5056C52.2719 17.5879 52.2525 17.6654 52.2283 17.7526C51.5259 17.7526 50.8284 17.7526 50.1309 17.7526C50.9931 13.5481 51.8553 9.33388 52.7223 5.12451Z" fill="#9CA8B3"/>
<path d="M55.382 2.79435C54.6554 2.79435 53.9385 2.79435 53.207 2.79435C53.3669 1.98542 53.5316 1.18617 53.6914 0.38208C54.4229 0.38208 55.1398 0.38208 55.8712 0.38208C55.8518 0.648496 55.7743 0.910068 55.721 1.17648C55.6677 1.44774 55.6145 1.72385 55.5466 1.99511C55.4885 2.26152 55.4595 2.53278 55.382 2.79435Z" fill="#9CA8B3"/>
<path d="M58.9276 18.0092C58.913 17.9946 58.9034 17.9656 58.8888 17.9607C58.7629 17.9559 58.6418 17.9414 58.5207 17.9171C58.138 17.8493 57.7796 17.7282 57.4356 17.5538C57.1208 17.394 56.8253 17.2099 56.5589 16.9726C56.215 16.6723 56.0018 16.3961 55.7257 15.965C55.4932 15.5969 55.3431 15.1997 55.2171 14.7928C55.159 14.6087 55.0863 14.415 55.1009 14.2115C54.9362 13.577 55.0234 12.9327 55.0088 12.2885C55.004 12.1916 55.0379 12.0899 55.0524 11.993C55.067 11.901 55.0137 11.7993 55.1009 11.7218C55.0863 11.5813 55.1154 11.4408 55.1493 11.3052C55.2074 11.0533 55.2559 10.8014 55.314 10.5495C55.3382 10.4381 55.3576 10.3267 55.4012 10.225C55.4448 10.1281 55.4593 10.0167 55.4981 9.92467C55.5804 9.72607 55.6337 9.51293 55.7209 9.31433C55.8178 9.09636 55.9001 8.87354 55.9776 8.64587C56.0648 8.40367 56.1956 8.17117 56.3215 7.93866C56.4572 7.68193 56.6219 7.44458 56.7963 7.21691C56.9949 6.96019 57.1886 6.70346 57.4356 6.49033C57.6391 6.31594 57.8522 6.14641 58.0702 5.98171C58.3802 5.74436 58.7144 5.56029 59.0632 5.39076C59.3393 5.25513 59.6299 5.15825 59.9206 5.06621C60.1386 4.9984 60.3662 4.96933 60.5842 4.91605C61.1509 4.78042 61.7177 4.8337 62.2893 4.82402C62.3861 4.82402 62.4879 4.85308 62.5847 4.86761C62.6913 4.88214 62.7979 4.89667 62.9044 4.91605C63.0013 4.93543 63.0933 4.95965 63.1902 4.98871C63.2823 5.01293 63.3791 5.04199 63.4712 5.0759C63.8054 5.19215 64.1203 5.352 64.4157 5.5506C64.5126 5.61358 64.6095 5.68139 64.6918 5.76374C64.905 5.98656 65.1472 6.18516 65.3312 6.44189C65.4766 6.64533 65.5928 6.86331 65.7139 7.08613C65.8544 7.34286 65.9174 7.63349 65.9997 7.9096C66.0481 8.0646 66.0336 8.23414 66.053 8.39399C66.0772 8.57321 66.1208 8.74759 66.1014 8.93166C66.0966 8.96073 66.1014 8.99463 66.1014 9.04307C65.8592 9.00432 65.6413 9.12058 65.4136 9.08667C65.2828 9.14964 65.1278 9.1012 65.0019 9.1448C64.8614 9.18839 64.7112 9.13995 64.5853 9.19323C64.4109 9.26589 64.2268 9.18355 64.0573 9.26589C64.0428 9.27558 63.9798 9.23683 63.9749 9.21261C63.9653 9.13995 63.9653 9.06729 63.9701 8.99463C63.9846 8.68947 63.9023 8.40368 63.8006 8.11788C63.7134 7.87084 63.5777 7.65771 63.4276 7.44458C63.2241 7.15394 62.9383 6.97956 62.6429 6.82456C62.4782 6.74221 62.2941 6.68893 62.1052 6.65502C61.9502 6.62596 61.7855 6.65017 61.6402 6.61142C61.4222 6.54845 61.2139 6.66471 61.0008 6.61627C60.6811 6.69861 60.3565 6.75674 60.0514 6.90206C59.722 7.06191 59.4168 7.25082 59.1262 7.4688C59.0293 7.54146 58.9373 7.62865 58.8743 7.74975C58.8065 7.87569 58.6757 7.96772 58.5885 8.08882C58.3657 8.40367 58.1865 8.74759 58.0315 9.09636C57.9152 9.35308 57.8086 9.6195 57.7602 9.90529C57.7505 9.97795 57.6924 10.0361 57.6682 10.1087C57.5858 10.3752 57.5471 10.6513 57.426 10.9031C57.4502 11.1163 57.3145 11.3052 57.3242 11.5183C57.3291 11.6007 57.2903 11.683 57.2806 11.7654C57.271 11.8429 57.2952 11.9204 57.2322 11.9882C57.2225 12.0027 57.2322 12.0366 57.2322 12.0608C57.2177 12.2982 57.1935 12.5307 57.1838 12.768C57.1741 13.0006 57.1886 13.2379 57.1789 13.4704C57.1692 13.6787 57.2661 13.8725 57.2322 14.0808C57.3291 14.3472 57.3727 14.633 57.4841 14.8945C57.5519 15.0495 57.6294 15.19 57.7166 15.3305C57.8571 15.5485 58.0218 15.7519 58.2252 15.9166C58.3463 16.0135 58.4819 16.1007 58.6273 16.1685C58.7726 16.2363 58.9227 16.2799 59.068 16.3332C59.0826 16.338 59.0923 16.3574 59.1068 16.3574C59.3877 16.3865 59.6784 16.4494 59.9545 16.3961C60.1386 16.3622 60.3226 16.3526 60.5067 16.2702C60.6665 16.1975 60.8409 16.1443 61.0008 16.0668C61.1752 15.9844 61.3302 15.8827 61.4803 15.7616C61.6547 15.6211 61.8485 15.4903 61.9986 15.3256C62.2263 15.0786 62.4491 14.817 62.6041 14.5119C62.7107 14.3036 62.8512 14.1147 62.9335 13.8967C63.0013 13.7223 63.1079 13.5625 63.1369 13.3735C63.1466 13.3057 63.2096 13.2428 63.258 13.1604C63.3259 13.1749 63.4179 13.112 63.5002 13.204C63.5051 13.2137 63.5293 13.2088 63.5487 13.204C63.7618 13.1701 63.9701 13.267 64.1832 13.2573C64.2801 13.2524 64.377 13.2863 64.4787 13.3009C64.5756 13.3154 64.687 13.2718 64.7742 13.3493C64.7839 13.359 64.8081 13.3542 64.8226 13.3493C65.0067 13.3251 65.1762 13.3784 65.3555 13.4123C65.2198 13.732 65.0987 14.0565 64.9534 14.3762C64.7064 14.9042 64.4884 15.282 64.2123 15.6889C63.9846 16.0183 63.7473 16.3429 63.4421 16.6044C63.1515 16.8515 62.8512 17.0937 62.5121 17.2777C62.4007 17.3359 62.2941 17.4134 62.1778 17.4715C61.8872 17.612 61.582 17.7088 61.2769 17.8106C61.1316 17.859 60.9814 17.8735 60.8312 17.9075C60.7586 17.922 60.6859 17.9462 60.6084 17.9559C60.5358 17.9656 60.4631 17.9607 60.3953 17.9656C60.3904 17.9656 60.3856 17.9898 60.3759 18.0043C59.8964 18.0092 59.412 18.0092 58.9276 18.0092Z" fill="#9CA8B3"/>
<path d="M69.1481 18.0091C69.1336 17.9945 69.1239 17.9655 69.1093 17.9606C68.5475 17.9219 68.0388 17.7426 67.5448 17.4714C67.3462 17.36 67.1524 17.2243 66.9877 17.0693C66.8521 16.9482 66.7455 16.7884 66.6438 16.6334C66.5033 16.4202 66.3677 16.2023 66.266 15.9698C66.1739 15.7615 66.111 15.5483 66.048 15.3352C65.9559 15.03 65.9463 14.72 65.9511 14.4052C65.9559 14.2599 65.9463 14.1145 65.9511 13.9692C65.9608 13.6398 66.0625 13.3298 66.1691 13.0198C66.266 12.7389 66.4064 12.4821 66.5857 12.2496C66.7504 12.0365 66.9005 11.8088 67.1379 11.6538C67.2977 11.5521 67.4333 11.4019 67.598 11.3002C67.7966 11.1791 67.9904 11.0532 68.2132 10.966C68.4554 10.8691 68.6879 10.7529 68.9447 10.6802C69.0658 10.6463 69.182 10.5882 69.3079 10.5639C69.429 10.5446 69.5501 10.5155 69.6664 10.4864C69.7972 10.4574 69.9377 10.4768 70.0588 10.438C70.1944 10.3944 70.3252 10.4235 70.4511 10.3896C70.6546 10.3363 70.8677 10.3847 71.0614 10.3363C71.2746 10.2878 71.4877 10.3314 71.696 10.2927C72.1174 10.2103 72.5437 10.2878 72.9603 10.2394C73.1976 10.2103 73.4301 10.2103 73.6675 10.1958C73.774 10.191 73.8758 10.1474 73.9872 10.1474C74.0937 10.1474 74.2003 10.1183 74.3069 10.1038C74.4134 10.0892 74.5249 10.0892 74.6266 10.0505C74.7913 9.98752 74.9608 9.95845 75.1255 9.91486C75.3096 9.87126 75.3774 9.75985 75.4016 9.60485C75.4549 9.27062 75.576 8.94608 75.5518 8.60216C75.5469 8.54403 75.6002 8.4859 75.5954 8.42778C75.5566 8.18074 75.5615 7.92401 75.4452 7.6915C75.3532 7.51227 75.1982 7.3718 75.048 7.25555C74.9463 7.17804 74.83 7.0957 74.7089 7.03273C74.4183 6.88741 74.1713 6.776 73.8758 6.70334C73.6239 6.64037 73.3768 6.60162 73.1153 6.60646C73.0329 6.60646 72.9409 6.64521 72.8682 6.56286C72.8585 6.55318 72.815 6.55318 72.8004 6.56286C72.6454 6.65006 72.471 6.58708 72.3112 6.6113C72.1174 6.64521 71.9237 6.68881 71.7299 6.7324C71.4393 6.79053 71.1825 6.92616 70.921 7.06179C70.7611 7.14414 70.6207 7.26523 70.4656 7.36696C70.3106 7.46383 70.1895 7.59946 70.0588 7.72541C69.7778 8.00635 69.5695 8.3309 69.4533 8.70872C69.429 8.78623 69.3758 8.85404 69.3273 8.94607C69.2256 8.9267 69.1142 8.90248 69.0028 8.88795C68.7751 8.86857 68.5426 8.87826 68.3246 8.82982C68.1745 8.80076 68.0243 8.82013 67.8838 8.78138C67.7434 8.74263 67.6077 8.75232 67.4673 8.73779C67.3704 8.7281 67.2783 8.69419 67.1669 8.66997C67.3462 8.25824 67.5351 7.86104 67.7724 7.48321C67.942 7.21679 68.1163 6.95522 68.3149 6.72271C68.5184 6.48052 68.7412 6.25285 69.0028 6.0591C69.1868 5.92347 69.3709 5.78299 69.5598 5.65221C69.8795 5.43423 70.2234 5.26954 70.5916 5.15813C70.7708 5.10484 70.95 5.04187 71.1293 4.99343C71.2358 4.96437 71.3666 4.99828 71.4587 4.91593C71.633 4.93531 71.7977 4.82874 71.9721 4.86749C72.2191 4.78514 72.4759 4.82874 72.7278 4.81905C72.9845 4.81421 73.2461 4.81905 73.5028 4.81421C73.619 4.81421 73.7305 4.82874 73.8467 4.86265C73.9581 4.89656 74.0841 4.8239 74.1906 4.91593C74.4667 4.89171 74.7186 5.00797 74.9753 5.07094C75.2418 5.13391 75.4985 5.24047 75.7455 5.36642C76.1137 5.55533 76.4624 5.77331 76.7724 6.04941C76.8596 6.12691 76.971 6.18504 77.034 6.28192C77.1745 6.49989 77.3586 6.68396 77.4506 6.931C77.5329 7.14898 77.6056 7.36696 77.6492 7.59946C77.717 7.95792 77.6637 8.31637 77.6879 8.66997C77.6976 8.78623 77.6201 8.88795 77.6347 9.01389C77.6492 9.12046 77.6104 9.22702 77.6008 9.33359C77.5765 9.57094 77.5232 9.80829 77.4845 10.0408C77.4506 10.2491 77.3682 10.4477 77.344 10.6608C77.2471 10.748 77.3489 10.8982 77.252 10.9854C77.2568 11.1355 77.1939 11.2712 77.1745 11.4116C77.1551 11.5569 77.1309 11.7023 77.097 11.8427C77.0292 12.0995 76.9759 12.3562 76.9226 12.6129C76.879 12.8115 76.8354 13.015 76.8112 13.2233C76.7821 13.4558 76.7095 13.6786 76.661 13.9111C76.6174 14.1097 76.569 14.3083 76.5254 14.5069C76.477 14.7055 76.4673 14.9138 76.3898 15.1027C76.3849 15.1172 76.3801 15.1318 76.3801 15.1463C76.3946 15.374 76.3026 15.5968 76.3268 15.8293C76.3413 15.9552 76.3365 16.086 76.3268 16.2168C76.3074 16.4542 76.4237 16.6721 76.4285 16.9046C76.5351 16.9725 76.4382 17.0984 76.506 17.1904C76.5593 17.2631 76.5496 17.3793 76.5738 17.4762C76.5932 17.5634 76.6126 17.6506 76.6368 17.7475C75.8957 17.7475 75.1788 17.7475 74.4619 17.7475C74.3069 17.2486 74.2391 16.7351 74.1906 16.1926C74.1034 16.2604 74.0308 16.3185 73.9533 16.3767C73.774 16.5123 73.59 16.6382 73.4204 16.7835C73.2122 16.9579 72.9845 17.0887 72.7568 17.2292C72.6503 17.297 72.5243 17.3406 72.4226 17.4133C72.2773 17.515 72.1077 17.5489 71.9576 17.6409C71.8171 17.7281 71.6621 17.7814 71.4974 17.8153C71.4005 17.8347 71.3133 17.8831 71.2165 17.8928C71.0615 17.9073 70.9113 17.9751 70.7514 17.9461C70.7418 17.9461 70.7272 17.9751 70.7127 17.9945C70.1799 18.0091 69.6664 18.0091 69.1481 18.0091ZM75.0141 11.4213C74.9414 11.4213 74.8785 11.4019 74.8494 11.4262C74.7331 11.5085 74.5878 11.4988 74.4667 11.5521C74.3311 11.6102 74.1858 11.6345 74.0356 11.6151C73.8176 11.7265 73.5754 11.6974 73.3429 11.7507C73.2218 11.7798 73.0862 11.7943 72.9554 11.804C72.8246 11.8137 72.6939 11.8185 72.5631 11.8476C72.4081 11.8815 72.2385 11.8524 72.0738 11.896C71.9091 11.9445 71.7299 11.8766 71.5555 11.9348C71.3957 11.9881 71.2165 11.9638 71.0469 11.9881C70.7999 12.022 70.5625 12.0801 70.3155 12.1043C70.238 12.114 70.1459 12.1237 70.0684 12.1479C69.7342 12.2545 69.3903 12.3368 69.0851 12.5209C68.7703 12.7098 68.5039 12.9423 68.344 13.2717C68.281 13.3976 68.2229 13.5284 68.1696 13.6592C68.1163 13.7948 68.1309 13.945 68.034 14.0613C68.0292 14.3277 68.0292 14.5941 68.1067 14.8557C68.1696 15.0639 68.252 15.2626 68.3731 15.4466C68.5087 15.6549 68.6637 15.8535 68.8671 15.9843C69.0609 16.1151 69.274 16.2216 69.5211 16.2749C69.7778 16.3331 70.0297 16.3863 70.2913 16.396C70.4996 16.4057 70.7127 16.4251 70.9258 16.3573C71.0469 16.3185 71.1825 16.3379 71.3182 16.3088C71.5604 16.2507 71.7977 16.1781 72.0205 16.0763C72.3645 15.9165 72.689 15.7276 72.9942 15.4999C73.0765 15.4369 73.1395 15.3546 73.2267 15.311C73.5173 15.1511 73.6869 14.8799 73.8806 14.6377C74.1131 14.347 74.273 14.0031 74.4086 13.6495C74.5103 13.3928 74.5781 13.1215 74.6702 12.8648C74.7283 12.7001 74.7186 12.516 74.7816 12.3562C74.8494 12.1915 74.8446 12.0171 74.9124 11.8524C74.956 11.7507 74.9463 11.6248 74.9657 11.5134C74.9657 11.494 74.9899 11.4698 75.0141 11.4213Z" fill="#9CA8B3"/>
<path d="M81.7135 0.38208C82.4062 0.38208 83.1086 0.38208 83.8206 0.38208C83.8061 0.503178 83.8206 0.643652 83.7674 0.735687C83.7044 0.847097 83.7528 0.958507 83.6899 1.06992C83.6366 1.16195 83.685 1.31696 83.6269 1.40415C83.5591 1.50587 83.6463 1.63181 83.5397 1.70931C83.5445 1.81104 83.5106 1.90792 83.4961 2.00479C83.4573 2.21308 83.4234 2.42137 83.3556 2.62482C83.3266 2.71685 83.3314 2.81857 83.3072 2.9203C83.2491 3.13343 83.2103 3.34656 83.1667 3.56454C83.128 3.76314 83.0747 3.96658 83.0553 4.17487C83.0359 4.3541 82.973 4.52848 82.9294 4.70286C82.9051 4.80458 82.8954 4.91115 82.8712 5.01771C82.8373 5.16303 82.8131 5.31319 82.7744 5.46336C82.7356 5.59898 82.7259 5.7443 82.6823 5.88478C82.6533 5.97681 82.6484 6.07853 82.6339 6.18026C82.5951 6.38854 82.5612 6.59683 82.4934 6.80028C82.4643 6.89231 82.4692 6.99403 82.445 7.09576C82.3868 7.30405 82.3481 7.52202 82.3045 7.74C82.2657 7.9386 82.2125 8.14204 82.1931 8.35033C82.1737 8.52956 82.1107 8.70394 82.0671 8.87832C82.0429 8.98004 82.0332 9.08661 82.009 9.19318C81.9751 9.33849 81.9509 9.48866 81.9121 9.63882C81.8734 9.77445 81.8637 9.91976 81.8201 10.0602C81.791 10.1523 81.7862 10.254 81.7717 10.3557C81.7329 10.564 81.699 10.7723 81.6312 10.9757C81.5973 11.0678 81.607 11.1695 81.5827 11.2712C81.5246 11.4795 81.4859 11.6975 81.4423 11.9155C81.4035 12.1141 81.3502 12.3175 81.3309 12.5258C81.3115 12.705 81.2485 12.8794 81.2049 13.0538C81.1807 13.1555 81.171 13.2621 81.1468 13.3686C81.1129 13.514 81.0887 13.6641 81.0499 13.8143C81.0112 13.9499 81.0015 14.0952 80.9579 14.2357C80.9288 14.3277 80.924 14.4295 80.9094 14.5312C80.8707 14.7395 80.8368 14.9478 80.769 15.1512C80.735 15.2432 80.7447 15.345 80.7205 15.4418C80.6624 15.6501 80.6236 15.8681 80.58 16.0861C80.5413 16.2847 80.488 16.4881 80.4686 16.6964C80.4493 16.8756 80.3863 17.05 80.3427 17.2244C80.3185 17.3358 80.2846 17.4472 80.2846 17.5586C80.2846 17.6507 80.2361 17.7185 80.2216 17.796C79.5289 17.796 78.8556 17.796 78.1629 17.796C78.1096 17.6313 78.2162 17.4811 78.2113 17.3261C78.2985 17.2389 78.2162 17.1178 78.2889 17.0161C78.3421 16.9435 78.3276 16.8224 78.347 16.7255C78.3954 16.4784 78.4293 16.2314 78.4971 15.9892C78.5165 15.9117 78.5214 15.839 78.5407 15.7664C78.5601 15.6986 78.5746 15.6356 78.5892 15.5678C78.6328 15.311 78.6861 15.0592 78.7393 14.8073C78.7636 14.6959 78.8072 14.5893 78.8265 14.4779C78.8653 14.2599 78.9186 14.0468 78.9622 13.8337C79.0058 13.6351 79.0445 13.4268 79.0784 13.2233C79.1075 13.0489 79.1269 12.8649 79.1995 12.6953C79.2383 12.5985 79.2431 12.487 79.2625 12.3853C79.3061 12.177 79.3351 11.9687 79.403 11.7653C79.432 11.6733 79.432 11.5715 79.4562 11.4747C79.5192 11.1889 79.5483 10.8934 79.6452 10.6076C79.6791 10.5156 79.6694 10.4138 79.6936 10.3121C79.7469 10.099 79.7905 9.88586 79.8341 9.66788C79.8777 9.46928 79.9164 9.26099 79.9503 9.05755C79.9794 8.88316 79.9939 8.69425 80.0714 8.52956C80.115 8.43752 80.0714 8.3358 80.1296 8.23892C80.178 8.15658 80.1683 8.04517 80.1828 7.94829C80.2022 7.84172 80.1974 7.72062 80.2507 7.63828C80.3136 7.54624 80.2216 7.42514 80.3282 7.35248C80.3185 7.25076 80.3572 7.15388 80.3718 7.057C80.4057 6.84872 80.4444 6.64043 80.5122 6.43698C80.5413 6.34495 80.5364 6.24323 80.5607 6.1415C80.6188 5.92837 80.6575 5.71524 80.7011 5.49726C80.7447 5.29866 80.7835 5.09037 80.8174 4.88693C80.8465 4.71255 80.8658 4.52848 80.9385 4.35894C80.9772 4.26206 80.9772 4.15065 81.0015 4.04893C81.0354 3.90361 81.0547 3.75345 81.0983 3.60329C81.1371 3.46766 81.1516 3.32234 81.1904 3.18187C81.2194 3.08983 81.2243 2.98811 81.2388 2.88639C81.2727 2.6781 81.3115 2.46981 81.3793 2.26637C81.4084 2.17433 81.4035 2.07261 81.4277 1.97089C81.4859 1.75775 81.5246 1.54462 81.5682 1.32665C81.6118 1.12804 81.6699 0.9246 81.6796 0.716311C81.6554 0.595213 81.6893 0.49349 81.7135 0.38208Z" fill="#9CA8B3"/>
<path d="M88.3689 17.767C87.5793 17.767 86.8043 17.767 86.0099 17.767C86.0051 17.7088 86.0002 17.6459 86.0002 17.5829C86.0148 17.2148 85.9179 16.8563 85.9518 16.4882C85.8646 16.2654 85.9421 16.028 85.8985 15.8052C85.8452 15.5339 85.8937 15.2627 85.8452 15.0011C85.8016 14.754 85.8452 14.507 85.7968 14.2697C85.7435 14.0226 85.7919 13.7756 85.7483 13.5382C85.7047 13.2766 85.7386 13.0151 85.6951 12.7583C85.6563 12.5355 85.6902 12.3127 85.6515 12.0996C85.603 11.8138 85.6418 11.528 85.5982 11.247C85.5594 11.0242 85.5933 10.8014 85.5546 10.5883C85.5061 10.3219 85.5449 10.0458 85.5013 9.78418C85.4674 9.57589 85.4819 9.37729 85.4625 9.17385C85.448 9.02853 85.4238 8.87837 85.4141 8.73305C85.4044 8.58773 85.4432 8.43273 85.4044 8.2971C85.3414 8.07428 85.3947 7.85145 85.356 7.63832C85.3075 7.35253 85.3463 7.06674 85.3027 6.78579C85.2639 6.55328 85.3027 6.32562 85.2591 6.1028C85.2058 5.83154 85.2543 5.56028 85.2058 5.29871C85.1671 5.0662 85.201 4.83853 85.1622 4.61571C85.1186 4.35414 85.1574 4.08773 85.1089 3.83584C85.0653 3.59849 85.0799 3.36114 85.075 3.12863C85.0702 2.993 85.0024 2.87674 85.0217 2.73627C85.0411 2.60064 85.0557 2.45532 85.0169 2.32938C84.9491 2.10172 85.0121 1.86921 84.9685 1.64639C84.9152 1.37513 84.9588 1.10871 84.9152 0.842297C84.891 0.687291 84.8813 0.532286 84.8716 0.372437C85.6611 0.372437 86.441 0.372437 87.2403 0.372437C87.2403 0.42572 87.2451 0.483847 87.25 0.546818C87.25 0.789014 87.2161 1.03605 87.2596 1.27341C87.3226 1.62217 87.2548 1.97578 87.3081 2.31969C87.3614 2.66846 87.3032 3.02206 87.3565 3.36598C87.4098 3.70021 87.3517 4.03444 87.405 4.36383C87.4631 4.70775 87.4001 5.05167 87.4534 5.3859C87.5067 5.72982 87.4486 6.07373 87.5018 6.40797C87.56 6.75673 87.497 7.11033 87.5503 7.45425C87.6036 7.80302 87.5551 8.15662 87.5987 8.50054C87.6229 8.70398 87.5987 8.91712 87.6472 9.11087C87.7101 9.37245 87.6665 9.63402 87.6859 9.89075C87.7004 10.0554 87.7247 10.2153 87.7344 10.38C87.744 10.5398 87.7344 10.7045 87.7344 10.8644C87.7344 11.0339 87.7101 11.2083 87.7392 11.373C87.8264 11.8719 87.7683 12.3757 87.7828 12.8794C87.7925 13.3784 87.7828 13.8821 87.7876 14.3811C87.7876 14.4053 87.7876 14.4295 87.7925 14.4683C87.9717 14.2745 88.0541 14.0371 88.1655 13.8192C88.4852 13.1943 88.7613 12.5452 89.1003 11.9349C89.4007 11.3972 89.6526 10.8353 89.948 10.2976C90.0837 10.0458 90.2193 9.79387 90.3501 9.54683C90.4712 9.31432 90.5923 9.08181 90.7182 8.8493C90.8635 8.5732 91.0137 8.29225 91.1639 8.01615C91.2947 7.77395 91.4254 7.52691 91.5562 7.28472C91.687 7.04252 91.8178 6.79548 91.9486 6.55328C92.0745 6.31593 92.2005 6.07858 92.3264 5.83638C92.4717 5.56512 92.6122 5.29386 92.7527 5.0226C93.0143 4.52852 93.2758 4.02475 93.5471 3.53552C93.6876 3.27879 93.8087 3.01237 93.954 2.76049C94.1041 2.50861 94.2252 2.24219 94.3657 1.98546C94.4917 1.7578 94.6128 1.52045 94.7387 1.29278C94.8695 1.05059 95.0003 0.803546 95.1311 0.561349C95.165 0.493534 95.2134 0.435407 95.2473 0.382124C96.0466 0.382124 96.8167 0.382124 97.6112 0.382124C97.6112 0.454783 97.6112 0.522598 97.6112 0.595257C97.6208 0.813233 97.6112 1.03121 97.6499 1.25403C97.6887 1.47201 97.6257 1.70936 97.6693 1.92734C97.7226 2.21313 97.6693 2.49892 97.7177 2.77987C97.771 3.07535 97.7177 3.37082 97.7662 3.65662C97.8146 3.9521 97.7662 4.24758 97.8146 4.53337C97.8679 4.82885 97.8146 5.12433 97.863 5.41012C97.9163 5.7056 97.8582 6.00108 97.9115 6.28687C97.9648 6.57266 97.9115 6.85845 97.9599 7.1394C98.0132 7.43972 97.9599 7.74489 98.0084 8.04037C98.0568 8.32131 98.0084 8.59742 98.052 8.86868C98.1052 9.17869 98.052 9.4887 98.1052 9.79387C98.1488 10.0506 98.1052 10.3025 98.1488 10.5495C98.2118 10.9225 98.1537 11.3003 98.2021 11.6685C98.2312 11.9058 98.236 12.1383 98.2409 12.3757C98.2457 12.6179 98.2457 12.8601 98.2409 13.1023C98.236 13.3396 98.3087 13.5673 98.2942 13.8095C98.2796 14.0517 98.2893 14.2939 98.2942 14.5361C98.2942 14.5845 98.3281 14.6329 98.3523 14.7008C98.4492 14.4634 98.5364 14.2503 98.6235 14.0371C98.7253 13.7707 98.8173 13.5043 98.9287 13.2427C99.0353 12.986 99.1273 12.7293 99.2872 12.4968C99.384 12.3563 99.4325 12.1868 99.5051 12.0318C99.5972 11.838 99.6989 11.6442 99.7958 11.4505C99.883 11.2761 99.9508 11.0969 100.028 10.9177C100.101 10.7481 100.174 10.5737 100.241 10.3994C100.358 10.0942 100.527 9.8084 100.677 9.51292C101.288 8.30678 101.898 7.0958 102.508 5.88967C102.949 5.01292 103.385 4.14101 103.826 3.26426C104.291 2.34391 104.756 1.41872 105.221 0.498378C105.24 0.464471 105.26 0.430564 105.274 0.4015C106.083 0.4015 106.887 0.4015 107.706 0.4015C107.551 0.726043 107.41 1.0409 107.246 1.34122C106.79 2.19375 106.374 3.06081 105.923 3.91819C105.565 4.60118 105.245 5.30355 104.872 5.97686C104.49 6.67438 104.17 7.40097 103.782 8.09365C103.419 8.74758 103.109 9.43057 102.76 10.0942C102.387 10.8111 102.043 11.5425 101.656 12.2546C101.288 12.9327 100.978 13.6399 100.605 14.3132C100.222 15.0108 99.9023 15.7374 99.5148 16.43C99.2775 16.8563 99.0692 17.2971 98.8512 17.7282C98.8464 17.7427 98.827 17.7524 98.8076 17.7718C97.9841 17.7718 97.1461 17.7718 96.3227 17.7718C96.2306 17.3698 96.2888 16.958 96.2452 16.5608C96.2016 16.1927 96.25 15.8246 96.1967 15.4661C96.1434 15.1319 96.2016 14.7976 96.1483 14.4683C96.0902 14.1001 96.1531 13.732 96.0998 13.3735C96.0466 13.0441 96.1047 12.7196 96.0514 12.3999C95.9933 12.0318 96.0563 11.6636 96.003 11.3052C95.9497 10.9564 96.0078 10.6028 95.9545 10.2589C95.9012 9.91012 95.9594 9.55652 95.9061 9.2126C95.848 8.85899 95.9158 8.51023 95.8577 8.16631C95.8092 7.84661 95.8528 7.53175 95.8092 7.2169C95.7801 7.0183 95.8044 6.8197 95.7608 6.63079C95.7123 6.41765 95.7559 6.19968 95.7123 5.99623C95.6639 5.77341 95.7075 5.55059 95.6639 5.33746C95.6106 5.07589 95.659 4.81431 95.6155 4.55759C95.5767 4.3493 95.5864 4.13616 95.5573 3.92303C95.4992 4.06351 95.4072 4.1846 95.3636 4.33961C95.3248 4.48008 95.2328 4.60603 95.1795 4.7465C95.1068 4.94026 94.9809 5.11464 94.8985 5.30839C94.7387 5.68622 94.5595 6.0592 94.3609 6.41765C94.264 6.59688 94.1623 6.77126 94.0702 6.95048C93.9782 7.12971 93.8959 7.31378 93.7844 7.48816C93.6537 7.68676 93.5858 7.92411 93.4647 8.12756C93.2468 8.48601 93.0918 8.88321 92.8641 9.23682C92.7527 9.40635 92.6994 9.60496 92.5928 9.77934C92.3749 10.1378 92.215 10.5301 91.9922 10.8886C91.8566 11.1017 91.7645 11.3439 91.6483 11.5667C91.5562 11.746 91.4545 11.9252 91.3576 12.0996C91.2656 12.2691 91.1978 12.4532 91.0767 12.613C90.9992 12.7099 90.975 12.8455 90.9168 12.957C90.7134 13.3493 90.5099 13.7417 90.292 14.1243C90.1321 14.4101 90.0013 14.7153 89.8366 15.0011C89.6719 15.282 89.5411 15.5727 89.3813 15.8536C89.2311 16.12 89.0955 16.3961 88.9502 16.6674C88.8097 16.9387 88.6644 17.2099 88.5191 17.4812C88.4949 17.5732 88.4319 17.6604 88.3689 17.767Z" fill="#9CA8B3"/>
<path d="M108.142 18.0092C108.122 17.9947 108.103 17.9656 108.079 17.9608C107.982 17.9559 107.871 17.9898 107.793 17.9511C107.706 17.9123 107.599 17.9511 107.551 17.9026C107.469 17.83 107.352 17.9123 107.294 17.8106C106.994 17.7864 106.727 17.6556 106.461 17.5442C106.224 17.4473 106.006 17.302 105.802 17.1421C105.613 16.992 105.405 16.8612 105.245 16.6771C104.988 16.3913 104.746 16.0959 104.548 15.7568C104.368 15.4516 104.209 15.1368 104.102 14.8025C104.049 14.6378 104 14.4731 103.966 14.2988C103.908 13.9984 103.889 13.6981 103.87 13.3929C103.86 13.2379 103.831 13.0829 103.831 12.9279C103.826 12.5937 103.913 12.2643 103.879 11.9301C103.942 11.8041 103.923 11.6685 103.928 11.5377C103.932 11.4118 103.966 11.2907 103.986 11.1744C104.015 11.0194 104.029 10.8596 104.073 10.7046C104.112 10.5593 104.121 10.4042 104.175 10.2638C104.272 10.007 104.335 9.73579 104.431 9.47421C104.519 9.23686 104.625 9.00435 104.722 8.77185C104.833 8.49574 104.998 8.23901 105.163 7.98713C105.342 7.70618 105.531 7.42039 105.744 7.16366C106.006 6.85365 106.287 6.55333 106.582 6.27723C106.805 6.06894 107.057 5.88487 107.323 5.72986C107.633 5.55064 107.938 5.36172 108.292 5.26C108.428 5.22125 108.558 5.16312 108.689 5.11468C108.854 5.05171 109.023 5.02749 109.188 4.9839C109.401 4.92577 109.629 4.91124 109.847 4.87249C110.094 4.82405 110.336 4.84343 110.578 4.83374C110.821 4.82405 111.068 4.80952 111.305 4.83858C111.615 4.87733 111.925 4.91608 112.225 5.00812C112.375 5.05171 112.535 5.08562 112.681 5.1389C113.058 5.27453 113.407 5.46829 113.732 5.7008C113.984 5.88002 114.231 6.06409 114.424 6.30145C114.763 6.71318 115.069 7.14913 115.282 7.63837C115.398 7.91447 115.485 8.20026 115.563 8.4909C115.616 8.6895 115.64 8.89294 115.694 9.0867C115.742 9.25624 115.742 9.44031 115.747 9.61953C115.757 9.95861 115.737 10.2977 115.752 10.6368C115.766 10.9225 115.708 11.2035 115.689 11.4893C115.674 11.6734 115.66 11.872 115.597 12.056C115.539 12.2352 115.509 12.4242 115.466 12.6034C115.393 12.9037 115.311 13.1992 115.195 13.485C115.04 13.8725 114.87 14.2552 114.671 14.6233C114.579 14.7928 114.487 14.9672 114.376 15.1319C114.265 15.2966 114.153 15.4613 114.032 15.6212C113.78 15.9457 113.494 16.2363 113.189 16.5076C112.744 16.8999 112.235 17.2051 111.688 17.4376C111.319 17.5926 110.951 17.7379 110.564 17.8203C110.409 17.8542 110.254 17.8929 110.094 17.922C109.968 17.9462 109.847 17.9559 109.726 17.9656C109.711 17.9656 109.702 17.9947 109.687 18.014C109.174 18.0092 108.66 18.0092 108.142 18.0092ZM105.962 12.7584C105.928 13.0926 105.986 13.422 106.011 13.7562C106.011 13.7708 106.006 13.7901 106.011 13.8047C106.088 14.042 106.117 14.2891 106.204 14.5216C106.345 14.8946 106.509 15.2482 106.8 15.534C107.028 15.7568 107.289 15.9263 107.575 16.0619C107.749 16.1443 107.929 16.2218 108.113 16.2799C108.311 16.3429 108.515 16.372 108.713 16.4059C109.019 16.4591 109.329 16.3816 109.634 16.3671C109.716 16.2848 109.828 16.3332 109.924 16.3041C110.356 16.1685 110.511 16.0862 110.971 15.7907C111.189 15.6551 111.387 15.4952 111.571 15.3208C111.726 15.1755 111.857 15.006 112.002 14.8461C112.201 14.6378 112.351 14.3956 112.492 14.1534C112.535 14.0808 112.56 14.0033 112.613 13.9355C112.681 13.8531 112.744 13.7659 112.782 13.669C112.874 13.4317 113.005 13.2137 113.102 12.9764C113.247 12.6276 113.32 12.2595 113.465 11.9156C113.441 11.809 113.494 11.7169 113.514 11.6201C113.533 11.528 113.553 11.4408 113.562 11.3488C113.572 11.2471 113.553 11.1454 113.611 11.0533C113.577 10.7675 113.674 10.4866 113.659 10.2008C113.649 9.99736 113.654 9.79391 113.625 9.59047C113.591 9.35312 113.562 9.11576 113.523 8.87841C113.475 8.59262 113.364 8.33105 113.247 8.07432C113.117 7.78853 112.894 7.56571 112.671 7.34289C112.375 7.04257 112.027 6.83428 111.629 6.6938C111.407 6.6163 111.184 6.52911 110.951 6.52911C110.651 6.52911 110.356 6.51458 110.05 6.55817C109.76 6.60177 109.484 6.67443 109.222 6.78584C108.743 6.98444 108.311 7.27992 107.929 7.63352C107.643 7.8951 107.391 8.19057 107.159 8.50059C107.057 8.64106 106.965 8.79122 106.882 8.94138C106.747 9.19327 106.616 9.44515 106.524 9.71157C106.461 9.89563 106.393 10.0749 106.345 10.2686C106.321 10.3752 106.325 10.4866 106.282 10.5786C106.199 10.7579 106.175 10.9565 106.122 11.1405C106.069 11.3294 106.03 11.5329 106.02 11.7266C106.006 12.0173 105.928 12.3079 105.962 12.6034C105.967 12.6567 105.962 12.71 105.962 12.7584Z" fill="#9CA8B3"/>
<path d="M117.975 17.7622C117.287 17.7622 116.623 17.7622 115.931 17.7622C115.965 17.5587 115.994 17.365 116.037 17.1712C116.081 16.9872 116.105 16.7983 116.153 16.6142C116.202 16.4253 116.226 16.2267 116.275 16.0378C116.328 15.8488 116.333 15.6454 116.391 15.4565C116.449 15.2724 116.454 15.0835 116.512 14.9043C116.57 14.7154 116.57 14.5071 116.618 14.3182C116.667 14.1292 116.715 13.9355 116.749 13.7466C116.783 13.5577 116.832 13.3736 116.856 13.1847C116.885 12.9909 116.919 12.7923 116.967 12.5986C117.016 12.4097 117.054 12.2159 117.098 12.0221C117.137 11.8284 117.151 11.6249 117.209 11.4409C117.268 11.2568 117.292 11.0727 117.331 10.8887C117.369 10.6949 117.394 10.4915 117.447 10.3026C117.5 10.1136 117.529 9.91988 117.573 9.72612C117.616 9.54205 117.655 9.35314 117.679 9.16423C117.708 8.97047 117.733 8.76703 117.791 8.57811C117.849 8.3892 117.883 8.19544 117.917 8.00169C117.951 7.81277 117.98 7.62386 118.028 7.43979C118.076 7.25088 118.12 7.05228 118.149 6.86336C118.183 6.66476 118.28 6.4807 118.261 6.27725C118.357 6.10771 118.348 5.90911 118.391 5.72989C118.44 5.54097 118.474 5.34237 118.508 5.13408C119.147 5.13408 119.786 5.13408 120.445 5.13408C120.426 5.24065 120.411 5.34722 120.387 5.44894C120.363 5.55066 120.343 5.65723 120.31 5.75411C120.276 5.85583 120.28 5.9624 120.251 6.06896C120.222 6.16584 120.159 6.27241 120.193 6.38382C120.096 6.46616 120.174 6.59211 120.111 6.68898C120.058 6.77617 120.067 6.89727 120.048 6.999C120.024 7.10072 119.995 7.20244 119.97 7.30416C119.946 7.40588 119.932 7.51245 119.907 7.63355C119.927 7.62386 119.951 7.61902 119.956 7.60933C120.106 7.3962 120.251 7.18306 120.402 6.96993C120.469 6.87305 120.547 6.78586 120.624 6.69867C120.881 6.42257 121.123 6.13678 121.399 5.88489C121.705 5.60395 122.034 5.33753 122.397 5.13893C122.625 5.00814 122.891 4.93064 123.158 4.87251C123.439 4.81439 123.71 4.82407 123.986 4.83861C124.233 4.84829 124.47 4.93548 124.698 5.04689C124.911 5.15346 125.124 5.26972 125.318 5.37144C125.221 5.58457 125.129 5.79286 125.037 5.9963C124.839 6.43226 124.64 6.86337 124.432 7.31869C124.383 7.29932 124.335 7.2751 124.291 7.25572C124.204 7.21697 124.107 7.18791 124.03 7.13462C123.904 7.04259 123.754 7.00384 123.613 6.97478C123.424 6.94087 123.226 6.87305 123.032 6.91665C122.867 6.9554 122.702 6.97962 122.543 7.02321C122.392 7.06197 122.247 7.13462 122.111 7.20728C121.85 7.3526 121.603 7.50761 121.365 7.69652C121.128 7.89028 120.92 8.10825 120.712 8.32623C120.576 8.4667 120.474 8.64593 120.368 8.81062C120.208 9.06251 120.072 9.33377 119.956 9.60987C119.878 9.78909 119.777 9.95863 119.723 10.1427C119.68 10.2783 119.617 10.4043 119.573 10.5399C119.53 10.6707 119.501 10.8015 119.462 10.9274C119.384 11.1938 119.307 11.4602 119.234 11.7315C119.171 11.9543 119.108 12.182 119.055 12.4048C119.011 12.5986 118.997 12.7972 118.939 12.9861C118.881 13.1847 118.852 13.3881 118.813 13.5819C118.769 13.7805 118.716 13.9839 118.701 14.1922C118.687 14.3569 118.595 14.5119 118.609 14.6863C118.503 14.7735 118.59 14.9043 118.522 15.0157C118.464 15.1029 118.483 15.2385 118.464 15.3548C118.435 15.5195 118.43 15.6987 118.357 15.844C118.304 15.9554 118.362 16.0814 118.27 16.1734C118.28 16.3235 118.222 16.4592 118.202 16.6045C118.183 16.7498 118.159 16.8951 118.12 17.0308C118.072 17.2051 118.081 17.3941 117.989 17.5587C117.951 17.6023 117.975 17.6798 117.975 17.7622Z" fill="#9CA8B3"/>
<path d="M128.903 11.3002C128.86 11.3293 128.83 11.3438 128.811 11.3632C128.545 11.5957 128.288 11.8379 128.007 12.0607C127.799 12.2254 127.6 12.4046 127.397 12.579C127.183 12.7631 126.98 12.9617 126.748 13.1216C126.583 13.233 126.481 13.4073 126.297 13.4897C126.19 13.5381 126.195 13.6592 126.166 13.7464C126.137 13.8288 126.123 13.9305 126.118 14.0128C126.113 14.1097 126.06 14.1872 126.06 14.2841C126.06 14.3761 126.031 14.4682 126.006 14.5505C125.934 14.8024 125.914 15.0688 125.832 15.3255C125.779 15.4951 125.759 15.684 125.725 15.8632C125.677 16.1248 125.629 16.3912 125.566 16.6479C125.503 16.9047 125.483 17.1711 125.382 17.4181C125.415 17.5392 125.333 17.6409 125.319 17.762C124.621 17.762 123.919 17.762 123.211 17.762C123.25 17.5876 123.284 17.4133 123.323 17.2389C123.347 17.1372 123.386 17.0354 123.395 16.9289C123.405 16.7836 123.458 16.6431 123.478 16.5026C123.497 16.3573 123.517 16.2071 123.555 16.0715C123.628 15.8148 123.623 15.5435 123.739 15.3013C123.73 15.0882 123.817 14.8944 123.846 14.691C123.865 14.5505 123.894 14.41 123.933 14.2696C123.972 14.1388 123.986 14.0031 124.02 13.8724C124.045 13.7706 124.069 13.6641 124.078 13.5575C124.093 13.3637 124.171 13.1894 124.19 12.9956C124.204 12.8551 124.234 12.7098 124.277 12.5742C124.34 12.3804 124.364 12.1721 124.403 11.9784C124.447 11.7798 124.5 11.5763 124.514 11.3681C124.529 11.2034 124.621 11.0484 124.606 10.874C124.713 10.7868 124.626 10.656 124.694 10.5446C124.752 10.4574 124.718 10.3169 124.752 10.2055C124.815 10.0118 124.82 9.80346 124.883 9.60971C124.912 9.51283 124.931 9.40142 124.941 9.29485C124.955 9.1011 125.038 8.92671 125.057 8.73296C125.072 8.60217 125.115 8.46654 125.139 8.33576C125.159 8.22919 125.207 8.12747 125.188 8.01606C125.294 7.9434 125.178 7.79324 125.285 7.71573C125.27 7.5026 125.362 7.30884 125.386 7.10055C125.406 6.92133 125.464 6.74695 125.512 6.57257C125.541 6.47569 125.488 6.36428 125.575 6.28193C125.59 5.9913 125.677 5.71035 125.73 5.42456C125.779 5.16783 125.851 4.9111 125.905 4.65437C125.948 4.45577 125.972 4.24264 126.021 4.04404C126.084 3.76309 126.118 3.4773 126.2 3.2012C126.239 3.06557 126.249 2.92025 126.297 2.77978C126.341 2.64899 126.302 2.48914 126.365 2.37289C126.418 2.26632 126.379 2.1646 126.433 2.06287C126.486 1.966 126.481 1.84005 126.5 1.72864C126.52 1.62208 126.515 1.51067 126.554 1.40894C126.641 1.15706 126.631 0.885801 126.743 0.638761C126.772 0.570946 126.709 0.478912 126.786 0.415941C126.869 0.348126 126.97 0.386877 127.062 0.386877C127.634 0.382033 128.21 0.386877 128.782 0.386877C128.845 0.386877 128.908 0.386877 128.971 0.386877C128.922 0.629073 128.874 0.84705 128.826 1.06987C128.767 1.3266 128.743 1.59301 128.651 1.8449C128.617 1.93693 128.627 2.03866 128.598 2.13553C128.554 2.2857 128.535 2.44554 128.496 2.60055C128.457 2.74587 128.443 2.89603 128.399 3.04619C128.375 3.13338 128.365 3.23026 128.356 3.31745C128.346 3.41433 128.293 3.49183 128.298 3.58871C128.302 3.68075 128.264 3.77278 128.239 3.85513C128.167 4.11185 128.162 4.37827 128.06 4.63015C128.026 4.71734 128.026 4.82391 128.012 4.92079C127.978 5.12908 127.939 5.33737 127.871 5.54081C127.842 5.63285 127.847 5.73457 127.823 5.83629C127.765 6.04942 127.726 6.26256 127.682 6.48053C127.644 6.67913 127.6 6.88742 127.566 7.09087C127.537 7.26525 127.494 7.44447 127.445 7.61885C127.416 7.72058 127.416 7.82714 127.382 7.93371C127.353 8.03543 127.377 8.17106 127.324 8.24372C127.251 8.34544 127.343 8.47139 127.237 8.54889C127.251 8.6603 127.198 8.76202 127.188 8.86859C127.174 9.06234 127.096 9.23672 127.077 9.43048C127.062 9.56127 127.019 9.6969 126.995 9.82768C126.98 9.91972 126.985 10.0214 126.941 10.0941C126.898 10.1668 126.907 10.2297 126.898 10.2975C126.888 10.3654 126.864 10.4283 126.849 10.4961C126.806 10.6947 126.767 10.8885 126.718 11.1065C126.752 11.0871 126.791 11.0823 126.815 11.058C127.353 10.5397 127.876 10.0069 128.428 9.50314C128.772 9.18828 129.082 8.84437 129.436 8.54404C129.741 8.28247 129.998 7.9773 130.303 7.72058C130.661 7.41541 130.971 7.05212 131.33 6.74695C131.587 6.52897 131.814 6.28193 132.057 6.05427C132.381 5.75394 132.701 5.45362 133.035 5.14361C133.955 5.14361 134.895 5.14361 135.845 5.14361C135.859 5.19205 135.811 5.20174 135.786 5.2308C135.757 5.26955 135.723 5.30346 135.685 5.33252C135.656 5.35674 135.617 5.36643 135.588 5.38581C135.568 5.40034 135.554 5.41971 135.534 5.43424C135.317 5.63285 135.108 5.84113 134.885 6.03005C134.614 6.26256 134.348 6.49506 134.086 6.73242C133.815 6.97461 133.539 7.20712 133.272 7.44932C133.016 7.68183 132.749 7.90465 132.492 8.13231C132.221 8.37451 131.945 8.60701 131.679 8.84921C131.422 9.08172 131.146 9.29485 130.899 9.53705C130.787 9.64361 130.657 9.73565 130.521 9.84706C130.603 10.0457 130.695 10.2346 130.768 10.4283C130.884 10.7383 131.001 11.0435 131.126 11.3438C131.214 11.557 131.315 11.7653 131.398 11.9832C131.558 12.3998 131.747 12.8067 131.902 13.2281C131.984 13.4509 132.076 13.6689 132.178 13.8869C132.308 14.1678 132.405 14.4682 132.522 14.7588C132.575 14.8993 132.647 15.0301 132.701 15.1705C132.812 15.4805 132.938 15.7809 133.064 16.086C133.151 16.2992 133.248 16.5123 133.335 16.7254C133.466 17.0403 133.587 17.3648 133.733 17.6748C133.742 17.6942 133.733 17.7233 133.733 17.7669C133.679 17.7717 133.631 17.7766 133.578 17.7766C132.924 17.7766 132.27 17.7766 131.616 17.7766C131.422 17.7766 131.427 17.7717 131.34 17.5876C131.146 17.1856 131.025 16.7496 130.836 16.3428C130.763 16.1829 130.71 16.0085 130.657 15.839C130.598 15.6695 130.516 15.5096 130.458 15.3401C130.395 15.1705 130.327 15.0058 130.259 14.8411C130.192 14.6765 130.133 14.5069 130.075 14.3374C130.017 14.1678 129.935 14.008 129.872 13.8385C129.809 13.6689 129.736 13.5042 129.678 13.3395C129.63 13.1991 129.557 13.0683 129.518 12.9181C129.484 12.7728 129.417 12.6372 129.358 12.5015C129.3 12.3659 129.242 12.2206 129.199 12.085C129.092 11.8185 128.947 11.5909 128.903 11.3002Z" fill="#9CA8B3"/>
<path d="M138.223 18.0092C138.213 17.9269 138.15 17.9608 138.111 17.9608C137.777 17.956 137.467 17.8542 137.142 17.7816C136.861 17.7186 136.6 17.612 136.329 17.5152C136.145 17.4522 135.975 17.3553 135.805 17.2584C135.636 17.1616 135.471 17.0453 135.307 16.9387C135.282 16.9242 135.253 16.9048 135.234 16.8854C134.982 16.6384 134.716 16.3962 134.536 16.0862C134.43 15.8973 134.343 15.6987 134.246 15.5049C134.134 15.2821 134.1 15.0351 134.018 14.8026C133.979 14.6912 134.042 14.5652 133.955 14.4635C133.936 14.1486 133.911 13.8338 133.892 13.5335C133.999 13.4511 134.1 13.456 134.202 13.4511C134.541 13.4414 134.885 13.4463 135.224 13.393C135.447 13.3591 135.665 13.3688 135.883 13.3542C135.941 13.3494 135.999 13.3252 136.077 13.3058C136.082 13.3397 136.086 13.3736 136.091 13.4124C136.106 13.6546 136.101 13.9016 136.145 14.1438C136.198 14.415 136.237 14.696 136.348 14.9527C136.488 15.2676 136.721 15.4952 136.992 15.7035C137.152 15.8246 137.297 15.9603 137.486 16.0378C137.651 16.1056 137.821 16.1685 137.995 16.217C138.237 16.2848 138.484 16.3332 138.731 16.3768C139.002 16.4204 139.269 16.4011 139.535 16.4107C139.681 16.4156 139.821 16.3575 139.976 16.3575C140.107 16.3575 140.242 16.2993 140.373 16.28C140.519 16.2557 140.659 16.217 140.785 16.1637C140.979 16.0862 141.182 16.0087 141.332 15.8488C141.41 15.7617 141.521 15.7084 141.599 15.6212C141.822 15.3741 141.972 15.098 142.054 14.7687C142.127 14.4586 142.064 14.1971 141.952 13.9258C141.899 13.7999 141.836 13.6836 141.783 13.5625C141.73 13.4414 141.638 13.3494 141.541 13.2767C141.168 13.0055 140.766 12.7875 140.349 12.5889C139.976 12.4145 139.608 12.2353 139.23 12.0754C138.857 11.9204 138.484 11.7654 138.121 11.5959C137.898 11.4893 137.67 11.4021 137.443 11.3053C137.259 11.2277 137.104 11.1067 136.944 10.9952C136.828 10.9177 136.726 10.816 136.619 10.724C136.343 10.4721 136.159 10.1524 135.99 9.82301C135.868 9.58566 135.801 9.33862 135.742 9.07705C135.675 8.75735 135.689 8.43765 135.713 8.12764C135.738 7.84669 135.801 7.56574 135.922 7.29933C136.062 6.98932 136.237 6.71322 136.44 6.4468C136.595 6.23851 136.779 6.06413 136.963 5.89459C137.138 5.73474 137.326 5.59427 137.535 5.46833C137.825 5.29395 138.135 5.16316 138.46 5.06628C138.634 5.01784 138.814 4.98878 138.988 4.9355C139.143 4.88706 139.312 4.93065 139.448 4.88221C139.608 4.82409 139.763 4.85799 139.918 4.84831C140.068 4.83862 140.223 4.84346 140.378 4.84346C140.538 4.84346 140.703 4.83862 140.862 4.84346C140.959 4.84831 141.061 4.87252 141.158 4.8919C141.255 4.90643 141.366 4.84831 141.453 4.94034C141.705 4.92581 141.928 5.04206 142.17 5.08081C142.354 5.10988 142.514 5.19707 142.679 5.25519C143.033 5.38598 143.362 5.56521 143.667 5.79771C143.866 5.94788 144.171 6.26757 144.336 6.46133C144.51 6.65993 144.626 6.8876 144.738 7.1201C144.839 7.32839 144.907 7.55121 144.96 7.77888C145.014 7.99685 145.072 8.21483 145.057 8.44249C145.057 8.45218 145.086 8.46671 145.106 8.48125C145.106 8.61203 145.106 8.73797 145.106 8.86876C145.033 8.88329 144.96 8.90751 144.883 8.9172C144.689 8.93173 144.486 8.88813 144.297 8.96564C144.001 8.92689 143.716 9.02861 143.42 9.01892C143.309 9.01408 143.192 9.0383 143.086 9.04798C143.066 8.89298 143.052 8.72829 143.018 8.56844C142.989 8.42312 142.945 8.2778 142.892 8.13733C142.723 7.72075 142.461 7.37199 142.122 7.07651C142.098 7.05713 142.073 7.0426 142.044 7.02807C141.763 6.90213 141.507 6.74228 141.197 6.66962C140.964 6.61634 140.732 6.56305 140.499 6.55337C140.146 6.53883 139.787 6.50493 139.429 6.58727C139.206 6.63571 138.993 6.69868 138.78 6.78103C138.494 6.89244 138.281 7.0862 138.072 7.29449C137.956 7.41558 137.777 7.67716 137.753 7.86122C137.724 8.07436 137.738 8.29233 137.733 8.50547C137.854 8.73797 137.922 8.99955 138.126 9.1933C138.281 9.33862 138.46 9.4355 138.639 9.54206C138.814 9.64379 139.007 9.70676 139.191 9.7891C139.279 9.82786 139.356 9.89567 139.448 9.92473C139.734 10.0119 139.995 10.1572 140.276 10.2687C140.596 10.3946 140.906 10.5399 141.216 10.6852C141.7 10.908 142.18 11.1406 142.626 11.436C142.863 11.591 143.11 11.7412 143.309 11.9495C143.372 12.0173 143.42 12.0997 143.483 12.1675C143.662 12.3709 143.817 12.584 143.938 12.8262C144.156 13.267 144.297 13.7321 144.277 14.2358C144.273 14.3908 144.268 14.5458 144.239 14.7008C144.2 14.9188 144.152 15.1416 144.069 15.3354C143.89 15.7617 143.638 16.154 143.338 16.5076C143.134 16.7498 142.882 16.9436 142.626 17.1228C142.442 17.2536 142.248 17.3795 142.049 17.4861C141.783 17.6266 141.507 17.7428 141.202 17.7816C141.047 17.8881 140.853 17.8833 140.678 17.9172C140.49 17.956 140.296 18.0092 140.097 17.9802C140.063 17.9753 140.01 17.9608 140.01 18.0286C139.419 18.0092 138.818 18.0092 138.223 18.0092Z" fill="#9CA8B3"/>
</svg>
