<svg width="45" height="38" viewBox="0 0 45 38" fill="none" xmlns="http://www.w3.org/2000/svg">
<g clip-path="url(#clip0)">
<g clip-path="url(#clip1)">
<path d="M28.1874 0.118286C19.5376 0.118286 0.907227 1.95175 0.907227 15.9689C0.907227 25.491 10.3555 37.9113 20.8092 37.9113C24.1952 37.9113 27.0932 36.6988 29.7991 34.6879C36.2605 29.8381 44.452 18.9704 44.452 10.5276C44.4668 4.19922 40.0457 0.118286 28.1874 0.118286Z" fill="#9CA8B3"/>
<path d="M12.4105 27.428C8.87668 27.8125 6.1117 25.4467 9.3794 23.628C10.1335 23.6872 10.7101 23.7611 11.9226 23.8202C14.2883 23.909 15.0424 24.456 15.2347 25.1214C15.5304 26.1121 14.6876 27.1914 12.4105 27.428ZM7.85645 15.1409C7.85645 13.544 8.83232 12.4646 10.444 12.4646C12.2922 12.4646 13.2829 13.8545 13.2829 15.5992C13.2829 17.1961 12.4253 18.3198 10.7693 18.3198C8.89146 18.3198 7.85645 16.93 7.85645 15.1409ZM15.486 22.5339C14.3771 22.0163 12.7358 21.9868 10.0448 21.765C8.78796 21.6615 8.55139 21.2918 8.55139 20.7891C8.55139 20.4786 8.69925 20.1385 9.02454 19.8724C9.24633 19.6949 9.52726 19.5471 9.83777 19.4879C10.1631 19.5323 10.444 19.5323 10.6954 19.5323C13.6969 19.5323 15.3973 17.7136 15.3973 15.5401C15.3973 14.6086 15.0424 13.6327 14.4362 12.9377C15.0868 12.9377 16.314 13.0117 16.6985 13.1004V11.5626C16.0035 11.7549 15.1607 11.7992 14.4362 11.7992C13.8152 11.7992 13.2385 11.6809 12.7062 11.5331C12.0557 11.3409 11.2868 11.1782 10.6362 11.1782C7.61987 11.1782 5.75684 13.0412 5.75684 15.4514C5.75684 17.1074 6.82143 18.586 8.35917 19.1626C7.20586 19.7097 6.58485 20.4786 6.58485 21.3805C6.58485 22.2529 7.19108 23.1549 8.38874 23.4802C6.65878 24.249 5.03232 25.6241 6.24477 27.221C8.01909 29.572 14.2588 29.3206 16.2105 26.8809C17.7335 24.9735 16.6985 23.0957 15.486 22.5339ZM22.7311 16.8117C21.1934 16.028 19.7296 15.3331 19.7296 14.0911C19.7296 13.0412 20.8385 12.5829 22.0066 12.5829C23.2043 12.5829 24.3132 13.0117 25.2448 13.751V11.9914C24.2837 11.4444 23.1599 11.1782 22.051 11.1782C19.9662 11.1782 17.6596 12.228 17.6596 14.6381C17.6596 16.6195 19.3895 17.477 21.0012 18.2459C22.465 18.9409 23.8105 19.5619 23.8105 20.8482C23.8105 22.1198 22.465 22.4008 21.3856 22.4008C20.3802 22.4008 18.8129 21.972 17.5413 21.277V23.0661C18.7685 23.5689 19.9662 23.8498 21.3117 23.8498C23.4704 23.8498 26.0432 22.9479 26.0432 20.3455C26.0432 18.5564 24.3576 17.6249 22.7311 16.8117ZM38.4782 23.0957C37.8276 23.0957 36.9257 22.9183 35.5062 21.3658C33.658 19.3105 31.514 16.6786 31.514 16.6786L34.7817 13.5735C36.7039 11.7549 37.2362 11.6366 37.3988 11.5922H34.3529C33.7319 12.4054 33.037 13.0265 33.037 13.0265L29.5327 16.3237V5.94397L26.8712 6.63891C27.2261 7.11206 27.3296 7.88093 27.3296 9.62568V20.3751C27.3296 22.5486 27.2113 22.7852 26.9895 23.4062H29.8432C29.651 22.9035 29.5327 22.5486 29.5327 20.3751V17.27C29.5327 17.27 31.1148 19.1774 33.0665 21.5432C34.2938 23.007 35.2992 23.6724 36.4969 23.6724C37.4136 23.6724 38.2712 23.4358 38.8479 23.007C38.7592 23.0514 38.5965 23.0957 38.4782 23.0957Z" fill="white"/>
</g>
</g>
<defs>
<clipPath id="clip0">
<rect width="44" height="38" fill="white" transform="translate(0.907227)"/>
</clipPath>
<clipPath id="clip1">
<rect width="43.6187" height="38" fill="white" transform="translate(0.907227)"/>
</clipPath>
</defs>
</svg>
