<svg width="16" height="16" viewBox="0 0 16 16" fill="none" xmlns="http://www.w3.org/2000/svg">
<path d="M8 1.21875C4.25508 1.21875 1.21875 4.25618 1.21875 8C1.21875 11.746 4.25508 14.7812 8 14.7812C11.7449 14.7812 14.7812 11.746 14.7812 8C14.7812 4.25618 11.7449 1.21875 8 1.21875ZM8 4.22656C8.63427 4.22656 9.14844 4.74073 9.14844 5.375C9.14844 6.00927 8.63427 6.52344 8 6.52344C7.36573 6.52344 6.85156 6.00927 6.85156 5.375C6.85156 4.74073 7.36573 4.22656 8 4.22656ZM9.53125 11.1719C9.53125 11.3531 9.38433 11.5 9.20312 11.5H6.79688C6.61567 11.5 6.46875 11.3531 6.46875 11.1719V10.5156C6.46875 10.3344 6.61567 10.1875 6.79688 10.1875H7.125V8.4375H6.79688C6.61567 8.4375 6.46875 8.29058 6.46875 8.10938V7.45312C6.46875 7.27192 6.61567 7.125 6.79688 7.125H8.54688C8.72808 7.125 8.875 7.27192 8.875 7.45312V10.1875H9.20312C9.38433 10.1875 9.53125 10.3344 9.53125 10.5156V11.1719Z" fill="#374A68"/>
</svg>
