<svg width="48" height="48" viewBox="0 0 48 48" fill="none" xmlns="http://www.w3.org/2000/svg">
<path d="M23.9965 8C18.3859 8 13.8932 10.5553 10.6227 13.5967C7.37297 16.6104 5.19955 20.2212 4.17186 22.7001C3.94271 23.2487 3.94271 23.8597 4.17186 24.4083C5.19955 26.8872 7.37297 30.498 10.6227 33.5117C13.8932 36.5531 18.3859 39.1084 23.9965 39.1084C29.6072 39.1084 34.0998 36.5531 37.3704 33.5117C40.6201 30.4911 42.7935 26.8872 43.8281 24.4083C44.0573 23.8597 44.0573 23.2487 43.8281 22.7001C42.7935 20.2212 40.6201 16.6104 37.3704 13.5967C34.0998 10.5553 29.6072 8 23.9965 8ZM33.9957 23.5542C33.9957 29.0746 29.5169 33.5533 23.9965 33.5533C18.4762 33.5533 13.9974 29.0746 13.9974 23.5542C13.9974 18.0339 18.4762 13.5551 23.9965 13.5551C29.5169 13.5551 33.9957 18.0339 33.9957 23.5542ZM23.9965 19.1101C23.9965 21.5613 22.0036 23.5542 19.5525 23.5542C18.7539 23.5542 18.004 23.3459 17.3582 22.9709C17.3443 23.1653 17.3304 23.3528 17.3304 23.5542C17.3304 27.2344 20.3163 30.2203 23.9965 30.2203C27.6768 30.2203 30.6626 27.2344 30.6626 23.5542C30.6626 19.874 27.6768 16.8881 23.9965 16.8881C23.8021 16.8881 23.6077 16.8951 23.4132 16.9159C23.7813 17.5617 23.9965 18.3116 23.9965 19.1101Z" fill="#374A68"/>
</svg>
