<svg width="48" height="48" viewBox="0 0 48 48" fill="none" xmlns="http://www.w3.org/2000/svg">
<g clip-path="url(#clip0_383_297)">
<path d="M27.7499 44.9999C24.7673 44.9966 21.9077 43.8103 19.7986 41.7012C17.6896 39.5921 16.5033 36.7326 16.5 33.7499V25.4999C16.5 25.1021 16.658 24.7206 16.9393 24.4393C17.2206 24.158 17.6021 23.9999 18 23.9999C18.3978 23.9999 18.7793 24.158 19.0606 24.4393C19.3419 24.7206 19.5 25.1021 19.5 25.4999V33.7499C19.5 35.9379 20.3692 38.0364 21.9163 39.5835C23.4635 41.1307 25.5619 41.9999 27.7499 41.9999C29.938 41.9999 32.0364 41.1307 33.5836 39.5835C35.1307 38.0364 35.9999 35.9379 35.9999 33.7499V31.4999C35.9999 31.1021 36.158 30.7206 36.4393 30.4393C36.7206 30.158 37.1021 29.9999 37.4999 29.9999C37.8977 29.9999 38.2793 30.158 38.5606 30.4393C38.8419 30.7206 38.9999 31.1021 38.9999 31.4999V33.7499C38.9967 36.7326 37.8104 39.5922 35.7013 41.7013C33.5922 43.8103 30.7326 44.9966 27.7499 44.9999Z" fill="#374A68"/>
<path d="M37.4999 32.9999C39.9852 32.9999 41.9999 30.9852 41.9999 28.4999C41.9999 26.0147 39.9852 23.9999 37.4999 23.9999C35.0146 23.9999 32.9999 26.0147 32.9999 28.4999C32.9999 30.9852 35.0146 32.9999 37.4999 32.9999Z" fill="#374A68"/>
<path d="M18 26.9999C15.1791 26.9907 12.4654 25.9178 10.4009 23.9954C8.33639 22.073 7.07294 19.4427 6.86284 16.6296L6.00379 4.60695C5.9891 4.40147 6.01689 4.19517 6.08543 4.00091C6.15397 3.80665 6.26179 3.62859 6.40217 3.47783C6.54255 3.32706 6.71247 3.20683 6.90136 3.12462C7.09024 3.04241 7.29403 2.99999 7.50003 3H12C12.3978 3 12.7794 3.15803 13.0607 3.43934C13.342 3.72064 13.5 4.10217 13.5 4.5C13.5 4.89782 13.342 5.27935 13.0607 5.56065C12.7794 5.84196 12.3978 5.99999 12 5.99999H9.11133L9.85503 16.4157C10.002 18.4754 10.9239 20.403 12.4351 21.8102C13.9463 23.2175 15.9346 23.9999 17.9996 23.9999C20.0645 23.9999 22.0528 23.2175 23.564 21.8102C25.0752 20.403 25.9971 18.4754 26.1441 16.4157L26.8887 5.99999H24C23.6022 5.99999 23.2206 5.84196 22.9393 5.56065C22.658 5.27935 22.5 4.89782 22.5 4.5C22.5 4.10217 22.658 3.72064 22.9393 3.43934C23.2206 3.15803 23.6022 3 24 3H28.5C28.706 2.99997 28.9098 3.04238 29.0987 3.12458C29.2876 3.20678 29.4576 3.32701 29.5979 3.47777C29.7383 3.62854 29.8462 3.80661 29.9147 4.00088C29.9833 4.19515 30.0111 4.40146 29.9964 4.60695L29.1372 16.6296C28.9271 19.4427 27.6636 22.073 25.5991 23.9954C23.5346 25.9178 20.8209 26.9907 18 26.9999Z" fill="#374A68"/>
</g>
<defs>
<clipPath id="clip0_383_297">
<rect width="47.9999" height="48" fill="white"/>
</clipPath>
</defs>
</svg>
