<svg width="80" height="80" viewBox="0 0 80 80" fill="none" xmlns="http://www.w3.org/2000/svg">
<path d="M48.9088 36.8109C48.3398 36.8109 47.7941 36.5943 47.3918 36.2087C46.9895 35.8231 46.7634 35.3001 46.7634 34.7548C46.7634 34.2095 46.9895 33.6865 47.3918 33.3009C47.7941 32.9153 48.3398 32.6987 48.9088 32.6987C56.1387 32.5342 66.0719 27.394 66.222 27.3528C66.7227 27.0802 67.316 27.0093 67.8712 27.1559C68.4264 27.3024 68.8982 27.6543 69.1827 28.1342C69.4672 28.614 69.5411 29.1826 69.3882 29.7147C69.2353 30.2468 68.8681 30.6989 68.3674 30.9716C67.9169 31.1978 57.3831 36.6259 49.059 36.8109H48.9088Z" fill="#374A68"/>
<path d="M67.3342 42.2163H56.4625C55.8972 42.2163 55.355 41.9885 54.9552 41.583C54.5554 41.1775 54.3308 40.6276 54.3308 40.0541C54.3308 39.4807 54.5554 38.9307 54.9552 38.5252C55.355 38.1198 55.8972 37.892 56.4625 37.892H67.3342C67.8996 37.892 68.4418 38.1198 68.8416 38.5252C69.2414 38.9307 69.4659 39.4807 69.4659 40.0541C69.4659 40.6276 69.2414 41.1775 68.8416 41.583C68.4418 41.9885 67.8996 42.2163 67.3342 42.2163Z" fill="#374A68"/>
<path d="M57.8331 9.87922C56.1004 6.90391 53.6231 4.4308 50.6449 2.70308C47.6667 0.975358 44.2901 0.0525131 40.8472 0.0252939C25.7694 -0.687746 16.0201 13.8003 11.9179 27.5949C7.57117 42.2708 10.3928 61.5608 22.6444 68.5392C29.7464 72.5549 39.9513 73.0375 46.3521 67.5634C49.3276 65.0366 52.6742 60.194 52.8544 54.9464C52.8511 54.8922 52.8477 54.8383 52.8441 54.7846C52.7796 53.8219 52.676 53.0377 52.5551 52.4137C52.1567 51.2526 51.7318 50.4543 51.3217 50.0073C50.5436 49.1594 49.6048 48.627 48.2808 48.3889C45.7352 47.9312 43.587 50.2429 42.3278 51.5979C42.2227 51.7109 42.1239 51.8173 42.0315 51.9148C41.4162 52.5646 41.0195 53.2787 40.6025 54.0294L40.6025 54.0295C40.2063 54.7426 39.7918 55.4888 39.1539 56.2447C37.8861 57.747 36.3035 59.4221 35.5022 59.7094C34.701 59.9968 33.8487 60.1162 32.9982 60.0592C31.2385 60.0592 29.3487 58.5846 28.6239 57.8473C27.899 57.11 27.1677 54.7071 27.1316 54.3319C27.0954 53.9567 27.0928 53.579 27.1236 53.2032C27.1402 52.7256 27.5936 51.3369 28.1291 50.2374C29.2929 47.848 31.0483 46.6108 32.8749 45.3234L32.875 45.3233L32.875 45.3233C33.3366 44.998 33.8027 44.6695 34.2649 44.3184L34.7289 43.9656L34.9243 43.8167C34.6263 43.8318 34.3346 43.8572 34.05 43.8935C31.5885 44.2073 29.9009 44.7187 27.8586 45.4937C26.865 45.8852 25.7756 45.9641 24.7357 45.7195C23.6899 45.4735 22.8757 45.0044 22.0299 44.1129C20.8076 42.8245 20.6479 41.6132 20.4513 39.8482C20.2817 38.3243 20.7098 36.2547 20.8391 35.9412C20.9683 35.6278 22.073 33.9024 23.2335 33.162C24.3941 32.4215 25.2387 32.4581 26.7144 32.33C28.19 32.2019 30.5 32.8 30.5 32.8C30.5 32.8 29.9595 32.3064 29.5 32C28 31 25.918 30.7 25 30C23.8023 29.0867 23.3419 28.2579 22.9046 26.8166C21.9775 23.7612 24.8165 19.985 26.0599 19.2741L26.0714 19.2657C27.0825 18.5362 28.2912 18.1308 29.5372 18.1026C30.7832 18.0744 33.2054 19.1789 33.7038 19.4499C34.2022 19.7209 34.9554 20.0437 35.6803 20.5479C36.8145 21.3369 38.2306 23 38.2306 23C38.2306 23 38.2108 21.4981 38.2306 21.2357C38.3494 19.6549 38.4823 17.8889 39.4495 16.1169C40.0354 15.0436 40.6843 14.1437 41.3357 13.6176C41.987 13.0916 42.7361 12.6993 43.5397 12.4638C44.3436 12.2282 45.0525 12.1394 46.0185 12.2454C46.9813 12.351 48.8534 12.5904 49.9784 13.6176C51.1034 14.6449 51.4741 15.0966 51.8027 16.1169C52.1983 17.345 51.5476 19.4109 51.5476 19.4109L50.6716 21.7452C50.3204 22.4212 49.0399 24.9125 48.6559 26.6684C48.4234 27.7329 48.4171 29.1203 48.5463 30.5738L48.6693 30.6995C50.1357 29.7746 51.7258 29.2727 52.8937 28.904C53.2278 28.7986 53.5273 28.704 53.7795 28.6136C56.1106 27.7779 58.0758 26.4538 59.1349 24.4029C61.1693 20.5758 60.6204 14.7325 57.8331 9.87922Z" fill="#374A68"/>
<path d="M48.9324 21.0175C48.959 20.9662 48.976 20.9334 48.9816 20.921C49.2968 20.4293 49.5071 19.8779 49.5992 19.3012C49.6913 18.7245 49.6636 18.1352 49.5174 17.5698C49.3712 17.0042 49.1102 16.4753 48.7499 16.0155C48.3899 15.5555 47.9388 15.1751 47.4252 14.8977C46.9163 14.6174 46.357 14.4403 45.7796 14.377C45.2021 14.3136 44.6177 14.3651 44.0603 14.5285C43.5028 14.6919 42.9832 14.964 42.5313 15.329C42.0792 15.694 41.7041 16.1448 41.427 16.6553C41.3623 16.7424 41.3082 16.8371 41.2662 16.9372C40.1652 20.1953 40.0709 21.998 39.9231 24.8217L39.9231 24.8228C39.9091 25.093 39.8943 25.3725 39.8782 25.6639C39.765 25.5821 39.6523 25.5019 39.5401 25.4232C36.7221 23.4485 31.9593 20.9329 31.9593 20.9329C31.2457 20.4657 30.4071 20.2261 29.5544 20.2453C28.7018 20.2646 27.8749 20.542 27.1832 21.0411C26.3066 21.6833 25.6215 22.5521 25.2021 23.5548C24.7827 24.5572 24.6446 25.6552 24.803 26.7302C24.8539 26.9878 24.935 27.2367 25.0437 27.4724C25.215 27.8432 25.4546 28.1811 25.7521 28.4672C26.2388 28.9354 26.8575 29.2426 27.5247 29.3477C29.7866 29.7402 30.8551 30.6673 32.5 31.9999C33.685 32.9598 34.5 34.4999 34.5 34.4999C34.5 34.4999 30.9701 33.9257 29 33.9999C27.0299 34.074 24.9598 34.5596 24.2361 35.0107C23.5123 35.4618 22.9422 36.1219 22.6015 36.9036C22.1742 37.9029 22.0277 38.9998 22.1779 40.0761C22.3278 41.1525 22.7686 42.1673 23.4527 43.0119C23.9032 43.515 24.4971 43.8678 25.1546 44.0225C25.812 44.1772 26.5009 44.1262 27.1285 43.8766C29.2746 43.0615 31.1171 42.4996 33.7771 42.1604C35.9176 41.8875 38.2843 42.148 40.6539 42.7071C38.984 43.611 37.4091 44.5382 36.4275 45.2931C36.2396 45.4377 36.0572 45.5771 35.8798 45.712L35.4195 46.0619C33.1669 47.773 31.7295 48.8649 29.6544 51.6086C29.5953 51.6996 29.5475 51.7975 29.5119 51.8999C29.4652 51.9905 29.4216 52.0823 29.3815 52.1755C29.1925 52.6142 29.0753 53.0816 29.0363 53.559C29.0149 53.8206 29.0167 54.083 29.0418 54.3429C29.0722 54.6586 29.1366 54.9706 29.2345 55.2736C29.2701 55.3834 29.3097 55.4918 29.3535 55.5982C29.5303 56.0274 29.774 56.4264 30.0764 56.7804C30.4536 57.2222 30.9144 57.5851 31.4323 57.848C31.9506 58.117 32.5192 58.2758 33.1017 58.3149C33.6844 58.354 34.2688 58.2721 34.8186 58.075C35.3681 57.8778 35.8711 57.5693 36.2961 57.1686C36.721 56.7682 37.0588 56.2842 37.2879 55.7471C37.3713 55.6074 38.9887 52.4669 40.5919 50.774C42.0325 49.2529 44.7148 46.1109 48.0597 46.4763C50.1 46.6992 51.4626 47.5091 52.7287 48.889C56.6928 53.2085 56.745 71.2119 56.4254 77.791C56.4162 77.9881 56.4502 78.1848 56.5252 78.3672C56.6001 78.5498 56.7139 78.7134 56.859 78.8473C56.9263 78.9093 56.9995 78.9642 57.0771 79.0112C57.1027 79.0265 57.1288 79.041 57.1554 79.0547C57.1816 79.0682 57.208 79.0808 57.2346 79.0925C57.2769 79.1109 57.3201 79.1273 57.3642 79.1413C57.4495 79.1685 57.5368 79.1869 57.6253 79.197C57.7316 79.2089 57.8396 79.2081 57.9465 79.1943L63.0214 78.6124C63.3495 78.5775 63.6535 78.4236 63.876 78.1803C64.0988 77.9367 64.2247 77.6202 64.23 77.2903C64.2316 77.1087 64.2469 76.8596 64.2725 76.5494C64.3097 76.1015 64.3682 75.5259 64.4379 74.8414L64.438 74.8405L64.438 74.8403C65.195 67.3956 67.2609 47.0772 57.2996 37.986C54.6391 35.5581 50.8709 33.8657 47.5994 32.6149C47.2916 32.2972 46.9757 31.9752 46.6532 31.6508C46.4526 29.8959 46.3916 27.99 46.7281 26.4499C47.1774 24.3957 48.5935 21.67 48.9175 21.0463L48.918 21.0453L48.9324 21.0175Z" fill="#374A68"/>
</svg>
