<svg width="80" height="80" viewBox="0 0 80 80" fill="none" xmlns="http://www.w3.org/2000/svg">
<g clip-path="url(#clip0)">
<path d="M43.6413 40.6203C43.6413 40.6203 43.6413 69.0369 43.6413 69.5567C43.6413 70.0764 44.4295 71.5316 46.3732 71.5316C48.3066 71.5316 49.1121 70.0764 49.1121 69.5567C49.1121 69.0369 49.1121 40.6203 49.1121 40.6203C49.1121 37.7445 49.1121 36.1033 50.2062 34.4621C51.3003 32.8209 52.9416 31.7267 55.1298 31.7267H57.3181L57.318 26.2694C53.7395 26.2694 51.3003 25.709 47.056 29.8571C45.983 31.2036 44.7772 32.6064 44.1884 34.4621C43.6413 36.6504 43.6415 38.584 43.6413 40.6203Z" fill="#374A68"/>
<path d="M36.3072 40.6203C36.3072 40.6203 36.3072 69.0369 36.3072 69.5567C36.3072 70.0764 35.519 71.5316 33.5753 71.5316C31.6419 71.5316 30.8364 70.0764 30.8364 69.5567C30.8364 69.0369 30.8364 40.6203 30.8364 40.6203C30.8364 37.7445 30.8364 36.1033 29.7423 34.4621C28.6481 32.8209 27.0069 31.7267 24.8187 31.7267H22.6304L22.6305 26.2694C26.209 26.2694 28.6481 25.709 32.8925 29.8571C33.9655 31.2036 35.1713 32.6064 35.7601 34.4621C36.3072 36.6504 36.307 38.584 36.3072 40.6203Z" fill="#374A68"/>
<path d="M21.1169 35.9209C22.3748 37.2042 23.2255 38.8307 23.562 40.5959C23.8985 42.3611 23.7059 44.1864 23.0084 45.8425C22.3109 47.4987 21.1396 48.9117 19.6415 49.9043C18.1435 50.8968 16.3855 51.4246 14.5885 51.4212C14.5885 51.4212 0 53.2448 0 29.5384C0 19.5271 3.4283 14.4758 7.16661 11.941C14.2785 7.10858 25.5299 9.24215 25.5299 18.597C25.5306 19.8446 25.2752 21.079 24.7796 22.2239C24.284 23.3687 23.5588 24.3997 22.6487 25.2531C23.5602 26.9632 23.9031 28.9193 23.6276 30.8375C23.3522 32.7558 22.4728 34.5363 21.1169 35.9209Z" fill="#374A68"/>
<path d="M58.4493 35.9206C57.1914 37.204 56.3408 38.8304 56.0042 40.5956C55.6677 42.3608 55.8603 44.1861 56.5578 45.8423C57.2553 47.4984 58.4267 48.9115 59.9247 49.904C61.4228 50.8965 63.1807 51.4243 64.9777 51.421C64.9777 51.421 79.5662 53.2445 79.5662 29.5382C79.5662 7.65536 63.1541 9.47893 63.1541 9.47893C61.3248 9.47792 59.5374 10.0272 58.0244 11.0554C56.5113 12.0836 55.3425 13.5431 54.6699 15.2443C53.9973 16.9455 53.852 18.8097 54.2528 20.5946C54.6537 22.3795 55.5821 24.0025 56.9175 25.2528C56.0061 26.9629 55.6632 28.919 55.9386 30.8372C56.214 32.7555 57.0935 34.536 58.4493 35.9206V35.9206Z" fill="#374A68"/>
</g>
<defs>
<clipPath id="clip0">
<rect width="80" height="62.5641" fill="white" transform="translate(0 9)"/>
</clipPath>
</defs>
</svg>
