<svg width="80" height="80" viewBox="0 0 80 80" fill="none" xmlns="http://www.w3.org/2000/svg">
<path d="M63.5997 49.781C63.5997 57.2045 65.5793 75.7629 65.5793 75.7629C65.5793 75.7629 54.9391 76.9999 48.753 77C42.5669 77.0001 35.1435 75.7628 35.1435 75.7628L34.8961 64.8749C34.8961 64.8749 24.0086 66.9782 21.5341 66.4833C19.9846 66.1734 18.8896 65.8472 17.8224 64.6275C17.111 63.8144 16.7891 63.214 16.5852 62.153C16.3556 60.9583 17.2849 59.961 16.9564 59.0599C16.6278 58.1589 15.348 57.2041 15.348 57.2041C15.348 57.2041 14.8581 56.7347 14.8527 56.2143C14.8426 55.223 16.5848 53.9873 16.5848 53.9873C16.5848 53.9873 14.9828 52.996 14.7015 52.2552C14.4201 51.5144 15.3385 51.109 15.6912 50.3994C16.2358 49.304 17.0164 47.3063 16.4859 47.3063C14.1104 46.6877 11.6359 46.0691 11.6359 46.0691C11.6359 46.0691 9.40905 44.8319 10.1516 43.5946L15.3479 36.9136C16.3736 35.588 17.0849 34.901 16.5852 33.202C15.3479 28.9954 15.0521 29.2121 15.1005 26.2735C15.3479 21.3246 17.9246 15.817 21.5341 11.798C27.1723 5.52 32.8942 3.22536 41.3297 3.01411C51.2275 2.76624 60.2905 5.76082 66.0742 13.9015C69.6139 18.8837 70.0672 22.181 70.4045 28.7484C70.8512 37.4473 64.837 42.3578 63.5997 49.781Z" fill="#374A68"/>
</svg>
