<svg width="36" height="36" viewBox="0 0 36 36" fill="none" xmlns="http://www.w3.org/2000/svg">
<rect width="36" height="36" rx="4" fill="#172230"/>
<path d="M17.9458 13C16.3868 13 15.3771 13.6387 14.5843 14.7779C14.4405 14.9845 14.4849 15.2678 14.6855 15.4199L15.528 16.0588C15.7306 16.2124 16.0189 16.1765 16.1775 15.9778C16.6667 15.3648 17.0296 15.012 17.7938 15.012C18.3947 15.012 19.1379 15.3987 19.1379 15.9813C19.1379 16.4218 18.7743 16.648 18.181 16.9806C17.4891 17.3685 16.5736 17.8512 16.5736 19.0588V19.25C16.5736 19.5089 16.7834 19.7188 17.0423 19.7188H18.4578C18.7167 19.7188 18.9265 19.5089 18.9265 19.25V19.1372C18.9265 18.3001 21.3732 18.2653 21.3732 16C21.3732 14.2941 19.6036 13 17.9458 13ZM17.7501 20.2941C17.0041 20.2941 16.3971 20.9011 16.3971 21.6471C16.3971 22.3931 17.0041 23 17.7501 23C18.4961 23 19.103 22.3931 19.103 21.6471C19.103 20.901 18.4961 20.2941 17.7501 20.2941Z" fill="#D7E0EA"/>
<path d="M18 31C10.8203 31 5 25.1797 5 18H3C3 26.2843 9.71573 33 18 33V31ZM31 18C31 25.1797 25.1797 31 18 31V33C26.2843 33 33 26.2843 33 18H31ZM18 5C25.1797 5 31 10.8203 31 18H33C33 9.71573 26.2843 3 18 3V5ZM18 3C9.71573 3 3 9.71573 3 18H5C5 10.8203 10.8203 5 18 5V3Z" fill="#374A68"/>
</svg>
