<svg width="48" height="48" viewBox="0 0 48 48" fill="none" xmlns="http://www.w3.org/2000/svg">
<path d="M24.8734 28.8881H22.8396C22.553 28.8881 22.3206 29.1204 22.3206 29.4071V38.7085C22.3206 38.9952 22.553 39.2276 22.8396 39.2276H24.8734C25.16 39.2276 25.3924 38.9952 25.3924 38.7085V29.4071C25.3924 29.1204 25.16 28.8881 24.8734 28.8881Z" fill="white"/>
<path d="M29.1099 35.0505V33.0653C29.1099 32.7786 28.8775 32.5463 28.5908 32.5463H19.1233C18.8366 32.5463 18.6043 32.7786 18.6043 33.0653V35.0505C18.6043 35.3371 18.8366 35.5695 19.1233 35.5695H28.5908C28.8775 35.5695 29.1099 35.3371 29.1099 35.0505Z" fill="white"/>
<path fill-rule="evenodd" clip-rule="evenodd" d="M16.3028 23.7103C14.0604 25.67 12.5844 28.4937 12.4014 31.684L12.2016 35.1644C11.8243 41.7408 17.0555 47.2807 23.6425 47.2807H24.2696C30.7626 47.2807 35.9587 41.8915 35.7218 35.4029L35.5947 31.9225C35.4711 28.5389 33.8897 25.5421 31.4678 23.5275C29.4058 25.2843 26.7166 26.347 23.7754 26.347C20.9374 26.347 18.3344 25.3576 16.3028 23.7103Z" fill="#4B94E2"/>
<path d="M11.7265 11.9015C14.7289 11.9015 17.1628 9.50613 17.1628 6.55124C17.1628 3.59634 14.7289 1.20093 11.7265 1.20093C8.72415 1.20093 6.29025 3.59634 6.29025 6.55124C6.29025 9.50613 8.72415 11.9015 11.7265 11.9015Z" fill="#425B72"/>
<path d="M35.8232 11.9015C38.8255 11.9015 41.2594 9.50613 41.2594 6.55124C41.2594 3.59634 38.8255 1.20093 35.8232 1.20093C32.8208 1.20093 30.3869 3.59634 30.3869 6.55124C30.3869 9.50613 32.8208 11.9015 35.8232 11.9015Z" fill="#425B72"/>
<path d="M23.7759 25.0069C30.2705 25.0069 35.5354 19.8253 35.5354 13.4334C35.5354 7.0416 30.2705 1.85999 23.7759 1.85999C17.2814 1.85999 12.0165 7.0416 12.0165 13.4334C12.0165 19.8253 17.2814 25.0069 23.7759 25.0069Z" fill="#425B72"/>
<path d="M24.8723 29.8335H22.6773C22.3679 29.8335 22.1171 30.0843 22.1171 30.3937V40.433C22.1171 40.7424 22.3679 40.9932 22.6773 40.9932H24.8723C25.1817 40.9932 25.4326 40.7424 25.4326 40.433V30.3937C25.4326 30.0843 25.1817 29.8335 24.8723 29.8335Z" fill="white"/>
<path d="M29.4445 36.4852V34.3426C29.4445 34.0332 29.1937 33.7823 28.8843 33.7823H18.6658C18.3564 33.7823 18.1056 34.0332 18.1056 34.3426V36.4852C18.1056 36.7946 18.3564 37.0454 18.6658 37.0454H28.8843C29.1937 37.0454 29.4445 36.7946 29.4445 36.4852Z" fill="white"/>
<path d="M30.5199 17.4325C30.5199 20.4876 27.5004 22.964 23.7756 22.964C20.0508 22.964 17.0312 20.4876 17.0312 17.4325C17.0312 14.3776 20.0508 11.9011 23.7756 11.9011C27.5004 11.9011 30.5199 14.3776 30.5199 17.4325Z" fill="white"/>
<path d="M27.1477 15.8696C27.1477 17.3971 25.638 18.6353 23.7756 18.6353C21.9132 18.6353 20.4035 17.3971 20.4035 15.8696C20.4035 14.3421 21.9132 13.1039 23.7756 13.1039C25.638 13.1039 27.1477 14.3421 27.1477 15.8696Z" fill="#425B72"/>
<path d="M6.1395 24.977C8.57139 24.1511 13.8951 22.28 16.3214 23.7356L12.4592 32.7125C10.5169 32.9986 6.61502 35.158 5.46268 35.4339C3.77511 35.8377 1.5299 33.7367 1.22972 30.5815C0.91752 27.3 3.09966 26.0098 6.1395 24.977Z" fill="#425B72"/>
<path d="M6.13942 24.9769C8.57131 24.1509 13.895 22.2799 16.3213 23.7354L12.4591 32.7124C11.8195 32.8067 10.9673 33.1039 10.0708 33.4704L6.13942 24.9769Z" fill="#4B94E2"/>
<path d="M41.6279 24.777C39.1953 23.9531 33.8698 22.0873 31.4448 23.5451L35.3157 32.5185C37.2584 32.8026 41.1623 34.9584 42.3149 35.2331C44.003 35.6354 46.2461 33.5322 46.5431 30.3767C46.8522 27.0948 44.6688 25.8067 41.6279 24.777Z" fill="#425B72"/>
<path d="M41.6273 24.7983C39.1955 23.9723 33.8717 22.1013 31.4454 23.5569L35.3077 32.5338C35.9472 32.6281 36.7995 32.9253 37.6959 33.2916L41.6273 24.7983Z" fill="#4B94E2"/>
</svg>
