<svg width="48" height="48" viewBox="0 0 48 48" fill="none" xmlns="http://www.w3.org/2000/svg">
<g clip-path="url(#clip0_3006_31688)">
<g clip-path="url(#clip1_3006_31688)">
<path fill-rule="evenodd" clip-rule="evenodd" d="M24.9209 1.79837C24.4946 1.20649 21.8737 -0.543088 19.8812 0.167168C17.5951 0.982061 17.4759 2.25171 17.2636 4.51438C17.2446 4.71688 17.2248 4.92733 17.2027 5.14612C17.1586 5.5823 17.4765 6.98476 17.7383 8.13977C17.913 8.91058 18.0627 9.57118 18.0632 9.76082C18.0637 9.95248 18.0731 10.1428 18.0826 10.3335C18.1182 11.0525 18.154 11.7767 17.7127 12.5975C17.9078 12.6187 18.5874 12.4963 18.9019 11.5922C18.9912 12.8309 20.1593 12.7886 20.3463 12.4963C20.1779 12.1436 20.2804 12.0206 20.4389 11.8307C20.5687 11.6751 20.7359 11.4746 20.8227 11.0663C20.9822 10.3154 20.8831 8.89352 20.8399 8.27271C20.8297 8.12764 20.8227 8.02631 20.8227 7.98751C20.8226 5.81426 21.7665 2.88281 23.3422 3.62903C23.3772 3.63065 23.4155 3.62966 23.4563 3.62612C22.6723 4.7607 22.1918 6.23787 22.523 7.49384C23.2892 10.3997 22.534 11.2886 21.9351 11.9936C21.8112 12.1394 21.6941 12.2773 21.5984 12.4236C20.2982 14.4114 13.533 20.6558 10.9653 22.5371C10.6917 22.7376 10.4486 22.8946 10.2349 23.0327C9.35341 23.6022 8.972 23.8486 9.01334 25.4848C9.06471 27.5177 15.6911 28.9915 17.8486 29.2964C20.006 29.6013 20.3528 30.0146 20.0446 31.2851C19.3224 33.0503 18.9795 33.6402 18.299 34.8104L18.1768 35.0207C17.8947 35.5064 17.3803 36.3664 17.2835 36.5131C14.8692 40.1723 14.2894 43.6295 16.7185 46.3217C19.2983 49.1811 27.2488 47.666 29.5035 46.3217C33.4727 43.9554 36.5867 41.2391 36.125 35.0207C35.8477 31.2851 31.8151 27.8078 29.5035 26.0291C31.7123 23.9962 32.028 22.2863 31.1002 21.7424C31.0349 21.7041 30.9666 21.6646 30.8955 21.6235C29.9568 21.0804 28.5381 20.2595 27.2488 18.3697C27.1388 18.2085 27.0354 18.0577 26.9385 17.9163L26.9381 17.9157C26.0665 16.6444 25.7232 16.1437 25.8619 15.7778C26.1258 15.0816 26.8524 14.2768 27.1321 14.4956C28.018 15.1885 28.8449 15.4773 29.5035 15.1292C29.8214 14.9612 30.4248 14.6035 30.8959 14.0499C31.0564 13.8612 31.1614 13.6204 31.2573 13.4004C31.3983 13.0767 31.5196 12.7983 31.7692 12.7983C32.5141 12.7983 32.4533 12.5099 32.3635 12.0847C32.3295 11.9235 32.2913 11.7427 32.2913 11.5504C32.2913 8.90199 32.6753 8.27583 32.8914 7.92356C32.9823 7.77526 33.0435 7.67551 33.0337 7.49384C32.8922 4.86302 31.9966 4.14787 31.0384 3.38278C30.9911 3.34495 30.9435 3.30699 30.8959 3.26868C28.9854 1.6009 26.3143 1.49277 25.0104 2.13379C24.9984 2.02685 24.9696 1.91496 24.9209 1.79837ZM19.6491 21.4807L19.6427 21.4473L15.264 24.4796C15.7954 24.9692 19.0083 26.9985 20.3673 27.286C20.6546 26.6903 19.8977 22.7684 19.6491 21.4807Z" fill="#374A68"/>
</g>
</g>
<defs>
<clipPath id="clip0_3006_31688">
<rect width="48" height="48.0004" fill="white"/>
</clipPath>
<clipPath id="clip1_3006_31688">
<rect width="48" height="48" fill="white" transform="translate(-0.000152588 0.000244141)"/>
</clipPath>
</defs>
</svg>
