<svg width="168" height="28" viewBox="0 0 168 28" fill="none" xmlns="http://www.w3.org/2000/svg">
<g clip-path="url(#clip0)">
<path d="M142.458 15.265C142.458 10.1987 146.583 6.04598 151.677 6.04598C155.774 6.04598 159.235 8.7314 160.425 12.4412C160.204 7.51327 156.079 3.58203 150.985 3.58203C145.752 3.58203 141.517 7.73475 141.517 12.8564C141.517 14.4622 141.932 15.9848 142.679 17.3137C142.541 16.6493 142.458 15.9571 142.458 15.265Z" fill="#9CA8B3"/>
<path d="M151.649 7.98389C147.635 7.98389 144.368 11.2507 144.368 15.265C144.368 17.9781 145.863 20.442 148.272 21.7156C149.324 22.2692 150.486 22.5461 151.677 22.5461C154.888 22.5461 157.768 20.3867 158.654 17.3137C158.847 16.6215 158.958 15.9294 158.958 15.265C158.958 11.2507 155.664 7.98389 151.649 7.98389Z" fill="#BAC3CA"/>
<path d="M81.856 25.01H79.4751V5.54761H87.6698C91.6841 5.54761 93.9266 7.98387 93.9266 11.4445C93.9266 14.8774 91.6841 17.3413 87.6698 17.3413H81.856V25.01ZM81.856 7.81776V15.0435H87.6698C89.94 15.0435 91.5734 13.9638 91.5734 11.4168C91.5734 8.86978 89.94 7.79008 87.6698 7.79008H81.856V7.81776Z" fill="#9CA8B3"/>
<path d="M108.074 18.0612C108.074 22.0755 104.779 25.3423 100.488 25.3423C96.1968 25.3423 92.9023 22.0755 92.9023 18.0612C92.9023 13.9915 96.2245 10.6694 100.488 10.6694C104.807 10.6417 108.074 13.9638 108.074 18.0612ZM105.582 18.0612C105.582 15.1543 103.284 12.7734 100.488 12.7734C97.6918 12.7734 95.4217 15.1266 95.4217 18.0612C95.4217 20.9127 97.7195 23.2383 100.488 23.2383C103.312 23.2383 105.582 20.9127 105.582 18.0612Z" fill="#9CA8B3"/>
<path d="M111.451 10.5586H109.07V25.0101H111.451V10.5586Z" fill="#9CA8B3"/>
<path d="M125.82 25.0101H123.466V16.234C123.466 14.0192 122.221 12.3858 119.923 12.3858C117.736 12.3858 116.13 14.0192 116.13 16.1786V25.0101H113.749V10.5586H116.047V12.1367C117.016 10.9185 118.511 10.1987 120.255 10.1987C123.799 10.1987 125.82 12.718 125.82 16.3171V25.0101Z" fill="#9CA8B3"/>
<path d="M133.599 25.0101C130.221 25.3977 127.896 23.4044 127.896 19.7223V12.8288V10.5586V7.4856H130.249V10.5586H133.543V12.8288H130.249V19.7223C130.249 22.2693 131.827 22.9337 133.599 22.823V25.0101Z" fill="#9CA8B3"/>
<path d="M108.932 8.39911C108.932 7.62393 109.568 6.98718 110.344 6.98718C111.119 6.98718 111.755 7.62393 111.755 8.39911C111.755 9.17428 111.119 9.81104 110.344 9.81104C109.568 9.78335 108.932 9.17428 108.932 8.39911Z" fill="#9CA8B3"/>
<path d="M2.78812 25.01H0.407227V5.54761H8.60193C12.6162 5.54761 14.8587 7.98387 14.8587 11.4445C14.8587 14.8774 12.6162 17.3413 8.60193 17.3413H2.78812V25.01ZM2.78812 7.81776V15.0435H8.60193C10.8721 15.0435 12.5055 13.9638 12.5055 11.4168C12.5055 8.86978 10.8721 7.79008 8.60193 7.79008H2.78812V7.81776Z" fill="#9CA8B3"/>
<path d="M25.2405 23.349C24.2161 24.6225 22.5274 25.3423 20.2849 25.3423C17.2949 25.3423 14.6372 23.9858 14.6372 20.8851C14.6372 17.9228 16.7966 16.5662 20.5341 16.3724C24.0777 16.2063 25.2128 15.5696 25.2128 14.4068C25.2128 13.2441 24.1054 12.3858 21.6691 12.3858C20.1465 12.3858 18.1532 12.8565 17.904 14.9605H15.4401C15.6062 12.0813 17.9871 10.1987 21.6968 10.1987C25.5727 10.1987 27.5383 11.9982 27.5383 14.6837V22.6569C27.5383 23.3767 27.7321 24.4564 27.9536 25.0101H25.6004C25.4066 24.5948 25.2682 24.0411 25.2405 23.349ZM25.2128 17.2307C24.2715 18.0612 22.5551 18.255 20.8386 18.3934C17.6825 18.5872 16.9904 19.6946 16.9904 20.8851C16.9904 22.4631 18.5131 23.1275 20.368 23.1275C22.8319 23.1275 25.1574 22.0755 25.2128 19.4455V17.2307Z" fill="#9CA8B3"/>
<path d="M35.2622 25.0101C31.8846 25.3977 29.5591 23.4044 29.5591 19.7223V12.8288V10.5586V7.4856H31.9123V10.5586H35.2068V12.8288H31.9123V19.7223C31.9123 22.2693 33.4903 22.9337 35.2622 22.7953V25.0101Z" fill="#9CA8B3"/>
<path d="M39.7749 10.5586H37.394V25.0101H39.7749V10.5586Z" fill="#9CA8B3"/>
<path d="M55.694 20.5251C54.6974 23.5982 52.2057 25.3423 48.8835 25.3423C44.7308 25.3423 41.4917 22.0201 41.4917 17.7843C41.4917 13.6039 44.7585 10.171 48.7451 10.171C52.4826 10.171 56.0539 13.244 56.0262 18.3934H43.8726C44.1771 21.3834 46.475 23.1552 48.8559 23.1552C50.9045 23.1552 52.3718 22.1862 53.147 20.4975H55.694V20.5251ZM53.3962 16.2894C52.8148 13.9362 50.8492 12.3581 48.7451 12.3581C46.7518 12.3581 44.6478 13.8254 44.0387 16.2894H53.3962Z" fill="#9CA8B3"/>
<path d="M69.6194 25.0101H67.2662V16.234C67.2662 14.0192 66.0204 12.3858 63.7225 12.3858C61.5354 12.3858 59.9297 14.0192 59.9297 16.1786V25.0101H57.5488V10.5586H59.8467V12.1367C60.8156 10.9185 62.3106 10.1987 64.0548 10.1987C67.5984 10.1987 69.6194 12.718 69.6194 16.3171V25.0101Z" fill="#9CA8B3"/>
<path d="M77.3432 25.0101C73.9657 25.3977 71.6401 23.4044 71.6401 19.7223V12.8288V10.5586V7.4856H73.9933V10.5586H77.2601V12.8288H73.9933V19.7223C73.9933 22.2693 75.5714 22.9337 77.3432 22.823V25.0101Z" fill="#9CA8B3"/>
<path d="M37.1729 8.39911C37.1729 7.62393 37.8096 6.98718 38.5848 6.98718C39.36 6.98718 39.9967 7.62393 39.9967 8.39911C39.9967 9.17428 39.36 9.81104 38.5848 9.81104C37.8096 9.78335 37.1729 9.17428 37.1729 8.39911Z" fill="#9CA8B3"/>
<path d="M135.869 25.2039C135.121 25.2039 134.623 24.6779 134.623 23.9304C134.623 23.1552 135.149 22.6569 135.869 22.6569C136.616 22.6569 137.115 23.1829 137.115 23.9304C137.115 24.7055 136.589 25.2039 135.869 25.2039ZM135.869 22.7953C135.26 22.7953 134.789 23.2106 134.789 23.9304C134.789 24.6502 135.26 25.0654 135.869 25.0654C136.478 25.0654 136.949 24.6502 136.949 23.9304C136.921 23.2106 136.45 22.7953 135.869 22.7953ZM136.118 24.6225L135.813 24.1242H135.73V24.6225H135.343V23.2106H135.897C136.256 23.2106 136.45 23.3767 136.45 23.6535C136.45 23.8473 136.34 23.9857 136.201 24.0411L136.561 24.5671L136.118 24.6225ZM135.841 23.4597H135.73V23.8473H135.841C135.98 23.8473 136.063 23.7919 136.063 23.6535C136.063 23.5151 135.98 23.4597 135.841 23.4597Z" fill="#9CA8B3"/>
<path d="M156.245 0.453621C151.289 -0.847565 146.251 0.730467 142.901 4.16338C145.226 2.44693 148.078 1.45027 151.151 1.45027C158.875 1.45027 165.132 7.76241 165.132 15.4865C165.132 18.2273 164.357 20.7743 163 22.9337C164.412 21.3556 165.492 19.4177 166.045 17.2306C167.983 9.92182 163.581 2.39156 156.245 0.453621Z" fill="#9CA8B3"/>
<path d="M151.428 28C158.127 28 163.609 22.4077 163.609 15.5142C163.609 12.3027 162.419 9.39581 160.481 7.18103C161.643 8.95286 162.308 11.0846 162.308 13.3824C162.308 19.6392 157.242 24.7332 150.957 24.7332C144.7 24.7332 139.606 19.6669 139.606 13.3824C139.606 12.9948 139.634 12.5796 139.662 12.2197C139.385 13.2717 139.219 14.4068 139.219 15.5418C139.219 18.5595 140.271 21.328 141.987 23.4874C142.098 23.6258 142.236 23.7919 142.347 23.9303L142.375 23.958C144.673 26.422 147.884 28 151.428 28Z" fill="#9CA8B3"/>
</g>
<defs>
<clipPath id="clip0">
<rect width="167" height="28" fill="white" transform="translate(0.407227)"/>
</clipPath>
</defs>
</svg>
