<svg width="24" height="24" viewBox="0 0 24 24" fill="none" xmlns="http://www.w3.org/2000/svg">
<path d="M24 5.00146H0V19.003H24V5.00146Z" fill="#3D9244"/>
<path d="M3.69853 11.9998L12.0001 17.3014L20.3017 11.9998L12.0001 6.69824L3.69853 11.9998Z" fill="#EDC223"/>
<path d="M15.5015 11.9996C15.5015 13.9308 13.9312 15.5012 12 15.5012C10.0687 15.5012 8.4984 13.9355 8.4984 11.9996C8.4984 10.0684 10.064 8.49805 12 8.49805C13.9312 8.49805 15.5015 10.0684 15.5015 11.9996Z" fill="#31276C"/>
<path d="M9.99847 10.5C9.59066 10.5 9.18754 10.5281 8.79848 10.5844C8.72348 10.7578 8.66254 10.9359 8.61098 11.1187C9.06098 11.0391 9.52504 10.9969 9.99847 10.9969C12.0516 10.9969 13.9219 11.7703 15.3375 13.0406C15.3938 12.8625 15.436 12.675 15.4641 12.4875C13.9875 11.25 12.0797 10.5 9.99847 10.5Z" fill="white"/>
<path fill-rule="evenodd" clip-rule="evenodd" d="M9.01406 10.9784C9.09843 10.969 9.15468 10.8846 9.14062 10.7956C9.13124 10.7065 9.05156 10.6362 8.97187 10.6502C8.8875 10.6596 8.83125 10.744 8.84531 10.8331C8.85937 10.9221 8.93437 10.9877 9.01406 10.9784ZM9.00937 10.9174C9.05624 10.9127 9.08906 10.8612 9.08437 10.8049C9.07499 10.7487 9.03281 10.7065 8.98593 10.7112C8.93906 10.7159 8.90625 10.7674 8.91093 10.8237C8.91562 10.8799 8.95781 10.9221 9.00937 10.9174Z" fill="#3D9244"/>
<path fill-rule="evenodd" clip-rule="evenodd" d="M9.28585 10.9453L9.34679 10.9406L9.33741 10.8188L9.46866 10.8094C9.52491 10.8047 9.57178 10.7532 9.56709 10.6969C9.56241 10.6407 9.51553 10.5938 9.4546 10.5985L9.26241 10.6125L9.28585 10.9453ZM9.33741 10.7578L9.46397 10.7485C9.48741 10.7485 9.50616 10.725 9.50147 10.7016C9.50147 10.6782 9.47803 10.6594 9.4546 10.6641L9.32804 10.6735L9.33741 10.7578Z" fill="#3D9244"/>
<path d="M9.56719 10.9267C9.5625 10.8798 9.55781 10.772 9.4875 10.7813L9.39844 10.786C9.50156 10.7766 9.51094 10.8845 9.51094 10.9313" fill="#3D9244"/>
<path fill-rule="evenodd" clip-rule="evenodd" d="M9.70781 10.9215L9.86719 10.9168C9.94688 10.9168 10.0078 10.8512 10.0078 10.7715V10.7246C10.0078 10.6449 9.94219 10.584 9.8625 10.584L9.70312 10.5887L9.70781 10.9215ZM9.76875 10.8559H9.85781C9.90938 10.8559 9.94687 10.8137 9.94687 10.7621V10.734C9.94687 10.6824 9.90469 10.6449 9.85312 10.6449H9.76406L9.76875 10.8559Z" fill="#3D9244"/>
<path d="M10.1344 10.9168L10.4344 10.9262V10.8652L10.1907 10.8559L10.1954 10.7715L10.3875 10.7762V10.7199L10.1954 10.7152L10.2 10.6449L10.4297 10.6543V10.5934L10.1438 10.584L10.1344 10.9168Z" fill="#3D9244"/>
<path d="M10.5563 10.9358L10.6125 10.9405L10.6313 10.7108L10.6782 10.9452L10.7297 10.9499L10.8188 10.7296L10.7954 10.9546L10.8563 10.9593L10.8844 10.6265L10.8 10.6218L10.7157 10.8421L10.6688 10.6077L10.5844 10.603L10.5563 10.9358Z" fill="#3D9244"/>
<path d="M11.2454 11.0111L11.4938 11.0533L11.5032 10.9971L11.311 10.9643L11.3251 10.8893L11.4798 10.9174L11.4892 10.8611L11.3345 10.833L11.3438 10.7814L11.5266 10.8143L11.536 10.758L11.297 10.7158L11.2454 11.0111Z" fill="#3D9244"/>
<path fill-rule="evenodd" clip-rule="evenodd" d="M11.8782 11.1371L11.9392 11.1512L11.972 11.034L12.1032 11.0668C12.1595 11.0809 12.2157 11.048 12.2298 10.9918C12.2439 10.9355 12.211 10.8793 12.1548 10.8652L11.972 10.8184L11.8782 11.1371ZM11.986 10.973L12.1126 11.0059C12.136 11.0105 12.1595 10.9965 12.1642 10.973C12.1688 10.9496 12.1548 10.9262 12.1313 10.9215L12.0048 10.8887L11.986 10.973Z" fill="#3D9244"/>
<path fill-rule="evenodd" clip-rule="evenodd" d="M12.2859 11.2452L12.3468 11.264L12.3843 11.1468L12.5108 11.189C12.5671 11.2077 12.6233 11.1749 12.6421 11.1187C12.6608 11.0624 12.628 11.0062 12.5718 10.9874L12.389 10.9312L12.2859 11.2452ZM12.403 11.0858L12.5249 11.1233C12.5483 11.1327 12.5718 11.1187 12.5812 11.0952C12.5905 11.0718 12.5765 11.0483 12.553 11.039L12.4312 11.0015L12.403 11.0858Z" fill="#3D9244"/>
<path d="M12.5577 11.3297C12.5718 11.2828 12.6046 11.1844 12.5343 11.1609L12.4499 11.1328C12.5483 11.1656 12.5202 11.2641 12.5015 11.3109" fill="#3D9244"/>
<path fill-rule="evenodd" clip-rule="evenodd" d="M12.8298 11.4282C12.9095 11.4563 12.9985 11.4095 13.0266 11.3251C13.0595 11.2407 13.022 11.1469 12.9423 11.1141C12.8626 11.086 12.7735 11.1329 12.7454 11.2173C12.7173 11.3063 12.7548 11.4001 12.8298 11.4282ZM12.8532 11.372C12.9001 11.3907 12.9516 11.3579 12.9704 11.3063C12.9891 11.2501 12.9704 11.1938 12.9235 11.1751C12.8766 11.1563 12.8251 11.1891 12.8063 11.2407C12.7876 11.2969 12.8063 11.3532 12.8532 11.372Z" fill="#3D9244"/>
<path fill-rule="evenodd" clip-rule="evenodd" d="M13.2235 11.5878C13.2985 11.6206 13.3922 11.5784 13.4297 11.4941C13.4672 11.4097 13.4344 11.3159 13.3594 11.2831C13.2844 11.2503 13.1907 11.2925 13.1532 11.3769C13.1157 11.4566 13.1485 11.555 13.2235 11.5878ZM13.2469 11.5316C13.2891 11.5503 13.3453 11.5222 13.3688 11.4706C13.3922 11.419 13.3735 11.3581 13.3313 11.3394C13.2891 11.3206 13.2328 11.3487 13.2094 11.4003C13.186 11.4519 13.2047 11.5128 13.2469 11.5316Z" fill="#3D9244"/>
<path d="M13.3124 11.4424L13.4296 11.4939L13.4062 11.5361L13.2937 11.4846L13.3124 11.4424Z" fill="#3D9244"/>
<path d="M13.3827 11.4746L13.4296 11.4934L13.3593 11.648L13.3171 11.6293L13.3827 11.4746Z" fill="#3D9244"/>
<path fill-rule="evenodd" clip-rule="evenodd" d="M13.472 11.6996L13.5282 11.7277L13.5845 11.6152L13.7017 11.6762C13.7532 11.7043 13.8188 11.6809 13.8423 11.6293C13.8657 11.5777 13.847 11.5168 13.7954 11.4887L13.6267 11.4043L13.472 11.6996ZM13.6126 11.559L13.7298 11.6152C13.7532 11.6246 13.7767 11.6152 13.786 11.5965C13.7954 11.573 13.786 11.5496 13.7673 11.5402L13.6501 11.484L13.6126 11.559Z" fill="#3D9244"/>
<path d="M13.7251 11.8262C13.7485 11.784 13.7907 11.6902 13.7297 11.6574L13.6501 11.6152C13.7438 11.6621 13.6969 11.7559 13.6735 11.798" fill="#3D9244"/>
<path d="M13.8516 11.8922L14.1094 12.0375L14.1422 11.9859L13.9313 11.8641L13.9734 11.7891L14.1375 11.8828L14.1656 11.8359L14.0016 11.7422L14.0344 11.6812L14.2313 11.7938L14.2641 11.7422L14.0156 11.6016L13.8516 11.8922Z" fill="#3D9244"/>
<path d="M14.3344 12.0517C14.3157 12.0798 14.3344 12.1126 14.3766 12.136C14.4188 12.1595 14.4423 12.1595 14.4563 12.1407C14.4938 12.0845 14.2829 12.0001 14.3485 11.9017C14.4048 11.8173 14.4985 11.8829 14.536 11.9063C14.5735 11.9298 14.6298 11.9907 14.5829 12.0563L14.5219 12.0188C14.5407 11.9907 14.5219 11.9579 14.4891 11.9392C14.461 11.9204 14.4329 11.911 14.4141 11.9392C14.3813 11.986 14.5876 12.0751 14.5266 12.1735C14.4798 12.2485 14.4001 12.2157 14.3438 12.1782C14.2969 12.1501 14.2266 12.0798 14.2735 12.0095L14.3344 12.0517Z" fill="#3D9244"/>
<path d="M14.6954 12.2904C14.6766 12.3185 14.6907 12.3513 14.7329 12.3794C14.7704 12.4075 14.7985 12.4075 14.8126 12.3888C14.8501 12.3325 14.6438 12.2388 14.7141 12.145C14.7751 12.0607 14.8688 12.1357 14.9016 12.1591C14.9344 12.1825 14.9907 12.2482 14.9438 12.3138L14.8829 12.2716C14.9016 12.2435 14.8829 12.2107 14.8548 12.1919C14.8266 12.1685 14.7985 12.1591 14.7797 12.1872C14.7469 12.2294 14.9485 12.3325 14.8782 12.4263C14.8266 12.4966 14.7469 12.4591 14.6954 12.4263C14.6532 12.3935 14.5876 12.3232 14.6344 12.2529L14.6954 12.2904Z" fill="#3D9244"/>
<path fill-rule="evenodd" clip-rule="evenodd" d="M15.0327 12.6745C15.0984 12.7261 15.1968 12.7073 15.253 12.637C15.3093 12.5667 15.3046 12.4636 15.239 12.412C15.1734 12.3605 15.0749 12.3745 15.0187 12.4495C14.9624 12.5198 14.9671 12.623 15.0327 12.6745ZM15.0702 12.623C15.1077 12.6511 15.1687 12.6417 15.2062 12.5948C15.2437 12.548 15.239 12.487 15.2015 12.4589C15.164 12.4308 15.103 12.4401 15.0655 12.487C15.0327 12.5339 15.0327 12.5948 15.0702 12.623Z" fill="#3D9244"/>
<path d="M9.14523 11.2217L9.09835 11.3623L9.16866 11.3857L9.14523 11.2217Z" fill="white"/>
<path d="M9.14531 11.2217L9.1875 11.3623L9.11719 11.3857L9.14531 11.2217Z" fill="white"/>
<path d="M9.28603 11.3252H9.13602V11.4002L9.28603 11.3252Z" fill="white"/>
<path d="M9.28585 11.3252L9.16398 11.4143L9.12179 11.3533L9.28585 11.3252Z" fill="white"/>
<path d="M9 11.3252L9.12188 11.4143L9.16406 11.3533L9 11.3252Z" fill="white"/>
<path d="M9 11.3252H9.15V11.4002L9 11.3252Z" fill="white"/>
<path d="M9.22977 11.4939L9.1829 11.3486L9.11259 11.3721L9.22977 11.4939Z" fill="white"/>
<path d="M9.22965 11.4937L9.10777 11.4047L9.15465 11.3438L9.22965 11.4937Z" fill="white"/>
<path d="M9.05629 11.4937L9.17817 11.4047L9.13129 11.3438L9.05629 11.4937Z" fill="white"/>
<path d="M9.05629 11.4939L9.10316 11.3486L9.17348 11.3721L9.05629 11.4939Z" fill="white"/>
<path d="M9.45473 12.6934L9.40785 12.834L9.47816 12.8574L9.45473 12.6934Z" fill="white"/>
<path d="M9.4546 12.6934L9.49679 12.834L9.42648 12.8574L9.4546 12.6934Z" fill="white"/>
<path d="M9.59531 12.7969H9.44531V12.8719L9.59531 12.7969Z" fill="white"/>
<path d="M9.59535 12.7969L9.47348 12.8859L9.43129 12.825L9.59535 12.7969Z" fill="white"/>
<path d="M9.30929 12.7969L9.43116 12.8859L9.47335 12.825L9.30929 12.7969Z" fill="white"/>
<path d="M9.30929 12.7969H9.45929V12.8719L9.30929 12.7969Z" fill="white"/>
<path d="M9.53906 12.9656L9.49219 12.8203L9.42188 12.8438L9.53906 12.9656Z" fill="white"/>
<path d="M9.53915 12.9654L9.41727 12.8764L9.46415 12.8154L9.53915 12.9654Z" fill="white"/>
<path d="M9.36559 12.9654L9.48746 12.8764L9.44059 12.8154L9.36559 12.9654Z" fill="white"/>
<path d="M9.36559 12.9656L9.41246 12.8203L9.48277 12.8438L9.36559 12.9656Z" fill="white"/>
<path d="M9.02352 13.0547L8.9954 13.1531L9.04227 13.1672L9.02352 13.0547Z" fill="white"/>
<path d="M9.02348 13.0547L9.05629 13.1531L9.00941 13.1672L9.02348 13.0547Z" fill="white"/>
<path d="M9.11728 13.125H9.01884V13.1766L9.11728 13.125Z" fill="white"/>
<path d="M9.11723 13.125L9.03754 13.1859L9.00941 13.1437L9.11723 13.125Z" fill="white"/>
<path d="M8.92969 13.125L9.00938 13.1859L9.0375 13.1437L8.92969 13.125Z" fill="white"/>
<path d="M8.92969 13.125H9.02813V13.1766L8.92969 13.125Z" fill="white"/>
<path d="M9.08429 13.2373L9.05148 13.1436L9.0046 13.1576L9.08429 13.2373Z" fill="white"/>
<path d="M9.08438 13.2371L9 13.1762L9.03281 13.1387L9.08438 13.2371Z" fill="white"/>
<path d="M8.96715 13.2371L9.04683 13.1762L9.01871 13.1387L8.96715 13.2371Z" fill="white"/>
<path d="M8.96715 13.2373L8.99527 13.1436L9.04215 13.1576L8.96715 13.2373Z" fill="white"/>
<path d="M9.79687 12.5576L9.77344 12.6232L9.80625 12.6373L9.79687 12.5576Z" fill="white"/>
<path d="M9.79691 12.5576L9.81566 12.6232L9.78285 12.6373L9.79691 12.5576Z" fill="white"/>
<path d="M9.86259 12.6045H9.79227V12.642L9.86259 12.6045Z" fill="white"/>
<path d="M9.86254 12.6045L9.80629 12.6467L9.78285 12.6186L9.86254 12.6045Z" fill="white"/>
<path d="M9.72656 12.6045L9.78281 12.6467L9.80625 12.6186L9.72656 12.6045Z" fill="white"/>
<path d="M9.72656 12.6045H9.79688V12.642L9.72656 12.6045Z" fill="white"/>
<path d="M9.8391 12.6843L9.81566 12.6187L9.78285 12.628L9.8391 12.6843Z" fill="white"/>
<path d="M9.83897 12.6846L9.77804 12.6424L9.80148 12.6143L9.83897 12.6846Z" fill="white"/>
<path d="M9.7546 12.6846L9.81085 12.6424L9.7921 12.6143L9.7546 12.6846Z" fill="white"/>
<path d="M9.7546 12.6843L9.77335 12.6187L9.81085 12.628L9.7546 12.6843Z" fill="white"/>
<path d="M10.1813 13.064L10.1438 13.1858L10.2001 13.2046L10.1813 13.064Z" fill="white"/>
<path d="M10.1812 13.064L10.2187 13.1858L10.1625 13.2046L10.1812 13.064Z" fill="white"/>
<path d="M10.2984 13.1533H10.1765V13.2143L10.2984 13.1533Z" fill="white"/>
<path d="M10.2984 13.1533L10.2 13.2236L10.1625 13.1768L10.2984 13.1533Z" fill="white"/>
<path d="M10.0641 13.1533L10.1625 13.2236L10.2 13.1768L10.0641 13.1533Z" fill="white"/>
<path d="M10.0641 13.1533H10.186V13.2143L10.0641 13.1533Z" fill="white"/>
<path d="M10.2563 13.2891L10.2141 13.1719L10.1579 13.1906L10.2563 13.2891Z" fill="white"/>
<path d="M10.2562 13.2889L10.153 13.2186L10.1905 13.167L10.2562 13.2889Z" fill="white"/>
<path d="M10.1062 13.2889L10.2093 13.2186L10.1718 13.167L10.1062 13.2889Z" fill="white"/>
<path d="M10.1062 13.2891L10.1484 13.1719L10.2046 13.1906L10.1062 13.2891Z" fill="white"/>
<path d="M10.078 13.4111L10.0359 13.533L10.0968 13.5518L10.078 13.4111Z" fill="white"/>
<path d="M10.0781 13.4111L10.1156 13.533L10.0547 13.5518L10.0781 13.4111Z" fill="white"/>
<path d="M10.1953 13.5H10.0687V13.5609L10.1953 13.5Z" fill="white"/>
<path d="M10.1952 13.5L10.0921 13.575L10.0593 13.5234L10.1952 13.5Z" fill="white"/>
<path d="M9.95634 13.5L10.0595 13.575L10.097 13.5234L9.95634 13.5Z" fill="white"/>
<path d="M9.95634 13.5H10.0829V13.5609L9.95634 13.5Z" fill="white"/>
<path d="M10.1485 13.6404L10.111 13.5186L10.0501 13.5373L10.1485 13.6404Z" fill="white"/>
<path d="M10.1485 13.6402L10.0501 13.5652L10.0876 13.5137L10.1485 13.6402Z" fill="white"/>
<path d="M10.0032 13.6402L10.1063 13.5652L10.0688 13.5137L10.0032 13.6402Z" fill="white"/>
<path d="M10.0032 13.6404L10.0407 13.5186L10.1017 13.5373L10.0032 13.6404Z" fill="white"/>
<path d="M13.0876 10.7627L13.0407 10.908L13.111 10.9314L13.0876 10.7627Z" fill="white"/>
<path d="M13.0874 10.7627L13.1343 10.908L13.0593 10.9314L13.0874 10.7627Z" fill="white"/>
<path d="M13.2281 10.8652H13.0781V10.9402L13.2281 10.8652Z" fill="white"/>
<path d="M13.2282 10.8652L13.1063 10.9543L13.0641 10.8934L13.2282 10.8652Z" fill="white"/>
<path d="M12.9421 10.8652L13.064 10.9543L13.1109 10.8934L12.9421 10.8652Z" fill="white"/>
<path d="M12.9421 10.8652H13.0921V10.9402L12.9421 10.8652Z" fill="white"/>
<path d="M13.1719 11.0342L13.1297 10.8936L13.0547 10.917L13.1719 11.0342Z" fill="white"/>
<path d="M13.1719 11.0343L13.0547 10.9452L13.0969 10.8843L13.1719 11.0343Z" fill="white"/>
<path d="M12.9984 11.0343L13.1203 10.9452L13.0734 10.8843L12.9984 11.0343Z" fill="white"/>
<path d="M12.9984 11.0342L13.0453 10.8936L13.1156 10.917L12.9984 11.0342Z" fill="white"/>
<path d="M14.4515 13.0781L14.4046 13.2234L14.4796 13.2422L14.4515 13.0781Z" fill="white"/>
<path d="M14.4515 13.0781L14.4984 13.2234L14.4281 13.2422L14.4515 13.0781Z" fill="white"/>
<path d="M14.5969 13.1812H14.4469V13.2562L14.5969 13.1812Z" fill="white"/>
<path d="M14.5968 13.1812L14.4749 13.2702L14.4281 13.2093L14.5968 13.1812Z" fill="white"/>
<path d="M14.3109 13.1812L14.4328 13.2702L14.4749 13.2093L14.3109 13.1812Z" fill="white"/>
<path d="M14.3109 13.1812H14.4609V13.2562L14.3109 13.1812Z" fill="white"/>
<path d="M14.5407 13.3496L14.4938 13.209L14.4235 13.2277L14.5407 13.3496Z" fill="white"/>
<path d="M14.5405 13.3502L14.4187 13.2611L14.4655 13.2002L14.5405 13.3502Z" fill="white"/>
<path d="M14.3626 13.3502L14.4845 13.2611L14.4423 13.2002L14.3626 13.3502Z" fill="white"/>
<path d="M14.3626 13.3496L14.4095 13.209L14.4798 13.2277L14.3626 13.3496Z" fill="white"/>
<path d="M14.9391 13.1621L14.9062 13.2559L14.9531 13.2699L14.9391 13.1621Z" fill="white"/>
<path d="M14.939 13.1621L14.9671 13.2559L14.9203 13.2699L14.939 13.1621Z" fill="white"/>
<path d="M15.0327 13.2324H14.9343V13.2793L15.0327 13.2324Z" fill="white"/>
<path d="M15.0329 13.2324L14.9532 13.2887L14.9251 13.2512L15.0329 13.2324Z" fill="white"/>
<path d="M14.8405 13.2324L14.9249 13.2887L14.953 13.2512L14.8405 13.2324Z" fill="white"/>
<path d="M14.8405 13.2324H14.9437V13.2793L14.8405 13.2324Z" fill="white"/>
<path d="M14.9953 13.3408L14.9671 13.2471L14.9203 13.2611L14.9953 13.3408Z" fill="white"/>
<path d="M14.9954 13.3406L14.9157 13.2844L14.9438 13.2422L14.9954 13.3406Z" fill="white"/>
<path d="M14.8782 13.3406L14.9579 13.2844L14.9298 13.2422L14.8782 13.3406Z" fill="white"/>
<path d="M14.8782 13.3408L14.911 13.2471L14.9579 13.2611L14.8782 13.3408Z" fill="white"/>
<path d="M14.5969 13.4111L14.5547 13.533L14.6156 13.5518L14.5969 13.4111Z" fill="white"/>
<path d="M14.597 13.4111L14.6345 13.533L14.5735 13.5518L14.597 13.4111Z" fill="white"/>
<path d="M14.7141 13.5H14.5876V13.5609L14.7141 13.5Z" fill="white"/>
<path d="M14.7141 13.5L14.6109 13.575L14.5781 13.5234L14.7141 13.5Z" fill="white"/>
<path d="M14.4749 13.5L14.5781 13.575L14.6156 13.5234L14.4749 13.5Z" fill="white"/>
<path d="M14.4749 13.5H14.6015V13.5609L14.4749 13.5Z" fill="white"/>
<path d="M14.6671 13.6404L14.6296 13.5186L14.5687 13.5373L14.6671 13.6404Z" fill="white"/>
<path d="M14.6671 13.6402L14.5687 13.5652L14.6062 13.5137L14.6671 13.6402Z" fill="white"/>
<path d="M14.5218 13.6402L14.6249 13.5652L14.5874 13.5137L14.5218 13.6402Z" fill="white"/>
<path d="M14.5218 13.6404L14.5593 13.5186L14.6203 13.5373L14.5218 13.6404Z" fill="white"/>
<path d="M13.753 14.1465L13.7155 14.2637L13.7718 14.2824L13.753 14.1465Z" fill="white"/>
<path d="M13.7532 14.1465L13.7907 14.2637L13.7298 14.2824L13.7532 14.1465Z" fill="white"/>
<path d="M13.8703 14.2314H13.7484V14.2971L13.8703 14.2314Z" fill="white"/>
<path d="M13.8703 14.2314L13.7719 14.3064L13.7344 14.2549L13.8703 14.2314Z" fill="white"/>
<path d="M13.636 14.2314L13.7345 14.3064L13.772 14.2549L13.636 14.2314Z" fill="white"/>
<path d="M13.636 14.2314H13.7579V14.2971L13.636 14.2314Z" fill="white"/>
<path d="M13.8282 14.3721L13.786 14.2549L13.7298 14.2736L13.8282 14.3721Z" fill="white"/>
<path d="M13.8281 14.3719L13.7249 14.2969L13.7624 14.25L13.8281 14.3719Z" fill="white"/>
<path d="M13.6781 14.3719L13.7812 14.2969L13.7437 14.25L13.6781 14.3719Z" fill="white"/>
<path d="M13.6781 14.3721L13.7156 14.2549L13.7765 14.2736L13.6781 14.3721Z" fill="white"/>
<path d="M13.7483 14.5215L13.7155 14.6199L13.7624 14.634L13.7483 14.5215Z" fill="white"/>
<path d="M13.7485 14.5215L13.7766 14.6199L13.7298 14.634L13.7485 14.5215Z" fill="white"/>
<path d="M13.8422 14.5918H13.7438V14.6434L13.8422 14.5918Z" fill="white"/>
<path d="M13.8422 14.5918L13.7625 14.6527L13.7344 14.6105L13.8422 14.5918Z" fill="white"/>
<path d="M13.6546 14.5918L13.7343 14.6527L13.7624 14.6105L13.6546 14.5918Z" fill="white"/>
<path d="M13.6546 14.5918H13.7531V14.6434L13.6546 14.5918Z" fill="white"/>
<path d="M13.8048 14.7046L13.7766 14.6108L13.7298 14.6249L13.8048 14.7046Z" fill="white"/>
<path d="M13.8046 14.7049L13.7249 14.6439L13.7531 14.6064L13.8046 14.7049Z" fill="white"/>
<path d="M13.6875 14.7049L13.7719 14.6439L13.7391 14.6064L13.6875 14.7049Z" fill="white"/>
<path d="M13.6875 14.7046L13.7203 14.6108L13.7672 14.6249L13.6875 14.7046Z" fill="white"/>
<path d="M14.0999 13.8936L14.0671 13.992L14.1187 14.0061L14.0999 13.8936Z" fill="white"/>
<path d="M14.1001 13.8936L14.1329 13.992L14.0813 14.0061L14.1001 13.8936Z" fill="white"/>
<path d="M14.1938 13.9639H14.0954V14.0154L14.1938 13.9639Z" fill="white"/>
<path d="M14.1937 13.9639L14.1141 14.0248L14.0859 13.9826L14.1937 13.9639Z" fill="white"/>
<path d="M14.0062 13.9639L14.0859 14.0248L14.114 13.9826L14.0062 13.9639Z" fill="white"/>
<path d="M14.0062 13.9639H14.1046V14.0154L14.0062 13.9639Z" fill="white"/>
<path d="M14.161 14.0762L14.1282 13.9824L14.0813 13.9965L14.161 14.0762Z" fill="white"/>
<path d="M14.1609 14.0765L14.0765 14.0155L14.1093 13.978L14.1609 14.0765Z" fill="white"/>
<path d="M14.0437 14.0765L14.1234 14.0155L14.0905 13.978L14.0437 14.0765Z" fill="white"/>
<path d="M14.0437 14.0762L14.0718 13.9824L14.1187 13.9965L14.0437 14.0762Z" fill="white"/>
<path d="M14.3812 13.6924L14.3438 13.8143L14.4 13.833L14.3812 13.6924Z" fill="white"/>
<path d="M14.3813 13.6924L14.4188 13.8143L14.3626 13.833L14.3813 13.6924Z" fill="white"/>
<path d="M14.4985 13.7812H14.3766V13.8422L14.4985 13.7812Z" fill="white"/>
<path d="M14.4985 13.7812L14.4001 13.8516L14.3626 13.8047L14.4985 13.7812Z" fill="white"/>
<path d="M14.264 13.7812L14.3624 13.8516L14.3999 13.8047L14.264 13.7812Z" fill="white"/>
<path d="M14.264 13.7812H14.3859V13.8422L14.264 13.7812Z" fill="white"/>
<path d="M14.4562 13.917L14.414 13.7998L14.3578 13.8186L14.4562 13.917Z" fill="white"/>
<path d="M14.4563 13.9168L14.3532 13.8465L14.3907 13.7949L14.4563 13.9168Z" fill="white"/>
<path d="M14.3063 13.9168L14.4094 13.8465L14.3719 13.7949L14.3063 13.9168Z" fill="white"/>
<path d="M14.3063 13.917L14.3485 13.7998L14.4047 13.8186L14.3063 13.917Z" fill="white"/>
<path d="M13.7392 13.8281L13.7063 13.9219L13.7532 13.9406L13.7392 13.8281Z" fill="white"/>
<path d="M13.7391 13.8281L13.7672 13.9219L13.7204 13.9406L13.7391 13.8281Z" fill="white"/>
<path d="M13.8328 13.8984H13.7344V13.9453L13.8328 13.8984Z" fill="white"/>
<path d="M13.8328 13.8984L13.7531 13.9547L13.7249 13.9172L13.8328 13.8984Z" fill="white"/>
<path d="M13.6452 13.8984L13.7249 13.9547L13.753 13.9172L13.6452 13.8984Z" fill="white"/>
<path d="M13.6452 13.8984H13.7437V13.9453L13.6452 13.8984Z" fill="white"/>
<path d="M13.7954 14.0105L13.7672 13.9121L13.7204 13.9262L13.7954 14.0105Z" fill="white"/>
<path d="M13.7952 14.0105L13.7155 13.9496L13.7437 13.9121L13.7952 14.0105Z" fill="white"/>
<path d="M13.6781 14.0105L13.7624 13.9496L13.7296 13.9121L13.6781 14.0105Z" fill="white"/>
<path d="M13.6781 14.0105L13.7109 13.9121L13.7578 13.9262L13.6781 14.0105Z" fill="white"/>
<path d="M10.6688 12.0186L10.6266 12.1357L10.6875 12.1545L10.6688 12.0186Z" fill="white"/>
<path d="M10.6687 12.0186L10.7062 12.1357L10.6452 12.1545L10.6687 12.0186Z" fill="white"/>
<path d="M10.786 12.103H10.6595V12.164L10.786 12.103Z" fill="white"/>
<path d="M10.786 12.103L10.6829 12.178L10.65 12.1265L10.786 12.103Z" fill="white"/>
<path d="M10.5469 12.103L10.65 12.178L10.6875 12.1265L10.5469 12.103Z" fill="white"/>
<path d="M10.5469 12.103H10.6734V12.164L10.5469 12.103Z" fill="white"/>
<path d="M10.7391 12.2437L10.7016 12.1265L10.6406 12.1452L10.7391 12.2437Z" fill="white"/>
<path d="M10.7391 12.2438L10.6406 12.1688L10.6781 12.1172L10.7391 12.2438Z" fill="white"/>
<path d="M10.5938 12.2438L10.6922 12.1688L10.6594 12.1172L10.5938 12.2438Z" fill="white"/>
<path d="M10.5938 12.2437L10.6313 12.1265L10.6922 12.1452L10.5938 12.2437Z" fill="white"/>
<path d="M12.9516 11.7236L12.9235 11.8174L12.9704 11.8361L12.9516 11.7236Z" fill="white"/>
<path d="M12.9516 11.7236L12.9844 11.8174L12.9375 11.8361L12.9516 11.7236Z" fill="white"/>
<path d="M13.0454 11.7939H12.9469V11.8408L13.0454 11.7939Z" fill="white"/>
<path d="M13.0453 11.7939L12.9656 11.8502L12.9375 11.8127L13.0453 11.7939Z" fill="white"/>
<path d="M12.8578 11.7939L12.9374 11.8502L12.9656 11.8127L12.8578 11.7939Z" fill="white"/>
<path d="M12.8578 11.7939H12.9562V11.8408L12.8578 11.7939Z" fill="white"/>
<path d="M13.0126 11.9061L12.9798 11.8076L12.9329 11.8264L13.0126 11.9061Z" fill="white"/>
<path d="M13.0124 11.9059L12.9281 11.8449L12.9609 11.8027L13.0124 11.9059Z" fill="white"/>
<path d="M12.8952 11.9059L12.9749 11.8449L12.9468 11.8027L12.8952 11.9059Z" fill="white"/>
<path d="M12.8952 11.9061L12.9234 11.8076L12.9702 11.8264L12.8952 11.9061Z" fill="white"/>
<path d="M12 13.4199L11.9531 13.5652L12.0234 13.5887L12 13.4199Z" fill="white"/>
<path d="M12 13.4199L12.0469 13.5652L11.9766 13.5887L12 13.4199Z" fill="white"/>
<path d="M12.1406 13.5234H11.9906V13.5984L12.1406 13.5234Z" fill="white"/>
<path d="M12.1406 13.5234L12.0234 13.6125L11.9766 13.5516L12.1406 13.5234Z" fill="white"/>
<path d="M11.8594 13.5234L11.9766 13.6125L12.0234 13.5516L11.8594 13.5234Z" fill="white"/>
<path d="M11.8594 13.5234H12.0094V13.5984L11.8594 13.5234Z" fill="white"/>
<path d="M12.0891 13.6924L12.0423 13.5518L11.972 13.5752L12.0891 13.6924Z" fill="white"/>
<path d="M12.089 13.692L11.9671 13.6029L12.0093 13.542L12.089 13.692Z" fill="white"/>
<path d="M11.9109 13.692L12.0327 13.6029L11.9905 13.542L11.9109 13.692Z" fill="white"/>
<path d="M11.9109 13.6924L11.9577 13.5518L12.028 13.5752L11.9109 13.6924Z" fill="white"/>
<path d="M12.4031 12.75L12.3656 12.8672L12.4265 12.8906L12.4031 12.75Z" fill="white"/>
<path d="M12.4032 12.75L12.4454 12.8672L12.3844 12.8906L12.4032 12.75Z" fill="white"/>
<path d="M12.525 12.8389H12.3984V12.8998L12.525 12.8389Z" fill="white"/>
<path d="M12.5251 12.8389L12.4219 12.9092L12.3844 12.8576L12.5251 12.8389Z" fill="white"/>
<path d="M12.2859 12.8389L12.389 12.9092L12.4218 12.8576L12.2859 12.8389Z" fill="white"/>
<path d="M12.2859 12.8389H12.4124V12.8998L12.2859 12.8389Z" fill="white"/>
<path d="M12.478 12.9746L12.4405 12.8574L12.3796 12.8762L12.478 12.9746Z" fill="white"/>
<path d="M12.4781 12.9749L12.375 12.9046L12.4125 12.853L12.4781 12.9749Z" fill="white"/>
<path d="M12.3327 12.9749L12.4312 12.9046L12.3937 12.853L12.3327 12.9749Z" fill="white"/>
<path d="M12.3327 12.9746L12.3702 12.8574L12.4312 12.8762L12.3327 12.9746Z" fill="white"/>
<path d="M12 12.4355L11.9625 12.5574L12.0188 12.5762L12 12.4355Z" fill="white"/>
<path d="M11.9999 12.4355L12.0374 12.5574L11.9812 12.5762L11.9999 12.4355Z" fill="white"/>
<path d="M12.1173 12.5249H11.9954V12.5858L12.1173 12.5249Z" fill="white"/>
<path d="M12.1171 12.5249L12.0187 12.5952L11.9812 12.5437L12.1171 12.5249Z" fill="white"/>
<path d="M11.8828 12.5249L11.9812 12.5952L12.0187 12.5437L11.8828 12.5249Z" fill="white"/>
<path d="M11.8828 12.5249H12.0047V12.5858L11.8828 12.5249Z" fill="white"/>
<path d="M12.075 12.6611L12.0328 12.5439L11.9766 12.5627L12.075 12.6611Z" fill="white"/>
<path d="M12.0751 12.6609L11.972 12.5906L12.0095 12.5391L12.0751 12.6609Z" fill="white"/>
<path d="M11.9251 12.6609L12.0282 12.5906L11.9907 12.5391L11.9251 12.6609Z" fill="white"/>
<path d="M11.9251 12.6611L11.9673 12.5439L12.0235 12.5627L11.9251 12.6611Z" fill="white"/>
<path d="M11.6484 12.7783L11.6156 12.8721L11.6625 12.8861L11.6484 12.7783Z" fill="white"/>
<path d="M11.6484 12.7783L11.6765 12.8721L11.6296 12.8861L11.6484 12.7783Z" fill="white"/>
<path d="M11.7423 12.8438H11.6438V12.8953L11.7423 12.8438Z" fill="white"/>
<path d="M11.7422 12.8438L11.6625 12.9047L11.6344 12.8625L11.7422 12.8438Z" fill="white"/>
<path d="M11.5547 12.8438L11.6344 12.9047L11.6625 12.8625L11.5547 12.8438Z" fill="white"/>
<path d="M11.5547 12.8438H11.6531V12.8953L11.5547 12.8438Z" fill="white"/>
<path d="M11.7046 12.9561L11.6765 12.8623L11.6296 12.8764L11.7046 12.9561Z" fill="white"/>
<path d="M11.7047 12.9559L11.625 12.8996L11.6531 12.8574L11.7047 12.9559Z" fill="white"/>
<path d="M11.5875 12.9559L11.6719 12.8996L11.6391 12.8574L11.5875 12.9559Z" fill="white"/>
<path d="M11.5875 12.9561L11.6204 12.8623L11.6672 12.8764L11.5875 12.9561Z" fill="white"/>
<path d="M11.8218 13.0449L11.8031 13.1152L11.8359 13.1246L11.8218 13.0449Z" fill="white"/>
<path d="M11.8219 13.0449L11.8453 13.1152L11.8125 13.1246L11.8219 13.0449Z" fill="white"/>
<path d="M11.8922 13.0967H11.8219V13.1342L11.8922 13.0967Z" fill="white"/>
<path d="M11.8922 13.0967L11.8359 13.1389L11.8125 13.1107L11.8922 13.0967Z" fill="white"/>
<path d="M11.7562 13.0967L11.8125 13.1389L11.8359 13.1107L11.7562 13.0967Z" fill="white"/>
<path d="M11.7562 13.0967H11.8265V13.1342L11.7562 13.0967Z" fill="white"/>
<path d="M11.8642 13.1768L11.8454 13.1064L11.8079 13.1205L11.8642 13.1768Z" fill="white"/>
<path d="M11.8642 13.1768L11.8079 13.1346L11.8313 13.1064L11.8642 13.1768Z" fill="white"/>
<path d="M11.7796 13.1768L11.8406 13.1346L11.8171 13.1064L11.7796 13.1768Z" fill="white"/>
<path d="M11.7796 13.1768L11.8031 13.1064L11.8359 13.1205L11.7796 13.1768Z" fill="white"/>
<path d="M13.05 14.2314L13.0078 14.3533L13.0687 14.3721L13.05 14.2314Z" fill="white"/>
<path d="M13.0501 14.2314L13.0876 14.3533L13.0266 14.3721L13.0501 14.2314Z" fill="white"/>
<path d="M13.1672 14.3154H13.0407V14.3811L13.1672 14.3154Z" fill="white"/>
<path d="M13.1673 14.3154L13.0642 14.3904L13.0266 14.3389L13.1673 14.3154Z" fill="white"/>
<path d="M12.9281 14.3154L13.0312 14.3904L13.0687 14.3389L12.9281 14.3154Z" fill="white"/>
<path d="M12.9281 14.3154H13.0546V14.3811L12.9281 14.3154Z" fill="white"/>
<path d="M13.1203 14.4561L13.0828 14.3389L13.0218 14.3576L13.1203 14.4561Z" fill="white"/>
<path d="M13.1203 14.4559L13.0218 14.3855L13.0546 14.334L13.1203 14.4559Z" fill="white"/>
<path d="M12.9749 14.4559L13.0734 14.3855L13.0406 14.334L12.9749 14.4559Z" fill="white"/>
<path d="M12.9749 14.4561L13.0124 14.3389L13.0734 14.3576L12.9749 14.4561Z" fill="white"/>
<path d="M13.3452 13.9453L13.3171 14.0437L13.364 14.0578L13.3452 13.9453Z" fill="white"/>
<path d="M13.3454 13.9453L13.3782 14.0437L13.3313 14.0578L13.3454 13.9453Z" fill="white"/>
<path d="M13.4437 14.0156H13.3405V14.0672L13.4437 14.0156Z" fill="white"/>
<path d="M13.4438 14.0156L13.3641 14.0766L13.3313 14.0344L13.4438 14.0156Z" fill="white"/>
<path d="M13.2516 14.0156L13.3313 14.0766L13.3641 14.0344L13.2516 14.0156Z" fill="white"/>
<path d="M13.2516 14.0156H13.3547V14.0672L13.2516 14.0156Z" fill="white"/>
<path d="M13.4062 14.1279L13.3734 14.0342L13.3265 14.0482L13.4062 14.1279Z" fill="white"/>
<path d="M13.4062 14.1277L13.3265 14.0715L13.3546 14.0293L13.4062 14.1277Z" fill="white"/>
<path d="M13.2891 14.1277L13.3688 14.0715L13.3406 14.0293L13.2891 14.1277Z" fill="white"/>
<path d="M13.2891 14.1279L13.3219 14.0342L13.3688 14.0482L13.2891 14.1279Z" fill="white"/>
<path d="M12.7734 13.8608L12.7406 13.9546L12.7874 13.9733L12.7734 13.8608Z" fill="white"/>
<path d="M12.7734 13.8608L12.8015 13.9546L12.7546 13.9733L12.7734 13.8608Z" fill="white"/>
<path d="M12.8673 13.9312H12.7688V13.9827L12.8673 13.9312Z" fill="white"/>
<path d="M12.8671 13.9312L12.7874 13.9874L12.7546 13.9499L12.8671 13.9312Z" fill="white"/>
<path d="M12.6751 13.9312L12.7595 13.9874L12.7876 13.9499L12.6751 13.9312Z" fill="white"/>
<path d="M12.6751 13.9312H12.7782V13.9827L12.6751 13.9312Z" fill="white"/>
<path d="M12.8297 14.0438L12.8016 13.9453L12.75 13.9641L12.8297 14.0438Z" fill="white"/>
<path d="M12.8297 14.0438L12.75 13.9828L12.7781 13.9453L12.8297 14.0438Z" fill="white"/>
<path d="M12.7126 14.0438L12.7922 13.9828L12.7641 13.9453L12.7126 14.0438Z" fill="white"/>
<path d="M12.7126 14.0438L12.7454 13.9453L12.7922 13.9641L12.7126 14.0438Z" fill="white"/>
<path d="M10.5937 13.7061L10.5515 13.8467L10.6218 13.8748L10.5937 13.7061Z" fill="white"/>
<path d="M10.5938 13.7061L10.6406 13.8467L10.5703 13.8748L10.5938 13.7061Z" fill="white"/>
<path d="M10.7392 13.8096H10.5891V13.8846L10.7392 13.8096Z" fill="white"/>
<path d="M10.739 13.8096L10.6171 13.8986L10.5749 13.8377L10.739 13.8096Z" fill="white"/>
<path d="M10.4531 13.8096L10.575 13.8986L10.6172 13.8377L10.4531 13.8096Z" fill="white"/>
<path d="M10.4531 13.8096H10.6031V13.8846L10.4531 13.8096Z" fill="white"/>
<path d="M10.6829 13.978L10.636 13.8374L10.5657 13.8608L10.6829 13.978Z" fill="white"/>
<path d="M10.6828 13.9781L10.5609 13.8891L10.6078 13.8281L10.6828 13.9781Z" fill="white"/>
<path d="M10.5046 13.9781L10.6265 13.8891L10.5843 13.8281L10.5046 13.9781Z" fill="white"/>
<path d="M10.5046 13.978L10.5515 13.8374L10.6265 13.8608L10.5046 13.978Z" fill="white"/>
<path d="M12 14.6855L11.986 14.7371L12.0094 14.7418L12 14.6855Z" fill="white"/>
<path d="M12 14.6855L12.014 14.7371L11.9906 14.7418L12 14.6855Z" fill="white"/>
<path d="M12.047 14.7236H11.9954V14.7471L12.047 14.7236Z" fill="white"/>
<path d="M12.0468 14.7236L12.0093 14.7518L11.9906 14.733L12.0468 14.7236Z" fill="white"/>
<path d="M11.9531 14.7236L11.9953 14.7518L12.0094 14.733L11.9531 14.7236Z" fill="white"/>
<path d="M11.9531 14.7236H12.0047V14.7471L11.9531 14.7236Z" fill="white"/>
<path d="M12.0281 14.7793L12.014 14.7324L11.9906 14.7371L12.0281 14.7793Z" fill="white"/>
<path d="M12.0281 14.7796L11.9906 14.7468L12.0047 14.728L12.0281 14.7796Z" fill="white"/>
<path d="M11.972 14.7796L12.0095 14.7468L11.9954 14.728L11.972 14.7796Z" fill="white"/>
<path d="M11.972 14.7793L11.986 14.7324L12.0095 14.7371L11.972 14.7793Z" fill="white"/>
</svg>
