<svg width="280" height="40" viewBox="0 0 280 40" fill="none" xmlns="http://www.w3.org/2000/svg">
<g clip-path="url(#clip0)">
<path d="M263.616 5.88245H268.775V29.6753H279.999V33.8824H263.616V5.88245Z" fill="black"/>
<path d="M240.447 25.953L238.032 33.8824H232.53L241.735 5.88245H248.263L257.367 33.8824H251.888L249.351 25.953H240.447ZM248.456 22.0895L246.246 15.2024C245.714 13.506 245.243 11.5836 244.833 9.96949H244.75C244.341 11.5836 243.912 13.546 243.42 15.2024L241.25 22.0895H248.456Z" fill="black"/>
<path d="M218.184 10.1577H210.199V5.88245H231.371V10.1577H223.305V33.8824H218.184V10.1577Z" fill="black"/>
<path d="M159.547 5.88245H154.365V33.8824H159.547V5.88245Z" fill="black"/>
<path d="M189.779 32.3412C186.938 33.3448 183.949 33.8658 180.936 33.8824C176.286 33.8824 172.795 32.7059 170.19 30.2165C167.742 27.8942 166.32 24.2683 166.36 20.1224C166.36 11.4495 172.555 5.88245 181.638 5.88245C185.027 5.88245 187.673 6.58833 188.94 7.18362L187.816 11.2307C186.314 10.5695 184.467 10.0542 181.581 10.0542C175.706 10.0542 171.596 13.5177 171.596 19.9083C171.596 26.1365 175.424 29.8424 181.138 29.8424C182.924 29.8424 184.267 29.6071 184.928 29.28V22.4565H180.076V18.5012H189.781L189.779 32.3412Z" fill="black"/>
<path d="M203.547 5.88245H198.365V33.8824H203.547V5.88245Z" fill="black"/>
<path d="M123.959 6.44246C126.595 6.04928 129.258 5.86204 131.924 5.88246C137.045 5.88246 140.585 6.94128 143.108 9.06127C145.748 11.2189 147.369 14.5766 147.369 19.2518C147.369 24.1295 145.72 27.7859 143.108 30.1459C140.387 32.6236 136.025 33.8824 130.701 33.8824C127.78 33.8824 125.58 33.8236 123.959 33.6236V6.44246ZM128.96 29.7247C129.877 29.832 130.801 29.8721 131.723 29.8447C138.225 29.8847 142.088 26.3153 142.088 19.3718C142.128 13.3177 138.627 9.76009 132.364 9.76009C131.217 9.73362 130.071 9.82747 128.944 10.0401V29.7247H128.96Z" fill="black"/>
<path d="M117.008 19.6048C117.008 28.7059 111.496 33.8824 104.003 33.8824C96.3521 33.8824 91.5185 28.04 91.5185 20.0801C91.5185 11.7436 96.7526 5.88245 104.406 5.88245C112.335 5.88245 117.013 11.8824 117.013 19.6048H117.008ZM96.7549 20.0212C96.7549 25.5271 99.5298 29.9224 104.293 29.9224C109.091 29.9224 111.786 25.4871 111.786 19.8236C111.786 14.713 109.249 9.88244 104.293 9.88244C99.3767 9.88244 96.7549 14.4165 96.7549 20.0212" fill="black"/>
<path d="M84.824 5.88245H79.6417V33.8824H84.824V5.88245Z" fill="black"/>
<path d="M52.2936 5.88245H60.6158C64.4884 5.88245 67.2632 6.44951 68.9875 7.56245C70.7118 8.67538 71.5621 10.4589 71.5621 12.8871C71.5621 14.5342 71.1358 15.8848 70.3043 16.9765C69.4727 18.0683 68.2361 18.7389 66.6555 19.0212V19.2048C68.6224 19.5695 70.0805 20.2965 70.9944 21.3906C71.9084 22.4848 72.3936 23.9624 72.3936 25.8236C72.3936 28.3341 71.5221 30.32 69.7601 31.7365C67.9982 33.153 65.5625 33.8824 62.4272 33.8824H52.2983L52.2936 5.88245ZM56.8728 17.4424H61.2918C63.2156 17.4424 64.614 17.1389 65.4871 16.5318C66.3799 15.9248 66.8039 14.8848 66.8039 13.433C66.8039 12.1177 66.3186 11.1671 65.3905 10.5789C64.4624 9.99067 62.9172 9.68949 60.8514 9.68949H56.8728V17.4424ZM56.8728 21.1671V30.0353H61.7371C63.6639 30.0353 65.1032 29.6706 66.076 28.9436C67.0489 28.2165 67.5341 27.04 67.5341 25.4612C67.5341 24.0024 67.0277 22.9295 66.036 22.2212C65.0443 21.513 63.5226 21.1765 61.4944 21.1765L56.8728 21.1671Z" fill="black"/>
<path d="M37.218 36.3788C37.2189 36.8536 37.1261 37.324 36.945 37.763C36.7639 38.202 36.498 38.601 36.1624 38.9373C35.8268 39.2736 35.4282 39.5405 34.9893 39.7229C34.5504 39.9052 34.0798 39.9994 33.6045 40H19.3156V22.1177H33.6045C34.5612 22.1177 35.4789 22.4967 36.1563 23.1715C36.8337 23.8464 37.2155 24.7621 37.218 25.7177V36.3788Z" fill="black"/>
<path d="M37.218 14.3295C37.218 14.8009 37.1242 15.2675 36.9419 15.7023C36.7596 16.1371 36.4925 16.5313 36.1562 16.862C35.8199 17.1927 35.4211 17.4532 34.983 17.6284C34.545 17.8036 34.0763 17.8899 33.6045 17.8824H19.3156V0.000141931H33.6045C34.0769 -0.00358013 34.5454 0.0859908 34.983 0.263705C35.4206 0.44142 35.8188 0.703775 36.1546 1.03569C36.4903 1.36761 36.7572 1.76254 36.9397 2.19779C37.1221 2.63304 37.2167 3.10002 37.218 3.5719V14.3295Z" fill="#DE3838"/>
<path d="M15.0756 0.00012207H4.56509C1.9881 0.00012207 0 2.56012 0 5.73893V40H10.4093C12.9839 40 15.0756 37.4118 15.0756 34.24V0.00012207Z" fill="black"/>
</g>
<defs>
<clipPath id="clip0">
<rect width="280" height="40" fill="white"/>
</clipPath>
</defs>
</svg>
