<svg width="48" height="48" viewBox="0 0 48 48" fill="none" xmlns="http://www.w3.org/2000/svg">
<path d="M43.5181 28.3353C43.5488 28.1974 43.5795 28.0592 43.6102 27.9057C44.0299 25.0377 43.6191 23.3255 43.6103 22.9048C43.0996 19.8403 39.7737 6.94141 37.2126 6.07427C34.7743 5.2438 35.253 11.6364 35.2335 12.3799C35.2335 12.4718 35.2182 12.5634 35.2029 12.6553L35.2028 12.6562C35.2028 13.2555 34.9828 14.5988 34.4357 15.9548V15.9701C33.2014 19.0528 30.9967 20.315 29.7103 21.6006C28.0573 23.3646 28.895 25.111 26.4978 24.6316C26.0767 24.4361 24.8539 23.6724 23.6982 23.6727C22.5433 23.673 20.9008 24.6316 20.9008 24.6316C18.5035 25.1111 19.3413 23.3646 17.6883 21.6006C16.4018 20.3151 14.1972 19.0529 12.9629 15.9702V15.9548C12.4158 14.5989 12.1958 13.2555 12.1958 12.6563L12.1956 12.6554C12.1803 12.5635 12.1651 12.4719 12.1651 12.3799C12.1456 11.6365 12.6243 5.24383 10.186 6.07431C7.62488 6.94145 4.299 19.8404 3.78826 22.9048C3.77952 23.3255 3.36865 25.0377 3.78841 27.9058C3.8191 28.0592 3.84978 28.1974 3.88047 28.3354C4.03358 29.3308 4.38123 30.4053 4.46347 30.7748C4.47881 30.7748 4.47881 30.7901 4.47881 30.8054C4.494 30.8361 4.5095 30.8822 4.5095 30.913C5.66553 33.7959 7.33891 41.0694 12.7943 41.0694C13.8222 41.0694 14.8348 40.6858 15.6479 40.0416C18.8546 37.5609 16.2509 33.911 19.1766 33.1561C20.9251 32.705 21.8925 34.1234 23.6982 34.1236C25.5048 34.1238 26.4727 32.7044 28.2219 33.1561C31.1475 33.9116 28.544 37.5609 31.7506 40.0416C32.5638 40.6858 33.5764 41.0693 34.6043 41.0693C40.0597 41.0693 41.733 33.7959 42.8891 30.913C42.8891 30.8821 42.9046 30.8361 42.9198 30.8054C42.9198 30.7901 42.9198 30.7747 42.9351 30.7747C43.0173 30.4053 43.365 29.3307 43.5181 28.3353Z" fill="#F26674"/>
</svg>
