<svg width="48" height="48" viewBox="0 0 48 48" fill="none" xmlns="http://www.w3.org/2000/svg">
<g clip-path="url(#clip0_311_8813)">
<g clip-path="url(#clip1_311_8813)">
<path d="M18.6524 23.9774C20.7374 22.8299 22.4549 21.4574 23.7673 19.9124L23.8723 19.7849L23.9773 19.9124C25.2898 21.4574 27.0148 22.8374 29.0923 23.9774L29.2048 20.7824C27.0148 19.2899 25.7323 17.8424 25.3948 17.1974V17.1674V3.79492H22.3499V17.1674V17.1974C22.0124 17.8349 20.7599 19.2824 18.5474 20.7674" fill="#889DAF"/>
<path d="M7.49231 42.6374C5.61732 43.5074 4.32732 44.2649 3.40483 44.5874C2.21983 45.0074 0.982332 44.1749 0.869833 42.9299C-1.17766 19.7475 12.5398 9.705 16.1098 8.895C17.7148 8.5275 18.4723 9.4125 18.8248 10.335C19.0573 10.95 19.1173 11.9925 18.9523 12.6225C18.0223 16.1475 19.1623 20.7975 18.8023 25.5449L19.0123 28.6199C19.0798 29.6099 19.2373 30.5924 19.3798 31.5824C19.4623 32.1449 19.4773 32.7224 19.4248 33.2849C19.2973 34.5149 18.9223 36.1349 17.8873 37.6199C16.8973 39.0449 15.3823 40.0199 13.7023 40.4774C12.1573 40.9049 9.56981 41.6774 7.49231 42.6374Z" fill="#F26674"/>
<path d="M40.3757 42.6374C42.2507 43.5074 43.5407 44.2649 44.4632 44.5874C45.6481 45.0074 46.8856 44.1749 46.9981 42.9299C49.0456 19.7475 35.3282 9.705 31.7582 8.895C30.1532 8.5275 29.3957 9.4125 29.0432 10.335C28.8107 10.95 28.7507 11.9925 28.9157 12.6225C29.8457 16.1475 28.7057 20.7975 29.0657 25.5449L28.8557 28.6199C28.7882 29.6099 28.6307 30.5924 28.4882 31.5824C28.4057 32.1449 28.3907 32.7224 28.4432 33.2849C28.5707 34.5149 28.9457 36.1349 29.9807 37.6199C30.9707 39.0449 32.4857 40.0199 34.1657 40.4774C35.7107 40.9049 38.2982 41.6774 40.3757 42.6374Z" fill="#F26674"/>
</g>
</g>
<defs>
<clipPath id="clip0_311_8813">
<rect width="47.9999" height="48" fill="white"/>
</clipPath>
<clipPath id="clip1_311_8813">
<rect width="46.7999" height="41.3999" fill="white" transform="translate(0.599854 3.59998)"/>
</clipPath>
</defs>
</svg>
