<svg width="80" height="80" viewBox="0 0 80 80" fill="none" xmlns="http://www.w3.org/2000/svg">
<path d="M47.5495 77H30.632V69.5501C30.632 67.9205 29.3128 66.6012 27.6831 66.6012H21.8629C18.6812 66.6012 16.1203 64.0403 16.1203 60.8586V53.0207C16.1203 51.9342 12.9312 51.5432 12 51L9.30006 49.9853C8.05841 49.3645 7.6704 47.8125 8.29122 46.5708L15.2667 37.8105C15.7323 37.0345 15.8875 36.1032 15.7323 35.172C15.1114 31.059 14.025 17.9441 25.8207 8.8646C35.6762 1.25951 49.4896 1.1043 59.8108 8.08857C59.966 8.16617 60.1212 8.32138 60.2764 8.39898C69.8991 15.3056 73.5465 27.8773 69.4335 39.0522C68.2695 42.2339 66.6398 45.9588 64.5445 49.451C61.9836 53.7967 60.8196 58.9185 61.2852 63.9627L62.4493 77H47.5495Z" fill="#F26674"/>
</svg>
