<svg width="48" height="48" viewBox="0 0 48 48" fill="none" xmlns="http://www.w3.org/2000/svg">
<g clip-path="url(#clip0_311_8787)">
<g clip-path="url(#clip1_311_8787)">
<g clip-path="url(#clip2_311_8787)">
<path d="M1.04701 42.8611L9.89287 34.0154C11.0831 35.5423 12.4572 36.9164 13.9841 38.1066L5.13838 46.9525C4.86976 47.2212 4.55084 47.4343 4.19983 47.5797C3.84883 47.7251 3.47263 47.8 3.0927 47.8C2.71277 47.8 2.33656 47.7251 1.98556 47.5797C1.63455 47.4343 1.31563 47.2212 1.04701 46.9525C0.778334 46.6839 0.565205 46.365 0.419795 46.014C0.274386 45.663 0.199543 45.2867 0.199543 44.9068C0.199543 44.5269 0.274386 44.1507 0.419795 43.7997C0.565205 43.4487 0.778334 43.1298 1.04701 42.8611Z" fill="#425B72"/>
<path fill-rule="evenodd" clip-rule="evenodd" d="M26.4969 43.0053C14.6213 43.0053 4.99419 33.3783 4.99419 21.5027C4.99419 9.62707 14.6213 0 26.4969 0C38.3724 0 47.9995 9.62707 47.9995 21.5027C47.9995 33.3783 38.3724 43.0053 26.4969 43.0053ZM26.4474 39.5711C16.4958 39.5711 8.42839 31.5037 8.42839 21.5521C8.42839 11.6005 16.4958 3.53314 26.4474 3.53314C36.399 3.53314 44.4664 11.6005 44.4664 21.5521C44.4664 31.5037 36.399 39.5711 26.4474 39.5711Z" fill="#889DAF"/>
</g>
<path d="M26.3996 37.7999C35.3466 37.7999 42.5995 30.547 42.5995 21.6C42.5995 12.653 35.3466 5.40002 26.3996 5.40002C17.4526 5.40002 10.1996 12.653 10.1996 21.6C10.1996 30.547 17.4526 37.7999 26.3996 37.7999Z" fill="white"/>
<path fill-rule="evenodd" clip-rule="evenodd" d="M42.5009 19.8018C42.4509 19.8006 42.4008 19.8 42.3505 19.8C38.9093 19.8 36.1196 22.5898 36.1196 26.031C36.1196 28.3498 37.3862 30.3728 39.2653 31.4458C41.3567 28.7171 42.5995 25.3037 42.5995 21.6C42.5995 20.9922 42.5661 20.3923 42.5009 19.8018Z" fill="#F26674"/>
<path fill-rule="evenodd" clip-rule="evenodd" d="M12.5591 30.0235C12.882 30.0752 13.2132 30.102 13.5506 30.102C16.9919 30.102 19.7816 27.3123 19.7816 23.871C19.7816 20.4297 16.9919 17.64 13.5506 17.64C12.4462 17.64 11.4089 17.9274 10.5094 18.4313C10.3062 19.4561 10.1996 20.5156 10.1996 21.6C10.1996 24.6853 11.0621 27.5691 12.5591 30.0235Z" fill="#F26674"/>
<path d="M14.2361 28.3263C13.7327 28.3263 13.2817 27.9727 13.1773 27.46C13.0584 26.8746 13.4363 26.3036 14.0216 26.1843C14.638 26.0591 15.1696 25.6999 15.518 25.1731C15.8668 24.6463 15.9896 24.0169 15.8642 23.4003C15.7573 22.8747 15.4838 22.4143 15.0736 22.0686C14.6165 21.6837 14.5581 21.0015 14.943 20.5445C15.3277 20.0876 16.0101 20.0292 16.467 20.4139C17.2432 21.0677 17.7819 21.975 17.984 22.9689C18.2246 24.1516 17.9896 25.3584 17.322 26.367C16.6545 27.3755 15.6354 28.0636 14.4527 28.3042C14.3801 28.3191 14.3077 28.3263 14.2361 28.3263Z" fill="#C4455E"/>
<path fill-rule="evenodd" clip-rule="evenodd" d="M16.4306 14.9821C19.8719 14.9821 22.6616 12.1924 22.6616 8.75114C22.6616 7.76297 22.4316 6.82852 22.0222 5.99841C17.9167 7.14793 14.4701 9.87431 12.3767 13.4832C13.4664 14.4176 14.8826 14.9821 16.4306 14.9821Z" fill="#F26674"/>
<path fill-rule="evenodd" clip-rule="evenodd" d="M16.0573 12.34C16.1617 12.8527 16.6127 13.2063 17.1161 13.2063C17.1877 13.2063 17.2601 13.1991 17.3327 13.1842C18.5154 12.9436 19.5345 12.2555 20.202 11.247C20.8696 10.2384 21.1046 9.03158 20.864 7.84891C20.7714 7.39368 20.6082 6.95658 20.384 6.55371C19.7089 6.82386 19.0562 7.13814 18.4295 7.49295C18.5799 7.73116 18.6864 7.99621 18.7442 8.28032C18.8696 8.89685 18.7468 9.52629 18.3981 10.0531C18.0496 10.5799 17.518 10.9391 16.9016 11.0643C16.3163 11.1836 15.9384 11.7546 16.0573 12.34Z" fill="#C4455E"/>
<path d="M29.9331 22.0754C33.3743 22.0754 36.1641 19.2857 36.1641 15.8444C36.1641 12.4031 33.3743 9.6134 29.9331 9.6134C26.4918 9.6134 23.7021 12.4031 23.7021 15.8444C23.7021 19.2857 26.4918 22.0754 29.9331 22.0754Z" fill="#F26674"/>
<path d="M30.6186 20.2997C30.1151 20.2997 29.6642 19.946 29.5597 19.4334C29.4408 18.848 29.8187 18.2769 30.4041 18.1577C31.0205 18.0325 31.552 17.6733 31.9005 17.1465C32.2492 16.6197 32.372 15.9902 32.2466 15.3737C32.1397 14.8481 31.8662 14.3877 31.456 14.042C30.999 13.6571 30.9406 12.9748 31.3254 12.5179C31.7101 12.061 32.3926 12.0026 32.8495 12.3873C33.6257 13.0411 34.1643 13.9484 34.3665 14.9423C34.6071 16.125 34.372 17.3318 33.7045 18.3404C33.0369 19.3489 32.0179 20.037 30.8352 20.2776C30.7625 20.2925 30.6902 20.2997 30.6186 20.2997Z" fill="#C4455E"/>
<path fill-rule="evenodd" clip-rule="evenodd" d="M30.8427 37.1831C29.4308 37.5849 27.9403 37.7999 26.3996 37.7999C25.4168 37.7999 24.4544 37.7124 23.5198 37.5447C21.8228 36.4315 20.7021 34.5121 20.7021 32.331C20.7021 28.8897 23.4918 26.1 26.9331 26.1C30.3743 26.1 33.1641 28.8897 33.1641 32.331C33.1641 34.2917 32.2584 36.0409 30.8427 37.1831Z" fill="#F26674"/>
<path d="M27.6186 37.0996C27.1152 37.0996 26.6642 36.746 26.5598 36.2333C26.4409 35.6479 26.8188 35.0769 27.4041 34.9577C28.0205 34.8324 28.5521 34.4732 28.9006 33.9464C29.2493 33.4196 29.3721 32.7902 29.2467 32.1736C29.1398 31.648 28.8663 31.1876 28.4561 30.8419C27.999 30.4571 27.9406 29.7748 28.3255 29.3179C28.7102 28.8609 29.3926 28.8026 29.8496 29.1873C30.6257 29.841 31.1644 30.7484 31.3665 31.7422C31.6071 32.9249 31.3721 34.1317 30.7045 35.1403C30.037 36.1488 29.0179 36.8369 27.8352 37.0775C27.7626 37.0924 27.6902 37.0996 27.6186 37.0996Z" fill="#C4455E"/>
</g>
</g>
<defs>
<clipPath id="clip0_311_8787">
<rect width="47.9999" height="48" fill="white" transform="translate(-0.000244141)"/>
</clipPath>
<clipPath id="clip1_311_8787">
<rect width="47.9997" height="47.9999" fill="white" transform="matrix(-1 0 0 1 47.9995 0)"/>
</clipPath>
<clipPath id="clip2_311_8787">
<rect width="47.9999" height="47.9999" fill="white" transform="matrix(-1 0 0 1 47.9995 0)"/>
</clipPath>
</defs>
</svg>
