<svg width="48" height="48" viewBox="0 0 48 48" fill="none" xmlns="http://www.w3.org/2000/svg">
<g clip-path="url(#clip0_383_316)">
<path d="M22.0716 3.93196L22.0531 3.92441L22.0343 3.9176L22.0174 3.91147C20.0076 3.1833 17.8889 2.84274 15.7622 2.90784C13.5807 2.91327 11.8007 3.49079 10.4019 4.50755C9.01235 5.51753 8.13146 6.86393 7.5725 8.19352L8.49435 8.58107L7.5725 8.19353C6.49932 10.7462 6.49967 13.5305 6.49981 14.646L6.49982 14.6724V14.6724V14.6725V14.6725L6.49982 14.6996C6.49982 14.6997 6.49982 14.6997 6.49982 14.6997C6.49984 18.5081 7.85344 21.3859 9.00606 23.8364L9.02756 23.8821L9.02756 23.8822L9.04951 23.9288C9.24693 24.3486 9.45636 24.7607 9.65409 25.1479L9.65414 25.148L9.70169 25.241L9.70179 25.2413L9.70314 25.2439L9.70328 25.2442C9.88694 25.6037 10.0595 25.9416 10.223 26.2806L11.1013 25.857L10.223 26.2806C10.5797 27.0203 10.8525 27.6847 11.0093 28.337L11.0094 28.3374C11.1205 28.7988 11.1741 29.473 11.206 30.4539C11.215 30.729 11.2221 31.0212 11.2297 31.3309L11.2299 31.3381C11.2477 32.0652 11.2677 32.8814 11.3187 33.7166L11.3209 33.7522L11.3232 33.7895C11.4764 36.3006 11.6559 39.2424 12.1662 41.7838C12.3398 42.658 12.7845 43.4674 13.4555 44.0743C14.1294 44.6839 14.9932 45.0526 15.9147 45.0957C16.8367 45.1389 17.7325 44.8523 18.4603 44.3033C19.1843 43.7571 19.6967 42.9873 19.9426 42.1301C20.8905 38.8648 21.8266 36.4729 22.7181 34.9177C23.1638 34.1401 23.5537 33.6516 23.8626 33.371C24.0733 33.1795 24.199 33.1261 24.2433 33.1123C24.3154 33.1325 24.7953 33.2939 25.6113 34.6287C26.523 36.1199 27.5143 38.551 28.5437 42.0857C28.7897 42.9426 29.302 43.7122 30.0259 44.2582C30.7537 44.8072 31.6496 45.0939 32.5715 45.0507C33.493 45.0075 34.3568 44.6388 35.0306 44.0293L34.3598 43.2877L35.0306 44.0293C35.7008 43.4231 36.1452 42.615 36.3193 41.7422C36.8316 39.2273 37.0108 36.2855 37.1642 33.7676L37.1665 33.7288L37.1665 33.7287L37.1688 33.6914L37.1688 33.6913C37.2197 32.8555 37.2395 32.0375 37.2572 31.3078L37.2573 31.3006C37.2648 30.9921 37.2719 30.7007 37.2807 30.426C37.3122 29.4447 37.3652 28.7619 37.477 28.2887C37.6338 27.6375 37.9062 26.9746 38.2627 26.2358L37.362 25.8013L38.2627 26.2358C38.4258 25.8977 38.5981 25.5605 38.7814 25.2019L38.7817 25.2011L38.7822 25.2001L38.7826 25.1995L38.8318 25.1031L38.8319 25.103C39.0297 24.7158 39.2392 24.3037 39.4367 23.8838C39.4367 23.8838 39.4367 23.8838 39.4367 23.8838L39.4535 23.848L39.4535 23.8479L39.4586 23.8371L39.4586 23.8371L39.4801 23.7914C40.6328 21.3408 41.9864 18.4629 41.9864 14.6546V14.6282V14.6281V14.6025C41.9865 13.5077 41.9869 10.7341 40.913 8.18629C40.3538 6.85962 39.4728 5.51515 38.0836 4.50635C36.6851 3.49078 34.9055 2.91327 32.724 2.90784C30.5973 2.84274 28.4786 3.1833 26.4688 3.91147L26.4688 3.91147L26.4519 3.9176L26.4331 3.92442L26.4145 3.93198L26.3979 3.93876C26.3979 3.93877 26.3979 3.93877 26.3979 3.93878C25.0083 4.50601 23.4778 4.50601 22.0883 3.93876L21.7127 4.85879L22.0883 3.93876L22.0716 3.93196ZM24.2614 33.1077C24.2614 33.1078 24.2606 33.1079 24.2588 33.1081L24.2614 33.1077Z" fill="white" stroke="white" stroke-width="2"/>
<path fill-rule="evenodd" clip-rule="evenodd" d="M27.116 5.69783C28.9101 5.04783 30.799 4.74638 32.6929 4.80779C40.0864 4.80779 40.0864 12.5027 40.0864 14.6546C40.0864 18.0378 38.8865 20.5892 37.7173 23.0752C36.9866 24.629 36.0352 26.1574 35.6289 27.8474C35.3057 29.2107 35.4117 31.2883 35.2724 33.5757C35.1157 36.1465 34.943 38.9823 34.4567 41.367C34.36 41.8561 34.1135 42.2969 33.7561 42.6202C33.3987 42.9435 32.9507 43.1308 32.4826 43.1528C32.0144 43.1747 31.5527 43.03 31.1701 42.7414C30.7876 42.4528 30.5058 42.0367 30.3692 41.5586C26.1866 27.194 21.9722 28.3206 18.1171 41.6036C17.9804 42.0817 17.6987 42.4978 17.3161 42.7864C16.9335 43.075 16.4718 43.2198 16.0037 43.1978C15.5355 43.1759 15.0875 42.9885 14.7301 42.6653C14.3727 42.342 14.1263 41.9011 14.0295 41.4121C13.5446 38.9984 13.3715 36.1613 13.2152 33.6009C13.0753 31.309 13.1808 29.2388 12.8566 27.8925C12.4503 26.2025 11.4997 24.6741 10.7689 23.1202C9.59973 20.6342 8.39984 18.0829 8.39984 14.6996C8.39984 12.5027 8.39984 4.80779 15.7934 4.80779C17.6873 4.74638 19.5761 5.04783 21.3702 5.69783C23.2201 6.45298 25.2662 6.45298 27.116 5.69783Z" fill="#374A68"/>
<path fill-rule="evenodd" clip-rule="evenodd" d="M28.0901 5.38177C27.7627 5.47586 27.4378 5.58123 27.116 5.69782C25.9753 6.16347 24.76 6.34199 23.5621 6.23337C24.448 6.68774 26.0584 7.56213 26.8255 8.36163C27.3064 8.86274 27.7408 9.39821 28.1123 9.8562C28.6496 10.5185 29.0555 11.0188 29.2802 11.0188C29.5866 11.0188 29.8931 10.692 29.8931 9.71131C29.8931 8.8521 28.7983 6.49616 28.0901 5.38177Z" fill="white"/>
</g>
<defs>
<clipPath id="clip0_383_316">
<rect width="48" height="48" fill="white"/>
</clipPath>
</defs>
</svg>
