<svg width="80" height="80" viewBox="0 0 80 80" fill="none" xmlns="http://www.w3.org/2000/svg">
<path d="M79.1892 49.5946V61.4729C79.1896 61.7026 79.1315 61.9286 79.0204 62.1296C78.9093 62.3305 78.7488 62.4999 78.554 62.6216C78.3593 62.7433 78.1367 62.8134 77.9074 62.8252C77.678 62.837 77.4494 62.7902 77.2432 62.6892L66.081 57.2838C63.3052 61.8954 59.3658 65.6963 54.6578 68.3052C49.9498 70.9142 44.6386 72.2397 39.2567 72.1486C21.6486 72.1621 7.31079 57.4865 7.31079 39.5135C7.31079 21.5405 21.6486 6.71619 39.2567 6.71619C56.8648 6.71619 71.1892 21.3919 71.1892 39.5135C71.1866 41.4017 71.0284 43.2864 70.7162 45.1486L78.3648 48.4189C78.5988 48.5176 78.8003 48.6803 78.9461 48.8882C79.0919 49.0961 79.1761 49.3409 79.1892 49.5946Z" fill="#374A68"/>
<path d="M13.527 53.7028C11.3959 49.6412 10.2022 45.1536 10.0338 40.57C9.86544 35.9863 10.7266 31.4232 12.5541 27.2163C12.6456 27.0023 12.6803 26.7682 12.6548 26.5368C12.6293 26.3055 12.5445 26.0846 12.4086 25.8957C12.2726 25.7067 12.0902 25.5561 11.8789 25.4584C11.6677 25.3606 11.4347 25.3191 11.2027 25.3379C8.77028 25.6352 0.864877 27.5946 0.864877 40.2028C0.810823 50.3244 6.60812 55.7298 12.3243 55.7298C12.5643 55.7356 12.8014 55.6774 13.0114 55.5611C13.2214 55.4449 13.3967 55.2748 13.5191 55.0684C13.6416 54.862 13.7069 54.6267 13.7083 54.3866C13.7097 54.1466 13.6471 53.9106 13.527 53.7028V53.7028Z" fill="#374A68"/>
<path d="M39.2973 11.8108C24.7838 11.8108 12.973 24.1486 12.973 39.2973C12.973 54.4459 24.7838 66.7838 39.2973 66.7838C53.8109 66.7838 65.6757 54.4594 65.6757 39.2973C65.6757 24.1351 53.8109 11.8108 39.2973 11.8108Z" fill="white"/>
<path d="M16.2974 26.0001C13.9716 30.4069 12.8425 35.3467 13.0227 40.3264C13.2029 45.306 14.6861 50.1513 17.3244 54.3784C17.5037 54.6642 17.7833 54.8725 18.1084 54.9625C18.4334 55.0525 18.7804 55.0177 19.0811 54.8649C23.4865 52.6487 26.4325 46.7568 26.4325 40.3109C26.4865 28.8244 17.7028 23.2974 16.2974 26.0001Z" fill="#374A68"/>
<path d="M79.1891 55.7297V58.973L77.0945 57.6216C60.7702 46.8919 58.1756 47.0541 58.0405 46.9865C56.5405 46.9865 54.2162 49.2838 51.4864 50.8919C51.1756 52.4595 50.1351 56.1622 47.7702 57.6487C47.6185 57.7682 47.4428 57.8539 47.2552 57.8998C47.0676 57.9458 46.8722 57.9509 46.6824 57.915C46.4926 57.879 46.3127 57.8028 46.1548 57.6915C45.997 57.5801 45.8648 57.4362 45.7673 57.2694C45.6698 57.1026 45.6092 56.9169 45.5895 56.7247C45.5698 56.5325 45.5916 56.3384 45.6534 56.1553C45.7151 55.9723 45.8154 55.8046 45.9474 55.6636C46.0795 55.5225 46.2402 55.4115 46.4189 55.3379C47.362 54.5599 48.0378 53.5061 48.3513 52.3243C47.3785 52.63 46.37 52.8071 45.3513 52.8514C44.9929 52.8639 44.6442 52.7336 44.3819 52.489C44.1196 52.2445 43.9652 51.9057 43.9526 51.5473C43.9401 51.1889 44.0704 50.8402 44.315 50.5779C44.5596 50.3156 44.8983 50.1612 45.2567 50.1487C50.054 49.973 53.0945 45.8919 56.3513 44.6487C54.1486 38.8514 50.7972 37.8919 49.2972 33.3514C47.6208 33.3868 45.9605 33.6879 44.3783 34.2433C44.2106 34.3018 44.033 34.3268 43.8557 34.3167C43.6783 34.3066 43.5047 34.2617 43.3447 34.1846C43.0216 34.0287 42.7736 33.7509 42.6553 33.4122C42.5968 33.2445 42.5718 33.0669 42.5819 32.8895C42.592 32.7122 42.6369 32.5386 42.714 32.3786C42.8699 32.0554 43.1477 31.8075 43.4864 31.6892C45.1488 31.1176 46.8806 30.7722 48.6351 30.6622C48.329 28.8368 48.2157 26.9842 48.2972 25.1351C48.3076 24.9576 48.3529 24.7838 48.4305 24.6238C48.5081 24.4637 48.6166 24.3206 48.7497 24.2026C48.8828 24.0846 49.0378 23.994 49.206 23.936C49.3742 23.8781 49.5521 23.8539 49.7297 23.8649C49.9072 23.8752 50.081 23.9205 50.2411 23.9981C50.4011 24.0758 50.5442 24.1843 50.6622 24.3173C50.7802 24.4504 50.8708 24.6055 50.9288 24.7737C50.9867 24.9418 51.0109 25.1198 50.9999 25.2973C50.8918 27.2027 51.081 32.6892 53.2702 35.1892C56.2972 38.6351 57.8513 40.6892 59.1351 44.4595C63.2972 45.5541 73.0945 51.7568 79.1891 55.7297Z" fill="#374A68"/>
</svg>
