<svg width="80" height="80" viewBox="0 0 80 80" fill="none" xmlns="http://www.w3.org/2000/svg">
<g clip-path="url(#clip0)">
<path d="M56.5934 42.9657L58.5934 71.2909C58.5945 72.032 58.3006 72.7431 57.7765 73.2672C57.2525 73.7912 56.5414 74.0852 55.8002 74.0841H55.7867C54.9836 74.0782 54.2204 73.7336 53.685 73.135L43.8478 60.1588C43.3288 59.5725 42.5834 59.2368 41.8004 59.2367H41.6783C38.6829 59.2367 36.2546 56.8085 36.2546 53.8131V44.3216L56.5934 42.9657Z" fill="#374A68"/>
<path d="M72.4741 48.7972C72.4741 54.5294 66.7297 59.186 59.6409 59.186C58.6145 59.1909 57.5904 59.0885 56.5854 58.8804C55.3127 58.6316 54.0793 58.2123 52.9187 57.6338C50.4035 56.4671 48.4217 54.3936 47.3699 51.8283L57.8076 37.1862L71.6919 45.2283V45.2405C72.2086 46.355 72.4755 47.5688 72.4741 48.7972Z" fill="#374A68"/>
<path d="M75.2916 28.2134C74.5087 27.7047 73.654 27.3162 72.756 27.0609C72.7831 26.8846 72.7967 26.7219 72.8102 26.5456C72.8374 26.1117 72.8645 25.6778 72.8645 25.2439C72.8033 17.3516 66.6042 10.8731 58.7222 10.4644C58.5595 10.3017 58.3833 10.1525 58.207 10.0034C55.5037 7.65139 52.0412 6.35597 48.4579 6.35596C46.6019 6.36124 44.7629 6.71064 43.0342 7.38646H43.0207C42.1751 6.6947 41.2225 6.14515 40.2004 5.75936C38.9475 5.25041 37.6069 4.99243 36.2547 5.00004C34.6033 4.99474 32.9735 5.37549 31.4954 6.1119C30.6055 6.54841 29.7797 7.10501 29.0412 7.76612L29.0276 7.77968C28.9191 7.71188 28.7971 7.64409 28.6751 7.57629C24.8784 5.42889 20.1039 6.16945 17.1362 9.3661C16.4473 10.0854 15.8835 10.915 15.4684 11.8203C15.1701 11.7932 14.8718 11.7796 14.5599 11.7796C9.31982 11.7841 5.07298 16.031 5.0685 21.2711C5.0685 21.366 5.08206 21.488 5.08206 21.5829V21.6101C0.96573 24.4526 -0.223055 30.0102 2.37022 34.2879C2.37022 34.3015 2.37022 34.3015 2.38377 34.315C2.37022 34.4913 2.35666 34.654 2.35666 34.8303C2.35388 36.063 2.5414 37.2887 2.91258 38.4641V38.4777C4.38681 43.1892 8.5575 46.5461 13.4752 46.9793C13.8354 47.018 14.1976 47.0361 14.5599 47.0336C15.1088 47.0271 15.6568 46.9864 16.2006 46.9115C16.2548 47.1285 16.3091 47.359 16.3633 47.5759C16.3904 47.698 16.4311 47.82 16.4582 47.9285C16.6593 48.5872 16.9179 49.2269 17.2311 49.8403C17.3667 50.1115 17.5158 50.3827 17.6785 50.6539C19.8932 54.2947 23.8441 56.5193 28.1056 56.525H28.1191C31.5417 56.5269 34.8061 55.0842 37.1089 52.5521C37.7259 51.8815 38.267 51.1449 38.7224 50.3556V50.342C39.0207 50.5047 39.319 50.6539 39.6173 50.7895C39.6553 50.8131 39.6964 50.8314 39.7394 50.8437C47.4885 54.4151 56.6832 51.9048 61.5426 44.8912C62.094 44.1177 62.575 43.2963 62.9798 42.437C62.9798 42.4234 62.9934 42.4234 62.9934 42.4099C65.4237 45.2287 69.2773 46.3669 72.8492 45.321C76.421 44.275 79.052 41.238 79.578 37.5535C80.104 33.869 78.4281 30.2171 75.2916 28.2134Z" fill="#374A68"/>
<path fill-rule="evenodd" clip-rule="evenodd" d="M78.1272 41.4046C76.938 39.4883 74.7873 38.9944 74.6763 38.9702C74.4739 38.9255 74.262 38.9631 74.0873 39.0747C73.9126 39.1862 73.7893 39.3626 73.7447 39.565C73.7 39.7674 73.7376 39.9793 73.8491 40.154C73.9607 40.3287 74.1371 40.452 74.3395 40.4967C74.428 40.5168 76.3435 40.9745 77.0615 42.7511C77.4562 42.3357 77.813 41.885 78.1272 41.4046Z" fill="white"/>
<path fill-rule="evenodd" clip-rule="evenodd" d="M74.4461 27.7249C74.7359 27.8727 75.0181 28.0358 75.2916 28.2134C75.6536 28.4447 75.9962 28.6979 76.3181 28.9706C76.3202 29.2222 76.3176 29.5698 76.3159 29.8156C76.3153 29.8886 76.3149 29.9527 76.3146 30.0025C76.3038 32.1706 74.6119 33.8347 73.0674 34.7608C73.0398 34.7773 73.0121 34.7936 72.9846 34.8094C72.4413 35.1286 71.8495 35.3566 71.2326 35.4845C68.4784 36.0389 67.1689 34.2201 66.839 33.1283C66.3846 32.073 65.9329 31.9017 65.8658 31.8817C65.6411 31.8677 65.4305 31.7672 65.2784 31.6012C65.1263 31.4352 65.0445 31.2167 65.0501 30.9917C65.0557 30.7666 65.1483 30.5525 65.3085 30.3943C65.4687 30.2361 65.684 30.1462 65.9091 30.1434C66.1677 30.1385 67.5092 30.2334 68.4617 32.4982C68.4763 32.5327 68.4886 32.5682 68.4984 32.6043C68.5755 32.8571 69.0601 34.1468 70.8888 33.7787C71.3429 33.6834 71.7773 33.5107 72.1728 33.268C72.4001 33.1318 74.4558 31.6624 74.4949 29.907C74.5112 29.3091 74.4997 28.409 74.4461 27.7249Z" fill="white"/>
<path opacity="0.9" fill-rule="evenodd" clip-rule="evenodd" d="M15.4685 11.8199C16.5908 12.4847 20.0205 15.0517 20.3141 16.4332C20.4478 17.1102 20.4231 17.809 20.2419 18.4749C20.0606 19.1408 19.7278 19.7557 19.2695 20.2716C19.074 20.4968 18.8619 20.7071 18.6351 20.9007C18.4327 21.0845 18.3097 21.3398 18.2921 21.6126C18.2745 21.8855 18.3637 22.1545 18.5409 22.3627C18.718 22.571 18.9692 22.7022 19.2414 22.7286C19.5135 22.755 19.7852 22.6745 19.9991 22.5042C20.306 22.2426 20.5929 21.9584 20.8575 21.6541C21.4788 20.9474 21.9422 20.1164 22.2169 19.2165C22.4916 18.3166 22.5714 17.3684 22.4507 16.4353C23.1424 16.3866 23.8136 16.1799 24.4128 15.8312C25.0121 15.4825 25.5234 15.0011 25.9074 14.4238C25.99 14.3102 26.0489 14.1813 26.0809 14.0445C26.1128 13.9078 26.1171 13.766 26.0934 13.6276C26.0697 13.4892 26.0186 13.3569 25.9431 13.2385C25.8675 13.1201 25.769 13.0181 25.6535 12.9383C25.5379 12.8586 25.4075 12.8028 25.27 12.7742C25.1325 12.7456 24.9907 12.7448 24.8529 12.7718C24.7151 12.7988 24.5841 12.8532 24.4676 12.9316C24.3511 13.01 24.2515 13.1109 24.1746 13.2284C23.9082 13.6129 23.5437 13.9191 23.119 14.1152C22.6943 14.3112 22.2248 14.3899 21.7594 14.3431C21.392 13.6986 18.0241 10.694 16.7518 9.79999C16.736 9.81684 16.7203 9.83374 16.7047 9.85068C16.2091 10.4497 15.7934 11.1116 15.4685 11.8199Z" fill="white"/>
<path fill-rule="evenodd" clip-rule="evenodd" d="M72.0398 20.4575C70.7173 20.2882 68.7653 19.1036 67.5092 18.063C66.2279 17.2385 62.9488 16.2304 60.0827 18.7947C59.9755 18.8786 59.8882 18.9812 59.8262 19.0965C59.7641 19.2118 59.7285 19.3373 59.7215 19.4653C59.7145 19.5934 59.7363 19.7215 59.7855 19.8417C59.898 20.0844 60.1095 20.2786 60.376 20.3838C60.6426 20.4891 60.9437 20.4973 61.2168 20.4069C61.2242 20.4047 61.2583 20.3782 61.3154 20.3338C61.8353 19.9298 64.2663 18.0403 65.9545 19.4387C67.9558 21.0968 70.9641 22.3181 72.5703 22.3979C72.4365 21.7344 72.2586 21.0865 72.0398 20.4575Z" fill="white"/>
<path d="M46.8544 43.2767C44.9446 44.0943 42.8194 44.2631 40.8045 43.7573C37.2922 42.9283 33.7273 43.1253 31.9149 43.3175C31.621 43.3524 31.3526 43.5017 31.168 43.7331C30.9833 43.9644 30.8972 44.2592 30.9284 44.5535C30.9595 44.8479 31.1053 45.1181 31.3342 45.3058C31.5632 45.4934 31.8568 45.5833 32.1515 45.556C33.8216 45.3795 37.0995 45.1958 40.2873 45.9482C41.2333 46.1736 42.2022 46.2884 43.1747 46.2901C44.7532 46.2949 46.3154 45.9703 47.7613 45.337C50.1583 44.3083 52.3466 42.8491 54.2177 41.0318C54.252 41.0013 54.2843 40.9688 54.3145 40.9344C55.8176 39.4331 58.9896 36.6207 59.6242 33.8287C59.6784 33.6912 59.705 33.5443 59.7024 33.3965C59.6999 33.2487 59.6682 33.1028 59.6093 32.9672C59.5504 32.8316 59.4653 32.709 59.359 32.6063C59.2527 32.5036 59.1272 32.4228 58.9896 32.3686C58.8521 32.3144 58.7052 32.2878 58.5574 32.2903C58.4096 32.2929 58.2637 32.3245 58.1282 32.3834C57.9926 32.4424 57.8699 32.5274 57.7672 32.6337C57.6645 32.7401 57.5837 32.8656 57.5295 33.0031C56.6473 35.2415 55.3601 36.1609 54.5036 37.1396C54.2177 34.7482 52.0868 33.1308 51.5982 32.6453C51.3751 32.4452 51.0818 32.3416 50.7825 32.357C50.4832 32.3723 50.2022 32.5055 50.0008 32.7274C49.9017 32.8364 49.8253 32.9638 49.7757 33.1024C49.7262 33.241 49.7046 33.3881 49.7121 33.5351C49.7197 33.6821 49.7563 33.8261 49.8198 33.9589C49.8833 34.0917 49.9724 34.2107 50.0821 34.3088C50.1192 34.3451 53.5212 37.1396 52.4444 39.6198C50.8084 41.1551 48.9166 42.3927 46.8544 43.2767Z" fill="white"/>
<path d="M8.48616 24.6085C8.47266 24.6162 8.46001 24.6234 8.44699 24.632C5.62926 26.4117 5.22756 29.6051 6.0021 32.0201C6.17023 32.5439 6.73044 32.8315 7.25337 32.6639C7.78474 32.4914 8.06478 31.9355 7.89714 31.4126C7.36967 29.7694 7.55983 27.5458 9.51008 26.3139C9.97474 26.0207 10.1127 25.4061 9.8195 24.9414C9.53482 24.4898 8.94515 24.3465 8.48616 24.6085Z" fill="white"/>
<path d="M31.2021 52.169C31.1886 52.1773 31.1759 52.1849 31.1618 52.1923C28.1803 53.8196 23.976 52.9254 22.2092 51.0387C21.826 50.6294 21.8475 49.9879 22.256 49.6053C22.6729 49.2175 23.3068 49.2436 23.6894 49.6521C24.8913 50.9363 28.1271 51.5382 30.1908 50.4119C30.6823 50.1434 31.298 50.3252 31.5665 50.8166C31.8276 51.294 31.663 51.8902 31.2021 52.169Z" fill="white"/>
<path fill-rule="evenodd" clip-rule="evenodd" d="M15.4632 46.992C15.4633 46.9759 15.4633 46.9595 15.4633 46.9429C15.5 45.4999 15.6259 43.0185 16.1109 41.5786C16.1533 41.4958 16.1843 41.4077 16.2032 41.3166C17.0305 39.1144 18.7372 36.8116 22.2228 35.8307C22.2243 35.8307 22.2258 35.8299 22.2273 35.829C22.2283 35.8284 22.2294 35.8278 22.2305 35.8275C22.2774 35.8129 22.3233 35.7948 22.3676 35.7736C22.3751 35.7703 22.3828 35.7673 22.3905 35.7644C22.4022 35.7599 22.414 35.7554 22.4248 35.7494C22.4608 35.7292 22.4954 35.7068 22.5286 35.6823C22.537 35.6765 22.5457 35.6712 22.5544 35.6658C22.5687 35.657 22.583 35.6482 22.596 35.6377C22.6256 35.6119 22.6537 35.5846 22.6804 35.5557C22.6835 35.5525 22.6868 35.5493 22.6901 35.5462C22.6946 35.5418 22.6993 35.5375 22.7039 35.5332L22.704 35.5332C22.7164 35.5218 22.7288 35.5104 22.7395 35.4975C22.7698 35.4599 22.7975 35.4202 22.8223 35.3788C22.8264 35.3724 22.831 35.3663 22.8355 35.3601L22.8355 35.3601C22.842 35.3512 22.8486 35.3424 22.8538 35.3327C22.8708 35.2992 22.886 35.2647 22.8994 35.2295C22.9011 35.2254 22.9029 35.2214 22.9047 35.2173C22.9072 35.2118 22.9098 35.2063 22.9123 35.2008C22.9208 35.1825 22.9293 35.1643 22.9356 35.145C22.9417 35.1268 22.9447 35.111 22.9476 35.0954L22.9476 35.0954C22.9494 35.0861 22.9512 35.0768 22.9536 35.067C22.9649 35.0257 22.9736 34.9838 22.9797 34.9414C22.9798 34.938 22.9799 34.9348 22.9816 34.9315C23.3008 31.8954 24.8004 31.0711 24.8959 31.0215C25.1465 30.9036 25.3402 30.6914 25.4348 30.4311C25.5293 30.1708 25.517 29.8837 25.4005 29.6325C25.284 29.3813 25.0727 29.1864 24.813 29.0905C24.5532 28.9945 24.2663 29.0053 24.0145 29.1205C23.9119 29.167 21.6305 30.2451 20.9932 34.021C19.5405 34.4871 18.2073 35.2651 17.0869 36.3005C15.9664 37.3359 15.0857 38.6036 14.5065 40.015C13.0484 39.894 11.6519 39.3735 10.4703 38.5107C10.3599 38.4267 10.2339 38.3654 10.0996 38.3305C9.96534 38.2956 9.82548 38.2877 9.68813 38.3073C9.55078 38.3268 9.41868 38.3735 9.2995 38.4445C9.18033 38.5155 9.07644 38.6095 8.99387 38.721C8.9113 38.8325 8.85169 38.9592 8.8185 39.0939C8.78532 39.2287 8.77921 39.3686 8.80055 39.5057C8.82188 39.6428 8.87022 39.7743 8.94277 39.8925C9.01532 40.0108 9.11063 40.1134 9.22318 40.1946C10.5773 41.19 12.162 41.8253 13.8288 42.0407C13.4991 43.3602 13.3442 45.5306 13.3679 46.9694C13.4036 46.9729 13.4394 46.9762 13.4752 46.9794C13.8355 47.0181 14.1976 47.0362 14.5599 47.0336C14.8615 47.0301 15.1628 47.0162 15.4632 46.992Z" fill="white"/>
<path fill-rule="evenodd" clip-rule="evenodd" d="M43.1246 7.35149C42.5415 8.32576 41.9816 9.82184 41.9816 10.8732C41.9816 11.5323 42.0561 12.1003 42.1178 12.57L42.1178 12.57C42.1263 12.6345 42.1345 12.6971 42.1422 12.7578L42.1438 12.7688C42.3243 14.0218 42.3321 14.0762 41.3498 14.5032C40.7501 14.7603 40.0862 14.8245 39.3795 14.8887C37.7411 15.028 35.5138 15.2315 35.1497 18.7117C35.0855 19.3006 35.5138 19.8253 36.1028 19.8896C36.1188 19.8896 36.1375 19.8922 36.1562 19.8949L36.1563 19.8949C36.175 19.8976 36.1937 19.9002 36.2098 19.9002C36.7559 19.9002 37.2164 19.4827 37.2806 18.9365C37.4515 17.2063 37.9846 17.1592 39.5491 17.0208L39.5615 17.0197C40.3753 16.9447 41.2855 16.859 42.1958 16.4628C44.6908 15.392 44.4659 13.8286 44.2625 12.458L44.2434 12.3131V12.3131C44.1843 11.8661 44.1232 11.4045 44.1232 10.8732C44.1232 10.3378 44.5888 8.43741 45.2849 8.14828C45.9331 7.88031 46.8466 7.49376 47.5521 6.38593C46.0375 6.48181 44.5445 6.80692 43.1246 7.35149Z" fill="white"/>
<path d="M44.5283 25.7594C42.5704 26.0153 40.9449 26.5718 39.6956 27.4112C38.9615 27.9056 38.3735 28.5879 37.993 29.3869C37.6124 30.186 37.4532 31.0725 37.532 31.954C37.8083 34.6557 40.4558 35.1372 40.5686 35.1563C40.8264 35.2001 41.0565 35.344 41.2087 35.5566C41.3609 35.7693 41.4229 36.0334 41.3812 36.2916C41.3398 36.5492 41.1978 36.7799 40.9865 36.933C40.7752 37.0861 40.5118 37.1491 40.2541 37.1082C38.7837 36.8758 35.9115 35.5413 35.5649 32.1553C35.507 31.5798 35.5232 30.9993 35.613 30.4279C33.8658 30.0005 33.0334 28.4574 32.9914 28.3773C32.8684 28.1458 32.8424 27.8749 32.9192 27.6242C32.9959 27.3735 33.1691 27.1635 33.4006 27.0405C33.6321 26.9175 33.9031 26.8915 34.1538 26.9682C34.4045 27.045 34.6144 27.2181 34.7374 27.4497C34.8958 27.7189 35.1075 27.9529 35.3596 28.1374C35.6117 28.3219 35.8987 28.453 36.2033 28.5226C36.7405 27.4085 37.5654 26.4582 38.5928 25.7696C40.0978 24.757 42.0078 24.0949 44.2723 23.7979C44.7519 23.735 45.2276 23.6453 45.6971 23.5293C47.5761 22.3957 46.9953 20.7659 46.9692 20.6965C46.8769 20.4511 46.8859 20.1791 46.9942 19.9403C47.1025 19.7015 47.3012 19.5155 47.5466 19.4233C47.792 19.331 48.064 19.34 48.3027 19.4483C48.5415 19.5566 48.7275 19.7553 48.8198 20.0007C49.0581 20.6869 49.113 21.4235 48.979 22.1375C50.0545 21.4962 51.0144 20.6785 51.8187 19.7188C52.114 19.1959 53.3485 18.1272 54.0428 19.1086C54.3811 19.5868 54.0428 20.1474 53.3485 20.9717C52.1433 22.4028 50.6577 23.5719 48.9834 24.407C47.5881 25.1128 46.0805 25.5705 44.5283 25.7594Z" fill="white"/>
</g>
<defs>
<clipPath id="clip0">
<rect width="79" height="70" fill="white" transform="translate(1 4.99988)"/>
</clipPath>
</defs>
</svg>
