<svg width="14" height="16" viewBox="0 0 14 16" fill="none" xmlns="http://www.w3.org/2000/svg">
<path d="M7.21 0.0772336C7.12936 0.0282235 7.03468 0 6.93342 0C6.83214 0 6.73746 0.0282287 6.65681 0.0772472L4.83603 1.13931C4.5816 1.28772 4.49565 1.61429 4.64406 1.86872C4.79247 2.12315 5.11904 2.2091 5.37347 2.06069L6.40008 1.46186V3.2C6.40008 3.49455 6.63886 3.73333 6.93342 3.73333C7.22797 3.73333 7.46675 3.49455 7.46675 3.2V1.46186L8.49336 2.06069C8.74779 2.2091 9.07436 2.12315 9.22277 1.86872C9.37118 1.61429 9.28523 1.28772 9.0308 1.13931L7.21 0.0772336Z" fill="#101823"/>
<path d="M4.64406 14.1313C4.79247 13.8768 5.11904 13.7909 5.37347 13.9393L6.40008 14.5381V12.8C6.40008 12.5054 6.63886 12.2667 6.93342 12.2667C7.22797 12.2667 7.46675 12.5054 7.46675 12.8V14.5381L8.49336 13.9393C8.74779 13.7909 9.07436 13.8768 9.22277 14.1313C9.37118 14.3857 9.28523 14.7123 9.0308 14.8607L7.21003 15.9227C7.13402 15.969 7.04554 15.9967 6.95082 15.9997C6.94502 15.9999 6.93922 16 6.93342 16C6.83213 16 6.73743 15.9718 6.65678 15.9227L4.83603 14.8607C4.5816 14.7123 4.49565 14.3857 4.64406 14.1313Z" fill="#101823"/>
<path d="M2.76385 2.94435C2.91406 3.19772 2.83044 3.52489 2.57706 3.6751L1.5782 4.26728L3.04894 5.14155C3.30213 5.29206 3.38538 5.61933 3.23487 5.87252C3.08436 6.12572 2.75709 6.20896 2.50389 6.05845L1.06675 5.20415V6.38367C1.06675 6.67822 0.827968 6.917 0.533416 6.917C0.238864 6.917 8.26782e-05 6.67822 8.26782e-05 6.38367V4.27555C-0.00159455 4.18031 0.0222176 4.08345 0.0741884 3.99546C0.0748705 3.9943 0.075557 3.99315 0.0762478 3.992C0.125235 3.91045 0.192627 3.84668 0.269944 3.80285L2.0331 2.75756C2.28647 2.60735 2.61364 2.69098 2.76385 2.94435Z" fill="#101823"/>
<path d="M13.3334 9.083C13.628 9.083 13.8667 9.32178 13.8667 9.61633V11.7244C13.8684 11.8201 13.8444 11.9175 13.7919 12.0059C13.7428 12.0884 13.6749 12.1529 13.5969 12.1971L11.8337 13.2424C11.5804 13.3926 11.2532 13.309 11.103 13.0556C10.9528 12.8023 11.0364 12.4751 11.2898 12.3249L12.2886 11.7327L10.8179 10.8584C10.5647 10.7079 10.4815 10.3807 10.632 10.1275C10.7825 9.87428 11.1097 9.79104 11.3629 9.94155L12.8001 10.7958V9.61633C12.8001 9.32178 13.0389 9.083 13.3334 9.083Z" fill="#101823"/>
<path d="M0.533416 9.083C0.827968 9.083 1.06675 9.32178 1.06675 9.61633V10.7912L2.48027 9.94272C2.73282 9.79113 3.06044 9.87297 3.21203 10.1255C3.36362 10.3781 3.28178 10.7057 3.02923 10.8573L1.56857 11.734L2.58018 12.3431C2.83252 12.495 2.91392 12.8227 2.76199 13.0751C2.61006 13.3274 2.28234 13.4088 2.02999 13.2569L0.267043 12.1955C0.190907 12.1517 0.124545 12.0885 0.0761349 12.0078C0.02285 11.919 -0.00159267 11.821 8.26782e-05 11.7246V9.61633C8.26782e-05 9.32178 0.238864 9.083 0.533416 9.083Z" fill="#101823"/>
<path d="M11.103 2.94435C11.2532 2.69098 11.5804 2.60735 11.8337 2.75756L13.5969 3.80284C13.6749 3.84705 13.7428 3.91155 13.7919 3.99414C13.8444 4.08249 13.8684 4.17985 13.8667 4.27557V6.38367C13.8667 6.67822 13.628 6.917 13.3334 6.917C13.0389 6.917 12.8001 6.67822 12.8001 6.38367V5.20415L11.3629 6.05845C11.1097 6.20896 10.7825 6.12572 10.632 5.87252C10.4815 5.61933 10.5647 5.29206 10.8179 5.14155L12.2886 4.26728L11.2898 3.6751C11.0364 3.52489 10.9528 3.19772 11.103 2.94435Z" fill="#101823"/>
<path d="M9.22277 6.66461C9.37118 6.91904 9.28523 7.24561 9.0308 7.39402L7.46675 8.30634V10.1333C7.46675 10.4279 7.22797 10.6667 6.93342 10.6667C6.63886 10.6667 6.40008 10.4279 6.40008 10.1333V8.30634L4.83603 7.39402C4.5816 7.24561 4.49565 6.91904 4.64406 6.66461C4.79247 6.41018 5.11904 6.32423 5.37347 6.47265L6.93342 7.38257L8.49336 6.47265C8.74779 6.32423 9.07436 6.41018 9.22277 6.66461Z" fill="#101823"/>
</svg>
