<svg width="257" height="162" viewBox="0 0 257 162" fill="none" xmlns="http://www.w3.org/2000/svg">
<g filter="url(#filter0_d_401_5575)">
<g clip-path="url(#clip0_401_5575)">
<path d="M9.41518 76.9696C8.29911 78.0926 8.29911 79.9164 9.41518 81.0395L23.7009 95.4145C24.817 96.5375 26.6295 96.5375 27.7455 95.4145C28.8616 94.2914 28.8616 92.4676 27.7455 91.3446L18.3259 81.875H45.7188C47.2991 81.875 48.5759 80.5903 48.5759 79C48.5759 77.4098 47.2991 76.125 45.7188 76.125H18.3348L27.7366 66.6555C28.8527 65.5324 28.8527 63.7086 27.7366 62.5856C26.6205 61.4625 24.808 61.4625 23.692 62.5856L9.40625 76.9606L9.41518 76.9696Z" fill="white"/>
</g>
<path fill-rule="evenodd" clip-rule="evenodd" d="M88.2276 39.4644V57.8535C87.6413 57.7108 87.0616 57.502 86.4981 57.2239L77.2312 52.6508C73.0952 50.6097 71.3987 45.6058 73.4422 41.4744C75.4856 37.343 80.4951 35.6485 84.6312 37.6896L88.2276 39.4644ZM78.8034 62.7451C80.8687 59.185 85.4306 57.9704 88.9928 60.0322L97.9448 65.2138C101.507 67.2756 102.72 71.833 100.655 75.3931C98.9549 78.3237 95.563 79.665 92.4296 78.8976L98.5523 82.4415C102.232 84.5711 103.485 89.2786 101.352 92.9559C99.6823 95.8335 96.4337 97.2276 93.3366 96.6772C95.0661 98.8416 95.3894 101.93 93.9149 104.472C91.9951 107.781 87.7544 108.91 84.4432 106.994L81.381 105.221C78.0698 103.305 76.9419 99.0682 78.8617 95.7588C80.1463 93.5446 82.4698 92.3064 84.8587 92.3035L80.7532 89.9271C77.0738 87.7975 75.8205 83.09 77.9538 79.4127C79.716 76.375 83.2381 74.9905 86.4841 75.8015L81.5136 72.9244C77.9515 70.8626 76.7381 66.3052 78.8034 62.7451Z" fill="white"/>
<rect x="90.2305" y="8.5" width="54.718" height="108.959" rx="6" stroke="white" stroke-width="4"/>
<path d="M175.878 99.9082C175.878 112.515 182.402 120.545 184.577 124.346L153.043 151.5C144.888 145.526 135.101 143.354 127.49 138.466C120.331 133.87 112.267 125.976 109.548 120.545C107.373 116.2 120.966 116.743 120.966 116.743H144.888C144.888 106.968 145.558 89.7608 141.151 73.8409C138.329 63.6448 136.334 53.7771 137.82 46.1442C138.363 36.369 142.688 28.2229 148.693 28.2229C153.587 28.2229 155.761 30.9383 155.761 34.1967C155.761 36.3689 154.674 41.2566 155.761 48.8596C156.693 55.3764 164.834 70.3848 168.266 76.5562C170.985 81.4439 175.878 87.4176 175.878 99.9082Z" fill="white"/>
<g clip-path="url(#clip1_401_5575)">
<path d="M247.737 81.0305C248.853 79.9074 248.853 78.0836 247.737 76.9606L233.451 62.5856C232.335 61.4625 230.523 61.4625 229.407 62.5856C228.29 63.7086 228.29 65.5324 229.407 66.6555L238.826 76.125H211.433C209.853 76.125 208.576 77.4098 208.576 79C208.576 80.5903 209.853 81.875 211.433 81.875H238.817L229.415 91.3446C228.299 92.4676 228.299 94.2914 229.415 95.4145C230.532 96.5375 232.344 96.5375 233.46 95.4145L247.746 81.0395L247.737 81.0305Z" fill="white"/>
</g>
</g>
<defs>
<filter id="filter0_d_401_5575" x="0.576172" y="0.5" width="256" height="161" filterUnits="userSpaceOnUse" color-interpolation-filters="sRGB">
<feFlood flood-opacity="0" result="BackgroundImageFix"/>
<feColorMatrix in="SourceAlpha" type="matrix" values="0 0 0 0 0 0 0 0 0 0 0 0 0 0 0 0 0 0 127 0" result="hardAlpha"/>
<feOffset dy="2"/>
<feGaussianBlur stdDeviation="4"/>
<feComposite in2="hardAlpha" operator="out"/>
<feColorMatrix type="matrix" values="0 0 0 0 0 0 0 0 0 0 0 0 0 0 0 0 0 0 0.25 0"/>
<feBlend mode="normal" in2="BackgroundImageFix" result="effect1_dropShadow_401_5575"/>
<feBlend mode="normal" in="SourceGraphic" in2="effect1_dropShadow_401_5575" result="shape"/>
</filter>
<clipPath id="clip0_401_5575">
<rect width="40" height="46" fill="white" transform="translate(8.57617 56)"/>
</clipPath>
<clipPath id="clip1_401_5575">
<rect width="40" height="46" fill="white" transform="translate(208.576 56)"/>
</clipPath>
</defs>
</svg>
