<?xml version="1.0" encoding="UTF-8"?>
<svg width="24px" height="24px" viewBox="0 0 24 24" version="1.1" xmlns="http://www.w3.org/2000/svg" xmlns:xlink="http://www.w3.org/1999/xlink">
    <!-- Generator: Sketch 56.2 (81672) - https://sketch.com -->
    <title>Logo/Color/Powered by BioDigital</title>
    <desc>Created with Sketch.</desc>
    <g id="Logo/Color/Powered-by-BioDigital" stroke="none" stroke-width="1" fill="none" fill-rule="evenodd">
        <g id="LOGO2019_UPDATED_02c">
            <g id="B">
                <path d="M8.91808393,0.0192 L2.69684161,0.0192 C1.17293156,0.0192 0.000467170463,1.56013333 0.000467170463,3.46493333 L0,23.9978 L6.1564391,23.9978 C7.67994872,23.9978 8.91808393,22.4537333 8.91808393,20.5478 L8.91808393,0.0192" id="Path" fill="#0B0B09"></path>
                <path d="M22.197738,8.53346667 C22.197738,9.72453333 21.2198168,10.6486 20.0169196,10.6486 L11.3741993,10.6486 L11.3741993,0.0192 L20.0169196,0.0192 C21.2198168,0.0192 22.197738,0.9574 22.197738,2.14666667 L22.197738,8.53346667" id="Path" fill="#C2232D"></path>
                <path d="M22.197738,21.8443333 C22.197738,23.0358 21.2198168,23.9999333 20.0169196,23.9999333 L11.3741993,23.9999333 L11.3741993,13.3440667 L20.0169196,13.3440667 C21.2198168,13.3440667 22.1968704,14.3003333 22.1968704,15.491 L22.197738,21.8443333" id="Path-Standout" fill="#0B0B09"></path>
            </g>
        </g>
    </g>
</svg>