<?xml version="1.0" encoding="UTF-8"?>
<svg width="30px" height="33px" viewBox="0 0 30 33" version="1.1" xmlns="http://www.w3.org/2000/svg" xmlns:xlink="http://www.w3.org/1999/xlink">
    <!-- Generator: Sketch 53 (72520) - https://sketchapp.com -->
    <title>Logo/White/Brand Mark</title>
    <desc>Created with Sketch.</desc>
    <g id="Symbols" stroke="none" stroke-width="1" fill="none" fill-rule="evenodd">
        <g id="Logo/White/Brand-Mark" fill="#96A8C0">
            <path d="M11.9741379,0.517241379 L11.9751724,28.1110345 C11.9751724,30.672931 10.3132759,32.7481034 8.26706897,32.7481034 L0.000517241379,32.7481034 L0.000517241379,5.14913793 C0.000517241379,2.5887931 1.57551724,0.517241379 3.6212069,0.517241379 L11.9741379,0.517241379 Z M29.8039655,29.8541379 C29.7942799,31.4621627 28.4838974,32.7584252 26.8758621,32.7506897 L15.2725862,32.7507241 L15.2725862,18.428182 L26.8774138,18.4282759 C27.6483968,18.4220806 28.3901811,18.7228116 28.9391852,19.2641503 C29.4881894,19.8054889 29.7993201,20.5429716 29.8039655,21.3139655 L29.8039655,29.8541379 Z M29.8039655,11.9617241 C29.7979081,12.7288588 29.4847747,13.4615921 28.9345438,13.9961744 C28.3843128,14.5307566 27.6428523,14.8226244 26.8758621,14.8065517 L15.2725862,14.8065517 L15.2725862,0.516206897 L26.8774138,0.516206897 C27.6456787,0.504744517 28.386749,0.800363466 28.9361862,1.33746792 C29.4856234,1.87457238 29.7979869,2.60874178 29.8039655,3.37706897 L29.8039655,11.9617241 Z" id="B"></path>
        </g>
    </g>
</svg>