<svg width="114" height="28" viewBox="0 0 114 28" fill="none" xmlns="http://www.w3.org/2000/svg">
<g clip-path="url(#clip0_56_1751)">
<path d="M85.2666 0.291016H87.0066V8.31102H90.7899V9.72768H85.2699V0.291016H85.2666Z" fill="black"/>
<path d="M77.4599 7.05435L76.6465 9.72768H74.7932L77.8965 0.291016H80.0965L83.1665 9.72768H81.3199L80.4632 7.05435H77.4632H77.4599ZM80.1565 5.75435L79.4132 3.43435C79.2332 2.86102 79.0765 2.21435 78.9365 1.67102H78.9099C78.7732 2.21435 78.6265 2.87768 78.4632 3.43435L77.7332 5.75435H80.1632H80.1565Z" fill="black"/>
<path d="M69.9566 1.73102H67.2666V0.291016H74.4033V1.73102H71.6833V9.72768H69.9566V1.73102Z" fill="black"/>
<path d="M50.1932 0.291016H48.4465V9.72768H50.1932V0.291016Z" fill="black"/>
<path d="M60.3832 9.20711C59.4265 9.54377 58.4199 9.72044 57.4032 9.72711C55.8365 9.72711 54.6599 9.33044 53.7832 8.49044C52.9599 7.70711 52.4799 6.48711 52.4932 5.08711C52.4932 2.16377 54.5799 0.287109 57.6432 0.287109C58.7865 0.287109 59.6765 0.523776 60.1032 0.727109L59.7232 2.09044C59.2165 1.86711 58.5932 1.69378 57.6232 1.69378C55.6432 1.69378 54.2565 2.86044 54.2565 5.01378C54.2565 7.16711 55.5465 8.36044 57.4732 8.36044C58.0765 8.36044 58.5265 8.28044 58.7499 8.17044V5.87044H57.1132V4.53711H60.3832V9.20044V9.20711Z" fill="black"/>
<path d="M65.0233 0.291016H63.2766V9.72768H65.0233V0.291016Z" fill="black"/>
<path d="M38.2 0.479539C39.09 0.346205 39.9866 0.282872 40.8833 0.289539C42.61 0.289539 43.8033 0.646205 44.6533 1.35954C45.5433 2.08621 46.09 3.21954 46.09 4.79287C46.09 6.36621 45.5333 7.66954 44.6533 8.46287C43.7366 9.29954 42.2666 9.72287 40.4733 9.72287C39.49 9.72287 38.7466 9.70287 38.2 9.63621V0.476205V0.479539ZM39.8866 8.32621C40.1966 8.36287 40.5066 8.3762 40.8166 8.3662C43.0066 8.37954 44.3099 7.1762 44.3099 4.8362C44.3233 2.7962 43.1433 1.59621 41.0333 1.59621C40.6466 1.58621 40.26 1.61954 39.88 1.68954V8.32287H39.8866V8.32621Z" fill="black"/>
<path d="M35.8566 4.91435C35.8566 7.98102 33.9999 9.72768 31.4733 9.72768C28.9466 9.72768 27.2666 7.75768 27.2666 5.07435C27.2666 2.39102 29.0299 0.291016 31.6099 0.291016C34.1899 0.291016 35.8599 2.31435 35.8599 4.91435H35.8566ZM29.0299 5.05435C29.0299 6.91102 29.9666 8.39101 31.5699 8.39101C33.1733 8.39101 34.0966 6.89768 34.0966 4.98768C34.0966 3.26435 33.2433 1.63768 31.5699 1.63768C29.8966 1.63768 29.0299 3.16435 29.0299 5.05435Z" fill="black"/>
<path d="M25.01 0.291016H23.2633V9.72768H25.01V0.291016Z" fill="black"/>
<path d="M14.0466 0.291016H16.85C18.1566 0.291016 19.09 0.481015 19.67 0.857682C20.25 1.23435 20.5366 1.83435 20.5366 2.65102C20.5366 3.20768 20.3933 3.66102 20.1133 4.02768C19.8333 4.39435 19.4166 4.62102 18.8833 4.71768V4.78102C19.5466 4.90435 20.0366 5.14768 20.3466 5.51768C20.6533 5.88768 20.8166 6.38435 20.8166 7.01102C20.8166 7.85768 20.5233 8.52768 19.93 9.00435C19.3366 9.48102 18.5166 9.72768 17.46 9.72768H14.0466V0.291016ZM15.59 4.18768H17.08C17.73 4.18768 18.2 4.08435 18.4933 3.88102C18.7933 3.67768 18.9366 3.32435 18.9366 2.83768C18.9366 2.39435 18.7733 2.07435 18.46 1.87435C18.1466 1.67768 17.6266 1.57435 16.93 1.57435H15.59V4.18768ZM15.59 5.44102V8.43102H17.23C17.88 8.43102 18.3633 8.30768 18.6933 8.06435C19.02 7.81768 19.1833 7.42435 19.1833 6.89101C19.1833 6.40101 19.0133 6.03768 18.68 5.79768C18.3466 5.55768 17.8333 5.44435 17.15 5.44435H15.5933L15.59 5.44102Z" fill="black"/>
<path d="M8.96665 8.86104C8.96665 8.97438 8.94331 9.08438 8.90331 9.18771C8.85998 9.29104 8.79665 9.38771 8.71665 9.46437C8.63665 9.54437 8.54331 9.60771 8.43998 9.65104C8.33665 9.69438 8.22331 9.71771 8.11331 9.71771H4.72998V5.48438H8.11331C8.33998 5.48438 8.55665 5.57438 8.71665 5.73438C8.87665 5.89438 8.96665 6.11104 8.96665 6.33771V8.86104Z" fill="black"/>
<path d="M8.96656 3.64081C8.96656 3.75081 8.94323 3.86414 8.8999 3.96414C8.85656 4.06747 8.79323 4.16081 8.71323 4.23747C8.63323 4.31414 8.5399 4.37747 8.43656 4.41747C8.33323 4.45747 8.22323 4.48081 8.1099 4.47747H4.72656V0.244141H8.1099C8.22323 0.244141 8.33323 0.264141 8.43656 0.307474C8.5399 0.350807 8.63323 0.410807 8.71323 0.490807C8.79323 0.570807 8.85656 0.664141 8.8999 0.767474C8.94323 0.870807 8.96656 0.980808 8.96656 1.09414V3.64081Z" fill="#DE3838"/>
<path d="M3.72328 0.25H1.23662C0.626616 0.25 0.156616 0.856667 0.156616 1.61V9.72H2.61995C3.22995 9.72 3.72328 9.10667 3.72328 8.35667V0.253333V0.25Z" fill="black"/>
<path d="M2.97658 25.2902H2.65325C2.56991 25.2902 2.51658 25.2702 2.48658 25.2302C2.45658 25.1902 2.44658 25.1402 2.44991 25.0802L2.51325 24.3469C2.42325 24.4969 2.32658 24.6335 2.22658 24.7569C2.12325 24.8802 2.01658 24.9835 1.90325 25.0702C1.78991 25.1569 1.66658 25.2235 1.53991 25.2702C1.40991 25.3169 1.27991 25.3402 1.14325 25.3402C0.993246 25.3402 0.856579 25.3135 0.736579 25.2602C0.616579 25.2069 0.513246 25.1269 0.426579 25.0235C0.339912 24.9202 0.273245 24.7902 0.229912 24.6369C0.183245 24.4835 0.159912 24.3069 0.159912 24.1069C0.159912 23.9069 0.186579 23.7069 0.243245 23.5135C0.299912 23.3202 0.376579 23.1402 0.476579 22.9669C0.576579 22.7969 0.696579 22.6402 0.836579 22.4969C0.976579 22.3535 1.13325 22.2302 1.30658 22.1269C1.47991 22.0235 1.66325 21.9435 1.86325 21.8835C2.06325 21.8269 2.26991 21.7969 2.48658 21.7969C2.64325 21.7969 2.79325 21.8069 2.94658 21.8302C3.09991 21.8535 3.24325 21.8935 3.38325 21.9569L2.97658 25.2969V25.2902ZM1.36991 24.8235C1.49325 24.8235 1.61325 24.7902 1.72991 24.7202C1.84658 24.6502 1.95991 24.5535 2.06325 24.4302C2.16658 24.3069 2.26658 24.1569 2.35658 23.9902C2.44658 23.8202 2.52658 23.6335 2.59325 23.4335L2.73325 22.2735C2.67991 22.2602 2.62325 22.2535 2.56658 22.2502C2.50991 22.2502 2.45325 22.2435 2.39991 22.2435C2.17658 22.2435 1.96658 22.2902 1.76658 22.3869C1.56991 22.4835 1.39658 22.6102 1.24658 22.7702C1.09991 22.9302 0.979912 23.1169 0.896579 23.3302C0.809912 23.5435 0.766579 23.7635 0.766579 23.9969C0.766579 24.5502 0.966579 24.8269 1.36325 24.8269L1.36991 24.8235Z" fill="#4E3577"/>
<path d="M8.0066 25.2915C7.92327 25.2915 7.86994 25.2715 7.83994 25.2315C7.80994 25.1915 7.79994 25.1415 7.80327 25.0815L7.8666 24.3482C7.7766 24.4982 7.67994 24.6348 7.57327 24.7582C7.4666 24.8815 7.3566 24.9848 7.23994 25.0715C7.12327 25.1582 7.00327 25.2248 6.87327 25.2715C6.74327 25.3182 6.6166 25.3415 6.4866 25.3415C6.18327 25.3415 5.9466 25.2348 5.77327 25.0182C5.59994 24.8015 5.5166 24.4848 5.5166 24.0715C5.5166 23.8848 5.5366 23.6982 5.5766 23.5148C5.6166 23.3315 5.67327 23.1515 5.7466 22.9815C5.81994 22.8115 5.9066 22.6548 6.01327 22.5115C6.1166 22.3682 6.23327 22.2415 6.36327 22.1348C6.49327 22.0282 6.62994 21.9448 6.77994 21.8848C6.92994 21.8248 7.0866 21.7915 7.24994 21.7915C7.4266 21.7915 7.5866 21.8248 7.73327 21.8915C7.87994 21.9582 8.00327 22.0515 8.10327 22.1748L8.33994 20.2715H8.9466L8.32994 25.2915H8.0066ZM6.71994 24.8482C6.83327 24.8482 6.9466 24.8148 7.06327 24.7448C7.17994 24.6782 7.29327 24.5815 7.39994 24.4582C7.5066 24.3348 7.60993 24.1915 7.69993 24.0248C7.78993 23.8582 7.87327 23.6748 7.94327 23.4782L8.04994 22.6015C7.95994 22.4782 7.85327 22.3915 7.7266 22.3415C7.59994 22.2915 7.46994 22.2648 7.34327 22.2648C7.2166 22.2648 7.10327 22.2882 6.99327 22.3382C6.88327 22.3882 6.7866 22.4548 6.6966 22.5382C6.6066 22.6215 6.5266 22.7215 6.45993 22.8348C6.38993 22.9482 6.32994 23.0715 6.28327 23.1982C6.23327 23.3282 6.1966 23.4615 6.17327 23.5982C6.14994 23.7348 6.13327 23.8748 6.13327 24.0082C6.13327 24.2782 6.18327 24.4848 6.2866 24.6282C6.38994 24.7715 6.53327 24.8448 6.72327 24.8448L6.71994 24.8482Z" fill="#4E3577"/>
<path d="M10.3932 21.8417L9.97658 25.2917H9.36658L9.78324 21.8417H10.3932ZM10.6232 20.7617C10.6232 20.8217 10.6099 20.875 10.5866 20.9284C10.5632 20.9817 10.5299 21.025 10.4899 21.065C10.4499 21.105 10.4032 21.1384 10.3532 21.1617C10.3032 21.185 10.2499 21.1984 10.1932 21.1984C10.1366 21.1984 10.0866 21.185 10.0366 21.1617C9.98658 21.1384 9.94324 21.105 9.90324 21.065C9.86324 21.025 9.83324 20.9784 9.80991 20.9284C9.78658 20.8784 9.77324 20.8217 9.77324 20.7617C9.77324 20.7017 9.78658 20.645 9.80991 20.5917C9.83324 20.5384 9.86324 20.4917 9.90324 20.4517C9.94324 20.4117 9.98658 20.3784 10.0366 20.355C10.0866 20.3317 10.1399 20.3184 10.1932 20.3184C10.2466 20.3184 10.2999 20.3317 10.3532 20.355C10.4066 20.3784 10.4499 20.4117 10.4899 20.4517C10.5299 20.4917 10.5632 20.5384 10.5866 20.5917C10.6099 20.645 10.6232 20.7017 10.6232 20.7617Z" fill="#4E3577"/>
<path d="M10.9632 21.8398H11.4632C11.5099 21.8398 11.5466 21.8532 11.5732 21.8798C11.5999 21.9065 11.6166 21.9365 11.6232 21.9665L12.1066 24.1732C12.1266 24.2598 12.1399 24.3465 12.1499 24.4298C12.1599 24.5132 12.1699 24.5965 12.1732 24.6798C12.1999 24.5965 12.2266 24.5165 12.2599 24.4332C12.2899 24.3498 12.3266 24.2665 12.3666 24.1832L13.3966 21.9698C13.4166 21.9332 13.4399 21.9032 13.4732 21.8798C13.5066 21.8565 13.5432 21.8432 13.5832 21.8432H14.0666L12.3499 25.2932H11.8299L10.9532 21.8432L10.9632 21.8398Z" fill="#4E3577"/>
<path d="M15.2767 21.8417L14.86 25.2917H14.25L14.6667 21.8417H15.2767ZM15.5033 20.7617C15.5033 20.8217 15.49 20.875 15.4667 20.9284C15.4433 20.9817 15.41 21.025 15.37 21.065C15.33 21.105 15.2833 21.1384 15.2333 21.1617C15.1833 21.185 15.13 21.1984 15.0733 21.1984C15.0167 21.1984 14.9667 21.185 14.9167 21.1617C14.8667 21.1384 14.8233 21.105 14.7833 21.065C14.7433 21.025 14.7133 20.9784 14.69 20.9284C14.6667 20.8784 14.6533 20.8217 14.6533 20.7617C14.6533 20.7017 14.6667 20.645 14.69 20.5917C14.7133 20.5384 14.7433 20.4917 14.7833 20.4517C14.8233 20.4117 14.8667 20.3784 14.9167 20.355C14.9667 20.3317 15.02 20.3184 15.0733 20.3184C15.1267 20.3184 15.18 20.3317 15.2333 20.355C15.2867 20.3784 15.33 20.4117 15.37 20.4517C15.41 20.4917 15.4433 20.5384 15.4667 20.5917C15.49 20.645 15.5033 20.7017 15.5033 20.7617Z" fill="#4E3577"/>
<path d="M18.1799 22.3977C18.1599 22.4243 18.1433 22.4443 18.1233 22.4577C18.1033 22.471 18.0799 22.4777 18.0499 22.4777C18.0166 22.4777 17.9799 22.4643 17.9433 22.4377C17.9033 22.411 17.8566 22.3843 17.7999 22.3543C17.7433 22.3243 17.6733 22.2977 17.5933 22.271C17.5133 22.2443 17.4133 22.231 17.2966 22.231C17.1866 22.231 17.0866 22.2443 16.9966 22.2743C16.9066 22.301 16.8266 22.341 16.7633 22.391C16.6999 22.441 16.6466 22.4977 16.6099 22.5643C16.5733 22.631 16.5566 22.701 16.5566 22.771C16.5566 22.851 16.5766 22.921 16.6233 22.981C16.6666 23.041 16.7233 23.0943 16.7966 23.1443C16.8699 23.1943 16.9533 23.2377 17.0433 23.281C17.1333 23.3243 17.2299 23.3643 17.3266 23.4043C17.4233 23.4443 17.5166 23.4877 17.6099 23.5343C17.7033 23.581 17.7833 23.631 17.8566 23.691C17.9299 23.751 17.9866 23.8143 18.0299 23.8877C18.0733 23.961 18.0966 24.0477 18.0966 24.1477C18.0966 24.3043 18.0633 24.4577 17.9966 24.601C17.9299 24.7443 17.8366 24.871 17.7166 24.981C17.5966 25.091 17.4466 25.1777 17.2733 25.2443C17.0999 25.311 16.9066 25.3443 16.6899 25.3443C16.4566 25.3443 16.2533 25.3043 16.0733 25.2277C15.8933 25.151 15.7499 25.0477 15.6366 24.9243L15.7833 24.691C15.8233 24.6277 15.8766 24.5943 15.9466 24.5943C15.9833 24.5943 16.0233 24.611 16.0599 24.6443C16.0999 24.6777 16.1466 24.7143 16.2066 24.751C16.2666 24.791 16.3399 24.8243 16.4266 24.8577C16.5133 24.891 16.6266 24.9043 16.7633 24.9043C16.8833 24.9043 16.9899 24.8877 17.0866 24.8543C17.1833 24.821 17.2666 24.7777 17.3333 24.721C17.3999 24.6643 17.4533 24.601 17.4866 24.5243C17.5233 24.451 17.5399 24.371 17.5399 24.2877C17.5399 24.171 17.5033 24.0743 17.4266 24.001C17.3499 23.9277 17.2566 23.8643 17.1433 23.811C17.0299 23.7577 16.9066 23.7077 16.7733 23.661C16.6399 23.6143 16.5166 23.561 16.4033 23.4977C16.2899 23.4343 16.1933 23.3577 16.1199 23.2643C16.0466 23.171 16.0066 23.051 16.0066 22.9077C16.0066 22.7643 16.0366 22.6243 16.0999 22.491C16.1633 22.3577 16.2499 22.2377 16.3633 22.1343C16.4766 22.031 16.6166 21.9477 16.7799 21.8843C16.9433 21.821 17.1266 21.791 17.3299 21.791C17.5499 21.791 17.7433 21.8243 17.9099 21.8943C18.0766 21.961 18.2199 22.0577 18.3399 22.1777L18.1866 22.401L18.1799 22.3977Z" fill="#4E3577"/>
<path d="M19.7466 21.8417L19.33 25.2917H18.72L19.1366 21.8417H19.7466ZM19.9766 20.7617C19.9766 20.8217 19.9633 20.875 19.94 20.9284C19.9166 20.9817 19.8833 21.025 19.8433 21.065C19.8033 21.105 19.7566 21.1384 19.7066 21.1617C19.6566 21.185 19.6033 21.1984 19.5466 21.1984C19.49 21.1984 19.44 21.185 19.39 21.1617C19.34 21.1384 19.2966 21.105 19.2566 21.065C19.2166 21.025 19.1866 20.9784 19.1633 20.9284C19.14 20.8784 19.1266 20.8217 19.1266 20.7617C19.1266 20.7017 19.14 20.645 19.1633 20.5917C19.1866 20.5384 19.2166 20.4917 19.2566 20.4517C19.2966 20.4117 19.34 20.3784 19.39 20.355C19.44 20.3317 19.4933 20.3184 19.5466 20.3184C19.6 20.3184 19.6533 20.3317 19.7066 20.355C19.76 20.3784 19.8033 20.4117 19.8433 20.4517C19.8833 20.4917 19.9166 20.5384 19.94 20.5917C19.9633 20.645 19.9766 20.7017 19.9766 20.7617Z" fill="#4E3577"/>
<path d="M21.6567 25.3413C21.4533 25.3413 21.2633 25.3079 21.0933 25.2413C20.9233 25.1746 20.7733 25.0813 20.65 24.9546C20.5267 24.8313 20.43 24.6779 20.3633 24.4979C20.2967 24.3179 20.26 24.1113 20.26 23.8813C20.26 23.5913 20.3067 23.3213 20.4033 23.0646C20.5 22.8113 20.63 22.5879 20.8 22.3979C20.9667 22.2079 21.1667 22.0579 21.3967 21.9479C21.6267 21.8379 21.8733 21.7812 22.14 21.7812C22.3433 21.7812 22.5333 21.8146 22.7033 21.8813C22.8733 21.9479 23.0233 22.0413 23.1467 22.1646C23.27 22.2879 23.3667 22.4413 23.4367 22.6213C23.5067 22.8013 23.54 23.0079 23.54 23.2346C23.54 23.5213 23.4933 23.7913 23.3967 24.0479C23.3 24.3046 23.1667 24.5246 23 24.7146C22.8333 24.9046 22.6333 25.0579 22.4033 25.1679C22.1733 25.2813 21.9267 25.3346 21.66 25.3346L21.6567 25.3413ZM21.71 24.8579C21.8933 24.8579 22.06 24.8146 22.2067 24.7246C22.3533 24.6346 22.48 24.5179 22.5867 24.3679C22.6933 24.2179 22.7733 24.0479 22.83 23.8513C22.8867 23.6546 22.9167 23.4513 22.9167 23.2413C22.9167 22.9179 22.8433 22.6779 22.7 22.5146C22.5567 22.3513 22.3533 22.2713 22.0867 22.2713C21.9033 22.2713 21.7367 22.3146 21.59 22.4046C21.4433 22.4946 21.3167 22.6113 21.21 22.7579C21.1033 22.9046 21.0233 23.0779 20.9667 23.2713C20.91 23.4646 20.88 23.6679 20.88 23.8813C20.88 24.2046 20.95 24.4479 21.0933 24.6113C21.2367 24.7746 21.44 24.8579 21.71 24.8579Z" fill="#4E3577"/>
<path d="M24.0232 25.291L24.4366 21.8377H24.7432C24.8099 21.8377 24.8632 21.8543 24.8999 21.8877C24.9366 21.921 24.9532 21.9743 24.9466 22.0443L24.8999 22.721C25.0866 22.4143 25.3032 22.181 25.5432 22.0243C25.7832 21.8677 26.0332 21.791 26.2866 21.791C26.4366 21.791 26.5699 21.821 26.6866 21.8777C26.8032 21.9343 26.8966 22.0177 26.9666 22.131C27.0366 22.241 27.0866 22.3777 27.1132 22.541C27.1399 22.7043 27.1399 22.8877 27.1132 23.0943L26.8566 25.2943H26.2399L26.4966 23.0943C26.5332 22.8243 26.5132 22.6243 26.4466 22.4977C26.3766 22.371 26.2499 22.3043 26.0599 22.3043C25.9466 22.3043 25.8332 22.3343 25.7132 22.391C25.5932 22.4477 25.4832 22.5343 25.3732 22.6443C25.2632 22.7543 25.1632 22.8843 25.0666 23.0377C24.9699 23.191 24.8932 23.361 24.8299 23.5543L24.6366 25.2943H24.0199L24.0232 25.291Z" fill="#4E3577"/>
<path d="M30.7133 25.3413C30.51 25.3413 30.32 25.3079 30.15 25.2413C29.98 25.1746 29.83 25.0813 29.7067 24.9546C29.5833 24.8313 29.4867 24.6779 29.42 24.4979C29.3533 24.3179 29.3167 24.1113 29.3167 23.8813C29.3167 23.5913 29.3633 23.3213 29.46 23.0646C29.5567 22.8113 29.6867 22.5879 29.8567 22.3979C30.0233 22.2079 30.2233 22.0579 30.4533 21.9479C30.6833 21.8379 30.93 21.7812 31.1967 21.7812C31.4 21.7812 31.59 21.8146 31.76 21.8813C31.93 21.9479 32.08 22.0413 32.2033 22.1646C32.3267 22.2879 32.4233 22.4413 32.4933 22.6213C32.5633 22.8013 32.5967 23.0079 32.5967 23.2346C32.5967 23.5213 32.55 23.7913 32.4533 24.0479C32.3567 24.3046 32.2233 24.5246 32.0567 24.7146C31.89 24.9046 31.69 25.0579 31.46 25.1679C31.23 25.2813 30.9833 25.3346 30.7167 25.3346L30.7133 25.3413ZM30.7667 24.8579C30.95 24.8579 31.1167 24.8146 31.2633 24.7246C31.41 24.6346 31.5367 24.5179 31.6433 24.3679C31.75 24.2179 31.83 24.0479 31.8867 23.8513C31.9433 23.6546 31.9733 23.4513 31.9733 23.2413C31.9733 22.9179 31.9 22.6779 31.7567 22.5146C31.6133 22.3513 31.41 22.2713 31.1433 22.2713C30.96 22.2713 30.7933 22.3146 30.6467 22.4046C30.5 22.4946 30.3733 22.6113 30.2667 22.7579C30.16 22.9046 30.08 23.0779 30.0233 23.2713C29.9667 23.4646 29.9367 23.6679 29.9367 23.8813C29.9367 24.2046 30.0067 24.4479 30.15 24.6113C30.2933 24.7746 30.4967 24.8579 30.7667 24.8579Z" fill="#4E3577"/>
<path d="M34.1465 22.3512L33.8032 25.1779L33.6298 25.8779C33.6098 25.9612 33.5765 26.0279 33.5298 26.0712C33.4798 26.1146 33.4132 26.1379 33.3232 26.1379H33.0765L33.5398 22.3579L33.1698 22.3079C33.1265 22.3046 33.0898 22.2879 33.0665 22.2612C33.0432 22.2346 33.0332 22.1979 33.0365 22.1512L33.0598 21.9012H33.5932L33.6365 21.5746C33.6598 21.3779 33.7098 21.2012 33.7898 21.0479C33.8665 20.8946 33.9665 20.7646 34.0832 20.6612C34.1998 20.5579 34.3365 20.4779 34.4898 20.4212C34.6432 20.3646 34.8098 20.3379 34.9898 20.3379C35.1332 20.3379 35.2698 20.3612 35.3998 20.4046L35.3432 20.7246C35.3398 20.7479 35.3265 20.7646 35.3098 20.7746C35.2932 20.7846 35.2698 20.7912 35.2432 20.7912C35.2165 20.7912 35.1832 20.7912 35.1498 20.7912C35.1132 20.7912 35.0765 20.7912 35.0332 20.7912C34.9265 20.7912 34.8298 20.8046 34.7398 20.8346C34.6498 20.8646 34.5698 20.9079 34.4998 20.9712C34.4298 21.0346 34.3732 21.1179 34.3265 21.2212C34.2798 21.3246 34.2465 21.4479 34.2298 21.5946L34.1865 21.9046H35.1265L35.0698 22.3512H34.1532H34.1465Z" fill="#4E3577"/>
<mask id="mask0_56_1751" style="mask-type:luminance" maskUnits="userSpaceOnUse" x="37" y="12" width="77" height="16">
<path d="M113.627 12.2715H37.8032V27.9015H113.627V12.2715Z" fill="white"/>
</mask>
<g mask="url(#mask0_56_1751)">
<path d="M107.5 22.5676C109.163 22.5676 109.823 21.6642 109.823 20.9176C109.823 20.3509 109.717 20.0442 109.28 20.0442C108.14 20.0442 107.497 22.5642 107.497 22.5642M107.4 23.0309C107.4 23.0309 106.897 24.7376 108.297 24.7376C109.813 24.7376 110.607 23.6742 110.607 23.6742L110.947 23.9842C110.947 23.9842 109.437 25.5742 107.91 25.5742C106.55 25.5742 105.43 24.9942 105.43 23.7842C105.43 21.3776 107.17 19.6009 109.917 19.6009C109.917 19.6009 111.677 19.5576 111.677 20.6409C111.677 22.8376 107.4 23.0276 107.4 23.0276M76.9733 20.9042C76.9733 20.1576 76.61 20.0176 76.2866 20.0176C74.7566 20.0176 73.7266 23.0542 73.7266 24.2009C73.7266 24.8042 74.0066 25.1542 74.3566 25.1542C76.12 25.1542 76.9733 21.6542 76.9733 20.9076M78.85 21.3576C78.85 24.3176 75.9233 25.5642 74.2266 25.5642C72.53 25.5642 71.8833 24.6509 71.8833 23.4942C71.8833 21.2309 74.4466 19.5542 76.3266 19.5542C77.6366 19.5542 78.8533 20.0976 78.8533 21.3576M86.2433 21.0442C86.5866 20.8076 87.0766 20.5476 87.7 20.5476C88.2666 20.5476 88.1033 21.3176 88.1033 21.3176L87.24 23.4009C87.24 23.4009 86.9366 23.9542 86.9366 24.5742C86.9366 25.1942 87.42 25.4842 88.0933 25.4842C88.7666 25.4842 89.82 25.0142 89.82 25.0142L90.01 24.5742C90.01 24.5742 89.3766 24.7042 89.0433 24.7176C88.2166 24.7442 88.62 24.1642 88.8933 23.6176C89.1866 23.0276 89.83 21.4476 89.83 21.4476C89.83 21.4476 90.6 19.6142 88.95 19.6142C87.7266 19.6142 86.75 20.2809 86.38 20.5709C86.3733 20.1042 86.1633 19.6242 85.32 19.6242C83.7533 19.6242 82.59 20.7176 82.59 20.7176C82.59 20.7176 82.5733 19.6709 81.48 19.6709C80.5066 19.6709 79.5333 20.1542 79.5333 20.1542L79.3366 20.6109C79.3366 20.6109 79.9233 20.4776 80.2133 20.4776C80.8233 20.4776 80.6233 21.3176 80.6233 21.3176L78.9366 25.4142L80.7066 25.3842L82.37 21.3742C82.37 21.3742 82.98 20.5642 84.0666 20.5642C84.6333 20.5642 84.33 21.3976 84.33 21.3976L82.67 25.4142H84.4366L86.2366 21.0476L86.2433 21.0442ZM69.31 19.8509H68.2333L68.03 20.4409H69.14L67.8266 23.6809C67.8266 23.6809 67.64 24.1376 67.64 24.6176C67.64 24.9909 67.75 25.5209 68.7066 25.5209C69.6633 25.5209 70.8166 25.0542 70.8166 25.0542L71.0233 24.5942C71.0233 24.5942 70.3133 24.7776 70.09 24.7776C69.1233 24.7776 69.6066 23.5942 69.6066 23.5942L70.9 20.4509H72.4533L72.7233 19.8742H71.1666L71.9 18.1276H70.0333L69.3066 19.8542L69.31 19.8509ZM102.48 20.1642C100.81 20.1642 100.12 23.0276 100.12 23.0276C100.12 23.0276 99.6433 24.6976 100.55 24.6976C101.457 24.6976 101.86 24.0842 101.86 24.0842L103.09 21.0642C103.09 21.0642 103.283 20.1642 102.48 20.1642ZM105.393 19.6909L103.403 24.6842C103.403 24.6842 102.403 27.9009 99.2666 27.9009C97.53 27.9009 97.0433 27.4942 97.0433 27.0276C97.0433 26.4742 97.53 25.9676 98.06 25.9676C98.94 25.9676 99.3066 27.3009 99.3066 27.4676C100.827 27.4676 101.743 24.6576 101.743 24.6576C101.743 24.6576 100.7 25.5442 99.5333 25.5442C98.69 25.5442 97.9566 25.0576 97.9566 23.9509C97.9566 21.4309 100.44 19.6009 102.303 19.6009C103.147 19.6009 103.613 20.0576 103.613 20.0576L105.393 19.6876V19.6909ZM64.2533 20.1642C62.5833 20.1642 61.8933 23.0276 61.8933 23.0276C61.8933 23.0276 61.4166 24.6976 62.3233 24.6976C63.23 24.6976 63.74 24.0342 63.74 24.0342L65.0066 20.9376C65.0066 20.9376 65.0566 20.1609 64.2533 20.1609M66 24.7109C66.31 24.7109 66.8033 24.5476 66.8033 24.5476L66.5633 25.0509C66.5633 25.0509 65.8366 25.4942 64.7466 25.4942C63.6566 25.4942 63.5066 24.6576 63.5066 24.6576C63.5066 24.6576 62.4633 25.5442 61.2966 25.5442C60.4533 25.5442 59.72 25.0576 59.72 23.9509C59.72 21.4309 62.2033 19.6009 64.0666 19.6009C64.91 19.6009 65.3766 20.0576 65.3766 20.0576L67.35 19.6542C67.35 19.6542 65.45 23.8342 65.45 24.2109C65.45 24.5876 65.69 24.7076 66 24.7076M49.1633 20.1509L50.6266 15.1076L45.2866 20.1509H49.1633ZM50.8533 24.8742L50.61 25.4242H45.4966C45.4966 25.4242 45.74 24.8442 45.75 24.8442C47.5166 24.8442 47.86 24.1442 47.86 24.1442L48.91 20.9242H44.46L41.94 23.5676C41.94 23.5676 41.4833 23.9909 41.4833 24.2609C41.4833 24.8009 42.8133 24.8476 42.8133 24.8476L42.5566 25.4076H37.7966L38.07 24.8076C39.63 24.8076 40.8433 23.5209 40.8433 23.5209L52.4933 12.2676H53.1033L49.97 23.2009C49.97 23.2009 49.8066 23.7709 49.8066 24.1042C49.8066 24.7876 50.8466 24.8676 50.8466 24.8676M52.2666 20.6042L52.4633 20.1476C52.4633 20.1476 53.4366 19.6642 54.41 19.6642C55.5033 19.6642 55.52 20.7109 55.52 20.7109C55.52 20.7109 56.6833 19.6176 58.25 19.6176C59.9 19.6176 59.0766 21.4142 59.0766 21.4142C59.0766 21.4142 58.31 23.1309 58.1366 23.5442C57.9633 23.9576 57.4133 24.7476 58.33 24.6976C58.6633 24.6809 59.2966 24.5576 59.2966 24.5576L59.1066 24.9976C59.1066 24.9976 58.0533 25.4676 57.38 25.4676C56.7066 25.4676 56.1833 25.1976 56.1933 24.5776C56.2066 23.8209 57.3866 21.2509 57.3866 21.2509C57.3866 21.2509 57.57 20.5542 57.0033 20.5542C55.9166 20.5542 55.3066 21.3642 55.3066 21.3642L53.6633 25.4176L51.9066 25.3976L53.5766 21.3609C53.5766 21.3609 53.7566 20.4676 53.1466 20.4676C52.8566 20.4676 52.27 20.6009 52.27 20.6009" fill="#4E3577"/>
<path d="M112.36 17.6068H112.573C112.673 17.6068 112.743 17.5902 112.78 17.5635C112.817 17.5335 112.833 17.4935 112.833 17.4435C112.833 17.4102 112.823 17.3835 112.807 17.3568C112.79 17.3302 112.763 17.3135 112.733 17.3002C112.7 17.2868 112.643 17.2835 112.557 17.2835H112.36V17.6068ZM112.183 18.2102V17.1368H112.557C112.683 17.1368 112.777 17.1468 112.83 17.1668C112.887 17.1868 112.933 17.2202 112.967 17.2702C113 17.3202 113.017 17.3735 113.017 17.4268C113.017 17.5035 112.99 17.5735 112.933 17.6302C112.877 17.6902 112.8 17.7202 112.707 17.7302C112.747 17.7468 112.777 17.7635 112.8 17.7868C112.843 17.8302 112.897 17.9002 112.96 18.0002L113.093 18.2102H112.88L112.783 18.0402C112.707 17.9068 112.647 17.8235 112.6 17.7902C112.567 17.7668 112.523 17.7535 112.46 17.7535H112.357V18.2102H112.183ZM112.623 16.8235C112.483 16.8235 112.343 16.8602 112.21 16.9302C112.077 17.0002 111.973 17.1035 111.897 17.2368C111.82 17.3702 111.783 17.5102 111.783 17.6535C111.783 17.7968 111.82 17.9335 111.893 18.0668C111.967 18.2002 112.07 18.3002 112.203 18.3735C112.337 18.4468 112.477 18.4835 112.62 18.4835C112.763 18.4835 112.903 18.4468 113.037 18.3735C113.17 18.3002 113.273 18.1968 113.347 18.0668C113.42 17.9335 113.457 17.7968 113.457 17.6535C113.457 17.5102 113.42 17.3702 113.343 17.2368C113.267 17.1035 113.163 17.0002 113.03 16.9302C112.897 16.8568 112.76 16.8235 112.617 16.8235M112.623 16.6602C112.793 16.6602 112.957 16.7035 113.117 16.7902C113.277 16.8768 113.403 17.0002 113.493 17.1602C113.583 17.3202 113.627 17.4868 113.627 17.6602C113.627 17.8335 113.583 17.9968 113.493 18.1568C113.403 18.3168 113.28 18.4402 113.12 18.5268C112.96 18.6135 112.793 18.6602 112.62 18.6602C112.447 18.6602 112.28 18.6168 112.12 18.5268C111.96 18.4402 111.837 18.3168 111.747 18.1568C111.657 17.9968 111.613 17.8335 111.613 17.6602C111.613 17.4868 111.657 17.3202 111.75 17.1602C111.84 17.0002 111.967 16.8768 112.127 16.7902C112.287 16.7035 112.453 16.6602 112.62 16.6602" fill="#4E3577"/>
</g>
<path d="M95.0465 20.2157C93.3765 20.2157 92.6865 23.079 92.6865 23.079C92.6865 23.079 92.2098 24.749 93.1165 24.749C94.0232 24.749 94.5332 24.0857 94.5332 24.0857L95.7998 20.989C95.7998 20.989 95.8499 20.2123 95.0465 20.2123M96.7932 24.7623C97.1032 24.7623 97.5965 24.599 97.5965 24.599L97.3565 25.1023C97.3565 25.1023 96.6298 25.5457 95.5398 25.5457C94.4498 25.5457 94.2998 24.709 94.2998 24.709C94.2998 24.709 93.2565 25.5957 92.0898 25.5957C91.2465 25.5957 90.5132 25.109 90.5132 24.0023C90.5132 21.4823 92.9965 19.6523 94.8598 19.6523C95.7032 19.6523 96.1699 20.109 96.1699 20.109L98.1432 19.7057C98.1432 19.7057 96.2432 23.8857 96.2432 24.2623C96.2432 24.639 96.4832 24.759 96.7932 24.759" fill="#4E3577"/>
</g>
<defs>
<clipPath id="clip0_56_1751">
<rect width="113.667" height="28" fill="white"/>
</clipPath>
</defs>
</svg>
