<svg width="260" height="64" viewBox="0 0 260 64" fill="none" xmlns="http://www.w3.org/2000/svg">
<g opacity="0.2" clip-path="url(#clip0_91_1499)">
<path d="M199.318 0.662842V0.362842H199.018H195.346H195.046H195.038V0.662842H194.746V22.2324V22.5324H195.046H207.672H207.972V22.2324V18.9943V18.6943H207.672H199.318V0.662842Z" fill="#142136" stroke="white" stroke-width="0.6"/>
<path d="M175.321 22.5324H175.543L175.608 22.3197L177.403 16.4219H183.832L185.725 22.324L185.792 22.5324H186.01H190.234H190.648L190.52 22.1395L183.497 0.56997L183.43 0.362842H183.212H178.18H177.963L177.895 0.56906L170.796 22.1386L170.667 22.5324H171.081H175.321ZM182.938 12.8505H178.215L179.762 7.93771L179.762 7.93772L179.764 7.93212C180.024 7.04506 180.268 6.03585 180.495 5.09075C180.508 5.0375 180.521 4.98445 180.534 4.93164C180.784 5.91357 181.059 6.971 181.363 7.93752L181.363 7.9392L182.938 12.8505Z" fill="#142136" stroke="white" stroke-width="0.6"/>
<path d="M153.565 3.95427V4.25427H153.865H159.718V22.2324V22.5324H160.018H163.968H164.268V22.2324V4.25427H170.189H170.489V3.95427V0.662842V0.362842H170.189H153.865H153.565V0.662842V3.95427Z" fill="#142136" stroke="white" stroke-width="0.6"/>
<path d="M115.112 0.662842V0.362842H114.812H110.816H110.516V0.662842V22.2324V22.5324H110.816H114.812H115.112V22.2324V0.662842Z" fill="#142136" stroke="white" stroke-width="0.6"/>
<path d="M138.22 21.3268L138.42 21.2563V21.0438V21.0285V10.3695V10.0695H138.12H130.64H130.34V10.3695V13.4171V13.7171H130.64H134.084V18.4766C133.585 18.6634 132.681 18.8085 131.464 18.8085C129.323 18.8085 127.566 18.1471 126.345 16.9181C125.124 15.6892 124.406 13.8596 124.406 11.459C124.406 9.0649 125.176 7.2525 126.464 6.03726C127.755 4.81948 129.6 4.17045 131.807 4.17045C133.985 4.17045 135.369 4.55818 136.49 5.05166L136.806 5.19124L136.899 4.85772L137.769 1.74153L137.836 1.49853L137.609 1.39007C136.584 0.902264 134.503 0.355212 131.853 0.355212C128.288 0.355212 125.266 1.44686 123.132 3.41465C120.995 5.38445 119.773 8.20983 119.773 11.6252C119.742 14.8919 120.863 17.7652 122.816 19.6228C124.893 21.6109 127.668 22.5324 131.304 22.5324L131.306 22.5323C133.665 22.5169 136 22.1073 138.22 21.3268Z" fill="#142136" stroke="white" stroke-width="0.6"/>
<path d="M149.034 0.662842V0.362842H148.734H144.738H144.438V0.662842V22.2324V22.5324H144.738H148.734H149.034V22.2324V0.662842Z" fill="#142136" stroke="white" stroke-width="0.6"/>
<path d="M87.0782 1.09712V1.44537V22.0266V22.2923L87.3419 22.3244C88.6123 22.4793 90.329 22.5247 92.5782 22.5247C96.7166 22.5247 100.166 21.5502 102.341 19.567C104.428 17.6863 105.726 14.6199 105.726 10.9562C105.726 7.28599 104.446 4.60434 102.331 2.87739C100.312 1.18552 97.5033 0.362985 93.5171 0.362832C91.4508 0.347538 89.3846 0.493406 87.3338 0.800423L87.377 1.0895H87.0782V1.09712ZM91.5362 18.7632V18.7247H91.521V4.11501C92.2917 3.98797 93.0722 3.92926 93.8514 3.9494L93.8514 3.9495H93.8591C96.2164 3.9495 98.0129 4.6184 99.2163 5.81639C100.419 7.01398 101.069 8.77965 101.054 11.0532V11.0552C101.054 13.6749 100.325 15.6128 99.0267 16.893C97.7279 18.1737 95.8164 18.8387 93.3653 18.8238L93.3653 18.8236L93.3538 18.8239C92.7481 18.8435 92.1422 18.8232 91.5362 18.7632Z" fill="#142136" stroke="white" stroke-width="0.6"/>
<path d="M79.3895 19.5668C81.1847 17.6809 82.2564 14.9552 82.3155 11.5305H82.3257V11.2305C82.3257 8.19559 81.35 5.47961 79.602 3.51847C77.8512 1.55416 75.3387 0.362842 72.3043 0.362842C66.2046 0.362842 62.0694 5.33171 62.0694 11.5962C62.0694 14.7248 63.0499 17.4583 64.7891 19.4136C66.5309 21.372 69.019 22.5324 71.9917 22.5324C74.9524 22.5324 77.5414 21.5082 79.3895 19.5668ZM72.2128 18.8771C70.4836 18.8771 69.1184 18.0846 68.1757 16.7796C67.2273 15.4665 66.7028 13.626 66.7028 11.5505C66.7028 9.43116 67.1898 7.54397 68.1194 6.19602C69.0415 4.85899 70.4045 4.04094 72.2128 4.04094C74.014 4.04094 75.3713 4.90968 76.2897 6.261C77.2145 7.62154 77.6923 9.47291 77.6923 11.3981C77.6923 13.537 77.1743 15.4163 76.2326 16.7519C75.2972 18.0786 73.9402 18.8771 72.2128 18.8771Z" fill="#142136" stroke="white" stroke-width="0.6"/>
<path d="M57.5076 0.662842V0.362842H57.2076H53.2123H52.9123V0.662842V22.2324V22.5324H53.2123H57.2076H57.5076V22.2324V0.662842Z" fill="#142136" stroke="white" stroke-width="0.6"/>
<path d="M32.1301 0.362842H31.8301V0.662842V22.2324V22.5324H32.1301H39.9378C42.3995 22.5324 44.3491 21.958 45.7754 20.813C47.2135 19.6585 47.9158 18.0354 47.9158 16.0228C47.9158 14.5375 47.5275 13.3293 46.7716 12.418L46.7706 12.4168C46.1575 11.6855 45.2739 11.1695 44.1529 10.8436C45.0136 10.5493 45.7228 10.0697 46.2453 9.38595C46.9321 8.48723 47.2753 7.38405 47.2753 6.05713C47.2753 4.11176 46.5857 2.63411 45.1562 1.70643C43.7545 0.796766 41.5466 0.362842 38.5424 0.362842H32.1301ZM42.1332 8.62016L42.1332 8.62015L42.1306 8.62194C41.536 9.0338 40.5367 9.26951 39.0685 9.26951H35.9603V3.89617H38.7254C40.3029 3.89617 41.4215 4.13239 42.0648 4.53545C42.6802 4.9284 43.0155 5.55519 43.0155 6.48379C43.0155 7.5407 42.7062 8.23206 42.1332 8.62016ZM35.9603 18.9686V12.7419H39.2287C40.7705 12.7419 41.8675 12.9997 42.5532 13.493C43.2232 13.9751 43.5797 14.7063 43.5797 15.7486C43.5797 16.9045 43.2285 17.6995 42.5796 18.1899C41.8978 18.6917 40.8666 18.9686 39.4117 18.9686H35.9603Z" fill="#142136" stroke="white" stroke-width="0.6"/>
<path d="M20.6419 21.1142L20.642 21.1142L20.645 21.1065C20.7482 20.8401 20.8101 20.552 20.8101 20.2514V14.4838C20.8101 13.8859 20.5725 13.3144 20.1503 12.8925C19.7282 12.4707 19.1563 12.2333 18.5582 12.2333H10.8192H10.5192V12.5333V22.2095V22.5095H10.8192H18.5582C18.8509 22.5095 19.1495 22.4477 19.4214 22.3338C19.6938 22.2197 19.9389 22.0534 20.1481 21.8449C20.363 21.6384 20.5292 21.3827 20.6419 21.1142Z" fill="#142136" stroke="white" stroke-width="0.6"/>
<path d="M10.5116 10.2323V10.5323H10.8116H18.5464C18.8512 10.5406 19.1412 10.4775 19.4061 10.375C19.6849 10.2672 19.9312 10.0987 20.1382 9.90044C20.3515 9.69621 20.5192 9.44888 20.6336 9.17672C20.7488 8.91045 20.8102 8.61137 20.8102 8.31996V2.49901C20.8102 2.19819 20.7481 1.9074 20.6343 1.63625C20.5196 1.36301 20.3524 1.11728 20.1428 0.907752C19.9295 0.694691 19.6824 0.536788 19.4138 0.424226C19.1371 0.308258 18.8455 0.256152 18.5507 0.256152H10.8116H10.5116V0.556152V10.2323Z" fill="#142136" stroke="white" stroke-width="0.6"/>
<path d="M8.81663 0.571411V0.271411H8.51663H2.82866C1.20521 0.271411 0.0582764 1.86266 0.0582764 3.67998V22.2171V22.5171H0.358276H5.99288C7.61034 22.5171 8.81663 20.9181 8.81663 19.1009V0.57903V0.571411Z" fill="#142136" stroke="white" stroke-width="0.6"/>
<path d="M5.20972 56.6812C5.32469 56.5395 5.43773 56.3903 5.54792 56.2336L5.45465 57.3128L5.45458 57.3128L5.45432 57.3174C5.44557 57.4749 5.47063 57.6289 5.56799 57.7586C5.67856 57.906 5.85997 57.9557 6.06919 57.9557H6.80878V57.8301L6.95768 57.8391L7.88789 50.2048L7.90122 50.0954L7.80078 50.05C7.46661 49.899 7.12533 49.804 6.76271 49.7489C6.40363 49.6943 6.05292 49.671 5.68796 49.671C5.17822 49.671 4.69175 49.7416 4.22129 49.8748L4.22129 49.8747L4.21908 49.8754C3.75031 50.0159 3.31958 50.2036 2.91207 50.4464C2.50451 50.6892 2.13589 50.9792 1.8065 51.3161C1.47794 51.6523 1.19602 52.02 0.961042 52.4192L0.961037 52.4192L0.960404 52.4203C0.725604 52.827 0.545568 53.2494 0.412647 53.7026C0.278738 54.1591 0.215967 54.6305 0.215967 55.101C0.215967 55.5688 0.270476 55.9874 0.382153 56.3547C0.486179 56.7218 0.647508 57.0382 0.861044 57.2927C1.07287 57.545 1.32729 57.7424 1.62415 57.8743C1.92055 58.0059 2.25438 58.07 2.61523 58.07C2.94572 58.07 3.26019 58.0135 3.57321 57.9012L3.57439 57.9008C3.8779 57.7891 4.17329 57.6295 4.44473 57.4221C4.71375 57.2165 4.96559 56.9724 5.20818 56.6831L5.2082 56.6831L5.20972 56.6812ZM3.13371 56.5891H3.09831L3.08374 56.5964C2.68756 56.5886 2.40669 56.4473 2.21751 56.1847C2.01635 55.9055 1.90365 55.4683 1.90365 54.8496C1.90365 54.3356 1.99901 53.8519 2.18997 53.3822L2.18998 53.3822L2.19072 53.3804C2.37414 52.9111 2.63823 52.5004 2.96158 52.1477C3.29164 51.7961 3.67298 51.5175 4.10673 51.3044C4.54308 51.0937 5.0009 50.9919 5.48972 50.9919C5.5453 50.9919 5.60343 50.9954 5.66812 50.9993L5.66855 50.9993C5.73043 51.003 5.79798 51.007 5.8664 51.0072C5.94199 51.0117 6.01578 51.0189 6.08665 51.0301L5.78486 53.5288C5.63592 53.9728 5.45792 54.3868 5.25834 54.7636C5.05654 55.1369 4.83341 55.4709 4.60469 55.7437C4.37817 56.0138 4.13146 56.2235 3.88004 56.3742C3.63519 56.521 3.38719 56.5891 3.13371 56.5891Z" fill="#142136" stroke="white" stroke-width="0.3"/>
<path d="M17.6997 57.3128L17.6996 57.3128L17.6994 57.3174C17.6906 57.4748 17.7157 57.6289 17.8131 57.7586C17.9236 57.9059 18.105 57.9557 18.3143 57.9557H19.0538H19.1865L19.2027 57.824L20.6133 46.3497L20.634 46.1814H20.4644H19.0767H18.9442L18.9279 46.3129L18.4261 50.3449C18.2292 50.1607 18.0039 50.0126 17.7511 49.8977C17.3945 49.7357 17.0071 49.6557 16.5835 49.6557C16.189 49.6557 15.8118 49.7362 15.4527 49.8798C15.0938 50.0232 14.7681 50.222 14.4602 50.4745C14.1521 50.7271 13.8767 51.0261 13.6337 51.3627C13.382 51.701 13.1784 52.0693 13.007 52.4663C12.8352 52.8643 12.7028 53.285 12.6093 53.7128C12.5155 54.1424 12.4687 54.5798 12.4687 55.0171C12.4687 55.9785 12.6621 56.7418 13.0887 57.2747C13.5167 57.8094 14.1033 58.07 14.8374 58.07C15.1535 58.07 15.4604 58.0132 15.7725 57.9012C16.0855 57.7889 16.3729 57.629 16.65 57.4233C16.9266 57.218 17.1861 56.9741 17.4365 56.6848C17.5611 56.5408 17.6797 56.3893 17.7933 56.2304L17.6997 57.3128ZM16.0794 56.4275C15.88 56.5471 15.69 56.6135 15.5044 56.6348H15.3788C14.9902 56.6348 14.7085 56.4886 14.5016 56.2018C14.2914 55.9105 14.1792 55.4746 14.1792 54.8724C14.1792 54.5793 14.2159 54.2685 14.2686 53.9605C14.3203 53.6579 14.4015 53.3628 14.5123 53.0748L14.5123 53.0748L14.5131 53.0728C14.6164 52.7926 14.7492 52.5198 14.904 52.2693L14.904 52.2694L14.9057 52.2666C15.0512 52.0194 15.2251 51.8025 15.4196 51.6225C15.6151 51.4416 15.823 51.2987 16.0584 51.1918C16.2891 51.087 16.527 51.0376 16.797 51.0376C17.0657 51.0376 17.3445 51.0942 17.6187 51.2024C17.8626 51.2986 18.0736 51.4618 18.2572 51.699L18.0225 53.6262C17.8663 54.0622 17.6809 54.469 17.4808 54.8392C17.2807 55.2094 17.0508 55.5282 16.8132 55.8028C16.5779 56.0746 16.3314 56.2836 16.0821 56.4259L16.0821 56.4259L16.0794 56.4275Z" fill="#142136" stroke="white" stroke-width="0.3"/>
<path d="M23.9225 49.938L23.9428 49.77H23.7736H22.3783H22.2453L22.2293 49.902L21.2763 57.7877L21.256 57.9557H21.4252H22.8205H22.9534L22.9694 57.8237L23.9225 49.938ZM24.3532 47.8925C24.4134 47.755 24.4497 47.6126 24.4497 47.4514C24.4497 47.2914 24.414 47.1414 24.3532 47.0027C24.2916 46.8619 24.204 46.74 24.1007 46.6367C24.0001 46.5362 23.8859 46.4473 23.7422 46.3844C23.606 46.3249 23.4634 46.288 23.3161 46.288C23.1691 46.288 23.0256 46.3247 22.8943 46.3859C22.7601 46.4485 22.647 46.5365 22.5467 46.6367C22.4399 46.7434 22.3614 46.8665 22.3018 47.0027C22.2411 47.1414 22.2054 47.2914 22.2054 47.4514C22.2054 47.6109 22.2409 47.762 22.3033 47.8958C22.3624 48.0223 22.4403 48.1445 22.5467 48.2508C22.647 48.351 22.7601 48.439 22.8943 48.5016C23.0249 48.5625 23.1608 48.5995 23.3161 48.5995C23.47 48.5995 23.6135 48.5632 23.7455 48.5016C23.8767 48.4404 23.9977 48.3538 24.1007 48.2508C24.2013 48.1503 24.2903 48.0361 24.3532 47.8925Z" fill="#142136" stroke="white" stroke-width="0.3"/>
<path d="M25.0774 49.77H25.0531L25.03 49.7777L25.0072 49.7853L24.8748 49.8294L24.9092 49.9646L26.9145 57.8503L26.9432 57.9633H27.0598H28.2493H28.3422L28.3836 57.8802L32.3102 49.9945L32.4182 49.7776H32.176H31.0704C30.9435 49.7776 30.8301 49.8204 30.7328 49.8885C30.6322 49.9589 30.5649 50.0479 30.5118 50.1453L30.5115 50.1451L30.5074 50.1538L28.1518 55.212C28.0703 55.3817 27.994 55.5531 27.9286 55.7257C27.9068 55.5615 27.8785 55.3914 27.839 55.2204L26.7336 50.1774L26.7335 50.1769C26.7113 50.0771 26.6574 49.9838 26.5788 49.9053C26.4833 49.8099 26.3576 49.77 26.2211 49.77H25.0774Z" fill="#142136" stroke="white" stroke-width="0.3"/>
<path d="M35.0926 49.938L35.1129 49.77H34.9437H33.5484H33.4155L33.3995 49.902L32.4464 57.7877L32.4261 57.9557H32.5953H33.9906H34.1236L34.1396 57.8237L35.0926 49.938ZM35.5157 47.8925C35.5759 47.755 35.6122 47.6126 35.6122 47.4514C35.6122 47.2914 35.5765 47.1414 35.5157 47.0027C35.4541 46.8619 35.3666 46.74 35.2632 46.6367C35.1626 46.5362 35.0484 46.4473 34.9047 46.3844C34.7685 46.3249 34.6259 46.288 34.4786 46.288C34.3317 46.288 34.1881 46.3247 34.0569 46.3859C33.9226 46.4485 33.8095 46.5365 33.7092 46.6367C33.6024 46.7434 33.524 46.8665 33.4644 47.0027C33.4036 47.1414 33.3679 47.2914 33.3679 47.4514C33.3679 47.6109 33.4034 47.762 33.4659 47.8958C33.5249 48.0223 33.6028 48.1445 33.7092 48.2508C33.8095 48.351 33.9226 48.439 34.0569 48.5016C34.1874 48.5625 34.3234 48.5995 34.4786 48.5995C34.6325 48.5995 34.776 48.5632 34.908 48.5016C35.0393 48.4404 35.1602 48.3538 35.2632 48.2508C35.3639 48.1503 35.4528 48.0361 35.5157 47.8925Z" fill="#142136" stroke="white" stroke-width="0.3"/>
<path d="M38.9205 51.0543L38.9206 51.0544L38.9253 51.0528C39.1123 50.9905 39.3243 50.9614 39.5642 50.9614C39.8209 50.9614 40.0324 50.9909 40.1953 51.0452C40.3762 51.1054 40.5269 51.1633 40.6453 51.2259C40.7718 51.2928 40.8729 51.3507 40.9578 51.4071C41.0591 51.48 41.1722 51.5252 41.2873 51.5252C41.3801 51.5252 41.4637 51.504 41.5382 51.4544C41.5705 51.4329 41.5989 51.4073 41.6246 51.38L41.6497 51.3925L41.7236 51.2849L42.0743 50.7745L42.145 50.6716L42.0567 50.5834C41.7685 50.2954 41.424 50.0632 41.024 49.9031C40.6204 49.734 40.1579 49.6557 39.6404 49.6557C39.1607 49.6557 38.7223 49.7264 38.3281 49.8792C37.9402 50.0295 37.6033 50.229 37.3282 50.4796C37.054 50.7295 36.8443 51.0197 36.6914 51.3413C36.5367 51.6669 36.4634 52.009 36.4634 52.3581C36.4634 52.7146 36.5635 53.0228 36.7547 53.2661C36.9375 53.4984 37.1754 53.6856 37.4476 53.8376C37.716 53.9875 38.0063 54.1127 38.3176 54.2216C38.6183 54.3268 38.8956 54.4392 39.1496 54.5586C39.396 54.6745 39.5956 54.8104 39.7579 54.9656C39.899 55.1004 39.9708 55.2798 39.9708 55.5124C39.9708 55.6826 39.9368 55.842 39.8646 55.9862L39.8644 55.9861L39.8612 55.9935C39.7967 56.1419 39.6916 56.2691 39.5509 56.3885C39.4165 56.5027 39.2439 56.5938 39.0349 56.6658C38.8318 56.7358 38.6046 56.7719 38.3442 56.7719C38.0382 56.7719 37.8007 56.7416 37.6279 56.6752C37.4331 56.6003 37.2775 56.5288 37.1541 56.4466L37.1541 56.4465L37.1491 56.4434C37.0217 56.3656 36.9218 56.2876 36.8337 56.2143C36.7296 56.1206 36.6046 56.0633 36.4762 56.0633C36.2566 56.0633 36.0902 56.1732 35.9758 56.3542L35.9756 56.3544L35.6401 56.8878L35.5791 56.9848L35.6567 57.0692C35.9309 57.3673 36.2765 57.6157 36.7072 57.799C37.1398 57.9831 37.6252 58.0776 38.1765 58.0776C38.6876 58.0776 39.1485 57.999 39.5646 57.8391C39.9743 57.6816 40.3348 57.4747 40.6262 57.2078C40.9148 56.9434 41.1402 56.6379 41.3013 56.2919C41.4632 55.9442 41.5441 55.5721 41.5441 55.1924C41.5441 54.9397 41.4848 54.7147 41.3707 54.5218C41.2611 54.3365 41.119 54.1788 40.94 54.0325C40.7621 53.887 40.5693 53.7669 40.3479 53.6563C40.1319 53.5483 39.9151 53.4478 39.6901 53.3547C39.4682 53.263 39.2511 53.1732 39.0497 53.0763C38.8455 52.978 38.6631 52.8829 38.5049 52.7751C38.3487 52.6686 38.2326 52.5583 38.1456 52.4379L38.1456 52.4378L38.1424 52.4336C38.0599 52.3276 38.0215 52.2019 38.0215 52.0457C38.0215 51.9103 38.0536 51.7753 38.1249 51.6457C38.1964 51.5157 38.303 51.4008 38.4371 51.2949C38.5648 51.1942 38.73 51.1107 38.9205 51.0543Z" fill="#142136" stroke="white" stroke-width="0.3"/>
<path d="M45.3171 49.938L45.3374 49.77H45.1682H43.7729H43.6399L43.624 49.902L42.6709 57.7877L42.6506 57.9557H42.8198H44.2151H44.3481L44.364 57.8237L45.3171 49.938ZM45.7478 47.8925C45.808 47.755 45.8443 47.6126 45.8443 47.4514C45.8443 47.2914 45.8086 47.1414 45.7478 47.0027C45.6862 46.8619 45.5987 46.74 45.4953 46.6367C45.3947 46.5362 45.2805 46.4473 45.1368 46.3844C45.0006 46.3249 44.858 46.288 44.7107 46.288C44.5638 46.288 44.4202 46.3247 44.289 46.3859C44.1548 46.4485 44.0416 46.5365 43.9414 46.6367C43.8346 46.7434 43.7561 46.8665 43.6965 47.0027C43.6357 47.1414 43.6 47.2914 43.6 47.4514C43.6 47.6109 43.6355 47.762 43.698 47.8958C43.7571 48.0223 43.8349 48.1445 43.9414 48.2508C44.0416 48.351 44.1548 48.439 44.289 48.5016C44.4195 48.5625 44.5555 48.5995 44.7107 48.5995C44.8646 48.5995 45.0081 48.5632 45.1401 48.5016C45.2714 48.4404 45.3923 48.3538 45.4953 48.2508C45.596 48.1503 45.685 48.0361 45.7478 47.8925Z" fill="#142136" stroke="white" stroke-width="0.3"/>
<path d="M49.5373 58.07H49.6299L49.638 58.0538C50.2333 58.0419 50.7894 57.9153 51.3106 57.6588C51.8551 57.3984 52.3286 57.0355 52.7227 56.5866C53.116 56.1385 53.4303 55.62 53.6577 55.0167C53.8856 54.4119 53.9952 53.7767 53.9952 53.1047C53.9952 52.5724 53.9169 52.0809 53.7486 51.6484C53.5819 51.2202 53.3502 50.8514 53.0515 50.5529C52.7528 50.2545 52.3915 50.0306 51.9861 49.8718C51.5777 49.7117 51.1242 49.6328 50.6428 49.6328C50.0107 49.6328 49.4244 49.7673 48.8779 50.0285C48.3342 50.2883 47.8604 50.6431 47.4655 51.0929C47.063 51.5426 46.7569 52.0693 46.5303 52.6627L46.53 52.6633C46.302 53.2682 46.1925 53.9034 46.1925 54.5828C46.1925 55.1245 46.2789 55.6147 46.4382 56.0445C46.5975 56.4741 46.8295 56.8432 47.1279 57.1416C47.427 57.4483 47.7889 57.6723 48.194 57.8311C48.6024 57.9911 49.0559 58.07 49.5373 58.07ZM50.7169 56.3826C50.4076 56.5723 50.0541 56.6652 49.6592 56.6652C49.075 56.6652 48.6549 56.4866 48.3614 56.1524C48.0673 55.8175 47.9107 55.3035 47.9107 54.5828C47.9107 54.1095 47.9773 53.6589 48.1029 53.2308C48.2287 52.802 48.4049 52.4222 48.6368 52.1035C48.8695 51.7839 49.1447 51.5307 49.4632 51.3355C49.7725 51.1458 50.126 51.0528 50.5208 51.0528C51.0988 51.0528 51.5183 51.2247 51.8111 51.558C52.1061 51.894 52.2694 52.4014 52.2694 53.12C52.2694 53.5855 52.2028 54.0363 52.077 54.4727C51.9515 54.9078 51.7754 55.2807 51.5423 55.6082C51.31 55.9346 51.0352 56.1874 50.7169 56.3826Z" fill="#142136" stroke="white" stroke-width="0.3"/>
<path d="M57.1444 51.3803L57.2123 50.397C57.2298 50.2089 57.1869 50.0338 57.0569 49.9157C56.9364 49.8062 56.7732 49.7624 56.5977 49.7624H55.8962H55.7631L55.7473 49.8946L54.808 57.7363L54.5806 57.9633H54.9431H56.3537H56.4879L56.5028 57.8299L56.9433 53.8683C57.0841 53.4419 57.2532 53.0697 57.4641 52.7353C57.6808 52.3918 57.9028 52.1041 58.1447 51.8623C58.3895 51.6178 58.6271 51.4323 58.8804 51.3128C59.1404 51.1902 59.3776 51.1291 59.6094 51.1291C60.0044 51.1291 60.2348 51.2636 60.3618 51.4922C60.4919 51.7403 60.5419 52.1589 60.4596 52.7646L60.4592 52.7674L59.8721 57.7959L59.8526 57.9633H60.0211H61.4317H61.5652L61.5807 57.8307L62.1675 52.804C62.1676 52.8037 62.1676 52.8034 62.1677 52.8031C62.2299 52.3202 62.2306 51.8864 62.1668 51.4958C62.1033 51.1068 61.9831 50.7747 61.8104 50.5031C61.6352 50.2201 61.4003 50.0106 61.1083 49.8689C60.8191 49.7285 60.4914 49.6557 60.1279 49.6557C59.5166 49.6557 58.9166 49.841 58.3456 50.2134C57.9072 50.4994 57.5049 50.8905 57.1444 51.3803ZM54.9334 57.8037V57.8037Z" fill="#142136" stroke="white" stroke-width="0.3"/>
<path d="M70.2533 58.07H70.346L70.3541 58.0538C70.9493 58.0419 71.5054 57.9153 72.0267 57.6588C72.5712 57.3984 73.0447 57.0355 73.4388 56.5866C73.8321 56.1385 74.1464 55.62 74.3737 55.0167C74.6017 54.4119 74.7112 53.7767 74.7112 53.1047C74.7112 52.5724 74.6329 52.0809 74.4647 51.6484C74.298 51.2202 74.0662 50.8514 73.7676 50.5529C73.4689 50.2545 73.1075 50.0306 72.7022 49.8718C72.2937 49.7117 71.8403 49.6328 71.3589 49.6328C70.7268 49.6328 70.1404 49.7673 69.5939 50.0285C69.0503 50.2883 68.5765 50.6431 68.1815 51.0929C67.779 51.5426 67.4729 52.0693 67.2463 52.6627L67.2461 52.6633C67.0181 53.2682 66.9086 53.9034 66.9086 54.5828C66.9086 55.1245 66.995 55.6147 67.1543 56.0445C67.3135 56.4741 67.5456 56.8432 67.844 57.1416C68.1431 57.4483 68.5049 57.6723 68.91 57.8311C69.3185 57.9911 69.7719 58.07 70.2533 58.07ZM71.433 56.3826C71.1237 56.5723 70.7702 56.6652 70.3753 56.6652C69.7911 56.6652 69.3709 56.4866 69.0775 56.1524C68.7834 55.8175 68.6268 55.3035 68.6268 54.5828C68.6268 54.1095 68.6934 53.6589 68.819 53.2308C68.9447 52.802 69.121 52.4222 69.3529 52.1035C69.5855 51.7839 69.8608 51.5307 70.1792 51.3355C70.4886 51.1458 70.842 51.0528 71.2369 51.0528C71.8149 51.0528 72.2344 51.2247 72.5271 51.558C72.8221 51.894 72.9854 52.4014 72.9854 53.12C72.9854 53.5855 72.9189 54.0363 72.7931 54.4727C72.6676 54.9078 72.4915 55.2807 72.2584 55.6082C72.0261 55.9346 71.7513 56.1874 71.433 56.3826Z" fill="#142136" stroke="white" stroke-width="0.3"/>
<path d="M78.3707 49.9148L78.4459 49.377L78.4459 49.377L78.4464 49.3732C78.483 49.0508 78.5558 48.7844 78.6551 48.5647C78.7557 48.3422 78.8744 48.1703 79.0155 48.0427C79.1579 47.914 79.3219 47.8245 79.5113 47.7614C79.6989 47.6989 79.9035 47.67 80.1349 47.67H80.1354H80.136H80.1366H80.1372H80.1378H80.1383H80.1389H80.1395H80.1401H80.1407H80.1412H80.1418H80.1424H80.143H80.1435H80.1441H80.1447H80.1453H80.1458H80.1464H80.147H80.1476H80.1481H80.1487H80.1493H80.1499H80.1504H80.151H80.1516H80.1521H80.1527H80.1533H80.1538H80.1544H80.155H80.1556H80.1561H80.1567H80.1573H80.1578H80.1584H80.159H80.1595H80.1601H80.1607H80.1612H80.1618H80.1624H80.1629H80.1635H80.164H80.1646H80.1652H80.1657H80.1663H80.1669H80.1674H80.168H80.1685H80.1691H80.1697H80.1702H80.1708H80.1714H80.1719H80.1725H80.173H80.1736H80.1741H80.1747H80.1753H80.1758H80.1764H80.1769H80.1775H80.178H80.1786H80.1792H80.1797H80.1803H80.1808H80.1814H80.1819H80.1825H80.183H80.1836H80.1841H80.1847H80.1853H80.1858H80.1864H80.1869H80.1875H80.188H80.1886H80.1891H80.1897H80.1902H80.1908H80.1913H80.1919H80.1924H80.193H80.1935H80.1941H80.1946H80.1952H80.1957H80.1962H80.1968H80.1973H80.1979H80.1984H80.199H80.1995H80.2001H80.2006H80.2012H80.2017H80.2022H80.2028H80.2033H80.2039H80.2044H80.205H80.2055H80.206H80.2066H80.2071H80.2077H80.2082H80.2088H80.2093H80.2098H80.2104H80.2109H80.2115H80.212H80.2125H80.2131H80.2136H80.2141H80.2147H80.2152H80.2158H80.2163H80.2168H80.2174H80.2179H80.2184H80.219H80.2195H80.22H80.2206H80.2211H80.2217H80.2222H80.2227H80.2233H80.2238H80.2243H80.2249H80.2254H80.2259H80.2265H80.227H80.2275H80.2281H80.2286H80.2291H80.2296H80.2302H80.2307H80.2312H80.2318H80.2323H80.2328H80.2334H80.2339H80.2344H80.2349H80.2355H80.236H80.2365H80.2371H80.2376H80.2381H80.2386H80.2392H80.2397H80.2402H80.2407H80.2413H80.2418H80.2423H80.2429H80.2434H80.2439H80.2444H80.245H80.2455H80.246H80.2465H80.247H80.2476H80.2481H80.2486H80.2491H80.2497H80.2502H80.2507H80.2512H80.2518H80.2523H80.2528H80.2533H80.2538H80.2544H80.2549H80.2554H80.2559H80.2564H80.257H80.2575H80.258H80.2585H80.259H80.2596H80.2601H80.2606H80.2611H80.2616H80.2622H80.2627H80.2632H80.2637H80.2642H80.2647H80.2653H80.2658H80.2663H80.2668H80.2673H80.2678H80.2684H80.2689H80.2694H80.2699H80.2704H80.2709H80.2714H80.272H80.2725H80.273H80.2735H80.274H80.2745H80.275H80.2756H80.2761H80.2766H80.2771H80.2776H80.2781H80.2786H80.2791H80.2797H80.2802H80.2807H80.2812H80.2817H80.2822H80.2827H80.2832H80.2837H80.2843H80.2848H80.2853H80.2858H80.2863H80.2868H80.2873H80.2878H80.2883H80.2888H80.2894H80.2899H80.2904H80.2909H80.2914H80.2919H80.2924H80.2929H80.2934H80.2939H80.2944H80.2949H80.2954H80.296H80.2965H80.297H80.2975H80.298H80.2985H80.299H80.2995H80.3H80.3005H80.301H80.3015H80.302H80.3025H80.303H80.3035H80.304H80.3046H80.3051H80.3056H80.3061H80.3066H80.3071H80.3076H80.3081H80.3086H80.3091H80.3096H80.3101H80.3106H80.3111H80.3116H80.3121H80.3126H80.3131H80.3136H80.3141H80.3146H80.3151H80.3156H80.3161H80.3166H80.3171H80.3176H80.3181H80.3186H80.3191H80.3196H80.3201H80.3206H80.3211H80.3216H80.3221H80.3226H80.3231H80.3236H80.3241H80.3246H80.3251H80.3256H80.3261H80.3266H80.3271H80.3276H80.3281H80.3286H80.3291H80.3296H80.3301H80.3306H80.3311H80.3316H80.3321H80.3326H80.3331H80.3336H80.3341H80.3346H80.3351H80.3356H80.3361H80.3366H80.3371H80.3376H80.3381H80.3386H80.3391H80.3396H80.3401H80.3406H80.3411H80.3416H80.3421H80.3426H80.3431H80.3436H80.344H80.3445H80.345H80.3455H80.346H80.3465H80.347H80.3475H80.348H80.3485H80.349H80.3495H80.35H80.3505H80.351H80.3515H80.352H80.3525H80.353H80.3535H80.354H80.3545H80.3549H80.3554H80.3559H80.3564H80.3569H80.3574H80.3579H80.3584H80.3589H80.3594H80.3599H80.3604H80.3609H80.3614H80.3619H80.3624H80.3628H80.3633H80.3638H80.3643H80.3648H80.3653H80.3658H80.3663H80.3668H80.3673H80.3678H80.3683H80.3688H80.3693H80.3698H80.3702H80.3707H80.3712H80.3717H80.3722H80.3727H80.3732H80.3737H80.3742H80.3747H80.3752H80.3757H80.3762H80.3767H80.3771H80.3776H80.3781H80.3786H80.3791H80.3796H80.3801H80.3806H80.3811H80.3816H80.3821H80.3826H80.383H80.3835H80.384H80.3845H80.385H80.3855H80.386H80.3865H80.387H80.3875H80.388H80.3885H80.3889H80.3894H80.3899H80.3904H80.3909H80.3914H80.3919H80.3924H80.3929H80.3934H80.3939H80.3944H80.3948H80.3953H80.3958H80.3963H80.3968H80.3973H80.3978H80.3983H80.3988H80.3993H80.3998H80.4003H80.4007H80.4012H80.4017H80.4022H80.4026H80.4031H80.4035H80.404H80.4044H80.4049H80.4053H80.4057H80.4062H80.4066H80.4071H80.4075H80.408H80.4084H80.4089H80.4093H80.4098H80.4102H80.4107H80.4111H80.4116H80.412H80.4124H80.4129H80.4133H80.4138H80.4142H80.4147H80.4151H80.4156H80.416H80.4165H80.4169H80.4174H80.4178H80.4183H80.4187H80.4191H80.4196H80.42H80.4205H80.4209H80.4214H80.4218H80.4223H80.4227H80.4232H80.4236H80.4241H80.4245H80.4249H80.4254H80.4258H80.4263H80.4267H80.4272H80.4276H80.4281H80.4285H80.429H80.4294H80.4298H80.4303H80.4307H80.4312H80.4316H80.4321H80.4325H80.433H80.4334H80.4339H80.4343H80.4347H80.4352H80.4356H80.4361H80.4365H80.437H80.4374H80.4379H80.4383H80.4387H80.4392H80.4396H80.4401H80.4405H80.441H80.4414H80.4419H80.4423H80.4427H80.4432H80.4436H80.4441H80.4445H80.445H80.4454H80.4458H80.4463H80.4467H80.4472H80.4476H80.4481H80.4485H80.4489H80.4494H80.4498H80.4503H80.4507H80.4512H80.4516H80.452H80.4525H80.4529H80.4534H80.4538H80.4543H80.4547H80.4551H80.4556H80.456H80.4565H80.4569H80.4574H80.4578H80.4582H80.4587H80.4591H80.4596H80.46H80.4604H80.4609H80.4613H80.4618H80.4622H80.4626H80.4631H80.4635H80.464H80.4644H80.4648H80.4653H80.4657H80.4662H80.4666H80.467H80.4675H80.4679H80.4684H80.4688H80.4692H80.4697H80.4701H80.4706H80.471H80.4714H80.4719H80.4723H80.4727H80.4732H80.4736H80.4741H80.4745H80.4749H80.4754H80.4758H80.4762H80.4767H80.4771H80.4776H80.478H80.4784H80.4789H80.4793H80.4797H80.4802H80.4806H80.481H80.4815H80.4819H80.4824H80.4828H80.4832H80.4837H80.4841H80.4845H80.485H80.4854H80.4858H80.4863H80.4867H80.4871H80.4876H80.488H80.4884H80.4889H80.4893H80.4897H80.4902H80.4906H80.491H80.4915H80.4919H80.4923H80.4928H80.4932H80.4936H80.4941H80.4945H80.4949H80.4954H80.4958H80.4962H80.4967H80.4971H80.4975H80.4979H80.4984H80.4988H80.4992H80.4997H80.5001H80.5005H80.501H80.5014H80.5018H80.5022H80.5027H80.5031H80.5035H80.504H80.5044H80.5048H80.5052H80.5057H80.5061H80.5065H80.507H80.5074H80.5078H80.5082H80.5087H80.5091H80.5095H80.5099H80.5104H80.5108H80.5112H80.5116H80.5121H80.5125H80.5129H80.5133H80.5138H80.5142H80.5146H80.515H80.5155H80.5159H80.5163H80.5167H80.5172H80.5176H80.518H80.5184H80.5189H80.5193H80.5197H80.5201H80.5205H80.521H80.5214H80.5218H80.5222H80.5226H80.5231H80.5235H80.5239H80.5243H80.5247H80.5252H80.5256H80.526H80.5264H80.5268H80.5273H80.5277H80.5281H80.5285H80.5289H80.5294H80.5298H80.5302H80.5306H80.531H80.5314H80.5319H80.5323H80.5327H80.5331H80.5335H80.5339H80.5344H80.5348H80.5352H80.5356H80.536H80.5364H80.5368H80.5373H80.5377H80.5381H80.5385H80.5389H80.5393H80.5397H80.5401H80.5406H80.541H80.5414H80.5418H80.5422H80.5426H80.543H80.5434H80.5438H80.5443H80.5447H80.5451H80.5455H80.5459H80.5463H80.5467H80.5471H80.5475H80.5479H80.5483H80.5488H80.5492H80.5496H80.55H80.5504H80.5508H80.5512H80.5516H80.552H80.5524H80.5528H80.5532H80.5536H80.554H80.5544H80.5548H80.5552H80.5557H80.5561H80.5565H80.5569H80.5573H80.5577H80.5581H80.5585H80.5589H80.5593H80.5597H80.5601H80.5605H80.5609H80.5613H80.5617H80.5621H80.5625H80.5629H80.5633H80.5637H80.5641H80.5645H80.5649H80.5653H80.5657H80.5661H80.5665H80.5669H80.5672H80.5676H80.568H80.5684H80.5688H80.5692H80.5696H80.57H80.5704H80.5708H80.5712H80.5716H80.572H80.5724H80.5728H80.5732H80.5736H80.5739H80.5743H80.5747H80.5751H80.5755H80.5759H80.5763H80.5767H80.5771H80.5775H80.5779H80.5782H80.5786H80.579H80.5794H80.5798H80.5802H80.5806H80.581H80.5813H80.5817H80.5821H80.5825H80.5829H80.5833H80.5837H80.584H80.5844H80.5848H80.5852H80.5856H80.586H80.5863H80.5867H80.5871H80.5875H80.5879H80.5882H80.5886H80.589H80.5894H80.5898H80.5901H80.5905H80.5909H80.5913H80.5917H80.592H80.5924H80.5928H80.5932H80.5936H80.5939H80.5943H80.5947H80.5951H80.5954H80.5958H80.5962H80.5966H80.5969H80.5973H80.5977H80.5981H80.5984H80.5988H80.5992H80.5995H80.5999H80.6003H80.6007H80.601H80.6014H80.6018H80.6021H80.6025H80.6029H80.6032H80.6036H80.604H80.6043H80.6047H80.6051H80.6054H80.6058H80.6062H80.6065H80.6069H80.6073H80.6076H80.608H80.6084H80.6087H80.6091H80.6095H80.6098H80.6102H80.6105H80.6109H80.6113H80.6116H80.612H80.6124H80.6127H80.6131H80.6134H80.6138H80.6141H80.6145H80.6149H80.6152C80.6999 47.67 80.7806 47.6491 80.8448 47.6106C80.9162 47.5678 80.9766 47.4936 80.992 47.3917L81.1213 46.6624L81.1439 46.5348L81.021 46.4939C80.7088 46.3899 80.3802 46.3338 80.0357 46.3338C79.6091 46.3338 79.2099 46.397 78.8401 46.5336C78.4733 46.669 78.1443 46.8611 77.8624 47.1105C77.5809 47.3597 77.3408 47.672 77.1573 48.0384C76.9648 48.4076 76.8464 48.8289 76.7913 49.2918L76.7096 49.9072H75.6211H75.4844L75.4717 50.0432L75.4184 50.6146L75.4183 50.6146L75.4181 50.6179C75.4086 50.7512 75.4361 50.879 75.5235 50.9788C75.6071 51.0743 75.729 51.1251 75.8566 51.1359L76.5521 51.2298L75.5103 59.7227L75.4897 59.891H75.6592H76.2234C76.4566 59.891 76.6468 59.8298 76.7944 59.702L76.7944 59.702L76.7982 59.6985C76.9341 59.5724 77.0209 59.389 77.0706 59.1822C77.0707 59.1821 77.0707 59.1819 77.0707 59.1817L77.467 57.5828L77.4692 57.5739L77.4703 57.5648L78.2396 51.2357H80.2187H80.3509L80.3675 51.1046L80.4972 50.0837L80.5186 49.9148H80.3484H78.3707Z" fill="#142136" stroke="white" stroke-width="0.3"/>
<mask id="path-25-outside-1_91_1499" maskUnits="userSpaceOnUse" x="85.4558" y="27.0381" width="171" height="38" fill="black">
<rect fill="white" x="85.4558" y="27.0381" width="171" height="38"/>
<path fill-rule="evenodd" clip-rule="evenodd" d="M247.717 56.5409C244.514 56.5409 245.666 52.64 245.666 52.64V52.6324C245.666 52.6324 255.448 52.1981 255.448 47.1771C255.448 44.7009 251.422 44.8 251.422 44.8C245.14 44.8 241.16 48.8609 241.16 54.3619C241.16 57.1276 243.722 58.4533 246.832 58.4533C250.324 58.4533 253.778 54.819 253.778 54.819L253.001 54.1105C253.001 54.1105 251.186 56.5409 247.717 56.5409ZM251.209 47.8095C251.209 49.5162 249.699 51.5809 245.895 51.5809L245.887 51.5733C245.887 51.5733 247.358 45.8133 249.966 45.8133C250.965 45.8133 251.209 46.5143 251.209 47.8095Z"/>
<path fill-rule="evenodd" clip-rule="evenodd" d="M169.785 58.4305C173.666 58.4305 180.361 55.5809 180.361 48.8152H180.368C180.368 45.9352 177.585 44.6933 174.589 44.6933C170.289 44.6933 164.425 48.5257 164.425 53.699C164.425 56.3429 165.904 58.4305 169.785 58.4305ZM174.497 45.7524C175.237 45.7524 176.068 46.0724 176.068 47.779V47.7867C176.068 49.4933 174.116 57.4933 170.083 57.4933C169.282 57.4933 168.642 56.6933 168.642 55.3143C168.642 52.6933 170.998 45.7524 174.497 45.7524Z"/>
<path d="M200.604 46.9638C199.178 46.9638 198.058 47.5581 197.272 48.099L197.257 48.1067L193.14 58.0876H189.099L192.896 48.9067C192.896 48.9067 193.59 47.0019 192.293 47.0019C189.808 47.0019 188.412 48.8533 188.412 48.8533L184.608 58.019L180.559 58.0876L184.417 48.7238C184.417 48.7238 184.875 46.8038 183.479 46.8038C182.816 46.8038 181.474 47.1086 181.474 47.1086L181.924 46.0648C181.924 46.0648 184.15 44.96 186.377 44.96C188.878 44.96 188.916 47.3524 188.916 47.3524C188.916 47.3524 191.577 44.8533 195.16 44.8533C197.089 44.8533 197.57 45.9505 197.585 47.0171C198.431 46.3543 200.665 44.8305 203.463 44.8305C207.238 44.8305 205.476 49.0209 205.476 49.0209C205.476 49.0209 204.005 52.6324 203.334 53.9809C203.265 54.1181 203.193 54.2562 203.121 54.3932C202.54 55.5048 201.994 56.5495 203.677 56.4952C204.439 56.4648 205.888 56.1676 205.888 56.1676L205.453 57.1733C205.453 57.1733 203.044 58.2476 201.504 58.2476C199.964 58.2476 198.858 57.5848 198.858 56.1676C198.858 54.7505 199.552 53.4857 199.552 53.4857L201.527 48.7238C201.527 48.7238 201.9 46.9638 200.604 46.9638Z"/>
<path d="M158.535 45.3714H156.076L155.611 46.72H158.15L155.146 54.1257C155.146 54.1257 154.719 55.1695 154.719 56.2667C154.719 57.12 154.971 58.3314 157.159 58.3314C159.347 58.3314 161.985 57.2648 161.985 57.2648L162.458 56.2133C162.458 56.2133 160.834 56.6324 160.323 56.6324C158.112 56.6324 159.218 53.9276 159.218 53.9276L162.176 46.7428H165.729L166.347 45.4248H162.786L164.463 41.4324H160.194L158.535 45.3714Z"/>
<path fill-rule="evenodd" clip-rule="evenodd" d="M236.524 56.419L241.076 45.0057V44.9981L237.004 45.8438C237.004 45.8438 235.937 44.8 234.008 44.8C229.746 44.8 224.065 48.9828 224.065 54.7428C224.065 57.2724 225.743 58.3847 227.672 58.3847C230.34 58.3847 232.727 56.3581 232.727 56.3581C232.727 56.3581 230.63 62.7809 227.153 62.7809C227.153 62.4 226.314 59.3524 224.302 59.3524C223.089 59.3524 221.976 60.5105 221.976 61.7752C221.976 62.8419 223.089 63.7714 227.062 63.7714C234.236 63.7714 236.524 56.419 236.524 56.419ZM229.014 52.6324C229.014 52.6324 230.592 46.0876 234.412 46.0876C236.249 46.0876 235.807 48.1448 235.807 48.1448L232.994 55.0476C232.994 55.0476 232.071 56.4495 229.997 56.4495C227.923 56.4495 229.014 52.6324 229.014 52.6324Z"/>
<path fill-rule="evenodd" clip-rule="evenodd" d="M152.805 56.1067C152.805 56.1067 151.677 56.48 150.968 56.48V56.4724C150.259 56.4724 149.71 56.1981 149.71 55.3371C149.71 54.4762 154.056 44.9219 154.056 44.9219L149.542 45.8438C149.542 45.8438 148.475 44.8 146.546 44.8C142.283 44.8 136.603 48.9828 136.603 54.7428C136.603 57.2724 138.28 58.3847 140.209 58.3847C142.878 58.3847 145.265 56.3581 145.265 56.3581C145.265 56.3581 145.608 58.2705 148.101 58.2705C150.594 58.2705 152.256 57.2571 152.256 57.2571L152.805 56.1067ZM141.574 52.6324C141.574 52.6324 143.153 46.0876 146.973 46.0876V46.08C148.81 46.08 148.696 47.8552 148.696 47.8552L145.798 54.9333C145.798 54.9333 144.632 56.4495 142.558 56.4495C140.484 56.4495 141.574 52.6324 141.574 52.6324Z"/>
<path fill-rule="evenodd" clip-rule="evenodd" d="M115.765 58.1105L116.321 56.8533L116.306 56.8381C116.306 56.8381 113.927 56.6552 113.927 55.0933C113.927 54.3314 114.301 53.0286 114.301 53.0286L121.468 28.0381H120.073L93.4247 53.76C93.4247 53.76 90.6494 56.7009 87.081 56.7009L86.4558 58.0724H97.3438L97.9309 56.7924C97.9309 56.7924 94.8887 56.6857 94.8887 55.4514C94.8887 54.8343 95.9332 53.8667 95.9332 53.8667L101.697 47.8247H111.876L109.475 55.1848C109.475 55.1848 108.689 56.7848 104.648 56.7848C104.625 56.7848 104.069 58.1105 104.069 58.1105H115.765ZM115.803 34.5295L112.456 46.0571H103.588L115.803 34.5295Z"/>
<path d="M120.004 46.0495L119.554 47.0933L119.562 47.0857C119.562 47.0857 120.904 46.7809 121.567 46.7809C122.963 46.7809 122.551 48.8228 122.551 48.8228L118.731 58.0495L122.749 58.0952L126.508 48.8305C126.508 48.8305 127.903 46.979 130.389 46.979C131.685 46.979 131.266 48.5714 131.266 48.5714C131.266 48.5714 128.567 54.4457 128.536 56.1752C128.513 57.5924 129.71 58.2095 131.251 58.2095C132.791 58.2095 135.2 57.1352 135.2 57.1352L135.635 56.1295C135.635 56.1295 134.186 56.4114 133.424 56.4495C131.649 56.5462 132.277 55.2684 132.752 54.3006C132.839 54.1245 132.92 53.9587 132.981 53.8133C133.378 52.8686 135.131 48.9448 135.131 48.9448C135.131 48.9448 137.015 44.8381 133.241 44.8381C129.657 44.8381 126.996 47.3371 126.996 47.3371C126.996 47.3371 126.958 44.9448 124.457 44.9448C122.231 44.9448 120.004 46.0495 120.004 46.0495Z"/>
<path fill-rule="evenodd" clip-rule="evenodd" d="M223.242 56.221C223.242 56.221 222.113 56.5943 221.404 56.5943V56.5867C220.695 56.5867 220.146 56.3124 220.146 55.4514C220.146 54.5905 224.492 45.0362 224.492 45.0362L219.978 45.9581C219.978 45.9581 218.911 44.9143 216.982 44.9143C212.72 44.9143 207.039 49.0972 207.039 54.8572C207.039 57.3867 208.717 58.4991 210.646 58.4991C213.314 58.4991 215.701 56.4724 215.701 56.4724C215.701 56.4724 216.044 58.3848 218.537 58.3848C221.031 58.3848 222.693 57.3714 222.693 57.3714L223.242 56.221ZM212.011 52.7467C212.011 52.7467 213.589 46.2019 217.409 46.2019V46.1943C219.246 46.1943 219.132 47.9695 219.132 47.9695L216.235 55.0476C216.235 55.0476 215.068 56.5638 212.994 56.5638C210.92 56.5638 212.011 52.7467 212.011 52.7467Z"/>
</mask>
<path fill-rule="evenodd" clip-rule="evenodd" d="M247.717 56.5409C244.514 56.5409 245.666 52.64 245.666 52.64V52.6324C245.666 52.6324 255.448 52.1981 255.448 47.1771C255.448 44.7009 251.422 44.8 251.422 44.8C245.14 44.8 241.16 48.8609 241.16 54.3619C241.16 57.1276 243.722 58.4533 246.832 58.4533C250.324 58.4533 253.778 54.819 253.778 54.819L253.001 54.1105C253.001 54.1105 251.186 56.5409 247.717 56.5409ZM251.209 47.8095C251.209 49.5162 249.699 51.5809 245.895 51.5809L245.887 51.5733C245.887 51.5733 247.358 45.8133 249.966 45.8133C250.965 45.8133 251.209 46.5143 251.209 47.8095Z" fill="#142136"/>
<path fill-rule="evenodd" clip-rule="evenodd" d="M169.785 58.4305C173.666 58.4305 180.361 55.5809 180.361 48.8152H180.368C180.368 45.9352 177.585 44.6933 174.589 44.6933C170.289 44.6933 164.425 48.5257 164.425 53.699C164.425 56.3429 165.904 58.4305 169.785 58.4305ZM174.497 45.7524C175.237 45.7524 176.068 46.0724 176.068 47.779V47.7867C176.068 49.4933 174.116 57.4933 170.083 57.4933C169.282 57.4933 168.642 56.6933 168.642 55.3143C168.642 52.6933 170.998 45.7524 174.497 45.7524Z" fill="#142136"/>
<path d="M200.604 46.9638C199.178 46.9638 198.058 47.5581 197.272 48.099L197.257 48.1067L193.14 58.0876H189.099L192.896 48.9067C192.896 48.9067 193.59 47.0019 192.293 47.0019C189.808 47.0019 188.412 48.8533 188.412 48.8533L184.608 58.019L180.559 58.0876L184.417 48.7238C184.417 48.7238 184.875 46.8038 183.479 46.8038C182.816 46.8038 181.474 47.1086 181.474 47.1086L181.924 46.0648C181.924 46.0648 184.15 44.96 186.377 44.96C188.878 44.96 188.916 47.3524 188.916 47.3524C188.916 47.3524 191.577 44.8533 195.16 44.8533C197.089 44.8533 197.57 45.9505 197.585 47.0171C198.431 46.3543 200.665 44.8305 203.463 44.8305C207.238 44.8305 205.476 49.0209 205.476 49.0209C205.476 49.0209 204.005 52.6324 203.334 53.9809C203.265 54.1181 203.193 54.2562 203.121 54.3932C202.54 55.5048 201.994 56.5495 203.677 56.4952C204.439 56.4648 205.888 56.1676 205.888 56.1676L205.453 57.1733C205.453 57.1733 203.044 58.2476 201.504 58.2476C199.964 58.2476 198.858 57.5848 198.858 56.1676C198.858 54.7505 199.552 53.4857 199.552 53.4857L201.527 48.7238C201.527 48.7238 201.9 46.9638 200.604 46.9638Z" fill="#142136"/>
<path d="M158.535 45.3714H156.076L155.611 46.72H158.15L155.146 54.1257C155.146 54.1257 154.719 55.1695 154.719 56.2667C154.719 57.12 154.971 58.3314 157.159 58.3314C159.347 58.3314 161.985 57.2648 161.985 57.2648L162.458 56.2133C162.458 56.2133 160.834 56.6324 160.323 56.6324C158.112 56.6324 159.218 53.9276 159.218 53.9276L162.176 46.7428H165.729L166.347 45.4248H162.786L164.463 41.4324H160.194L158.535 45.3714Z" fill="#142136"/>
<path fill-rule="evenodd" clip-rule="evenodd" d="M236.524 56.419L241.076 45.0057V44.9981L237.004 45.8438C237.004 45.8438 235.937 44.8 234.008 44.8C229.746 44.8 224.065 48.9828 224.065 54.7428C224.065 57.2724 225.743 58.3847 227.672 58.3847C230.34 58.3847 232.727 56.3581 232.727 56.3581C232.727 56.3581 230.63 62.7809 227.153 62.7809C227.153 62.4 226.314 59.3524 224.302 59.3524C223.089 59.3524 221.976 60.5105 221.976 61.7752C221.976 62.8419 223.089 63.7714 227.062 63.7714C234.236 63.7714 236.524 56.419 236.524 56.419ZM229.014 52.6324C229.014 52.6324 230.592 46.0876 234.412 46.0876C236.249 46.0876 235.807 48.1448 235.807 48.1448L232.994 55.0476C232.994 55.0476 232.071 56.4495 229.997 56.4495C227.923 56.4495 229.014 52.6324 229.014 52.6324Z" fill="#142136"/>
<path fill-rule="evenodd" clip-rule="evenodd" d="M152.805 56.1067C152.805 56.1067 151.677 56.48 150.968 56.48V56.4724C150.259 56.4724 149.71 56.1981 149.71 55.3371C149.71 54.4762 154.056 44.9219 154.056 44.9219L149.542 45.8438C149.542 45.8438 148.475 44.8 146.546 44.8C142.283 44.8 136.603 48.9828 136.603 54.7428C136.603 57.2724 138.28 58.3847 140.209 58.3847C142.878 58.3847 145.265 56.3581 145.265 56.3581C145.265 56.3581 145.608 58.2705 148.101 58.2705C150.594 58.2705 152.256 57.2571 152.256 57.2571L152.805 56.1067ZM141.574 52.6324C141.574 52.6324 143.153 46.0876 146.973 46.0876V46.08C148.81 46.08 148.696 47.8552 148.696 47.8552L145.798 54.9333C145.798 54.9333 144.632 56.4495 142.558 56.4495C140.484 56.4495 141.574 52.6324 141.574 52.6324Z" fill="#142136"/>
<path fill-rule="evenodd" clip-rule="evenodd" d="M115.765 58.1105L116.321 56.8533L116.306 56.8381C116.306 56.8381 113.927 56.6552 113.927 55.0933C113.927 54.3314 114.301 53.0286 114.301 53.0286L121.468 28.0381H120.073L93.4247 53.76C93.4247 53.76 90.6494 56.7009 87.081 56.7009L86.4558 58.0724H97.3438L97.9309 56.7924C97.9309 56.7924 94.8887 56.6857 94.8887 55.4514C94.8887 54.8343 95.9332 53.8667 95.9332 53.8667L101.697 47.8247H111.876L109.475 55.1848C109.475 55.1848 108.689 56.7848 104.648 56.7848C104.625 56.7848 104.069 58.1105 104.069 58.1105H115.765ZM115.803 34.5295L112.456 46.0571H103.588L115.803 34.5295Z" fill="#142136"/>
<path d="M120.004 46.0495L119.554 47.0933L119.562 47.0857C119.562 47.0857 120.904 46.7809 121.567 46.7809C122.963 46.7809 122.551 48.8228 122.551 48.8228L118.731 58.0495L122.749 58.0952L126.508 48.8305C126.508 48.8305 127.903 46.979 130.389 46.979C131.685 46.979 131.266 48.5714 131.266 48.5714C131.266 48.5714 128.567 54.4457 128.536 56.1752C128.513 57.5924 129.71 58.2095 131.251 58.2095C132.791 58.2095 135.2 57.1352 135.2 57.1352L135.635 56.1295C135.635 56.1295 134.186 56.4114 133.424 56.4495C131.649 56.5462 132.277 55.2684 132.752 54.3006C132.839 54.1245 132.92 53.9587 132.981 53.8133C133.378 52.8686 135.131 48.9448 135.131 48.9448C135.131 48.9448 137.015 44.8381 133.241 44.8381C129.657 44.8381 126.996 47.3371 126.996 47.3371C126.996 47.3371 126.958 44.9448 124.457 44.9448C122.231 44.9448 120.004 46.0495 120.004 46.0495Z" fill="#142136"/>
<path fill-rule="evenodd" clip-rule="evenodd" d="M223.242 56.221C223.242 56.221 222.113 56.5943 221.404 56.5943V56.5867C220.695 56.5867 220.146 56.3124 220.146 55.4514C220.146 54.5905 224.492 45.0362 224.492 45.0362L219.978 45.9581C219.978 45.9581 218.911 44.9143 216.982 44.9143C212.72 44.9143 207.039 49.0972 207.039 54.8572C207.039 57.3867 208.717 58.4991 210.646 58.4991C213.314 58.4991 215.701 56.4724 215.701 56.4724C215.701 56.4724 216.044 58.3848 218.537 58.3848C221.031 58.3848 222.693 57.3714 222.693 57.3714L223.242 56.221ZM212.011 52.7467C212.011 52.7467 213.589 46.2019 217.409 46.2019V46.1943C219.246 46.1943 219.132 47.9695 219.132 47.9695L216.235 55.0476C216.235 55.0476 215.068 56.5638 212.994 56.5638C210.92 56.5638 212.011 52.7467 212.011 52.7467Z" fill="#142136"/>
<path fill-rule="evenodd" clip-rule="evenodd" d="M247.717 56.5409C244.514 56.5409 245.666 52.64 245.666 52.64V52.6324C245.666 52.6324 255.448 52.1981 255.448 47.1771C255.448 44.7009 251.422 44.8 251.422 44.8C245.14 44.8 241.16 48.8609 241.16 54.3619C241.16 57.1276 243.722 58.4533 246.832 58.4533C250.324 58.4533 253.778 54.819 253.778 54.819L253.001 54.1105C253.001 54.1105 251.186 56.5409 247.717 56.5409ZM251.209 47.8095C251.209 49.5162 249.699 51.5809 245.895 51.5809L245.887 51.5733C245.887 51.5733 247.358 45.8133 249.966 45.8133C250.965 45.8133 251.209 46.5143 251.209 47.8095Z" stroke="white" stroke-width="1.2" mask="url(#path-25-outside-1_91_1499)"/>
<path fill-rule="evenodd" clip-rule="evenodd" d="M169.785 58.4305C173.666 58.4305 180.361 55.5809 180.361 48.8152H180.368C180.368 45.9352 177.585 44.6933 174.589 44.6933C170.289 44.6933 164.425 48.5257 164.425 53.699C164.425 56.3429 165.904 58.4305 169.785 58.4305ZM174.497 45.7524C175.237 45.7524 176.068 46.0724 176.068 47.779V47.7867C176.068 49.4933 174.116 57.4933 170.083 57.4933C169.282 57.4933 168.642 56.6933 168.642 55.3143C168.642 52.6933 170.998 45.7524 174.497 45.7524Z" stroke="white" stroke-width="1.2" mask="url(#path-25-outside-1_91_1499)"/>
<path d="M200.604 46.9638C199.178 46.9638 198.058 47.5581 197.272 48.099L197.257 48.1067L193.14 58.0876H189.099L192.896 48.9067C192.896 48.9067 193.59 47.0019 192.293 47.0019C189.808 47.0019 188.412 48.8533 188.412 48.8533L184.608 58.019L180.559 58.0876L184.417 48.7238C184.417 48.7238 184.875 46.8038 183.479 46.8038C182.816 46.8038 181.474 47.1086 181.474 47.1086L181.924 46.0648C181.924 46.0648 184.15 44.96 186.377 44.96C188.878 44.96 188.916 47.3524 188.916 47.3524C188.916 47.3524 191.577 44.8533 195.16 44.8533C197.089 44.8533 197.57 45.9505 197.585 47.0171C198.431 46.3543 200.665 44.8305 203.463 44.8305C207.238 44.8305 205.476 49.0209 205.476 49.0209C205.476 49.0209 204.005 52.6324 203.334 53.9809C203.265 54.1181 203.193 54.2562 203.121 54.3932C202.54 55.5048 201.994 56.5495 203.677 56.4952C204.439 56.4648 205.888 56.1676 205.888 56.1676L205.453 57.1733C205.453 57.1733 203.044 58.2476 201.504 58.2476C199.964 58.2476 198.858 57.5848 198.858 56.1676C198.858 54.7505 199.552 53.4857 199.552 53.4857L201.527 48.7238C201.527 48.7238 201.9 46.9638 200.604 46.9638Z" stroke="white" stroke-width="1.2" mask="url(#path-25-outside-1_91_1499)"/>
<path d="M158.535 45.3714H156.076L155.611 46.72H158.15L155.146 54.1257C155.146 54.1257 154.719 55.1695 154.719 56.2667C154.719 57.12 154.971 58.3314 157.159 58.3314C159.347 58.3314 161.985 57.2648 161.985 57.2648L162.458 56.2133C162.458 56.2133 160.834 56.6324 160.323 56.6324C158.112 56.6324 159.218 53.9276 159.218 53.9276L162.176 46.7428H165.729L166.347 45.4248H162.786L164.463 41.4324H160.194L158.535 45.3714Z" stroke="white" stroke-width="1.2" mask="url(#path-25-outside-1_91_1499)"/>
<path fill-rule="evenodd" clip-rule="evenodd" d="M236.524 56.419L241.076 45.0057V44.9981L237.004 45.8438C237.004 45.8438 235.937 44.8 234.008 44.8C229.746 44.8 224.065 48.9828 224.065 54.7428C224.065 57.2724 225.743 58.3847 227.672 58.3847C230.34 58.3847 232.727 56.3581 232.727 56.3581C232.727 56.3581 230.63 62.7809 227.153 62.7809C227.153 62.4 226.314 59.3524 224.302 59.3524C223.089 59.3524 221.976 60.5105 221.976 61.7752C221.976 62.8419 223.089 63.7714 227.062 63.7714C234.236 63.7714 236.524 56.419 236.524 56.419ZM229.014 52.6324C229.014 52.6324 230.592 46.0876 234.412 46.0876C236.249 46.0876 235.807 48.1448 235.807 48.1448L232.994 55.0476C232.994 55.0476 232.071 56.4495 229.997 56.4495C227.923 56.4495 229.014 52.6324 229.014 52.6324Z" stroke="white" stroke-width="1.2" mask="url(#path-25-outside-1_91_1499)"/>
<path fill-rule="evenodd" clip-rule="evenodd" d="M152.805 56.1067C152.805 56.1067 151.677 56.48 150.968 56.48V56.4724C150.259 56.4724 149.71 56.1981 149.71 55.3371C149.71 54.4762 154.056 44.9219 154.056 44.9219L149.542 45.8438C149.542 45.8438 148.475 44.8 146.546 44.8C142.283 44.8 136.603 48.9828 136.603 54.7428C136.603 57.2724 138.28 58.3847 140.209 58.3847C142.878 58.3847 145.265 56.3581 145.265 56.3581C145.265 56.3581 145.608 58.2705 148.101 58.2705C150.594 58.2705 152.256 57.2571 152.256 57.2571L152.805 56.1067ZM141.574 52.6324C141.574 52.6324 143.153 46.0876 146.973 46.0876V46.08C148.81 46.08 148.696 47.8552 148.696 47.8552L145.798 54.9333C145.798 54.9333 144.632 56.4495 142.558 56.4495C140.484 56.4495 141.574 52.6324 141.574 52.6324Z" stroke="white" stroke-width="1.2" mask="url(#path-25-outside-1_91_1499)"/>
<path fill-rule="evenodd" clip-rule="evenodd" d="M115.765 58.1105L116.321 56.8533L116.306 56.8381C116.306 56.8381 113.927 56.6552 113.927 55.0933C113.927 54.3314 114.301 53.0286 114.301 53.0286L121.468 28.0381H120.073L93.4247 53.76C93.4247 53.76 90.6494 56.7009 87.081 56.7009L86.4558 58.0724H97.3438L97.9309 56.7924C97.9309 56.7924 94.8887 56.6857 94.8887 55.4514C94.8887 54.8343 95.9332 53.8667 95.9332 53.8667L101.697 47.8247H111.876L109.475 55.1848C109.475 55.1848 108.689 56.7848 104.648 56.7848C104.625 56.7848 104.069 58.1105 104.069 58.1105H115.765ZM115.803 34.5295L112.456 46.0571H103.588L115.803 34.5295Z" stroke="white" stroke-width="1.2" mask="url(#path-25-outside-1_91_1499)"/>
<path d="M120.004 46.0495L119.554 47.0933L119.562 47.0857C119.562 47.0857 120.904 46.7809 121.567 46.7809C122.963 46.7809 122.551 48.8228 122.551 48.8228L118.731 58.0495L122.749 58.0952L126.508 48.8305C126.508 48.8305 127.903 46.979 130.389 46.979C131.685 46.979 131.266 48.5714 131.266 48.5714C131.266 48.5714 128.567 54.4457 128.536 56.1752C128.513 57.5924 129.71 58.2095 131.251 58.2095C132.791 58.2095 135.2 57.1352 135.2 57.1352L135.635 56.1295C135.635 56.1295 134.186 56.4114 133.424 56.4495C131.649 56.5462 132.277 55.2684 132.752 54.3006C132.839 54.1245 132.92 53.9587 132.981 53.8133C133.378 52.8686 135.131 48.9448 135.131 48.9448C135.131 48.9448 137.015 44.8381 133.241 44.8381C129.657 44.8381 126.996 47.3371 126.996 47.3371C126.996 47.3371 126.958 44.9448 124.457 44.9448C122.231 44.9448 120.004 46.0495 120.004 46.0495Z" stroke="white" stroke-width="1.2" mask="url(#path-25-outside-1_91_1499)"/>
<path fill-rule="evenodd" clip-rule="evenodd" d="M223.242 56.221C223.242 56.221 222.113 56.5943 221.404 56.5943V56.5867C220.695 56.5867 220.146 56.3124 220.146 55.4514C220.146 54.5905 224.492 45.0362 224.492 45.0362L219.978 45.9581C219.978 45.9581 218.911 44.9143 216.982 44.9143C212.72 44.9143 207.039 49.0972 207.039 54.8572C207.039 57.3867 208.717 58.4991 210.646 58.4991C213.314 58.4991 215.701 56.4724 215.701 56.4724C215.701 56.4724 216.044 58.3848 218.537 58.3848C221.031 58.3848 222.693 57.3714 222.693 57.3714L223.242 56.221ZM212.011 52.7467C212.011 52.7467 213.589 46.2019 217.409 46.2019V46.1943C219.246 46.1943 219.132 47.9695 219.132 47.9695L216.235 55.0476C216.235 55.0476 215.068 56.5638 212.994 56.5638C210.92 56.5638 212.011 52.7467 212.011 52.7467Z" stroke="white" stroke-width="1.2" mask="url(#path-25-outside-1_91_1499)"/>
<mask id="path-26-outside-2_91_1499" maskUnits="userSpaceOnUse" x="254.303" y="37.08" width="6" height="6" fill="black">
<rect fill="white" x="254.303" y="37.08" width="6" height="6"/>
<path d="M257.011 40.2438H257.499C257.728 40.2438 257.888 40.2057 257.972 40.1448C258.056 40.0762 258.094 39.9848 258.094 39.8705C258.094 39.7943 258.071 39.7333 258.033 39.6724C257.995 39.6114 257.934 39.5733 257.865 39.5429C257.789 39.5124 257.659 39.5048 257.461 39.5048H257.011V40.2438ZM256.607 41.6229V39.1695H257.461C257.751 39.1695 257.964 39.1924 258.086 39.2381C258.216 39.2838 258.323 39.36 258.399 39.4743C258.475 39.5886 258.513 39.7105 258.513 39.8324C258.513 40.0076 258.452 40.1676 258.323 40.2972C258.193 40.4343 258.018 40.5029 257.804 40.5257C257.896 40.5638 257.964 40.6019 258.018 40.6553C258.117 40.7543 258.239 40.9143 258.384 41.1429L258.689 41.6229H258.201L257.979 41.2343C257.804 40.9295 257.667 40.7391 257.56 40.6629C257.484 40.6095 257.385 40.5791 257.24 40.5791H257.004V41.6229H256.607ZM257.613 38.4533C257.293 38.4533 256.973 38.5372 256.668 38.6972C256.363 38.8572 256.127 39.0933 255.951 39.3981C255.776 39.7029 255.692 40.0229 255.692 40.3505C255.692 40.6781 255.776 40.9905 255.944 41.2953C256.111 41.6 256.348 41.8286 256.653 41.9962C256.958 42.1638 257.278 42.2476 257.606 42.2476C257.934 42.2476 258.254 42.1638 258.559 41.9962C258.864 41.8286 259.1 41.5924 259.268 41.2953C259.436 40.9905 259.52 40.6781 259.52 40.3505C259.52 40.0229 259.436 39.7029 259.26 39.3981C259.085 39.0933 258.849 38.8572 258.544 38.6972C258.239 38.5295 257.926 38.4533 257.598 38.4533M257.613 38.08C258.002 38.08 258.376 38.1791 258.742 38.3772C259.108 38.5753 259.398 38.8572 259.604 39.2229C259.809 39.5886 259.909 39.9695 259.909 40.3657C259.909 40.7619 259.809 41.1353 259.604 41.501C259.398 41.8667 259.116 42.1486 258.75 42.3467C258.384 42.5448 258.002 42.6514 257.606 42.6514C257.209 42.6514 256.828 42.5524 256.462 42.3467C256.096 42.1486 255.814 41.8667 255.608 41.501C255.402 41.1353 255.303 40.7619 255.303 40.3657C255.303 39.9695 255.402 39.5886 255.616 39.2229C255.822 38.8572 256.111 38.5753 256.477 38.3772C256.843 38.1791 257.225 38.08 257.606 38.08"/>
</mask>
<path d="M257.011 40.2438H257.499C257.728 40.2438 257.888 40.2057 257.972 40.1448C258.056 40.0762 258.094 39.9848 258.094 39.8705C258.094 39.7943 258.071 39.7333 258.033 39.6724C257.995 39.6114 257.934 39.5733 257.865 39.5429C257.789 39.5124 257.659 39.5048 257.461 39.5048H257.011V40.2438ZM256.607 41.6229V39.1695H257.461C257.751 39.1695 257.964 39.1924 258.086 39.2381C258.216 39.2838 258.323 39.36 258.399 39.4743C258.475 39.5886 258.513 39.7105 258.513 39.8324C258.513 40.0076 258.452 40.1676 258.323 40.2972C258.193 40.4343 258.018 40.5029 257.804 40.5257C257.896 40.5638 257.964 40.6019 258.018 40.6553C258.117 40.7543 258.239 40.9143 258.384 41.1429L258.689 41.6229H258.201L257.979 41.2343C257.804 40.9295 257.667 40.7391 257.56 40.6629C257.484 40.6095 257.385 40.5791 257.24 40.5791H257.004V41.6229H256.607ZM257.613 38.4533C257.293 38.4533 256.973 38.5372 256.668 38.6972C256.363 38.8572 256.127 39.0933 255.951 39.3981C255.776 39.7029 255.692 40.0229 255.692 40.3505C255.692 40.6781 255.776 40.9905 255.944 41.2953C256.111 41.6 256.348 41.8286 256.653 41.9962C256.958 42.1638 257.278 42.2476 257.606 42.2476C257.934 42.2476 258.254 42.1638 258.559 41.9962C258.864 41.8286 259.1 41.5924 259.268 41.2953C259.436 40.9905 259.52 40.6781 259.52 40.3505C259.52 40.0229 259.436 39.7029 259.26 39.3981C259.085 39.0933 258.849 38.8572 258.544 38.6972C258.239 38.5295 257.926 38.4533 257.598 38.4533M257.613 38.08C258.002 38.08 258.376 38.1791 258.742 38.3772C259.108 38.5753 259.398 38.8572 259.604 39.2229C259.809 39.5886 259.909 39.9695 259.909 40.3657C259.909 40.7619 259.809 41.1353 259.604 41.501C259.398 41.8667 259.116 42.1486 258.75 42.3467C258.384 42.5448 258.002 42.6514 257.606 42.6514C257.209 42.6514 256.828 42.5524 256.462 42.3467C256.096 42.1486 255.814 41.8667 255.608 41.501C255.402 41.1353 255.303 40.7619 255.303 40.3657C255.303 39.9695 255.402 39.5886 255.616 39.2229C255.822 38.8572 256.111 38.5753 256.477 38.3772C256.843 38.1791 257.225 38.08 257.606 38.08" fill="#142136"/>
<path d="M257.011 40.2438H256.761V40.4938H257.011V40.2438ZM257.972 40.1448L258.119 40.347L258.125 40.3428L258.13 40.3383L257.972 40.1448ZM257.865 39.5429L257.967 39.3142L257.958 39.3107L257.865 39.5429ZM257.011 39.5048V39.2548H256.761V39.5048H257.011ZM256.607 41.6229H256.357V41.8729H256.607V41.6229ZM256.607 39.1695V38.9195H256.357V39.1695H256.607ZM258.086 39.2381L257.998 39.4723L258.003 39.4739L258.086 39.2381ZM258.323 40.2972L258.146 40.1202L258.141 40.1254L258.323 40.2972ZM257.804 40.5257L257.777 40.2772L257.708 40.7565L257.804 40.5257ZM258.384 41.1429L258.172 41.2767L258.173 41.2769L258.384 41.1429ZM258.689 41.6229V41.8729H259.144L258.9 41.4888L258.689 41.6229ZM258.201 41.6229L257.983 41.7465L258.055 41.8729H258.201V41.6229ZM257.979 41.2343L258.197 41.1107L258.196 41.1096L257.979 41.2343ZM257.56 40.6629L257.705 40.4594L257.703 40.458L257.56 40.6629ZM257.004 40.5791V40.3291H256.754V40.5791H257.004ZM257.004 41.6229V41.8729H257.254V41.6229H257.004ZM259.268 41.2953L259.486 41.4182L259.487 41.4158L259.268 41.2953ZM258.544 38.6972L258.423 38.9163L258.428 38.9185L258.544 38.6972ZM256.462 42.3467L256.585 42.1287L256.581 42.1268L256.462 42.3467ZM255.616 39.2229L255.832 39.3489L255.834 39.3455L255.616 39.2229ZM257.011 40.4938H257.499V39.9938H257.011V40.4938ZM257.499 40.4938C257.74 40.4938 257.968 40.4565 258.119 40.347L257.825 39.9425C257.821 39.9453 257.797 39.9598 257.737 39.9728C257.679 39.9853 257.601 39.9938 257.499 39.9938V40.4938ZM258.13 40.3383C258.28 40.2155 258.344 40.0484 258.344 39.8705H257.844C257.844 39.9212 257.831 39.9369 257.814 39.9512L258.13 40.3383ZM258.344 39.8705C258.344 39.7365 258.301 39.6301 258.245 39.5398L257.821 39.805C257.832 39.8227 257.837 39.8345 257.84 39.8427C257.842 39.8502 257.844 39.8585 257.844 39.8705H258.344ZM258.245 39.5398C258.167 39.4155 258.051 39.3519 257.967 39.3144L257.764 39.7714C257.789 39.7825 257.804 39.7912 257.813 39.7979C257.821 39.8038 257.822 39.8063 257.821 39.805L258.245 39.5398ZM257.958 39.3107C257.885 39.2818 257.805 39.2697 257.73 39.2633C257.652 39.2567 257.562 39.2548 257.461 39.2548V39.7548C257.558 39.7548 257.632 39.7567 257.687 39.7615C257.715 39.7638 257.735 39.7667 257.75 39.7696C257.758 39.771 257.763 39.7723 257.767 39.7733C257.771 39.7744 257.772 39.775 257.772 39.775L257.958 39.3107ZM257.461 39.2548H257.011V39.7548H257.461V39.2548ZM256.761 39.5048V40.2438H257.261V39.5048H256.761ZM256.857 41.6229V39.1695H256.357V41.6229H256.857ZM256.607 39.4195H257.461V38.9195H256.607V39.4195ZM257.461 39.4195C257.749 39.4195 257.923 39.4438 257.998 39.4722L258.174 39.004C258.006 38.941 257.752 38.9195 257.461 38.9195V39.4195ZM258.003 39.4739C258.089 39.5041 258.149 39.5496 258.191 39.613L258.607 39.3356C258.497 39.1705 258.343 39.0636 258.169 39.0023L258.003 39.4739ZM258.191 39.613C258.242 39.6902 258.263 39.7644 258.263 39.8324H258.763C258.763 39.6565 258.708 39.4869 258.607 39.3356L258.191 39.613ZM258.263 39.8324C258.263 39.945 258.226 40.0402 258.146 40.1203L258.499 40.474C258.678 40.2951 258.763 40.0703 258.763 39.8324H258.263ZM258.141 40.1254C258.065 40.2061 257.953 40.2584 257.777 40.2772L257.831 40.7743C258.082 40.7474 258.321 40.6625 258.504 40.4689L258.141 40.1254ZM257.708 40.7565C257.788 40.79 257.822 40.813 257.841 40.8321L258.194 40.4784C258.107 40.3909 258.003 40.3376 257.9 40.2949L257.708 40.7565ZM257.841 40.8321C257.921 40.912 258.031 41.0542 258.172 41.2767L258.595 41.009C258.446 40.7744 258.313 40.5966 258.194 40.4784L257.841 40.8321ZM258.173 41.2769L258.478 41.7569L258.9 41.4888L258.595 41.0088L258.173 41.2769ZM258.689 41.3729H258.201V41.8729H258.689V41.3729ZM258.418 41.4992L258.197 41.1107L257.762 41.358L257.983 41.7465L258.418 41.4992ZM258.196 41.1096C258.106 40.9533 258.023 40.8209 257.946 40.7154C257.872 40.6136 257.792 40.521 257.705 40.4594L257.415 40.8664C257.435 40.8809 257.477 40.9217 257.542 41.0104C257.604 41.0954 257.677 41.2106 257.763 41.359L258.196 41.1096ZM257.703 40.458C257.575 40.368 257.422 40.3291 257.24 40.3291V40.8291C257.348 40.8291 257.393 40.8511 257.417 40.8677L257.703 40.458ZM257.24 40.3291H257.004V40.8291H257.24V40.3291ZM256.754 40.5791V41.6229H257.254V40.5791H256.754ZM257.004 41.3729H256.607V41.8729H257.004V41.3729ZM257.613 38.2033C257.249 38.2033 256.889 38.2989 256.552 38.4758L256.784 38.9185C257.057 38.7754 257.338 38.7033 257.613 38.7033V38.2033ZM256.552 38.4758C256.202 38.6596 255.932 38.9309 255.735 39.2734L256.168 39.5228C256.322 39.2558 256.525 39.0548 256.784 38.9185L256.552 38.4758ZM255.735 39.2734C255.538 39.6154 255.442 39.9783 255.442 40.3505H255.942C255.942 40.0674 256.014 39.7903 256.168 39.5228L255.735 39.2734ZM255.442 40.3505C255.442 40.7234 255.538 41.0769 255.725 41.4158L256.163 41.1747C256.014 40.904 255.942 40.6328 255.942 40.3505H255.442ZM255.725 41.4158C255.917 41.7645 256.188 42.0262 256.532 42.2153L256.773 41.7771C256.507 41.6309 256.306 41.4355 256.163 41.1747L255.725 41.4158ZM256.532 42.2153C256.872 42.4022 257.234 42.4976 257.606 42.4976V41.9976C257.322 41.9976 257.043 41.9255 256.773 41.7771L256.532 42.2153ZM257.606 42.4976C257.978 42.4976 258.339 42.4022 258.679 42.2153L258.439 41.7771C258.169 41.9255 257.89 41.9976 257.606 41.9976V42.4976ZM258.679 42.2153C259.025 42.0251 259.295 41.7554 259.486 41.4181L259.05 41.1724C258.905 41.4294 258.702 41.6321 258.439 41.7771L258.679 42.2153ZM259.487 41.4158C259.674 41.0769 259.77 40.7234 259.77 40.3505H259.27C259.27 40.6328 259.198 40.904 259.049 41.1747L259.487 41.4158ZM259.77 40.3505C259.77 39.9783 259.674 39.6154 259.477 39.2734L259.044 39.5228C259.198 39.7903 259.27 40.0674 259.27 40.3505H259.77ZM259.477 39.2734C259.28 38.9309 259.01 38.6596 258.66 38.4758L258.428 38.9185C258.687 39.0548 258.89 39.2558 259.044 39.5228L259.477 39.2734ZM258.664 38.4781C258.322 38.2898 257.967 38.2033 257.598 38.2033V38.7033C257.885 38.7033 258.156 38.7693 258.423 38.9162L258.664 38.4781ZM257.613 38.33C257.957 38.33 258.29 38.4171 258.623 38.597L258.861 38.1573C258.461 37.9411 258.047 37.83 257.613 37.83V38.33ZM258.623 38.597C258.948 38.773 259.203 39.0215 259.386 39.3455L259.821 39.1002C259.592 38.6928 259.268 38.3775 258.861 38.1573L258.623 38.597ZM259.386 39.3455C259.571 39.6747 259.659 40.0135 259.659 40.3657H260.159C260.159 39.9256 260.048 39.5025 259.821 39.1002L259.386 39.3455ZM259.659 40.3657C259.659 40.7171 259.571 41.0484 259.386 41.3783L259.821 41.6236C260.047 41.2221 260.159 40.8067 260.159 40.3657H259.659ZM259.386 41.3783C259.202 41.7044 258.954 41.9519 258.631 42.1268L258.869 42.5665C259.277 42.3453 259.593 42.029 259.821 41.6236L259.386 41.3783ZM258.631 42.1268C258.296 42.3077 257.956 42.4014 257.606 42.4014V42.9014C258.049 42.9014 258.471 42.7818 258.869 42.5665L258.631 42.1268ZM257.606 42.4014C257.253 42.4014 256.914 42.3139 256.585 42.1288L256.34 42.5646C256.742 42.7909 257.165 42.9014 257.606 42.9014V42.4014ZM256.581 42.1268C256.258 41.9519 256.01 41.7044 255.826 41.3783L255.39 41.6236C255.619 42.029 255.934 42.3453 256.343 42.5665L256.581 42.1268ZM255.826 41.3783C255.64 41.0484 255.553 40.7171 255.553 40.3657H255.053C255.053 40.8067 255.164 41.2221 255.39 41.6236L255.826 41.3783ZM255.553 40.3657C255.553 40.0137 255.641 39.6763 255.832 39.3489L255.4 39.0968C255.164 39.5009 255.053 39.9254 255.053 40.3657H255.553ZM255.834 39.3455C256.016 39.0215 256.271 38.773 256.596 38.597L256.358 38.1573C255.952 38.3775 255.627 38.6928 255.398 39.1002L255.834 39.3455ZM256.596 38.597C256.929 38.4173 257.269 38.33 257.606 38.33V37.83C257.18 37.83 256.758 37.9409 256.358 38.1573L256.596 38.597Z" fill="white" mask="url(#path-26-outside-2_91_1499)"/>
</g>
<defs>
<clipPath id="clip0_91_1499">
<rect width="260" height="64" fill="white"/>
</clipPath>
</defs>
</svg>
