<svg width="210" height="20" viewBox="0 0 210 20" fill="none" xmlns="http://www.w3.org/2000/svg">
<path d="M0.850258 15.8425V8.357H1.68076C1.76876 8.357 1.84392 8.37717 1.90626 8.4175C1.96859 8.45783 2.00892 8.52017 2.02726 8.6045L2.13726 9.127C2.36459 8.86667 2.62492 8.65583 2.91826 8.4945C3.21526 8.33317 3.56176 8.2525 3.95776 8.2525C4.26576 8.2525 4.54626 8.31667 4.79926 8.445C5.05592 8.57333 5.27592 8.76033 5.45926 9.006C5.64626 9.248 5.78926 9.54867 5.88826 9.908C5.99093 10.2637 6.04226 10.6725 6.04226 11.1345C6.04226 11.5562 5.98543 11.9467 5.87176 12.306C5.75809 12.6653 5.59492 12.977 5.38226 13.241C5.17326 13.505 4.91842 13.7122 4.61776 13.8625C4.32076 14.0092 3.98709 14.0825 3.61676 14.0825C3.29776 14.0825 3.02642 14.0348 2.80276 13.9395C2.58276 13.8405 2.38476 13.7048 2.20876 13.5325V15.8425H0.850258ZM3.49026 9.325C3.20792 9.325 2.96592 9.3855 2.76426 9.5065C2.56626 9.62383 2.38109 9.79067 2.20876 10.007V12.537C2.36276 12.7277 2.52959 12.8615 2.70926 12.9385C2.89259 13.0118 3.08876 13.0485 3.29776 13.0485C3.50309 13.0485 3.68826 13.01 3.85326 12.933C4.02192 12.856 4.16309 12.7387 4.27676 12.581C4.39409 12.4233 4.48392 12.2253 4.54626 11.987C4.60859 11.745 4.63976 11.4608 4.63976 11.1345C4.63976 10.8045 4.61226 10.5258 4.55726 10.2985C4.50593 10.0675 4.43076 9.8805 4.33176 9.7375C4.23276 9.5945 4.11176 9.49 3.96876 9.424C3.82942 9.358 3.66992 9.325 3.49026 9.325ZM9.69898 8.269C10.1207 8.269 10.502 8.33683 10.843 8.4725C11.1877 8.60817 11.481 8.80067 11.723 9.05C11.965 9.29933 12.152 9.60367 12.284 9.963C12.416 10.3223 12.482 10.7238 12.482 11.1675C12.482 11.6148 12.416 12.0182 12.284 12.3775C12.152 12.7368 11.965 13.043 11.723 13.296C11.481 13.549 11.1877 13.7433 10.843 13.879C10.502 14.0147 10.1207 14.0825 9.69898 14.0825C9.27732 14.0825 8.89415 14.0147 8.54948 13.879C8.20482 13.7433 7.90965 13.549 7.66398 13.296C7.42198 13.043 7.23315 12.7368 7.09748 12.3775C6.96548 12.0182 6.89948 11.6148 6.89948 11.1675C6.89948 10.7238 6.96548 10.3223 7.09748 9.963C7.23315 9.60367 7.42198 9.29933 7.66398 9.05C7.90965 8.80067 8.20482 8.60817 8.54948 8.4725C8.89415 8.33683 9.27732 8.269 9.69898 8.269ZM9.69898 13.0375C10.1683 13.0375 10.5148 12.8798 10.7385 12.5645C10.9658 12.2492 11.0795 11.7872 11.0795 11.1785C11.0795 10.5698 10.9658 10.106 10.7385 9.787C10.5148 9.468 10.1683 9.3085 9.69898 9.3085C9.22232 9.3085 8.87032 9.46983 8.64298 9.7925C8.41565 10.1115 8.30198 10.5735 8.30198 11.1785C8.30198 11.7835 8.41565 12.2455 8.64298 12.5645C8.87032 12.8798 9.22232 13.0375 9.69898 13.0375ZM13.0744 8.357H14.1524C14.2551 8.357 14.3413 8.38083 14.4109 8.4285C14.4806 8.47617 14.5246 8.53667 14.5429 8.61L15.3514 11.624C15.3954 11.789 15.4303 11.9503 15.4559 12.108C15.4853 12.2657 15.5128 12.4233 15.5384 12.581C15.5788 12.4233 15.6209 12.2657 15.6649 12.108C15.7126 11.9503 15.7621 11.789 15.8134 11.624L16.7484 8.599C16.7704 8.52567 16.8144 8.46517 16.8804 8.4175C16.9464 8.36983 17.0234 8.346 17.1114 8.346H17.7109C17.8099 8.346 17.8924 8.36983 17.9584 8.4175C18.0244 8.46517 18.0684 8.52567 18.0904 8.599L19.0144 11.679C19.0621 11.8367 19.1043 11.9907 19.1409 12.141C19.1813 12.2877 19.2198 12.4362 19.2564 12.5865C19.2821 12.4288 19.3096 12.2712 19.3389 12.1135C19.3719 11.9558 19.4123 11.7927 19.4599 11.624L20.2959 8.61C20.3143 8.53667 20.3583 8.47617 20.4279 8.4285C20.4976 8.38083 20.5783 8.357 20.6699 8.357H21.6984L19.9109 14H18.8164C18.6991 14 18.6148 13.9193 18.5634 13.758L17.5459 10.4965C17.5129 10.3902 17.4818 10.2838 17.4524 10.1775C17.4268 10.0675 17.4048 9.95933 17.3864 9.853C17.3644 9.963 17.3406 10.073 17.3149 10.183C17.2893 10.2893 17.2599 10.3975 17.2269 10.5075L16.1984 13.758C16.1471 13.9193 16.0481 14 15.9014 14H14.8619L13.0744 8.357ZM25.0151 8.269C25.3708 8.269 25.6971 8.32583 25.9941 8.4395C26.2948 8.55317 26.5533 8.72 26.7696 8.94C26.9859 9.15633 27.1546 9.424 27.2756 9.743C27.3966 10.0583 27.4571 10.4195 27.4571 10.8265C27.4571 10.9292 27.4516 11.0153 27.4406 11.085C27.4333 11.151 27.4168 11.2042 27.3911 11.2445C27.3691 11.2812 27.3379 11.3087 27.2976 11.327C27.2573 11.3417 27.2059 11.349 27.1436 11.349H23.6566C23.6969 11.9283 23.8528 12.3537 24.1241 12.625C24.3954 12.8963 24.7548 13.032 25.2021 13.032C25.4221 13.032 25.6109 13.0063 25.7686 12.955C25.9299 12.9037 26.0693 12.8468 26.1866 12.7845C26.3076 12.7222 26.4121 12.6653 26.5001 12.614C26.5918 12.5627 26.6798 12.537 26.7641 12.537C26.8191 12.537 26.8668 12.548 26.9071 12.57C26.9474 12.592 26.9823 12.6232 27.0116 12.6635L27.4076 13.1585C27.2573 13.3345 27.0886 13.483 26.9016 13.604C26.7146 13.7213 26.5184 13.8167 26.3131 13.89C26.1114 13.9597 25.9043 14.0092 25.6916 14.0385C25.4826 14.0678 25.2791 14.0825 25.0811 14.0825C24.6888 14.0825 24.3239 14.0183 23.9866 13.89C23.6493 13.758 23.3559 13.5655 23.1066 13.3125C22.8573 13.0558 22.6611 12.7405 22.5181 12.3665C22.3751 11.9888 22.3036 11.5525 22.3036 11.0575C22.3036 10.6725 22.3659 10.3113 22.4906 9.974C22.6153 9.633 22.7931 9.33783 23.0241 9.0885C23.2588 8.8355 23.5429 8.63567 23.8766 8.489C24.2139 8.34233 24.5934 8.269 25.0151 8.269ZM25.0426 9.2425C24.6466 9.2425 24.3368 9.35433 24.1131 9.578C23.8894 9.80167 23.7464 10.1188 23.6841 10.5295H26.2361C26.2361 10.3535 26.2123 10.1885 26.1646 10.0345C26.1169 9.87683 26.0436 9.73933 25.9446 9.622C25.8456 9.50467 25.7209 9.413 25.5706 9.347C25.4203 9.27733 25.2443 9.2425 25.0426 9.2425ZM28.7791 14V8.357H29.5766C29.7159 8.357 29.8131 8.38267 29.8681 8.434C29.9231 8.48533 29.9598 8.57333 29.9781 8.698L30.0606 9.38C30.2623 9.03167 30.4988 8.75667 30.7701 8.555C31.0414 8.35333 31.3458 8.2525 31.6831 8.2525C31.9618 8.2525 32.1928 8.31667 32.3761 8.445L32.2001 9.4625C32.1891 9.5285 32.1653 9.57617 32.1286 9.6055C32.0919 9.63117 32.0424 9.644 31.9801 9.644C31.9251 9.644 31.8499 9.63117 31.7546 9.6055C31.6593 9.57983 31.5328 9.567 31.3751 9.567C31.0928 9.567 30.8508 9.64583 30.6491 9.8035C30.4474 9.9575 30.2769 10.1848 30.1376 10.4855V14H28.7791ZM35.8213 8.269C36.177 8.269 36.5033 8.32583 36.8003 8.4395C37.101 8.55317 37.3595 8.72 37.5758 8.94C37.7922 9.15633 37.9608 9.424 38.0818 9.743C38.2028 10.0583 38.2633 10.4195 38.2633 10.8265C38.2633 10.9292 38.2578 11.0153 38.2468 11.085C38.2395 11.151 38.223 11.2042 38.1973 11.2445C38.1753 11.2812 38.1442 11.3087 38.1038 11.327C38.0635 11.3417 38.0122 11.349 37.9498 11.349H34.4628C34.5032 11.9283 34.659 12.3537 34.9303 12.625C35.2017 12.8963 35.561 13.032 36.0083 13.032C36.2283 13.032 36.4172 13.0063 36.5748 12.955C36.7362 12.9037 36.8755 12.8468 36.9928 12.7845C37.1138 12.7222 37.2183 12.6653 37.3063 12.614C37.398 12.5627 37.486 12.537 37.5703 12.537C37.6253 12.537 37.673 12.548 37.7133 12.57C37.7537 12.592 37.7885 12.6232 37.8178 12.6635L38.2138 13.1585C38.0635 13.3345 37.8948 13.483 37.7078 13.604C37.5208 13.7213 37.3247 13.8167 37.1193 13.89C36.9177 13.9597 36.7105 14.0092 36.4978 14.0385C36.2888 14.0678 36.0853 14.0825 35.8873 14.0825C35.495 14.0825 35.1302 14.0183 34.7928 13.89C34.4555 13.758 34.1622 13.5655 33.9128 13.3125C33.6635 13.0558 33.4673 12.7405 33.3243 12.3665C33.1813 11.9888 33.1098 11.5525 33.1098 11.0575C33.1098 10.6725 33.1722 10.3113 33.2968 9.974C33.4215 9.633 33.5993 9.33783 33.8303 9.0885C34.065 8.8355 34.3492 8.63567 34.6828 8.489C35.0202 8.34233 35.3997 8.269 35.8213 8.269ZM35.8488 9.2425C35.4528 9.2425 35.143 9.35433 34.9193 9.578C34.6957 9.80167 34.5527 10.1188 34.4903 10.5295H37.0423C37.0423 10.3535 37.0185 10.1885 36.9708 10.0345C36.9232 9.87683 36.8498 9.73933 36.7508 9.622C36.6518 9.50467 36.5272 9.413 36.3768 9.347C36.2265 9.27733 36.0505 9.2425 35.8488 9.2425ZM43.5563 14C43.3803 14 43.2648 13.9175 43.2098 13.7525L43.0998 13.208C42.9825 13.34 42.8596 13.4592 42.7313 13.5655C42.603 13.6718 42.4636 13.7635 42.3133 13.8405C42.1666 13.9175 42.0071 13.9762 41.8348 14.0165C41.6661 14.0605 41.4828 14.0825 41.2848 14.0825C40.9768 14.0825 40.6945 14.0183 40.4378 13.89C40.1811 13.7617 39.9593 13.5765 39.7723 13.3345C39.589 13.0888 39.446 12.7863 39.3433 12.427C39.2443 12.0677 39.1948 11.657 39.1948 11.195C39.1948 10.777 39.2516 10.3883 39.3653 10.029C39.479 9.66967 39.6421 9.358 39.8548 9.094C40.0675 8.83 40.3223 8.62467 40.6193 8.478C40.9163 8.32767 41.25 8.2525 41.6203 8.2525C41.9356 8.2525 42.2051 8.30383 42.4288 8.4065C42.6525 8.5055 42.8523 8.63933 43.0283 8.808V5.827H44.3868V14H43.5563ZM41.7468 13.0045C42.0291 13.0045 42.2693 12.9458 42.4673 12.8285C42.6653 12.7112 42.8523 12.5443 43.0283 12.328V9.798C42.8743 9.611 42.7056 9.479 42.5223 9.402C42.3426 9.325 42.1483 9.2865 41.9393 9.2865C41.734 9.2865 41.547 9.325 41.3783 9.402C41.2133 9.479 41.0721 9.59633 40.9548 9.754C40.8411 9.908 40.7531 10.106 40.6908 10.348C40.6285 10.5863 40.5973 10.8687 40.5973 11.195C40.5973 11.525 40.623 11.8055 40.6743 12.0365C40.7293 12.2638 40.8063 12.4508 40.9053 12.5975C41.0043 12.7405 41.1253 12.845 41.2683 12.911C41.4113 12.9733 41.5708 13.0045 41.7468 13.0045ZM48.4422 14V5.827H49.8007V9.05C50.0244 8.81167 50.2774 8.62283 50.5597 8.4835C50.842 8.3405 51.172 8.269 51.5497 8.269C51.8577 8.269 52.1382 8.33317 52.3912 8.4615C52.6479 8.58617 52.8679 8.7695 53.0512 9.0115C53.2382 9.2535 53.3812 9.55233 53.4802 9.908C53.5829 10.2637 53.6342 10.6725 53.6342 11.1345C53.6342 11.5562 53.5774 11.9467 53.4637 12.306C53.35 12.6653 53.1869 12.977 52.9742 13.241C52.7652 13.505 52.5104 13.7122 52.2097 13.8625C51.9127 14.0092 51.579 14.0825 51.2087 14.0825C51.0364 14.0825 50.8787 14.0642 50.7357 14.0275C50.5927 13.9945 50.4625 13.9468 50.3452 13.8845C50.2279 13.8222 50.1179 13.747 50.0152 13.659C49.9162 13.5673 49.8209 13.4665 49.7292 13.3565L49.6687 13.736C49.6467 13.8313 49.6082 13.8992 49.5532 13.9395C49.5019 13.9798 49.4304 14 49.3387 14H48.4422ZM51.0822 9.325C50.7999 9.325 50.5579 9.3855 50.3562 9.5065C50.1582 9.62383 49.973 9.79067 49.8007 10.007V12.537C49.9547 12.7277 50.1215 12.8615 50.3012 12.9385C50.4845 13.0118 50.6825 13.0485 50.8952 13.0485C51.1005 13.0485 51.2857 13.01 51.4507 12.933C51.6157 12.856 51.755 12.7387 51.8687 12.581C51.986 12.4233 52.0759 12.2253 52.1382 11.987C52.2005 11.745 52.2317 11.4608 52.2317 11.1345C52.2317 10.8045 52.2042 10.5258 52.1492 10.2985C52.0979 10.0675 52.0227 9.8805 51.9237 9.7375C51.8247 9.5945 51.7037 9.49 51.5607 9.424C51.4214 9.358 51.2619 9.325 51.0822 9.325ZM56.7385 15.551C56.6982 15.6463 56.645 15.7178 56.579 15.7655C56.5167 15.8168 56.4195 15.8425 56.2875 15.8425H55.2755L56.3315 13.582L54.049 8.357H55.237C55.347 8.357 55.4313 8.38267 55.49 8.434C55.5487 8.48533 55.5927 8.544 55.622 8.61L56.8265 11.536C56.8668 11.6313 56.9017 11.7303 56.931 11.833C56.9603 11.9357 56.986 12.0383 57.008 12.141C57.0373 12.0347 57.0685 11.932 57.1015 11.833C57.1382 11.734 57.1767 11.6332 57.217 11.5305L58.35 8.61C58.3793 8.53667 58.427 8.47617 58.493 8.4285C58.5627 8.38083 58.6397 8.357 58.724 8.357H59.813L56.7385 15.551Z" fill="white"/>
<g clip-path="url(#clip0)">
<path d="M201.808 2.94141H204.387V14.8378H209.999V16.9414H201.808V2.94141Z" fill="white"/>
<path d="M190.223 12.9767L189.016 16.9414H186.265L190.867 2.94141H194.131L198.683 16.9414H195.944L194.675 12.9767H190.223ZM194.228 11.0449L193.123 7.60139C192.857 6.75316 192.621 5.79199 192.416 4.98493H192.375C192.17 5.79199 191.956 6.77316 191.71 7.60139L190.625 11.0449H194.228Z" fill="white"/>
<path d="M179.092 5.07905H175.1V2.94141H185.686V5.07905H181.653V16.9414H179.092V5.07905Z" fill="white"/>
<path d="M149.774 2.94141H147.183V16.9414H149.774V2.94141Z" fill="white"/>
<path d="M164.889 16.1708C163.468 16.6726 161.974 16.9331 160.467 16.9414C158.142 16.9414 156.397 16.3531 155.094 15.1084C153.87 13.9473 153.159 12.1343 153.179 10.0614C153.179 5.72493 156.277 2.94141 160.818 2.94141C162.513 2.94141 163.836 3.29435 164.469 3.59199L163.908 5.61552C163.156 5.28493 162.233 5.02728 160.79 5.02728C157.853 5.02728 155.797 6.75904 155.797 9.95433C155.797 13.0684 157.711 14.9214 160.569 14.9214C161.461 14.9214 162.133 14.8037 162.464 14.6402V11.2284H160.037V9.2508H164.89L164.889 16.1708Z" fill="white"/>
<path d="M171.773 2.94141H169.182V16.9414H171.773V2.94141Z" fill="white"/>
<path d="M131.979 3.22118C133.298 3.02459 134.629 2.93098 135.962 2.94118C138.522 2.94118 140.292 3.47059 141.554 4.53059C142.874 5.60941 143.684 7.28823 143.684 9.62587C143.684 12.0647 142.86 13.8929 141.554 15.0729C140.193 16.3117 138.012 16.9411 135.35 16.9411C133.89 16.9411 132.79 16.9117 131.979 16.8117V3.22118ZM134.48 14.8623C134.938 14.916 135.4 14.936 135.861 14.9223C139.112 14.9423 141.044 13.1576 141.044 9.68587C141.064 6.65882 139.314 4.88 136.182 4.88C135.608 4.86676 135.035 4.91369 134.472 5.02V14.8623H134.48Z" fill="white"/>
<path d="M128.504 9.80256C128.504 14.3531 125.748 16.9414 122.001 16.9414C118.176 16.9414 115.759 14.0202 115.759 10.0402C115.759 5.87199 118.376 2.94141 122.202 2.94141C126.167 2.94141 128.506 5.9414 128.506 9.80256H128.504ZM118.377 10.0108C118.377 12.7637 119.764 14.9614 122.146 14.9614C124.545 14.9614 125.892 12.7437 125.892 9.91198C125.892 7.35669 124.624 4.9414 122.146 4.9414C119.688 4.9414 118.377 7.20845 118.377 10.0108" fill="white"/>
<path d="M112.411 2.94141H109.82V16.9414H112.411V2.94141Z" fill="white"/>
<path d="M96.1465 2.94141H100.308C102.244 2.94141 103.631 3.22494 104.493 3.78141C105.356 4.33787 105.781 5.22963 105.781 6.44375C105.781 7.26728 105.568 7.94257 105.152 8.48845C104.736 9.03433 104.118 9.36962 103.327 9.5108V9.60256C104.311 9.78492 105.04 10.1484 105.497 10.6955C105.954 11.2426 106.197 11.9814 106.197 12.912C106.197 14.1673 105.761 15.1602 104.88 15.8684C103.999 16.5767 102.781 16.9414 101.213 16.9414H96.1488L96.1465 2.94141ZM98.4361 8.72139H100.646C101.607 8.72139 102.307 8.56963 102.743 8.2661C103.19 7.96257 103.402 7.44257 103.402 6.71669C103.402 6.05904 103.159 5.58375 102.695 5.28963C102.231 4.99552 101.458 4.84493 100.425 4.84493H98.4361V8.72139ZM98.4361 10.5837V15.0178H100.868C101.832 15.0178 102.551 14.8355 103.038 14.472C103.524 14.1084 103.767 13.5202 103.767 12.7308C103.767 12.0014 103.514 11.4649 103.018 11.1108C102.522 10.7567 101.761 10.5884 100.747 10.5884L98.4361 10.5837Z" fill="white"/>
<path d="M88.6094 18.1896C88.6098 18.427 88.5634 18.6622 88.4729 18.8817C88.3823 19.1012 88.2494 19.3007 88.0816 19.4689C87.9138 19.637 87.7145 19.7705 87.495 19.8617C87.2756 19.9528 87.0403 19.9999 86.8026 20.0002H79.6582V11.0591H86.8026C87.281 11.0591 87.7398 11.2486 88.0785 11.586C88.4172 11.9234 88.6081 12.3813 88.6094 12.8591V18.1896Z" fill="white"/>
<path d="M88.6094 7.16474C88.6094 7.40043 88.5625 7.63376 88.4713 7.85115C88.3802 8.06854 88.2467 8.26565 88.0785 8.43098C87.9104 8.59631 87.711 8.72658 87.4919 8.81417C87.2729 8.90177 87.0386 8.94495 86.8026 8.94121H79.6582V5.57069e-05H86.8026C87.0388 -0.00180532 87.2731 0.0429801 87.4919 0.131837C87.7107 0.220695 87.9098 0.351872 88.0777 0.51783C88.2456 0.683788 88.379 0.881255 88.4702 1.09888C88.5615 1.3165 88.6087 1.54999 88.6094 1.78593V7.16474Z" fill="white"/>
<path d="M77.5378 0H72.2825C70.9941 0 70 1.28 70 2.86941V19.9999H75.2046C76.4919 19.9999 77.5378 18.7058 77.5378 17.1199V0Z" fill="white"/>
</g>
<defs>
<clipPath id="clip0">
<rect width="140" height="20" fill="white" transform="translate(70)"/>
</clipPath>
</defs>
</svg>
