<svg width="341" height="77" viewBox="0 0 341 77" fill="none" xmlns="http://www.w3.org/2000/svg">
<path fill-rule="evenodd" clip-rule="evenodd" d="M69.9994 69.9215C69.9994 73.7292 66.9225 76.8104 63.1379 76.8104H35.9453V42.7563H63.1379C66.9225 42.7563 69.9966 45.8124 69.9966 49.6175L69.9994 69.9215Z" fill="black"/>
<path fill-rule="evenodd" clip-rule="evenodd" d="M69.9994 27.4666C69.9994 31.2825 66.9225 34.243 63.1379 34.243H35.9453V0.188965H63.1379C66.9225 0.188965 69.9994 3.19473 69.9994 7.00486V27.4666Z" fill="#DE3535"/>
<path fill-rule="evenodd" clip-rule="evenodd" d="M28.7331 0.188965H8.68893C3.77906 0.188965 0.00150517 5.11289 0.00150517 11.1995L0 76.8106H19.8354C24.744 76.8106 28.7331 71.8767 28.7331 65.7864V0.188965Z" fill="black"/>
<path d="M317.251 23.5098C320.62 23.5098 323.666 24.0517 326.391 25.1356C329.145 26.2195 331.488 27.7574 333.421 29.7495C335.355 31.7415 336.849 34.1729 337.904 37.0438C338.958 39.9146 339.485 43.1223 339.485 46.6669C339.485 50.2409 338.958 53.4632 337.904 56.3341C336.849 59.2049 335.355 61.651 333.421 63.6723C331.488 65.6936 329.145 67.2462 326.391 68.3301C323.666 69.414 320.62 69.9559 317.251 69.9559C313.882 69.9559 310.821 69.414 308.067 68.3301C305.314 67.2462 302.955 65.6936 300.993 63.6723C299.059 61.651 297.551 59.2049 296.467 56.3341C295.412 53.4632 294.885 50.2409 294.885 46.6669C294.885 43.1223 295.412 39.9146 296.467 37.0438C297.551 34.1729 299.059 31.7415 300.993 29.7495C302.955 27.7574 305.314 26.2195 308.067 25.1356C310.821 24.0517 313.882 23.5098 317.251 23.5098ZM317.251 61.6071C321.001 61.6071 323.769 60.3474 325.556 57.8281C327.372 55.3088 328.28 51.6177 328.28 46.7548C328.28 41.892 327.372 38.1862 325.556 35.6376C323.769 33.089 321.001 31.8147 317.251 31.8147C313.443 31.8147 310.63 33.1037 308.814 35.6816C306.998 38.2302 306.09 41.9213 306.09 46.7548C306.09 51.5884 306.998 55.2795 308.814 57.8281C310.63 60.3474 313.443 61.6071 317.251 61.6071Z" fill="black"/>
<path d="M287.232 24.2131V69.2971H276.379V24.2131H287.232ZM288.858 11.0746C288.858 12.012 288.668 12.8908 288.287 13.7111C287.906 14.5313 287.393 15.249 286.749 15.8642C286.134 16.4794 285.401 16.9774 284.552 17.3582C283.702 17.7098 282.794 17.8855 281.828 17.8855C280.89 17.8855 279.997 17.7098 279.147 17.3582C278.327 16.9774 277.609 16.4794 276.994 15.8642C276.379 15.249 275.881 14.5313 275.5 13.7111C275.148 12.8908 274.973 12.012 274.973 11.0746C274.973 10.1079 275.148 9.19975 275.5 8.35022C275.881 7.50068 276.379 6.76833 276.994 6.15315C277.609 5.53796 278.327 5.05461 279.147 4.70308C279.997 4.32225 280.89 4.13184 281.828 4.13184C282.794 4.13184 283.702 4.32225 284.552 4.70308C285.401 5.05461 286.134 5.53796 286.749 6.15315C287.393 6.76833 287.906 7.50068 288.287 8.35022C288.668 9.19975 288.858 10.1079 288.858 11.0746Z" fill="black"/>
<path d="M260.094 69.2971C258.688 69.2971 257.765 68.638 257.325 67.3197L256.447 62.9695C255.509 64.0241 254.528 64.9762 253.502 65.8257C252.477 66.6752 251.364 67.4076 250.163 68.0228C248.991 68.638 247.717 69.1067 246.34 69.4289C244.992 69.7804 243.528 69.9562 241.946 69.9562C239.485 69.9562 237.229 69.4436 235.179 68.4182C233.128 67.3929 231.356 65.9136 229.862 63.9802C228.397 62.0174 227.255 59.6007 226.434 56.7298C225.644 53.859 225.248 50.578 225.248 46.8869C225.248 43.5474 225.702 40.4422 226.61 37.5713C227.518 34.7005 228.822 32.2104 230.521 30.1013C232.22 27.9921 234.256 26.3516 236.629 25.1798C239.002 23.9787 241.668 23.3782 244.626 23.3782C247.146 23.3782 249.299 23.7883 251.086 24.6086C252.873 25.3995 254.469 26.4688 255.875 27.8163V4H266.729V69.2971H260.094ZM245.637 61.3437C247.893 61.3437 249.811 60.875 251.393 59.9375C252.975 59.0001 254.469 57.6672 255.875 55.9389V35.7258C254.645 34.2318 253.297 33.1772 251.833 32.562C250.397 31.9468 248.845 31.6392 247.175 31.6392C245.534 31.6392 244.04 31.9468 242.693 32.562C241.375 33.1772 240.247 34.1146 239.309 35.3742C238.401 36.6046 237.698 38.1865 237.2 40.1199C236.702 42.0241 236.453 44.2797 236.453 46.8869C236.453 49.5234 236.658 51.7644 237.068 53.61C237.508 55.4262 238.123 56.9202 238.914 58.092C239.705 59.2345 240.672 60.0694 241.814 60.5967C242.956 61.0947 244.231 61.3437 245.637 61.3437Z" fill="black"/>
<path d="M187.992 24.2129V52.8628C187.992 55.6164 188.622 57.7549 189.882 59.2782C191.171 60.7722 193.089 61.5192 195.638 61.5192C197.513 61.5192 199.271 61.1091 200.911 60.2889C202.552 59.4393 204.104 58.2822 205.569 56.8175V24.2129H216.422V69.2969H209.787C208.381 69.2969 207.458 68.6378 207.019 67.3195L206.272 63.7163C205.334 64.6537 204.368 65.5179 203.372 66.3089C202.376 67.0705 201.307 67.7296 200.164 68.2862C199.051 68.8135 197.835 69.2236 196.517 69.5166C195.228 69.8388 193.836 69.9999 192.342 69.9999C189.882 69.9999 187.699 69.5898 185.795 68.7696C183.92 67.92 182.338 66.7336 181.049 65.2103C179.761 63.687 178.779 61.8854 178.105 59.8055C177.461 57.6963 177.139 55.3821 177.139 52.8628V24.2129H187.992Z" fill="black"/>
<path d="M158.004 70.0002C154.108 70.0002 151.105 68.9017 148.996 66.7046C146.887 64.4782 145.832 61.417 145.832 57.5208V32.3423H141.263C140.677 32.3423 140.164 32.1519 139.725 31.7711C139.314 31.3903 139.109 30.819 139.109 30.0574V25.7511L146.36 24.5647L148.645 12.2611C148.762 11.6752 149.026 11.2211 149.436 10.8989C149.875 10.5766 150.417 10.4155 151.061 10.4155H156.686V24.6086H168.55V32.3423H156.686V56.7738C156.686 58.1799 157.038 59.2785 157.741 60.0694C158.444 60.8604 159.381 61.2558 160.553 61.2558C161.227 61.2558 161.783 61.1826 162.223 61.0361C162.691 60.8604 163.087 60.6846 163.409 60.5088C163.761 60.3331 164.068 60.172 164.332 60.0255C164.595 59.8497 164.859 59.7618 165.123 59.7618C165.445 59.7618 165.709 59.8497 165.914 60.0255C166.119 60.172 166.338 60.4063 166.573 60.7286L169.825 66.0015C168.243 67.3198 166.426 68.3158 164.376 68.9896C162.325 69.6633 160.201 70.0002 158.004 70.0002Z" fill="black"/>
<path d="M130.715 33.0011C130.422 33.4698 130.115 33.8067 129.792 34.0118C129.47 34.1876 129.06 34.2754 128.562 34.2754C128.035 34.2754 127.463 34.129 126.848 33.836C126.262 33.5431 125.574 33.2208 124.783 32.8693C123.992 32.4885 123.084 32.1516 122.059 31.8587C121.063 31.5657 119.876 31.4192 118.499 31.4192C116.361 31.4192 114.676 31.8733 113.446 32.7814C112.216 33.6896 111.601 34.876 111.601 36.3407C111.601 37.3074 111.908 38.1276 112.523 38.8014C113.168 39.4459 114.003 40.0171 115.028 40.5151C116.083 41.0131 117.269 41.4672 118.587 41.8773C119.906 42.2581 121.253 42.6829 122.63 43.1516C124.007 43.6203 125.354 44.1623 126.673 44.7775C127.991 45.3633 129.163 46.125 130.188 47.0624C131.242 47.9705 132.077 49.0691 132.693 50.358C133.337 51.647 133.659 53.1996 133.659 55.0158C133.659 57.1836 133.264 59.1903 132.473 61.0358C131.682 62.8521 130.525 64.434 129.001 65.7815C127.478 67.0997 125.589 68.1397 123.333 68.9013C121.107 69.6337 118.543 69.9999 115.643 69.9999C114.091 69.9999 112.567 69.8534 111.073 69.5605C109.609 69.2968 108.188 68.916 106.811 68.418C105.463 67.92 104.204 67.3341 103.032 66.6603C101.889 65.9866 100.879 65.2542 100 64.4633L102.505 60.3328C102.827 59.8347 103.208 59.4539 103.647 59.1903C104.087 58.9266 104.643 58.7948 105.317 58.7948C105.991 58.7948 106.621 58.9852 107.206 59.366C107.822 59.7469 108.525 60.157 109.316 60.5964C110.107 61.0358 111.029 61.4459 112.084 61.8268C113.168 62.2076 114.53 62.398 116.17 62.398C117.459 62.398 118.558 62.2515 119.466 61.9586C120.404 61.6363 121.165 61.2262 121.751 60.7282C122.366 60.2302 122.806 59.659 123.069 59.0145C123.362 58.3407 123.509 57.6523 123.509 56.9493C123.509 55.8947 123.186 55.0305 122.542 54.3567C121.927 53.6829 121.092 53.097 120.037 52.599C119.012 52.101 117.826 51.6616 116.478 51.2808C115.16 50.8707 113.798 50.4313 112.392 49.9626C111.015 49.4938 109.652 48.9519 108.305 48.3367C106.987 47.6922 105.8 46.8867 104.746 45.9199C103.72 44.9532 102.885 43.7668 102.241 42.3607C101.626 40.9545 101.318 39.2555 101.318 37.2635C101.318 35.4179 101.684 33.6603 102.417 31.9905C103.149 30.3207 104.218 28.8706 105.625 27.6403C107.06 26.3806 108.832 25.3846 110.941 24.6522C113.08 23.8906 115.541 23.5098 118.324 23.5098C121.429 23.5098 124.256 24.0224 126.804 25.0477C129.353 26.073 131.477 27.4206 133.176 29.0903L130.715 33.0011Z" fill="black"/>
</svg>
