<?xml version="1.0" encoding="UTF-8"?>
<svg width="109px" height="24px" viewBox="0 0 109 24" version="1.1" xmlns="http://www.w3.org/2000/svg" xmlns:xlink="http://www.w3.org/1999/xlink">
    <!-- Generator: Sketch 56.2 (81672) - https://sketch.com -->
    <title>Logo/Color/Powered by BioDigital</title>
    <desc>Created with Sketch.</desc>
    <g id="Logo/Color/Powered-by-BioDigital" stroke="none" stroke-width="1" fill="none" fill-rule="evenodd">
        <g id="LOGO2019_UPDATED_02c">
            <g id="BIODIGITAL" transform="translate(30.000000, 14.000000)" fill="#050505">
                <path d="M1.55991976,5.28910562 L1.55991976,8.30776463 L3.21776122,8.30776463 C3.87041907,8.30776463 4.36321103,8.18286041 4.6960604,7.93286041 C5.02890976,7.68297535 5.19533445,7.28853091 5.19533445,6.74952708 C5.19533445,6.25400984 5.02564954,5.88676846 4.68627974,5.647688 C4.34687157,5.40868417 3.83125806,5.28910562 3.13943921,5.28910562 L1.55991976,5.28910562 Z M1.55991976,4.02423972 L3.0611172,4.02423972 C3.71377505,4.02423972 4.19022755,3.92102133 4.49043635,3.71454623 C4.79068351,3.50818608 4.94080709,3.15711328 4.94080709,2.66159604 C4.94080709,2.21397152 4.77867823,1.8901401 4.45457393,1.69017842 C4.13035456,1.49029336 3.61585336,1.39021673 2.91099362,1.39021673 L1.55991976,1.39021673 L1.55991976,4.02423972 Z M8.8817842e-15,0.0862703723 L2.83267161,0.0862703723 C4.14665566,0.0862703723 5.0963388,0.277611368 5.68160597,0.660025162 C6.26679643,1.0425539 6.5595259,1.64676846 6.5595259,2.47251558 C6.5595259,3.02895236 6.4158844,3.49186424 6.12867813,3.86125122 C5.84151021,4.23071482 5.42807586,4.46328187 4.8886052,4.55887574 L4.8886052,4.62404815 C5.55863811,4.75017842 6.05135336,4.99895236 6.36690438,5.37059987 C6.68237869,5.74220907 6.84013502,6.24538915 6.84013502,6.87991022 C6.84013502,7.73627037 6.54092346,8.40665351 5.94265377,8.89125122 C5.34434572,9.37600217 4.51218395,9.6182244 3.44616845,9.6182244 L8.8817842e-15,9.6182244 L8.8817842e-15,0.0862703723 L8.8817842e-15,0.0862703723 Z" id="Fill-10"></path>
                <polygon id="Fill-1" points="9.52633729 9.67575914 11.1721386 9.67575914 11.1721386 0.205867216 9.52633729 0.205867216"></polygon>
                <path d="M15.4576219,4.87944096 C15.4576219,6.783961 16.4219062,8.29953484 18.0709493,8.29953484 C19.734028,8.29953484 20.6704324,6.7700755 20.6704324,4.80993738 C20.6704324,3.04442452 19.7899025,1.37626233 18.0709493,1.37626233 C16.3659934,1.37626233 15.4576219,2.94711189 15.4576219,4.87944096 Z M22.4870226,4.74043379 C22.4870226,7.88247528 20.5725278,9.67575914 17.9731594,9.67575914 C15.3178783,9.67575914 13.6408405,7.66004097 13.6408405,4.90725001 C13.6408405,2.02964171 15.4576219,8.8817842e-15 18.112903,8.8817842e-15 C20.8658593,8.8817842e-15 22.4870226,2.07133625 22.4870226,4.74043379 L22.4870226,4.74043379 Z" id="Fill-2"></path>
                <path d="M26.6687911,8.25688205 C26.90551,8.2990547 27.2680214,8.2990547 27.6160476,8.2990547 C29.8448639,8.31308662 31.1679735,7.07654761 31.1679735,4.67432119 C31.1820775,2.58114302 29.9839982,1.34860215 27.8390436,1.34860215 C27.2958482,1.34860215 26.90551,1.39073636 26.6687911,1.44694093 L26.6687911,8.25688205 Z M24.9557245,0.196677555 C25.7078118,0.0702364919 26.6687911,8.8817842e-15 27.6858053,8.8817842e-15 C29.4408028,8.8817842e-15 30.652605,0.365214381 31.5163809,1.09575847 C32.4217065,1.84029604 32.9790059,3.00260042 32.9790059,4.61811662 C32.9790059,6.30390776 32.4079836,7.56820305 31.5163809,8.38332311 C30.5832284,9.24023138 29.0927766,9.67575914 27.2680214,9.67575914 C26.2651112,9.67575914 25.5126427,9.65803663 24.9557245,9.58776169 L24.9557245,0.196677555 L24.9557245,0.196677555 Z" id="Fill-3"></path>
                <polygon id="Fill-4" points="35.4477078 9.67575914 37.0935091 9.67575914 37.0935091 0.205867216 35.4477078 0.205867216"></polygon>
                <path d="M47.5854924,9.14135988 C46.9856111,9.36634174 45.8137233,9.67575914 44.5578292,9.67575914 C42.9670554,9.67575914 41.766911,9.26793623 40.8741532,8.41007264 C40.0367631,7.60816589 39.5483811,6.35652633 39.5625094,4.9220842 C39.5625094,1.92666209 41.6832865,8.8817842e-15 44.794956,8.8817842e-15 C45.9530974,8.8817842e-15 46.8599835,0.239067273 47.2926159,0.450002194 L46.9157331,1.84226503 C46.3994763,1.61724469 45.7717201,1.43444213 44.7808277,1.43444213 C42.7715499,1.43444213 41.3625352,2.62981698 41.3625352,4.83772563 C41.3625352,6.98936957 42.6741789,8.26944936 44.6273253,8.26944936 C45.241335,8.26944936 45.7018422,8.1850523 45.9252226,8.07256138 L45.9252226,5.70963615 L44.2645708,5.70963615 L44.2645708,4.34550566 L47.5854924,4.34550566 L47.5854924,9.14135988" id="Fill-5"></path>
                <polygon id="Fill-6" points="50.6713699 9.67575914 52.3171712 9.67575914 52.3171712 0.205867216 50.6713699 0.205867216"></polygon>
                <polyline id="Fill-7" points="57.5018877 1.65298414 54.7858731 1.65298414 54.7858731 0.205867216 61.9862538 0.205867216 61.9862538 1.65298414 59.2419797 1.65298414 59.2419797 9.67575914 57.5018877 9.67575914 57.5018877 1.65298414"></polyline>
                <path d="M67.8113392,5.68528751 L67.0634054,3.35301394 C66.8795125,2.77698159 66.7242081,2.1307042 66.5831978,1.5827391 L66.5549958,1.5827391 C66.4139855,2.1307042 66.2725889,2.79101522 66.1033766,3.35301394 L65.3689642,5.68528751 L67.8113392,5.68528751 Z M65.0869437,6.99191436 L64.2679252,9.67575914 L62.3977042,9.67575914 L65.5242687,0.205867216 L67.7410273,0.205867216 L70.8324358,9.67575914 L68.9691687,9.67575914 L68.1080403,6.99191436 L65.0869437,6.99191436 L65.0869437,6.99191436 Z" id="Fill-8"></path>
                <polyline id="Fill-9" points="73.3011378 8.8817842e-15 75.0472753 8.8817842e-15 75.0472753 8.22077317 78.8557172 8.22077317 78.8557172 9.67575914 73.3011378 9.67575914 73.3011378 8.8817842e-15"></polyline>
            </g>
            <g id="B">
                <path d="M8.91808393,0.0192 L2.69684161,0.0192 C1.17293156,0.0192 0.000467170463,1.56013333 0.000467170463,3.46493333 L0,23.9978 L6.1564391,23.9978 C7.67994872,23.9978 8.91808393,22.4537333 8.91808393,20.5478 L8.91808393,0.0192" id="Path" fill="#000000"></path>
                <path d="M22.197738,8.53346667 C22.197738,9.72453333 21.2198168,10.6486 20.0169196,10.6486 L11.3741993,10.6486 L11.3741993,0.0192 L20.0169196,0.0192 C21.2198168,0.0192 22.197738,0.9574 22.197738,2.14666667 L22.197738,8.53346667" id="Path" fill="#000000"></path>
                <path d="M22.197738,21.8443333 C22.197738,23.0358 21.2198168,23.9999333 20.0169196,23.9999333 L11.3741993,23.9999333 L11.3741993,13.3440667 L20.0169196,13.3440667 C21.2198168,13.3440667 22.1968704,14.3003333 22.1968704,15.491 L22.197738,21.8443333" id="Path-Standout" fill="#000000"></path>
            </g>
        </g>
        <path d="M30.5779474,10.7897727 L30.5779474,4.22727273 L31.6841264,4.22727273 L31.6841264,5.01651278 L31.7493786,5.01651278 C31.8073807,4.90050842 31.8886861,4.77673776 31.9932972,4.64519709 C32.0979083,4.51365642 32.2408401,4.40076101 32.4220969,4.30650746 C32.6033538,4.21225391 32.8338054,4.16512784 33.1134588,4.16512784 C33.482187,4.16512784 33.8151767,4.25937998 34.1124379,4.44788707 C34.409699,4.63639417 34.6458473,4.91293615 34.8208896,5.27752131 C34.9959319,5.64210646 35.0834517,6.08954517 35.0834517,6.61985085 C35.0834517,7.14394201 34.9974855,7.58930925 34.8255504,7.95596591 C34.6536154,8.32262257 34.4195386,8.60227176 34.1233132,8.79492188 C33.8270878,8.98757199 33.4915087,9.0838956 33.1165661,9.0838956 C32.8431272,9.0838956 32.6163006,9.03832314 32.4360795,8.94717685 C32.2558585,8.85603056 32.1113731,8.74572449 32.002619,8.61625533 C31.8938649,8.48678617 31.8094522,8.36405124 31.7493786,8.24804688 L31.7027699,8.24804688 L31.7027699,10.7897727 L30.5779474,10.7897727 Z M31.6810192,6.61363636 C31.6810192,7.07558233 31.7783785,7.44896579 31.9731001,7.73379794 C32.1678218,8.01863009 32.4443637,8.16104403 32.8027344,8.16104403 C33.1735341,8.16104403 33.4552547,8.01500501 33.6479048,7.72292259 C33.8405549,7.43084016 33.9368786,7.06108178 33.9368786,6.61363636 C33.9368786,6.16826245 33.8415907,5.80264703 33.6510121,5.51677912 C33.4604335,5.23091121 33.1776771,5.0879794 32.8027344,5.0879794 C32.4402207,5.0879794 32.162643,5.22625039 31.9699929,5.50279652 C31.7773428,5.77934265 31.6810192,6.14961889 31.6810192,6.61363636 Z M38.5143328,9.09321733 C38.0482438,9.09321733 37.6443061,8.99067929 37.3025075,8.78560014 C36.9607089,8.58052099 36.6960779,8.29310377 36.5086066,7.92333984 C36.3211352,7.55357592 36.227401,7.12322689 36.227401,6.63227983 C36.227401,6.13926127 36.3211352,5.70787649 36.5086066,5.33811257 C36.6960779,4.96834865 36.9607089,4.68041355 37.3025075,4.47429865 C37.6443061,4.26818375 38.0482438,4.16512784 38.5143328,4.16512784 C38.9804218,4.16512784 39.3848774,4.26818375 39.7277117,4.47429865 C40.070546,4.68041355 40.335177,4.96834865 40.5216126,5.33811257 C40.7080482,5.70787649 40.8012646,6.13926127 40.8012646,6.63227983 C40.8012646,7.12322689 40.7080482,7.55357592 40.5216126,7.92333984 C40.335177,8.29310377 40.070546,8.58052099 39.7277117,8.78560014 C39.3848774,8.99067929 38.9804218,9.09321733 38.5143328,9.09321733 Z M38.5205473,8.19211648 C38.7753426,8.19211648 38.987151,8.12272205 39.1559787,7.98393111 C39.3248065,7.84514017 39.4511665,7.65715377 39.5350626,7.41996626 C39.6189586,7.18277876 39.6609059,6.9191835 39.6609059,6.62917259 C39.6609059,6.33709016 39.6189586,6.07245916 39.5350626,5.83527166 C39.4511665,5.59808416 39.3248065,5.40906202 39.1559787,5.26819957 C38.987151,5.12733713 38.7753426,5.05690696 38.5205473,5.05690696 C38.2636805,5.05690696 38.0498006,5.12733713 37.8789013,5.26819957 C37.708002,5.40906202 37.5800884,5.59808416 37.4951567,5.83527166 C37.4102249,6.07245916 37.3677596,6.33709016 37.3677596,6.62917259 C37.3677596,6.9191835 37.4102249,7.18277876 37.4951567,7.41996626 C37.5800884,7.65715377 37.708002,7.84514017 37.8789013,7.98393111 C38.0498006,8.12272205 38.2636805,8.19211648 38.5205473,8.19211648 Z M42.9954625,9 L41.6469184,4.22727273 L42.7934916,4.22727273 L43.6324475,7.58309659 L43.675949,7.58309659 L44.5335484,4.22727273 L45.6676926,4.22727273 L46.525292,7.56445312 L46.5719007,7.56445312 L47.3984277,4.22727273 L48.5481081,4.22727273 L47.1964568,9 L46.0250257,9 L45.1301393,5.7746804 L45.0648872,5.7746804 L44.1700008,9 L42.9954625,9 Z M51.7086589,9.09321733 C51.2301409,9.09321733 50.8173994,8.99275077 50.470422,8.79181463 C50.1234447,8.59087849 49.8567422,8.30708635 49.6703066,7.94042969 C49.483871,7.57377302 49.3906546,7.14083465 49.3906546,6.64160156 C49.3906546,6.15065451 49.483871,5.71926973 49.6703066,5.3474343 C49.8567422,4.97559887 50.1193017,4.68559231 50.457993,4.47740589 C50.7966844,4.26921948 51.1938898,4.16512784 51.6496212,4.16512784 C52.041136,4.16512784 52.4026085,4.24954047 52.7340495,4.41836825 C53.0654906,4.58719604 53.3311573,4.84923769 53.5310577,5.20450107 C53.7309581,5.55976444 53.8309068,6.01704266 53.8309068,6.57634943 L53.8309068,6.92125355 L50.5061553,6.92125355 C50.5123699,7.32934035 50.6257831,7.64731183 50.8463986,7.87517756 C51.067014,8.10304328 51.35961,8.21697443 51.7241951,8.21697443 C51.9665614,8.21697443 52.1762983,8.16466968 52.3534121,8.06005859 C52.5305259,7.95544751 52.6574038,7.80267619 52.7340495,7.60174006 L53.7842981,7.71981534 C53.6848658,8.13411665 53.4533784,8.46658847 53.089829,8.71724077 C52.7262796,8.96789306 52.2658942,9.09321733 51.7086589,9.09321733 Z M50.5092626,6.16308594 L52.752693,6.16308594 C52.7506215,5.83785941 52.649637,5.56960333 52.4497367,5.35830966 C52.2498363,5.14701599 51.9883125,5.04137074 51.6651575,5.04137074 C51.3295734,5.04137074 51.0571744,5.15219468 50.8479522,5.37384588 C50.63873,5.59549708 50.5258346,5.85857447 50.5092626,6.16308594 Z M55.1706124,9 L55.1706124,4.22727273 L56.2612552,4.22727273 L56.2612552,5.02272727 L56.3109711,5.02272727 C56.3979744,4.74514539 56.5471206,4.53178342 56.7584143,4.38263494 C56.9697079,4.23348647 57.2131063,4.15891335 57.4886167,4.15891335 C57.6170501,4.15891335 57.7351242,4.17444942 57.8428425,4.20552202 C57.9505609,4.23659462 58.0458487,4.27905986 58.128709,4.33291903 L57.7806976,5.26509233 C57.720624,5.23609124 57.6543367,5.21226927 57.581834,5.19362571 C57.5093313,5.17498215 57.427508,5.16566051 57.3363617,5.16566051 C57.0422078,5.16566051 56.7951843,5.26146625 56.5952839,5.45308061 C56.3953836,5.64469497 56.2954349,5.89171842 56.2954349,6.19415838 L56.2954349,9 L55.1706124,9 Z M61.0935034,9.09321733 C60.6149854,9.09321733 60.2022439,8.99275077 59.8552666,8.79181463 C59.5082892,8.59087849 59.2415868,8.30708635 59.0551512,7.94042969 C58.8687156,7.57377302 58.7754992,7.14083465 58.7754992,6.64160156 C58.7754992,6.15065451 58.8687156,5.71926973 59.0551512,5.3474343 C59.2415868,4.97559887 59.5041463,4.68559231 59.8428376,4.47740589 C60.1815289,4.26921948 60.5787344,4.16512784 61.0344658,4.16512784 C61.4259805,4.16512784 61.787453,4.24954047 62.1188941,4.41836825 C62.4503351,4.58719604 62.7160019,4.84923769 62.9159022,5.20450107 C63.1158026,5.55976444 63.2157513,6.01704266 63.2157513,6.57634943 L63.2157513,6.92125355 L59.8909999,6.92125355 C59.8972144,7.32934035 60.0106277,7.64731183 60.2312432,7.87517756 C60.4518586,8.10304328 60.7444545,8.21697443 61.1090397,8.21697443 C61.3514059,8.21697443 61.5611428,8.16466968 61.7382566,8.06005859 C61.9153705,7.95544751 62.0422483,7.80267619 62.1188941,7.60174006 L63.1691427,7.71981534 C63.0697103,8.13411665 62.838223,8.46658847 62.4746735,8.71724077 C62.1111241,8.96789306 61.6507387,9.09321733 61.0935034,9.09321733 Z M59.8941071,6.16308594 L62.1375375,6.16308594 C62.135466,5.83785941 62.0344816,5.56960333 61.8345812,5.35830966 C61.6346808,5.14701599 61.3731571,5.04137074 61.050002,5.04137074 C60.714418,5.04137074 60.4420189,5.15219468 60.2327968,5.37384588 C60.0235746,5.59549708 59.9106792,5.85857447 59.8941071,6.16308594 Z M68.8652048,9 L67.7590259,9 L67.7590259,8.24804688 L67.6937737,8.24804688 C67.6337001,8.36405124 67.5492874,8.48678617 67.4405333,8.61625533 C67.3317792,8.74572449 67.1872938,8.85603056 67.0070727,8.94717685 C66.8268517,9.03832314 66.6000251,9.0838956 66.3265862,9.0838956 C65.9516436,9.0838956 65.6160645,8.98757199 65.3198391,8.79492188 C65.0236136,8.60227176 64.7895369,8.32262257 64.6176019,7.95596591 C64.4456668,7.58930925 64.3597006,7.14394201 64.3597006,6.61985085 C64.3597006,6.08954517 64.4472204,5.64210646 64.6222627,5.27752131 C64.797305,4.91293615 65.0334532,4.63639417 65.3307144,4.44788707 C65.6279756,4.25937998 65.9609653,4.16512784 66.3296935,4.16512784 C66.6093469,4.16512784 66.8397985,4.21225391 67.0210553,4.30650746 C67.2023122,4.40076101 67.345244,4.51365642 67.4498551,4.64519709 C67.5544661,4.77673776 67.6357716,4.90050842 67.6937737,5.01651278 L67.7403824,5.01651278 L67.7403824,2.63636364 L68.8652048,2.63636364 L68.8652048,9 Z M67.7621331,6.61363636 C67.7621331,6.14961889 67.6658095,5.77934265 67.4731594,5.50279652 C67.2805093,5.22625039 67.0029316,5.0879794 66.6404179,5.0879794 C66.2654752,5.0879794 65.9827188,5.23091121 65.7921402,5.51677912 C65.6015616,5.80264703 65.5062737,6.16826245 65.5062737,6.61363636 C65.5062737,7.06108178 65.6025974,7.43084016 65.7952475,7.72292259 C65.9878976,8.01500501 66.2696182,8.16104403 66.6404179,8.16104403 C66.9987886,8.16104403 67.2753305,8.01863009 67.4700522,7.73379794 C67.6647738,7.44896579 67.7621331,7.07558233 67.7621331,6.61363636 Z M73.0702731,9 L73.0702731,2.63636364 L74.1950956,2.63636364 L74.1950956,5.01651278 L74.2417042,5.01651278 C74.2997064,4.90050842 74.3810118,4.77673776 74.4856229,4.64519709 C74.590234,4.51365642 74.7331658,4.40076101 74.9144226,4.30650746 C75.0956795,4.21225391 75.3261311,4.16512784 75.6057845,4.16512784 C75.9745127,4.16512784 76.3075024,4.25937998 76.6047635,4.44788707 C76.9020247,4.63639417 77.1381729,4.91293615 77.3132152,5.27752131 C77.4882576,5.64210646 77.5757774,6.08954517 77.5757774,6.61985085 C77.5757774,7.14394201 77.4898112,7.58930925 77.3178761,7.95596591 C77.1459411,8.32262257 76.9118643,8.60227176 76.6156389,8.79492188 C76.3194135,8.98757199 75.9838344,9.0838956 75.6088917,9.0838956 C75.3354529,9.0838956 75.1086263,9.03832314 74.9284052,8.94717685 C74.7481842,8.85603056 74.6036987,8.74572449 74.4949447,8.61625533 C74.3861906,8.48678617 74.3017779,8.36405124 74.2417042,8.24804688 L74.1764521,8.24804688 L74.1764521,9 L73.0702731,9 Z M74.1733449,6.61363636 C74.1733449,7.07558233 74.2707042,7.44896579 74.4654258,7.73379794 C74.6601474,8.01863009 74.9366894,8.16104403 75.2950601,8.16104403 C75.6658597,8.16104403 75.9475804,8.01500501 76.1402305,7.72292259 C76.3328806,7.43084016 76.4292042,7.06108178 76.4292042,6.61363636 C76.4292042,6.16826245 76.3339164,5.80264703 76.1433378,5.51677912 C75.9527592,5.23091121 75.6700028,5.0879794 75.2950601,5.0879794 C74.9325464,5.0879794 74.6549687,5.22625039 74.4623186,5.50279652 C74.2696685,5.77934265 74.1733449,6.14961889 74.1733449,6.61363636 Z M79.5245029,10.8581321 C79.3608539,10.8581321 79.2179221,10.8436318 79.0957032,10.8146307 C78.9734843,10.7856296 78.8802679,10.7576647 78.8160512,10.7307351 L79.0770598,9.82963423 C79.323569,9.90006546 79.5301987,9.91249431 79.696955,9.86692116 C79.8637113,9.82134802 79.9999108,9.6670231 80.1055576,9.40394176 L80.2174184,9.09943182 L78.4866833,4.22727273 L79.6798652,4.22727273 L80.7798296,7.83167614 L80.8295456,7.83167614 L81.9326173,4.22727273 L83.1289064,4.22727273 L81.2024149,9.62144886 C81.0698385,9.99639155 80.8657981,10.2962376 80.5902877,10.5209961 C80.3147774,10.7457546 79.9595193,10.8581321 79.5245029,10.8581321 Z" id="poweredby" fill="#000000" fill-rule="nonzero"></path>
    </g>
</svg>